<?xml version="1.0" encoding="utf-8" ?>
<svg baseProfile="full" height="200mm" version="1.1" viewBox="0,0,200,200" width="200mm" xmlns="http://www.w3.org/2000/svg" xmlns:ev="http://www.w3.org/2001/xml-events" xmlns:xlink="http://www.w3.org/1999/xlink"><defs /><rect fill="#1a1a1a" height="200" width="200" x="0" y="0" /><text alignment-baseline="middle" fill="#e1ed5e" style="dominant-baseline: central; font-size:9.0px; font-family:Arial;" text-anchor="middle" x="100.0" y="100.0">2016</text><line stroke="#e1ed5e" stroke-width="0.3" x1="100.0" x2="100.0" y1="15.0" y2="10.0" /><path d="M 100.0 14.0 a86.0,86.0 0 0,1 42.35913384403234,11.155469271406648" fill="none" id="id1" stroke="none" /><text fill="#e1ed5e" style="font-size:6.75px; font-family:Arial;" text-anchor="middle"><textPath startOffset="22.145653131862478" xlink:href="#id1">January</textPath></text><line stroke="#e1ed5e" stroke-width="0.3" x1="143.13028292997686" x2="145.6673583964461" y1="26.7553504044142" y2="22.446841604673864" /><path d="M 143.63769802327073 25.89364864446614 a86.0,86.0 0 0,1 29.32050498858742,28.57503671076993" fill="none" id="id2" stroke="none" /><text fill="#e1ed5e" style="font-size:6.75px; font-family:Arial;" text-anchor="middle"><textPath startOffset="20.669276256404974" xlink:href="#id2">February</textPath></text><line stroke="#e1ed5e" stroke-width="0.3" x1="172.87174338648825" x2="177.1583165268699" y1="56.24261187166439" y2="53.66864786411523" /><path d="M 173.72905801456457 55.72781907015455 a86.0,86.0 0 0,1 12.242430191666344,42.057860355516425" fill="none" id="id3" stroke="none" /><text fill="#e1ed5e" style="font-size:6.75px; font-family:Arial;" text-anchor="middle"><textPath startOffset="22.145653131862474" xlink:href="#id3">March</textPath></text><line stroke="#e1ed5e" stroke-width="0.3" x1="184.99686870605535" x2="189.99668451229388" y1="99.2704041080226" y2="99.22748670261217" /><path d="M 185.99683186730306 99.26182062694052 a86.0,86.0 0 0,1 -10.086455211305974,41.156179273409016" fill="none" id="id4" stroke="none" /><text fill="#e1ed5e" style="font-size:6.75px; font-family:Arial;" text-anchor="middle"><textPath startOffset="21.40746469413373" xlink:href="#id4">April</textPath></text><line stroke="#e1ed5e" stroke-width="0.3" x1="174.33088141563837" x2="178.70328620479359" y1="141.23008692659167" y2="143.65538615756765" /><path d="M 175.20536237346943 141.71514677278685 a86.0,86.0 0 0,1 -30.301960400862466,31.631185727798858" fill="none" id="id5" stroke="none" /><text fill="#e1ed5e" style="font-size:6.75px; font-family:Arial;" text-anchor="middle"><textPath startOffset="22.145653131862474" xlink:href="#id5">May</textPath></text><line stroke="#e1ed5e" stroke-width="0.3" x1="143.1302829299769" x2="145.66735839644613" y1="173.24464959558577" y2="177.55315839532614" /><path d="M 143.63769802327073 174.10635135553383 a86.0,86.0 0 0,1 -40.68552437913181,11.842963189579606" fill="none" id="id6" stroke="none" /><text fill="#e1ed5e" style="font-size:6.75px; font-family:Arial;" text-anchor="middle"><textPath startOffset="21.407464694133747" xlink:href="#id6">June</textPath></text><line stroke="#e1ed5e" stroke-width="0.3" x1="101.45913802915013" x2="101.54496967792366" y1="184.9874750549273" y2="189.98673829345242" /><path d="M 101.47630435890484 185.9873277026323 a86.0,86.0 0 0,1 -42.54439059252881,-10.42667462771756" fill="none" id="id7" stroke="none" /><text fill="#e1ed5e" style="font-size:6.75px; font-family:Arial;" text-anchor="middle"><textPath startOffset="22.145653131862474" xlink:href="#id7">July</textPath></text><path d="M 93.95794788825049 120.11202640906438 l -12.861467539900103 42.811642474711455 a65.70183529411764,65.70183529411764 0 0,0 -1.0773829724311674,-0.3337759988829528 l 13.594491145202904 -42.58454988802185" fill="#34ff5c" stroke="none" /><line stroke="#e1ed5e" stroke-width="0.3" x1="58.13341422392154" x2="55.67067388415222" y1="173.97424548756322" y2="178.32567169271397" /><path d="M 57.64086615596768 174.84453072859336 a86.0,86.0 0 0,1 -31.369924170532247,-30.572349798747897" fill="none" id="id8" stroke="none" /><text fill="#e1ed5e" style="font-size:6.75px; font-family:Arial;" text-anchor="middle"><textPath startOffset="22.145653131862474" xlink:href="#id8">August</textPath></text><path d="M 87.2517909369889 116.68781488649013 l -8.24824124269834 10.79721255879307 a34.58724705882353,34.58724705882353 0 0,0 -0.4687231693040773,-0.36448197149759337 l 8.432374356637645 -10.654029535674683" fill="#ff6d0a" stroke="none" /><path d="M 81.99639281039703 110.81064883170644 l -5.614583757435244 3.3713962262455834 a27.549035294117648,27.549035294117648 0 0,0 -0.23997346742176004,-0.40752741089319816 l 5.671630934986774 -3.274517647058827" fill="#ff0000" stroke="none" /><line stroke="#e1ed5e" stroke-width="0.3" x1="26.387840678322732" x2="22.057713659400548" y1="142.50000000000003" y2="145.00000000000006" /><path d="M 25.521815274538298 143.00000000000003 a86.0,86.0 0 0,1 -11.493303480769221,-40.785679425670985" fill="none" id="id9" stroke="none" /><text fill="#e1ed5e" style="font-size:6.75px; font-family:Arial;" text-anchor="middle"><textPath startOffset="21.40746469413373" xlink:href="#id9">September</textPath></text><path d="M 80.05021161711548 106.5578916946017 l -12.369807610959363 4.06620145732103 a34.02098823529412,34.02098823529412 0 0,0 -0.17761431974834,-0.5563743268771836 l 12.437786646484957 -3.8532580967524552" fill="#ff6509" stroke="none" /><path d="M 79.407916724674 104.11899336999214 l -23.594166757065295 4.719494144591464 a45.06155294117647,45.06155294117647 0 0,0 -0.14521344585968043,-0.7598181100993376 l 23.671706495207133 -4.313773469458813" fill="#fdff18" stroke="none" /><path d="M 79.2786578344484 103.40968896794605 l -12.1197911423831 1.9943070203577131 a33.28277647058823,33.28277647058823 0 0,0 -0.08792756076589589,-0.5645580150932091 l 12.152240195287263 -1.785960823333054" fill="#ff5908" stroke="none" /><line stroke="#e1ed5e" stroke-width="0.3" x1="15.003131293944662" x2="10.003315487706104" y1="100.72959589197737" y2="100.7725132973878" /><path d="M 14.003168132696942 100.73817937305945 a86.0,86.0 0 0,1 10.791469493833604,-42.45332614584628" fill="none" id="id10" stroke="none" /><text fill="#e1ed5e" style="font-size:6.75px; font-family:Arial;" text-anchor="middle"><textPath startOffset="22.145653131862435" xlink:href="#id10">October</textPath></text><path d="M 80.9802524753101 91.09779779509293 l -21.39788725048289 -10.01529167589239 a44.625741176470584,44.625741176470584 0 0,0 0.33069956933197975,-0.6910349103174991 l 21.222808423191005 10.381139088274978" fill="#fffb17" stroke="none" /><path d="M 81.63589988554816 89.8137432299009 l -10.396241147146148 -5.766619715025518 a32.88847058823529,32.88847058823529 0 0,0 0.2780902405688866,-0.4913588089930248 l 10.295717541555891 5.9442352941176475" fill="#ff5307" stroke="none" /><line stroke="#e1ed5e" stroke-width="0.3" x1="26.387840678322718" x2="22.05771365940052" y1="57.49999999999999" y2="54.99999999999999" /><path d="M 25.521815274538284 56.99999999999999 a86.0,86.0 0 0,1 29.574782752854787,-30.34633250058573" fill="none" id="id11" stroke="none" /><text fill="#e1ed5e" style="font-size:6.75px; font-family:Arial;" text-anchor="middle"><textPath startOffset="21.40746469413373" xlink:href="#id11">November</textPath></text><path d="M 81.99639281039701 89.18935116829357 l -19.75398142271921 -11.861698266356097 a44.041694117647054,44.041694117647054 0 0,0 0.39476465393322135,-0.6448183944844054 l 19.547448804330596 12.199053776965046" fill="#fff316" stroke="none" /><path d="M 83.8745106332314 86.54754324733833 l -21.886652438416007 -18.258623889894967 a49.50268235294118,49.50268235294118 0 0,0 0.5499640435200762,-0.6478562604017322 l 21.569993831388814 18.631646932746257" fill="#c3ff1e" stroke="none" /><path d="M 84.58840730492382 85.73525988315684 l -4.880216811537299 -4.517055823352359 a27.649835294117647,27.649835294117647 0 0,0 0.3254045471949579,-0.34556835257470697 l 4.80195643060607 4.600165635871577" fill="#ff0200" stroke="none" /><path d="M 84.83555147118756 85.47280134310135 l -8.709031992735394 -8.343055642766641 a33.060423529411764,33.060423529411764 0 0,0 0.39611613902593196,-0.4064500545678188 l 8.56452905255866 8.49132838940219" fill="#ff5608" stroke="none" /><path d="M 85.08716467003674 85.21462403516908 l -17.27853734866001 -17.130858429651862 a45.33134117647059,45.33134117647059 0 0,0 0.5526280767867222,-0.5479047882729657 l 16.98191735174331 17.4249432281535" fill="#f9ff18" stroke="none" /><path d="M 85.34317274990677 84.96080404539775 l -7.94779390130938 -8.155136705170905 a32.38743529411765,32.38743529411765 0 0,0 0.4014924056817181,-0.3846206425174402 l 7.806629009762362 8.290369477993915" fill="#ff4c07" stroke="none" /><path d="M 85.60350026404147 84.71141617570332 l -6.694880488976102 -7.109731075374106 a30.765741176470588,30.765741176470588 0 0,0 0.38760472279783564,-0.35876114481916205 l 6.571845994864313 7.2236099663256335" fill="#ff3304" stroke="none" /><path d="M 86.13680546590413 84.22622945171909 l -41.3410246791116 -47.038497217600614 a83.62348235294118,83.62348235294118 0 0,0 1.0863905695034126,-0.9383982990573482 l 40.52745462984534 47.741239649122676" fill="#4cd6ff" stroke="none" /><path d="M 86.68645165197937 83.75963576809568 l -11.557413005926426 -14.098164658161831 a39.229976470588234,39.229976470588234 0 0,0 0.524465984433309,-0.4224726720603973 l 11.313696251137872 14.294485624015628" fill="#ffb110" stroke="none" /><path d="M 86.96720088162412 83.53348406188908 l -9.262180342857055 -11.70246229164005 a35.9243294117647,35.9243294117647 0 0,0 0.4868431855350393,-0.3785722057167295 l 9.059927212686773 11.859735548977584" fill="#ff810b" stroke="none" /><path d="M 87.25179093698888 83.31218511350988 l -6.128139086054521 -8.021930779552775 a31.094823529411762,31.094823529411762 0 0,0 0.4269571154787377,-0.32039657915944525 l 5.989528981665031 8.12594638597622" fill="#ff3805" stroke="none" /><path d="M 88.12776184653039 82.6780497279521 l -7.755225308626428 -11.31510549300221 a34.717694117647056,34.717694117647056 0 0,0 0.4944852942524549,-0.33271177415057346 l 7.559843726276983 11.446566941209893" fill="#ff6f0a" stroke="none" /><path d="M 88.4268655584334 82.4767994020092 l -9.280292276907987 -14.051545326577088 a37.8395294117647,37.8395294117647 0 0,0 0.5450953007472223,-0.3533241882897612 l 9.037711343903739 14.208783356570756" fill="#ff9d0e" stroke="none" /><path d="M 88.72937992617638 82.28071324371311 l -7.219031050579448 -11.34951586069745 a34.45087058823529,34.45087058823529 0 0,0 0.501729143824109,-0.31311609347328057 l 7.0231377779656405 11.471767751012266" fill="#ff6b09" stroke="none" /><line stroke="#e1ed5e" stroke-width="0.3" x1="56.869717070023135" x2="54.33264160355391" y1="26.7553504044142" y2="22.446841604673864" /><path d="M 56.362301976729285 25.89364864446614 a86.0,86.0 0 0,1 42.16139366436587,-11.88097634709845" fill="none" id="id12" stroke="none" /><text fill="#e1ed5e" style="font-size:6.75px; font-family:Arial;" text-anchor="middle"><textPath startOffset="22.145653131862474" xlink:href="#id12">December</textPath></text><path d="M 89.34428304082924 81.90426304109057 l -7.055338240730941 -11.981506777028502 a34.90447058823529,34.90447058823529 0 0,0 0.5189256487139144,-0.2996018629743781 l 6.848620124156627 12.100855537279054" fill="#ff720a" stroke="none" /><path d="M 89.97174638481275 81.54914285379989 l -5.3671213348482185 -9.874898744646297 a32.2392,32.2392 0 0,0 0.4885178100044702,-0.2601082179523021 l 5.196814709057187 9.965577430321174" fill="#ff4a06" stroke="none" /><path d="M 91.26138138417902 80.90454125486306 l -7.166489723195865 -15.660073390658892 a38.22197647058823,38.22197647058823 0 0,0 0.5989685796589755,-0.2679110271087012 l 6.8966077406812705 15.78078816867744" fill="#ffa20f" stroke="none" /><path d="M 91.5904679813234 80.7573450057729 l -3.5735564295835145 -8.176996451664506 a29.923764705882355,29.923764705882355 0 0,0 0.472460514063028,-0.2016652992147412 l 3.4326608403500556 8.23713640053865" fill="#ff2603" stroke="none" /><path d="M 92.25597844496254 80.48000691201159 l -14.215837027786192 -35.83319578208657 a59.55007058823529,59.55007058823529 0 0,0 0.9534469286777606,-0.368813754385403 l 13.598617836614903 36.07194942461002" fill="#4dff2c" stroke="none" /><path d="M 93.61358852112211 79.99465700312896 l -3.629886016088807 -11.370566245468625 a32.93590588235294,32.93590588235294 0 0,0 0.5400851288308129,-0.16731975348612868 l 3.434160254386378 11.431202586761396" fill="#ff5407" stroke="none" /><path d="M 94.30408787586887 79.78721728523814 l -10.481014394248257 -37.193422574711455 a59.64197647058823,59.64197647058823 0 0,0 0.9878375572136628,-0.26923951893707665 l 9.840995436099917 37.36786258779267" fill="#4cff2c" stroke="none" /><path d="M 95.70440661134978 79.44403061299748 l -2.42999191176302 -11.628390964760339 a32.87957647058823,32.87957647058823 0 0,0 0.5534783731717117,-0.11071117570022497 l 2.2300170530603314 11.66839153712343" fill="#ff5307" stroke="none" /><path d="M 96.05791012581881 79.37332000966035 l -1.6857303852557388 -8.820453697516067 a29.98009411764706,29.98009411764706 0 0,0 0.5063284794476304,-0.0922699156444373 l 1.53406717225707 8.848091787091866" fill="#ff2703" stroke="none" /><path d="M 96.76829788921471 79.25015418208739 l -3.2105629769782804 -20.614117414680162 a41.86263529411765,41.86263529411765 0 0,0 0.7110167153577817,-0.10449497195227969 l 2.8562211560128135 20.666193459931325" fill="#ffd614" stroke="none" /><path d="M 97.48249496171623 79.15144685158666 l -7.5525151148513325 -62.54565944524002 a84.0,84.0 0 0,0 1.4330563935968028,-0.16057695797211657 l 6.477722819653731 62.666092163719114" fill="#4dd2ff" stroke="none" /><path d="M 98.1996594967304 79.07731436759882 l -1.038266958473828 -12.066235878827127 a33.11082352941176,33.11082352941176 0 0,0 0.5667169802379457,-0.043867478439093055 l 0.8309809834606652 12.082281124261273" fill="#ff5708" stroke="none" /><path d="M 98.5590905019552 79.04949213459386 l -0.6125051998041771 -8.905691178739461 a29.926729411764704,29.926729411764704 0 0,0 0.5128239333822114,-0.030850214378107733 l 0.4595369142894818 8.914893370942263" fill="#ff2603" stroke="none" /><path d="M 99.63950707515114 79.00309439819443 l -0.23314137723283984 -13.579316408734773 a34.581317647058825,34.581317647058825 0 0,0 0.5936343020816887,-0.005095636518487569 l 3.3264634369348105e-15 13.581317647058825" fill="#ff6d0a" stroke="none" /></svg>