<?xml version="1.0" encoding="utf-8" ?>
<svg baseProfile="full" height="200mm" version="1.1" viewBox="0,0,200,200" width="200mm" xmlns="http://www.w3.org/2000/svg" xmlns:ev="http://www.w3.org/2001/xml-events" xmlns:xlink="http://www.w3.org/1999/xlink"><defs /><rect fill="#1a1a1a" height="200" width="200" x="0" y="0" /><text alignment-baseline="middle" fill="#e1ed5e" style="dominant-baseline: central; font-size:9.0px; font-family:Arial;" text-anchor="middle" x="100.0" y="100.0">2024</text><line stroke="#e1ed5e" stroke-width="0.3" x1="100.0" x2="100.0" y1="15.0" y2="10.0" /><path d="M 100.0 14.0 a86.0,86.0 0 0,1 42.35913384403234,11.155469271406648" fill="none" id="id97" stroke="none" /><text fill="#e1ed5e" style="font-size:6.75px; font-family:Arial;" text-anchor="middle"><textPath startOffset="22.145653131862478" xlink:href="#id97">January</textPath></text><path d="M 100.0 79.0 l 0.0 -10.643333911630158 a31.643333911630158,31.643333911630158 0 0,0 0.5431999044653576,0.00466271787247854 l -0.18270697961650278 10.641765591952115" fill="#ff6309" stroke="none" /><path d="M 101.08105385017728 79.02784411241856 l 0.8450678011371681 -16.394089580383127 a37.41585552927856,37.41585552927856 0 0,0 0.6411574729527012,0.038570441438378684 l -1.1263696262223317 16.377167161120056" fill="#ffb410" stroke="none" /><path d="M 101.44090949804482 79.04949213459386 l 2.479341371611787 -36.04907940260106 a57.134239433147364,57.134239433147364 0 0,0 0.9778960529623167,0.07569533914616285 l -3.097806419349337 36.00120629645985" fill="#5aff2a" stroke="none" /><path d="M 102.15924093988457 79.11130261209362 l 2.2899779640212277 -22.153459501360963 a43.27150122811983,43.27150122811983 0 0,0 0.7382202558986843,0.08271911945354987 l -2.6699341215207086 22.110884621400444" fill="#fdff18" stroke="none" /><path d="M 102.87502721639298 79.19773525538626 l 2.189879382534854 -15.844876324828006 a36.995489284768574,36.995489284768574 0 0,0 0.6283505825541411,0.09234589719477453 l -2.461555070696677 15.804949354334349" fill="#ffae10" stroke="none" /><path d="M 103.23170211078529 79.25015418208739 l 2.978724196892822 -19.12554613661233 a40.35611822822028,40.35611822822028 0 0,0 0.6835990068203817,0.1124859564323634 l -3.3066007067662744 19.071594181684294" fill="#ffdb14" stroke="none" /><path d="M 103.94208987418118 79.37332000966035 l 3.8099243793673576 -19.935134273651563 a41.295938073541095,41.295938073541095 0 0,0 0.6951552020139401,0.1390505093596808 l -4.151576066912255 19.866794367629026" fill="#ffe815" stroke="none" /><path d="M 104.64783097203109 79.52079915486377 l 8.59431975347949 -37.86815859224649 a59.831170046659416,59.831170046659416 0 0,0 0.9996587511187665,0.23591674333436777 l -9.243110658338141 37.715045705265894" fill="#3eff2d" stroke="none" /><path d="M 104.9986988182912 79.60360301121754 l 3.8059182769715902 -15.529445342840685 a36.98901768675182,36.98901768675182 0 0,0 0.6154174756449216,0.15643671573762127 l -4.071941045841906 15.461823395267794" fill="#ffae10" stroke="none" /><path d="M 105.69591212413111 79.78721728523813 l 5.288145521400768 -18.76576289428275 a40.4966238118283,40.4966238118283 0 0,0 0.6675000411815748,0.19429953373812306 l -5.609505574963947 18.67221966624211" fill="#ffdd14" stroke="none" /><path d="M 106.38641147887787 79.99465700312896 l 6.9382400700977 -21.73393819925414 a43.81454020836948,43.81454020836948 0 0,0 0.7145468467516807,0.2348857412310626 l -7.3103096544971224 21.611631536621058" fill="#f6ff19" stroke="none" /><path d="M 107.06938296918511 80.22567764915836 l 8.384197056071981 -23.45209135824419 a45.905729247514074,45.905729247514074 0 0,0 0.7397617513613,0.2716507618678123 l -8.785547959087406 23.304709747367657" fill="#dcff1b" stroke="none" /><path d="M 107.74402155503746 80.48000691201159 l 5.959796641162252 -15.02258076304397 a37.16159363386506,37.16159363386506 0 0,0 0.5909499242420473,0.24033418958574623 l -6.216801026594739 14.91805931687893" fill="#ffb110" stroke="none" /><path d="M 108.07796709384702 80.6158196554323 l 11.619568941074746 -27.882735503031718 a51.206974716254095,51.206974716254095 0 0,0 0.8084969867878324,0.34509928745714413 l -12.096501003033008 27.67916156591517" fill="#9dff22" stroke="none" /><path d="M 108.73861861582097 80.90454125486305 l 8.384240848647694 -18.321079368858936 a41.14838563875928,41.14838563875928 0 0,0 0.6397815389058373,0.29945006467162527 l -8.697511101425038 18.174453072616778" fill="#ffe615" stroke="none" /><path d="M 109.3889696526874 81.21577127319529 l 18.067681844614334 -36.14746674947768 a61.4113904690596,61.4113904690596 0 0,0 0.938929797920629,0.47942424495795405 l -18.685538864248542 35.83198455284689" fill="#30ff31" stroke="none" /><path d="M 110.02825361518725 81.54914285379988 l 6.961824137887924 -12.80897228711934 a35.57864075896893,35.57864075896893 0 0,0 0.5341130131795815,0.2962634848748732 l -7.180681339223606 12.687575886811322" fill="#ff9b0e" stroke="none" /><path d="M 110.34350942703115 81.72400993836675 l 7.842846524472609 -13.857558321703713 a36.92300738698101,36.92300738698101 0 0,0 0.5489352864505552,0.31692793539991243 l -8.07957427878356 13.72088348902763" fill="#ffad10" stroke="none" /><line stroke="#e1ed5e" stroke-width="0.3" x1="143.13028292997686" x2="145.6673583964461" y1="26.7553504044142" y2="22.446841604673864" /><path d="M 143.63769802327073 25.89364864446614 a86.0,86.0 0 0,1 29.32050498858742,28.57503671076993" fill="none" id="id98" stroke="none" /><text fill="#e1ed5e" style="font-size:6.75px; font-family:Arial;" text-anchor="middle"><textPath startOffset="20.669276256404974" xlink:href="#id98">February</textPath></text><path d="M 111.27062007382361 82.28071324371311 l 9.611188834514758 -15.110385223890672 a38.90806221865098,38.90806221865098 0 0,0 0.5604879924847725,0.3633015451048148 l -9.869162459256538 14.943169837081964" fill="#ffc812" stroke="none" /><path d="M 111.8722381534696 82.67804972795209 l 21.148084806494406 -30.855687750846812 a58.40741848297524,58.40741848297524 0 0,0 0.8221676007350427,0.5739368380667335 l -21.67464749840321 30.48810609697495" fill="#4dff2c" stroke="none" /><path d="M 112.45986205192187 83.09580414077388 l 8.68991671085157 -11.789540965097519 a35.64608919163235,35.64608919163235 0 0,0 0.48944967978225834,0.36729216445329016 l -8.891019379544595 11.638629773380213" fill="#ff9c0e" stroke="none" /><path d="M 113.03279911837588 83.53348406188908 l 10.725756740403563 -13.55164325867131 a38.28261822365477,38.28261822365477 0 0,0 0.5118007416702276,0.41227044901595666 l -10.95680825242905 13.365524515861946" fill="#ffc011" stroke="none" /><path d="M 113.59037401385872 83.9905735841838 l 16.926882374301574 -19.939824874886934 a47.155610544481675,47.155610544481675 0 0,0 0.6126199143259735,0.5291664910483632 l -17.26668176839041 19.646314251373852" fill="#cdff1d" stroke="none" /><path d="M 113.86319453409587 84.22622945171908 l 11.494222099603164 -13.078314784099982 a38.411474930832654,38.411474930832654 0 0,0 0.49154793739104263,0.4395451966500622 l -11.717035063817583 12.879074057566534" fill="#ffc112" stroke="none" /><path d="M 114.39649973595853 84.71141617570332 l 11.833170337543143 -12.56641683261658 a38.26090241697636,38.26090241697636 0 0,0 0.47430312451244416,0.45437166411218155 l -12.0471459479209 12.361433038198818" fill="#ffbf11" stroke="none" /><path d="M 114.91283532996326 85.21462403516908 l 25.580223362166688 -25.361590288204283 a57.02163362765598,57.02163362765598 0 0,0 0.6832093162219505,0.701032945899416 l -26.01181947953945 24.918734650237123" fill="#5cff2a" stroke="none" /><path d="M 115.41159269507618 85.73525988315684 l 4.2374245672905575 -3.922096918408574 a26.77395975054101,26.77395975054101 0 0,0 0.30930591395468005,0.3399813818571705 l -4.304128182087116 3.8487779609937314" fill="#ff1b02" stroke="none" /><path d="M 115.8921839302757 86.27271002978787 l 16.39002545276805 -14.157313620104883 a42.65784992284303,42.65784992284303 0 0,0 0.4739194426712854,0.5582759118132895 l -16.630639458946447 13.873870925842041" fill="#fff917" stroke="none" /><path d="M 116.35404254752997 86.82634096563983 l 13.728431531864985 -11.058652657392248 a38.62848918432755,38.62848918432755 0 0,0 0.4115471316254059,0.5199763566246169 l -13.91624509413195 10.821356356852952" fill="#ffc412" stroke="none" /><path d="M 116.57777611688842 87.10902102172516 l 16.042525732479437 -12.474765041925425 a41.32196827889734,41.32196827889734 0 0,0 0.43063004998403537,0.5637085588394168 l -16.25430775981778 12.197535569845126" fill="#ffe815" stroke="none" /><path d="M 117.01052211995028 87.68569379921539 l 37.51496016005196 -27.15793808464626 a67.31334404704292,67.31334404704292 0 0,0 0.6695591066135914,0.9418187346361643 l -37.97563436519551 26.509942123300593" fill="#37ff7a" stroke="none" /><path d="M 117.42321728460499 88.27688183743584 l 17.17841533060072 -11.558404482745997 a41.704943068199455,41.704943068199455 0 0,0 0.39455966494541783,0.5974136213161139 l -17.374299434466863 11.261810983090825" fill="#ffed16" stroke="none" /><path d="M 117.62189284568427 88.57770195909679 l 18.165713369851304 -11.774795934415117 a42.648070619173275,42.648070619173275 0 0,0 0.3929355786237956,0.6177599944614673 l -18.36516664010099 11.461222265274976" fill="#fff917" stroke="none" /><line stroke="#e1ed5e" stroke-width="0.3" x1="172.87174338648825" x2="177.1583165268699" y1="56.24261187166439" y2="53.66864786411523" /><path d="M 173.72905801456457 55.72781907015455 a86.0,86.0 0 0,1 12.242430191666344,42.057860355516425" fill="none" id="id99" stroke="none" /><text fill="#e1ed5e" style="font-size:6.75px; font-family:Arial;" text-anchor="middle"><textPath startOffset="22.145653131862474" xlink:href="#id99">March</textPath></text><path d="M 118.00360718960297 89.18935116829356 l 17.357838314062576 -10.42288317639128 a41.24675392861382,41.24675392861382 0 0,0 0.35929122215960735,0.6101550437908115 l -17.534203246351954 10.123376964306912" fill="#ffe715" stroke="none" /><path d="M 118.36410011445183 89.81374322990088 l 44.073161159976515 -24.44663955475725 a71.39922340823799,71.39922340823799 0 0,0 0.5853194449324453,1.076921852772683 l -44.4863259545243 23.686462868509963" fill="#3dffa9" stroke="none" /><path d="M 118.70294669586156 90.45014215332178 l 16.754854722045916 -8.555148204143089 a39.81264780810285,39.81264780810285 0 0,0 0.30557171566574126,0.6113481257088217 l -16.899246350923395 8.266268222270517" fill="#ffd413" stroke="none" /><path d="M 118.8641267826498 90.77261029715802 l 15.888234433588526 -7.771731631048781 a38.68716500634605,38.68716500634605 0 0,0 0.28669168217689994,0.5990753519337217 l -16.019305373725338 7.4978437770499555" fill="#ffc512" stroke="none" /><path d="M 119.4528033332814 92.08871423366111 l 14.663671539379381 -5.9635875582664335 a36.829960188829126,36.829960188829126 0 0,0 0.23315350992608716,0.5876991521591203 l -14.763883724271594 5.710987388893749" fill="#ffac0f" stroke="none" /><path d="M 119.94978838288452 93.4421083053983 l 12.959201610652991 -4.2599469718727 a34.64140955285481,34.64140955285481 0 0,0 0.1808533705811274,0.5665206074775878 l -13.030419697011377 4.036857330703725" fill="#ff8e0d" stroke="none" /><path d="M 120.43855184770803 95.1765574152323 l 14.14912065602447 -3.339153948763647 a35.53779778481879,35.53779778481879 0 0,0 0.1350252508280268,0.5949461689790484 l -14.204356768410165 3.0957734458455723" fill="#ff9a0e" stroke="none" /><path d="M 120.592083275326 95.88100663000786 l 14.605276847947612 -2.9214644142236974 a35.894598555475405,35.894598555475405 0 0,0 0.11567240815678835,0.6052469179834635 l -14.653275548386558 2.6703149312069194" fill="#ff9f0e" stroke="none" /><path d="M 120.65975698304385 96.23510406497455 l 20.9628612000376 -3.8201316202944238 a42.308096003360205,42.308096003360205 0 0,0 0.12407389590109572,0.7156252602027606 l -21.02534991343093 3.4597133271710705" fill="#fff517" stroke="none" /><path d="M 120.77682067341334 96.94652285012252 l 47.088334283322034 -6.92036356380097 a68.59414520120164,68.59414520120164 0 0,0 0.16121415228034547,1.1664652971604808 l -47.20019295215759 6.111009958440404" fill="#39ff89" stroke="none" /><path d="M 120.86939407059847 97.66154086499901 l 18.60360599342384 -2.0845728549718974 a39.72003204981875,39.72003204981875 0 0,0 0.07011078850658696,0.678258279421049 l -18.636649174412092 1.7649100532679167" fill="#ffd313" stroke="none" /><path d="M 120.9064616781168 98.02013634271609 l 24.408370845225225 -2.3114980963303164 a45.517577179798565,45.517577179798565 0 0,0 0.0669896863906456,0.778521699877977 l -24.44445415431361 1.8921553490766774" fill="#e1ff1b" stroke="none" /><path d="M 120.96210409425399 98.7389718711861 l 18.69127488075993 -1.1244206822964915 a39.725065514942884,39.725065514942884 0 0,0 0.03510638450908845,0.6810544807303223 l -18.707822854725592 0.8033944081894385" fill="#ffd313" stroke="none" /><path d="M 120.99303781780057 99.45929381324524 l 46.14257904403759 -1.1884691571782104 a67.15788188135176,67.15788188135176 0 0,0 0.019791006938640606,1.1527269352913523 l -46.156181482574894 0.3961953059177916" fill="#37ff78" stroke="none" /><line stroke="#e1ed5e" stroke-width="0.3" x1="184.99686870605535" x2="189.99668451229388" y1="99.2704041080226" y2="99.22748670261217" /><path d="M 185.99683186730306 99.26182062694052 a86.0,86.0 0 0,1 -10.086455211305974,41.156179273409016" fill="none" id="id100" stroke="none" /><text fill="#e1ed5e" style="font-size:6.75px; font-family:Arial;" text-anchor="middle"><textPath startOffset="21.40746469413373" xlink:href="#id100">April</textPath></text><path d="M 120.99922638620191 100.18025310272382 l 15.857707207144669 0.13611934428460587 a36.85829140681355,36.85829140681355 0 0,0 -0.010861907501299041,0.6326516576046015 l -15.853033868044703 -0.4083179178582784" fill="#ffac10" stroke="none" /><path d="M 120.99303781780057 100.54070618675476 l 15.85087738388745 0.4082623744759636 a36.85613420747464,36.85613420747464 0 0,0 -0.021719342709702723,0.6323349651113094 l -15.841533354180902 -0.6803036041513837" fill="#ffac10" stroke="none" /><path d="M 120.96210409425399 101.26102812881392 l 19.242377798237403 1.15757366530267 a40.27716473241597,40.27716473241597 0 0,0 -0.04744273861819391,0.6898070072586746 l -19.219671098454143 -1.487724096715688" fill="#ffda14" stroke="none" /><path d="M 120.9064616781168 101.97986365728391 l 32.142417751574406 3.043920379419831 a53.286227252390034,53.286227252390034 0 0,0 -0.09405680752020683,0.9099142913005278 l -32.085428551572534 -3.5952391930032905" fill="#85ff25" stroke="none" /><path d="M 120.82617615685814 102.69636545807757 l 14.620701327428597 1.8929425034737033 a35.742731722015755,35.742731722015755 0 0,0 -0.08400475256083388,0.6078165426095016 l -14.586052058312553 -2.14364735428329" fill="#ff9d0e" stroke="none" /><path d="M 120.77682067341334 103.0534771498775 l 12.139320900364364 1.7840621318797365 a33.26971839988312,33.26971839988312 0 0,0 -0.08789306351454958,0.5643365179929065 l -12.106906344711547 -1.9921868318040936" fill="#ff7b0b" stroke="none" /><path d="M 120.65975698304385 103.76489593502545 l 11.836486133669528 2.1570020676531656 a33.0314197795776,33.0314197795776 0 0,0 -0.10644564988897326,0.556968619869346 l -11.797714191498395 -2.359873252555826" fill="#ff770b" stroke="none" /><path d="M 120.51834098615036 104.47187691870673 l 61.555022958451104 13.415630756120176 a84.0,84.0 0 0,0 -0.3191565537693437,1.4062626642439322 l -61.315655543124095 -14.470327754303124" fill="#4dd2ff" stroke="none" /><path d="M 120.16314734710363 105.8691983318838 l 11.418026339280662 3.3236210592657165 a32.891920888994406,32.891920888994406 0 0,0 -0.16246052746457068,0.5407782585065977 l -11.359289491812461 -3.5191369213630375" fill="#ff750a" stroke="none" /><path d="M 119.83427380445688 106.89939002012753 l 14.407363159360672 5.0116287885321915 a36.25413177862797,36.25413177862797 0 0,0 -0.20951406037422687,0.5860481155049412 l -14.319208928942501 -5.258211860418054" fill="#ffa40f" stroke="none" /><path d="M 119.58574465831526 107.57618678355244 l 12.481425634313748 4.828083566913742 a34.38268944547421,34.38268944547421 0 0,0 -0.21766096633855192,0.5486478218400158 l -12.396705993009071 -5.041632405967322" fill="#ff8a0c" stroke="none" /><path d="M 119.31412917781788 108.2440532568976 l 14.788226115986062 6.3122143666332855 a37.07904480582923,37.07904480582923 0 0,0 -0.2549027503398361,0.5832673769450639 l -14.67768948362926 -6.565143813354194" fill="#ffaf10" stroke="none" /><path d="M 119.0197475246899 108.90220220490707 l 12.966328240737715 6.068896324959292 a35.31632531935681,35.31632531935681 0 0,0 -0.2617120358251169,0.5468774984217368 l -12.860236946952686 -6.2905863254461325" fill="#ff970d" stroke="none" /><path d="M 118.8641267826498 109.22738970284198 l 18.123028090370525 8.864881195519109 a41.17499109727257,41.17499109727257 0 0,0 -0.3160280304078353,0.6322677596005608 l -17.968180146750957 -9.174680811283416" fill="#ffe615" stroke="none" /><line stroke="#e1ed5e" stroke-width="0.3" x1="174.33088141563837" x2="178.70328620479359" y1="141.23008692659167" y2="143.65538615756765" /><path d="M 175.20536237346943 141.71514677278685 a86.0,86.0 0 0,1 -30.301960400862466,31.631185727798858" fill="none" id="id101" stroke="none" /><text fill="#e1ed5e" style="font-size:6.75px; font-family:Arial;" text-anchor="middle"><textPath startOffset="22.145653131862474" xlink:href="#id101">May</textPath></text><path d="M 117.01052211995028 112.31430620078461 l 11.672765443697726 8.450182003234792 a35.41037921053353,35.41037921053353 0 0,0 -0.36067659994780576,0.4893270777758734 l -11.525986824166091 -8.649315390279542" fill="#ff980e" stroke="none" /><path d="M 116.79662413953412 112.60449989151573 l 14.984173964958977 11.24440349124922 a39.733981938877065,39.733981938877065 0 0,0 -0.41408111329347747,0.5420454694834751 l -14.788940874311194 -11.499969873973573" fill="#ffd313" stroke="none" /><path d="M 116.35404254752997 113.17365903436017 l 21.64524736593503 17.43587909133071 a48.794362975611094,48.794362975611094 0 0,0 -0.5310527076809933,0.6477979554083767 l -21.34274783901541 -17.80487932843758" fill="#b9ff1f" stroke="none" /><path d="M 115.41159269507618 114.26474011684316 l 9.579878779641573 8.866992779150403 a34.053644639644986,34.053644639644986 0 0,0 -0.40076950536698763,0.42560332646143445 l -9.426253440538325 -9.030137565556334" fill="#ff860c" stroke="none" /><path d="M 114.91283532996324 114.78537596483092 l 6.678279134040538 6.6212001681854655 a30.40423861135714,30.40423861135714 0 0,0 -0.3706538450859012,0.3674858825399998 l -6.5636333688246715 -6.734866060954127" fill="#ff5107" stroke="none" /><path d="M 113.31354834802062 116.24036423190432 l 11.476594261441804 13.999578930834646 a39.1024977857319,39.1024977857319 0 0,0 -0.522761720501413,0.4210998376753775 l -11.23458177058514 -14.194527062303427" fill="#ffcb12" stroke="none" /><path d="M 113.03279911837588 116.46651593811092 l 11.217713163199708 14.173214127925863 a39.07531707406156,39.07531707406156 0 0,0 -0.5295450785477664,0.4117774560035185 l -10.972758140016712 -14.363692635550175" fill="#ffca12" stroke="none" /><path d="M 112.16784306229584 117.11559508785304 l 8.53891666674563 12.01105564960849 a35.73697919044532,35.73697919044532 0 0,0 -0.5030488797769943,0.351167186829184 l -8.331472695794877 -12.155867652242797" fill="#ff9d0e" stroke="none" /><path d="M 110.96478420261333 117.91015095944535 l 2.8811881022188786 4.706204235282545 a26.518115908945642,26.518115908945642 0 0,0 -0.39028004691753415,0.23435195451742416 l -2.7999752987439077 -4.754970190335893" fill="#ff1802" stroke="none" /><line stroke="#e1ed5e" stroke-width="0.3" x1="143.1302829299769" x2="145.66735839644613" y1="173.24464959558577" y2="177.55315839532614" /><path d="M 143.63769802327073 174.10635135553383 a86.0,86.0 0 0,1 -40.68552437913181,11.842963189579606" fill="none" id="id102" stroke="none" /><text fill="#e1ed5e" style="font-size:6.75px; font-family:Arial;" text-anchor="middle"><textPath startOffset="21.407464694133747" xlink:href="#id102">June</textPath></text><path d="M 110.34350942703117 118.27599006163325 l 10.635443899660554 18.7918103021485 a42.59270250280778,42.59270250280778 0 0,0 -0.6394093812451721,0.3546696052614019 l -10.311290330259288 -18.97161282284305" fill="#fff817" stroke="none" /><path d="M 109.06512990194946 118.94263497670748 l 6.891533303610921 14.400654068073663 a36.964713240866715,36.964713240866715 0 0,0 -0.5747331457926835,0.2690041322087546 l -6.643311443946731 -14.516834431852951" fill="#ffae10" stroke="none" /><path d="M 108.07796709384702 119.3841803445677 l 1.7309613372796466 4.153677075122058 a25.499917820977565,25.499917820977565 0 0,0 -0.4055039903012301,0.16491494267950396 l -1.6594028857879757 -4.182779274380853" fill="#ff0801" stroke="none" /><path d="M 107.06938296918513 119.77432235084164 l 2.535384365643404 7.091921310254871 a28.531501958600035,28.531501958600035 0 0,0 -0.4626100824661651,0.16091980062613903 l -2.413268511132217 -7.1343995434496" fill="#ff3605" stroke="none" /><path d="M 106.38641147887787 120.00534299687104 l 3.59538515785755 11.262492798449854 a32.822459070281326,32.822459070281326 0 0,0 -0.5382248206209092,0.16674342524735083 l -3.4015197043650165 -11.322552811503849" fill="#ff740a" stroke="none" /><path d="M 106.0420521117495 120.11202640906438 l 4.968485427530966 16.538472075941804 a38.268668334596455,38.268668334596455 0 0,0 -0.630776970643315,0.18360998311219712 l -4.683848444506044 -16.62132575335652" fill="#ffc011" stroke="none" /><path d="M 105.3480935250658 120.30758222061773 l 2.220799047083262 8.432735709040902 a29.720262607631692,29.720262607631692 0 0,0 -0.4944810685265554,0.12569515396627154 l -2.0757126853313093 -8.469616094842443" fill="#ff4706" stroke="none" /><path d="M 104.64783097203109 120.47920084513623 l 4.248190164614208 18.718309708979866 a40.19432827780162,40.19432827780162 0 0,0 -0.6741882408661891,0.14693618919911738 l -3.9262395071288823 -18.7884773563127" fill="#ffd914" stroke="none" /><path d="M 103.94208987418118 120.62667999033965 l 1.8961208607087652 9.921305567639015 a31.100870184537563,31.100870184537563 0 0,0 -0.5252570671806189,0.09571933487382242 l -1.7255290599770892 -9.952393076444203" fill="#ff5b08" stroke="none" /><path d="M 100.72087961077811 120.9876233191556 l 0.402035342889257 11.704820349183747 a32.71172283755033,32.71172283755033 0 0,0 -0.561374732593387,0.014459021778339375 l -0.20104729622512613 -11.70999708831213" fill="#ff730a" stroke="none" /><line stroke="#e1ed5e" stroke-width="0.3" x1="101.45913802915013" x2="101.54496967792366" y1="184.9874750549273" y2="189.98673829345242" /><path d="M 101.47630435890484 185.9873277026323 a86.0,86.0 0 0,1 -42.54439059252881,-10.42667462771756" fill="none" id="id103" stroke="none" /><text fill="#e1ed5e" style="font-size:6.75px; font-family:Arial;" text-anchor="middle"><textPath startOffset="22.145653131862474" xlink:href="#id103">July</textPath></text><path d="M 100.0 121.0 l 2.1323083162962965e-15 17.411618744121917 a38.41161874412192,38.41161874412192 0 0,0 -0.6593865137736906,-0.005660040175577764 l 0.29889358892483636 -17.409053102140774" fill="#ffc112" stroke="none" /><path d="M 99.27912038922189 120.98762331915562 l -0.6946028555143 20.222604260104784 a41.23452979902663,41.23452979902663 0 0,0 -0.7072197813022127,-0.030371060388551255 l 1.0416483974173514 -20.207700631290404" fill="#ffe715" stroke="none" /><path d="M 98.91894614982273 120.97215588758144 l -0.6738436068552232 13.07238595422474 a34.0897417752495,34.0897417752495 0 0,0 -0.5841612434366675,-0.03514168980481588 l 0.8981492024243369 -13.058892286595233" fill="#ff860c" stroke="none" /><path d="M 98.19965949673042 120.92268563240118 l -0.8194962830290461 9.523789014133252 a30.558981710602005,30.558981710602005 0 0,0 -0.5222681846878282,-0.049459340090121935 l 0.9828640311018896 -9.508317918537946" fill="#ff5407" stroke="none" /><path d="M 97.48249496171623 120.84855314841334 l -1.9048520720403608 15.77490772009422 a36.8894988905832,36.8894988905832 0 0,0 -0.6280387615580211,-0.08131219145772957 l 2.1753686554891756 -15.739883932436094" fill="#ffad10" stroke="none" /><path d="M 97.12497278360702 120.80226474461374 l -1.595412107514399 11.543607256321822 a32.65333464211036,32.65333464211036 0 0,0 -0.5546011754776969,-0.08150727405484984 l 1.793338388599781 -11.51451890896809" fill="#ff720a" stroke="none" /><path d="M 96.41257539226777 120.69131181640829 l -2.7570483469703366 15.901922208237906 a37.139158760740344,37.139158760740344 0 0,0 -0.6272366494079792,-0.11430341187426458 l 3.0296197299293732 -15.852250622432276" fill="#ffb010" stroke="none" /><path d="M 95.35216902796893 120.47920084513623 l -3.2143037887535133 14.162815572098957 a35.522985016024904,35.522985016024904 0 0,0 -0.593517773585852,-0.1400685785011495 l 3.456953716079253 -14.10555084995158" fill="#ff9a0e" stroke="none" /><path d="M 94.6519064749342 120.30758222061772 l -4.774630051009463 18.13004800298696 a39.748219454513915,39.748219454513915 0 0,0 -0.658341428857587,-0.1794338839494298 l 5.085152880801744 -18.045413624893385" fill="#ffd313" stroke="none" /><path d="M 93.95794788825049 120.11202640906438 l -6.220071886319554 20.70459634081424 a42.61873270816403,42.61873270816403 0 0,0 -0.6988647534855416,-0.21651008707920538 l 6.574577272676729 -20.594769665928386" fill="#fff917" stroke="none" /><path d="M 93.27111125876986 119.89276391827306 l -5.070260091872562 14.989323035444263 a36.823632404101645,36.823632404101645 0 0,0 -0.5970587755205956,-0.2076880352599925 l 5.32682463943818 -14.900076567615681" fill="#ffac0f" stroke="none" /><path d="M 92.59220618246901 119.65005319985036 l -5.874483243348885 15.58276473357747 a37.65329126984851,37.65329126984851 0 0,0 -0.6028609968253976,-0.23319958450130654 l 6.141116502667811 -15.479625260938123" fill="#ffb711" stroke="none" /><path d="M 91.92203290615298 119.3841803445677 l -5.533710243829345 13.278890108709957 a35.38578713806989,35.38578713806989 0 0,0 -0.5586993263080603,-0.23847552008538572 l 5.760844645307836 -13.181939938965167" fill="#ff980e" stroke="none" /><path d="M 91.59046798132341 119.24265499422711 l -4.780192021418223 10.938014822944144 a32.9369344485331,32.9369344485331 0 0,0 -0.5161477941921317,-0.23086634320724086 l 4.9672532184659905 -10.854344728827048" fill="#ff760a" stroke="none" /><path d="M 90.6110303473126 118.78422872680471 l -9.724305306480746 19.45512466684046 a42.75003424125934,42.75003424125934 0 0,0 -0.6536129650324107,-0.33373943712230686 l 10.056845493226739 -19.28532727804532" fill="#fffa17" stroke="none" /><path d="M 89.97174638481275 118.45085714620012 l -6.226372783543111 11.455824630737283 a34.03854424427257,34.03854424427257 0 0,0 -0.5109928047482176,-0.2834390949950349 l 6.4221097764474315 -11.3472526203091" fill="#ff850c" stroke="none" /><line stroke="#e1ed5e" stroke-width="0.3" x1="58.13341422392154" x2="55.67067388415222" y1="173.97424548756322" y2="178.32567169271397" /><path d="M 57.64086615596768 174.84453072859336 a86.0,86.0 0 0,1 -31.369924170532247,-30.572349798747897" fill="none" id="id104" stroke="none" /><text fill="#e1ed5e" style="font-size:6.75px; font-family:Arial;" text-anchor="middle"><textPath startOffset="22.145653131862474" xlink:href="#id104">August</textPath></text><path d="M 86.96720088162412 116.46651593811092 l -2.463530693399731 3.112590553912208 a24.969534410182895,24.969534410182895 0 0,0 -0.3338179785831728,-0.26890013381176225 l 2.5165994423381655 -3.069842126307035" fill="#ff0000" stroke="none" /><path d="M 85.86807049272751 115.53346607816431 l -7.7499665555087836 8.51857083881945 a32.51642439073386,32.51642439073386 0 0,0 -0.40966084938612146,-0.37917596631043093 l 7.895057176208873 -8.384277126376642" fill="#ff700a" stroke="none" /><path d="M 85.08716467003676 114.78537596483092 l -10.221366025361622 10.1340044475294 a35.393553055689985,35.393553055689985 0 0,0 -0.42407071918955713,-0.4351339164797976 l 10.393823545701988 -9.957047838981865" fill="#ff980e" stroke="none" /><path d="M 83.64595745247003 113.17365903436017 l -4.567221447959715 3.679030301833559 a26.86470593606472,26.86470593606472 0 0,0 -0.28621602613526603,-0.3616245990820185 l 4.629703904736543 -3.60008575883686" fill="#ff1d02" stroke="none" /><path d="M 82.78059297857968 112.02048342749411 l -13.234715766694066 9.238859464977027 a37.14045308034369,37.14045308034369 0 0,0 -0.36045740557632955,-0.52591812713594 l 13.391362909085721 -9.010306602771037" fill="#ffb010" stroke="none" /><path d="M 82.576782715395 111.72311816256416 l -11.929590981300336 8.026761212948632 a35.378596473606834,35.378596473606834 0 0,0 -0.33470773831385897,-0.5067901759706511 l 12.06562315853492 -7.82079115863892" fill="#ff980e" stroke="none" /><path d="M 82.37810715431573 111.42229804090323 l -12.067916062586814 7.822277391343276 a35.381328926102796,35.381328926102796 0 0,0 -0.32598386637933535,-0.5125007824293534 l 12.20041762059204 -7.613962934235251" fill="#ff980e" stroke="none" /><line stroke="#e1ed5e" stroke-width="0.3" x1="26.387840678322732" x2="22.057713659400548" y1="142.50000000000003" y2="145.00000000000006" /><path d="M 25.521815274538298 143.00000000000003 a86.0,86.0 0 0,1 -11.493303480769221,-40.785679425670985" fill="none" id="id105" stroke="none" /><text fill="#e1ed5e" style="font-size:6.75px; font-family:Arial;" text-anchor="middle"><textPath startOffset="21.40746469413373" xlink:href="#id105">September</textPath></text><path d="M 81.29705330413844 109.54985784667822 l -6.8679111789411165 3.5068043837719234 a28.711412383465582,28.711412383465582 0 0,0 -0.22036704475145674,-0.4408817075339614 l 6.92709813690431 -3.388390820074209" fill="#ff3805" stroke="none" /><path d="M 81.1358732173502 109.22738970284198 l -15.632058017529866 7.646422908790576 a38.40198325374143,38.40198325374143 0 0,0 -0.2845783395122988,-0.5946592785724726 l 15.761015615002076 -7.376951128152999" fill="#ffc112" stroke="none" /><path d="M 80.41425534168474 107.57618678355246 l -20.25508864892777 7.835103418267996 a42.71767625117562,42.71767625117562 0 0,0 -0.25868465132849106,-0.6861917712342287 l 20.386603984070696 -7.486243366839623" fill="#fffa17" stroke="none" /><path d="M 80.28708602549918 107.23885506374661 l -17.76357341444759 6.523030208914847 a39.92338404083384,39.92338404083384 0 0,0 -0.23071881421266405,-0.6453615859448991 l 17.872932398704194 -6.217133666589026" fill="#ffd614" stroke="none" /><path d="M 80.05021161711548 106.5578916946017 l -16.631168947003424 5.466995569869882 a38.50667932832346,38.50667932832346 0 0,0 -0.20103289203023084,-0.6297326710029446 l 16.722566554810907 -5.180693865175545" fill="#ffc312" stroke="none" /><path d="M 79.94057633289273 106.21446072829308 l -13.76412347226558 4.26416063578294 a35.409516330797956,35.409516330797956 0 0,0 -0.1748954924153303,-0.5821702125745102 l 13.83529528468454 -4.027252819617706" fill="#ff980e" stroke="none" /><path d="M 79.64726062577567 105.17358676015961 l -16.94729754635309 4.307936764391416 a38.48625784124839,38.48625784124839 0 0,0 -0.1572667133566294,-0.6417018578925704 l 17.018751786226016 -4.016379081890745" fill="#ffc212" stroke="none" /><path d="M 79.48165901384964 104.47187691870673 l -14.211944565829189 3.0974271709768995 a35.54556370243889,35.54556370243889 0 0,0 -0.12481958273600664,-0.59730688858939 l 14.263021859389562 -2.8530038311021" fill="#ff9a0e" stroke="none" /><path d="M 79.34024301695615 103.76489593502545 l -35.658298747800615 6.498129872277834 a57.2455509190354,57.2455509190354 0 0,0 -0.16787989052887564,-0.9682865962257307 l 35.764593455821725 -5.88505024313151" fill="#59ff2a" stroke="none" /><path d="M 79.2786578344484 103.40968896794605 l -14.201281800266687 2.3368155160123667 a35.39225873608663,35.39225873608663 0 0,0 -0.09350046212068819,-0.6003400395206638 l 14.239303754525643 -2.092687294560253" fill="#ff980e" stroke="none" /><path d="M 79.17382384314188 102.69636545807758 l -17.189482375767025 2.225522638969356 a38.33295287489614,38.33295287489614 0 0,0 -0.07888905955998708,-0.653314581720128 l 17.22515352158667 -1.9301143803258285" fill="#ffc011" stroke="none" /><path d="M 79.13060592940153 102.33845913500099 l -14.441951506391531 1.6182507893193465 a35.532332879826875,35.532332879826875 0 0,0 -0.06271897949524832,-0.6067492325449249 l 14.467602878368444 -1.3700970344914902" fill="#ff9a0e" stroke="none" /><path d="M 79.06263194458094 101.62068470465958 l -13.283844952114507 1.028253612200752 a34.32358218358794,34.32358218358794 0 0,0 -0.04042997437367986,-0.5878429542336298 l 13.299538887653252 -0.8000672338127789" fill="#ff890c" stroke="none" /><path d="M 79.03789590574601 101.26102812881392 l -37.56572437019433 2.2598606941881725 a58.63363678698285,58.63363678698285 0 0,0 -0.05181652872128719,-1.0052268142960752 l 37.59898248837219 -1.6146620865153665" fill="#4bff2c" stroke="none" /><path d="M 79.00696218219943 100.54070618675478 l -15.940299593608351 0.41056557339596955 a36.945586073395,36.945586073395 0 0,0 -0.010887632692503653,-0.6341500210231455 l 15.944998657899522 -0.13686863640377167" fill="#ffae10" stroke="none" /><line stroke="#e1ed5e" stroke-width="0.3" x1="15.003131293944662" x2="10.003315487706104" y1="100.72959589197737" y2="100.7725132973878" /><path d="M 14.003168132696942 100.73817937305945 a86.0,86.0 0 0,1 10.791469493833604,-42.45332614584628" fill="none" id="id106" stroke="none" /><text fill="#e1ed5e" style="font-size:6.75px; font-family:Arial;" text-anchor="middle"><textPath startOffset="22.145653131862435" xlink:href="#id106">October</textPath></text><path d="M 79.00696218219943 99.45929381324524 l -14.417965544195768 -0.3713556483737331 a35.42274715340997,35.42274715340997 0 0,0 0.02087464683118441,-0.6077425662524814 l 14.409466210367732 0.6188044791903529" fill="#ff990e" stroke="none" /><path d="M 79.03789590574601 98.7389718711861 l -43.21757979192023 -2.5998622815640857 a64.29570979847878,64.29570979847878 0 0,0 0.07573434164261725,-1.1011607060803854 l 43.16658148911255 3.3413664117987962" fill="#33ff55" stroke="none" /><path d="M 79.13060592940154 97.66154086499901 l -17.86414377576852 -2.0017145711130397 a38.97594209118219,38.97594209118219 0 0,0 0.08021232872594641,-0.6642731486809568 l 17.827149360782908 2.3080813967174327" fill="#ffc912" stroke="none" /><path d="M 79.17382384314186 97.30363454192245 l -18.47009339309147 -2.3913233738877366 a39.6242523991709,39.6242523991709 0 0,0 0.09312733968093066,-0.6738230385988321 l 18.426321536855333 2.7080347206866358" fill="#ffd213" stroke="none" /><path d="M 79.2786578344484 96.59031103205396 l -21.290712207752236 -3.5033785917194407 a42.57702685427833,42.57702685427833 0 0,0 0.1248625699742272,-0.720174122674604 l 21.227434820285776 3.868345747314637" fill="#fff817" stroke="none" /><path d="M 79.407916724674 95.88100663000787 l -14.855868984193044 -2.971589859714869 a36.15015477049225,36.15015477049225 0 0,0 0.12694262699188263,-0.6074664239044287 l 14.802668646376794 3.226172734904707" fill="#ffa30f" stroke="none" /><path d="M 79.73907114497095 94.47779374421319 l -27.90814974237319 -7.606490314313249 a49.926173562095386,49.926173562095386 0 0,0 0.2324693588498963,-0.8249517436138083 l 27.77346189144871 8.08444998183007" fill="#acff21" stroke="none" /><path d="M 79.83685265289637 94.1308016681162 l -13.958050459622507 -4.062985061989055 a35.53736634495101,35.53736634495101 0 0,0 0.17552697212749901,-0.5842722031586742 l 13.88624716749138 4.301994868738452" fill="#ff9a0e" stroke="none" /><path d="M 80.05021161711548 93.44210830539832 l -29.275731990271105 -9.62351459512697 a51.816886876010116,51.816886876010116 0 0,0 0.2850288496626077,-0.842637147719964 l 29.10621771903613 10.124653417321095" fill="#96ff23" stroke="none" /><path d="M 80.28708602549916 92.7611449362534 l -16.343653932651616 -6.001616107265187 a38.410755864386346,38.410755864386346 0 0,0 0.2326033122592693,-0.6170079207036323 l 16.23821993657791 6.281292308162964" fill="#ffc112" stroke="none" /><path d="M 80.41425534168474 92.42381321644754 l -15.004777814273607 -5.804170397900985 a37.088248856341934,37.088248856341934 0 0,0 0.23478861648323607,-0.5918206888137945 l 14.90293052282424 6.060892103928362" fill="#ffb010" stroke="none" /><path d="M 80.68587082218212 91.75594674310238 l -21.88334731194085 -9.34069970320091 a44.793477268369294,44.793477268369294 0 0,0 0.3079362106759641,-0.7046183127797557 l 21.719777219247906 9.714980085756533" fill="#eaff1a" stroke="none" /><path d="M 80.9802524753101 91.09779779509293 l -43.164087167696295 -20.202972277011437 a68.65814211492278,68.65814211492278 0 0,0 0.5087919534770753,-1.0631794974862572 l 42.810915956259315 20.94096427656278" fill="#39ff8a" stroke="none" /><path d="M 81.29705330413844 90.45014215332179 l -16.20576508880296 -8.274779124990692 a39.19612023704082,39.19612023704082 0 0,0 0.31112747480965575,-0.5966279566427791 l 16.061329545018364 8.551753324737959" fill="#ffcc13" stroke="none" /><path d="M 81.46374523516351 90.13048839642627 l -13.927833143779695 -7.415786660741064 a36.779050284430724,36.779050284430724 0 0,0 0.3015087877712196,-0.5547422098565404 l 13.798479006393125 7.653783704072224" fill="#ffab0f" stroke="none" /><line stroke="#e1ed5e" stroke-width="0.3" x1="26.387840678322718" x2="22.05771365940052" y1="57.49999999999999" y2="54.99999999999999" /><path d="M 25.521815274538284 56.99999999999999 a86.0,86.0 0 0,1 29.574782752854787,-30.34633250058573" fill="none" id="id107" stroke="none" /><text fill="#e1ed5e" style="font-size:6.75px; font-family:Arial;" text-anchor="middle"><textPath startOffset="21.40746469413373" xlink:href="#id107">November</textPath></text><path d="M 81.81346652052679 89.5 l -9.972893353328736 -5.757852662143777 a32.51570532428755,32.51570532428755 0 0,0 0.28323701607072865,-0.48099837481430396 l 9.872582627128228 5.928202205251654" fill="#ff700a" stroke="none" /><path d="M 81.99639281039701 89.18935116829357 l -27.132156231624407 -16.29208024692272 a52.64784006136034,52.64784006136034 0 0,0 0.4719052429417506,-0.7708217492895079 l 26.848483024227264 16.75543911233677" fill="#8cff24" stroke="none" /><path d="M 82.576782715395 88.27688183743585 l -12.910151074561321 -8.68652580470118 a36.560454084753964,36.560454084753964 0 0,0 0.35482836996025513,-0.5177051959463188 l 12.759132967785753 8.906865735717533" fill="#ffa80f" stroke="none" /><line stroke="#e1ed5e" stroke-width="0.3" x1="56.869717070023135" x2="54.33264160355391" y1="26.7553504044142" y2="22.446841604673864" /><path d="M 56.362301976729285 25.89364864446614 a86.0,86.0 0 0,1 42.16139366436587,-11.88097634709845" fill="none" id="id108" stroke="none" /><text fill="#e1ed5e" style="font-size:6.75px; font-family:Arial;" text-anchor="middle"><textPath startOffset="22.145653131862474" xlink:href="#id108">December</textPath></text></svg>