<?xml version="1.0" encoding="utf-8" ?>
<svg baseProfile="full" height="200mm" version="1.1" viewBox="0,0,200,200" width="200mm" xmlns="http://www.w3.org/2000/svg" xmlns:ev="http://www.w3.org/2001/xml-events" xmlns:xlink="http://www.w3.org/1999/xlink"><defs /><rect fill="#1a1a1a" height="200" width="200" x="0" y="0" /><text alignment-baseline="middle" fill="#e1ed5e" style="dominant-baseline: central; font-size:9.0px; font-family:Arial;" text-anchor="middle" x="100.0" y="100.0">2024</text><line stroke="#e1ed5e" stroke-width="0.3" x1="100.0" x2="100.0" y1="15.0" y2="10.0" /><path d="M 100.0 14.0 a86.0,86.0 0 0,1 42.35913384403234,11.155469271406648" fill="none" id="id97" stroke="none" /><text fill="#e1ed5e" style="font-size:6.75px; font-family:Arial;" text-anchor="middle"><textPath startOffset="22.145653131862478" xlink:href="#id97">January</textPath></text><path d="M 100.0 79.0 l 0.0 -16.592599973665386 a37.592599973665386,37.592599973665386 0 0,0 0.6453269674847436,0.005539355880124955 l -0.28483404263588885 16.590155015979697" fill="#ff7a0b" stroke="none" /><path d="M 101.08105385017728 79.02784411241856 l 1.317432309398101 -25.557834847452398 a46.591767230488365,46.591767230488365 0 0,0 0.7983957420009953,0.04802950524725775 l -1.7559724035315585 25.53145336438045" fill="#ffff18" stroke="none" /><path d="M 101.44090949804482 79.04949213459386 l 3.8652098974702125 -56.19930361225002 a77.33206523866633,77.33206523866633 0 0,0 1.323597235468622,0.1024547970392327 l -4.829376127714068 56.12467104821573" fill="#43ffe3" stroke="none" /><path d="M 102.15924093988457 79.11130261209362 l 3.569998707265332 -34.53649905103646 a55.720522137089446,55.720522137089446 0 0,0 0.9506029821798667,0.10651704692133099 l -4.162337591045996 34.470126243608156" fill="#87ff25" stroke="none" /><path d="M 102.87502721639298 79.19773525538626 l 3.4139483818386482 -24.701629834500316 a45.936430378755794,45.936430378755794 0 0,0 0.7802081644810853,0.11466373223499958 l -3.8374816519274155 24.639385028966437" fill="#fff617" stroke="none" /><path d="M 103.23170211078529 79.25015418208739 l 4.643730943827004 -29.81608384717912 a51.1755379912384,51.1755379912384 0 0,0 0.8668709598497988,0.14264328656019662 l -5.154879406729874 29.731974562123256" fill="#c1ff1e" stroke="none" /><path d="M 103.94208987418118 79.37332000966035 l 5.939544101654097 -31.07820455229376 a52.64068555404112,52.64068555404112 0 0,0 0.8861270165434915,0.1772502207431887 l -6.472167603728546 30.971664934887713" fill="#aeff20" stroke="none" /><path d="M 104.64783097203109 79.52079915486377 l 13.398255743854085 -59.035186951513126 a81.53648945369912,81.53648945369912 0 0,0 1.3623110688680948,0.32150170287214236 l -14.409698966462065 58.796489104994755" fill="#49ecff" stroke="none" /><path d="M 104.9986988182912 79.60360301121754 l 5.933298722616064 -24.209883531427284 a45.92634137488034,45.92634137488034 0 0,0 0.7641152656146072,0.19423511246973102 l -6.348019281456065 24.104463187122285" fill="#fff617" stroke="none" /><path d="M 105.69591212413111 79.78721728523813 l 8.24404119683341 -29.25519386037906 a51.394581475378914,51.394581475378914 0 0,0 0.8471295140733466,0.24658705534892997 l -8.74503072328836 29.109363110727614" fill="#beff1f" stroke="none" /><path d="M 106.38641147887787 79.99465700312896 l 10.816483158401127 -33.882479436122054 a56.56710166228349,56.56710166228349 0 0,0 0.92252124364289,0.30325105638562144 l -11.39652713969176 33.69180745833441" fill="#7dff26" stroke="none" /><path d="M 107.06938296918511 80.22567764915836 l 13.070681518294874 -36.56102248450463 a59.82719511457335,59.82719511457335 0 0,0 0.9641034215655702,0.3540321306227415 l -13.696374091514569 36.33125950487317" fill="#56ff2b" stroke="none" /><path d="M 107.74402155503746 80.48000691201159 l 9.291122726417765 -23.419698681152408 a46.1953814782259,46.1953814782259 0 0,0 0.7346067408694918,0.2987581662820926 l -9.691783928477696 23.256753258291024" fill="#fff917" stroke="none" /><path d="M 108.07796709384702 80.6158196554323 l 18.11451758504027 -43.46824784551581 a68.09165868917682,68.09165868917682 0 0,0 1.0750859854665549,0.458890278631343 l -18.858038645677258 43.15088291722507" fill="#36ff71" stroke="none" /><path d="M 108.73861861582097 80.90454125486305 l 13.070749789449065 -28.561947184713453 a52.41065626568066,52.41065626568066 0 0,0 0.8148890849593263,0.38140923792298786 l -13.559127588279898 28.333361715219933" fill="#b1ff20" stroke="none" /><path d="M 109.3889696526874 81.21577127319529 l 28.166908958062173 -56.352686180414125 a84.0,84.0 0 0,0 1.2842911131456847,0.6557681933086643 l -29.130127292921436 55.86086003543262" fill="#4dd2ff" stroke="none" /><path d="M 110.02825361518725 81.54914285379988 l 10.853249927708948 -19.968757439968805 a43.72761113028872,43.72761113028872 0 0,0 0.6564468355654055,0.3641199939727001 l -11.194440951430455 19.77950453056296" fill="#ffd614" stroke="none" /><path d="M 110.34350942703115 81.72400993836675 l 12.226734227818133 -21.60346783750869 a45.82343353535066,45.82343353535066 0 0,0 0.6812581475349969,0.3933245748669563 l -12.595784843213528 21.39039636536556" fill="#fff417" stroke="none" /><line stroke="#e1ed5e" stroke-width="0.3" x1="143.13028292997686" x2="145.6673583964461" y1="26.7553504044142" y2="22.446841604673864" /><path d="M 143.63769802327073 25.89364864446614 a86.0,86.0 0 0,1 29.32050498858742,28.57503671076993" fill="none" id="id98" stroke="none" /><text fill="#e1ed5e" style="font-size:6.75px; font-family:Arial;" text-anchor="middle"><textPath startOffset="20.669276256404974" xlink:href="#id98">February</textPath></text><path d="M 111.27062007382361 82.28071324371311 l 14.983520476436608 -23.556582885559518 a48.918067324083,48.918067324083 0 0,0 0.7046865813216246,0.4567693282309369 l -15.38569269001524 23.295899715624685" fill="#dfff1b" stroke="none" /><path d="M 111.8722381534696 82.67804972795209 l 32.96915368030275 -48.1029805146565 a79.31690860109822,79.31690860109822 0 0,0 1.11649845406699,0.779402632578455 l -33.7900472255435 47.52993306627292" fill="#46fffa" stroke="none" /><path d="M 112.45986205192187 83.09580414077388 l 13.547288188532082 -18.37949825977438 a43.832760970679615,43.832760970679615 0 0,0 0.6018593149373468,0.4516464503114085 l -13.860800492380196 18.144232782198955" fill="#ffd814" stroke="none" /><path d="M 113.03279911837588 83.53348406188908 l 16.721094394482215 -21.12655653237066 a47.94302114954145,47.94302114954145 0 0,0 0.6409507740273934,0.5163045730317863 l -17.081295938864866 20.836403665545465" fill="#ecff1a" stroke="none" /><path d="M 113.59037401385872 83.9905735841838 l 26.38844091240732 -31.085517042024957 a61.77571806305361,61.77571806305361 0 0,0 0.8025563590469122,0.693229068226846 l -26.91817675121709 30.627943841333394" fill="#3fff2d" stroke="none" /><path d="M 113.86319453409587 84.22622945171908 l 17.919106070587297 -20.388653343396637 a48.14390442670614,48.14390442670614 0 0,0 0.6160928983204212,0.5509140686954515 l -18.266463995731094 20.078043744817798" fill="#eaff1a" stroke="none" /><path d="M 114.39649973595853 84.71141617570332 l 18.44751498555813 -19.590621635773363 a47.90916693653713,47.90916693653713 0 0,0 0.5939083015644044,0.5689507181493967 l -18.781095772987847 19.27105878731839" fill="#edff1a" stroke="none" /><path d="M 114.91283532996326 85.21462403516908 l 39.87870877767406 -39.537867160997266 a77.15651657123334,77.15651657123334 0 0,0 0.9244570450737343,0.9485743684662704 l -40.55155262389861 38.847470100463255" fill="#43ffe1" stroke="none" /><path d="M 115.41159269507618 85.73525988315684 l 6.606002531481751 -6.114417321248145 a30.00140925768419,30.00140925768419 0 0,0 0.34659099351895073,0.38096421568288463 l -6.70999122584258 6.000115530007589" fill="#ff0000" stroke="none" /><path d="M 115.8921839302757 86.27271002978787 l 25.55149900904699 -22.07077627654229 a54.76386036960986,54.76386036960986 0 0,0 0.6084145879793995,0.7167108548030163 l -25.9266081605335 21.62889863928972" fill="#93ff23" stroke="none" /><line stroke="#e1ed5e" stroke-width="0.3" x1="172.87174338648825" x2="177.1583165268699" y1="56.24261187166439" y2="53.66864786411523" /><path d="M 173.72905801456457 55.72781907015455 a86.0,86.0 0 0,1 12.242430191666344,42.057860355516425" fill="none" id="id99" stroke="none" /><text fill="#e1ed5e" style="font-size:6.75px; font-family:Arial;" text-anchor="middle"><textPath startOffset="22.145653131862474" xlink:href="#id99">March</textPath></text><line stroke="#e1ed5e" stroke-width="0.3" x1="184.99686870605535" x2="189.99668451229388" y1="99.2704041080226" y2="99.22748670261217" /><path d="M 185.99683186730306 99.26182062694052 a86.0,86.0 0 0,1 -10.086455211305974,41.156179273409016" fill="none" id="id100" stroke="none" /><text fill="#e1ed5e" style="font-size:6.75px; font-family:Arial;" text-anchor="middle"><textPath startOffset="21.40746469413373" xlink:href="#id100">April</textPath></text><line stroke="#e1ed5e" stroke-width="0.3" x1="174.33088141563837" x2="178.70328620479359" y1="141.23008692659167" y2="143.65538615756765" /><path d="M 175.20536237346943 141.71514677278685 a86.0,86.0 0 0,1 -30.301960400862466,31.631185727798858" fill="none" id="id101" stroke="none" /><text fill="#e1ed5e" style="font-size:6.75px; font-family:Arial;" text-anchor="middle"><textPath startOffset="22.145653131862474" xlink:href="#id101">May</textPath></text><line stroke="#e1ed5e" stroke-width="0.3" x1="143.1302829299769" x2="145.66735839644613" y1="173.24464959558577" y2="177.55315839532614" /><path d="M 143.63769802327073 174.10635135553383 a86.0,86.0 0 0,1 -40.68552437913181,11.842963189579606" fill="none" id="id102" stroke="none" /><text fill="#e1ed5e" style="font-size:6.75px; font-family:Arial;" text-anchor="middle"><textPath startOffset="21.407464694133747" xlink:href="#id102">June</textPath></text><line stroke="#e1ed5e" stroke-width="0.3" x1="101.45913802915013" x2="101.54496967792366" y1="184.9874750549273" y2="189.98673829345242" /><path d="M 101.47630435890484 185.9873277026323 a86.0,86.0 0 0,1 -42.54439059252881,-10.42667462771756" fill="none" id="id103" stroke="none" /><text fill="#e1ed5e" style="font-size:6.75px; font-family:Arial;" text-anchor="middle"><textPath startOffset="22.145653131862474" xlink:href="#id103">July</textPath></text><line stroke="#e1ed5e" stroke-width="0.3" x1="58.13341422392154" x2="55.67067388415222" y1="173.97424548756322" y2="178.32567169271397" /><path d="M 57.64086615596768 174.84453072859336 a86.0,86.0 0 0,1 -31.369924170532247,-30.572349798747897" fill="none" id="id104" stroke="none" /><text fill="#e1ed5e" style="font-size:6.75px; font-family:Arial;" text-anchor="middle"><textPath startOffset="22.145653131862474" xlink:href="#id104">August</textPath></text><line stroke="#e1ed5e" stroke-width="0.3" x1="26.387840678322732" x2="22.057713659400548" y1="142.50000000000003" y2="145.00000000000006" /><path d="M 25.521815274538298 143.00000000000003 a86.0,86.0 0 0,1 -11.493303480769221,-40.785679425670985" fill="none" id="id105" stroke="none" /><text fill="#e1ed5e" style="font-size:6.75px; font-family:Arial;" text-anchor="middle"><textPath startOffset="21.40746469413373" xlink:href="#id105">September</textPath></text><line stroke="#e1ed5e" stroke-width="0.3" x1="15.003131293944662" x2="10.003315487706104" y1="100.72959589197737" y2="100.7725132973878" /><path d="M 14.003168132696942 100.73817937305945 a86.0,86.0 0 0,1 10.791469493833604,-42.45332614584628" fill="none" id="id106" stroke="none" /><text fill="#e1ed5e" style="font-size:6.75px; font-family:Arial;" text-anchor="middle"><textPath startOffset="22.145653131862435" xlink:href="#id106">October</textPath></text><line stroke="#e1ed5e" stroke-width="0.3" x1="26.387840678322718" x2="22.05771365940052" y1="57.49999999999999" y2="54.99999999999999" /><path d="M 25.521815274538284 56.99999999999999 a86.0,86.0 0 0,1 29.574782752854787,-30.34633250058573" fill="none" id="id107" stroke="none" /><text fill="#e1ed5e" style="font-size:6.75px; font-family:Arial;" text-anchor="middle"><textPath startOffset="21.40746469413373" xlink:href="#id107">November</textPath></text><line stroke="#e1ed5e" stroke-width="0.3" x1="56.869717070023135" x2="54.33264160355391" y1="26.7553504044142" y2="22.446841604673864" /><path d="M 56.362301976729285 25.89364864446614 a86.0,86.0 0 0,1 42.16139366436587,-11.88097634709845" fill="none" id="id108" stroke="none" /><text fill="#e1ed5e" style="font-size:6.75px; font-family:Arial;" text-anchor="middle"><textPath startOffset="22.145653131862474" xlink:href="#id108">December</textPath></text></svg>