<?xml version="1.0" encoding="utf-8" ?>
<svg baseProfile="full" height="200mm" version="1.1" viewBox="0,0,200,200" width="200mm" xmlns="http://www.w3.org/2000/svg" xmlns:ev="http://www.w3.org/2001/xml-events" xmlns:xlink="http://www.w3.org/1999/xlink"><defs /><rect fill="#1a1a1a" height="200" width="200" x="0" y="0" /><text alignment-baseline="middle" fill="#e1ed5e" style="dominant-baseline: central; font-size:9.0px; font-family:Arial;" text-anchor="middle" x="100.0" y="100.0">2024</text><line stroke="#e1ed5e" stroke-width="0.3" x1="100.0" x2="100.0" y1="15.0" y2="10.0" /><path d="M 100.0 14.0 a86.0,86.0 0 0,1 42.35913384403234,11.155469271406648" fill="none" id="id97" stroke="none" /><text fill="#e1ed5e" style="font-size:6.75px; font-family:Arial;" text-anchor="middle"><textPath startOffset="22.145653131862478" xlink:href="#id97">January</textPath></text><path d="M 100.0 79.0 l 0.0 -14.478117489240404 a35.478117489240404,35.478117489240404 0 0,0 0.6090290638965515,0.00522778203336453 l -0.24853613904769672 14.475984105401475" fill="#ff6909" stroke="none" /><path d="M 101.08105385017728 79.02784411241856 l 1.1495449652170149 -22.30086522180388 a43.33047342239115,43.33047342239115 0 0,0 0.7425102659915089,0.04466757378640613 l -1.5321995833409863 22.277845670192782" fill="#ffdd14" stroke="none" /><path d="M 101.44090949804482 79.04949213459386 l 3.3726458243413266 -49.0375300919104 a70.15337320440445,70.15337320440445 0 0,0 1.2007284500365376,0.09294397597028096 l -4.213943269153098 48.972408348945066" fill="#3aff90" stroke="none" /><path d="M 102.15924093988457 79.11130261209362 l 3.1150549523436717 -30.135330913874128 a51.29590296797272,51.29590296797272 0 0,0 0.8751181156377984,0.09805881017892769 l -3.6319089695822666 30.07741634318823" fill="#b7ff1f" stroke="none" /><path d="M 102.87502721639298 79.19773525538626 l 2.9788909425231753 -21.553770927234535 a42.75864960035772,42.75864960035772 0 0,0 0.7262350871697962,0.10673154853523438 l -3.3484511353006536 21.499458305400417" fill="#ffd513" stroke="none" /><path d="M 103.23170211078529 79.25015418208739 l 4.051955829698498 -26.01646310365078 a47.33011011122912,47.33011011122912 0 0,0 0.8017326166447398,0.13192479697385082 l -4.497965949396308 25.943072308181257" fill="#eaff1a" stroke="none" /><path d="M 103.94208987418118 79.37332000966035 l 5.182636685797017 -27.117745113899588 a48.60854619641161,48.60854619641161 0 0,0 0.8182519958886828,0.16367331566140705 l -5.647385167216657 27.024782401575322" fill="#d9ff1c" stroke="none" /><path d="M 104.64783097203109 79.52079915486377 l 11.690845383983424 -51.51202186756916 a73.82200547761444,73.82200547761444 0 0,0 1.2334175270729997,0.2910831779674188 l -12.573395064796308 51.303742545955515" fill="#3fffbc" stroke="none" /><path d="M 104.9986988182912 79.60360301121754 l 5.1771871883330265 -21.124690447858747 a42.749846291431446,42.749846291431446 0 0,0 0.7112652385549595,0.1808008422595917 l -5.53905772011338 21.032704373763888" fill="#ffd513" stroke="none" /><path d="M 105.69591212413111 79.78721728523813 l 7.19345956771869 -25.527050284664092 a47.52123972947292,47.52123972947292 0 0,0 0.7832857776938362,0.228003074157438 l -7.63060535779413 25.399803516204138" fill="#e8ff1a" stroke="none" /><path d="M 106.38641147887787 79.99465700312896 l 9.438081689203008 -29.564656466227156 a52.034598401430884,52.034598401430884 0 0,0 0.8486031813391052,0.27895272110709196 l -9.944207608189856 29.39828282371804" fill="#adff20" stroke="none" /><path d="M 107.06938296918511 80.22567764915836 l 11.40501566883207 -31.90185865370956 a54.87924095914146,54.87924095914146 0 0,0 0.8843681185505129,0.32475222290658495 l -11.950972939036706 31.701375581794252" fill="#8aff24" stroke="none" /><path d="M 107.74402155503746 80.48000691201159 l 8.107105978178556 -20.43520301860385 a42.98460119613213,42.98460119613213 0 0,0 0.6835483717598293,0.27799317206150864 l -8.456708811128824 20.293022589963048" fill="#ffd814" stroke="none" /><path d="M 108.07796709384702 80.6158196554323 l 15.806089116435738 -37.928859874741796 a62.09052037337209,62.09052037337209 0 0,0 0.9803351771536191,0.4184467927938833 l -16.454859368759788 37.65193843228851" fill="#37ff2e" stroke="none" /><path d="M 108.73861861582097 80.90454125486305 l 11.405075239833184 -24.92214768740738 a48.40783075289252,48.40783075289252 0 0,0 0.7526525275151166,0.35227938653108815 l -11.831216481219807 24.72269206930576" fill="#dcff1b" stroke="none" /><path d="M 109.3889696526874 81.21577127319529 l 24.577451264467275 -49.17136631083967 a75.97157788832374,75.97157788832374 0 0,0 1.1615431230193973,0.5930921949361253 l -25.417921609200253 48.74221616423072" fill="#42ffd5" stroke="none" /><path d="M 110.02825361518725 81.54914285379988 l 9.470163075277723 -17.42403341181412 a40.83131183276508,40.83131183276508 0 0,0 0.6129670647852279,0.34000249805884364 l -9.767874328219051 17.25889799832213" fill="#ffb911" stroke="none" /><path d="M 110.34350942703115 81.72400993836675 l 10.668617030545052 -18.85042404583342 a42.66005254038343,42.66005254038343 0 0,0 0.6342280821228046,0.36617175394122137 l -10.990637580528254 18.66450539461603" fill="#ffd313" stroke="none" /><line stroke="#e1ed5e" stroke-width="0.3" x1="143.13028292997686" x2="145.6673583964461" y1="26.7553504044142" y2="22.446841604673864" /><path d="M 143.63769802327073 25.89364864446614 a86.0,86.0 0 0,1 29.32050498858742,28.57503671076993" fill="none" id="id98" stroke="none" /><text fill="#e1ed5e" style="font-size:6.75px; font-family:Arial;" text-anchor="middle"><textPath startOffset="20.669276256404974" xlink:href="#id98">February</textPath></text><path d="M 111.27062007382361 82.28071324371311 l 13.074091474789347 -20.55464334724269 a45.36032083170309,45.36032083170309 0 0,0 0.6534356560486648,0.42354909766511695 l -13.425012763095019 20.327180407873676" fill="#fff917" stroke="none" /><path d="M 111.8722381534696 82.67804972795209 l 28.767720626172657 -41.97296412733267 a71.88527751383376,71.88527751383376 0 0,0 1.01188766216313,0.7063761753460357 l -29.48400337950955 41.47294313618151" fill="#3cffa5" stroke="none" /><path d="M 112.45986205192187 83.09580414077388 l 11.820885838594597 -16.037301906912667 a40.9230618746856,40.9230618746856 0 0,0 0.5619067893421602,0.4216653302752084 l -12.094445616847525 15.832017549373443" fill="#ffba11" stroke="none" /><path d="M 113.03279911837588 83.53348406188908 l 14.590237188639566 -18.434288062401407 a44.50952993125035,44.50952993125035 0 0,0 0.5950483923832407,0.47932886363836336 l -14.904536351378066 18.181110904969636" fill="#ffed16" stroke="none" /><path d="M 113.59037401385872 83.9905735841838 l 23.025622777267106 -27.124125734515715 a56.579453356436204,56.579453356436204 0 0,0 0.7350493285445671,0.6349181031134706 l -23.487851585574536 26.724863498937527" fill="#76ff27" stroke="none" /><path d="M 113.86319453409587 84.22622945171908 l 15.635579921403563 -17.79041976673906 a44.68481359342687,44.68481359342687 0 0,0 0.5718272467824776,0.5113314501346701 l -15.938672195009417 17.519392786721003" fill="#fff016" stroke="none" /><path d="M 114.39649973595853 84.71141617570332 l 16.096650902771877 -17.094085446533267 a44.47998993907551,44.47998993907551 0 0,0 0.5513983433131169,0.5282271397588223 l -16.387721731950307 16.815246176468865" fill="#ffed16" stroke="none" /><path d="M 114.91283532996326 85.21462403516908 l 34.7967546929792 -34.49934832030093 a70.00019562908724,70.00019562908724 0 0,0 0.8387130067763621,0.8605934315356742 l -35.383854500906374 33.89693219669752" fill="#39ff8e" stroke="none" /><path d="M 115.41159269507618 85.73525988315684 l 5.764164804600205 -5.3352248891541 a28.854312224023253,28.854312224023253 0 0,0 0.3333391660083028,0.36639813587018805 l -5.854901671450386 5.23548917772624" fill="#ff0000" stroke="none" /><path d="M 115.8921839302757 86.27271002978787 l 22.295336792686562 -19.258180907011305 a50.46115365267453,50.46115365267453 0 0,0 0.5606124513748529,0.660400058079623 l -22.622643807568526 18.872614066482132" fill="#c1ff1e" stroke="none" /><path d="M 116.35404254752997 86.82634096563983 l 18.67477299045774 -15.043075203294354 a44.98001788608798,44.98001788608798 0 0,0 0.479216188164808,0.6054739989884822 l -18.93025560926411 14.720281260391193" fill="#fff417" stroke="none" /><path d="M 116.57777611688842 87.10902102172516 l 21.822633237617307 -16.969411598588326 a48.643955061203954,48.643955061203954 0 0,0 0.5069349228004976,0.6635940867754898 l -22.110720137772113 16.592296598571952" fill="#d9ff1c" stroke="none" /><path d="M 117.01052211995028 87.68569379921539 l 51.03156635985084 -36.94291860235382 a84.0,84.0 0 0,0 0.8355396058801574,1.175291093161984 l -51.65822106426096 36.06145028248233" fill="#4dd2ff" stroke="none" /><path d="M 117.42321728460499 88.27688183743584 l 23.367782830118177 -15.722887159116546 a49.16491532055223,49.16491532055223 0 0,0 0.4651365303202757,0.7042759908656381 l -23.634243799359176 15.319431289911849" fill="#d2ff1c" stroke="none" /><path d="M 117.62189284568427 88.57770195909679 l 24.710803459542113 -16.017244255017612 a50.44785087474149,50.44785087474149 0 0,0 0.46479841141704054,0.7307403037117124 l -24.982119562585044 15.590690276627228" fill="#c1ff1e" stroke="none" /><line stroke="#e1ed5e" stroke-width="0.3" x1="172.87174338648825" x2="177.1583165268699" y1="56.24261187166439" y2="53.66864786411523" /><path d="M 173.72905801456457 55.72781907015455 a86.0,86.0 0 0,1 12.242430191666344,42.057860355516425" fill="none" id="id99" stroke="none" /><text fill="#e1ed5e" style="font-size:6.75px; font-family:Arial;" text-anchor="middle"><textPath startOffset="22.145653131862474" xlink:href="#id99">March</textPath></text><path d="M 118.00360718960297 89.18935116829356 l 23.611851752168267 -14.178238553572482 a48.541641048571904,48.541641048571904 0 0,0 0.42283534767751574,0.7180668609929717 l -23.851760809975552 13.770820524285956" fill="#daff1b" stroke="none" /><line stroke="#e1ed5e" stroke-width="0.3" x1="184.99686870605535" x2="189.99668451229388" y1="99.2704041080226" y2="99.22748670261217" /><path d="M 185.99683186730306 99.26182062694052 a86.0,86.0 0 0,1 -10.086455211305974,41.156179273409016" fill="none" id="id100" stroke="none" /><text fill="#e1ed5e" style="font-size:6.75px; font-family:Arial;" text-anchor="middle"><textPath startOffset="21.40746469413373" xlink:href="#id100">April</textPath></text><line stroke="#e1ed5e" stroke-width="0.3" x1="174.33088141563837" x2="178.70328620479359" y1="141.23008692659167" y2="143.65538615756765" /><path d="M 175.20536237346943 141.71514677278685 a86.0,86.0 0 0,1 -30.301960400862466,31.631185727798858" fill="none" id="id101" stroke="none" /><text fill="#e1ed5e" style="font-size:6.75px; font-family:Arial;" text-anchor="middle"><textPath startOffset="22.145653131862474" xlink:href="#id101">May</textPath></text><line stroke="#e1ed5e" stroke-width="0.3" x1="143.1302829299769" x2="145.66735839644613" y1="173.24464959558577" y2="177.55315839532614" /><path d="M 143.63769802327073 174.10635135553383 a86.0,86.0 0 0,1 -40.68552437913181,11.842963189579606" fill="none" id="id102" stroke="none" /><text fill="#e1ed5e" style="font-size:6.75px; font-family:Arial;" text-anchor="middle"><textPath startOffset="21.407464694133747" xlink:href="#id102">June</textPath></text><line stroke="#e1ed5e" stroke-width="0.3" x1="101.45913802915013" x2="101.54496967792366" y1="184.9874750549273" y2="189.98673829345242" /><path d="M 101.47630435890484 185.9873277026323 a86.0,86.0 0 0,1 -42.54439059252881,-10.42667462771756" fill="none" id="id103" stroke="none" /><text fill="#e1ed5e" style="font-size:6.75px; font-family:Arial;" text-anchor="middle"><textPath startOffset="22.145653131862474" xlink:href="#id103">July</textPath></text><line stroke="#e1ed5e" stroke-width="0.3" x1="58.13341422392154" x2="55.67067388415222" y1="173.97424548756322" y2="178.32567169271397" /><path d="M 57.64086615596768 174.84453072859336 a86.0,86.0 0 0,1 -31.369924170532247,-30.572349798747897" fill="none" id="id104" stroke="none" /><text fill="#e1ed5e" style="font-size:6.75px; font-family:Arial;" text-anchor="middle"><textPath startOffset="22.145653131862474" xlink:href="#id104">August</textPath></text><line stroke="#e1ed5e" stroke-width="0.3" x1="26.387840678322732" x2="22.057713659400548" y1="142.50000000000003" y2="145.00000000000006" /><path d="M 25.521815274538298 143.00000000000003 a86.0,86.0 0 0,1 -11.493303480769221,-40.785679425670985" fill="none" id="id105" stroke="none" /><text fill="#e1ed5e" style="font-size:6.75px; font-family:Arial;" text-anchor="middle"><textPath startOffset="21.40746469413373" xlink:href="#id105">September</textPath></text><line stroke="#e1ed5e" stroke-width="0.3" x1="15.003131293944662" x2="10.003315487706104" y1="100.72959589197737" y2="100.7725132973878" /><path d="M 14.003168132696942 100.73817937305945 a86.0,86.0 0 0,1 10.791469493833604,-42.45332614584628" fill="none" id="id106" stroke="none" /><text fill="#e1ed5e" style="font-size:6.75px; font-family:Arial;" text-anchor="middle"><textPath startOffset="22.145653131862435" xlink:href="#id106">October</textPath></text><line stroke="#e1ed5e" stroke-width="0.3" x1="26.387840678322718" x2="22.05771365940052" y1="57.49999999999999" y2="54.99999999999999" /><path d="M 25.521815274538284 56.99999999999999 a86.0,86.0 0 0,1 29.574782752854787,-30.34633250058573" fill="none" id="id107" stroke="none" /><text fill="#e1ed5e" style="font-size:6.75px; font-family:Arial;" text-anchor="middle"><textPath startOffset="21.40746469413373" xlink:href="#id107">November</textPath></text><line stroke="#e1ed5e" stroke-width="0.3" x1="56.869717070023135" x2="54.33264160355391" y1="26.7553504044142" y2="22.446841604673864" /><path d="M 56.362301976729285 25.89364864446614 a86.0,86.0 0 0,1 42.16139366436587,-11.88097634709845" fill="none" id="id108" stroke="none" /><text fill="#e1ed5e" style="font-size:6.75px; font-family:Arial;" text-anchor="middle"><textPath startOffset="22.145653131862474" xlink:href="#id108">December</textPath></text></svg>