<?xml version="1.0" encoding="utf-8" ?>
<svg baseProfile="full" height="200mm" version="1.1" viewBox="0,0,200,200" width="200mm" xmlns="http://www.w3.org/2000/svg" xmlns:ev="http://www.w3.org/2001/xml-events" xmlns:xlink="http://www.w3.org/1999/xlink"><defs /><rect fill="#1a1a1a" height="200" width="200" x="0" y="0" /><text alignment-baseline="middle" fill="#e1ed5e" style="dominant-baseline: central; font-size:9.0px; font-family:Arial;" text-anchor="middle" x="100.0" y="100.0">2022</text><line stroke="#e1ed5e" stroke-width="0.3" x1="100.0" x2="100.0" y1="15.0" y2="10.0" /><path d="M 100.0 14.0 a86.0,86.0 0 0,1 42.46469731375804,11.215312516191453" fill="none" id="id73" stroke="none" /><text fill="#e1ed5e" style="font-size:6.75px; font-family:Arial;" text-anchor="middle"><textPath startOffset="22.20632615414155" xlink:href="#id73">January</textPath></text><path d="M 100.36148047927253 79.00311137660856 l 0.03677613548002424 -2.136171840390462 a23.13648838419918,23.13648838419918 0 0,0 0.3981386027225197,0.010282745485029174 l -0.07354137339741174 2.1352223027630735" fill="#ff0000" stroke="none" /><path d="M 102.52436894288641 79.15227682838746 l 1.3448096521045436 -11.106228914990139 a32.18735150572094,32.18735150572094 0 0,0 0.5494614972924647,0.0713358719991239 l -1.5357858779048545 11.081434719826879" fill="#ff810b" stroke="none" /><path d="M 102.88285421437855 79.19881850522331 l 1.7316751713051495 -12.494870308966254 a33.61429676743025,33.61429676743025 0 0,0 0.5724531059576105,0.08436470717588976 l -1.9464972576914157 12.463211117629395" fill="#ff950d" stroke="none" /><path d="M 103.59715602781102 79.31037775812273 l 2.524959954592173 -14.5227138418484 a35.740578011208015,35.740578011208015 0 0,0 0.6052154245422834,0.11059925039546341 l -2.774570500237357 14.477099110102198" fill="#ffb110" stroke="none" /><path d="M 104.307194497241 79.44645832069477 l 3.457347454276517 -16.49814863174406 a37.85651683162066,37.85651683162066 0 0,0 0.6366335408233937,0.139143433738457 l -3.740823719253439 16.43619169990973" fill="#ffcd13" stroke="none" /><path d="M 105.01212808612495 79.60689891045804 l 4.537047793691758 -18.460117681544165 a40.00949098473451,40.00949098473451 0 0,0 0.667379479056625,0.17012988903549928 l -4.8541361614334075 18.379284796339796" fill="#ffe815" stroke="none" /><path d="M 105.71112130821622 79.79150937346287 l 5.817694016345095 -20.58559232986967 a42.39187170958648,42.39187170958648 0 0,0 0.7004949605828578,0.2044936878307166 l -6.171179194651381 20.482400313120248" fill="#f8ff18" stroke="none" /><path d="M 106.40334571778207 80.00007090966166 l 7.0647380043071655 -22.065692741778417 a44.169059524375925,44.169059524375925 0 0,0 0.7220950885769244,0.238063397644582 l -7.443515915126508 21.9408156198746" fill="#e3ff1b" stroke="none" /><path d="M 107.08798089147638 80.2323363322302 l 7.06415073635926 -19.70120376914443 a41.929396923450895,41.929396923450895 0 0,0 0.6772948812443572,0.24945342068892845 l -7.402227943376194 19.57668708064918" fill="#feff18" stroke="none" /><path d="M 107.76421540070413 80.48803036053334 l 12.148232900076069 -30.52928586936904 a53.8575236177066,53.8575236177066 0 0,0 0.8584277094700373,0.3501742165289813 l -12.671944479134494 30.315650766656482" fill="#74ff27" stroke="none" /><path d="M 108.43124777332544 80.76684994638697 l 9.287166608719229 -21.185650541965973 a44.13186660225267,44.13186660225267 0 0,0 0.6931180357553157,0.31098185873761347 l -9.650466762941324 21.02264835271183" fill="#e3ff1b" stroke="none" /><path d="M 109.41281617654863 81.2277094730956 l 12.287072662880469 -24.50451527221382 a48.41246839212158,48.41246839212158 0 0,0 0.7417239988145705,0.3799398409092355 l -12.707057149283795 24.28938290599208" fill="#b1ff20" stroke="none" /><line stroke="#e1ed5e" stroke-width="0.3" x1="143.23703022742887" x2="145.7803849466894" y1="26.81831364943548" y2="22.513508569990506" /><path d="M 143.74570117128098 25.957352633546492 a86.0,86.0 0 0,1 28.547481713284135,27.462654790039103" fill="none" id="id74" stroke="none" /><text fill="#e1ed5e" style="font-size:6.75px; font-family:Arial;" text-anchor="middle"><textPath startOffset="19.985693538727396" xlink:href="#id74">February</textPath></text><path d="M 111.2981086023043 82.29822771554956 l 9.033794455703138 -14.154065777591548 a37.791278102166046,37.791278102166046 0 0,0 0.5453334953672753,0.3547000748249237 l -9.276094976854694 13.996466778607095" fill="#ffcc13" stroke="none" /><path d="M 111.60114157652 82.49532879139004 l 11.68031923365667 -17.624140387233766 a42.14332475721485,42.14332475721485 0 0,0 0.6012353456839111,0.40595678926252876 l -11.981959273747123 17.420471685672567" fill="#fbff18" stroke="none" /><path d="M 112.19680574252982 82.90503203632743 l 14.722998660661371 -20.635664431021418 a46.349503665191534,46.349503665191534 0 0,0 0.6454823538839286,0.4689703811736777 l -15.076026330899088 20.379174815031064" fill="#c9ff1d" stroke="none" /><path d="M 113.06298171725822 83.55741782278167 l 16.966779622596768 -21.35635448825041 a48.275730747123504,48.275730747123504 0 0,0 0.6461973259443865,0.5225132975685598 l -17.331880347105646 21.06113509341772" fill="#b2ff20" stroke="none" /><path d="M 113.34407831869373 83.78471172551755 l 16.2729889471726 -19.774404838153043 a46.60931970939431,46.60931970939431 0 0,0 0.6151153173772141,0.5151413885338982 l -16.61096180150893 19.491362292225325" fill="#c6ff1e" stroke="none" /><path d="M 114.16331599549186 84.49514656593476 l 21.04122875749417 -23.03423633712807 a52.19790619993385,52.19790619993385 0 0,0 0.6581711449599319,0.6116983491576099 l -21.434607786248947 22.668633401895818" fill="#86ff25" stroke="none" /><path d="M 114.68862486808459 84.99185889309783 l 17.638844934074843 -18.022536221791498 a46.21786395542105,46.21786395542105 0 0,0 0.5637791494340942,0.5613581025980006 l -17.94645988367626 17.71624226854338" fill="#caff1d" stroke="none" /><path d="M 115.19652480421416 85.50635884689758 l 16.244979875235547 -15.493602115250846 a43.44885470692243,43.44885470692243 0 0,0 0.5115227003099376,0.5456567518017774 l -16.50926989751595 15.211675946571013" fill="#ebff1a" stroke="none" /><path d="M 115.4437574822437 85.77008943001954 l 19.47266178100906 -17.942151449983708 a47.47839412599872,47.47839412599872 0 0,0 0.5486159175243737,0.6057953986180559 l -19.778621339149467 17.604303264096103" fill="#bcff1f" stroke="none" /><path d="M 117.04232023915458 87.72973835380427 l 22.159464286960997 -15.954542628288856 a48.305480914332676,48.305480914332676 0 0,0 0.480035441005982,0.6789760883161594 l -22.43081234777086 15.570740039640903" fill="#b2ff20" stroke="none" /><line stroke="#e1ed5e" stroke-width="0.3" x1="172.23445277983987" x2="176.4835382374775" y1="55.19839476539836" y2="52.563006222186495" /><path d="M 173.08426987136738 54.67131705675599 a86.0,86.0 0 0,1 12.851231095245387,41.99856678651699" fill="none" id="id75" stroke="none" /><text fill="#e1ed5e" style="font-size:6.75px; font-family:Arial;" text-anchor="middle"><textPath startOffset="22.20632615414155" xlink:href="#id75">March</textPath></text><path d="M 117.84615892207809 88.93136811851018 l 14.465426850466415 -8.971817718060935 a38.02181209896017,38.02181209896017 0 0,0 0.34017608637734875,0.5591600427249429 l -14.617718735129987 8.72148990212891" fill="#ffcf13" stroke="none" /><path d="M 118.03404312379186 89.2402003453031 l 21.75452137735908 -12.979579232312924 a46.33236422850939,46.33236422850939 0 0,0 0.4027392785157841,0.6884119768387076 l -21.974720330345193 12.603187843120322" fill="#c9ff1d" stroke="none" /><path d="M 118.56541770881063 90.18545643968196 l 9.470835943078484 -5.006724511878729 a31.712797197676927,31.712797197676927 0 0,0 0.25096989249334295,0.4847939501847614 l -9.555615268731945 4.842957839433622" fill="#ff7b0b" stroke="none" /><path d="M 118.73160827565052 90.50648371742162 l 32.13390481003061 -16.286041435823016 a57.0253103246794,57.0253103246794 0 0,0 0.43621643389925624,0.8793857124532981 l -32.409481256883275 15.73049613487077" fill="#53ff2b" stroke="none" /><path d="M 119.34039704204932 91.81776055985345 l 23.17907404700491 -9.806248208924288 a46.16807457100299,46.16807457100299 0 0,0 0.3033425261437732,0.7345679879704908 l -23.34443826003488 9.405805650500493" fill="#cbff1d" stroke="none" /><path d="M 119.7369772167798 92.82701384747503 l 9.941116620135967 -3.612888188179472 a31.57727567549557,31.57727567549557 0 0,0 0.1812639666238253,0.5124576429138105 l -10.001833667569601 3.441232918839047" fill="#ff790b" stroke="none" /><path d="M 119.85752413597 93.16781622104841 l 19.889731915795714 -6.843265194206304 a42.03406081099078,42.03406081099078 0 0,0 0.2295113888738185,0.6862098399717491 l -20.004580598441304 6.499882251312241" fill="#fdff18" stroke="none" /><path d="M 120.83666639777658 97.38593545837742 l 9.139378726401366 -1.146581003173082 a30.211020111878774,30.211020111878774 0 0,0 0.060292056585253107,0.5165455210839944 l -9.157761135990208 0.9890917437642349" fill="#ff6609" stroke="none" /><path d="M 120.87857604477298 97.74499172005257 l 21.4055531580396 -2.3119248891649677 a42.53004186467828,42.53004186467828 0 0,0 0.07234739715530739,0.728528416137598 l -21.442177680877133 1.9431209423229348" fill="#f7ff19" stroke="none" /><path d="M 120.94382443527127 98.46500227214037 l 26.30621942667465 -1.9280140154593275 a47.37677801719085,47.37677801719085 0 0,0 0.05260945064170904,0.8138449159332217 l -26.335509468320776 1.4749100352730706" fill="#bdff1f" stroke="none" /><path d="M 120.98425023603335 99.18683210126433 l 27.514010883974336 -1.066204899610508 a48.53466157067146,48.53466157067146 0 0,0 0.025164772603492026,0.8350962909575372 l -27.528287351033473 0.5924384612279716" fill="#afff20" stroke="none" /><line stroke="#e1ed5e" stroke-width="0.3" x1="184.98032266829074" x2="189.97916517819016" y1="98.17113171792111" y2="98.06355123074" /><path d="M 185.9800911702706 98.14961562048488 a86.0,86.0 0 0,1 -9.607161424134198,41.387399972396054" fill="none" id="id76" stroke="none" /><text fill="#e1ed5e" style="font-size:6.75px; font-family:Arial;" text-anchor="middle"><textPath startOffset="21.466115282336823" xlink:href="#id76">April</textPath></text><path d="M 120.99513854157772 99.54816195383933 l 20.99938195954982 -0.45192936909629666 a42.00424440054243,42.00424440054243 0 0,0 0.009334929030622283,0.7230005408744249 l -21.004049895698156 0.09039257016140902" fill="#fdff18" stroke="none" /><path d="M 120.99824983174949 100.27111621757518 l 31.488341138048867 0.406557690067908 a52.4909656374887,52.4909656374887 0 0,0 -0.019441497158657846,0.9033699790666448 l -31.4766775782052 -0.9485174849246677" fill="#83ff25" stroke="none" /><path d="M 120.9764740272857 100.99374915477107 l 31.05840333534004 1.4713751235257868 a52.09323660371805,52.09323660371805 0 0,0 -0.050142590754308165,0.8953296418053646 l -31.028474393698204 -2.0057764816665746" fill="#87ff25" stroke="none" /><path d="M 120.92983693683757 101.71520430193887 l 20.888387754470926 1.7118075331956804 a41.958411867597135,41.958411867597135 0 0,0 -0.06518619651205285,0.7193242466323572 l -20.8558269616818 -2.0711131683766077" fill="#feff18" stroke="none" /><path d="M 120.81339534386255 102.79330883721812 l 26.884718145286595 3.6081244573818134 a48.125755876131066,48.125755876131066 0 0,0 -0.11725714142598191,0.820096174030425 l -26.818626952844014 -4.070366103392648" fill="#b4ff20" stroke="none" /><path d="M 120.70491114924044 103.5080841355445 l 18.71913716854688 3.171629554878324 a39.98592453288096,39.98592453288096 0 0,0 -0.12082138895085764,0.6776305131356632 l -18.661769337256835 -3.4933788187472055" fill="#ffe815" stroke="none" /><path d="M 120.5718875245553 104.21870165774334 l 20.028783109214398 4.107326583648094 a41.445593278276235,41.445593278276235 0 0,0 -0.14933431695412056,0.6976402128556555 l -19.955114753535835 -4.451480615919918" fill="#fffa17" stroke="none" /><path d="M 120.49622156327973 104.57218783832717 l 24.569609823741633 5.480857575711113 a46.173508429619645,46.173508429619645 0 0,0 -0.1797236403827599,0.7742447389642534 l -24.471625617428323 -5.9029709720239305" fill="#cbff1d" stroke="none" /><path d="M 120.32669344350535 105.2749913415812 l 10.815453712405734 2.806724312873487 a32.17370754824316,32.17370754824316 0 0,0 -0.1437274950627511,0.534863477069047 l -10.765538141001205 -2.9924787231180825" fill="#ff810b" stroke="none" /><path d="M 120.13307415673323 105.97154293290107 l 30.1546540279461 8.943979928392439 a52.45310694517495,52.45310694517495 0 0,0 -0.26419687684153054,0.8634106798471116 l -29.996230378598437 -9.461717580791609" fill="#83ff25" stroke="none" /><path d="M 119.9155931802556 106.66101706037122 l 21.89431670696066 7.322825676858092 a44.086465298056105,44.086465298056105 0 0,0 -0.24690345477878428,0.7176170125324705 l -21.765022421238644 -7.698615392479863" fill="#e4ff1b" stroke="none" /><path d="M 119.79798401119884 107.00284435728193 l 25.665220835376306 9.078174161760332 a48.22346059265587,48.22346059265587 0 0,0 -0.2835441635030243,0.7801917605877549 l -25.505152410868057 -9.518613719354217" fill="#b3ff20" stroke="none" /><path d="M 119.54520255179757 107.68017299344265 l 33.41036154263043 13.128406100721934 a56.89717684101009,56.89717684101009 0 0,0 -0.3660314213026332,0.9084599696547578 l -33.17942750707041 -13.701565438219506" fill="#54ff2b" stroke="none" /><path d="M 119.12269723197855 108.67885076344098 l 19.16248266953189 8.696907414701784 a42.04369123134069,42.04369123134069 0 0,0 -0.3047674765313647,0.6564420310610287 l -19.009940576160695 -9.025469513041644" fill="#fdff18" stroke="none" /><path d="M 118.81262510543309 109.33194174019688 l 22.62593818411613 11.22352333967944 a46.25669326867184,46.25669326867184 0 0,0 -0.3599681116788041,0.710251234525884 l -22.429391402651056 -11.611328785908018" fill="#caff1d" stroke="none" /><line stroke="#e1ed5e" stroke-width="0.3" x1="174.80103733775053" x2="179.2010983576182" y1="140.37084112569926" y2="142.7455964860345" /><path d="M 175.68104954172406 140.8457921977663 a86.0,86.0 0 0,1 -30.038265399797805,32.042727171017184" fill="none" id="id77" stroke="none" /><text fill="#e1ed5e" style="font-size:6.75px; font-family:Arial;" text-anchor="middle"><textPath startOffset="22.206326154141568" xlink:href="#id77">May</textPath></text><path d="M 117.94076556474637 110.91462005526583 l 21.596411495119966 13.138604658521002 a46.279001598944916,46.279001598944916 0 0,0 -0.4198945831172329,0.677003765330869 l -21.36705227233477 -13.508404755217144" fill="#caff1d" stroke="none" /><path d="M 117.55443506779139 111.5257021239791 l 26.505255133783244 17.40253526885437 a52.707677043433236,52.707677043433236 0 0,0 -0.504479971749748,0.7541291090244621 l -26.201772056622776 -17.856201292084638" fill="#81ff25" stroke="none" /><path d="M 117.14729908036423 112.12312394758627 l 28.313284347527485 20.01746478554096 a55.674788636476464,55.674788636476464 0 0,0 -0.5599828769162375,0.7777672385501635 l -27.964521678235645 -20.501865629542255" fill="#61ff29" stroke="none" /><path d="M 116.71984013943494 112.70617746262583 l 16.805529156016604 12.7712964973896 a42.107624793850206,42.107624793850206 0 0,0 -0.44351997845424296,0.573309359246866 l -16.58320236034429 -13.058683850749718" fill="#fcff18" stroke="none" /><path d="M 116.27256486870786 113.27417163493432 l 19.57466085596225 15.9678212988624 a46.26140662469817,46.26140662469817 0 0,0 -0.5086639923901971,0.6127185467972495 l -19.29690086367851 -16.30240110277342" fill="#caff1d" stroke="none" /><path d="M 115.07121518719521 114.62390073753431 l 18.202216841432616 17.661974100027713 a46.36268966518699,46.36268966518699 0 0,0 -0.5606780803864319,0.5679639352854167 l -17.89549813599065 -17.972678529293795" fill="#c9ff1d" stroke="none" /><path d="M 114.55890576462653 115.13401014063108 l 14.631678382975734 15.209657415355048 a42.10496839597975,42.10496839597975 0 0,0 -0.526641256749116,0.49797217954614326 l -14.36770129183581 -15.459264231647113" fill="#fcff18" stroke="none" /><path d="M 114.29624159901734 115.38237550388516 l 18.89222053028078 20.32752652410144 a48.751114052463016,48.751114052463016 0 0,0 -0.6196044906949847,0.5659940115691888 l -18.539516490118935 -20.649713302257215" fill="#adff20" stroke="none" /><path d="M 113.75828350139079 115.86535959552629 l 20.77318031093861 23.954585289831524 a52.707210168013525,52.707210168013525 0 0,0 -0.6905511024061814,0.5885026306567747 l -20.35776373195538 -24.308612310711244" fill="#81ff25" stroke="none" /><path d="M 112.92097659922987 116.55440617244103 l 12.953123411277922 16.595592794807036 a42.05224706103478,42.05224706103478 0 0,0 -0.5744562659097517,0.4404685686277712 l -12.665538416874677 -16.816100705262176" fill="#fcff18" stroke="none" /><path d="M 112.34349029814194 116.9893568818739 l 14.703239326199048 20.237272780941122 a46.01464483644944,46.01464483644944 0 0,0 -0.6448024997193572,0.4600494629815632 l -14.352709498630807 -20.487366505766907" fill="#cdff1d" stroke="none" /><path d="M 111.45004920935366 117.60387380957326 l 14.823467348295 22.790334246471318 a48.18702851162391,48.18702851162391 0 0,0 -0.6992125948940581,0.44627056016031347 l -14.428972951354012 -23.042119235455438" fill="#b3ff20" stroke="none" /><path d="M 111.1453310114006 117.79835938074945 l 7.775324375497329 12.416680796240609 a35.65024338159381,35.65024338159381 0 0,0 -0.5229055470955448,0.3212112956272776 l -7.560439628469475 -12.548680558696265" fill="#ffb010" stroke="none" /><line stroke="#e1ed5e" stroke-width="0.3" x1="143.8653032363475" x2="146.44561519142675" y1="172.8068346515853" y2="177.08958963109032" /><path d="M 144.38136562736335 173.6633856474863 a86.0,86.0 0 0,1 -40.68145358897372,12.25698825130547" fill="none" id="id78" stroke="none" /><text fill="#e1ed5e" style="font-size:6.75px; font-family:Arial;" text-anchor="middle"><textPath startOffset="21.466115282336833" xlink:href="#id78">June</textPath></text><path d="M 109.57404056367764 118.69057910512821 l 9.594062251381477 18.72966573060863 a42.04391619598687,42.04391619598687 0 0,0 -0.6469679630688883,0.3244031675173388 l -9.270240380629827 -18.892036739035273" fill="#fdff18" stroke="none" /><path d="M 109.2508944713604 118.85261126421891 l 11.098725762277258 22.61834928202515 a46.194670821225756,46.194670821225756 0 0,0 -0.7168694298350838,0.34414089040434886 l -10.707743664441942 -22.806044448929057" fill="#cbff1d" stroke="none" /><path d="M 108.59647513512805 119.15986991738527 l 10.30354502063882 22.96459643984325 a46.17013566982094,46.17013566982094 0 0,0 -0.7279036842154425,0.3190915840426238 l -9.906720661765624 -23.138552577180327" fill="#cbff1d" stroke="none" /><path d="M 107.93186726928326 119.44442032107085 l 10.31706931922635 25.291577066794368 a48.3149371198859,48.3149371198859 0 0,0 -0.7727604329015318,0.3074973242092908 l -9.880187810282953 -25.46542123540973" fill="#b2ff20" stroke="none" /><path d="M 107.2578585660854 119.70592522655815 l 12.36175604333009 33.563597036336844 a56.76769573920589,56.76769573920589 0 0,0 -0.9198541165797387,0.3298269593636138 l -11.782182366120615 -33.771411536740416" fill="#56ff2b" stroke="none" /><path d="M 106.57524785965236 119.94407469862006 l 6.578555065483139 19.95410613188928 a42.010562540595984,42.010562540595984 0 0,0 -0.6887304744499673,0.22050974852734573 l -6.234103245942231 -20.06438872707633" fill="#fdff18" stroke="none" /><path d="M 105.88484417918355 120.15858648285463 l 7.639965444369307 26.17077010825912 a48.263130415462314,48.263130415462314 0 0,0 -0.7994875619639024,0.22594317087640586 l -7.188346714300798 -26.298402072474047" fill="#b2ff20" stroke="none" /><path d="M 105.53697534728816 120.25689768951611 l 6.8875189567909025 25.197830600898126 a47.1221856737087,47.1221856737087 0 0,0 -0.7842692499320156,0.20713263701933504 l -6.45275926404739 -25.312654587221044" fill="#c0ff1e" stroke="none" /><path d="M 104.83641907484287 120.43548508189849 l 4.689478988509041 19.814614165681355 a41.36197799130743,41.36197799130743 0 0,0 -0.6942506582472271,0.1580091895309814 l -4.347708180868952 -19.892400088790023" fill="#fff917" stroke="none" /><path d="M 103.41894727170886 120.7198165907248 l 4.05424871464186 24.569928432553603 a45.90217492149995,45.90217492149995 0 0,0 -0.7806957459203958,0.12192861969383331 l -3.6307171051129465 -24.63607535959454" fill="#ceff1d" stroke="none" /><path d="M 103.06178313531738 120.77559828337769 l 3.9166897329664296 26.576530373469968 a47.86358920837453,47.86358920837453 0 0,0 -0.8161229913665469,0.11310721007376973 l -3.4586381504130523 -26.64001214903634" fill="#b7ff1f" stroke="none" /><path d="M 102.34483914955558 120.86867818915974 l 3.732006881149799 33.21424013975785 a54.42324974359093,54.42324974359093 0 0,0 -0.9318488854565615,0.09658994707779135 l -3.1597253990876353 -33.2735594552914" fill="#6eff28" stroke="none" /><path d="M 101.62511606390274 120.93702456842531 l 0.6885219620186972 8.870505654880215 a29.89718680625758,29.89718680625758 0 0,0 -0.5134304242993011,0.03540916810369063 l -0.5357287769404657 -8.881043167500192" fill="#ff6209" stroke="none" /><path d="M 100.90346689309514 120.98055641714683 l 1.0857698002704212 25.21404461492414 a46.23741155314,46.23741155314 0 0,0 -0.7954588469234661,0.027397211057684813 l -0.651590601672303 -25.228998624407918" fill="#caff1d" stroke="none" /><line stroke="#e1ed5e" stroke-width="0.3" x1="102.19456741930631" x2="102.32365962044197" y1="184.97166512339345" y2="189.96999836594603" /><path d="M 102.22038585953345 185.97133177190398 a86.0,86.0 0 0,1 -42.740103519485714,-10.115201625700543" fill="none" id="id79" stroke="none" /><text fill="#e1ed5e" style="font-size:6.75px; font-family:Arial;" text-anchor="middle"><textPath startOffset="22.20632615414155" xlink:href="#id79">July</textPath></text><path d="M 99.81925306533755 120.99922214144158 l -0.32710923065834674 38.00362873062754 a59.00503647076478,59.00503647076478 0 0,0 -1.0155618418994123,-0.017483818099206988 l 0.981230762450427 -37.99236743524917" fill="#3fff2d" stroke="none" /><path d="M 99.09653310690486 120.98055641714683 l -1.0844681430972631 25.18381717442155 a46.20715609956987,46.20715609956987 0 0,0 -0.7943492703154836,-0.04105878389462263 l 1.5178054818262359 -25.161418583764725" fill="#caff1d" stroke="none" /><path d="M 98.37488393609728 120.93702456842531 l -1.913372604733748 24.65074964409465 a45.72489540403312,45.72489540403312 0 0,0 -0.7841943285921997,-0.06766358638858266 l 2.3374112510674894 -24.614161805427404" fill="#d0ff1d" stroke="none" /><path d="M 97.65516085044442 120.86867818915974 l -2.77259843874104 24.67566467270037 a45.83094297730278,45.83094297730278 0 0,0 -0.783212790964261,-0.0948361616713043 l 3.1969386527566903 -24.62428298230372" fill="#cfff1d" stroke="none" /><path d="M 96.22490169976321 120.6578951692458 l -3.762948917021903 20.591411950833056 a41.932415787028184,41.932415787028184 0 0,0 -0.708922171601911,-0.13586662143649153 l 4.116838703195509 -20.523588131048097" fill="#feff18" stroke="none" /><path d="M 95.86986931433489 120.58985236759428 l -4.871990250897761 24.288229026387178 a45.77204792186305,45.77204792186305 0 0,0 -0.7711686372675447,-0.16160588587163308 l 5.289350349594692 -24.200767159789002" fill="#d0ff1d" stroke="none" /><path d="M 94.46302465271185 120.25689768951611 l -4.628820453609867 16.9344337785138 a38.55565510570956,38.55565510570956 0 0,0 -0.6386814621230744,-0.18049776081267174 l 4.919633083837556 -16.852247224362607" fill="#ffd614" stroke="none" /><path d="M 93.76903079525671 120.05430185196036 l -7.617611242600306 24.517193109171714 a46.67334724954671,46.67334724954671 0 0,0 -0.765173200532257,-0.24498429543716893 l 8.038505788223503 -24.382435967074837" fill="#c5ff1e" stroke="none" /><path d="M 93.42475214034765 119.94407469862007 l -6.4700712302080605 19.625052420074823 a41.6640873065967,41.6640873065967 0 0,0 -0.6791846730759042,-0.2304163168287603 l 6.80692563622119 -19.51077311634794" fill="#fffd17" stroke="none" /><path d="M 92.40401165467489 119.57807347666478 l -12.514074022883474 32.254059587021175 a55.596624235513495,55.596624235513495 0 0,0 -0.8892254439966394,-0.35384115568793023 l 13.06742054292197 -32.033871586927184" fill="#62ff29" stroke="none" /><path d="M 91.7346041902142 119.30500536409082 l -9.076978695864643 21.20057241613772 a44.06199932826901,44.06199932826901 0 0,0 -0.694667476706394,-0.3045218073927557 l 9.44056684722878 -21.041186055450513" fill="#e4ff1a" stroke="none" /><path d="M 91.40352486487194 119.15986991738527 l -9.446549107902484 21.054519350146116 a44.07661316384383,44.07661316384383 0 0,0 -0.6895513363096075,-0.31653919814242815 l 9.807568439979512 -20.88879308166961" fill="#e4ff1a" stroke="none" /><path d="M 90.7491055286396 118.85261126421891 l -11.102795030998845 22.62664213863219 a46.20390826776868,46.20390826776868 0 0,0 -0.7109815431673164,-0.35650090547881463 l 11.490630481848921 -22.432173392244074" fill="#caff1d" stroke="none" /><path d="M 90.10565033884886 118.52300852407294 l -5.325083530114269 9.968979366778445 a32.302082295663425,32.302082295663425 0 0,0 -0.48818781189454413,-0.26619891947094854 l 5.495894153877454 -9.875839795547732" fill="#ff830c" stroke="none" /><line stroke="#e1ed5e" stroke-width="0.3" x1="58.666819895761336" x2="56.23545636021788" y1="174.27360380694188" y2="178.64263932499728" /><path d="M 58.180547188652646 175.14741091055294 a86.0,86.0 0 0,1 -31.652253787137756,-30.449443065178592" fill="none" id="id80" stroke="none" /><text fill="#e1ed5e" style="font-size:6.75px; font-family:Arial;" text-anchor="middle"><textPath startOffset="22.20632615414155" xlink:href="#id80">August</textPath></text><path d="M 89.4739219176387 118.17145234162733 l -11.38902344492305 19.661178183153837 a43.7216148761203,43.7216148761203 0 0,0 -0.6479795847605753,-0.3828377602401829 l 11.725770900712007 -19.4622218506199" fill="#e8ff1a" stroke="none" /><path d="M 88.8546689885994 117.79835938074946 l -13.433505176135865 21.452422778960422 a46.31137104948148,46.31137104948148 0 0,0 -0.6719960729016321,-0.4288996881195783 l 13.800783051084421 -21.21800866201704" fill="#c9ff1d" stroke="none" /><path d="M 87.95078237400918 117.19931262002967 l -16.820678536796297 24.010198638236737 a50.315948988320756,50.315948988320756 0 0,0 -0.7050766076482021,-0.5030534386119758 l 17.231482472293386 -23.717100937780543" fill="#9bff22" stroke="none" /><path d="M 87.36589467227662 116.77436683061367 l -13.772457320188002 18.2857626444558 a43.892131751450655,43.892131751450655 0 0,0 -0.5995900783176216,-0.45974010422138184 l 14.08517612699911 -18.04598319840705" fill="#e6ff1a" stroke="none" /><path d="M 87.07902340077011 116.55440617244103 l -15.592820916900124 19.977583648583042 a46.34245277360995,46.34245277360995 0 0,0 -0.624613525079523,-0.4962307605049403 l 15.934391934697004 -19.70621897407297" fill="#c9ff1d" stroke="none" /><path d="M 86.51685102203217 116.09983520530335 l -17.00611730163261 20.306508997693292 a47.487021979646684,47.487021979646684 0 0,0 -0.6221580552926157,-0.5302165921511315 l 17.35314083350228 -20.01076801531921" fill="#bbff1f" stroke="none" /><path d="M 85.70375840098266 115.38237550388516 l -22.951097916758236 24.694770575665025 a54.713270226564426,54.713270226564426 0 0,0 -0.6843435938957286,-0.647089582601844 l 23.37277734504478 -24.296046356317248" fill="#6bff28" stroke="none" /><path d="M 85.18274418774928 114.88116024355367 l -19.47564411391241 19.559639421621743 a48.60217759445132,48.60217759445132 0 0,0 -0.5877608877536582,-0.5953986761625026 l 19.8094456267216 -19.221500251478574" fill="#afff20" stroke="none" /><path d="M 84.67929136418377 114.36230785411682 l -18.342932728229652 17.195473985734065 a46.142543758864484,46.142543758864484 0 0,0 -0.5382277065689578,-0.584139874217533 l 18.636206842794337 -16.877182856715187" fill="#cbff1d" stroke="none" /><path d="M 84.19399662182784 113.82643327865904 l -24.496919109849774 21.428884298025107 a53.546829770849726,53.546829770849726 0 0,0 -0.6008910249637694,-0.698972014642336 l 24.86215264438432 -21.00403518422124" fill="#78ff26" stroke="none" /><path d="M 83.50135304334701 112.99209946851258 l -19.46007506139559 15.324119094531046 a45.76939941578159,45.76939941578159 0 0,0 -0.48208948241877186,-0.6231656423424758 l 19.72097136103243 -14.986875458075316" fill="#d0ff1d" stroke="none" /><path d="M 83.28015986056508 112.70617746262583 l -19.8077458571647 15.052819398800331 a45.87838756420771,45.87838756420771 0 0,0 -0.4724135434741066,-0.6328751422014908 l 20.063920667333893 -14.709631377089533" fill="#ceff1d" stroke="none" /><path d="M 82.85270091963577 112.12312394758628 l -15.778274825957379 11.155225117243281 a40.323379722497194,40.323379722497194 0 0,0 -0.3958202341024942,-0.5702085688926942 l 15.967955967222007 -10.881975286163575" fill="#ffec16" stroke="none" /><path d="M 82.6465618267979 111.8261652097733 l -31.13560836294279 21.21855304590725 a58.678284216409494,58.678284216409494 0 0,0 -0.5616263289202316,-0.8395551592747749 l 31.49623779727375 -20.679460972426654" fill="#42ff2d" stroke="none" /><path d="M 82.24976979558568 111.22182372390057 l -20.95625705063144 13.248697049374062 a45.79299665385838,45.79299665385838 0 0,0 -0.41548500562509505,-0.6698941223734989 l 21.18120669592449 -12.8860065956353" fill="#cfff1d" stroke="none" /><line stroke="#e1ed5e" stroke-width="0.3" x1="26.63291911575756" x2="22.317208475507996" y1="142.92168965132927" y2="145.44649492493687" /><path d="M 25.769776987707644 143.4266507060508 a86.0,86.0 0 0,1 -11.730757126820373,-40.83630448921669" fill="none" id="id81" stroke="none" /><text fill="#e1ed5e" style="font-size:6.75px; font-family:Arial;" text-anchor="middle"><textPath startOffset="21.46611528233685" xlink:href="#id81">September</textPath></text><path d="M 81.87401531095188 110.60418214915194 l -20.013760516510644 11.70858111420644 a44.18709731122445,44.18709731122445 0 0,0 -0.37842672605925604,-0.6598188945679883 l 20.212339238722276 -11.362342373780145" fill="#e2ff1b" stroke="none" /><path d="M 81.69416730710424 110.29060199501025 l -21.5046209436479 12.088796991492444 a45.66957102649936,45.66957102649936 0 0,0 -0.37932621701195274,-0.6885872666244913 l 21.709523570111372 -11.71683920647013" fill="#d1ff1d" stroke="none" /><path d="M 81.35079622478065 109.6543875284942 l -33.3527345989822 17.266164756130628 a58.5569614135115,58.5569614135115 0 0,0 -0.4556884060700144,-0.8991164563464369 l 33.64500167483848 -16.689494088081506" fill="#43ff2d" stroke="none" /><path d="M 81.02952815118164 109.00673069616217 l -23.521950076129112 11.167664751441706 a47.038411460465554,47.038411460465554 0 0,0 -0.3409733432292979,-0.7344262469032521 l 23.710698036198234 -10.761118437259627" fill="#c1ff1e" stroke="none" /><path d="M 80.87730276802145 108.67885076344099 l -21.167411493935024 9.606845894991984 a44.24544681015396,44.24544681015396 0 0,0 -0.3087887947655246,-0.6962372143352057 l 21.329641373431826 -9.241060344164083" fill="#e2ff1b" stroke="none" /><path d="M 80.58989483394504 108.01547362559985 l -22.91094892614791 9.461159807426661 a45.78760023879326,45.78760023879326 0 0,0 -0.2945611948423227,-0.7310767288108713 l 23.07041273524762 -9.065383710772984" fill="#cfff1d" stroke="none" /><path d="M 80.32549172779594 107.34259656027581 l -34.937772574346766 13.038901159757353 a58.29156601579905,58.29156601579905 0 0,0 -0.34274258052207307,-0.9430803795157658 l 35.15703941587406 -12.43557298323547" fill="#46ff2c" stroke="none" /><path d="M 80.0844068197444 106.66101706037122 l -21.061407524360654 7.044248874007009 a43.20820409457155,43.20820409457155 0 0,0 -0.22984243890643177,-0.7073822903665371 l 21.179542214283334 -6.680667683662668" fill="#eeff19" stroke="none" /><path d="M 79.97269907076064 106.31721596034903 l -46.718423790233736 14.73640274607006 a69.98747480058815,69.98747480058815 0 0,0 -0.3525143378001942,-1.1520372522741222 l 46.96516490054006 -13.93003852124389" fill="#3bff9e" stroke="none" /><path d="M 79.76711848015287 105.62410040840567 l -16.921787601095005 4.703721141495201 a38.56336779189918,38.56336779189918 0 0,0 -0.1722716054903668,-0.6410867306399239 l 17.000247282927145 -4.411743477679738" fill="#ffd614" stroke="none" /><path d="M 79.58551787078972 104.9243191809786 l -23.721421783014833 5.722009088785165 a45.40178762754546,45.40178762754546 0 0,0 -0.17671982982936613,-0.7613044017172607 l 23.816402178774755 -5.31283602971933" fill="#d4ff1c" stroke="none" /><path d="M 79.4281124754447 104.21870165774334 l -26.133553546032275 5.359239181906524 a47.677407399374815,47.677407399374815 0 0,0 -0.15794859182480772,-0.8053764668531873 l 26.22193207083275 -4.908598987985382" fill="#b9ff1f" stroke="none" /><path d="M 79.29508885075956 103.50808413554451 l -22.518488888892502 3.815363082611302 a43.83942506481563,43.83942506481563 0 0,0 -0.11965709212023282,-0.7451048268543157 l 22.580827735374026 -3.4271790260637722" fill="#e7ff1a" stroke="none" /><path d="M 79.23777060512086 103.15116336523772 l -29.220527011813182 4.4349117082424465 a50.55516267436215,50.55516267436215 0 0,0 -0.12317632734495008,-0.8614949465613303 l 29.29253739017473 -3.9312712897007156" fill="#98ff23" stroke="none" /><path d="M 79.10278846688536 102.07522291339032 l -27.30871054173937 2.71192459154451 a48.44303566376597,48.44303566376597 0 0,0 -0.07526064743306678,-0.8304949730553005 l 27.35134578544951 -2.2414482299406435" fill="#b0ff20" stroke="none" /><path d="M 79.07016306316243 101.71520430193888 l -25.76450841224644 2.111406591431512 a46.850878737850636,46.850878737850636 0 0,0 -0.05895054504066356,-0.8043333506537093 l 25.79703551595144 -1.667600104281042" fill="#c3ff1e" stroke="none" /><path d="M 79.0235259727143 100.99374915477108 l -27.426370516382484 1.299309525692495 a48.457130311550216,48.457130311550216 0 0,0 -0.03229983202443465,-0.8335151434733178 l 27.444672481258117 -0.8270171352051804" fill="#b0ff20" stroke="none" /><line stroke="#e1ed5e" stroke-width="0.3" x1="15.007084014347285" x2="10.007500721073583" y1="101.09737516637583" y2="101.16192664675087" /><path d="M 14.007167355692545 101.11028546245083 a86.0,86.0 0 0,1 10.666146001902534,-42.60595125391555" fill="none" id="id82" stroke="none" /><text fill="#e1ed5e" style="font-size:6.75px; font-family:Arial;" text-anchor="middle"><textPath startOffset="22.20632615414155" xlink:href="#id82">October</textPath></text><path d="M 79.00019446554 99.90962569577889 l -52.47681864492773 -0.22583809002378022 a73.47730459861235,73.47730459861235 0 0,0 0.016329431312912868,-1.2647324508497577 l 52.465156206497106 1.1291067989340098" fill="#40ffc4" stroke="none" /><path d="M 79.01574976396665 99.18683210126434 l -27.202011201692653 -1.0541144926055472 a48.22242771650856,48.22242771650856 0 0,0 0.039281511450018146,-0.8291706219098101 l 27.179836082009135 1.5221962211383664" fill="#b3ff20" stroke="none" /><path d="M 79.03285615573316 98.82574320788736 l -21.539816883607156 -1.2063291244770273 a42.573570435509495,42.573570435509495 0 0,0 0.04727573816133663,-0.7313347446188575 l 21.515860554441407 1.5769229333488965" fill="#f6ff19" stroke="none" /><path d="M 79.08570108090925 98.10471618934814 l -23.98772256412616 -2.1738018762224427 a45.086017695139134,45.086017695139134 0 0,0 0.07669534017201282,-0.7723116089540281 l 23.94675009827192 2.586389015880901" fill="#d8ff1c" stroke="none" /><path d="M 79.16333360222342 97.38593545837743 l -56.09646727768394 -7.0375838064255545 a77.53619395456974,77.53619395456974 0 0,0 0.1775357344363575,-1.3228474342875896 l 55.96701554418975 8.002149582777802" fill="#45ffee" stroke="none" /><path d="M 79.26566170972629 96.67025291283419 l -16.433518526691127 -2.639074354825375 a37.644075360842294,37.644075360842294 0 0,0 0.10825026837303356,-0.6388992116340081 l 16.38565639679787 2.921559354775211" fill="#ffca12" stroke="none" /><path d="M 79.3925641242962 95.95851677861259 l -20.615934623966886 -4.0431499764711205 a42.00866064631239,42.00866064631239 0 0,0 0.1452713578001555,-0.7083947327061749 l 20.543283970251736 4.397420365340698" fill="#fdff18" stroke="none" /><path d="M 79.46518482838121 95.60439243477599 l -25.569346913119183 -5.47328104927295 a47.14858135746121,47.14858135746121 0 0,0 0.17670752370110893,-0.7921451798886731 l 25.471345002416037 5.912604398711583" fill="#bfff1e" stroke="none" /><path d="M 79.62865764111835 94.90015583598534 l -51.01379694485206 -12.771000067160754 a73.58807775005678,73.58807775005678 0 0,0 0.3181936852532465,-1.226130068653952 l 50.78640692772851 13.64722656136357" fill="#40ffc5" stroke="none" /><path d="M 79.81627453868168 94.20196356495316 l -24.021062643112394 -6.900361218261016 a45.99252759219864,45.99252759219864 0 0,0 0.2251314577811964,-0.7590313567954762 l 23.898725288219488 7.3128219618030315" fill="#cdff1d" stroke="none" /><path d="M 79.91906864156998 93.8553929516997 l -25.137961031798703 -7.692018352079315 a47.288480959632395,47.288480959632395 0 0,0 0.24487442787103467,-0.7763188543229017 l 25.001831120159462 8.12358737282863" fill="#beff1f" stroke="none" /><path d="M 80.14247586403 93.16781622104843 l -27.673978033318235 -9.521514491114733 a50.26616302819842,50.26616302819842 0 0,0 0.2885443377410083,-0.8157536985922357 l 27.505980614767417 9.996465816133579" fill="#9cff22" stroke="none" /><path d="M 80.38941819471856 92.48833698450439 l -33.252459361148304 -12.737065714701986 a56.608410475412356,56.608410475412356 0 0,0 0.3563808093235409,-0.9069502874153132 l 33.028285001943075 13.307565007013062" fill="#57ff2a" stroke="none" /><path d="M 80.65960295795068 91.81776055985345 l -21.72846055220428 -9.192544833354447 a44.59298367061549,44.59298367061549 0 0,0 0.3051631442524324,-0.7043586109037604 l 21.567006698109168 9.565202588844807" fill="#deff1b" stroke="none" /><path d="M 80.95270993114464 91.15688171328213 l -25.438255692463017 -11.810262944651173 a49.046161296992636,49.046161296992636 0 0,0 0.3621050206006915,-0.7626855216786066 l 25.231192478020574 12.246390881970312" fill="#aaff21" stroke="none" /><path d="M 81.26839172434947 90.50648371742162 l -29.93475481037749 -15.171472626657883 a54.55984396892882,54.55984396892882 0 0,0 0.43177768551866735,-0.834057056345051 l 29.66916769169871 15.684502405263268" fill="#6dff28" stroke="none" /><path d="M 81.6062741919709 89.86733742301443 l -18.11812686650268 -9.98084172729982 a41.68535043783633,41.68535043783633 0 0,0 0.3516305381004731,-0.6255114912909273 l 17.943638687109775 10.291236728525533" fill="#fffd17" stroke="none" /><line stroke="#e1ed5e" stroke-width="0.3" x1="26.266209847984243" x2="21.928928074336255" y1="57.711370442889674" y2="55.22380399835377" /><path d="M 25.398753493254645 57.213857153982495 a86.0,86.0 0 0,1 29.58750427330803,-30.492523968695096" fill="none" id="id83" stroke="none" /><text fill="#e1ed5e" style="font-size:6.75px; font-family:Arial;" text-anchor="middle"><textPath startOffset="21.46611528233685" xlink:href="#id83">November</textPath></text><path d="M 82.34701348167596 88.62581576622439 l -21.140171127533506 -13.621049383826193 a46.148356240876524,46.148356240876524 0 0,0 0.43599948337577243,-0.6640571253864944 l 20.902575008799815 13.982924573190354" fill="#cbff1d" stroke="none" /><path d="M 82.54541684631803 88.32363383020206 l -2.902286684380551 -1.9415050911374836 a24.49180612538059,24.49180612538059 0 0,0 0.2374253580339034,-0.3483924161643538 l 2.868436860677907 1.9911755305722532" fill="#ff1402" stroke="none" /><path d="M 82.7489923806493 88.02491185347247 l -34.415682700417285 -23.890247054214164 a62.89490565745661,62.89490565745661 0 0,0 0.6250177661588979,-0.8840433054387433 l 33.999352314454505 24.479116859984693" fill="#32ff4c" stroke="none" /><path d="M 83.17141714833178 87.43820079747576 l -21.546183749747424 -16.083281416544676 a47.8869852401055,47.8869852401055 0 0,0 0.4987636105782883,-0.6563144471077589 l 21.266144198945028 16.45178063953346" fill="#b7ff1f" stroke="none" /><path d="M 83.39014120810768 87.1503855733568 l -19.615239898705422 -15.174618444529072 a45.7997314747722,45.7997314747722 0 0,0 0.48775824067736534,-0.6194034330353955 l 19.351127577434088 15.510014271517516" fill="#cfff1d" stroke="none" /><path d="M 83.84228863543731 86.58626213691792 l -17.713566452925406 -14.70537080770887 a44.02212777035217,44.02212777035217 0 0,0 0.4890426276446138,-0.5788722191460149 l 17.45781321179367 15.008101976484001" fill="#e4ff1a" stroke="none" /><path d="M 84.31358615837235 86.03803664274999 l -29.790260002809664 -26.51533503842721 a60.88135633645184,60.88135633645184 0 0,0 0.7034880134743183,-0.7768090351238678 l 29.3294283487193 27.024196860820634" fill="#30ff33" stroke="none" /><path d="M 84.80347519578584 85.50635884689758 l -15.230298700779905 -14.52585290832096 a42.046671975140264,42.046671975140264 0 0,0 0.504030948975971,-0.5194481984909802 l 14.978003488100816 14.785865302362064" fill="#fdff18" stroke="none" /><path d="M 85.05521093208273 85.24692304244772 l -15.278919346654618 -15.082921005110157 a42.469510531168844,42.469510531168844 0 0,0 0.5180556277382253,-0.5158309322351811 l 15.01702791874908 15.343687787995446" fill="#f7ff18" stroke="none" /><path d="M 85.57189188830299 84.74124197986013 l -7.189779648407343 -7.603707085077442 a31.464668787319994,31.464668787319994 0 0,0 0.39674267780420946,-0.36872908043998254 l 7.057829086808277 7.726340751592072" fill="#ff770b" stroke="none" /><path d="M 86.10567301691215 84.25364557470407 l -29.68244916839729 -33.63893518450526 a65.86229763377969,65.86229763377969 0 0,0 0.8565429485312938,-0.7427856044519604 l 29.099012421219225 34.144885782376896" fill="#36ff6f" stroke="none" /><path d="M 86.65592168130627 83.78471172551755 l -12.701482260326204 -15.434426525801134 a40.98872616726076,40.98872616726076 0 0,0 0.5486567439422537,-0.4436422637489714 l 12.43392211781945 15.65077488681424" fill="#fff417" stroke="none" /><path d="M 87.22198572758235 83.33499621200491 l -14.068852093622931 -18.34850614770901 a44.12142463354613,44.12142463354613 0 0,0 0.6066776697426555,-0.45693704310304867 l 13.750928270121886 18.587959780317913" fill="#e3ff1b" stroke="none" /><path d="M 87.51073957382395 83.11751280151077 l -8.770023146059842 -11.854969665256828 a35.74630841080523,35.74630841080523 0 0,0 0.497817872276295,-0.3616858554098703 l 8.564659957429765 12.004174755483367" fill="#ffb110" stroke="none" /><path d="M 88.09926311788651 82.69761687909137 l -35.70221064634046 -51.907149362725875 a84.0,84.0 0 0,0 1.198381222373842,-0.8091523508053382 l 34.80342472956008 52.51401362582988" fill="#4dd2ff" stroke="none" /><path d="M 89.00827224532344 82.1063720568725 l -13.41432151645923 -21.837411158849655 a46.62843241143696,46.62843241143696 0 0,0 0.6875205460660637,-0.41422343628491315 l 13.036438904175517 22.065081204593188" fill="#c5ff1e" stroke="none" /><line stroke="#e1ed5e" stroke-width="0.3" x1="56.762969772571076" x2="54.21961505331055" y1="26.818313649435495" y2="22.513508569990535" /><path d="M 56.25429882871897 25.957352633546506 a86.0,86.0 0 0,1 42.265352541879196,-11.944610805530505" fill="none" id="id84" stroke="none" /><text fill="#e1ed5e" style="font-size:6.75px; font-family:Arial;" text-anchor="middle"><textPath startOffset="22.20632615414155" xlink:href="#id84">December</textPath></text><path d="M 89.3179101791058 81.91981866633112 l -12.8365208284078 -21.72670593136824 a46.23541197615563,46.23541197615563 0 0,0 0.6886946639025501,-0.3989364014970392 l 12.460629432039928 21.944446490255327" fill="#caff1d" stroke="none" /><path d="M 89.94658935756843 81.56283822128135 l -2.1448918307423117 -3.933562358861656 a25.480343044526656,25.480343044526656 0 0,0 0.3868825521859698,-0.20665926078647956 l 2.0768642320280364 3.969900346149885" fill="#ff2303" stroke="none" /><path d="M 90.26544431104013 81.39251694778311 l -9.325417131438332 -17.82541974924307 a41.11738039387903,41.11738039387903 0 0,0 0.6299564723597126,-0.3226881727847768 l 9.017200171489856 17.983300447340355" fill="#fff617" stroke="none" /><path d="M 90.91171255644093 81.06846463323043 l -6.080525122534803 -12.66615708632547 a35.05006480772419,35.05006480772419 0 0,0 0.5461497571641979,-0.25642463405731264 l 5.8615971540709975 12.76894670302279" fill="#ffa80f" stroke="none" /><path d="M 91.23893434514133 80.91482961587045 l -11.547961718880758 -25.156165434283583 a48.68010258683626,48.68010258683626 0 0,0 0.7645508718100206,-0.34303169005816647 l 11.113228728603962 25.35121745485828" fill="#aeff20" stroke="none" /><path d="M 91.90106846888425 80.62456947434976 l -6.451835709394131 -15.435010664061458 a37.72918821164686,37.72918821164686 0 0,0 0.6013603753225775,-0.24530999635387124 l 6.1851914644831725 15.543781546598906" fill="#ffcb12" stroke="none" /><path d="M 92.57280143429618 80.3572730644239 l -8.092678035596327 -21.402721823647596 a43.881607007556624,43.881607007556624 0 0,0 0.7088293652602607,-0.2610678372824433 l 7.723066344563498 21.538852928736365" fill="#e6ff1a" stroke="none" /><path d="M 93.59665428221793 80.00007090966166 l -7.562280090332713 -23.61969386533738 a45.800766489302276,45.800766489302276 0 0,0 0.7529092634841633,-0.23393257313902477 l 7.1545854541378215 23.746366573358927" fill="#cfff1d" stroke="none" /><path d="M 93.94186890950719 79.89281104454417 l -7.225392740595729 -23.981378900917594 a46.046213970283596,46.046213970283596 0 0,0 0.7608803183089936,-0.22212182962651827 l 6.811522204563314 24.102199059462812" fill="#ccff1d" stroke="none" /><path d="M 97.11714578562143 79.19881850522333 l -1.4323804252517423 -10.335314580466767 a31.4340999209253,31.4340999209253 0 0,0 0.536602944964954,-0.06966646286409245 l 1.2542627517789304 10.358439366494997" fill="#ff770a" stroke="none" /><path d="M 97.47563105711357 79.15227682838746 l -2.7255074968969497 -22.50884362905056 a43.6732536843015,43.6732536843015 0 0,0 0.7470898518794277,-0.08394424970492866 l 2.337650941507804 22.55242383222609" fill="#e9ff1a" stroke="none" /><path d="M 98.19473922651362 79.07773832637324 l -2.2170913426129704 -25.695215841253642 a46.79068845824209,46.79068845824209 0 0,0 0.8030391984210022,-0.062331297220984315 l 1.774461954829634 25.729572400663088" fill="#c4ff1e" stroke="none" /><path d="M 98.91598698831166 79.02799685794201 l -1.1874605710459403 -22.973365225809086 a44.00403382900927,44.00403382900927 0 0,0 0.756783820437953,-0.03258870324511618 l 0.7918359182186633 22.990401655578395" fill="#e5ff1a" stroke="none" /><path d="M 99.63851952072746 79.00311137660856 l -0.5436535040782142 -31.578557430871115 a52.583236828218254,52.583236828218254 0 0,0 0.9051339833507422,-0.007790773955696644 l 7.735661977678058e-15 31.583236828218254" fill="#82ff25" stroke="none" /></svg>