<?xml version="1.0" encoding="utf-8" ?>
<svg baseProfile="full" height="200mm" version="1.1" viewBox="0,0,200,200" width="200mm" xmlns="http://www.w3.org/2000/svg" xmlns:ev="http://www.w3.org/2001/xml-events" xmlns:xlink="http://www.w3.org/1999/xlink"><defs /><rect fill="#1a1a1a" height="200" width="200" x="0" y="0" /><text alignment-baseline="middle" fill="#e1ed5e" style="dominant-baseline: central; font-size:9.0px; font-family:Arial;" text-anchor="middle" x="100.0" y="100.0">2025</text><line stroke="#e1ed5e" stroke-width="0.3" x1="100.0" x2="100.0" y1="15.0" y2="10.0" /><path d="M 100.0 14.0 a86.0,86.0 0 0,1 42.46469731375804,11.215312516191453" fill="none" id="id109" stroke="none" /><text fill="#e1ed5e" style="font-size:6.75px; font-family:Arial;" text-anchor="middle"><textPath startOffset="22.20632615414155" xlink:href="#id109">January</textPath></text><path d="M 101.44485096284872 79.0497635885617 l 2.0310067991509992 -29.449454434773575 a50.519406415509145,50.519406415509145 0 0,0 0.8670328428447894,0.06729843566039388 l -2.53762983135813 29.410130736924714" fill="#99ff23" stroke="none" /><path d="M 102.88285421437855 79.19881850522331 l 2.652444820888007 -19.13866675913939 a40.3215948835815,40.3215948835815 0 0,0 0.6866787185218071,0.10119859322817132 l -2.98149251983847 19.09017368175025" fill="#ffec16" stroke="none" /><path d="M 103.95276090670814 79.375362276772 l 5.17571914027054 -27.005765019609175 a48.497261916658346,48.497261916658346 0 0,0 0.8185266034349743,0.1641887363505654 l -5.639812153172639 26.912672327181404" fill="#b0ff20" stroke="none" /><path d="M 105.36241919743992 79.69619591428918 l 7.841446247624457 -29.690179469074018 a51.70822424302988,51.70822424302988 0 0,0 0.8586079494303908,0.23468998668251823 l -8.351352086278558 29.550802941565205" fill="#8cff24" stroke="none" /><path d="M 106.74666289553966 80.11325718540242 l 5.617185095110196 -16.55744729772986 a38.484330968322176,38.484330968322176 0 0,0 0.6254949867177819,0.21822291894981902 l -5.901362085891251 16.458303525607832" fill="#ffd513" stroke="none" /><path d="M 107.08798089147638 80.2323363322302 l 14.343475271594126 -40.002505556527645 a63.49630258818827,63.49630258818827 0 0,0 1.0256699088574266,0.3777628834166214 l -15.02992750622413 39.7496794053047" fill="#33ff53" stroke="none" /><path d="M 108.09893153111575 80.62456947434976 l 10.823610545071409 -25.893800107708213 a49.06491455980814,49.06491455980814 0 0,0 0.7764318109930805,0.33242758114451615 l -11.267726113854804 25.703652998600905" fill="#a9ff21" stroke="none" /><line stroke="#e1ed5e" stroke-width="0.3" x1="143.23703022742887" x2="145.7803849466894" y1="26.81831364943548" y2="22.513508569990506" /><path d="M 143.74570117128098 25.957352633546492 a86.0,86.0 0 0,1 28.547481713284135,27.462654790039103" fill="none" id="id110" stroke="none" /><text fill="#e1ed5e" style="font-size:6.75px; font-family:Arial;" text-anchor="middle"><textPath startOffset="19.985693538727396" xlink:href="#id110">February</textPath></text><path d="M 110.99172775467656 82.1063720568725 l 2.7276663868480355 -4.440416335681873 a26.21128210252823,26.21128210252823 0 0,0 0.38241118228487264,0.23946584726431797 l -2.803696721505171 4.392806147094611" fill="#ff2d04" stroke="none" /><path d="M 112.77801427241765 83.33499621200491 l 12.92460326397091 -16.856184205189237 a42.24091136204656,42.24091136204656 0 0,0 0.5732040275513999,0.4473948355154958 l -13.21283984668174 16.63121098045052" fill="#faff18" stroke="none" /><path d="M 114.68862486808459 84.99185889309783 l 3.013905610236644 -3.0794659872891232 a25.308913760367744,25.308913760367744 0 0,0 0.3087256020028021,0.3073998361551288 l -3.0664670124067688 3.027130300483876" fill="#ff2003" stroke="none" /><path d="M 116.60985879189232 87.15038557335679 l 3.3307688255911194 -2.5767284171025224 a25.211122214449887,25.211122214449887 0 0,0 0.2625847143928818,0.34553070430678795 l -3.3746294802081147 2.5190129369147005" fill="#ff1f03" stroke="none" /><line stroke="#e1ed5e" stroke-width="0.3" x1="172.23445277983987" x2="176.4835382374775" y1="55.19839476539836" y2="52.563006222186495" /><path d="M 173.08426987136738 54.67131705675599 a86.0,86.0 0 0,1 12.851231095245387,41.99856678651699" fill="none" id="id111" stroke="none" /><text fill="#e1ed5e" style="font-size:6.75px; font-family:Arial;" text-anchor="middle"><textPath startOffset="22.20632615414155" xlink:href="#id111">March</textPath></text><path d="M 118.03404312379186 89.2402003453031 l 18.83527581818957 -11.237845715102438 a42.93300689517338,42.93300689517338 0 0,0 0.3731907168863158,0.6379039067069648 l -19.02592620954621 10.911962396041579" fill="#f1ff19" stroke="none" /><path d="M 118.73160827565052 90.50648371742162 l 21.285186771667558 -10.78771583416163 a44.86281602877986,44.86281602877986 0 0,0 0.3431791517017539,0.6918282287550466 l -21.46772593632272 10.419728016907634" fill="#daff1c" stroke="none" /><path d="M 119.7369772167798 92.82701384747503 l 16.438079635807895 -5.974071728750285 a38.489997002098534,38.489997002098534 0 0,0 0.22094526467822118,0.624642016054651 l -16.538477981295927 5.690232086269019" fill="#ffd513" stroke="none" /><path d="M 120.37134235888165 94.90015583598534 l 21.926217075951076 -5.489097783728286 a43.60285799940041,43.60285799940041 0 0,0 0.17600438920163342,0.7296518210879575 l -22.01745426541353 5.110860730980922" fill="#e9ff1a" stroke="none" /><path d="M 120.73433829027371 96.67025291283417 l 12.628117475540243 -2.0279613842459865 a33.78991705805936,33.78991705805936 0 0,0 0.08728113626545668,0.5750736356546828 l -12.661154505245 1.8102886361992214" fill="#ff970e" stroke="none" /><path d="M 120.87857604477298 97.74499172005257 l 20.793868321437543 -2.245859350581399 a41.91479964025182,41.91479964025182 0 0,0 0.07130081521920394,0.7179894788675966 l -20.829446262338976 1.8875943410093674" fill="#feff18" stroke="none" /><path d="M 120.96714384426684 98.82574320788733 l 44.8988536748686 -2.5145429571802906 a65.96921155191367,65.96921155191367 0 0,0 0.053737865587351684,1.1343214093444633 l -44.935485148689445 1.7413104412128277" fill="#36ff70" stroke="none" /><line stroke="#e1ed5e" stroke-width="0.3" x1="184.98032266829074" x2="189.97916517819016" y1="98.17113171792111" y2="98.06355123074" /><path d="M 185.9800911702706 98.14961562048488 a86.0,86.0 0 0,1 -9.607161424134198,41.387399972396054" fill="none" id="id112" stroke="none" /><text fill="#e1ed5e" style="font-size:6.75px; font-family:Arial;" text-anchor="middle"><textPath startOffset="21.466115282336823" xlink:href="#id112">April</textPath></text><path d="M 120.99513854157772 99.54816195383933 l 21.46132419001766 -0.4618708645734685 a42.466293594483865,42.466293594483865 0 0,0 0.009437613806783708,0.730953589950721 l -21.46609481094216 0.09238101656228478" fill="#f7ff18" stroke="none" /><path d="M 120.9904718944345 100.63252640178507 l 23.520152028809242 0.7087557253138798 a44.53082842010593,44.53082842010593 0 0,0 -0.02968269620240514,0.765978496888457 l -23.504467199755634 -1.1135114692163428" fill="#deff1b" stroke="none" /><path d="M 120.92983693683757 101.71520430193887 l 27.36272386265264 2.2423806656316247 a48.45445188368143,48.45445188368143 0 0,0 -0.07527838356562543,0.830690689800147 l -27.32007088280994 -2.713052743980342" fill="#b0ff20" stroke="none" /><path d="M 120.8583938346157 102.4346265915055 l 20.833589708840556 2.431731412486931 a41.97502748076347,41.97502748076347 0 0,0 -0.08994347075983004,0.7169379581261216 l -20.78864472883388 -2.7899871249004473" fill="#fdff18" stroke="none" /><path d="M 120.70491114924044 103.5080841355445 l 20.835467748972334 3.5302046620712164 a42.13241730788448,42.13241730788448 0 0,0 -0.12730722719215293,0.7140065383885382 l -20.77161407944099 -3.888329951192973" fill="#fbff18" stroke="none" /><path d="M 120.49622156327973 104.57218783832717 l 20.465498736913272 4.5653343540087 a41.9685220345758,41.9685220345758 0 0,0 -0.1633563447541595,0.7037348577681674 l -20.38388182622856 -4.916937869125432" fill="#fdff18" stroke="none" /><path d="M 120.41448212921028 104.9243191809786 l 10.90962001904575 2.631585301892413 a32.22252423303688,32.22252423303688 0 0,0 -0.13470347869113616,0.5380734377556576 l -10.862705226059553 -2.818986579045467" fill="#ff820c" stroke="none" /><path d="M 120.23288151984713 105.62410040840565 l 15.223893743563599 4.231760411225268 a36.801099230538625,36.801099230538625 0 0,0 -0.17490574637585982,0.608869848612606 l -15.14879536030164 -4.493187735342455" fill="#ffbf11" stroke="none" /><path d="M 120.02730092923936 106.31721596034902 l 42.68935170092337 13.465511646070226 a65.76271609873089,65.76271609873089 0 0,0 -0.3498192848784211,1.0766330540567446 l -42.4512401650287 -14.198343600104767" fill="#36ff6e" stroke="none" /><path d="M 119.79798401119884 107.00284435728193 l 12.597350194154837 4.455872005651735 a34.36218646947137,34.36218646947137 0 0,0 -0.20204268418067506,0.5559346929851909 l -12.518783248968933 -4.672054495643057" fill="#ff9f0e" stroke="none" /><path d="M 119.54520255179757 107.68017299344265 l 19.623133358414613 7.710795447968318 a42.08373138802838,42.08373138802838 0 0,0 -0.2707334329912739,0.6719381779971022 l -19.487497311165946 -8.047432993808233" fill="#fcff18" stroke="none" /><path d="M 119.26925614724726 108.34839909993367 l 23.165855201865995 10.036599401585093 a46.24658738882782,46.24658738882782 0 0,0 -0.32275474678985716,0.7277267492464021 l -22.989659370344864 -10.433874487324182" fill="#caff1d" stroke="none" /><path d="M 119.12269723197855 108.67885076344098 l 19.28971269496195 8.754650859046535 a42.18341161187169,42.18341161187169 0 0,0 -0.3057802855057274,0.6586235314880898 l -19.136157792616387 -9.085394457813456" fill="#fbff18" stroke="none" /><path d="M 118.81262510543309 109.33194174019688 l 20.169758518405224 10.005143373278534 a43.51492954931548,43.51492954931548 0 0,0 -0.33863179386218684,0.6681526552967024 l -19.99454805475677 -10.350850240277932" fill="#eaff1a" stroke="none" /><line stroke="#e1ed5e" stroke-width="0.3" x1="174.80103733775053" x2="179.2010983576182" y1="140.37084112569926" y2="142.7455964860345" /><path d="M 175.68104954172406 140.8457921977663 a86.0,86.0 0 0,1 -30.038265399797805,32.042727171017184" fill="none" id="id113" stroke="none" /><text fill="#e1ed5e" style="font-size:6.75px; font-family:Arial;" text-anchor="middle"><textPath startOffset="22.206326154141568" xlink:href="#id113">May</textPath></text><path d="M 118.48025628344425 109.97397251340804 l 10.691844886442373 5.7704917821152435 a33.14965524133107,33.14965524133107 0 0,0 -0.2753372329827405,0.4998170549692448 l -10.590931244008123 -5.9536793554822935" fill="#ff8f0d" stroke="none" /><path d="M 118.30583269289576 110.29060199501025 l 28.902434775451702 16.247469205612408 a54.15616068751874,54.15616068751874 0 0,0 -0.463803685509582,0.8086808198149515 l -28.61847909378974 -16.742569871285674" fill="#71ff27" stroke="none" /><path d="M 116.71984013943494 112.70617746262583 l 2.677145983353312 2.034486674164621 a24.36247626661337,24.36247626661337 0 0,0 -0.2566101745648324,0.33170324202468426 l -2.6417289915704107 -2.080267910302558" fill="#ff1302" stroke="none" /><path d="M 114.81725581225074 114.88116024355365 l 14.818440363529819 14.882349903611091 a42.00167882482262,42.00167882482262 0 0,0 -0.516720748794739,0.5057200079969327 l -14.560069662359286 -15.135220014530596" fill="#fdff18" stroke="none" /><path d="M 112.92097659922987 116.55440617244103 l 1.2998448228684638 1.665366312960566 a23.11259118616968,23.11259118616968 0 0,0 -0.31573040101840794,0.24208860806594173 l -1.2709856933565622 -1.6874942628538794" fill="#ff0000" stroke="none" /><path d="M 112.04921762599082 117.19931262002967 l 8.441074772184077 12.048971838858403 a35.71154192065554,35.71154192065554 0 0,0 -0.506496995265169,0.348373251829564 l -8.232420892296025 -12.192485880053061" fill="#ffb110" stroke="none" /><path d="M 111.45004920935366 117.60387380957326 l 5.161046463846374 7.9348489262977075 a30.465634056160688,30.465634056160688 0 0,0 -0.4420682432900452,0.28214886860272537 l -5.023696418509399 -8.022512223724242" fill="#ff6a09" stroke="none" /><line stroke="#e1ed5e" stroke-width="0.3" x1="143.8653032363475" x2="146.44561519142675" y1="172.8068346515853" y2="177.08958963109032" /><path d="M 144.38136562736335 173.6633856474863 a86.0,86.0 0 0,1 -40.68145358897372,12.25698825130547" fill="none" id="id114" stroke="none" /><text fill="#e1ed5e" style="font-size:6.75px; font-family:Arial;" text-anchor="middle"><textPath startOffset="21.466115282336833" xlink:href="#id114">June</textPath></text><path d="M 109.57404056367764 118.69057910512821 l 7.0028170186707746 13.670999676225234 a36.36019786149695,36.36019786149695 0 0,0 -0.5595074216583041,0.2805486364030156 l -6.766455689329709 -13.789516153537551" fill="#ffb911" stroke="none" /><path d="M 106.57524785965236 119.94407469862006 l 3.9778705448521463 12.065696834760256 a33.70450684520836,33.70450684520836 0 0,0 -0.5525591562400727,0.17691199258503576 l -3.7695900435211334 -12.132381674004998" fill="#ff960d" stroke="none" /><path d="M 106.2309692047433 120.05430185196036 l 2.7398331862407814 8.818121216048363 a30.233956230638555,30.233956230638555 0 0,0 -0.498320422528679,0.15013985552313286 l -2.5876377892718563 -8.863976440677222" fill="#ff6709" stroke="none" /><path d="M 105.88484417918355 120.15858648285463 l 3.6418170313628364 12.475076883283919 a33.99578295193365,33.99578295193365 0 0,0 -0.5631463478504055,0.1591507830193524 l -3.4265395154078253 -12.53591645964179" fill="#ff9a0e" stroke="none" /><path d="M 102.70371172650421 120.8252237178851 l 1.1690236732525636 9.004354749929568 a30.079924053162785,30.079924053162785 0 0,0 -0.5140409456846332,0.06224319979579943 l -1.0138553045165501 -9.023143478450718" fill="#ff6409" stroke="none" /><line stroke="#e1ed5e" stroke-width="0.3" x1="102.19456741930631" x2="102.32365962044197" y1="184.97166512339345" y2="189.96999836594603" /><path d="M 102.22038585953345 185.97133177190398 a86.0,86.0 0 0,1 -42.740103519485714,-10.115201625700543" fill="none" id="id115" stroke="none" /><text fill="#e1ed5e" style="font-size:6.75px; font-family:Arial;" text-anchor="middle"><textPath startOffset="22.20632615414155" xlink:href="#id115">July</textPath></text><path d="M 99.81925306533755 120.99922214144158 l -0.09217244751433393 10.708617019085693 a31.70901369041671,31.70901369041671 0 0,0 -0.5457578924505645,-0.009395717054478827 l 0.2764900298575663 -10.705443824752056" fill="#ff7b0b" stroke="none" /><path d="M 98.01472825383883 120.90594882070398 l -1.609028329893097 16.943909054693677 a38.02013590486659,38.02013590486659 0 0,0 -0.6509905497150158,-0.06747783221772308 l 1.900451476213706 -16.913701854020193" fill="#ffcf13" stroke="none" /><path d="M 97.2962882734958 120.8252237178851 l -2.45803519278677 18.93291074429931 a40.09180573598481,40.09180573598481 0 0,0 -0.6836061600832367,-0.0947415847540153 l 2.7835699440568376 -18.88779459405269" fill="#ffe915" stroke="none" /><path d="M 96.22490169976321 120.6578951692458 l -1.9318000775309871 10.571095191633251 a31.74615768961727,31.74615768961727 0 0,0 -0.5367101948918069,-0.10286178623204197 l 2.113477886994489 -10.536276207052742" fill="#ff7b0b" stroke="none" /><path d="M 95.51606077576429 120.51570834832081 l -6.114055232806667 27.974102169764915 a49.63445588088338,49.63445588088338 0 0,0 -0.8331021711362059,-0.18961134180279335 l 6.594677553335735 -27.864714094384436" fill="#a3ff22" stroke="none" /><path d="M 94.46302465271185 120.25689768951611 l -6.741863677082764 24.664954090904175 a46.569761167182975,46.569761167182975 0 0,0 -0.7714365913750025,-0.21801568639441085 l 7.16543143656238 -24.545249611171243" fill="#c6ff1e" stroke="none" /><path d="M 94.11515582081647 120.15858648285463 l -6.6158186285415 22.66254601100376 a44.60847406815229,44.60847406815229 0 0,0 -0.735243296524802,-0.22152277395019399 l 7.004936899506547 -22.54530786794784" fill="#ddff1b" stroke="none" /><path d="M 93.08242187328487 119.8279376855182 l -10.436715403369602 29.914883340503298 a52.68320175876886,52.68320175876886 0 0,0 -0.8536696686622203,-0.30609557107025753 l 10.95010463266155 -29.730800228393083" fill="#81ff25" stroke="none" /><path d="M 92.40401165467489 119.57807347666478 l -8.431721648832957 21.73211153980138 a44.31048266213651,44.31048266213651 0 0,0 -0.7087122493630625,-0.28201123017546764 l 8.804554974237877 -21.583753465219846" fill="#e1ff1b" stroke="none" /><path d="M 92.06813273071674 119.44442032107085 l -11.890667216963404 29.14914274473312 a52.48111322074548,52.48111322074548 0 0,0 -0.8335213855458893,-0.34841200675876893 l 12.390660062006756 -28.940145694954378" fill="#83ff25" stroke="none" /><path d="M 91.40352486487194 119.15986991738527 l -11.850713878696764 26.412934694145434 a49.94965524133107,49.94965524133107 0 0,0 -0.781431445102901,-0.35871684965467127 l 12.303613319567084 -26.20503077415669" fill="#9fff22" stroke="none" /><path d="M 91.07499286063937 119.00905698771935 l -9.100974353170548 19.383843331646293 a42.41404017187968,42.41404017187968 0 0,0 -0.6581999233783058,-0.3159759619650639 l 9.433286944549096 -19.224313093181667" fill="#f8ff18" stroke="none" /><path d="M 90.42595943632237 118.69057910512821 l -9.574040563677631 18.69057910512821 a42.0,42.0 0 0,0 -0.6406181949470088,-0.33514116211056644 l 9.894349661151134 -18.523008524072928" fill="#fdff18" stroke="none" /><path d="M 90.10565033884886 118.52300852407294 l -9.893163169735784 18.52078731789436 a41.99748176276606,41.99748176276606 0 0,0 -0.6347163176411781,-0.3460979438854959 l 10.210502299245602 -18.347748722249097" fill="#fdff18" stroke="none" /><line stroke="#e1ed5e" stroke-width="0.3" x1="58.666819895761336" x2="56.23545636021788" y1="174.27360380694188" y2="178.64263932499728" /><path d="M 58.180547188652646 175.14741091055294 a86.0,86.0 0 0,1 -31.652253787137756,-30.449443065178592" fill="none" id="id116" stroke="none" /><text fill="#e1ed5e" style="font-size:6.75px; font-family:Arial;" text-anchor="middle"><textPath startOffset="22.20632615414155" xlink:href="#id116">August</textPath></text><path d="M 88.8546689885994 117.79835938074946 l -18.982257329150197 30.31341442048599 a56.76631358049365,56.76631358049365 0 0,0 -0.8237013704136801,-0.5257251866794928 l 19.501240501610802 -29.982174804982694" fill="#55ff2b" stroke="none" /><path d="M 88.54995079064634 117.60387380957326 l -13.736740859687773 21.11954701916976 a46.19391426001799,46.19391426001799 0 0,0 -0.6628283395609664,-0.4392864805363599 l 14.0982438979887 -20.879962517542083" fill="#caff1d" stroke="none" /><path d="M 87.95078237400918 117.19931262002967 l -12.95047068815272 18.485780642023506 a43.57075047466773,43.57075047466773 0 0,0 -0.6105562461814216,-0.43561567037667603 l 13.266754262183028 -18.26012070980261" fill="#eaff1a" stroke="none" /><path d="M 87.36589467227662 116.77436683061367 l -25.258110441334438 33.53532355483731 a62.98321175177376,62.98321175177376 0 0,0 -0.8603844780378718,-0.6597061290831658 l 25.831623647865797 -33.09557808392678" fill="#32ff4d" stroke="none" /><path d="M 87.07902340077011 116.55440617244103 l -10.480491152022488 13.427646593493217 a38.03356650344759,38.03356650344759 0 0,0 -0.5126245725731862,-0.4072599636217061 l 10.710073217313033 -13.24525271586638" fill="#ffcf13" stroke="none" /><path d="M 86.51685102203217 116.09983520530335 l -13.47573843341114 16.090986490041107 a41.988458079344454,41.988458079344454 0 0,0 -0.5501178287106988,-0.4688223481786824 l 13.750721738698894 -15.856639751639474" fill="#fdff18" stroke="none" /><path d="M 85.97065885151581 115.62618273729859 l -18.516851699316913 20.624468769457973 a48.7171879684221,48.7171879684221 0 0,0 -0.6191733055942756,-0.5656001342029876 l 18.869124554378043 -20.302675868668413" fill="#adff20" stroke="none" /><path d="M 85.70375840098266 115.38237550388516 l -17.492073762203287 18.821005862852992 a46.69441391026282,46.69441391026282 0 0,0 -0.5840452032547149,-0.5522511939408709 l 17.813454799848817 -18.517120032166194" fill="#c4ff1e" stroke="none" /><path d="M 85.18274418774928 114.88116024355367 l -29.654648996245886 29.782544708083865 a63.028540021984604,63.028540021984604 0 0,0 -0.7622232679831198,-0.7721281462464603 l 30.162912889284538 -29.26767606785674" fill="#32ff4e" stroke="none" /><path d="M 84.67929136418377 114.36230785411682 l -16.479521903174014 15.448630509735993 a43.588378135305284,43.588378135305284 0 0,0 -0.5084347520896885,-0.5518055063102589 l 16.74300306325943 -15.162673748624389" fill="#e9ff1a" stroke="none" /><path d="M 84.43433777217949 114.09645910891817 l -17.808660622196157 16.12774661117259 a45.02608174278005,45.02608174278005 0 0,0 -0.5153152515184624,-0.5789621479004715 l 18.08363472336296 -15.818810293531254" fill="#d8ff1c" stroke="none" /><path d="M 83.95833913139862 113.55231037782056 l -20.849510301709145 17.61407607035174 a48.29391426001799,48.29391426001799 0 0,0 -0.531012284925559,-0.6396385048255814 l 21.14961858652824 -17.252576308412397" fill="#b2ff20" stroke="none" /><path d="M 83.50135304334701 112.99209946851258 l -35.37588869339625 27.857257986013188 a66.02755071449985,66.02755071449985 0 0,0 -0.6954687663731248,-0.8989871306704159 l 35.85016427698744 -27.24419286122952" fill="#36ff71" stroke="none" /><path d="M 83.06392112726016 112.41649034213515 l -18.80502180260559 13.7866842348922 a44.31740781452983,44.31740781452983 0 0,0 -0.44574914666475557,-0.6191065783952462 l 19.039550741645957 -13.460944051045816" fill="#e1ff1b" stroke="none" /><path d="M 82.6465618267979 111.8261652097733 l -24.445682746077274 16.659446960041187 a50.58257219946037,50.58257219946037 0 0,0 -0.484139996782336,-0.7237236062122249 l 24.72882584827034 -16.236186439623143" fill="#98ff23" stroke="none" /><path d="M 82.44556493220864 111.52570212397912 l -18.194022059468868 11.94563527021703 a42.765124412910964,42.765124412910964 0 0,0 -0.3987239703392163,-0.6188284564645522 l 18.396950893185128 -11.630685213831029" fill="#f4ff19" stroke="none" /><path d="M 82.05923443525364 110.91462005526583 l -45.48352495498174 27.67080322555042 a74.23931248126311,74.23931248126311 0 0,0 -0.6547876403116608,-1.0974617484770484 l 45.95309347099163 -26.883779383187257" fill="#41ffcc" stroke="none" /><line stroke="#e1ed5e" stroke-width="0.3" x1="26.63291911575756" x2="22.317208475507996" y1="142.92168965132927" y2="145.44649492493687" /><path d="M 25.769776987707644 143.4266507060508 a86.0,86.0 0 0,1 -11.730757126820373,-40.83630448921669" fill="none" id="id117" stroke="none" /><text fill="#e1ed5e" style="font-size:6.75px; font-family:Arial;" text-anchor="middle"><textPath startOffset="21.46611528233685" xlink:href="#id117">September</textPath></text><path d="M 81.69416730710424 110.29060199501025 l -24.054416607897746 13.522161580232563 a48.59463375637054,48.59463375637054 0 0,0 -0.40362145243688985,-0.732690175948918 l 24.28361446978615 -13.106100885885821" fill="#afff20" stroke="none" /><path d="M 81.35079622478065 109.6543875284942 l -15.451425344331085 7.998949978764688 a38.399130608574,38.399130608574 0 0,0 -0.29882080967162117,-0.5896018066196762 l 15.586824823788973 -7.731793960442326" fill="#ffd413" stroke="none" /><path d="M 81.18737489456691 109.33194174019688 l -19.70108784399886 9.77266080349428 a42.991765763965226,42.991765763965226 0 0,0 -0.32314810562974905,-0.6657808109045266 l 19.866389206243326 -9.432091036624467" fill="#f1ff19" stroke="none" /><path d="M 80.32549172779594 107.34259656027581 l -39.32896258374293 14.677708911006821 a62.97859498351154,62.97859498351154 0 0,0 -0.37030135983055973,-1.0189103041479783 l 39.575788204578714 -13.998550809852727" fill="#32ff4d" stroke="none" /><path d="M 79.97269907076064 106.31721596034903 l -22.931629809874128 7.233329061344183 a45.045388228240235,45.045388228240235 0 0,0 -0.2268855284102539,-0.7414750343535309 l 23.05274211079051 -6.837527054438604" fill="#d8ff1c" stroke="none" /><path d="M 79.67330655649465 105.27499134158121 l -24.383094643333486 6.3276702372679985 a46.19076646347557,46.19076646347557 0 0,0 -0.19309650854916227,-0.7713245655065463 l 24.488402466177707 -5.90701783236406" fill="#caff1d" stroke="none" /><path d="M 79.35854240842038 103.8639653848113 l -61.92437277473888 11.591896154433886 a84.0,84.0 0 0,0 -0.25381423064324515,-1.4235249970671453 l 62.11473344772131 -10.524252406633527" fill="#4dd2ff" stroke="none" /><path d="M 79.23777060512086 103.15116336523772 l -20.753515358358857 3.1498408024182964 a41.99118616968122,41.99118616968122 0 0,0 -0.10231042330049536,-0.7155588622730669 l 20.804659832675952 -2.792136468164829" fill="#fdff18" stroke="none" /><path d="M 79.18660465613746 102.79330883721812 l -27.377508035501418 3.6742604401221306 a48.62296392525232,48.62296392525232 0 0,0 -0.10418857107530018,-0.8304854235196105 l 27.436698115823564 -3.2024572623151113" fill="#aeff20" stroke="none" /><path d="M 79.10278846688536 102.07522291339032 l -32.40769719020748 3.218285639342889 a53.567103027880485,53.567103027880485 0 0,0 -0.0832213505977191,-0.9183406691225442 l 32.45829313708227 -2.6599635816717786" fill="#77ff27" stroke="none" /><path d="M 79.0095281055655 100.63252640178507 l -2.285312194362586 0.0688655455925692 a23.286349555311283,23.286349555311283 0 0,0 -0.00862475081601027,-0.4007582801124049 l 2.2861590078636036 -0.029517449690035495" fill="#ff0300" stroke="none" /><line stroke="#e1ed5e" stroke-width="0.3" x1="15.007084014347285" x2="10.007500721073583" y1="101.09737516637583" y2="101.16192664675087" /><path d="M 14.007167355692545 101.11028546245083 a86.0,86.0 0 0,1 10.666146001902534,-42.60595125391555" fill="none" id="id118" stroke="none" /><text fill="#e1ed5e" style="font-size:6.75px; font-family:Arial;" text-anchor="middle"><textPath startOffset="22.20632615414155" xlink:href="#id118">October</textPath></text><path d="M 79.00175016825051 100.2711162175752 l -21.112190569819244 0.272587348844749 a42.11395023483561,42.11395023483561 0 0,0 -0.003119846977622332,-0.7249425640616749 l 21.11375471408637 0.09086469342060129" fill="#fcff18" stroke="none" /><path d="M 79.00019446554 99.90962569577889 l -23.093070850800938 -0.09938283509556488 a44.0932847007095,44.0932847007095 0 0,0 0.009799192659750143,-0.7589582705868285 l 23.08793865102347 0.49687736374286534" fill="#e3ff1b" stroke="none" /><path d="M 79.03285615573316 98.82574320788736 l -10.007531642187644 -0.5604679440559233 a31.023213750374737,31.023213750374737 0 0,0 0.03444966713345245,-0.5329211027709054 l 9.99640138404978 0.7326481110798405" fill="#ff720a" stroke="none" /><path d="M 79.21141760316559 97.0276538004421 l -28.057834672541716 -4.011702032624058 a49.34317977415809,49.34317977415809 0 0,0 0.12745603341490946,-0.8397760118419367 l 27.984622745687503 4.494077156858087" fill="#a6ff21" stroke="none" /><path d="M 79.32604984820605 96.31383870115002 l -2.671685054092127 -0.4763609265187166 a23.71382032577196,23.71382032577196 0 0,0 0.07510988534763482,-0.4012400108981149 l 2.6630894448346307 0.5222790148794042" fill="#ff0901" stroke="none" /><path d="M 79.3925641242962 95.95851677861259 l -39.17204409189944 -7.682331751497084 a60.918257219946035,60.918257219946035 0 0,0 0.21066317766399745,-1.0272684697944028 l 39.034001618320445 8.35547587745489" fill="#30ff34" stroke="none" /><path d="M 79.81627453868168 94.20196356495316 l -28.6801722991122 -8.238750783266575 a50.84006195663036,50.84006195663036 0 0,0 0.2488599314103359,-0.8390319738168249 l 28.534106470590157 8.73121214382994" fill="#95ff23" stroke="none" /><path d="M 80.02781315780177 93.51064311812611 l -39.93539248715553 -12.975795595868457 a62.99055661037274,62.99055661037274 0 0,0 0.34393655656036715,-1.0283265270442807 l 39.7061186368234 13.66129522583506" fill="#32ff4d" stroke="none" /><path d="M 80.14247586403 93.16781622104843 l -21.091599709084797 -7.2567800707603025 a43.30507644648746,43.30507644648746 0 0,0 0.24858540718665448,-0.7027844209876184 l 20.96356122108833 7.618762118174532" fill="#edff1a" stroke="none" /><path d="M 80.38941819471856 92.48833698450439 l -16.51819666600552 -6.32715174953658 a38.68851803737384,38.68851803737384 0 0,0 0.2435653157171123,-0.6198471615610779 l 16.406837800406716 6.610547915993422" fill="#ffd714" stroke="none" /><path d="M 80.65960295795068 91.81776055985345 l -19.34213646019041 -8.182975326575654 a42.00188867792545,42.00188867792545 0 0,0 0.28743150510340054,-0.6634315430212525 l 19.19841424524433 8.514706014183506" fill="#fdff18" stroke="none" /><path d="M 80.803312248108 91.48605970444005 l -48.4490482855011 -21.487681094297237 a74.00028979714202,74.00028979714202 0 0,0 0.5264510399873117,-1.1599650828822763 l 48.07199492855044 22.318468186021583" fill="#40ffc9" stroke="none" /><line stroke="#e1ed5e" stroke-width="0.3" x1="26.266209847984243" x2="21.928928074336255" y1="57.711370442889674" y2="55.22380399835377" /><path d="M 25.398753493254645 57.213857153982495 a86.0,86.0 0 0,1 29.58750427330803,-30.492523968695096" fill="none" id="id119" stroke="none" /><text fill="#e1ed5e" style="font-size:6.75px; font-family:Arial;" text-anchor="middle"><textPath startOffset="21.46611528233685" xlink:href="#id119">November</textPath></text><line stroke="#e1ed5e" stroke-width="0.3" x1="56.762969772571076" x2="54.21961505331055" y1="26.818313649435495" y2="22.513508569990535" /><path d="M 56.25429882871897 25.957352633546506 a86.0,86.0 0 0,1 42.265352541879196,-11.944610805530505" fill="none" id="id120" stroke="none" /><text fill="#e1ed5e" style="font-size:6.75px; font-family:Arial;" text-anchor="middle"><textPath startOffset="22.20632615414155" xlink:href="#id120">December</textPath></text></svg>