<?xml version="1.0" encoding="utf-8" ?>
<svg baseProfile="full" height="200mm" version="1.1" viewBox="0,0,200,200" width="200mm" xmlns="http://www.w3.org/2000/svg" xmlns:ev="http://www.w3.org/2001/xml-events" xmlns:xlink="http://www.w3.org/1999/xlink"><defs /><rect fill="#1a1a1a" height="200" width="200" x="0" y="0" /><text alignment-baseline="middle" fill="#e1ed5e" style="dominant-baseline: central; font-size:9.0px; font-family:Arial;" text-anchor="middle" x="100.0" y="100.0">2017</text><line stroke="#e1ed5e" stroke-width="0.3" x1="100.0" x2="100.0" y1="15.0" y2="10.0" /><path d="M 100.0 14.0 a86.0,86.0 0 0,1 42.46469731375804,11.215312516191453" fill="none" id="id13" stroke="none" /><text fill="#e1ed5e" style="font-size:6.75px; font-family:Arial;" text-anchor="middle"><textPath startOffset="22.20632615414155" xlink:href="#id13">January</textPath></text><path d="M 100.36148047927253 79.00311137660856 l 0.45810750624083324 -26.609548336983693 a47.61349141291961,47.61349141291961 0 0,0 0.8193451239050965,0.021161267246893 l -0.9160792653407975 26.597720277594437" fill="#b4ff20" stroke="none" /><path d="M 100.72285384407766 79.0124445844662 l 0.16713926678445612 -4.852771625260378 a25.855649079313032,25.855649079313032 0 0,0 0.4446668904532496,0.019148291684568004 l -0.25064698962703724 4.849175607051616" fill="#ff3404" stroke="none" /><path d="M 101.08401301168833 79.027996857942 l 0.30376724657263776 -5.876873783695242 a26.88471919547354,26.88471919547354 0 0,0 0.46195366628652523,0.027866306691144784 l -0.40488296169877486 5.870774207623793" fill="#ff4206" stroke="none" /><path d="M 101.44485096284872 79.0497635885617 l 0.2625846262729639 -3.8074584437286147 a24.816502389187676,24.816502389187676 0 0,0 0.4259100441321971,0.03305881655889852 l -0.3280848597675022 3.802374364981252" fill="#ff2503" stroke="none" /><path d="M 101.80526077348638 79.07773832637324 l 0.45574560223149063 -5.281912112939303 a26.30153747725773,26.30153747725773 0 0,0 0.45072678366472885,0.042801939128519824 l -0.5465975129864636 5.273284629295605" fill="#ff3a05" stroke="none" /><path d="M 102.16513564639614 79.11191278185805 l 0.7908716688257458 -7.629912899123364 a28.670791930743547,28.670791930743547 0 0,0 0.49045252848894155,0.05510805616796453 l -0.9220909008244127 7.615168889484798" fill="#ff5b08" stroke="none" /><path d="M 102.52436894288641 79.15227682838746 l 3.3700984023891256 -27.832254374737705 a49.03554791370934,49.03554791370934 0 0,0 0.8370724622196482,0.10867602973663575 l -3.84868559311662 27.770120021836934" fill="#a4ff21" stroke="none" /><path d="M 103.2404852339499 79.25152402106235 l 2.212628740425399 -14.167222177113356 a35.33896475198433,35.33896475198433 0 0,0 0.6002084101105027,0.09903953045234085 l -2.4561663566747765 14.127036383721391" fill="#ffb510" stroke="none" /><path d="M 103.59715602781102 79.31037775812273 l 3.2533847937718687 -18.71236662246441 a39.99308235200032,39.99308235200032 0 0,0 0.6772254860240374,0.1237586288545245 l -3.575005400898807 18.653592512259145" fill="#fff016" stroke="none" /><path d="M 103.95276090670814 79.375362276772 l 0.8037183042010051 -4.193625480241296 a25.269948217606014,25.269948217606014 0 0,0 0.4265008799688531,0.08555206420978992 l -0.8757855936369836 4.179169459954298" fill="#ff2b04" stroke="none" /><path d="M 105.71112130821622 79.79150937346287 l 5.555831607131104 -19.65900650609626 a41.42899414199172,41.42899414199172 0 0,0 0.6845841065309505,0.1998488732286193 l -5.893405931385481 19.56045930394894" fill="#fdff18" stroke="none" /><path d="M 106.0581310904928 79.89281104454417 l 3.642727323641375 -12.090363433139414 a33.6272067497051,33.6272067497051 0 0,0 0.552790649756146,0.17175474572623634 l -3.850303346108239 12.025868552530657" fill="#ff9e0e" stroke="none" /><path d="M 106.74666289553966 80.11325718540242 l 8.994021803562648 -26.511150956509535 a48.99524161784993,48.99524161784993 0 0,0 0.7963313180685823,0.27782436049881537 l -9.449035125694504 26.35240574283851" fill="#a4ff21" stroke="none" /><path d="M 107.08798089147638 80.2323363322302 l 9.140387618214337 -25.4916189809695 a48.08079253053962,48.08079253053962 0 0,0 0.776659743677187,0.2860503380975091 l -9.577829687664101 25.330505375065666" fill="#afff20" stroke="none" /><path d="M 108.43124777332544 80.76684994638697 l 25.2937433199763 -57.69945016083909 a84.0,84.0 0 0,0 1.3192715261328791,0.591918677933875 l -26.283196964575957 57.255511152388685" fill="#4dd2ff" stroke="none" /><line stroke="#e1ed5e" stroke-width="0.3" x1="143.23703022742887" x2="145.7803849466894" y1="26.81831364943548" y2="22.513508569990506" /><path d="M 143.74570117128098 25.957352633546492 a86.0,86.0 0 0,1 28.547481713284135,27.462654790039103" fill="none" id="id14" stroke="none" /><text fill="#e1ed5e" style="font-size:6.75px; font-family:Arial;" text-anchor="middle"><textPath startOffset="19.985693538727396" xlink:href="#id14">February</textPath></text><path d="M 110.99172775467656 82.1063720568725 l 5.69485640951453 -9.270757432836954 a31.880180738548894,31.880180738548894 0 0,0 0.4651179427239075,0.2912568130637088 l -5.853593504610702 9.171356278450302" fill="#ff870c" stroke="none" /><path d="M 113.89432698308785 84.25364557470407 l 0.9267144134110616 -1.0502396857625862 a22.40064378111442,22.40064378111442 0 0,0 0.28692985942361887,0.2576084608259527 l -0.9446552604306705 1.034132216167336" fill="#ff0200" stroke="none" /><path d="M 117.65298651832404 88.62581576622439 l 5.049508729385251 -3.253502885671426 a27.00689765479737,27.00689765479737 0 0,0 0.2484279684722224,0.3929533860173821 l -5.104764294103429 3.1661018519398376" fill="#ff4406" stroke="none" /><line stroke="#e1ed5e" stroke-width="0.3" x1="172.23445277983987" x2="176.4835382374775" y1="55.19839476539836" y2="52.563006222186495" /><path d="M 173.08426987136738 54.67131705675599 a86.0,86.0 0 0,1 12.851231095245387,41.99856678651699" fill="none" id="id15" stroke="none" /><text fill="#e1ed5e" style="font-size:6.75px; font-family:Arial;" text-anchor="middle"><textPath startOffset="22.20632615414155" xlink:href="#id15">March</textPath></text><path d="M 118.21658344932153 89.55222093294921 l 7.897482766161266 -4.529452811842561 a30.104184577243736,30.104184577243736 0 0,0 0.2539393458562341,0.45172976096457884 l -7.974279753309934 4.392839540943188" fill="#ff6f0a" stroke="none" /><path d="M 119.47837535516314 92.15188598940014 l 2.345957037397338 -0.9452194014005935 a23.52922006517784,23.52922006517784 0 0,0 0.14812926946997274,0.37697283356929334 l -2.361879856749011 0.9046975629355157" fill="#ff1202" stroke="none" /><path d="M 119.85752413597 93.16781622104841 l 5.456183981459017 -1.8772557665220146 a26.77009816662335,26.77009816662335 0 0,0 0.14616818579906715,0.4370242709013587 l -5.487689461029855 1.783058392698342" fill="#ff4106" stroke="none" /><path d="M 120.37134235888165 94.90015583598534 l 1.9268812743640968 -0.48238324449593706 a22.98634464282144,22.98634464282144 0 0,0 0.09278514607674705,0.3846543322692451 l -1.9348992207016633 0.4491436805672858" fill="#ff0b01" stroke="none" /><path d="M 120.6074358757038 95.95851677861258 l 3.709313737108607 -0.727462131718236 a24.779974808565086,24.779974808565086 0 0,0 0.07848676599636333,0.4192794423527909 l -3.7212862270148297 0.6635046119028823" fill="#ff2403" stroke="none" /><path d="M 120.83666639777658 97.38593545837742 l 21.392399707943795 -2.683784078950375 a42.56008956954635,42.56008956954635 0 0,0 0.08493706333311071,0.7276888884476543 l -21.435427124280494 2.315151452177868" fill="#efff19" stroke="none" /><path d="M 120.91429891909075 98.10471618934814 l 13.738533004491392 -1.245005595752997 a34.79482975788232,34.79482975788232 0 0,0 0.04892072900068,0.5969568054709514 l -13.757928217311566 1.008334873074277" fill="#ffae10" stroke="none" /><path d="M 120.94382443527127 98.46500227214037 l 6.714401599847547 -0.4921064551298403 a27.73241098026671,27.73241098026671 0 0,0 0.030795401622975123,0.4763912327400387 l -6.7218775924749385 0.37645615813676636" fill="#ff4e07" stroke="none" /><line stroke="#e1ed5e" stroke-width="0.3" x1="184.98032266829074" x2="189.97916517819016" y1="98.17113171792111" y2="98.06355123074" /><path d="M 185.9800911702706 98.14961562048488 a86.0,86.0 0 0,1 -9.607161424134198,41.387399972396054" fill="none" id="id16" stroke="none" /><text fill="#e1ed5e" style="font-size:6.75px; font-family:Arial;" text-anchor="middle"><textPath startOffset="21.466115282336823" xlink:href="#id16">April</textPath></text><path d="M 120.99513854157772 99.54816195383933 l 12.604135093827177 -0.2712545936794762 a33.6070536017754,33.6070536017754 0 0,0 0.007468756188287511,0.5784633976409685 l -12.60693685713318 0.05425493797804492" fill="#ff9e0e" stroke="none" /><path d="M 120.92983693683757 101.71520430193887 l 13.503944014808669 1.1066508992516402 a34.54921326748905,34.54921326748905 0 0,0 -0.05367533481720264,0.5923028470143197 l -13.482894083714392 -1.3389351348145302" fill="#ffaa0f" stroke="none" /><path d="M 120.8583938346157 102.4346265915055 l 12.520791260781373 1.4614476834548533 a33.60579403002979,33.60579403002979 0 0,0 -0.07201000056726772,0.573990555792683 l -12.493779750967256 -1.6767559935349312" fill="#ff9e0e" stroke="none" /><path d="M 120.81339534386255 102.79330883721812 l 6.914772785832095 0.9280127346312931 a27.976767898914368,27.976767898914368 0 0,0 -0.06816466090648751,0.4767434796180779 l -6.897774073909006 -1.0469016862297804" fill="#ff5207" stroke="none" /><path d="M 120.49622156327973 104.57218783832717 l 41.174797497986376 9.185054317677498 a63.1868364755983,63.1868364755983 0 0,0 -0.2459455359121003,1.0595269317166238 l -41.010591396143724 -9.892449906742687" fill="#33ff53" stroke="none" /><path d="M 119.79798401119884 107.00284435728193 l 1.1946001508646673 0.42254801907904993 a22.267129176080132,22.267129176080132 0 0,0 -0.13092620144326528,0.3602526758058227 l -1.1871496884161754 -0.44304849189100376" fill="#ff0000" stroke="none" /><line stroke="#e1ed5e" stroke-width="0.3" x1="174.80103733775053" x2="179.2010983576182" y1="140.37084112569926" y2="142.7455964860345" /><path d="M 175.68104954172406 140.8457921977663 a86.0,86.0 0 0,1 -30.038265399797805,32.042727171017184" fill="none" id="id17" stroke="none" /><text fill="#e1ed5e" style="font-size:6.75px; font-family:Arial;" text-anchor="middle"><textPath startOffset="22.206326154141568" xlink:href="#id17">May</textPath></text><path d="M 118.48025628344425 109.97397251340804 l 1.1150891389614477 0.6018243606266966 a22.267129176080132,22.267129176080132 0 0,0 -0.18494822009994982,0.3357347413233982 l -1.1045645094099883 -0.6209296203478999" fill="#ff0000" stroke="none" /><path d="M 116.71984013943494 112.70617746262583 l 3.025596759142402 2.2992904855194496 a24.80012795649479,24.80012795649479 0 0,0 -0.26121996362363065,0.3376620157889995 l -2.985569978300703 -2.351030495421702" fill="#ff2503" stroke="none" /><path d="M 116.0416608686014 113.55231037782055 l 11.96653954992076 10.10956779708624 a36.66529380010796,36.66529380010796 0 0,0 -0.4114500534658822,0.47860936650383035 l -11.790746986884098 -10.314054262751599" fill="#ffc612" stroke="none" /><path d="M 115.32070863581623 114.36230785411682 l 4.127833927989676 3.8696135442365263 a26.65799628126437,26.65799628126437 0 0,0 -0.316714067882828,0.33207343396898803 l -4.060613308727883 -3.940094094788021" fill="#ff3f05" stroke="none" /><path d="M 115.07121518719521 114.62390073753431 l 3.785807777594027 3.67344480609355 a26.275086470599994,26.275086470599994 0 0,0 -0.3177525969850156,0.3218817031448512 l -3.722014555553476 -3.738067003219066" fill="#ff3a05" stroke="none" /><path d="M 114.81725581225074 114.88116024355365 l 3.9619725140060646 3.9790598615927886 a26.61517084191375,26.61517084191375 0 0,0 -0.3274300311683233,0.320459200384574 l -3.892892530461947 -4.046669164899934" fill="#ff3f05" stroke="none" /><path d="M 114.29624159901734 115.38237550388516 l 2.2474628165038553 2.4182101802796847 a24.30133754523462,24.30133754523462 0 0,0 -0.30885894949433024,0.28213532738805963 l -2.2055043175426614 -2.4565382742543274" fill="#ff1e03" stroke="none" /><path d="M 112.63410532772338 116.77436683061366 l 2.2885217879755633 3.0384821857640354 a24.80390667173161,24.80390667173161 0 0,0 -0.343256574816212,0.2539330079433126 l -2.235880242740787 -3.077425142447117" fill="#ff2503" stroke="none" /><path d="M 112.34349029814194 116.9893568818739 l 21.617704373439818 29.754217461693173 a57.77823539996401,57.77823539996401 0 0,0 -0.8096455106344562,0.5776605744160906 l -21.102331534956477 -30.121922297953482" fill="#47ff2c" stroke="none" /><line stroke="#e1ed5e" stroke-width="0.3" x1="143.8653032363475" x2="146.44561519142675" y1="172.8068346515853" y2="177.08958963109032" /><path d="M 144.38136562736335 173.6633856474863 a86.0,86.0 0 0,1 -40.68145358897372,12.25698825130547" fill="none" id="id18" stroke="none" /><text fill="#e1ed5e" style="font-size:6.75px; font-family:Arial;" text-anchor="middle"><textPath startOffset="21.466115282336833" xlink:href="#id18">June</textPath></text><path d="M 109.2508944713604 118.85261126421891 l 3.7015045095734567 7.543381434928384 a29.40260311494092,29.40260311494092 0 0,0 -0.45628266109410204,0.21904340557682006 l -3.571109180479122 -7.605979117004765" fill="#ff6509" stroke="none" /><path d="M 108.92500713936063 119.00905698771935 l 2.2087238013276655 4.704282691764601 a26.196993022372393,26.196993022372393 0 0,0 -0.40983574392890143,0.18813548886389486 l -2.1274200616313443 -4.741605250962571" fill="#ff3905" stroke="none" /><path d="M 105.88484417918355 120.15858648285463 l 3.179206561083607 10.890400570870206 a32.34496271267769,32.34496271267769 0 0,0 -0.5358002093599653,0.15142249112875963 l -2.991275183619036 -10.943511855337485" fill="#ff8d0d" stroke="none" /><line stroke="#e1ed5e" stroke-width="0.3" x1="102.19456741930631" x2="102.32365962044197" y1="184.97166512339345" y2="189.96999836594603" /><path d="M 102.22038585953345 185.97133177190398 a86.0,86.0 0 0,1 -42.740103519485714,-10.115201625700543" fill="none" id="id19" stroke="none" /><text fill="#e1ed5e" style="font-size:6.75px; font-family:Arial;" text-anchor="middle"><textPath startOffset="22.20632615414155" xlink:href="#id19">July</textPath></text><path d="M 99.45781275523022 120.99299961872073 l -0.17798293324019873 6.891338159821175 a27.89363616370434,27.89363616370434 0 0,0 -0.479876336368503,-0.016527911305436817 l 0.29657962128334475 -6.887253450089645" fill="#ff5107" stroke="none" /><path d="M 95.51606077576429 120.51570834832081 l -1.686284599393682 7.715386249313525 a28.897514844952717,28.897514844952717 0 0,0 -0.48503770073649843,-0.11039300154044734 l 1.818842449523043 -7.685216514195391" fill="#ff5e08" stroke="none" /><line stroke="#e1ed5e" stroke-width="0.3" x1="58.666819895761336" x2="56.23545636021788" y1="174.27360380694188" y2="178.64263932499728" /><path d="M 58.180547188652646 175.14741091055294 a86.0,86.0 0 0,1 -31.652253787137756,-30.449443065178592" fill="none" id="id20" stroke="none" /><text fill="#e1ed5e" style="font-size:6.75px; font-family:Arial;" text-anchor="middle"><textPath startOffset="22.20632615414155" xlink:href="#id20">August</textPath></text><path d="M 87.95078237400918 117.19931262002967 l -3.6511174668516073 5.211683668935958 a27.363356458804006,27.363356458804006 0 0,0 -0.3834422868645559,-0.2735758906537117 l 3.74028708156505 -5.148063516438027" fill="#ff4906" stroke="none" /><line stroke="#e1ed5e" stroke-width="0.3" x1="26.63291911575756" x2="22.317208475507996" y1="142.92168965132927" y2="145.44649492493687" /><path d="M 25.769776987707644 143.4266507060508 a86.0,86.0 0 0,1 -11.730757126820373,-40.83630448921669" fill="none" id="id21" stroke="none" /><text fill="#e1ed5e" style="font-size:6.75px; font-family:Arial;" text-anchor="middle"><textPath startOffset="21.46611528233685" xlink:href="#id21">September</textPath></text><line stroke="#e1ed5e" stroke-width="0.3" x1="15.007084014347285" x2="10.007500721073583" y1="101.09737516637583" y2="101.16192664675087" /><path d="M 14.007167355692545 101.11028546245083 a86.0,86.0 0 0,1 10.666146001902534,-42.60595125391555" fill="none" id="id22" stroke="none" /><text fill="#e1ed5e" style="font-size:6.75px; font-family:Arial;" text-anchor="middle"><textPath startOffset="22.20632615414155" xlink:href="#id22">October</textPath></text><path d="M 79.32604984820605 96.31383870115002 l -7.591374302494104 -1.3535405645016456 a28.711098226602957,28.711098226602957 0 0,0 0.09093799591882626,-0.48579441047797534 l 7.566950582665416 1.4840130524421935" fill="#ff5c08" stroke="none" /><path d="M 79.3925641242962 95.95851677861259 l -3.9379785292995755 -0.7723073481020625 a25.012995581502288,25.012995581502288 0 0,0 0.08649815954303933,-0.4217957451279624 l 3.9241010738415416 0.8399787493934274" fill="#ff2803" stroke="none" /><path d="M 79.81627453868168 94.20196356495316 l -7.026391581511775 -2.018421944679522 a28.31055441150009,28.31055441150009 0 0,0 0.1385789544285885,-0.4672193430447169 l 6.990606729971479 2.139070674470778" fill="#ff5608" stroke="none" /><path d="M 79.91906864156998 93.8553929516997 l -6.042707436986028 -1.849020946557528 a27.319271447707777,27.319271447707777 0 0,0 0.1414676646374335,-0.44849115642613635 l 6.009984288580391 1.9527622694100788" fill="#ff4906" stroke="none" /><path d="M 80.02781315780177 93.51064311812611 l -1.608811819725626 -0.5227346477611593 a22.69160485434952,22.69160485434952 0 0,0 0.1238990867267287,-0.37044249913949606 l 1.5995754392271249 0.5503502498229775" fill="#ff0601" stroke="none" /><path d="M 80.52162464483688 92.15188598940014 l -1.3400461762424025 -0.539923632174542 a22.444728792210647,22.444728792210647 0 0,0 0.14747075319266517,-0.35711212613125304 l 1.3305537361635378 0.5629103287591064" fill="#ff0300" stroke="none" /><path d="M 80.65960295795068 91.81776055985345 l -4.710879444254693 -1.993006839660622 a26.11512085890797,26.11512085890797 0 0,0 0.17871359433363174,-0.412495615624958 l 4.6758751400783805 2.0738015998721795" fill="#ff3805" stroke="none" /><line stroke="#e1ed5e" stroke-width="0.3" x1="26.266209847984243" x2="21.928928074336255" y1="57.711370442889674" y2="55.22380399835377" /><path d="M 25.398753493254645 57.213857153982495 a86.0,86.0 0 0,1 29.58750427330803,-30.492523968695096" fill="none" id="id23" stroke="none" /><text fill="#e1ed5e" style="font-size:6.75px; font-family:Arial;" text-anchor="middle"><textPath startOffset="21.46611528233685" xlink:href="#id23">November</textPath></text><path d="M 81.78341655067845 89.55222093294921 l -5.955890780069881 -3.415889219335057 a27.865925585301,27.865925585301 0 0,0 0.24222167273935927,-0.4140353560203971 l 5.896209432860196 3.517903987709346" fill="#ff5007" stroke="none" /><path d="M 82.95767976084542 87.72973835380427 l -5.823425939328446 -4.192795285505553 a28.175780234720193,28.175780234720193 0 0,0 0.2867722694171,-0.3911570532037693 l 5.750391057397713 4.292414782380823" fill="#ff5407" stroke="none" /><path d="M 83.17141714833178 87.43820079747576 l -6.0733900284995705 -4.533519351515785 a28.578843193314274,28.578843193314274 0 0,0 0.297660981282871,-0.391686959940226 l 5.994453106992591 4.637391087337036" fill="#ff5a08" stroke="none" /><path d="M 88.39885842347998 82.49532879139004 l -2.8515191743154777 -4.30258567764262 a26.161725013495413,26.161725013495413 0 0,0 0.3775173972120536,-0.24554781647630236 l 2.777034751319137 4.351032418278457" fill="#ff3805" stroke="none" /><path d="M 89.00827224532344 82.1063720568725 l -5.286762392671569 -8.606413967807308 a31.100505828018473,31.100505828018473 0 0,0 0.4585664935320762,-0.2762811814175628 l 5.137833832921844 8.69614175868349" fill="#ff7d0b" stroke="none" /><line stroke="#e1ed5e" stroke-width="0.3" x1="56.762969772571076" x2="54.21961505331055" y1="26.818313649435495" y2="22.513508569990535" /><path d="M 56.25429882871897 25.957352633546506 a86.0,86.0 0 0,1 42.265352541879196,-11.944610805530505" fill="none" id="id24" stroke="none" /><text fill="#e1ed5e" style="font-size:6.75px; font-family:Arial;" text-anchor="middle"><textPath startOffset="22.20632615414155" xlink:href="#id24">December</textPath></text><path d="M 89.63071344664047 81.73862282372117 l -5.050821286752466 -8.89501433803869 a31.228982146070337,31.228982146070337 0 0,0 0.46973729441632345,-0.261408295768908 l 4.896959903264097 8.980638031367782" fill="#ff7e0b" stroke="none" /><path d="M 89.94658935756843 81.56283822128135 l -9.590708935034536 -17.588603360288705 a41.033488613871285,41.033488613871285 0 0,0 0.6230348144170115,-0.3328036207995486 l 9.28652907408922 17.751085707590004" fill="#fffc17" stroke="none" /><path d="M 90.58718382345135 81.22770947309562 l -2.8324828812850336 -5.648914263559147 a27.319271447707777,27.319271447707777 0 0,0 0.42218516900585,-0.2071644289011117 l 2.7348264452687574 5.696833852595089" fill="#ff4906" stroke="none" /><path d="M 91.23893434514133 80.91482961587045 l -3.240142201323065 -7.058349796381799 a28.76651938340964,28.76651938340964 0 0,0 0.45179583248193517,-0.20270762050222965 l 3.1181642503743556 7.113077747400558" fill="#ff5d08" stroke="none" /><path d="M 94.28887869178378 79.79150937346287 l -2.3351688800673793 -8.262867461129431 a29.58650058979947,29.58650058979947 0 0,0 0.49127977172126924,-0.13428531981231534 l 2.1925912191223875 8.301839321768043" fill="#ff6809" stroke="none" /><path d="M 97.83486435360386 79.11191278185805 l -0.5362083941841581 -5.173055888420421 a26.200771737609212,26.200771737609212 0 0,0 0.4489999713909449,-0.042637957495944845 l 0.4470832957029769 5.181519390431546" fill="#ff3905" stroke="none" /><path d="M 98.19473922651362 79.07773832637324 l -0.5416107156953962 -6.277054974797434 a27.300377871523683,27.300377871523683 0 0,0 0.4685392390005987,-0.03636766252913255 l 0.43348128733246327 6.285447899515028" fill="#ff4806" stroke="none" /><path d="M 98.91598698831166 79.02799685794201 l -0.4553257764872001 -8.809021213017502 a29.820780934482276,29.820780934482276 0 0,0 0.5128594485618063,-0.022084806683581745 l 0.3036254955360697 8.815553746225275" fill="#ff6b09" stroke="none" /></svg>