<?xml version="1.0" encoding="utf-8" ?>
<svg baseProfile="full" height="200mm" version="1.1" viewBox="0,0,200,200" width="200mm" xmlns="http://www.w3.org/2000/svg" xmlns:ev="http://www.w3.org/2001/xml-events" xmlns:xlink="http://www.w3.org/1999/xlink"><defs /><rect fill="#1a1a1a" height="200" width="200" x="0" y="0" /><text alignment-baseline="middle" fill="#e1ed5e" style="dominant-baseline: central; font-size:9.0px; font-family:Arial;" text-anchor="middle" x="100.0" y="100.0">2023</text><line stroke="#e1ed5e" stroke-width="0.3" x1="100.0" x2="100.0" y1="15.0" y2="10.0" /><path d="M 100.0 14.0 a86.0,86.0 0 0,1 42.46469731375804,11.215312516191453" fill="none" id="id85" stroke="none" /><text fill="#e1ed5e" style="font-size:6.75px; font-family:Arial;" text-anchor="middle"><textPath startOffset="22.20632615414155" xlink:href="#id85">January</textPath></text><path d="M 100.72285384407766 79.0124445844662 l 0.6140583995830817 -17.828755833854753 a38.83932740607976,38.83932740607976 0 0,0 0.6679609122160948,0.028763801973128073 l -0.920860144188508 17.81554430535743" fill="#ffdc14" stroke="none" /><path d="M 101.80526077348638 79.07773832637324 l 1.6614035899472284 -19.255013549786824 a40.32655708322524,40.32655708322524 0 0,0 0.6910721240577951,0.06562562523318122 l -1.9926008410952676 19.223562380038462" fill="#ffef16" stroke="none" /><path d="M 102.88285421437855 79.19881850522331 l 3.265009334040421 -23.558614723136458 a44.78378888286206,44.78378888286206 0 0,0 0.762670098973609,0.11239774734750042 l -3.6700484134426863 23.49892249162799" fill="#d9ff1c" stroke="none" /><path d="M 103.2404852339499 79.25152402106235 l 1.8363997870862014 -11.75826893790231 a32.9008089050303,32.9008089050303 0 0,0 0.5587979824204916,0.0922064550652528 l -2.038526975645568 11.724916219897432" fill="#ff8e0d" stroke="none" /><path d="M 103.95276090670814 79.375362276772 l 3.3701427979204057 -17.584664472038824 a38.9047001391411,38.9047001391411 0 0,0 0.6566253599486004,0.13171286999501977 l -3.6723345673361316 17.524047645966597" fill="#ffdd14" stroke="none" /><path d="M 104.66035177308747 79.52364482259891 l 3.3004826013682256 -14.50144909504881 a35.87229677145485,35.87229677145485 0 0,0 0.6009059189737408,0.14221501652950172 l -3.54961220730449 14.44248816637844" fill="#ffb610" stroke="none" /><path d="M 106.0581310904928 79.89281104454417 l 6.004411842089958 -19.928892536635193 a41.81378676037073,41.81378676037073 0 0,0 0.6873681339064232,0.21356862514135294 l -6.346565348707099 19.82258377661132" fill="#fdff18" stroke="none" /><path d="M 107.76421540070413 80.48803036053334 l 5.493159965594982 -13.804662150885543 a35.85743933212272,35.85743933212272 0 0,0 0.5715268257008226,0.23314014238733832 l -5.729970660884192 13.708061122314625" fill="#ffb510" stroke="none" /><path d="M 109.08828744355905 81.06846463323043 l 7.2793318030704475 -15.163354848986975 a37.82010706789614,37.82010706789614 0 0,0 0.5844624489654355,0.2867931854147919 l -7.539265519046315 15.035806503437351" fill="#ffcf13" stroke="none" /><line stroke="#e1ed5e" stroke-width="0.3" x1="143.23703022742887" x2="145.7803849466894" y1="26.81831364943548" y2="22.513508569990506" /><path d="M 143.74570117128098 25.957352633546492 a86.0,86.0 0 0,1 28.547481713284135,27.462654790039103" fill="none" id="id86" stroke="none" /><text fill="#e1ed5e" style="font-size:6.75px; font-family:Arial;" text-anchor="middle"><textPath startOffset="19.985693538727396" xlink:href="#id86">February</textPath></text><path d="M 110.99172775467656 82.1063720568725 l 7.924371328926309 -12.90022418747276 a36.13973067943306,36.13973067943306 0 0,0 0.5272629199334677,0.3301719920911443 l -8.14525340123204 12.761907854058672" fill="#ffb911" stroke="none" /><path d="M 112.19680574252982 82.90503203632743 l 7.254572497991758 -10.167964224507367 a33.490649246515574,33.490649246515574 0 0,0 0.46640463002361604,0.338862798970761 l -7.428522444369162 10.04158219071993" fill="#ff960d" stroke="none" /><path d="M 113.34407831869373 83.78471172551755 l 9.449393667321099 -11.482594651743616 a35.87081102752164,35.87081102752164 0 0,0 0.47339642473530485,0.3964558915634664 l -9.64564762901552 11.318237602786331" fill="#ffb610" stroke="none" /><path d="M 114.16331599549186 84.49514656593476 l 8.02642462494798 -8.786680848538726 a32.9008089050303,32.9008089050303 0 0,0 0.4148511816583011,0.3855589612363136 l -8.176483690401128 8.647217301227771" fill="#ff8e0d" stroke="none" /><path d="M 114.94478906791727 85.2469230424477 l 12.794865399443449 -12.63073256114004 a38.97898733580171,38.97898733580171 0 0,0 0.46725733700405864,0.48154975886217255 l -13.010387000150615 12.408618606727753" fill="#ffde14" stroke="none" /><path d="M 115.4437574822437 85.77008943001954 l 13.121530335419509 -12.09020560112931 a38.84229889394618,38.84229889394618 0 0,0 0.44882527808136974,0.4956040821274265 l -13.327699254116915 11.862548731732335" fill="#ffdc14" stroke="none" /><path d="M 117.04232023915458 87.72973835380427 l 7.251315750178688 -5.220858444465332 a29.935264014338607,29.935264014338607 0 0,0 0.2974815153634011,0.42076650679066957 l -7.340109885345972 5.095265437342869" fill="#ff6609" stroke="none" /><line stroke="#e1ed5e" stroke-width="0.3" x1="172.23445277983987" x2="176.4835382374775" y1="55.19839476539836" y2="52.563006222186495" /><path d="M 173.08426987136738 54.67131705675599 a86.0,86.0 0 0,1 12.851231095245387,41.99856678651699" fill="none" id="id87" stroke="none" /><text fill="#e1ed5e" style="font-size:6.75px; font-family:Arial;" text-anchor="middle"><textPath startOffset="22.20632615414155" xlink:href="#id87">March</textPath></text><path d="M 118.03404312379186 89.2402003453031 l 12.775620154130221 -7.622423456534684 a35.87675400325449,35.87675400325449 0 0,0 0.3118549692715268,0.5330612317585812 l -12.904934797872077 7.401382812422208" fill="#ffb610" stroke="none" /><path d="M 118.3937258080291 89.86733742301442 l 1.627989834623335 -0.8968205705121558 a22.858665660448555,22.858665660448555 0 0,0 0.18688798840819135,0.34627505915399936 l -1.6431859222499912 0.8686645280256977" fill="#ff0000" stroke="none" /><path d="M 119.61058180528143 92.48833698450437 l 8.785289059102565 -3.3651286617068386 a30.40773058510011,30.40773058510011 0 0,0 0.1830189342874021,0.49039975260090013 l -8.841912581891592 3.2134057720766056" fill="#ff6c0a" stroke="none" /><path d="M 119.85752413597 93.16781622104841 l 16.882852690277907 -5.808717718439343 a38.85418484541188,38.85418484541188 0 0,0 0.21214885631746694,0.6342980775731145 l -16.980338840367146 5.517246537943914" fill="#ffdc14" stroke="none" /><path d="M 120.45610955862082 95.25157060432595 l 11.601266954359685 -2.6929752637117574 a32.90972336862958,32.90972336862958 0 0,0 0.12334190244387426,0.5529175637392484 l -11.645903243805597 2.4928795304225453" fill="#ff8e0d" stroke="none" /><path d="M 120.67395015179393 96.31383870115 l 14.6487001464672 -2.611860392518171 a35.87972549112091,35.87972549112091 0 0,0 0.10317665864639015,0.6089544798267617 l -14.691488666633813 2.3593201243755715" fill="#ffb610" stroke="none" /><path d="M 120.83666639777658 97.38593545837742 l 7.385682521486262 -0.9265709987639397 a28.443577105393487,28.443577105393487 0 0,0 0.056764775038201966,0.4863259268633996 l -7.4005376495280535 0.7993013335756873" fill="#ff5107" stroke="none" /><path d="M 120.87857604477298 97.74499172005257 l 14.7833494603746 -1.596688172939217 a35.869325283588424,35.869325283588424 0 0,0 0.06101692376042317,0.614432095315659 l -14.808643509817252 1.341980546919123" fill="#ffb610" stroke="none" /><path d="M 120.96714384426684 98.82574320788733 l 17.32930507667325 -0.9705210371054069 a38.356460627785765,38.356460627785765 0 0,0 0.031244792489303383,0.6595281867593162 l -17.34344347739605 0.6720817437230908" fill="#ffd614" stroke="none" /><line stroke="#e1ed5e" stroke-width="0.3" x1="184.98032266829074" x2="189.97916517819016" y1="98.17113171792111" y2="98.06355123074" /><path d="M 185.9800911702706 98.14961562048488 a86.0,86.0 0 0,1 -9.607161424134198,41.387399972396054" fill="none" id="id88" stroke="none" /><text fill="#e1ed5e" style="font-size:6.75px; font-family:Arial;" text-anchor="middle"><textPath startOffset="21.466115282336823" xlink:href="#id88">April</textPath></text><path d="M 120.99513854157772 99.54816195383933 l 22.358240595794708 -0.48117347386814835 a43.36341768271113,43.36341768271113 0 0,0 0.009636988651273354,0.7463953913752316 l -22.3632105915637 0.09624182443245406" fill="#eaff1a" stroke="none" /><path d="M 120.99824983174949 100.27111621757518 l 16.436900889451913 0.21222294398404712 a37.43827087706059,37.43827087706059 0 0,0 -0.013866310669689914,0.6443129701989546 l -16.430812516097212 -0.49512572997311655" fill="#ffca12" stroke="none" /><path d="M 120.9904718944345 100.63252640178507 l 12.340930224942865 0.371881310202151 a33.34653208499399,33.34653208499399 0 0,0 -0.022227634571373143,0.5735964820132048 l -12.332700457520287 -0.584255039229362" fill="#ff940d" stroke="none" /><path d="M 120.92983693683757 101.71520430193887 l 16.44702253548958 1.3478367696838691 a37.50215786618871,37.50215786618871 0 0,0 -0.058263001945964836,0.6429273714960744 l -16.42138493726654 -1.630745529728514" fill="#ffcb12" stroke="none" /><path d="M 120.8583938346157 102.4346265915055 l 26.577813335949966 3.1022067952513415 a47.75824823715303,47.75824823715303 0 0,0 -0.10233567103267917,0.8157159870953387 l -26.520476155670437 -3.5592405366340754" fill="#b6ff1f" stroke="none" /><path d="M 120.76222939487914 103.15116336523771 l 14.903679888718525 2.2619887864326875 a36.07435794637172,36.07435794637172 0 0,0 -0.09846280523947339,0.613127982216288 l -14.862535329117764 -2.5181959983421804" fill="#ffb811" stroke="none" /><path d="M 120.70491114924044 103.5080841355445 l 9.30629676186528 1.576788801248558 a30.438931207697568,30.438931207697568 0 0,0 -0.09197421316767171,0.5158402316448113 l -9.27777610635842 -1.7367477836265877" fill="#ff6d0a" stroke="none" /><path d="M 120.5718875245553 104.21870165774334 l 8.748740601615584 1.794114732308695 a29.930806782538973,29.930806782538973 0 0,0 -0.10784491747398905,0.5038155510167773 l -8.716561645417153 -1.9444441027416413" fill="#ff6509" stroke="none" /><path d="M 120.41448212921028 104.9243191809786 l 33.555856659288914 8.094241506379916 a55.51828880032073,55.51828880032073 0 0,0 -0.23208940982701903,0.9270818231698965 l -33.41155593516683 -8.67065116894721" fill="#61ff29" stroke="none" /><path d="M 119.41010516605496 108.01547362559984 l 11.852601303319604 4.894574878844812 a33.82345588755513,33.82345588755513 0 0,0 -0.22685717021177912,0.5362233378558994 l -11.766593151915515 -5.097872742366874" fill="#ff9b0e" stroke="none" /><path d="M 118.97047184881838 109.00673069616215 l 10.882196006194333 5.166608906290788 a33.04641181048511,33.04641181048511 0 0,0 -0.24839373737400564,0.5117646707852055 l -10.791649012205612 -5.353162533041269" fill="#ff900d" stroke="none" /><line stroke="#e1ed5e" stroke-width="0.3" x1="174.80103733775053" x2="179.2010983576182" y1="140.37084112569926" y2="142.7455964860345" /><path d="M 175.68104954172406 140.8457921977663 a86.0,86.0 0 0,1 -30.038265399797805,32.042727171017184" fill="none" id="id89" stroke="none" /><text fill="#e1ed5e" style="font-size:6.75px; font-family:Arial;" text-anchor="middle"><textPath startOffset="22.206326154141568" xlink:href="#id89">May</textPath></text><path d="M 116.93607887273984 112.41649034213515 l 12.856929436914736 9.42590911287716 a36.94203240336769,36.94203240336769 0 0,0 -0.3803951567910997,0.5096014758097698 l -12.692773013428546 -9.645823468196246" fill="#ffc412" stroke="none" /><path d="M 115.80600337817218 113.82643327865902 l 9.138503851597035 7.993982460193964 a33.14149942221069,33.14149942221069 0 0,0 -0.3792983855006214,0.4261457570245255 l -8.999546616448075 -8.150102386959356" fill="#ff910d" stroke="none" /><line stroke="#e1ed5e" stroke-width="0.3" x1="143.8653032363475" x2="146.44561519142675" y1="172.8068346515853" y2="177.08958963109032" /><path d="M 144.38136562736335 173.6633856474863 a86.0,86.0 0 0,1 -40.68145358897372,12.25698825130547" fill="none" id="id90" stroke="none" /><text fill="#e1ed5e" style="font-size:6.75px; font-family:Arial;" text-anchor="middle"><textPath startOffset="21.466115282336833" xlink:href="#id90">June</textPath></text><path d="M 107.93186726928326 119.44442032107085 l 5.079777080976729 12.452719813197175 a34.44895408343749,34.44895408343749 0 0,0 -0.5509846490013401,0.21924816286485044 l -4.864671355933523 -12.538314820468095" fill="#ffa30f" stroke="none" /><path d="M 106.57524785965236 119.94407469862006 l 2.325984432582257 7.055187615954081 a28.42871966606136,28.42871966606136 0 0,0 -0.46606673178182556,0.14921984961424575 l -2.2041963557094912 -7.0941803122280325" fill="#ff5107" stroke="none" /><path d="M 104.83641907484287 120.43548508189849 l 2.0564732665004093 8.689286041710016 a29.929321038605757,29.929321038605757 0 0,0 -0.5023563146886109,0.11433466169138498 l -1.9065968024189361 -8.723397436979086" fill="#ff6509" stroke="none" /><path d="M 103.41894727170886 120.7198165907248 l 2.432683020888334 14.742767878658537 a35.94212673631583,35.94212673631583 0 0,0 -0.6112970788499748,0.09547203175697819 l -2.178550078429842 -14.78245821776262" fill="#ffb710" stroke="none" /><path d="M 102.34483914955558 120.86867818915974 l 1.9949077263452548 17.754346760227758 a38.86607079687758,38.86607079687758 0 0,0 -0.6654748645988613,0.06897919067823012 l -1.689000265140791 -17.786055319361747" fill="#ffdc14" stroke="none" /><path d="M 101.26447882468166 120.96189622390904 l 0.38531073022455403 6.387488175580232 a27.39909912034526,27.39909912034526 0 0,0 -0.471019128436494,0.024346308767963173 l -0.27530353337458047 -6.393174291110397" fill="#ff4206" stroke="none" /><line stroke="#e1ed5e" stroke-width="0.3" x1="102.19456741930631" x2="102.32365962044197" y1="184.97166512339345" y2="189.96999836594603" /><path d="M 102.22038585953345 185.97133177190398 a86.0,86.0 0 0,1 -42.740103519485714,-10.115201625700543" fill="none" id="id91" stroke="none" /><text fill="#e1ed5e" style="font-size:6.75px; font-family:Arial;" text-anchor="middle"><textPath startOffset="22.20632615414155" xlink:href="#id91">July</textPath></text><path d="M 100.54218724476979 120.99299961872073 l 0.2764959314412197 10.705672328731863 a31.70924227059406,31.70924227059406 0 0,0 -0.5457618266453352,0.009395784785209641 l -0.09217441490321657 -10.708845590796232" fill="#ff7e0b" stroke="none" /><path d="M 99.81925306533755 120.99922214144158 l -0.12070398200213538 14.023417526571262 a35.023936985590645,35.023936985590645 0 0,0 -0.6028125069167399,-0.010377963984100862 l 0.36207617881154325 -14.019262085308002" fill="#ffaa0f" stroke="none" /><path d="M 99.09653310690486 120.98055641714683 l -0.9591838453259646 22.274430789970424 a43.29507346178336,43.29507346178336 0 0,0 -0.7442875285056336,-0.038471163668644864 l 1.342459442245087 -22.254619819539574" fill="#ebff1a" stroke="none" /><path d="M 98.37488393609728 120.93702456842531 l -1.1507997087660526 14.82621599217289 a35.87081102752164,35.87081102752164 0 0,0 -0.6151941151800613,-0.053081536859571475 l 1.4058381416876555 -14.804210203034655" fill="#ffb610" stroke="none" /><path d="M 97.65516085044442 120.86867818915974 l -0.8308106356371738 7.394076388791736 a28.440605617527062,28.440605617527062 0 0,0 -0.4860263537114795,-0.05885102284954853 l 0.9579644124000427 -7.378679837216838" fill="#ff5107" stroke="none" /><path d="M 96.58105272829116 120.7198165907248 l -2.4254263349355893 14.698790247520051 a35.89755441831946,35.89755441831946 0 0,0 -0.6088071870344063,-0.10584893320008934 l 2.6780824934420453 -14.654862735798956" fill="#ffb610" stroke="none" /><path d="M 95.86986931433489 120.58985236759428 l -3.505590017399067 17.47634310218818 a38.824469966747635,38.824469966747635 0 0,0 -0.6541156657006498,-0.13707629759506473 l 3.8058971445291037 -17.413410823866577" fill="#ffdc14" stroke="none" /><path d="M 95.16358092515715 120.4354850818985 l -5.512101139776205 23.290467362047703 a44.9338490201165,44.9338490201165 0 0,0 -0.7511371477312574,-0.1846112358363338 l 5.9121915722506735 -23.19213486789734" fill="#d7ff1c" stroke="none" /><path d="M 94.11515582081647 120.15858648285463 l -4.172253627309263 14.292092197110083 a35.88863995472018,35.88863995472018 0 0,0 -0.5915217343634447,-0.17822064623692876 l 4.4176503361129535 -14.218156181767428" fill="#ffb610" stroke="none" /><path d="M 93.76903079525671 120.05430185196036 l -5.300651396210173 17.06008481484598 a38.86458505294436,38.86458505294436 0 0,0 -0.6371546221726871,-0.203996789339894 l 5.5935273634738 -16.966315178846376" fill="#ffdc14" stroke="none" /><path d="M 93.42475214034765 119.94407469862007 l -3.412684359484681 10.35137127012783 a31.89941749404523,31.89941749404523 0 0,0 -0.5200064814230207,-0.1764144317832464 l 3.5903605738449276 -10.29109385144646" fill="#ff810b" stroke="none" /><path d="M 92.7421414339146 119.70592522655815 l -5.5662467412470145 15.11300352257319 a37.105464236021035,37.105464236021035 0 0,0 -0.5974505919387147,-0.2259046920562394 l 5.825567553946012 -15.014950580410316" fill="#ffc612" stroke="none" /><path d="M 92.06813273071674 119.44442032107085 l -5.81211348074193 14.247991505223505 a36.38784991627951,36.38784991627951 0 0,0 -0.5779231654572425,-0.24157193003208474 l 6.0565081056966354 -14.145834532171445" fill="#ffbc11" stroke="none" /><path d="M 91.40352486487194 119.15986991738527 l -7.298377588015233 16.266663137652287 a38.82892719854728,38.82892719854728 0 0,0 -0.6074545368923665,-0.2788525841237075 l 7.5773001206750195 -16.138623483194507" fill="#ffdc14" stroke="none" /><path d="M 90.7491055286396 118.85261126421891 l -4.773909223930102 9.728859743028519 a31.83701624885032,31.83701624885032 0 0,0 -0.4899051138979257,-0.2456485943717547 l 4.940668245510787 -9.64524330774746" fill="#ff800b" stroke="none" /><path d="M 90.10565033884886 118.52300852407294 l -12.604602976111643 23.596818018851767 a47.75230526142018,47.75230526142018 0 0,0 -0.7216901128885648,-0.3935229916909563 l 13.008915900868848 -23.376354375401046" fill="#b6ff1f" stroke="none" /><line stroke="#e1ed5e" stroke-width="0.3" x1="58.666819895761336" x2="56.23545636021788" y1="174.27360380694188" y2="178.64263932499728" /><path d="M 58.180547188652646 175.14741091055294 a86.0,86.0 0 0,1 -31.652253787137756,-30.449443065178592" fill="none" id="id92" stroke="none" /><text fill="#e1ed5e" style="font-size:6.75px; font-family:Arial;" text-anchor="middle"><textPath startOffset="22.20632615414155" xlink:href="#id92">August</textPath></text><path d="M 88.8546689885994 117.79835938074946 l -7.104645832562747 11.345651346877766 a34.38655283824258,34.38655283824258 0 0,0 -0.4989623054613109,-0.31846135092981165 l 7.298889940070981 -11.22167556712415" fill="#ffa20f" stroke="none" /><path d="M 88.54995079064634 117.60387380957326 l -8.107357438427343 12.464653615513702 a35.869325283588424,35.869325283588424 0 0,0 -0.5146826308129328,-0.3411035829167531 l 8.320714767980238 -12.32325201150563" fill="#ffb610" stroke="none" /><path d="M 87.95078237400918 117.19931262002967 l -10.332893911607767 14.749395203220036 a39.008702214465956,39.008702214465956 0 0,0 -0.5466283351332352,-0.39000480323510656 l 10.58524957458989 -14.569346138140709" fill="#ffde14" stroke="none" /><path d="M 87.36589467227662 116.77436683061367 l -9.326527957182202 12.38287928995281 a36.502252199136855,36.502252199136855 0 0,0 -0.49864035720084804,-0.38233616278598054 l 9.538297042876538 -12.220503785339464" fill="#ffbe11" stroke="none" /><path d="M 87.07902340077011 116.55440617244103 l -10.156266067314384 13.012248136392694 a37.506615097988345,37.506615097988345 0 0,0 -0.5055222084295053,-0.4016174160000339 l 10.378745768461249 -12.83549680638753" fill="#ffcb12" stroke="none" /><path d="M 85.97065885151581 115.62618273729859 l -14.896518073470093 16.592063098463118 a43.29804494964979,43.29804494964979 0 0,0 -0.5502984621079005,-0.5026845976849615 l 15.179916085044848 -16.33318573419158" fill="#ebff1a" stroke="none" /><path d="M 85.70375840098266 115.38237550388516 l -13.276357844636102 14.285007725679547 a40.50187486734429,40.50187486734429 0 0,0 -0.5065900556018348,-0.4790125173285153 l 13.520283734628755 -14.0543605716051" fill="#fff116" stroke="none" /><path d="M 84.9287848128048 114.62390073753433 l -10.23099613620295 9.927339639410551 a35.25571303917176,35.25571303917176 0 0,0 -0.41886044903508657,-0.4391735062312804 l 10.400363136616994 -9.749759016596771" fill="#ffad10" stroke="none" /><path d="M 84.43433777217949 114.09645910891817 l -22.14866391948159 20.05810807715696 a50.881281984765224,50.881281984765224 0 0,0 -0.582326944932655,-0.6542504958374019 l 22.490649714062585 -19.673883411578693" fill="#93ff23" stroke="none" /><path d="M 83.06392112726016 112.41649034213515 l -13.525537696541798 9.91609152527096 a37.771077518100135,37.771077518100135 0 0,0 -0.37990546836048267,-0.5276554680814576 l 13.694222957277889 -9.681802451738365" fill="#ffce13" stroke="none" /><path d="M 82.85270091963577 112.12312394758628 l -5.69824284464336 4.0286522072834074 a27.978539254298045,27.978539254298045 0 0,0 -0.27464146194331557,-0.39564150965749856 l 5.766745213748809 -3.9299694354388963" fill="#ff4a06" stroke="none" /><path d="M 82.44556493220864 111.52570212397912 l -17.068410334409602 11.206593233250832 a41.418578874136266,41.418578874136266 0 0,0 -0.3861693480661962,-0.59934340389523 l 17.258784545852844 -10.911128229434155" fill="#fffc17" stroke="none" /><path d="M 82.05923443525364 110.91462005526583 l -23.141950176387688 14.078863725274621 a48.088083390326155,48.088083390326155 0 0,0 -0.42413489023364814,-0.7108744722249014 l 23.380865942319566 -13.67842715916361" fill="#b3ff20" stroke="none" /><line stroke="#e1ed5e" stroke-width="0.3" x1="26.63291911575756" x2="22.317208475507996" y1="142.92168965132927" y2="145.44649492493687" /><path d="M 25.769776987707644 143.4266507060508 a86.0,86.0 0 0,1 -11.730757126820373,-40.83630448921669" fill="none" id="id93" stroke="none" /><text fill="#e1ed5e" style="font-size:6.75px; font-family:Arial;" text-anchor="middle"><textPath startOffset="21.46611528233685" xlink:href="#id93">September</textPath></text><path d="M 81.87401531095188 110.60418214915194 l -12.974123559590124 7.5902066459663375 a36.03127137230857,36.03127137230857 0 0,0 -0.3085786777334139,-0.5380329348023662 l 13.102854233475915 -7.365753865305664" fill="#ffb811" stroke="none" /><path d="M 81.51974371655577 109.97397251340807 l -26.297200289761147 14.192852569075997 a50.88276772869844,50.88276772869844 0 0,0 -0.4093579039209196,-0.7743508836643922 l 26.537610701906953 -13.738086670325478" fill="#93ff23" stroke="none" /><path d="M 81.02952815118164 109.00673069616217 l -14.91939945792503 7.083377479320236 a37.51552956158763,37.51552956158763 0 0,0 -0.2719436124747374,-0.5857423480310725 l 15.039117687239594 -6.825515064010337" fill="#ffcb12" stroke="none" /><path d="M 80.32549172779594 107.34259656027581 l -7.043346828574808 2.6286021221372735 a28.5178643020541,28.5178643020541 0 0,0 -0.16767925567851716,-0.46138129625254715 l 7.08755034525855 -2.506973028878609" fill="#ff5207" stroke="none" /><path d="M 80.0844068197444 106.66101706037122 l -14.238171998666337 4.762133155322823 a36.013442445110016,36.013442445110016 0 0,0 -0.19157050422376679,-0.5895933870578519 l 14.318034753906351 -4.516340868287168" fill="#ffb711" stroke="none" /><path d="M 79.76711848015287 105.62410040840567 l -15.06193283624966 4.186740407323385 a36.63299766525954,36.63299766525954 0 0,0 -0.16364818954025076,-0.6089957919000676 l 15.131769102131686 -3.9268536822477786" fill="#ffc011" stroke="none" /><path d="M 79.67330655649465 105.27499134158121 l -28.928974269005977 7.507373947167485 a50.887224960498074,50.887224960498074 0 0,0 -0.2127296475454199,-0.8497491963794681 l 29.053915230846457 -7.008296911390625" fill="#93ff23" stroke="none" /><path d="M 79.50377843672027 104.57218783832718 l -14.827290438261578 3.307592904763487 a36.191731717095486,36.191731717095486 0 0,0 -0.1304039128857703,-0.6092036673043318 l 14.882028389871788 -3.0518754180429912" fill="#ffba11" stroke="none" /><path d="M 79.4281124754447 104.21870165774334 l -17.651759443752084 3.619867488511041 a39.01910242199844,39.01910242199844 0 0,0 -0.12926483670132224,-0.6591186174444507 l 17.71145421342907 -3.315485143998636" fill="#ffde14" stroke="none" /><path d="M 79.29508885075956 103.50808413554451 l -23.683961285351465 4.01283194374103 a45.02150791217603,45.02150791217603 0 0,0 -0.1228835166445332,-0.7651957754469972 l 23.74952655635729 -3.604556938600819" fill="#d6ff1c" stroke="none" /><path d="M 79.10278846688536 102.07522291339032 l -15.151377765112768 1.5046259285727854 a36.22590382755937,36.22590382755937 0 0,0 -0.05628022560009363,-0.6210475997414813 l 15.175032586989937 -1.243596940282738" fill="#ffba11" stroke="none" /><path d="M 79.07016306316243 101.71520430193888 l -15.53338132684665 1.2729636908241535 a36.58545385939674,36.58545385939674 0 0,0 -0.04603398065678266,-0.6280970918938472 l 15.552991866167767 -1.0053934624335457" fill="#ffbf11" stroke="none" /><path d="M 79.0095281055655 100.63252640178507 l -10.56033150777 0.3182247890309888 a31.565125109072472,31.565125109072472 0 0,0 -0.011691026878012519,-0.5432360800132149 l 10.564244597333019 -0.1363988932276451" fill="#ff7c0b" stroke="none" /><line stroke="#e1ed5e" stroke-width="0.3" x1="15.007084014347285" x2="10.007500721073583" y1="101.09737516637583" y2="101.16192664675087" /><path d="M 14.007167355692545 101.11028546245083 a86.0,86.0 0 0,1 10.666146001902534,-42.60595125391555" fill="none" id="id94" stroke="none" /><text fill="#e1ed5e" style="font-size:6.75px; font-family:Arial;" text-anchor="middle"><textPath startOffset="22.20632615414155" xlink:href="#id94">October</textPath></text><path d="M 79.12142395522702 97.74499172005258 l -14.897090258580924 -1.6089728441338897 a35.98372756644577,35.98372756644577 0 0,0 0.07181263428213185,-0.6152467952926018 l 14.867187271295203 1.8651633777513534" fill="#ffb711" stroke="none" /><path d="M 79.21141760316559 97.0276538004421 l -23.776729690863274 -3.3995907361780815 a45.0185364243096,45.0185364243096 0 0,0 0.11628525176223355,-0.7661745179455803 l 23.71468854566174 3.808364366515754" fill="#d6ff1c" stroke="none" /><path d="M 79.26566170972629 96.67025291283419 l -18.11828023181171 -2.9096318378594623 a39.35042331910478,39.35042331910478 0 0,0 0.11315708631580688,-0.6678595288912947 l 18.065511283975678 3.221077155066585" fill="#ffe215" stroke="none" /><path d="M 79.3925641242962 95.95851677861259 l -17.683719765328732 -3.4680907005783483 a39.020588165931656,39.020588165931656 0 0,0 0.1349382184009994,-0.6580066752561262 l 17.62140225101274 3.771973031997877" fill="#ffde14" stroke="none" /><path d="M 79.54389044137918 95.25157060432595 l -47.07949276762981 -10.928453758550818 a69.33125014739522,69.33125014739522 0 0,0 0.27985790140055555,-1.1601916766338716 l 46.88440206596844 11.737230666844086" fill="#3bff97" stroke="none" /><path d="M 79.71946130924805 94.55025226153421 l -15.387248325799394 -4.13483206947436 a36.93311793976841,36.93311793976841 0 0,0 0.17026735337154553,-0.6125422622817337 l 15.313794201861487 4.3990856351750365" fill="#ffc312" stroke="none" /><path d="M 79.81627453868168 94.20196356495316 l -17.3015601034832 -4.970097123813946 a39.0012734947999,39.0012734947999 0 0,0 0.19090956763804368,-0.6436521558456546 l 17.21344463873345 5.2671786664061395" fill="#ffde14" stroke="none" /><path d="M 80.02781315780177 93.51064311812611 l -14.89753785420578 -4.840503474206762 a36.66419828785699,36.66419828785699 0 0,0 0.20019124749400152,-0.5985463491841295 l 14.812009312940006 5.096222926313214" fill="#ffc011" stroke="none" /><path d="M 80.2630227832202 92.82701384747504 l -29.8086399061339 -10.833318543354265 a52.71617574228239,52.71617574228239 0 0,0 0.3172896535983952,-0.8501785251526728 l 29.61774566403388 11.34482020553628" fill="#7fff26" stroke="none" /><path d="M 80.52162464483688 92.15188598940014 l -14.067536893062176 -5.66801036390373 a36.166474070230876,36.166474070230876 0 0,0 0.23762805159449782,-0.575435175424051 l 13.96788715458148 5.909320109781092" fill="#ffb911" stroke="none" /><path d="M 80.65960295795068 91.81776055985345 l -7.070148210004167 -2.9911301927154113 a28.676838902907814,28.676838902907814 0 0,0 0.19624419822346095,-0.45295866641175286 l 7.017613301938025 3.1123880037137632" fill="#ff5407" stroke="none" /><path d="M 80.95270993114464 91.15688171328213 l -13.554062932755738 -6.292768228272175 a35.94361248024904,35.94361248024904 0 0,0 0.2653696475614272,-0.558936155462045 l 13.443735091352558 6.5251467993747525" fill="#ffb710" stroke="none" /><path d="M 81.26839172434947 90.50648371742162 l -56.19482482695157 -28.480548847735136 a84.0,84.0 0 0,0 0.6647622673595439,-1.284109110958658 l 55.69625312643191 29.44363068095413" fill="#4dd2ff" stroke="none" /><line stroke="#e1ed5e" stroke-width="0.3" x1="26.266209847984243" x2="21.928928074336255" y1="57.711370442889674" y2="55.22380399835377" /><path d="M 25.398753493254645 57.213857153982495 a86.0,86.0 0 0,1 29.58750427330803,-30.492523968695096" fill="none" id="id95" stroke="none" /><text fill="#e1ed5e" style="font-size:6.75px; font-family:Arial;" text-anchor="middle"><textPath startOffset="21.46611528233685" xlink:href="#id95">November</textPath></text><line stroke="#e1ed5e" stroke-width="0.3" x1="56.762969772571076" x2="54.21961505331055" y1="26.818313649435495" y2="22.513508569990535" /><path d="M 56.25429882871897 25.957352633546506 a86.0,86.0 0 0,1 42.265352541879196,-11.944610805530505" fill="none" id="id96" stroke="none" /><text fill="#e1ed5e" style="font-size:6.75px; font-family:Arial;" text-anchor="middle"><textPath startOffset="22.20632615414155" xlink:href="#id96">December</textPath></text></svg>