<?xml version="1.0" encoding="utf-8" ?>
<svg baseProfile="full" height="200mm" version="1.1" viewBox="0,0,200,200" width="200mm" xmlns="http://www.w3.org/2000/svg" xmlns:ev="http://www.w3.org/2001/xml-events" xmlns:xlink="http://www.w3.org/1999/xlink"><defs /><rect fill="#1a1a1a" height="200" width="200" x="0" y="0" /><text alignment-baseline="middle" fill="#e1ed5e" style="dominant-baseline: central; font-size:9.0px; font-family:Arial;" text-anchor="middle" x="100.0" y="100.0">2020</text><line stroke="#e1ed5e" stroke-width="0.3" x1="100.0" x2="100.0" y1="15.0" y2="10.0" /><path d="M 100.0 14.0 a86.0,86.0 0 0,1 42.35913384403234,11.155469271406648" fill="none" id="id49" stroke="none" /><text fill="#e1ed5e" style="font-size:6.75px; font-family:Arial;" text-anchor="middle"><textPath startOffset="22.145653131862478" xlink:href="#id49">January</textPath></text><path d="M 100.0 79.0 l 0.0 -8.756156074034482 a29.756156074034482,29.756156074034482 0 0,0 0.5108039873994146,0.004384637887086462 l -0.15031106255055982 8.75486583434183" fill="#ff6a09" stroke="none" /><path d="M 100.36049292484886 79.00309439819443 l 0.20511607836634266 -11.94698324988314 a32.94874392472249,32.94874392472249 0 0,0 0.5654423156458349,0.014563788289059926 l -0.410171708082919 11.941701744244034" fill="#ff950d" stroke="none" /><path d="M 101.44090949804482 79.04949213459386 l 1.077659668589546 -15.668935067505574 a36.70595035364019,36.70595035364019 0 0,0 0.6282503158732985,0.0486305477812843 l -1.346478979238078 15.648126752729235" fill="#ffc612" stroke="none" /><path d="M 102.51750503828377 79.15144685158666 l 1.0177950330974967 -8.428802929502785 a29.490030951285906,29.490030951285906 0 0,0 0.5020638142005573,0.0650022124159958 l -1.162336669188846 8.410089120886392" fill="#ff6609" stroke="none" /><path d="M 103.23170211078529 79.25015418208739 l 3.6185872557712293 -23.233925981399008 a44.514027520540964,44.514027520540964 0 0,0 0.7540305247033889,0.1240754358976764 l -4.016895283527689 23.168384547005665" fill="#d8ff1c" stroke="none" /><path d="M 103.94208987418118 79.37332000966035 l 5.446595293166141 -28.498888085945485 a50.01468632301209,50.01468632301209 0 0,0 0.8419222566786455,0.1684080307437158 l -5.935014035375744 28.401190658538912" fill="#99ff23" stroke="none" /><path d="M 104.64783097203109 79.52079915486377 l 3.5973041229723353 -15.850385712971326 a37.25347114320874,37.25347114320874 0 0,0 0.6224307231300474,0.1468919558676984 l -3.868866999842268 15.7862976134574" fill="#ffcd13" stroke="none" /><path d="M 105.3480935250658 79.69241777938227 l 8.267477571520883 -31.392958958904437 a53.46334945120511,53.46334945120511 0 0,0 0.8855022527360534,0.24134757663682374 l -8.80516122519163 31.24641088812347" fill="#74ff27" stroke="none" /><path d="M 106.04205211174951 79.88797359093562 l 15.183426334346464 -50.540688125253276 a73.77212892640057,73.77212892640057 0 0,0 1.2097201728003717,0.37477440183982835 l -16.048787140018465 50.2725971356068" fill="#40ffc8" stroke="none" /><path d="M 106.72888874123014 80.10723608172694 l 4.743779157021687 -14.024140163418013 a35.80472721848625,35.80472721848625 0 0,0 0.5805382357808188,0.20194133396245542 l -4.983823164847524 13.940640396886966" fill="#ffba11" stroke="none" /><path d="M 107.40779381753099 80.34994680014964 l 7.527176341669625 -19.966729528625194 a42.338431801514005,42.338431801514005 0 0,0 0.6778740540092956,0.2622162464840453 l -7.868822658172446 19.83457339400311" fill="#f2ff19" stroke="none" /><path d="M 108.07796709384702 80.6158196554323 l 16.124505534754 -38.692943363278644 a62.91829606334448,62.91829606334448 0 0,0 0.9934047668879734,0.4240254234856344 l -16.786345376812402 38.41044329013361" fill="#33ff50" stroke="none" /><path d="M 108.73861861582097 80.90454125486305 l 11.0876471541053 -24.22851003344333 a47.645011125060606,47.645011125060606 0 0,0 0.740792088573809,0.34672810223788636 l -11.501927956550613 24.03460569963491" fill="#b4ff20" stroke="none" /><path d="M 109.3889696526874 81.21577127319529 l 28.166908958062173 -56.352686180414125 a84.0,84.0 0 0,0 1.2842911131456847,0.6557681933086643 l -29.130127292921436 55.86086003543262" fill="#4dd2ff" stroke="none" /><path d="M 110.34350942703115 81.72400993836675 l 10.614089739890069 -18.754079547950145 a42.549348034158285,42.549348034158285 0 0,0 0.6325822354235052,0.365221523906336 l -10.934464443173972 18.569111126767638" fill="#f0ff19" stroke="none" /><line stroke="#e1ed5e" stroke-width="0.3" x1="143.13028292997686" x2="145.6673583964461" y1="26.7553504044142" y2="22.446841604673864" /><path d="M 143.63769802327073 25.89364864446614 a86.0,86.0 0 0,1 29.32050498858742,28.57503671076993" fill="none" id="id50" stroke="none" /><text fill="#e1ed5e" style="font-size:6.75px; font-family:Arial;" text-anchor="middle"><textPath startOffset="20.669276256404974" xlink:href="#id50">February</textPath></text><path d="M 110.96478420261332 82.08984904055464 l 13.677051671842335 -22.340436035617365 a47.19459533368966,47.19459533368966 0 0,0 0.6873238181093306,0.428940896750019 l -14.058539618741378 22.1023593420258" fill="#b9ff1f" stroke="none" /><path d="M 111.5731344415666 82.4767994020092 l 17.460904910117335 -26.438035512962607 a52.68363808126888,52.68363808126888 0 0,0 0.7503748431743674,0.5048856826529595 l -17.912176041388705 26.13440015625253" fill="#7cff26" stroke="none" /><path d="M 112.16784306229584 82.88440491214696 l 30.576453026789594 -43.00961037629836 a73.77069323422293,73.77069323422293 0 0,0 1.0258306334414165,0.742622268808965 l -31.31026467060498 42.47838733611632" fill="#40ffc8" stroke="none" /><path d="M 113.03279911837588 83.53348406188908 l 22.74506866485714 -28.737651235275905 a57.649566806299646,57.649566806299646 0 0,0 0.7707176890581727,0.6208356140626458 l -23.23503712427057 28.342967327419853" fill="#49ff2c" stroke="none" /><path d="M 113.59037401385872 83.9905735841838 l 17.157363625943734 -20.211331209784532 a47.51175278748026,47.51175278748026 0 0,0 0.61724671965994,0.5331630152978771 l -17.501789825366533 19.913824062021938" fill="#b5ff1f" stroke="none" /><path d="M 114.39649973595853 84.71141617570332 l 23.577715378206662 -25.038716671161815 a55.392528185558554,55.392528185558554 0 0,0 0.6866761506753377,0.6578202191040264 l -24.00406401474731 24.63028432175221" fill="#60ff29" stroke="none" /><path d="M 114.91283532996326 85.21462403516908 l 22.743700500402074 -22.54931106590489 a53.027290581610714,53.027290581610714 0 0,0 0.6353507718830715,0.6519258633000874 l -23.127438073435957 22.155562510537063" fill="#79ff26" stroke="none" /><path d="M 115.41159269507618 85.73525988315684 l 38.87773441953094 -35.98465056784423 a73.97521411080311,73.97521411080311 0 0,0 0.8545979535235818,0.9393528544489089 l -39.489730073896396 35.311960137837644" fill="#40ffca" stroke="none" /><path d="M 117.01052211995028 87.68569379921539 l 17.445252613537743 -12.629017552682246 a42.5366878395008,42.5366878395008 0 0,0 0.42310818324837834,0.5951546470282972 l -17.65947589531608 12.327685678944444" fill="#f0ff19" stroke="none" /><path d="M 117.62189284568427 88.57770195909679 l 14.60094373281457 -9.46415532401281 a38.39993660579995,38.39993660579995 0 0,0 0.3537956369480792,0.5562255051757256 l -14.761257061388541 9.212116144158411" fill="#ffdb14" stroke="none" /><line stroke="#e1ed5e" stroke-width="0.3" x1="172.87174338648825" x2="177.1583165268699" y1="56.24261187166439" y2="53.66864786411523" /><path d="M 173.72905801456457 55.72781907015455 a86.0,86.0 0 0,1 12.242430191666344,42.057860355516425" fill="none" id="id51" stroke="none" /><text fill="#e1ed5e" style="font-size:6.75px; font-family:Arial;" text-anchor="middle"><textPath startOffset="22.145653131862474" xlink:href="#id51">March</textPath></text><path d="M 118.00360718960297 89.18935116829356 l 9.018475880791689 -5.415335644556653 a31.519447103133665,31.519447103133665 0 0,0 0.2745588341589182,0.4662609246962628 l -9.110108425080375 5.259723551566833" fill="#ff820c" stroke="none" /><path d="M 119.16976305983485 91.42560881287824 l 1.3093742372657509 -0.5856664417610415 a22.434387002945964,22.434387002945964 0 0,0 0.15422692194972593,0.35290137944765504 l -1.3192350412324472 0.5631029925375372" fill="#ff0200" stroke="none" /><path d="M 119.4528033332814 92.08871423366111 l 1.2126416576515076 -0.49317080533244034 a22.309090231078073,22.309090231078073 0 0,0 0.14122857217237184,0.3559882592059547 l -1.2209289047900038 0.4722815289129203" fill="#ff0000" stroke="none" /><path d="M 120.16314734710363 94.1308016681162 l 1.2531633300043283 -0.3647775815661973 a22.305174706957203,22.305174706957203 0 0,0 0.10385874368505561,0.3685580418701467 l -1.259240565763966 0.34321161579303744" fill="#ff0000" stroke="none" /><path d="M 120.7213421655516 96.59031103205396 l 2.601211134133496 -0.4280283022447399 a23.636191873112157,23.636191873112157 0 0,0 0.06244288841209167,0.4009281371113607 l -2.608175514683853 0.383311983201938" fill="#ff1302" stroke="none" /><path d="M 120.86939407059847 97.66154086499901 l 5.527410087872775 -0.6193578294202968 a26.56200201369812,26.56200201369812 0 0,0 0.046885231692617026,0.45357208577256264 l -5.537227712047058 0.5243812213648028" fill="#ff3d05" stroke="none" /><line stroke="#e1ed5e" stroke-width="0.3" x1="184.99686870605535" x2="189.99668451229388" y1="99.2704041080226" y2="99.22748670261217" /><path d="M 185.99683186730306 99.26182062694052 a86.0,86.0 0 0,1 -10.086455211305974,41.156179273409016" fill="none" id="id52" stroke="none" /><text fill="#e1ed5e" style="font-size:6.75px; font-family:Arial;" text-anchor="middle"><textPath startOffset="21.40746469413373" xlink:href="#id52">April</textPath></text><path d="M 120.98066250479742 100.90099992219065 l 1.3261403974803283 0.05695017469874611 a22.327362676975476,22.327362676975476 0 0,0 -0.019731445852919405,0.38278477824851426 l -1.3249673621708362 -0.079706746323991" fill="#ff0000" stroke="none" /><path d="M 120.65975698304385 103.76489593502545 l 2.77786661469484 0.5062198328030213 a23.82361496103121,23.82361496103121 0 0,0 -0.07677296931691449,0.40170861663500496 l -2.768767353095766 -0.5538310144713409" fill="#ff1602" stroke="none" /><path d="M 120.51834098615036 104.47187691870673 l 8.480212042648219 1.8482227449507047 a29.6792812837947,29.6792812837947 0 0,0 -0.11276591824865358,0.49686744251183584 l -8.4472352628419 -1.9935245214015573" fill="#ff6909" stroke="none" /><path d="M 120.35273937422433 105.17358676015961 l 2.54241636740379 0.6462722985521762 a23.623270643513283,23.623270643513283 0 0,0 -0.10327927347006324,0.39216822365744597 l -2.5309476131289963 -0.6898210265824253" fill="#ff1302" stroke="none" /><path d="M 120.05942366710727 106.21446072829308 l 5.526695491322858 1.7121843906402316 a26.78583947594128,26.78583947594128 0 0,0 -0.13984157733760236,0.4380517492671428 l -5.496489198208001 -1.806805173598758" fill="#ff4106" stroke="none" /><path d="M 119.83427380445688 106.89939002012753 l 12.375187466317927 4.304732592888553 a34.10251836567266,34.10251836567266 0 0,0 -0.19707980142530174,0.5512672802154046 l -12.299467494848681 -4.516534829484879" fill="#ffa40f" stroke="none" /><path d="M 119.31412917781788 108.2440532568976 l 24.084742372418418 10.280344351476932 a47.18702532038931,47.18702532038931 0 0,0 -0.32439084117484535,0.7422697275129626 l -23.90471764922661 -10.69227614876574" fill="#b9ff1f" stroke="none" /><line stroke="#e1ed5e" stroke-width="0.3" x1="174.33088141563837" x2="178.70328620479359" y1="141.23008692659167" y2="143.65538615756765" /><path d="M 175.20536237346943 141.71514677278685 a86.0,86.0 0 0,1 -30.301960400862466,31.631185727798858" fill="none" id="id53" stroke="none" /><text fill="#e1ed5e" style="font-size:6.75px; font-family:Arial;" text-anchor="middle"><textPath startOffset="22.145653131862474" xlink:href="#id53">May</textPath></text><path d="M 118.18653347947321 110.5 l 26.495135926213614 15.296973859215147 a51.59394771843031,51.59394771843031 0 0,0 -0.4494233064710149,0.7632190277073364 l -26.228638909612833 -15.749544055216033" fill="#88ff25" stroke="none" /><path d="M 116.57777611688842 112.89097897827486 l 6.38401711630053 4.964250323017613 a29.086993001777522,29.086993001777522 0 0,0 -0.30989222696150487,0.39153870538550933 l -6.297858458697464 -5.073108972317806" fill="#ff6108" stroke="none" /><path d="M 114.91283532996324 114.78537596483092 l 1.9052333965787287 1.8889494483030502 a23.682917127621224,23.682917127621224 0 0,0 -0.28871514950302274,0.28624751348039384 l -1.872526326945741 -1.9213769720121057" fill="#ff1402" stroke="none" /><path d="M 114.13192950727249 115.5334660781643 l 9.174362420618285 10.084231412003716 a34.633071884050764,34.633071884050764 0 0,0 -0.44319607827544794,0.3963086660765423 l -8.99990131551946 -10.240235607963644" fill="#ffab0f" stroke="none" /><path d="M 113.31354834802062 116.24036423190432 l 7.41877535946272 9.049699662544455 a32.70193538763689,32.70193538763689 0 0,0 -0.4371925318081601,0.35217135638914077 l -7.262332057299308 -9.175719312727" fill="#ff920d" stroke="none" /><path d="M 111.8722381534696 117.32195027204791 l 6.394264775841642 9.329423402870939 a32.31038297554973,32.31038297554973 0 0,0 -0.4601978800473483,0.3096416716746965 l -6.23317060769729 -9.437814748602756" fill="#ff8c0c" stroke="none" /><path d="M 110.96478420261333 117.91015095944535 l 7.933995674309522 12.959585671061573 a36.19536600827853,36.19536600827853 0 0,0 -0.5327048570273003,0.31987396079116365 l -7.7103580607247855 -13.09387363238866" fill="#ffbf11" stroke="none" /><line stroke="#e1ed5e" stroke-width="0.3" x1="143.1302829299769" x2="145.66735839644613" y1="173.24464959558577" y2="177.55315839532614" /><path d="M 143.63769802327073 174.10635135553383 a86.0,86.0 0 0,1 -40.68552437913181,11.842963189579606" fill="none" id="id54" stroke="none" /><text fill="#e1ed5e" style="font-size:6.75px; font-family:Arial;" text-anchor="middle"><textPath startOffset="21.407464694133747" xlink:href="#id54">June</textPath></text><path d="M 110.34350942703117 118.27599006163325 l 6.738343367366606 11.906007074545828 a34.68058024338401,34.68058024338401 0 0,0 -0.5206311657069399,0.2887853313451179 l -6.532968013503572 -12.01992532132409" fill="#ffac0f" stroke="none" /><path d="M 108.73861861582097 119.09545874513695 l 1.179863956109427 2.5782156756414305 a23.835361533393826,23.835361533393826 0 0,0 -0.37351895327287904,0.1670702768296767 l -1.135431599980921 -2.598089703380958" fill="#ff1602" stroke="none" /><path d="M 108.4095320186766 119.2426549942271 l 4.6587504908994415 10.660132835152911 a32.63367475046303,32.63367475046303 0 0,0 -0.5152467578833273,0.21992820247430217 l -4.475068657845683 -10.738535687286618" fill="#ff910d" stroke="none" /><path d="M 107.407793817531 119.65005319985036 l 5.1916434899516934 13.771451161448411 a35.717541548061504,35.717541548061504 0 0,0 -0.5755811207670695,0.21136136017491924 l -4.954473217530497 -13.858543370632052" fill="#ffb911" stroke="none" /><path d="M 104.9986988182912 120.39639698878246 l 0.6247985179098204 2.5493911660890984 a23.62483685316163,23.62483685316163 0 0,0 -0.39472360118645483,0.09315369510336008 l -0.5809427629834865 -2.5597410048386835" fill="#ff1302" stroke="none" /><path d="M 102.51750503828377 120.84855314841334 l 1.6747797007285221 13.869578440377552 a34.97032902832851,34.97032902832851 0 0,0 -0.5966006380979766,0.06685034588872613 l -1.4364431610297461 -13.896284546773249" fill="#ffb010" stroke="none" /><line stroke="#e1ed5e" stroke-width="0.3" x1="101.45913802915013" x2="101.54496967792366" y1="184.9874750549273" y2="189.98673829345242" /><path d="M 101.47630435890484 185.9873277026323 a86.0,86.0 0 0,1 -42.54439059252881,-10.42667462771756" fill="none" id="id55" stroke="none" /><text fill="#e1ed5e" style="font-size:6.75px; font-family:Arial;" text-anchor="middle"><textPath startOffset="22.145653131862474" xlink:href="#id55">July</textPath></text><path d="M 100.0 121.0 l 1.1509280822679527e-15 9.398040994916034 a30.398040994916034,30.398040994916034 0 0,0 -0.5218227956158378,-0.00447922110328698 l 0.16132987076698446 -9.396656172007182" fill="#ff730a" stroke="none" /><path d="M 98.19965949673042 120.92268563240118 l -1.199182664895822 13.936320306005673 a34.98781836940174,34.98781836940174 0 0,0 -0.5979592042373365,-0.056627358337116726 l 1.4382414325181738 -13.913681192163372" fill="#ffb010" stroke="none" /><path d="M 96.41257539226777 120.69131181640829 l -1.2508651154333392 7.214657581350531 a28.3222911409713,28.3222911409713 0 0,0 -0.47833013971224375,-0.08716768547087961 l 1.3745299886966402 -7.192121721948286" fill="#ff5608" stroke="none" /><path d="M 95.70440661134978 120.55596938700252 l -1.5510782277828188 7.422470816579895 a28.582804012479954,28.582804012479954 0 0,0 -0.47942561007641854,-0.10448858030894184 l 1.6782662544783737 -7.394750778137234" fill="#ff5a08" stroke="none" /><path d="M 94.6519064749342 120.30758222061772 l -5.12216783493994 19.44970557607561 a41.112872751681195,41.112872751681195 0 0,0 -0.6809438954304714,-0.18559428672257372 l 5.4552931313051065 -19.35891079520889" fill="#fffd17" stroke="none" /><path d="M 92.59220618246901 119.65005319985036 l -6.674647919195623 17.70529660154325 a39.921639796641344,39.921639796641344 0 0,0 -0.6391791726844306,-0.2472482351268583 l 6.977599354373582 -17.588108478278354" fill="#ffee16" stroke="none" /><path d="M 91.26138138417905 119.09545874513695 l -7.32478053326523 16.005967377603458 a38.60236920284901,38.60236920284901 0 0,0 -0.6001956769538009,-0.2809218824707254 l 7.59846492409052 -15.877869263562205" fill="#ffde14" stroke="none" /><path d="M 89.97174638481275 118.45085714620012 l -11.5451626910392 21.24179899273778 a45.176534201792435,45.176534201792435 0 0,0 -0.6781983317180796,-0.3761851822239097 l 11.908105210913382 -21.040480895080723" fill="#d0ff1d" stroke="none" /><line stroke="#e1ed5e" stroke-width="0.3" x1="58.13341422392154" x2="55.67067388415222" y1="173.97424548756322" y2="178.32567169271397" /><path d="M 57.64086615596768 174.84453072859336 a86.0,86.0 0 0,1 -31.369924170532247,-30.572349798747897" fill="none" id="id56" stroke="none" /><text fill="#e1ed5e" style="font-size:6.75px; font-family:Arial;" text-anchor="middle"><textPath startOffset="22.145653131862474" xlink:href="#id56">August</textPath></text><path d="M 89.03521579738668 117.91015095944536 l -11.972343864235203 19.555923945656485 a43.92970080423622,43.92970080423622 0 0,0 -0.6397751579748023,-0.3992670161423699 l 12.306283150999718 -19.34752113267257" fill="#dfff1b" stroke="none" /><path d="M 87.54013794807813 116.9041958592261 l -12.983275690431613 17.614306984364454 a42.88216758443237,42.88216758443237 0 0,0 -0.5888068977142237,-0.44185167309271456 l 13.283735577056603 -17.388836284007727" fill="#ecff1a" stroke="none" /><path d="M 86.68645165197938 116.24036423190432 l -13.34995626653501 16.284775972647143 a42.05742768710611,42.05742768710611 0 0,0 -0.554408353472438,-0.4625071666830824 l 13.62753895416934 -16.05320662205219" fill="#f5ff19" stroke="none" /><path d="M 86.13680546590413 115.77377054828092 l -15.528952591546389 17.669097438670576 a44.523294260960355,44.523294260960355 0 0,0 -0.5697602994740164,-0.5094831731060154 l 15.829977917843776 -17.39991873568118" fill="#d8ff1c" stroke="none" /><path d="M 85.60350026404147 115.28858382429668 l -4.473170650348511 4.7503522177284 a27.524959912491145,27.524959912491145 0 0,0 -0.3412144947940806,-0.3268757674285908 l 4.554057631007906 -4.672864319994227" fill="#ff4b07" stroke="none" /><path d="M 84.58840730492382 114.26474011684316 l -13.135073884501313 12.157628292227487 a38.89799127397482,38.89799127397482 0 0,0 -0.44936867217613263,-0.4939348885264077 l 13.341840257519326 -11.930355828143405" fill="#ffe215" stroke="none" /><path d="M 84.1078160697243 113.72728997021213 l -3.9483036484533143 3.4104506536393213 a26.217305373590722,26.217305373590722 0 0,0 -0.2912685654215675,-0.3431136376822156 l 4.0062667773819935 -3.3421702335075514" fill="#ff3805" stroke="none" /><path d="M 83.4222238831116 112.89097897827486 l -17.00237440510639 13.221149175352947 a42.53786249673706,42.53786249673706 0 0,0 -0.44330129023741877,-0.580295619083365 l 17.226827672698107 -12.927332643028711" fill="#f0ff19" stroke="none" /><path d="M 82.78059297857968 112.02048342749411 l -10.837338143526383 7.565303694276895 a34.21672115253142,34.21672115253142 0 0,0 -0.3320818544482888,-0.48451735002650925 l 10.965609734789997 -7.378151609180334" fill="#ffa60f" stroke="none" /><path d="M 81.99639281039703 110.81064883170644 l -5.129133674528027 3.0798973995735914 a26.98279033922112,26.98279033922112 0 0,0 -0.23504103462380965,-0.3991510616694709 l 5.181248419281606 -2.991395169610562" fill="#ff4306" stroke="none" /><line stroke="#e1ed5e" stroke-width="0.3" x1="26.387840678322732" x2="22.057713659400548" y1="142.50000000000003" y2="145.00000000000006" /><path d="M 25.521815274538298 143.00000000000003 a86.0,86.0 0 0,1 -11.493303480769221,-40.785679425670985" fill="none" id="id57" stroke="none" /><text fill="#e1ed5e" style="font-size:6.75px; font-family:Arial;" text-anchor="middle"><textPath startOffset="21.40746469413373" xlink:href="#id57">September</textPath></text><path d="M 80.41425534168474 107.57618678355246 l -16.620457707100453 6.429150089203631 a38.82059441385225,38.82059441385225 0 0,0 -0.23508516407270083,-0.6235913275004928 l 16.72837355498759 -6.142890481508993" fill="#ffe115" stroke="none" /><path d="M 79.94057633289273 106.21446072829308 l -20.597506629898813 6.381160205622278 a42.56331340352273,42.56331340352273 0 0,0 -0.2102296904310577,-0.6997862659437779 l 20.704012640333502 -6.026636336087777" fill="#efff19" stroke="none" /><path d="M 79.56144815229197 104.8234425847677 l -25.740827778267647 6.074765267030931 a47.44792974431006,47.44792974431006 0 0,0 -0.18027759215099398,-0.7943363344653644 l 25.841316231976307 -5.631994598626541" fill="#b6ff1f" stroke="none" /><path d="M 79.17382384314188 102.69636545807758 l -13.567212185567247 1.7565472424723612 a34.68044972591331,34.68044972591331 0 0,0 -0.07137222308241303,-0.5910643925735495 l 13.595366494909321 -1.5233891729754125" fill="#ffac0f" stroke="none" /><path d="M 79.03789590574601 101.26102812881392 l -11.978773265958457 0.7206132537619843 a33.000428843118,33.000428843118 0 0,0 -0.029163595551416403,-0.5657659625803134 l 11.989378450966445 -0.51487549780494" fill="#ff960d" stroke="none" /><line stroke="#e1ed5e" stroke-width="0.3" x1="15.003131293944662" x2="10.003315487706104" y1="100.72959589197737" y2="100.7725132973878" /><path d="M 14.003168132696942 100.73817937305945 a86.0,86.0 0 0,1 10.791469493833604,-42.45332614584628" fill="none" id="id58" stroke="none" /><text fill="#e1ed5e" style="font-size:6.75px; font-family:Arial;" text-anchor="middle"><textPath startOffset="22.145653131862435" xlink:href="#id58">October</textPath></text><path d="M 79.01933749520258 99.09900007780938 l -26.259796623970583 -1.1277086559840033 a47.28399980111623,47.28399980111623 0 0,0 0.04178647049736007,-0.8106463643034183 l 26.236568564016654 1.5783268136641335" fill="#b8ff1f" stroke="none" /><path d="M 79.0935383218832 98.0201363427161 l -15.983701872916411 -1.5136731855573582 a37.05521510522195,37.05521510522195 0 0,0 0.06540705571561393,-0.6327539315507853 l 15.955362424719134 1.7878316393910563" fill="#ffca12" stroke="none" /><path d="M 79.2786578344484 96.59031103205396 l -6.411590073910097 -1.055024706765737 a27.497812278586434,27.497812278586434 0 0,0 0.08064084703528693,-0.4651149762283607 l 6.392534409382576 1.1649327159146903" fill="#ff4b06" stroke="none" /><path d="M 79.64726062577567 94.8264132398404 l -13.927316129354297 -3.5402692977357835 a35.3702345585402,35.3702345585402 0 0,0 0.15463617137515295,-0.5871787300959328 l 13.864490477174419 3.7788285322045008" fill="#ffb510" stroke="none" /><path d="M 79.83685265289637 94.1308016681162 l -7.617979883096308 -2.217482918340912 a28.934157043592833,28.934157043592833 0 0,0 0.1429122498168737,-0.47570839995015285 l 7.578791313275805 2.3479289218817883" fill="#ff5f08" stroke="none" /><path d="M 80.16572619554312 93.10060997987247 l -13.591762241493413 -4.727920451709904 a35.39059528396872,35.39059528396872 0 0,0 0.2045236488431461,-0.5720890462751237 l 13.508598422606322 4.960544454365949" fill="#ffb510" stroke="none" /><path d="M 80.5471966667186 92.08871423366112 l -13.330353328947158 -5.421338649485955 a35.39059528396872,35.39059528396872 0 0,0 0.23370290058836418,-0.5608018848583864 l 13.235324583822315 5.649373043785606" fill="#ffb510" stroke="none" /><path d="M 80.9802524753101 91.09779779509293 l -14.594439140904578 -6.830934434376045 a37.11394796703502,37.11394796703502 0 0,0 0.2750333391746412,-0.5747138989469839 l 14.475026543770031 7.080460835388116" fill="#ffcb12" stroke="none" /><path d="M 81.29705330413844 90.45014215332179 l -13.172431724291354 -6.725937495715141 a35.790239779239016,35.790239779239016 0 0,0 0.28409258003101295,-0.5447849812202382 l 13.0550310752854 6.951068720039866" fill="#ffba11" stroke="none" /><line stroke="#e1ed5e" stroke-width="0.3" x1="26.387840678322718" x2="22.05771365940052" y1="57.49999999999999" y2="54.99999999999999" /><path d="M 25.521815274538284 56.99999999999999 a86.0,86.0 0 0,1 29.574782752854787,-30.34633250058573" fill="none" id="id59" stroke="none" /><text fill="#e1ed5e" style="font-size:6.75px; font-family:Arial;" text-anchor="middle"><textPath startOffset="21.40746469413373" xlink:href="#id59">November</textPath></text><path d="M 81.81346652052679 89.5 l -14.322779586144312 -8.269260649604098 a37.53852129920819,37.53852129920819 0 0,0 0.3269896394513528,-0.5552998945517076 l 14.17871623656318 8.513911712449378" fill="#ffd113" stroke="none" /><path d="M 82.18462484594161 88.88188828441811 l -12.525283426781181 -7.8167032242684105 a35.764266802570575,35.764266802570575 0 0,0 0.32951204277470986,-0.518047661737405 l 12.389253692380581 8.030564560684487" fill="#ffba11" stroke="none" /><path d="M 82.78059297857968 87.97951657250589 l -11.912895580941846 -8.316126317593012 a35.52842173302341,35.52842173302341 0 0,0 0.3533976606232469,-0.49709806686812796 l 11.768382821788627 8.519401611170661" fill="#ffb711" stroke="none" /><path d="M 83.8745106332314 86.54754324733833 l -11.048753398181898 -9.217263047295061 a35.38863752190829,35.38863752190829 0 0,0 0.3931600725684437,-0.4631415768986858 l 10.888898762106338 9.405571406643304" fill="#ffb510" stroke="none" /><path d="M 85.08716467003674 85.21462403516908 l -10.456353904866027 -10.366983895687733 a35.72445897400838,35.72445897400838 0 0,0 0.4355119117300626,-0.4317896100651897 l 10.276850073005988 10.544953515981597" fill="#ffb911" stroke="none" /><path d="M 85.60350026404147 84.71141617570332 l -10.197841268420996 -10.829754031787624 a35.875467687603326,35.875467687603326 0 0,0 0.4519800328727663,-0.4183459707569425 l 10.010431464234276 11.003217748676931" fill="#ffbb11" stroke="none" /><path d="M 86.40962598614128 83.9905735841838 l -9.59742350634997 -11.305740758102129 a35.83004760780122,35.83004760780122 0 0,0 0.4723179421923844,-0.394024425946615 l 9.401931229995679 11.468827367960625" fill="#ffbb11" stroke="none" /><path d="M 86.96720088162412 83.53348406188908 l -16.30124544602187 -20.596091101374064 a47.26651046004301,47.26651046004301 0 0,0 0.640551372796306,-0.4980966218267498 l 15.94528412859032 20.872888774821618" fill="#b8ff1f" stroke="none" /><path d="M 87.83215693770416 82.88440491214696 l -9.861217863455051 -13.8710378790959 a38.019086626309836,38.019086626309836 0 0,0 0.5351727921822397,-0.37359217255681004 l 9.621649980099047 14.038274867457837" fill="#ffd714" stroke="none" /><path d="M 88.4268655584334 82.4767994020092 l -9.921730485992708 -15.022764529616605 a39.00344939029696,39.00344939029696 0 0,0 0.5618620872428938,-0.36419221672568797 l 9.662382766492788 15.190870588046199" fill="#ffe315" stroke="none" /><path d="M 88.72937992617638 82.28071324371311 l -9.400472435376017 -14.779104045380931 a38.51544456736566,38.51544456736566 0 0,0 0.5609240259196356,-0.35005807793543986 l 9.145384280666683 14.938297920157908" fill="#ffdd14" stroke="none" /><line stroke="#e1ed5e" stroke-width="0.3" x1="56.869717070023135" x2="54.33264160355391" y1="26.7553504044142" y2="22.446841604673864" /><path d="M 56.362301976729285 25.89364864446614 a86.0,86.0 0 0,1 42.16139366436587,-11.88097634709845" fill="none" id="id60" stroke="none" /><text fill="#e1ed5e" style="font-size:6.75px; font-family:Arial;" text-anchor="middle"><textPath startOffset="22.145653131862474" xlink:href="#id60">December</textPath></text><path d="M 89.34428304082924 81.90426304109057 l -13.36901808048504 -22.70351544718473 a47.34730077440366,47.34730077440366 0 0,0 0.7039135203927596,-0.4064046604849747 l 12.97731209223188 22.92966700494588" fill="#b7ff1f" stroke="none" /><path d="M 89.97174638481275 81.54914285379989 l -8.752299855599732 -16.103245942226113 a39.328046339917215,39.328046339917215 0 0,0 0.5959344856488585,-0.31730154746462147 l 8.474576554164313 16.25111795741331" fill="#ffe715" stroke="none" /><path d="M 90.93487009805054 81.0573650232925 l -8.54070928064064 -17.846797574358213 a40.78514338276423,40.78514338276423 0 0,0 0.6341337914686053,-0.29680663369951266 l 8.233086775300512 17.990780439628267" fill="#fff917" stroke="none" /><path d="M 91.5904679813234 80.7573450057729 l -1.3395834978600178 -3.0652291980139004 a24.34516277393131,24.34516277393131 0 0,0 0.38438105071915013,-0.1640694138418794 l 1.2867673719704364 3.0877732615151836" fill="#ff1e03" stroke="none" /><path d="M 91.92203290615298 80.6158196554323 l -9.154122326706423 -21.966561142873505 a44.79764198436276,44.79764198436276 0 0,0 0.712379651898369,-0.28971860269881083 l 8.775688213617613 22.12046700215161" fill="#d5ff1c" stroke="none" /><path d="M 92.93061703081487 80.22567764915836 l -10.11351732534258 -28.28930793025041 a51.04277243968228,51.04277243968228 0 0,0 0.8276080664062928,-0.2878850463714743 l 9.626403486891281 28.45875140919047" fill="#8eff24" stroke="none" /><path d="M 93.61358852112211 79.99465700312896 l -8.034872336870395 -25.1691231557484 a47.42052107546397,47.42052107546397 0 0,0 0.7776047917354743,-0.2409039522055972 l 7.6016269122633044 25.303343695760642" fill="#b6ff1f" stroke="none" /><path d="M 94.30408787586887 79.78721728523814 l -4.904563445944781 -17.404565429240687 a39.08241246006787,39.08241246006787 0 0,0 0.6473138071406622,-0.17642825661282624 l 4.605068237869442 17.486194179997653" fill="#ffe415" stroke="none" /><path d="M 95.00130118170881 79.60360301121753 l -7.599266146553192 -31.00759913386825 a52.92522591952665,52.92522591952665 0 0,0 0.8842742872006296,-0.20868632402529508 l 7.065859705612656 31.133481601539778" fill="#7aff26" stroke="none" /><path d="M 98.1996594967304 79.07731436759882 l -2.251382316634564 -26.164475199966297 a47.26115924374448,47.26115924374448 0 0,0 0.8089107607175055,-0.06261480878873014 l 1.8019025611418413 26.19926777575008" fill="#b8ff1f" stroke="none" /><path d="M 99.27912038922189 79.0123766808444 l -1.2658516572709635 -36.853889836134144 a57.87562306554463,57.87562306554463 0 0,0 0.993219237746783,-0.02558180437317307 l 0.6330191054534366 36.870189357857356" fill="#47ff2c" stroke="none" /></svg>