<?xml version="1.0" encoding="utf-8" ?>
<svg baseProfile="full" height="200mm" version="1.1" viewBox="0,0,200,200" width="200mm" xmlns="http://www.w3.org/2000/svg" xmlns:ev="http://www.w3.org/2001/xml-events" xmlns:xlink="http://www.w3.org/1999/xlink"><defs /><rect fill="#1a1a1a" height="200" width="200" x="0" y="0" /><text alignment-baseline="middle" fill="#e1ed5e" style="dominant-baseline: central; font-size:9.0px; font-family:Arial;" text-anchor="middle" x="100.0" y="100.0">2025</text><line stroke="#e1ed5e" stroke-width="0.3" x1="100.0" x2="100.0" y1="15.0" y2="10.0" /><path d="M 100.0 14.0 a86.0,86.0 0 0,1 42.46469731375804,11.215312516191453" fill="none" id="id109" stroke="none" /><text fill="#e1ed5e" style="font-size:6.75px; font-family:Arial;" text-anchor="middle"><textPath startOffset="22.20632615414155" xlink:href="#id109">January</textPath></text><path d="M 101.44485096284872 79.0497635885617 l 3.010930847006847 -43.65828357750858 a64.76198612379942,64.76198612379942 0 0,0 1.111469293114154,0.08627140866512321 l -3.7619903294833423 43.59998690665499" fill="#33ff52" stroke="none" /><path d="M 102.88285421437855 79.19881850522331 l 3.9322014749205625 -28.372727329010324 a49.64391496506259,49.64391496506259 0 0,0 0.8454382821175451,0.12459562602393413 l -4.420008737466763 28.30083721882542" fill="#bfff1e" stroke="none" /><path d="M 103.95276090670814 79.375362276772 l 7.672910017533485 -40.03555821602858 a61.76419347670428,61.76419347670428 0 0,0 1.0424430885864502,0.20910427677502716 l -8.36091951558706 39.89754998317635" fill="#33ff2f" stroke="none" /><path d="M 105.36241919743992 79.69619591428918 l 11.624802241916687 -44.01515408711248 a66.52438705217156,66.52438705217156 0 0,0 1.1046282944376697,0.3019366404453807 l -12.380728425578067 43.808530905840804" fill="#35ff68" stroke="none" /><path d="M 106.74666289553966 80.11325718540242 l 8.327375311241857 -24.546116161336663 a46.920204439396564,46.920204439396564 0 0,0 0.762605245152206,0.26605799588709267 l -8.748662560457337 24.399137312277364" fill="#e2ff1b" stroke="none" /><path d="M 107.08798089147638 80.2323363322302 l 21.26394267442914 -59.302991003309366 a84.0,84.0 0 0,0 1.3568706969096942,0.49974692877470117 l -22.28159569711141 58.92818080672834" fill="#4dd2ff" stroke="none" /><path d="M 108.09893153111575 80.62456947434976 l 16.04580687753827 -38.38709034510299 a62.60572825362337,62.60572825362337 0 0,0 0.9907095406688003,0.42417012229327505 l -16.704200175997386 38.10520069484693" fill="#30ff35" stroke="none" /><line stroke="#e1ed5e" stroke-width="0.3" x1="143.23703022742887" x2="145.7803849466894" y1="26.81831364943548" y2="22.513508569990506" /><path d="M 143.74570117128098 25.957352633546492 a86.0,86.0 0 0,1 28.547481713284135,27.462654790039103" fill="none" id="id110" stroke="none" /><text fill="#e1ed5e" style="font-size:6.75px; font-family:Arial;" text-anchor="middle"><textPath startOffset="19.985693538727396" xlink:href="#id110">February</textPath></text><path d="M 110.99172775467656 82.1063720568725 l 4.043716086001082 -6.582836908397598 a28.725631465889734,28.725631465889734 0 0,0 0.41909444367434684,0.26243690218107785 l -4.156429682047691 6.512255664893576" fill="#ff1802" stroke="none" /><path d="M 112.77801427241765 83.33499621200491 l 19.16049058480881 -24.9889882236975 a52.489266931680696,52.489266931680696 0 0,0 0.7122729656702694,0.555940347592218 l -19.58779610563851 24.65546948688206" fill="#9cff22" stroke="none" /><path d="M 114.68862486808459 84.99185889309783 l 4.468060557759773 -4.565252631016851 a27.38788671884645,27.38788671884645 0 0,0 0.3340855279257769,0.33265085849683246 l -4.545981885852872 4.4876659218699" fill="#ff0200" stroke="none" /><path d="M 116.60985879189232 87.15038557335679 l 4.937804543743165 -3.819953275713429 a27.2429125206785,27.2429125206785 0 0,0 0.28374668698295863,0.37337737965678475 l -5.002827170950237 3.7343911201756104" fill="#ff0000" stroke="none" /><line stroke="#e1ed5e" stroke-width="0.3" x1="172.23445277983987" x2="176.4835382374775" y1="55.19839476539836" y2="52.563006222186495" /><path d="M 173.08426987136738 54.67131705675599 a86.0,86.0 0 0,1 12.851231095245387,41.99856678651699" fill="none" id="id111" stroke="none" /><text fill="#e1ed5e" style="font-size:6.75px; font-family:Arial;" text-anchor="middle"><textPath startOffset="22.20632615414155" xlink:href="#id111">March</textPath></text><path d="M 118.03404312379186 89.2402003453031 l 27.92295574617264 -16.659903025263095 a53.51528604231994,53.51528604231994 0 0,0 0.4651760826180301,0.7951367142368596 l -28.205591503260997 16.17678689867234" fill="#90ff24" stroke="none" /><path d="M 118.73160827565052 90.50648371742162 l 31.554904425679943 -15.992593617805303 a56.37619318041531,56.37619318041531 0 0,0 0.4312509972494322,0.8693756951623043 l -31.82551543588278 15.44705833414405" fill="#6fff28" stroke="none" /><path d="M 119.7369772167798 92.82701384747503 l 24.369155761417684 -8.8564532909712 a46.92860423199427,46.92860423199427 0 0,0 0.26938565057441155,0.7615895100356985 l -24.517994492801904 8.435666154508887" fill="#e2ff1b" stroke="none" /><line stroke="#e1ed5e" stroke-width="0.3" x1="184.98032266829074" x2="189.97916517819016" y1="98.17113171792111" y2="98.06355123074" /><path d="M 185.9800911702706 98.14961562048488 a86.0,86.0 0 0,1 -9.607161424134198,41.387399972396054" fill="none" id="id112" stroke="none" /><text fill="#e1ed5e" style="font-size:6.75px; font-family:Arial;" text-anchor="middle"><textPath startOffset="21.466115282336823" xlink:href="#id112">April</textPath></text><line stroke="#e1ed5e" stroke-width="0.3" x1="174.80103733775053" x2="179.2010983576182" y1="140.37084112569926" y2="142.7455964860345" /><path d="M 175.68104954172406 140.8457921977663 a86.0,86.0 0 0,1 -30.038265399797805,32.042727171017184" fill="none" id="id113" stroke="none" /><text fill="#e1ed5e" style="font-size:6.75px; font-family:Arial;" text-anchor="middle"><textPath startOffset="22.206326154141568" xlink:href="#id113">May</textPath></text><line stroke="#e1ed5e" stroke-width="0.3" x1="143.8653032363475" x2="146.44561519142675" y1="172.8068346515853" y2="177.08958963109032" /><path d="M 144.38136562736335 173.6633856474863 a86.0,86.0 0 0,1 -40.68145358897372,12.25698825130547" fill="none" id="id114" stroke="none" /><text fill="#e1ed5e" style="font-size:6.75px; font-family:Arial;" text-anchor="middle"><textPath startOffset="21.466115282336833" xlink:href="#id114">June</textPath></text><line stroke="#e1ed5e" stroke-width="0.3" x1="102.19456741930631" x2="102.32365962044197" y1="184.97166512339345" y2="189.96999836594603" /><path d="M 102.22038585953345 185.97133177190398 a86.0,86.0 0 0,1 -42.740103519485714,-10.115201625700543" fill="none" id="id115" stroke="none" /><text fill="#e1ed5e" style="font-size:6.75px; font-family:Arial;" text-anchor="middle"><textPath startOffset="22.20632615414155" xlink:href="#id115">July</textPath></text><line stroke="#e1ed5e" stroke-width="0.3" x1="58.666819895761336" x2="56.23545636021788" y1="174.27360380694188" y2="178.64263932499728" /><path d="M 58.180547188652646 175.14741091055294 a86.0,86.0 0 0,1 -31.652253787137756,-30.449443065178592" fill="none" id="id116" stroke="none" /><text fill="#e1ed5e" style="font-size:6.75px; font-family:Arial;" text-anchor="middle"><textPath startOffset="22.20632615414155" xlink:href="#id116">August</textPath></text><line stroke="#e1ed5e" stroke-width="0.3" x1="26.63291911575756" x2="22.317208475507996" y1="142.92168965132927" y2="145.44649492493687" /><path d="M 25.769776987707644 143.4266507060508 a86.0,86.0 0 0,1 -11.730757126820373,-40.83630448921669" fill="none" id="id117" stroke="none" /><text fill="#e1ed5e" style="font-size:6.75px; font-family:Arial;" text-anchor="middle"><textPath startOffset="21.46611528233685" xlink:href="#id117">September</textPath></text><line stroke="#e1ed5e" stroke-width="0.3" x1="15.007084014347285" x2="10.007500721073583" y1="101.09737516637583" y2="101.16192664675087" /><path d="M 14.007167355692545 101.11028546245083 a86.0,86.0 0 0,1 10.666146001902534,-42.60595125391555" fill="none" id="id118" stroke="none" /><text fill="#e1ed5e" style="font-size:6.75px; font-family:Arial;" text-anchor="middle"><textPath startOffset="22.20632615414155" xlink:href="#id118">October</textPath></text><line stroke="#e1ed5e" stroke-width="0.3" x1="26.266209847984243" x2="21.928928074336255" y1="57.711370442889674" y2="55.22380399835377" /><path d="M 25.398753493254645 57.213857153982495 a86.0,86.0 0 0,1 29.58750427330803,-30.492523968695096" fill="none" id="id119" stroke="none" /><text fill="#e1ed5e" style="font-size:6.75px; font-family:Arial;" text-anchor="middle"><textPath startOffset="21.46611528233685" xlink:href="#id119">November</textPath></text><line stroke="#e1ed5e" stroke-width="0.3" x1="56.762969772571076" x2="54.21961505331055" y1="26.818313649435495" y2="22.513508569990535" /><path d="M 56.25429882871897 25.957352633546506 a86.0,86.0 0 0,1 42.265352541879196,-11.944610805530505" fill="none" id="id120" stroke="none" /><text fill="#e1ed5e" style="font-size:6.75px; font-family:Arial;" text-anchor="middle"><textPath startOffset="22.20632615414155" xlink:href="#id120">December</textPath></text></svg>