<?xml version="1.0" encoding="utf-8" ?>
<svg baseProfile="full" height="200mm" version="1.1" viewBox="0,0,200,200" width="200mm" xmlns="http://www.w3.org/2000/svg" xmlns:ev="http://www.w3.org/2001/xml-events" xmlns:xlink="http://www.w3.org/1999/xlink"><defs /><rect fill="#1a1a1a" height="200" width="200" x="0" y="0" /><text alignment-baseline="middle" fill="#e1ed5e" style="dominant-baseline: central; font-size:9.0px; font-family:Arial;" text-anchor="middle" x="100.0" y="100.0">2017</text><line stroke="#e1ed5e" stroke-width="0.3" x1="100.0" x2="100.0" y1="15.0" y2="10.0" /><path d="M 100.0 14.0 a86.0,86.0 0 0,1 42.46469731375804,11.215312516191453" fill="none" id="id13" stroke="none" /><text fill="#e1ed5e" style="font-size:6.75px; font-family:Arial;" text-anchor="middle"><textPath startOffset="22.20632615414155" xlink:href="#id13">January</textPath></text><path d="M 100.36148047927253 79.00311137660856 l 0.45645321528054955 -26.513457496577416 a47.51738633350876,47.51738633350876 0 0,0 0.8176913231469268,0.021118554452496975 l -0.9127711736223443 26.50167214998256" fill="#b6ff1f" stroke="none" /><path d="M 100.72285384407766 79.0124445844662 l 0.16672639453242669 -4.8407841684044755 a25.843654514486886,25.843654514486886 0 0,0 0.4444606072604656,0.019139408696358506 l -0.25002783418222385 4.837197033183922" fill="#ff3304" stroke="none" /><path d="M 101.08401301168833 79.027996857942 l 0.29399988026674845 -5.687908121246499 a26.695501270769654,26.695501270769654 0 0,0 0.4587023801782885,0.02767018023421872 l -0.3918643092846489 5.682004671631977" fill="#ff3f05" stroke="none" /><path d="M 101.44485096284872 79.0497635885617 l 0.24940211694730438 -3.6163129941494843 a24.624902907333134,24.624902907333134 0 0,0 0.42262174256203183,0.03280358106986486 l -0.31161404887167743 3.6114841508911546" fill="#ff2103" stroke="none" /><path d="M 102.52436894288641 79.15227682838746 l 3.3411037521044946 -27.59279950254278 a48.794344005028286,48.794344005028286 0 0,0 0.8329549360916246,0.10814145667142715 l -3.815573416703965 27.531199722707218" fill="#a7ff21" stroke="none" /><path d="M 103.2404852339499 79.25152402106235 l 1.3108595414348287 -8.393291665788295 a29.495039595220376,29.495039595220376 0 0,0 0.500953294637741,0.08266158594868854 l -1.455142042211445 8.369483816899981" fill="#ff6609" stroke="none" /><path d="M 103.59715602781102 79.31037775812273 l 3.1261517442738085 -17.980565246476047 a39.25030277313252,39.25030277313252 0 0,0 0.6646475792530602,0.1214600967880852 l -3.4351944446297695 17.924089668337224" fill="#ffe615" stroke="none" /><path d="M 103.95276090670814 79.375362276772 l 0.8628488027778397 -4.50215542685947 a25.58409331755532,25.58409331755532 0 0,0 0.4318029550032979,0.08661561058236733 l -0.9402181672482629 4.486635860199894" fill="#ff2f04" stroke="none" /><path d="M 105.71112130821622 79.79150937346287 l 5.5553363188258755 -19.657253955496568 a41.427172948946,41.427172948946 0 0,0 0.6845540126356039,0.19984008799533867 l -5.892880549184906 19.558715538582526" fill="#fdff18" stroke="none" /><path d="M 106.0581310904928 79.89281104454417 l 3.6518281890148123 -12.120569583681293 a33.658754131230424,33.658754131230424 0 0,0 0.5533092505921088,0.17191587753038945 l -3.8599228123176395 12.055913571268384" fill="#ff9e0e" stroke="none" /><path d="M 106.74666289553966 80.11325718540242 l 9.039686578131576 -26.645754336224748 a49.1373800766399,49.1373800766399 0 0,0 0.7986415282542836,0.27863034747044046 l -9.497010110449134 26.486203135582098" fill="#a3ff21" stroke="none" /><path d="M 107.08798089147638 80.2323363322302 l 9.144513342955833 -25.50312521106865 a48.09301607076891,48.09301607076891 0 0,0 0.776857193243254,0.286123060439037 l -9.582152861971664 25.341938882823285" fill="#afff20" stroke="none" /><path d="M 108.43124777332544 80.76684994638697 l 25.2937433199763 -57.69945016083909 a84.0,84.0 0 0,0 1.3192715261328791,0.591918677933875 l -26.283196964575957 57.255511152388685" fill="#4dd2ff" stroke="none" /><line stroke="#e1ed5e" stroke-width="0.3" x1="143.23703022742887" x2="145.7803849466894" y1="26.81831364943548" y2="22.513508569990506" /><path d="M 143.74570117128098 25.957352633546492 a86.0,86.0 0 0,1 28.547481713284135,27.462654790039103" fill="none" id="id14" stroke="none" /><text fill="#e1ed5e" style="font-size:6.75px; font-family:Arial;" text-anchor="middle"><textPath startOffset="19.985693538727396" xlink:href="#id14">February</textPath></text><path d="M 110.99172775467656 82.1063720568725 l 5.613001362374704 -9.137504154419096 a31.723794406181355,31.723794406181355 0 0,0 0.46283633429209037,0.2898280700730201 l -5.769456849039058 9.039531743023131" fill="#ff840c" stroke="none" /><path d="M 113.89432698308785 84.25364557470407 l 0.9194453838887051 -1.0420017397774164 a22.389657310150028,22.389657310150028 0 0,0 0.2867891337105466,0.25748211589128467 l -0.9372455051952417 1.0260206151168345" fill="#ff0100" stroke="none" /><path d="M 117.65298651832404 88.62581576622439 l 5.0207617453346955 -3.234980609431254 a26.97270023078444,26.97270023078444 0 0,0 0.248113397110376,0.3924558096674171 l -5.075702738691027 3.1480771520496305" fill="#ff4306" stroke="none" /><line stroke="#e1ed5e" stroke-width="0.3" x1="172.23445277983987" x2="176.4835382374775" y1="55.19839476539836" y2="52.563006222186495" /><path d="M 173.08426987136738 54.67131705675599 a86.0,86.0 0 0,1 12.851231095245387,41.99856678651699" fill="none" id="id15" stroke="none" /><text fill="#e1ed5e" style="font-size:6.75px; font-family:Arial;" text-anchor="middle"><textPath startOffset="22.20632615414155" xlink:href="#id15">March</textPath></text><path d="M 118.21658344932153 89.55222093294921 l 5.850993903417109 -3.3557275872078987 a27.74500091159166,27.74500091159166 0 0,0 0.23403880494394969,0.41632891924365273 l -5.907890349653492 3.254515158029452" fill="#ff4d07" stroke="none" /><path d="M 119.47837535516314 92.15188598940014 l 2.317911074654685 -0.9339192847775183 a23.498983189316444,23.498983189316444 0 0,0 0.1479389118499583,0.37648839418965485 l -2.3336435363863437 0.893881885692079" fill="#ff1101" stroke="none" /><path d="M 119.85752413597 93.16781622104841 l 5.444000338000043 -1.8730638596841351 a26.75721355367329,26.75721355367329 0 0,0 0.14609783415194535,0.4368139284309913 l -5.475435465923759 1.7790768283308298" fill="#ff4006" stroke="none" /><path d="M 120.37134235888165 94.90015583598534 l 1.624290229137735 -0.4066313795036946 a22.674415667410393,22.674415667410393 0 0,0 0.091526034373742,0.3794345013819693 l -1.6310490637722965 0.37861164646231915" fill="#ff0500" stroke="none" /><path d="M 120.6074358757038 95.95851677861258 l 3.456383645551629 -0.677858060286103 a24.522226491174525,24.522226491174525 0 0,0 0.07767038777042594,0.41491831722583833 l -3.467539757231914 0.6182616655977018" fill="#ff2003" stroke="none" /><path d="M 120.83666639777658 97.38593545837742 l 21.289991182492862 -2.670936414644068 a42.45687828836468,42.45687828836468 0 0,0 0.0847310848397597,0.7259241905055689 l -21.33281262033621 2.3040684858136466" fill="#f1ff19" stroke="none" /><path d="M 120.91429891909075 98.10471618934814 l 13.610851316313436 -1.2334348977603675 a34.666624865042735,34.666624865042735 0 0,0 0.04874047587506309,0.5947572607740004 l -13.630066276007994 0.9989637197785983" fill="#ffab0f" stroke="none" /><path d="M 120.94382443527127 98.46500227214037 l 6.628433910219012 -0.485805781217252 a27.646212707941675,27.646212707941675 0 0,0 0.030699682919781777,0.4749105067677385 l -6.63581418414321 0.37163621019647824" fill="#ff4c07" stroke="none" /><line stroke="#e1ed5e" stroke-width="0.3" x1="184.98032266829074" x2="189.97916517819016" y1="98.17113171792111" y2="98.06355123074" /><path d="M 185.9800911702706 98.14961562048488 a86.0,86.0 0 0,1 -9.607161424134198,41.387399972396054" fill="none" id="id16" stroke="none" /><text fill="#e1ed5e" style="font-size:6.75px; font-family:Arial;" text-anchor="middle"><textPath startOffset="21.466115282336823" xlink:href="#id16">April</textPath></text><path d="M 120.99513854157772 99.54816195383933 l 12.536525496329627 -0.2697995621551781 a33.53942834916576,33.53942834916576 0 0,0 0.007453727303878374,0.5772993939810692 l -12.539312230751221 0.05396391011364615" fill="#ff9c0e" stroke="none" /><path d="M 120.92983693683757 101.71520430193887 l 13.545836722916063 1.1100840150175446 a34.591246412463384,34.591246412463384 0 0,0 -0.05374063711837082,0.5930234524661575 l -13.524721489520616 -1.3430888560322727" fill="#ffaa0f" stroke="none" /><path d="M 120.8583938346157 102.4346265915055 l 12.310417171877921 1.4368924681746582 a33.393991726266556,33.393991726266556 0 0,0 -0.07155615370977314,0.5703729497945449 l -12.2838595089213 -1.6485831722565978" fill="#ff9a0e" stroke="none" /><path d="M 120.81339534386255 102.79330883721812 l 6.900174661490672 0.9260535603084101 a27.96203889357405,27.96203889357405 0 0,0 -0.06812877407144852,0.476492487177399 l -6.883211836402622 -1.0446915194662185" fill="#ff5007" stroke="none" /><path d="M 120.49622156327973 104.57218783832717 l 41.48168191786346 9.253512458023128 a63.50126383468602,63.50126383468602 0 0,0 -0.24716939850199468,1.064799299722429 l -41.316251953430914 -9.966180415094122" fill="#33ff56" stroke="none" /><line stroke="#e1ed5e" stroke-width="0.3" x1="174.80103733775053" x2="179.2010983576182" y1="140.37084112569926" y2="142.7455964860345" /><path d="M 175.68104954172406 140.8457921977663 a86.0,86.0 0 0,1 -30.038265399797805,32.042727171017184" fill="none" id="id17" stroke="none" /><text fill="#e1ed5e" style="font-size:6.75px; font-family:Arial;" text-anchor="middle"><textPath startOffset="22.206326154141568" xlink:href="#id17">May</textPath></text><path d="M 116.71984013943494 112.70617746262583 l 3.0057733111628226 2.284225733353812 a24.77522984717679,24.77522984717679 0 0,0 -0.2609577116214734,0.3373230197242857 l -2.966008782323281 -2.3356267471913505" fill="#ff2303" stroke="none" /><path d="M 116.0416608686014 113.55231037782055 l 11.998688048496716 10.13672748051622 a36.707379122545895,36.707379122545895 0 0,0 -0.4119223259168169,0.4791587260595165 l -11.82242321300912 -10.341763305737263" fill="#ffc612" stroke="none" /><path d="M 115.32070863581623 114.36230785411682 l 4.029837079754295 3.777746977451267 a26.52367261113517,26.52367261113517 0 0,0 -0.3151182166594009,0.33040019034135387 l -3.96421231171593 -3.846554284375128" fill="#ff3c05" stroke="none" /><path d="M 115.07121518719521 114.62390073753431 l 3.728624248482682 3.617958487096744 a26.195407818519005,26.195407818519005 0 0,0 -0.3167890188574487,0.3209056035889159 l -3.6657946045696974 -3.681604584666325" fill="#ff3805" stroke="none" /><path d="M 114.81725581225074 114.88116024355365 l 3.610278601750285 3.625849150292693 a26.116726848575585,26.116726848575585 0 0,0 -0.3212979821484703,0.3144576997934113 l -3.5473306672260203 -3.6874569530086765" fill="#ff3605" stroke="none" /><path d="M 114.29624159901734 115.38237550388516 l 3.6043267061426167 3.878159616187389 a26.294458708238228,26.294458708238228 0 0,0 -0.3341906131311298,0.3052752015123283 l -3.537036543544623 -3.9396275842863004" fill="#ff3905" stroke="none" /><path d="M 112.63410532772338 116.77436683061366 l 1.7707503024032687 2.351034312873259 a23.943283705959843,23.943283705959843 0 0,0 -0.33134657630877273,0.24512227577535997 l -1.7300187556759319 -2.3811665373883883" fill="#ff1702" stroke="none" /><path d="M 112.34349029814194 116.9893568818739 l 21.17377968377315 29.143207544785202 a57.02298560773926,57.02298560773926 0 0,0 -0.7990622070868585,0.570109668339017 l -20.66899014883741 -29.503361474968436" fill="#4fff2b" stroke="none" /><line stroke="#e1ed5e" stroke-width="0.3" x1="143.8653032363475" x2="146.44561519142675" y1="172.8068346515853" y2="177.08958963109032" /><path d="M 144.38136562736335 173.6633856474863 a86.0,86.0 0 0,1 -40.68145358897372,12.25698825130547" fill="none" id="id18" stroke="none" /><text fill="#e1ed5e" style="font-size:6.75px; font-family:Arial;" text-anchor="middle"><textPath startOffset="21.466115282336833" xlink:href="#id18">June</textPath></text><path d="M 109.2508944713604 118.85261126421891 l 3.5853853852259263 7.306739592515976 a29.139006808783993,29.139006808783993 0 0,0 -0.4521920564779842,0.21707966677545035 l -3.4590806607477096 -7.367373535790986" fill="#ff6108" stroke="none" /><path d="M 108.92500713936063 119.00905698771935 l 2.127963408199474 4.5322739873060875 a26.006968719958948,26.006968719958948 0 0,0 -0.40686293131343537,0.18677081639938556 l -2.0496324811186195 -4.568231874039547" fill="#ff3505" stroke="none" /><path d="M 105.88484417918355 120.15858648285463 l 3.0484660474063157 10.442547769414693 a31.87841666598117,31.87841666598117 0 0,0 -0.5280717889652161,0.14923836232809876 l -2.8682630903364936 -10.49347492508131" fill="#ff860c" stroke="none" /><line stroke="#e1ed5e" stroke-width="0.3" x1="102.19456741930631" x2="102.32365962044197" y1="184.97166512339345" y2="189.96999836594603" /><path d="M 102.22038585953345 185.97133177190398 a86.0,86.0 0 0,1 -42.740103519485714,-10.115201625700543" fill="none" id="id19" stroke="none" /><text fill="#e1ed5e" style="font-size:6.75px; font-family:Arial;" text-anchor="middle"><textPath startOffset="22.20632615414155" xlink:href="#id19">July</textPath></text><path d="M 99.45781275523022 120.99299961872073 l -0.1734345233961934 6.7152278454563765 a27.717467123127463,27.717467123127463 0 0,0 -0.4768455607006254,-0.01642352526339016 l 0.28900043577146184 -6.711247521766893" fill="#ff4d07" stroke="none" /><line stroke="#e1ed5e" stroke-width="0.3" x1="58.666819895761336" x2="56.23545636021788" y1="174.27360380694188" y2="178.64263932499728" /><path d="M 58.180547188652646 175.14741091055294 a86.0,86.0 0 0,1 -31.652253787137756,-30.449443065178592" fill="none" id="id20" stroke="none" /><text fill="#e1ed5e" style="font-size:6.75px; font-family:Arial;" text-anchor="middle"><textPath startOffset="22.20632615414155" xlink:href="#id20">August</textPath></text><path d="M 87.95078237400918 117.19931262002967 l -3.661213902269448 5.226095538194987 a27.38095304891931,27.38095304891931 0 0,0 -0.3836888676071263,-0.27375181946641086 l 3.750630097725461 -5.162299456884357" fill="#ff4806" stroke="none" /><line stroke="#e1ed5e" stroke-width="0.3" x1="26.63291911575756" x2="22.317208475507996" y1="142.92168965132927" y2="145.44649492493687" /><path d="M 25.769776987707644 143.4266507060508 a86.0,86.0 0 0,1 -11.730757126820373,-40.83630448921669" fill="none" id="id21" stroke="none" /><text fill="#e1ed5e" style="font-size:6.75px; font-family:Arial;" text-anchor="middle"><textPath startOffset="21.46611528233685" xlink:href="#id21">September</textPath></text><line stroke="#e1ed5e" stroke-width="0.3" x1="15.007084014347285" x2="10.007500721073583" y1="101.09737516637583" y2="101.16192664675087" /><path d="M 14.007167355692545 101.11028546245083 a86.0,86.0 0 0,1 10.666146001902534,-42.60595125391555" fill="none" id="id22" stroke="none" /><text fill="#e1ed5e" style="font-size:6.75px; font-family:Arial;" text-anchor="middle"><textPath startOffset="22.20632615414155" xlink:href="#id22">October</textPath></text><path d="M 79.32604984820605 96.31383870115002 l -7.202975541651939 -1.2842891408392234 a28.316574010485617,28.316574010485617 0 0,0 0.08968840103144178,-0.4791190246228142 l 7.179801416710635 1.4080862429246104" fill="#ff5507" stroke="none" /><path d="M 79.3925641242962 95.95851677861259 l -3.8750522977787796 -0.7599663994071171 a24.94887062826176,24.94887062826176 0 0,0 0.08627640719762289,-0.42071440193796933 l 3.861396594666162 0.8265564575084889" fill="#ff2603" stroke="none" /><path d="M 79.81627453868168 94.20196356495316 l -6.879498566424744 -1.9762250244350044 a28.157720717703594,28.157720717703594 0 0,0 0.1378308400264497,-0.46469707318829584 l 6.844461829286588 2.0943514843698394" fill="#ff5307" stroke="none" /><path d="M 79.91906864156998 93.8553929516997 l -6.229133220794552 -1.9060657700633796 a27.514229609264138,27.514229609264138 0 0,0 0.1424772184928567,-0.45169171803329666 l 6.195400518533491 2.013007654523091" fill="#ff4a06" stroke="none" /><path d="M 80.02781315780177 93.51064311812611 l -1.5131825303738637 -0.49166280811401597 a22.591054269065392,22.591054269065392 0 0,0 0.12335006757332344,-0.3688010017512912 l 1.5044951690287678 0.5176369127876294" fill="#ff0400" stroke="none" /><path d="M 80.52162464483688 92.15188598940014 l -1.2532569550978954 -0.5049550226260712 a22.35115971312667,22.35115971312667 0 0,0 0.1468559673025881,-0.35562337333405203 l 1.2443793009091075 0.5264529664134345" fill="#ff0000" stroke="none" /><path d="M 80.65960295795068 91.81776055985345 l -4.768702587242609 -2.0174697708031584 a26.177905816223284,26.177905816223284 0 0,0 0.17914325060260033,-0.4134873215320334 l 4.7332686267973285 2.099256236921791" fill="#ff3705" stroke="none" /><line stroke="#e1ed5e" stroke-width="0.3" x1="26.266209847984243" x2="21.928928074336255" y1="57.711370442889674" y2="55.22380399835377" /><path d="M 25.398753493254645 57.213857153982495 a86.0,86.0 0 0,1 29.58750427330803,-30.492523968695096" fill="none" id="id23" stroke="none" /><text fill="#e1ed5e" style="font-size:6.75px; font-family:Arial;" text-anchor="middle"><textPath startOffset="21.46611528233685" xlink:href="#id23">November</textPath></text><path d="M 81.78341655067845 89.55222093294921 l -5.575024593293903 -3.1974505760726886 a27.426864663446665,27.426864663446665 0 0,0 0.2384051811392331,-0.40751173474185276 l 5.519159737684345 3.292941723168433" fill="#ff4906" stroke="none" /><path d="M 82.95767976084542 87.72973835380427 l -5.675088292354889 -4.085993998192292 a27.99299464316161,27.99299464316161 0 0,0 0.2849118829975818,-0.3886194882182908 l 5.603913796843674 4.183075930082083" fill="#ff5107" stroke="none" /><path d="M 83.17141714833178 87.43820079747576 l -5.767883576407894 -4.305472180813541 a28.197608745323354,28.197608745323354 0 0,0 0.2936902600356808,-0.3864619562216365 l 5.692917376148105 4.404118912916204" fill="#ff5407" stroke="none" /><path d="M 88.39885842347998 82.49532879139004 l -2.743493348088367 -4.139588221084449 a25.96618026164438,25.96618026164438 0 0,0 0.374695658747973,-0.24371247928750256 l 2.6718306635561064 4.186199624531487" fill="#ff3405" stroke="none" /><path d="M 89.00827224532344 82.1063720568725 l -5.215687961007245 -8.490710643920892 a30.96471615980041,30.96471615980041 0 0,0 0.4565643205655985,-0.27507489460772616 l 5.0687615742239975 8.579232147987238" fill="#ff7a0b" stroke="none" /><line stroke="#e1ed5e" stroke-width="0.3" x1="56.762969772571076" x2="54.21961505331055" y1="26.818313649435495" y2="22.513508569990535" /><path d="M 56.25429882871897 25.957352633546506 a86.0,86.0 0 0,1 42.265352541879196,-11.944610805530505" fill="none" id="id24" stroke="none" /><text fill="#e1ed5e" style="font-size:6.75px; font-family:Arial;" text-anchor="middle"><textPath startOffset="22.20632615414155" xlink:href="#id24">December</textPath></text><path d="M 89.63071344664047 81.73862282372117 l -4.944796041294307 -8.708293006001462 a31.01425858305915,31.01425858305915 0 0,0 0.46650748484185417,-0.25961091023755645 l 4.794164467380408 8.792119313799203" fill="#ff7a0b" stroke="none" /><path d="M 89.94658935756843 81.56283822128135 l -9.328239390540517 -17.10725492780765 a40.48523085037051,40.48523085037051 0 0,0 0.6147103047183671,-0.32835695601456033 l 9.032384039293845 17.26529061032396" fill="#fff517" stroke="none" /><path d="M 90.58718382345135 81.22770947309562 l -3.5528384606160017 -7.0855432133062335 a28.92638528932718,28.92638528932718 0 0,0 0.44702110323398103,-0.21935131396557742 l 3.4303460903715948 7.145649687406641" fill="#ff5e08" stroke="none" /><path d="M 91.23893434514133 80.91482961587045 l -2.9716448965631193 -6.47345327683782 a28.122939752565085,28.122939752565085 0 0,0 0.44168801960369297,-0.19817253949943578 l 2.859774758492652 6.523646146853785" fill="#ff5307" stroke="none" /><path d="M 94.28887869178378 79.79150937346287 l -1.4565141497778602 -5.153795717989707 a26.355655307361758,26.355655307361758 0 0,0 0.43763203031281167,-0.11962136553021148 l 1.367584230241326 5.178103624346215" fill="#ff3a05" stroke="none" /><path d="M 98.19473922651362 79.07773832637324 l -0.520490440721692 -6.03227930243548 a27.054692715693683,27.054692715693683 0 0,0 0.4643226989773046,-0.03604037787110727 l 0.41657755238205324 6.040344942495049" fill="#ff4406" stroke="none" /><path d="M 98.91598698831166 79.02799685794201 l -0.4512888434785412 -8.730920147044122 a29.742575606439395,29.742575606439395 0 0,0 0.5115144689818688,-0.02202688903362993 l 0.30093354210734824 8.737394762601944" fill="#ff6909" stroke="none" /></svg>