<?xml version="1.0" encoding="utf-8" ?>
<svg baseProfile="full" height="200mm" version="1.1" viewBox="0,0,200,200" width="200mm" xmlns="http://www.w3.org/2000/svg" xmlns:ev="http://www.w3.org/2001/xml-events" xmlns:xlink="http://www.w3.org/1999/xlink"><defs /><rect fill="#1a1a1a" height="200" width="200" x="0" y="0" /><text alignment-baseline="middle" fill="#e1ed5e" style="dominant-baseline: central; font-size:9.0px; font-family:Arial;" text-anchor="middle" x="100.0" y="100.0">2021</text><line stroke="#e1ed5e" stroke-width="0.3" x1="100.0" x2="100.0" y1="15.0" y2="10.0" /><path d="M 100.0 14.0 a86.0,86.0 0 0,1 42.46469731375804,11.215312516191453" fill="none" id="id61" stroke="none" /><text fill="#e1ed5e" style="font-size:6.75px; font-family:Arial;" text-anchor="middle"><textPath startOffset="22.20632615414155" xlink:href="#id61">January</textPath></text><path d="M 101.08401301168833 79.027996857942 l 2.0197936934443534 -39.07620962893278 a60.12837494106261,60.12837494106261 0 0,0 1.0331714104922216,0.06232372094962782 l -2.692127152776187 39.03565263860285" fill="#33ff2f" stroke="none" /><path d="M 102.16513564639614 79.11191278185805 l 4.899400491850533 -47.26683289369186 a68.52007593617392,68.52007593617392 0 0,0 1.172128226395986,0.13170226348979472 l -5.712295421756244 47.17549467673146" fill="#39ff8e" stroke="none" /><path d="M 103.2404852339499 79.25152402106235 l 7.287020764526137 -46.65800470459041 a68.22361776310892,68.22361776310892 0 0,0 1.1587319956021902,0.19120070767321734 l -8.089081966267202 46.525657733977575" fill="#39ff8b" stroke="none" /><path d="M 103.95276090670814 79.375362276772 l 9.611184198244102 -50.14904692150542 a72.06174467081917,72.06174467081917 0 0,0 1.2162429954162706,0.24396690306045515 l -10.472993603127497 49.97617606236776" fill="#3effb5" stroke="none" /><path d="M 105.36241919743992 79.69619591428918 l 5.928575796579023 -22.44745087040092 a44.21715016006154,44.21715016006154 0 0,0 0.7342196949202663,0.20068997793136523 l -6.314093380723 22.342074351643262" fill="#e1ff1b" stroke="none" /><path d="M 106.0581310904928 79.89281104454417 l 13.435845416630922 -44.59412953154131 a67.57422388763432,67.57422388763432 0 0,0 1.1108385958920077,0.3451429590288578 l -14.201469385233649 44.356246437629935" fill="#38ff83" stroke="none" /><path d="M 107.4271985657038 80.35727306442388 l 7.378908965380842 -19.515015332798715 a41.86346378142294,41.86346378142294 0 0,0 0.6718424793222014,0.2606644442778518 l -7.71373460970271 19.385108184630315" fill="#fdff18" stroke="none" /><path d="M 107.76421540070413 80.48803036053334 l 20.29342248865456 -50.99866799723095 a75.88795071593418,75.88795071593418 0 0,0 1.2095676765954595,0.4934130257189458 l -21.168274034838408 50.64179408532843" fill="#43ffdd" stroke="none" /><path d="M 108.76106565485865 80.91482961587045 l 26.283196964575957 -57.255511152388685 a84.0,84.0 0 0,0 1.308887154801608,0.6145400694399883 l -27.264862330677165 56.79460610030869" fill="#4dd2ff" stroke="none" /><path d="M 109.73455568895987 81.39251694778311 l 8.676780030150702 -16.585557935833677 a39.71809936223541,39.71809936223541 0 0,0 0.6030625106728327,0.32213510782408583 l -8.960987587351847 16.433744101507838" fill="#ffe615" stroke="none" /><path d="M 110.36928655335952 81.73862282372117 l 21.424431536556522 -37.73062139455147 a64.38900848698415,64.38900848698415 0 0,0 0.95909963085935,0.5555724117913498 l -22.0707278998812 37.35624482537007" fill="#34ff5e" stroke="none" /><line stroke="#e1ed5e" stroke-width="0.3" x1="143.23703022742887" x2="145.7803849466894" y1="26.81831364943548" y2="22.513508569990506" /><path d="M 143.74570117128098 25.957352633546492 a86.0,86.0 0 0,1 28.547481713284135,27.462654790039103" fill="none" id="id62" stroke="none" /><text fill="#e1ed5e" style="font-size:6.75px; font-family:Arial;" text-anchor="middle"><textPath startOffset="19.985693538727396" xlink:href="#id62">February</textPath></text><path d="M 110.99172775467656 82.1063720568725 l 27.644855401310824 -45.00354886265745 a73.81626113606472,73.81626113606472 0 0,0 1.0769470788370417,0.6743841619684405 l -28.41542163252013 44.52102035936607" fill="#40ffc8" stroke="none" /><path d="M 111.90073688211348 82.69761687909136 l 29.031247669899976 -42.20829135526519 a72.22844132317542,72.22844132317542 0 0,0 1.0183139196286515,0.7133939768553467 l -29.753492729112278 41.7023125356459" fill="#3effb7" stroke="none" /><path d="M 113.06298171725822 83.55741782278167 l 12.186310968030977 -15.339102807153186 a40.59066741941088,40.59066741941088 0 0,0 0.5433285076950207,0.439333867257697 l -12.448542874290489 15.127062842631359" fill="#fff116" stroke="none" /><path d="M 116.15771136456269 86.58626213691792 l 18.30222583262342 -15.194061466413874 a44.787201900885925,44.787201900885925 0 0,0 0.48733062714432196,0.5974097262569669 l -18.561054951844152 14.876767570548806" fill="#daff1c" stroke="none" /><path d="M 116.60985879189232 87.15038557335679 l 18.59195816567976 -14.38299367011346 a44.50598679802467,44.50598679802467 0 0,0 0.4635490531807602,0.6099762173766301 l -18.836783159084632 14.060832676855796" fill="#ddff1b" stroke="none" /><line stroke="#e1ed5e" stroke-width="0.3" x1="172.23445277983987" x2="176.4835382374775" y1="55.19839476539836" y2="52.563006222186495" /><path d="M 173.08426987136738 54.67131705675599 a86.0,86.0 0 0,1 12.851231095245387,41.99856678651699" fill="none" id="id63" stroke="none" /><text fill="#e1ed5e" style="font-size:6.75px; font-family:Arial;" text-anchor="middle"><textPath startOffset="22.20632615414155" xlink:href="#id63">March</textPath></text><path d="M 118.3937258080291 89.86733742301442 l 20.941823063596424 -11.536348267066733 a44.90914646251582,44.90914646251582 0 0,0 0.3671684151726523,0.680307310096863 l -21.13729957798754 11.174159973637412" fill="#d9ff1c" stroke="none" /><path d="M 119.196687751892 91.48605970444005 l 28.639969914478684 -12.702138883020172 a52.33037198798918,52.33037198798918 0 0,0 0.358112410098209,0.8265728167865377 l -28.854373034419574 12.207266921647031" fill="#84ff25" stroke="none" /><path d="M 119.61058180528143 92.48833698450437 l 19.323031800958635 -7.401519484109155 a41.69207695361938,41.69207695361938 0 0,0 0.2509374867987918,0.6723877063515925 l -19.447573876259053 7.067808640728229" fill="#fffe18" stroke="none" /><path d="M 119.85752413597 93.16781622104841 l 10.655118634886254 -3.666002277102034 a32.26814651214731,32.26814651214731 0 0,0 0.17618823828818236,0.5267804068194104 l -10.716644166946207 3.4820487673603093" fill="#ff840c" stroke="none" /><path d="M 120.08093135843002 93.85539295169968 l 30.803290092899562 -9.425564483900905 a53.21310209196715,53.21310209196715 0 0,0 0.26047586149748386,0.8781951154825033 l -30.96097185150875 8.893939981671872" fill="#7aff26" stroke="none" /><path d="M 120.53481517161879 95.60439243477599 l 31.095744695509246 -6.656241582284473 a52.80017122862744,52.80017122862744 0 0,0 0.1825897909729356,0.8903726662284379 l -31.20571378239718 6.119993259892623" fill="#7fff26" stroke="none" /><path d="M 120.67395015179393 96.31383870115 l 37.50215669146172 -6.686627258191347 a59.093604983001214,59.093604983001214 0 0,0 0.1699310857610817,1.0029428874091264 l -37.611699638743026 6.040098582466383" fill="#3dff2e" stroke="none" /><path d="M 120.78858239683441 97.02765380044208 l 15.953780906640793 -2.2810675177954542 a37.11602910886667,37.11602910886667 0 0,0 0.08498510374476782,0.6332377354809966 l -15.990682009443397 2.0061114402497933" fill="#ffc512" stroke="none" /><path d="M 120.91429891909075 98.10471618934814 l 40.463423035608045 -3.666853519672258 a61.629231084199816,61.629231084199816 0 0,0 0.08664927902707804,1.057340678705884 l -40.52054679845462 2.9697989237586047" fill="#31ff3d" stroke="none" /><path d="M 120.98425023603335 99.18683210126433 l 30.053974690980194 -1.1646319107534147 a51.0765317517433,51.0765317517433 0 0,0 0.026482708755187028,0.8788321756142744 l -30.069569094191024 0.6471295877141413" fill="#92ff23" stroke="none" /><line stroke="#e1ed5e" stroke-width="0.3" x1="184.98032266829074" x2="189.97916517819016" y1="98.17113171792111" y2="98.06355123074" /><path d="M 185.9800911702706 98.14961562048488 a86.0,86.0 0 0,1 -9.607161424134198,41.387399972396054" fill="none" id="id64" stroke="none" /><text fill="#e1ed5e" style="font-size:6.75px; font-family:Arial;" text-anchor="middle"><textPath startOffset="21.466115282336823" xlink:href="#id64">April</textPath></text><path d="M 120.99824983174949 100.27111621757518 l 47.173565868418954 0.6090754634437089 a68.17749770454375,68.17749770454375 0 0,0 -0.02525144302090426,1.173335333541342 l -47.156092362713046 -1.4210006127751655" fill="#39ff8a" stroke="none" /><path d="M 120.92983693683757 101.71520430193887 l 19.51352681208539 1.5991374053746217 a40.57894198079262,40.57894198079262 0 0,0 -0.06304306498916645,0.6956749688615751 l -19.48310915081915 -1.9347937627847673" fill="#fff116" stroke="none" /><path d="M 120.89721153311464 102.0752229133903 l 37.90637076780691 3.764338081957319 a59.09282328709334,59.09282328709334 0 0,0 -0.1092308284671433,1.0113418114092094 l -37.83595763783872 -4.41627621525132" fill="#3dff2e" stroke="none" /><path d="M 120.5718875245553 104.21870165774334 l 4.657160965548211 0.9550495870777183 a25.754079087773285,25.754079087773285 0 0,0 -0.0927955786163373,0.4335100500567091 l -4.6400313482074305 -1.0350734565505963" fill="#ff2904" stroke="none" /><path d="M 119.54520255179757 107.68017299344265 l 20.653129418039313 8.115526373601751 a43.19039258505596,43.19039258505596 0 0,0 -0.2778528155922839,0.6896079017564916 l -20.510373988189638 -8.469833643201056" fill="#edff1a" stroke="none" /><path d="M 119.12269723197855 108.67885076344098 l 40.302483134663916 18.291312793308034 a65.259036032459,65.259036032459 0 0,0 -0.47305151260496775,1.018910873512906 l -39.98165700521911 -18.98234373409977" fill="#35ff69" stroke="none" /><path d="M 118.81262510543309 109.33194174019688 l 39.11239856616204 19.4015786044327 a64.66006154304291,64.66006154304291 0 0,0 -0.50318253662218,0.9928268816951796 l -38.77263735975359 -20.07195969783057" fill="#35ff62" stroke="none" /><line stroke="#e1ed5e" stroke-width="0.3" x1="174.80103733775053" x2="179.2010983576182" y1="140.37084112569926" y2="142.7455964860345" /><path d="M 175.68104954172406 140.8457921977663 a86.0,86.0 0 0,1 -30.038265399797805,32.042727171017184" fill="none" id="id65" stroke="none" /><text fill="#e1ed5e" style="font-size:6.75px; font-family:Arial;" text-anchor="middle"><textPath startOffset="22.206326154141568" xlink:href="#id65">May</textPath></text><path d="M 117.55443506779139 111.5257021239791 l 16.372744137306046 10.749840205621435 a40.586368091917514,40.586368091917514 0 0,0 -0.3884635213872771,0.5807002570512626 l -16.185277510508048 -11.030077376878504" fill="#fff116" stroke="none" /><path d="M 117.14729908036423 112.12312394758627 l 25.212714624489326 17.825364975281722 a51.87757463334739,51.87757463334739 0 0,0 -0.5217900992907523,0.7247208108630943 l -24.902144732822972 -18.256719391595947" fill="#89ff24" stroke="none" /><path d="M 116.498646956653 112.99209946851258 l 30.882300600743523 24.318716696921197 a60.30796957589895,60.30796957589895 0 0,0 -0.6492643657834085,0.8100571252747993 l -30.459118322905262 -24.846701655774247" fill="#31ff2f" stroke="none" /><path d="M 116.0416608686014 113.55231037782055 l 29.049858674782488 24.54189154210685 a59.02891964662382,59.02891964662382 0 0,0 -0.6624098603176916,0.7705323184235044 l -28.623106304894016 -25.038300959691885" fill="#3eff2d" stroke="none" /><path d="M 115.56566222782051 114.09645910891815 l 27.974214774931948 25.333800059860156 a58.74066928059161,58.74066928059161 0 0,0 -0.6851779970007745,0.7436253914464314 l -27.533990369935452 -25.811576706107925" fill="#41ff2d" stroke="none" /><path d="M 113.20401910651253 116.32954008644616 l 15.306334082500426 18.929493661020903 a45.34357396332233,45.34357396332233 0 0,0 -0.6111504220826185,0.48553485724530326 l -14.978226167700457 -19.190162432271332" fill="#d3ff1c" stroke="none" /><path d="M 112.63410532772338 116.77436683061366 l 14.679893265449776 19.490570030991055 a45.400442340620884,45.400442340620884 0 0,0 -0.6282881378014192,0.4647925440974878 l -14.342220157229793 -19.740372523828313" fill="#d3ff1c" stroke="none" /><path d="M 111.7513745106137 117.40417183066458 l 21.96744741180851 32.53451152381294 a60.25637764597861,60.25637764597861 0 0,0 -0.8646081498577617,0.5730151360843225 l -21.404164563210784 -32.907824680988575" fill="#32ff2f" stroke="none" /><line stroke="#e1ed5e" stroke-width="0.3" x1="143.8653032363475" x2="146.44561519142675" y1="172.8068346515853" y2="177.08958963109032" /><path d="M 144.38136562736335 173.6633856474863 a86.0,86.0 0 0,1 -40.68145358897372,12.25698825130547" fill="none" id="id66" stroke="none" /><text fill="#e1ed5e" style="font-size:6.75px; font-family:Arial;" text-anchor="middle"><textPath startOffset="21.466115282336833" xlink:href="#id66">June</textPath></text><path d="M 110.5260780823613 118.17145234162733 l 19.98529921735965 34.50116077610793 a60.871572325483285,60.871572325483285 0 0,0 -0.9111930390457659,0.5173991882477178 l -19.388457411392686 -34.84006313015028" fill="#30ff34" stroke="none" /><path d="M 110.21172684928248 118.3499491758327 l 15.233014155702826 27.372944818978116 a52.32607266049582,52.32607266049582 0 0,0 -0.7908143717592828,0.4312150490760142 l -14.759576972074894 -27.6311005198139" fill="#84ff25" stroke="none" /><path d="M 109.2508944713604 118.85261126421891 l 20.842232874912256 42.474867212625526 a68.31292652058467,68.31292652058467 0 0,0 -1.060110350709023,0.5089173911402505 l -20.108009856202997 -42.82733888026534" fill="#39ff8c" stroke="none" /><path d="M 108.2653958097858 119.30500536409082 l 6.835765594280752 15.965901029085412 a38.36771968136586,38.36771968136586 0 0,0 -0.6093680737017377,0.25471590422854046 l -6.559926061081553 -16.081201976333926" fill="#ffd513" stroke="none" /><path d="M 107.59598834532513 119.57807347666477 l 12.755989957478143 32.87757923020031 a56.26542918827704,56.26542918827704 0 0,0 -0.9059531976314527,0.34255398001060317 l -12.188166539086415 -33.092281460317544" fill="#5aff2a" stroke="none" /><path d="M 106.57524785965236 119.94407469862006 l 9.808352726245396 29.750744552615892 a52.32587723651885,52.32587723651885 0 0,0 -0.8578420300916806,0.27465392827691104 l -9.294789351062775 -29.91517132755251" fill="#84ff25" stroke="none" /><path d="M 105.88484417918355 120.15858648285463 l 13.212750813552407 45.2603963404103 a68.14955207583691,68.14955207583691 0 0,0 -1.1289097654674154,0.31904117609595056 l -12.431709879980387 -45.481126309844775" fill="#39ff8a" stroke="none" /><path d="M 105.18746579009965 120.34920634021253 l 9.66282487537305 37.90498582054787 a60.11723577437526,60.11723577437526 0 0,0 -1.0049503880434454,0.24699235505961337 l -9.008921202586393 -38.065699433921516" fill="#33ff2f" stroke="none" /><path d="M 104.13013068566511 120.58985236759428 l 6.225713099536615 31.036914654387942 a52.65516663771497,52.65516663771497 0 0,0 -0.8902042579291597,0.1706097647361142 l -5.690541227035751 -31.139481617472526" fill="#80ff25" stroke="none" /><path d="M 103.7750983002368 120.6578951692458 l 4.3510427244512275 23.80954807798906 a45.20384581978807,45.20384581978807 0 0,0 -0.7666379134350665,0.13328982807040715 l -3.940555839544111 -23.880916484580474" fill="#d5ff1c" stroke="none" /><path d="M 103.06178313531738 120.77559828337769 l 1.250998681718659 8.488597956082163 a29.580285132888307,29.580285132888307 0 0,0 -0.5043740176489795,0.06990164297963287 l -1.104696072882849 -8.508874164554399" fill="#ff5f08" stroke="none" /><path d="M 102.34483914955558 120.86867818915974 l 3.599632422650617 32.03612948964896 a53.237725513065485,53.237725513065485 0 0,0 -0.9115500345407912,0.0944858881833778 l -3.047649791504223 -32.093344746288096" fill="#7aff26" stroke="none" /><path d="M 101.26447882468166 120.96189622390904 l 2.7129914545325664 44.974612635827064 a66.05636585850064,66.05636585850064 0 0,0 -1.135577915817295,0.05869640721458626 l -1.9384254703017916 -45.014648849803855" fill="#36ff72" stroke="none" /><line stroke="#e1ed5e" stroke-width="0.3" x1="102.19456741930631" x2="102.32365962044197" y1="184.97166512339345" y2="189.96999836594603" /><path d="M 102.22038585953345 185.97133177190398 a86.0,86.0 0 0,1 -42.740103519485714,-10.115201625700543" fill="none" id="id67" stroke="none" /><text fill="#e1ed5e" style="font-size:6.75px; font-family:Arial;" text-anchor="middle"><textPath startOffset="22.20632615414155" xlink:href="#id67">July</textPath></text><path d="M 100.54218724476979 120.99299961872073 l 0.1112037515949662 4.305708659421964 a25.307144452440628,25.307144452440628 0 0,0 -0.43557248280100896,0.0074987753026143035 l -0.03707157890128927 -4.306984912003737" fill="#ff2203" stroke="none" /><path d="M 99.45781275523022 120.99299961872073 l -0.16118489330547617 6.24093325017668 a27.243014368315258,27.243014368315258 0 0,0 -0.46868317382417063,-0.01614239615551286 l 0.26858841880428985 -6.237234055595073" fill="#ff3e05" stroke="none" /><path d="M 99.09653310690486 120.98055641714683 l -1.399701638732767 32.504256019831075 a53.534379110107444,53.534379110107444 0 0,0 -0.9203118861344979,-0.047569612336197484 l 1.9590015932807539 -32.47534660073267" fill="#77ff27" stroke="none" /><path d="M 98.01472825383883 120.90594882070398 l -1.9910789751628077 20.96710197645355 a42.061428270094545,42.061428270094545 0 0,0 -0.7201865974351422,-0.07465028548948299 l 2.3516981692035435 -20.929722322508304" fill="#fbff18" stroke="none" /><path d="M 96.93821686468263 120.77559828337769 l -4.802323687171503 32.585961624967524 a53.937929622552545,53.937929622552545 0 0,0 -0.9173663834468363,-0.1432737625018412 l 5.3625259342268565 -32.498469555118575" fill="#73ff27" stroke="none" /><path d="M 96.22490169976321 120.6578951692458 l -7.19894814055225 39.39370691540328 a61.04608593691839,61.04608593691839 0 0,0 -1.0320636910116874,-0.19779746271467177 l 7.8759794461356325 -39.26395225434013" fill="#30ff36" stroke="none" /><path d="M 93.42475214034765 119.94407469862007 l -6.811089209508294 20.65942986072935 a42.75322914857185,42.75322914857185 0 0,0 -0.6969392548679325,-0.23643963494167794 l 7.165698197313453 -20.53912723888955" fill="#f2ff19" stroke="none" /><path d="M 92.40401165467489 119.57807347666478 l -11.974892687062432 30.864361323931124 a54.10599424274759,54.10599424274759 0 0,0 -0.8653839583780706,-0.34435413652811475 l 12.504397721482361 -30.653660342996943" fill="#71ff27" stroke="none" /><path d="M 91.7346041902142 119.30500536409082 l -5.070751719359958 11.843460542605722 a33.88332568181254,33.88332568181254 0 0,0 -0.5341937431945932,-0.23417483850949633 l 5.273866137212295 -11.754421150801775" fill="#ff9a0e" stroke="none" /><line stroke="#e1ed5e" stroke-width="0.3" x1="58.666819895761336" x2="56.23545636021788" y1="174.27360380694188" y2="178.64263932499728" /><path d="M 58.180547188652646 175.14741091055294 a86.0,86.0 0 0,1 -31.652253787137756,-30.449443065178592" fill="none" id="id68" stroke="none" /><text fill="#e1ed5e" style="font-size:6.75px; font-family:Arial;" text-anchor="middle"><textPath startOffset="22.20632615414155" xlink:href="#id68">August</textPath></text><path d="M 87.95078237400918 117.19931262002967 l -1.1313801819575342 1.6149564266828123 a22.971827927637293,22.971827927637293 0 0,0 -0.32190386611720917,-0.22966986139688889 l 1.1590113759236302 -1.595242303441704" fill="#ff0000" stroke="none" /><path d="M 82.6465618267979 111.8261652097733 l -3.4477992002928084 2.349634841570029 a25.172301908330645,25.172301908330645 0 0,0 -0.24093116729704786,-0.36015940513903477 l 3.4877334730005867 -2.2899385222251736" fill="#ff2003" stroke="none" /><path d="M 82.44556493220864 111.52570212397912 l -16.427633057536863 10.785878582364667 a40.652030548179766,40.652030548179766 0 0,0 -0.37902237500863667,-0.5882511429964418 l 16.610860295922542 -10.501505839446777" fill="#fff216" stroke="none" /><path d="M 82.05923443525364 110.91462005526583 l -16.833241507421945 10.240835860040859 a40.70362247810011,40.70362247810011 0 0,0 -0.35900425291921273,-0.6017117777786485 l 17.00702663603939 -9.9495619883761" fill="#fff216" stroke="none" /><line stroke="#e1ed5e" stroke-width="0.3" x1="26.63291911575756" x2="22.317208475507996" y1="142.92168965132927" y2="145.44649492493687" /><path d="M 25.769776987707644 143.4266507060508 a86.0,86.0 0 0,1 -11.730757126820373,-40.83630448921669" fill="none" id="id69" stroke="none" /><text fill="#e1ed5e" style="font-size:6.75px; font-family:Arial;" text-anchor="middle"><textPath startOffset="21.46611528233685" xlink:href="#id69">September</textPath></text><path d="M 81.51974371655577 109.97397251340807 l -17.73273617668657 9.570528703773233 a41.15055711343277,41.15055711343277 0 0,0 -0.33106111473633515,-0.6262428654425674 l 17.89484979964779 -9.26387082324454" fill="#fff817" stroke="none" /><path d="M 80.87730276802145 108.67885076344099 l -21.343622198671188 9.686819258099385 a44.43895637392362,44.43895637392362 0 0,0 -0.31013929723029626,-0.6992822408710274 l 21.50720258063276 -9.317988680735663" fill="#deff1b" stroke="none" /><path d="M 80.58989483394504 108.01547362559985 l -24.954017409444173 10.304852379056548 a47.998017842519296,47.998017842519296 0 0,0 -0.30878127292150537,-0.7663697964232871 l 25.127701296623066 -9.873783214790457" fill="#b4ff20" stroke="none" /><path d="M 80.32549172779594 107.34259656027581 l -23.758920468264733 8.866913738962992 a46.35958321959451,46.35958321959451 0 0,0 -0.2725849427394872,-0.7500366918445467 l 23.908029672009445 -8.456629250112329" fill="#c7ff1e" stroke="none" /><path d="M 80.0844068197444 106.66101706037122 l -11.675397271290937 3.9049813734788517 a33.31112427724148,33.31112427724148 0 0,0 -0.17719574805374358,-0.5453524366424629 l 11.74088527036093 -3.703430036858585" fill="#ff920d" stroke="none" /><path d="M 79.97269907076064 106.31721596034903 l -28.606445085209923 9.023337298402481 a50.99582164925429,50.99582164925429 0 0,0 -0.25685679259730365,-0.8394228598425502 l 28.757528650313358 -8.529587466007884" fill="#93ff23" stroke="none" /><path d="M 79.67330655649465 105.27499134158121 l -30.20100635770092 7.837479690766585 a52.20139216318833,52.20139216318833 0 0,0 -0.2182234099987874,-0.8716940464918719 l 30.331441081994765 -7.316457804877322" fill="#85ff25" stroke="none" /><path d="M 79.50377843672027 104.57218783832718 l -17.988871482035897 4.012861549211024 a39.43102154006502,39.43102154006502 0 0,0 -0.1420755309003001,-0.6637295809865028 l 18.05528105166064 -3.702618148808358" fill="#ffe215" stroke="none" /><path d="M 79.35854240842038 103.8639653848113 l -33.792210285209926 6.325712718639612 a55.379181452713595,55.379181452713595 0 0,0 -0.16733362302468063,-0.9384958227982741 l 33.8960903505738 -5.7430981451081236" fill="#63ff29" stroke="none" /><path d="M 79.23777060512086 103.15116336523772 l -34.891063806929644 5.295550875171733 a56.2906388813063,56.2906388813063 0 0,0 -0.13715066463066505,-0.9592314289900751 l 34.97704852257691 -4.694173974201258" fill="#5aff2a" stroke="none" /><path d="M 79.1416061653843 102.43462659150553 l -36.764491393759634 4.291212884372725 a58.01408293421347,58.01408293421347 0 0,0 -0.10723681809682237,-0.9928797518589341 l 36.83291051335751 -3.657736810629009" fill="#48ff2c" stroke="none" /><path d="M 79.07016306316243 101.71520430193888 l -31.103767462137434 2.5489599330641326 a52.20803657840534,52.20803657840534 0 0,0 -0.06569123770379658,-0.8963047465368986 l 31.143035258505567 -2.013182050030473" fill="#85ff25" stroke="none" /><path d="M 79.0095281055655 100.63252640178507 l -29.7698824844225 0.8970849604590848 a50.78339578628682,50.78339578628682 0 0,0 -0.018809050908009304,-0.8739826869487959 l 29.780913598015516 -0.3845124577201601" fill="#95ff23" stroke="none" /><line stroke="#e1ed5e" stroke-width="0.3" x1="15.007084014347285" x2="10.007500721073583" y1="101.09737516637583" y2="101.16192664675087" /><path d="M 14.007167355692545 101.11028546245083 a86.0,86.0 0 0,1 10.666146001902534,-42.60595125391555" fill="none" id="id70" stroke="none" /><text fill="#e1ed5e" style="font-size:6.75px; font-family:Arial;" text-anchor="middle"><textPath startOffset="22.20632615414155" xlink:href="#id70">October</textPath></text><path d="M 79.00019446554 99.90962569577889 l -35.24301991619524 -0.15167109039893933 a56.24334627887932,56.24334627887932 0 0,0 0.012499395083780444,-0.9680919240554452 l 35.23518751399374 0.7582992725148565" fill="#5aff2a" stroke="none" /><path d="M 79.03285615573316 98.82574320788736 l -39.057399602375135 -2.187394578202761 a60.11860374221406,60.11860374221406 0 0,0 0.06675858613849077,-1.0327257795127947 l 39.013960425232234 2.8593794219685678" fill="#33ff2f" stroke="none" /><path d="M 79.16333360222342 97.38593545837743 l -37.7331386735501 -4.73381192402157 a59.02891964662382,59.02891964662382 0 0,0 0.1351593632334909,-1.0070942474821134 l 37.64606331125878 5.382624513568342" fill="#3eff2d" stroke="none" /><path d="M 79.21141760316559 97.0276538004421 l -42.79142704188952 -6.11830730511897 a64.22661116212126,64.22661116212126 0 0,0 0.16590072094812414,-1.093078468447148 l 42.6797704275021 6.8539848859582095" fill="#34ff5c" stroke="none" /><path d="M 79.32604984820605 96.31383870115002 l -44.04129321256743 -7.852554030531196 a65.73587053626821,65.73587053626821 0 0,0 0.20820827818452078,-1.1122569475532496 l 43.899599210473056 8.609489055547018" fill="#36ff6e" stroke="none" /><path d="M 79.46518482838121 95.60439243477599 l -42.58456789822497 -9.115497132593717 a64.54925614810035,64.54925614810035 0 0,0 0.2419232749380349,-1.0844946051600626 l 42.421350236284894 9.847169907303739" fill="#34ff60" stroke="none" /><path d="M 79.62865764111835 94.90015583598534 l -16.34485911023541 -4.091838077063857 a37.84925987046182,37.84925987046182 0 0,0 0.16365960153485282,-0.6306472056668828 l 16.27200317683025 4.372581708279603" fill="#ffce13" stroke="none" /><path d="M 79.81627453868168 94.20196356495316 l -37.10895155657244 -10.660026743018436 a59.60971970618161,59.60971970618161 0 0,0 0.29178703145807344,-0.9837608149732507 l 36.91995862800266 11.297216944738226" fill="#38ff2e" stroke="none" /><path d="M 80.38941819471856 92.48833698450439 l -30.955393653426984 -11.85719464855103 a54.14859666972728,54.14859666972728 0 0,0 0.3408949402187013,-0.8675404396679856 l 30.74670516332659 12.388284093114779" fill="#70ff27" stroke="none" /><path d="M 80.65960295795068 91.81776055985345 l -25.144627918492326 -10.637804684939262 a48.302292974663125,48.302292974663125 0 0,0 0.3305470588742717,-0.762948185624974 l 24.957790149775374 11.069052015150834" fill="#b1ff20" stroke="none" /><path d="M 80.95270993114464 91.15688171328213 l -36.3134904811431 -16.85932699966751 a61.03631473806984,61.03631473806984 0 0,0 0.4506276418206509,-0.94913673805087 l 36.0179046454807 17.48190615335891" fill="#30ff36" stroke="none" /><path d="M 81.26839172434947 90.50648371742162 l -31.979745895328858 -16.207910922666354 a56.8524828150979,56.8524828150979 0 0,0 0.4499212545379046,-0.8691046567081875 l 31.69601520763084 16.755988301634876" fill="#54ff2b" stroke="none" /><path d="M 81.6062741919709 89.86733742301443 l -28.324395532703587 -15.603230450716127 a53.33778258927464,53.33778258927464 0 0,0 0.4499228864807445,-0.8003626113044657 l 28.05161500493041 16.08847657195538" fill="#79ff26" stroke="none" /><line stroke="#e1ed5e" stroke-width="0.3" x1="26.266209847984243" x2="21.928928074336255" y1="57.711370442889674" y2="55.22380399835377" /><path d="M 25.398753493254645 57.213857153982495 a86.0,86.0 0 0,1 29.58750427330803,-30.492523968695096" fill="none" id="id71" stroke="none" /><text fill="#e1ed5e" style="font-size:6.75px; font-family:Arial;" text-anchor="middle"><textPath startOffset="21.46611528233685" xlink:href="#id71">November</textPath></text><path d="M 81.96595687620814 89.24020034530311 l -26.776841792566636 -15.976087619166826 a52.1806772216294,52.1806772216294 0 0,0 0.46685356593668687,-0.7673845115199379 l 26.497872428343733 16.43463990389384" fill="#86ff25" stroke="none" /><path d="M 82.15384107792192 88.93136811851018 l -28.355915452826416 -17.587044426781166 a54.367080675980844,54.367080675980844 0 0,0 0.5001056980604235,-0.7910471136884268 l 28.04898215852003 18.072539188183807" fill="#6eff28" stroke="none" /><path d="M 88.39885842347998 82.49532879139004 l -11.16394318391902 -16.844993532500688 a41.208598034593145,41.208598034593145 0 0,0 0.5946459059848829,-0.38677423840455144 l 10.87233025214985 17.034666695064775" fill="#fff917" stroke="none" /><path d="M 89.00827224532344 82.1063720568725 l -12.005946970097703 -19.544693335080584 a43.93769387299302,43.93769387299302 0 0,0 0.6478465117140484,-0.39032027450362383 l 11.667738392166006 19.74846021904283" fill="#e4ff1a" stroke="none" /><line stroke="#e1ed5e" stroke-width="0.3" x1="56.762969772571076" x2="54.21961505331055" y1="26.818313649435495" y2="22.513508569990535" /><path d="M 56.25429882871897 25.957352633546506 a86.0,86.0 0 0,1 42.265352541879196,-11.944610805530505" fill="none" id="id72" stroke="none" /><text fill="#e1ed5e" style="font-size:6.75px; font-family:Arial;" text-anchor="middle"><textPath startOffset="22.20632615414155" xlink:href="#id72">December</textPath></text><path d="M 89.63071344664047 81.73862282372117 l -13.85782698973728 -24.40505469696174 a49.06503275678091,49.06503275678091 0 0,0 0.7380219960360996,-0.41070844175463106 l 13.435680904629134 24.63997853627656" fill="#a8ff21" stroke="none" /><path d="M 90.26544431104013 81.39251694778311 l -14.48370568938439 -27.685424662387828 a52.24516713402983,52.24516713402983 0 0,0 0.8004445047403002,-0.41001876476121696 l 14.005000697055326 27.930635952461547" fill="#85ff25" stroke="none" /><path d="M 90.58718382345135 81.22770947309562 l -13.98082454314132 -27.8824206493488 a52.19123011638584,52.19123011638584 0 0,0 0.8065501801351426,-0.395770670583339 l 13.498803095995752 28.118946480066967" fill="#85ff25" stroke="none" /><path d="M 91.56875222667455 80.76684994638697 l -3.327347776241274 -7.5902619376779406 a29.287540015385762,29.287540015385762 0 0,0 0.463463106737094,-0.19843071515227978 l 3.1962009117138717 7.646412180793006" fill="#ff5b08" stroke="none" /><path d="M 91.90106846888425 80.62456947434976 l -15.408510167761525 -36.862457363941836 a60.953259547857165,60.953259547857165 0 0,0 0.971525674849231,-0.3963097163279449 l 14.771700623323914 37.12222796645336" fill="#30ff35" stroke="none" /><path d="M 92.57280143429618 80.3572730644239 l -11.6706471940841 -30.865384029640257 a53.99812020745962,53.99812020745962 0 0,0 0.872243654734651,-0.3212546992057807 l 11.13762121357688 31.06170199665236" fill="#72ff27" stroke="none" /><path d="M 92.91201910852362 80.23233633223022 l -6.671860813207276 -18.607146747849537 a40.76713527061568,40.76713527061568 0 0,0 0.6625979481260715,-0.23116741364942997 l 6.350580861017919 18.719235014671177" fill="#fff316" stroke="none" /><path d="M 93.94186890950719 79.89281104454417 l -10.136586653467885 -33.643752530295686 a56.13762190733802,56.13762190733802 0 0,0 0.9276335216947743,-0.27080166236874303 l 9.55596291404969 33.81325252158313" fill="#5bff2a" stroke="none" /><path d="M 96.04723909329186 79.375362276772 l -6.008116634276505 -31.349032209501768 a52.91957527855672,52.91957527855672 0 0,0 0.8961171027722612,-0.16375967269526137 l 5.467604410401351 31.447807363547767" fill="#7dff26" stroke="none" /><path d="M 96.40284397218896 79.31037775812273 l -5.482835438697384 -31.535411075859358 a53.00849318807852,53.00849318807852 0 0,0 0.9003133974654017,-0.14855942476465459 l 4.939192835093096 31.62511676356364" fill="#7dff26" stroke="none" /><path d="M 97.11714578562143 79.19881850522333 l -5.357625416315294 -38.65784752831356 a60.027340744968605,60.027340744968605 0 0,0 1.0247103592338762,-0.13303681401278944 l 4.691400328573559 38.744342665490485" fill="#34ff2f" stroke="none" /><path d="M 98.19473922651362 79.07773832637324 l -4.024558466002907 -46.64304824167166 a67.81635419510137,67.81635419510137 0 0,0 1.1638894939806361,-0.09034022514011157 l 3.221078782659937 46.705413729000234" fill="#39ff86" stroke="none" /></svg>