<?xml version="1.0" encoding="utf-8" ?>
<svg baseProfile="full" height="200mm" version="1.1" viewBox="0,0,200,200" width="200mm" xmlns="http://www.w3.org/2000/svg" xmlns:ev="http://www.w3.org/2001/xml-events" xmlns:xlink="http://www.w3.org/1999/xlink"><defs /><rect fill="#1a1a1a" height="200" width="200" x="0" y="0" /><text alignment-baseline="middle" fill="#e1ed5e" style="dominant-baseline: central; font-size:9.0px; font-family:Arial;" text-anchor="middle" x="100.0" y="100.0">2025</text><line stroke="#e1ed5e" stroke-width="0.3" x1="100.0" x2="100.0" y1="15.0" y2="10.0" /><path d="M 100.0 14.0 a86.0,86.0 0 0,1 42.46469731375804,11.215312516191453" fill="none" id="id109" stroke="none" /><text fill="#e1ed5e" style="font-size:6.75px; font-family:Arial;" text-anchor="middle"><textPath startOffset="22.20632615414155" xlink:href="#id109">January</textPath></text><path d="M 101.44485096284872 79.0497635885617 l 2.841669740328762 -41.204009544167434 a62.30188239570857,62.30188239570857 0 0,0 1.0692480779336673,0.08299422977071738 l -3.5505080076247704 41.148990052208255" fill="#31ff41" stroke="none" /><path d="M 102.88285421437855 79.19881850522331 l 3.711150641425701 -26.77773911067981 a48.03368178704088,48.03368178704088 0 0,0 0.818015932917378,0.12055428458256477 l -4.171535554771735 26.709890341936276" fill="#bbff1f" stroke="none" /><path d="M 103.95276090670814 79.375362276772 l 7.241573229343834 -37.78493764901811 a59.472612284274845,59.472612284274845 0 0,0 1.0037662623945276,0.20134606929361734 l -7.890905901205487 37.65468762364729" fill="#3dff2e" stroke="none" /><path d="M 105.36241919743992 79.69619591428918 l 10.971307694097126 -41.5408183849833 a63.96520900231629,63.96520900231629 0 0,0 1.062133495016866,0.2903212065133271 l -11.684739078337703 41.34581063764367" fill="#33ff55" stroke="none" /><path d="M 106.74666289553966 80.11325718540242 l 7.85924740245719 -23.166242960247757 a45.463086122283485,45.463086122283485 0 0,0 0.7389223544931711,0.2577955003619034 l -8.256851761013635 23.027526606713646" fill="#d9ff1c" stroke="none" /><path d="M 107.08798089147638 80.2323363322302 l 20.06857863178062 -55.969241277200894 a80.45842091281511,80.45842091281511 0 0,0 1.2996627816217257,0.478676770776685 l -21.029023739174924 55.61550123861788" fill="#48f4ff" stroke="none" /><path d="M 108.09893153111575 80.62456947434976 l 15.143783162070063 -36.22913929138722 a60.26683972838321,60.26683972838321 0 0,0 0.9536976051614118,0.4083235430831045 l -15.76516452502179 35.96309622034133" fill="#35ff2f" stroke="none" /><line stroke="#e1ed5e" stroke-width="0.3" x1="143.23703022742887" x2="145.7803849466894" y1="26.81831364943548" y2="22.513508569990506" /><path d="M 143.74570117128098 25.957352633546492 a86.0,86.0 0 0,1 28.547481713284135,27.462654790039103" fill="none" id="id110" stroke="none" /><text fill="#e1ed5e" style="font-size:6.75px; font-family:Arial;" text-anchor="middle"><textPath startOffset="19.985693538727396" xlink:href="#id110">February</textPath></text><path d="M 110.99172775467656 82.1063720568725 l 3.8163963983075164 -6.212779169839983 a28.29133091295493,28.29133091295493 0 0,0 0.41275818788704394,0.258469139388358 l -3.922773738566824 6.146165689128681" fill="#ff4006" stroke="none" /><path d="M 112.77801427241765 83.33499621200491 l 18.083373239485606 -23.58421872999978 a50.71908075333113,50.71908075333113 0 0,0 0.6882517546161565,0.5371914113463467 l -18.486657549261196 23.269448929430208" fill="#9cff22" stroke="none" /><path d="M 114.68862486808459 84.99185889309783 l 4.216886115987746 -4.30861448425931 a27.028788210675454,27.028788210675454 0 0,0 0.32970513830640874,0.3282892796625731 l -4.290427054461477 4.235389353946619" fill="#ff2e04" stroke="none" /><path d="M 116.60985879189232 87.15038557335679 l 4.660223189636383 -3.6052125354707294 a26.89196381549819,26.89196381549819 0 0,0 0.2800914048129525,0.3685674567884165 l -4.721590534673449 3.5244603028012795" fill="#ff2c04" stroke="none" /><line stroke="#e1ed5e" stroke-width="0.3" x1="172.23445277983987" x2="176.4835382374775" y1="55.19839476539836" y2="52.563006222186495" /><path d="M 173.08426987136738 54.67131705675599 a86.0,86.0 0 0,1 12.851231095245387,41.99856678651699" fill="none" id="id111" stroke="none" /><text fill="#e1ed5e" style="font-size:6.75px; font-family:Arial;" text-anchor="middle"><textPath startOffset="22.20632615414155" xlink:href="#id111">March</textPath></text><path d="M 118.03404312379186 89.2402003453031 l 26.353251680727656 -15.72335756258373 a51.687421644521294,51.687421644521294 0 0,0 0.44928756060858893,0.767978079782644 l -26.61999891580657 15.267400070447191" fill="#91ff24" stroke="none" /><path d="M 118.73160827565052 90.50648371742162 l 29.781028400090953 -15.09356131452489 a54.387501339907814,54.387501339907814 0 0,0 0.41603845289234714,0.8387081340204601 l -30.036426865936708 14.57869359200548" fill="#73ff27" stroke="none" /><path d="M 119.7369772167798 92.82701384747503 l 22.999230484957554 -8.358582977289716 a45.47101371599547,45.47101371599547 0 0,0 0.26101860075800704,0.7379347334856772 l -23.13970216652537 7.961450617377425" fill="#d9ff1c" stroke="none" /><path d="M 120.37134235888165 94.90015583598534 l 30.67792171382959 -7.680034887252321 a52.624639390027355,52.624639390027355 0 0,0 0.21242111039889514,0.8806226409644645 l -30.805575624489304 7.150827014628451" fill="#86ff25" stroke="none" /><path d="M 120.73433829027371 96.67025291283417 l 17.6685471080452 -2.837408768191229 a38.894927924610954,38.894927924610954 0 0,0 0.1004676483339689,0.6619562744619973 l -17.71477064981847 2.532853381337149" fill="#ffd213" stroke="none" /><path d="M 120.87857604477298 97.74499172005257 l 29.093603437521914 -3.1422792677254274 a50.26280369301896,50.26280369301896 0 0,0 0.08550151519926327,0.8609885897037339 l -29.143382078403405 2.6410151473172583" fill="#a1ff22" stroke="none" /><path d="M 120.96714384426684 98.82574320788733 l 62.81993438754466 -3.51820616019749 a83.91837514622472,83.91837514622472 0 0,0 0.06835907626951108,1.4429520578831545 l -62.871187072047675 2.436342995691336" fill="#4dd3ff" stroke="none" /><line stroke="#e1ed5e" stroke-width="0.3" x1="184.98032266829074" x2="189.97916517819016" y1="98.17113171792111" y2="98.06355123074" /><path d="M 185.9800911702706 98.14961562048488 a86.0,86.0 0 0,1 -9.607161424134198,41.387399972396054" fill="none" id="id112" stroke="none" /><text fill="#e1ed5e" style="font-size:6.75px; font-family:Arial;" text-anchor="middle"><textPath startOffset="21.466115282336823" xlink:href="#id112">April</textPath></text><path d="M 120.99513854157772 99.54816195383933 l 30.027469904902436 -0.6462235677135858 a51.03442281431907,51.03442281431907 0 0,0 0.011341775620282008,0.8784330208661077 l -30.034144687640435 0.12925428878701528" fill="#98ff23" stroke="none" /><path d="M 120.9904718944345 100.63252640178507 l 32.90806526897809 0.9916508889833003 a53.923003071301736,53.923003071301736 0 0,0 -0.03594319205982113,0.927534077080372 l -32.88611994406707 -1.5579622130776787" fill="#78ff26" stroke="none" /><path d="M 120.92983693683757 101.71520430193887 l 38.284374255160145 3.137412088668201 a59.41271490956205,59.41271490956205 0 0,0 -0.09230303858092796,1.018556339252389 l -38.22469662030215 -3.7959498164691605" fill="#3eff2d" stroke="none" /><path d="M 120.8583938346157 102.4346265915055 l 29.1491793541925 3.4023409347322815 a50.347071078031576,50.347071078031576 0 0,0 -0.10788296249300401,0.8599333580628816 l -29.086294882452652 -3.903592047082558" fill="#a0ff22" stroke="none" /><path d="M 120.70491114924044 103.5080841355445 l 29.15180700163112 4.939262522197728 a50.567282014475666,50.567282014475666 0 0,0 -0.15279399738362082,0.8569498807303457 l -29.06246656190831 -5.440331153661292" fill="#9dff22" stroke="none" /><path d="M 120.49622156327973 104.57218783832717 l 28.6341673034937 6.387557389612343 a50.33796902599188,50.33796902599188 0 0,0 -0.19593319525666367,0.8440750771175654 l -28.519973542306484 -6.879501124078473" fill="#a0ff22" stroke="none" /><path d="M 120.41448212921028 104.9243191809786 l 15.264122749153984 3.6819651832813105 a36.701920612209705,36.701920612209705 0 0,0 -0.153429208256805,0.6128734190166107 l -15.198482226602119 -3.9441664416953173" fill="#ffb510" stroke="none" /><path d="M 120.23288151984713 105.62410040840565 l 21.300410318246644 5.920839612120864 a43.10800356065938,43.10800356065938 0 0,0 -0.2048807697378119,0.7132168372891887 l -21.195336911622732 -6.286613924914635" fill="#f6ff19" stroke="none" /><path d="M 120.02730092923936 106.31721596034902 l 59.728524303057796 18.840181627495106 a83.62945839761007,83.62945839761007 0 0,0 -0.4448599307774972,1.3691380853028357 l -59.39537212126405 -19.865518612775734" fill="#4dd5ff" stroke="none" /><path d="M 119.79798401119884 107.00284435728193 l 17.62549926963244 6.234403868333469 a39.695614889521686,39.695614889521686 0 0,0 -0.23340216111121975,0.6422225051386293 l -17.51557284751599 -6.536874170478229" fill="#ffdc14" stroke="none" /><path d="M 119.54520255179757 107.68017299344265 l 27.455577351268598 10.788508491215184 a50.49916343146896,50.49916343146896 0 0,0 -0.32487166484667346,0.8063048296181246 l -27.265803072164534 -11.259512688676121" fill="#9eff22" stroke="none" /><path d="M 119.26925614724726 108.34839909993367 l 32.4123532050697 14.04264172193236 a56.32359589312429,56.32359589312429 0 0,0 -0.3930821484824014,0.8862964741712641 l -32.16582997185603 -14.598486532596311" fill="#5eff2a" stroke="none" /><path d="M 119.12269723197855 108.67885076344098 l 26.98907403353976 12.249011890898226 a50.63863035788355,50.63863035788355 0 0,0 -0.36707070994928437,0.7906376530873821 l -26.774228706750645 -12.711769611264438" fill="#9dff22" stroke="none" /><path d="M 118.81262510543309 109.33194174019688 l 28.220384331283153 13.998630227816712 a52.50161488020059,52.50161488020059 0 0,0 -0.4085658924805425,0.806139266520373 l -27.97523976901634 -14.48232370603978" fill="#88ff25" stroke="none" /><line stroke="#e1ed5e" stroke-width="0.3" x1="174.80103733775053" x2="179.2010983576182" y1="140.37084112569926" y2="142.7455964860345" /><path d="M 175.68104954172406 140.8457921977663 a86.0,86.0 0 0,1 -30.038265399797805,32.042727171017184" fill="none" id="id113" stroke="none" /><text fill="#e1ed5e" style="font-size:6.75px; font-family:Arial;" text-anchor="middle"><textPath startOffset="22.206326154141568" xlink:href="#id113">May</textPath></text><path d="M 118.48025628344425 109.97397251340804 l 14.959424111624182 8.07374544039306 a37.99910983515639,37.99910983515639 0 0,0 -0.3156162464330683,0.5729351642119255 l -14.818231455739603 -8.330051123002791" fill="#ffc612" stroke="none" /><path d="M 118.30583269289576 110.29060199501025 l 40.438650603020754 22.73253916127317 a67.39022310047677,67.39022310047677 0 0,0 -0.5771427192126928,1.0062969784519067 l -40.04135588765568 -23.425255985583394" fill="#38ff7e" stroke="none" /><path d="M 116.71984013943494 112.70617746262583 l 3.7457111096417344 2.8465385844559554 a25.704586446191634,25.704586446191634 0 0,0 -0.2707466327679251,0.34997651986592426 l -3.6961576596557406 -2.9105930984351325" fill="#ff1a02" stroke="none" /><path d="M 114.81725581225074 114.88116024355365 l 20.733122901169736 20.82254151180324 a50.3843601299361,50.3843601299361 0 0,0 -0.6198477066230536,0.6066514415793528 l -20.37162524217089 -21.176343056305164" fill="#a0ff22" stroke="none" /><path d="M 112.92097659922987 116.55440617244103 l 1.8186692933831454 2.3300862705536796 a23.955817996243596,23.955817996243596 0 0,0 -0.32724933183623073,0.2509208330246401 l -1.778291233053421 -2.361046445405691" fill="#ff0000" stroke="none" /><path d="M 112.04921762599082 117.19931262002967 l 11.810273981354923 16.858239317992425 a41.58355665130239,41.58355665130239 0 0,0 -0.5897798124516537,0.40565593290369983 l -11.518337284280385 -17.05903604026122" fill="#fff517" stroke="none" /><path d="M 111.45004920935366 117.60387380957326 l 7.221044051095091 11.101991434674648 a34.243779332329765,34.243779332329765 0 0,0 -0.4968906061547663,0.31713909441331445 l -7.028871642893394 -11.224644957911773" fill="#ff940d" stroke="none" /><line stroke="#e1ed5e" stroke-width="0.3" x1="143.8653032363475" x2="146.44561519142675" y1="172.8068346515853" y2="177.08958963109032" /><path d="M 144.38136562736335 173.6633856474863 a86.0,86.0 0 0,1 -40.68145358897372,12.25698825130547" fill="none" id="id114" stroke="none" /><text fill="#e1ed5e" style="font-size:6.75px; font-family:Arial;" text-anchor="middle"><textPath startOffset="21.466115282336833" xlink:href="#id114">June</textPath></text><path d="M 109.57404056367764 118.69057910512821 l 9.79794515081608 19.127688846838417 a42.49111932403399,42.49111932403399 0 0,0 -0.6538494841784346,0.32785370505970013 l -9.467241758954884 -19.29351039280742" fill="#feff18" stroke="none" /><path d="M 106.57524785965236 119.94407469862006 l 5.565611283515463 16.881639985474816 a38.775426789767295,38.775426789767295 0 0,0 -0.6356929418431333,0.20352880545671434 l -5.274196996581389 -16.974941637591236" fill="#ffd013" stroke="none" /><path d="M 106.2309692047433 120.05430185196036 l 3.8334194952688194 12.337816021428639 a33.919628833884055,33.919628833884055 0 0,0 -0.5590682093859758,0.1684426653815422 l -3.620476311442598 -12.401974055915906" fill="#ff900d" stroke="none" /><path d="M 105.88484417918355 120.15858648285463 l 5.095424231058069 17.45442137481842 a39.18296382947983,39.18296382947983 0 0,0 -0.6490729455981253,0.18343449784044405 l -4.794220117355338 -17.539544665997383" fill="#ffd614" stroke="none" /><path d="M 102.70371172650421 120.8252237178851 l 1.6356317464808303 12.598383439561335 a33.70411573075077,33.70411573075077 0 0,0 -0.5759753745747161,0.06974259661235035 l -1.4185289488547337 -12.624671564899037" fill="#ff8d0d" stroke="none" /><line stroke="#e1ed5e" stroke-width="0.3" x1="102.19456741930631" x2="102.32365962044197" y1="184.97166512339345" y2="189.96999836594603" /><path d="M 102.22038585953345 185.97133177190398 a86.0,86.0 0 0,1 -42.740103519485714,-10.115201625700543" fill="none" id="id115" stroke="none" /><text fill="#e1ed5e" style="font-size:6.75px; font-family:Arial;" text-anchor="middle"><textPath startOffset="22.20632615414155" xlink:href="#id115">July</textPath></text><path d="M 99.81925306533755 120.99922214144158 l -0.12896247078198506 14.982890730166874 a35.98344573023811,35.98344573023811 0 0,0 -0.6193270373079817,-0.010662276601453902 l 0.3868491979826347 -14.978450976286261" fill="#ffac0f" stroke="none" /><path d="M 98.01472825383883 120.90594882070398 l -2.2512613538764428 23.706958373419905 a44.81361066706437,44.81361066706437 0 0,0 -0.7673101725849628,-0.07953483673043554 l 2.6590041230669987 -23.66469416823371" fill="#e1ff1b" stroke="none" /><path d="M 97.2962882734958 120.8252237178851 l -3.439143695099974 26.489856942335475 a47.7121738198325,47.7121738198325 0 0,0 -0.8135412046288676,-0.1127493979572166 l 3.8946134909156727 -26.426732978885653" fill="#bfff1e" stroke="none" /><path d="M 96.22490169976321 120.6578951692458 l -2.7028653114205707 14.790477974153614 a36.03541551123892,36.03541551123892 0 0,0 -0.6092256918502521,-0.11675955381246497 l 2.957058617842518 -14.74176122199268" fill="#ffac0f" stroke="none" /><path d="M 95.51606077576429 120.51570834832081 l -8.55443997185443 39.13978017302347 a61.063709703728904,61.063709703728904 0 0,0 -1.0249393939946652,-0.23327286915700185 l 9.226899515241957 -38.98673057028878" fill="#30ff32" stroke="none" /><path d="M 94.46302465271185 120.25689768951611 l -9.432834007545505 34.50980750828572 a56.7757623492895,56.7757623492895 0 0,0 -0.9405008632579704,-0.2657949383659047 l 10.025466038908089 -34.34232377658129" fill="#59ff2a" stroke="none" /><path d="M 94.11515582081647 120.15858648285463 l -9.256478910897034 31.708151476990587 a54.03164046661416,54.03164046661416 0 0,0 -0.8905572827401083,-0.2683176039368095 l 9.800911168077388 -31.544118503948052" fill="#77ff27" stroke="none" /><path d="M 93.08242187328487 119.8279376855182 l -14.602461381505954 41.85521132165009 a65.32934234994197,65.32934234994197 0 0,0 -1.058585586600441,-0.37957112868375437 l 15.320766528736122 -41.597652651926374" fill="#35ff66" stroke="none" /><path d="M 92.40401165467489 119.57807347666478 l -11.797187620631977 30.406340235748143 a53.614707760280005,53.614707760280005 0 0,0 -0.8575262071834804,-0.34122737516228446 l 12.318834903857317 -30.198766016179793" fill="#7bff26" stroke="none" /><path d="M 92.06813273071674 119.44442032107085 l -16.636748452486096 40.78383042777468 a65.04659150754776,65.04659150754776 0 0,0 -1.033090225246532,-0.43183179793914994 l 17.33631013723009 -40.49141358681556" fill="#35ff62" stroke="none" /><path d="M 91.40352486487194 119.15986991738527 l -16.580848003297596 36.95548301709676 a61.504718805780946,61.504718805780946 0 0,0 -0.9622032637630715,-0.4417003253037512 l 17.214519262828087 -36.66459562145893" fill="#30ff37" stroke="none" /><path d="M 91.07499286063937 119.00905698771935 l -12.733568118887485 27.12077629175752 a50.96131278341963,50.96131278341963 0 0,0 -0.7908402980092277,-0.37965140233019923 l 13.198521084896955 -26.89757061292776" fill="#99ff23" stroke="none" /><path d="M 90.42595943632237 118.69057910512821 l -13.395455580875257 26.150800230932717 a50.3820112132807,50.3820112132807 0 0,0 -0.7684674543155199,-0.4020258520830115 l 13.843613937717272 -25.91634495990499" fill="#a0ff22" stroke="none" /><path d="M 90.10565033884886 118.52300852407294 l -13.84195386609488 25.913237173959956 a50.37848783829759,50.37848783829759 0 0,0 -0.7613801339251799,-0.41516515574401636 l 14.285956811888699 -25.671131366456176" fill="#a0ff22" stroke="none" /><line stroke="#e1ed5e" stroke-width="0.3" x1="58.666819895761336" x2="56.23545636021788" y1="174.27360380694188" y2="178.64263932499728" /><path d="M 58.180547188652646 175.14741091055294 a86.0,86.0 0 0,1 -31.652253787137756,-30.449443065178592" fill="none" id="id116" stroke="none" /><text fill="#e1ed5e" style="font-size:6.75px; font-family:Arial;" text-anchor="middle"><textPath startOffset="22.20632615414155" xlink:href="#id116">August</textPath></text><path d="M 88.8546689885994 117.79835938074946 l -26.558899890403374 42.412813448359245 a71.04220127046563,71.04220127046563 0 0,0 -1.0308500737979072,-0.6579372900809891 l 27.285031766248203 -41.94936172945445" fill="#3cffa8" stroke="none" /><path d="M 88.54995079064634 117.60387380957326 l -19.219670189203676 29.5492746350788 a56.249898633061,56.249898633061 0 0,0 -0.8071198881644627,-0.5349150509730964 l 19.7254647761081 -29.214061563014386" fill="#5fff29" stroke="none" /><path d="M 87.95078237400918 117.19931262002967 l -18.119565475074584 25.864257814770568 a52.57971635899276,52.57971635899276 0 0,0 -0.7367987444718282,-0.5256863409606621 l 18.562091547395298 -25.548527211965688" fill="#87ff25" stroke="none" /><path d="M 87.36589467227662 116.77436683061367 l -35.339718295884325 46.92072632043935 a79.74053326000737,79.74053326000737 0 0,0 -1.089298484138368,-0.8352276275670462 l 36.14214550851618 -46.30545935104494" fill="#48fbff" stroke="none" /><path d="M 87.07902340077011 116.55440617244103 l -14.66370993092447 18.787202989428003 a44.832402000307596,44.832402000307596 0 0,0 -0.604260736650971,-0.4800612744551295 l 14.9849281602928 -18.532007800967744" fill="#e1ff1b" stroke="none" /><path d="M 86.51685102203217 116.09983520530335 l -18.854490369415423 22.51359740395886 a50.3658624112748,50.3658624112748 0 0,0 -0.6598755976815063,-0.5623603000395516 l 19.239231443673987 -22.18571271369636" fill="#a0ff22" stroke="none" /><path d="M 85.97065885151581 115.62618273729859 l -25.907730679237396 28.856589173912944 a59.78032036613272,59.78032036613272 0 0,0 -0.7597806875588852,-0.6940416438588088 l 26.400610916263133 -28.406354763467558" fill="#3aff2e" stroke="none" /><path d="M 85.70375840098266 115.38237550388516 l -24.473919401170953 26.33328596702707 a56.95016941095322,56.95016941095322 0 0,0 -0.7123223204585546,-0.6735452149110561 l 24.923577556020327 -25.90810611537008" fill="#58ff2a" stroke="none" /><path d="M 85.18274418774928 114.88116024355367 l -41.49110615874286 41.670050598712095 a79.80395400970326,79.80395400970326 0 0,0 -0.9650934418286291,-0.9776345612821913 l 42.20224022562702 -40.94967554344924" fill="#48faff" stroke="none" /><path d="M 84.67929136418377 114.36230785411682 l -23.057214159455416 21.614849279375868 a52.604379983874495,52.604379983874495 0 0,0 -0.6136015158194111,-0.6659432576507773 l 23.425862083270555 -21.214754766923747" fill="#87ff25" stroke="none" /><path d="M 84.43433777217949 114.09645910891817 l -24.91686981404181 22.56503008449633 a54.61593348464582,54.61593348464582 0 0,0 -0.6250693467252199,-0.7022720373604393 l 25.30159801041537 -22.132783877395024" fill="#70ff27" stroke="none" /><path d="M 83.95833913139862 113.55231037782056 l -29.17145454648712 24.644618124316853 a59.18809975438907,59.18809975438907 0 0,0 -0.6507985234280397,-0.7839287456910038 l 29.591349069808693 -24.138828121512088" fill="#40ff2d" stroke="none" /><path d="M 83.50135304334701 112.99209946851258 l -49.49594086995897 38.976298405537754 a84.0,84.0 0 0,0 -0.8847727311277263,-1.1436880235469893 l 50.159520418304766 -38.118532387877515" fill="#4dd2ff" stroke="none" /><path d="M 83.06392112726016 112.41649034213515 l -26.31092197476883 19.28954813255061 a53.62439704148354,53.62439704148354 0 0,0 -0.5393598227064292,-0.7491236199960323 l 26.63906158985087 -18.833790907103438" fill="#7bff26" stroke="none" /><path d="M 82.6465618267979 111.8261652097733 l -34.203015455311665 23.308955113665963 a62.39026038486812,62.39026038486812 0 0,0 -0.5971546947606867,-0.8926652456542764 l 34.59917325548308 -22.716752953805866" fill="#31ff42" stroke="none" /><path d="M 82.44556493220864 111.52570212397912 l -25.45604572219003 16.71365664091801 a51.45252997898093,51.45252997898093 0 0,0 -0.47972167318243925,-0.7445386900003068 l 25.739972258749518 -16.272996350996255" fill="#93ff23" stroke="none" /><line stroke="#e1ed5e" stroke-width="0.3" x1="26.63291911575756" x2="22.317208475507996" y1="142.92168965132927" y2="145.44649492493687" /><path d="M 25.769776987707644 143.4266507060508 a86.0,86.0 0 0,1 -11.730757126820373,-40.83630448921669" fill="none" id="id117" stroke="none" /><text fill="#e1ed5e" style="font-size:6.75px; font-family:Arial;" text-anchor="middle"><textPath startOffset="21.46611528233685" xlink:href="#id117">September</textPath></text><line stroke="#e1ed5e" stroke-width="0.3" x1="15.007084014347285" x2="10.007500721073583" y1="101.09737516637583" y2="101.16192664675087" /><path d="M 14.007167355692545 101.11028546245083 a86.0,86.0 0 0,1 10.666146001902534,-42.60595125391555" fill="none" id="id118" stroke="none" /><text fill="#e1ed5e" style="font-size:6.75px; font-family:Arial;" text-anchor="middle"><textPath startOffset="22.20632615414155" xlink:href="#id118">October</textPath></text><line stroke="#e1ed5e" stroke-width="0.3" x1="26.266209847984243" x2="21.928928074336255" y1="57.711370442889674" y2="55.22380399835377" /><path d="M 25.398753493254645 57.213857153982495 a86.0,86.0 0 0,1 29.58750427330803,-30.492523968695096" fill="none" id="id119" stroke="none" /><text fill="#e1ed5e" style="font-size:6.75px; font-family:Arial;" text-anchor="middle"><textPath startOffset="21.46611528233685" xlink:href="#id119">November</textPath></text><line stroke="#e1ed5e" stroke-width="0.3" x1="56.762969772571076" x2="54.21961505331055" y1="26.818313649435495" y2="22.513508569990535" /><path d="M 56.25429882871897 25.957352633546506 a86.0,86.0 0 0,1 42.265352541879196,-11.944610805530505" fill="none" id="id120" stroke="none" /><text fill="#e1ed5e" style="font-size:6.75px; font-family:Arial;" text-anchor="middle"><textPath startOffset="22.20632615414155" xlink:href="#id120">December</textPath></text></svg>