<?xml version="1.0" encoding="utf-8" ?>
<svg baseProfile="full" height="200mm" version="1.1" viewBox="0,0,200,200" width="200mm" xmlns="http://www.w3.org/2000/svg" xmlns:ev="http://www.w3.org/2001/xml-events" xmlns:xlink="http://www.w3.org/1999/xlink"><defs /><rect fill="#1a1a1a" height="200" width="200" x="0" y="0" /><text alignment-baseline="middle" fill="#e1ed5e" style="dominant-baseline: central; font-size:9.0px; font-family:Arial;" text-anchor="middle" x="100.0" y="100.0">2024</text><line stroke="#e1ed5e" stroke-width="0.3" x1="100.0" x2="100.0" y1="15.0" y2="10.0" /><path d="M 100.0 14.0 a86.0,86.0 0 0,1 42.35913384403234,11.155469271406648" fill="none" id="id97" stroke="none" /><text fill="#e1ed5e" style="font-size:6.75px; font-family:Arial;" text-anchor="middle"><textPath startOffset="22.145653131862478" xlink:href="#id97">January</textPath></text><path d="M 100.0 79.0 l 0.0 -13.30437239084717 a34.30437239084717,34.30437239084717 0 0,0 0.5888801684895618,0.005054827999402871 l -0.22838724364070703 13.302411961042203" fill="#ff6008" stroke="none" /><path d="M 101.08105385017728 79.02784411241856 l 1.056351028276745 -20.49292774212304 a41.52013559747638,41.52013559747638 0 0,0 0.7114883473798989,0.04280137219695117 l -1.4079837277891063 20.4717743921014" fill="#ffca12" stroke="none" /><path d="M 101.44090949804482 79.04949213459386 l 3.0992244691217037 -45.06204359475598 a66.16849527320664,66.16849527320664 0 0,0 1.1325242271551845,0.08766453776561174 l -3.8723176910521215 45.00220128999531" fill="#34ff60" stroke="none" /><path d="M 102.15924093988457 79.11130261209362 l 2.862516562303934 -27.692251074599145 a48.83980550665004,48.83980550665004 0 0,0 0.8332166136110677,0.09336365947866299 l -3.3374690775157982 27.63903165461351" fill="#d1ff1c" stroke="none" /><path d="M 102.87502721639298 79.19773525538626 l 2.7373914074466703 -19.806400594279776 a40.994669695162486,40.994669695162486 0 0,0 0.6962747373414304,0.10232840885177374 l -3.076991250395783 19.75649111212912" fill="#ffc212" stroke="none" /><path d="M 103.23170211078529 79.25015418208739 l 3.7234626193381763 -23.907301048008375 a45.19552060356857,45.19552060356857 0 0,0 0.7655744495198956,0.125974984333254 l -4.133314571911143 23.839860065179455" fill="#fffd17" stroke="none" /><path d="M 103.94208987418118 79.37332000966035 l 4.762478857182356 -24.919301812788717 a46.370313512094484,46.370313512094484 0 0,0 0.7805747044550836,0.15613680216059886 l -5.189550047168397 24.833875613965258" fill="#f2ff19" stroke="none" /><path d="M 104.64783097203109 79.52079915486377 l 10.74306522708655 -47.33592761910646 a69.53971048569122,69.53971048569122 0 0,0 1.1618689736984007,0.274197914187624 l -11.554066354524835 47.14453356127261" fill="#39ff8a" stroke="none" /><path d="M 104.9986988182912 79.60360301121754 l 4.757471152026088 -19.412105791277856 a40.98658007299207,40.98658007299207 0 0,0 0.6819282917284265,0.17334350509752516 l -5.0900047369799095 19.327577054345063" fill="#ffc212" stroke="none" /><path d="M 105.69591212413111 79.78721728523813 l 6.6102837567491735 -23.457565065309513 a45.37115528935736,45.37115528935736 0 0,0 0.7478462442900218,0.2176871424848815 l -7.0119900134207995 23.340634228522116" fill="#ffff18" stroke="none" /><path d="M 106.38641147887787 79.99465700312896 l 8.672933725099968 -27.167841366563643 a49.5186146914387,49.5186146914387 0 0,0 0.8075714092857242,0.26546476263859464 l -9.138027872033435 27.014955682523027" fill="#c8ff1d" stroke="none" /><path d="M 107.06938296918511 80.22567764915836 l 10.480407808152803 -29.315565908658087 a52.13264126877234,52.13264126877234 0 0,0 0.8401072075369732,0.3084990033049146 l -10.9821041673439 29.131336056344452" fill="#a7ff21" stroke="none" /><path d="M 107.74402155503746 80.48000691201159 l 7.4498605931267186 -18.77851530381067 a41.202303330869825,41.202303330869825 0 0,0 0.6552059707629649,0.2664665643151209 l -7.771121025080124 18.647861482916255" fill="#ffc512" stroke="none" /><path d="M 108.07796709384702 80.6158196554323 l 14.524684980920851 -34.853956428302254 a58.75930021201373,58.75930021201373 0 0,0 0.927739188468308,0.3959966927749354 l -15.12085924455959 34.59948508586792" fill="#59ff2a" stroke="none" /><path d="M 108.73861861582097 80.90454125486305 l 10.480462549715929 -22.901702093478068 a46.185870126609004,46.185870126609004 0 0,0 0.7181051360001305,0.33610946290201454 l -10.872056399587565 22.71841639900552" fill="#f4ff19" stroke="none" /><path d="M 109.3889696526874 81.21577127319529 l 22.5849503074813 -45.185029673390964 a71.51501645032516,71.51501645032516 0 0,0 1.0934059533764293,0.5583008706198708 l -23.357283482571308 44.79067085109826" fill="#3cffa2" stroke="none" /><path d="M 110.02825361518725 81.54914285379988 l 8.702414264090603 -16.011462072580592 a39.22358174798616,39.22358174798616 0 0,0 0.5888315289231878,0.32661492316857166 l -8.97598998116989 15.859714233978872" fill="#ffa90f" stroke="none" /><path d="M 110.34350942703115 81.72400993836675 l 9.803709216698199 -17.322214812632087 a40.90406592685383,40.90406592685383 0 0,0 0.6081217846427924,0.3510992760635919 l -10.099623469201388 17.151368639292325" fill="#ffc112" stroke="none" /><line stroke="#e1ed5e" stroke-width="0.3" x1="143.13028292997686" x2="145.6673583964461" y1="26.7553504044142" y2="22.446841604673864" /><path d="M 143.63769802327073 25.89364864446614 a86.0,86.0 0 0,1 29.32050498858742,28.57503671076993" fill="none" id="id98" stroke="none" /><text fill="#e1ed5e" style="font-size:6.75px; font-family:Arial;" text-anchor="middle"><textPath startOffset="20.669276256404974" xlink:href="#id98">February</textPath></text><path d="M 111.27062007382361 82.28071324371311 l 12.014171164301255 -18.888272571071223 a43.38542270059266,43.38542270059266 0 0,0 0.6249863675015367,0.4051086125434216 l -12.336643164059799 18.679250116823905" fill="#ffe415" stroke="none" /><path d="M 111.8722381534696 82.67804972795209 l 26.435513341488747 -38.57020400011973 a67.75999360819975,67.75999360819975 0 0,0 0.9538184158389734,0.6658393315268332 l -27.093726848501483 38.11071985278777" fill="#37ff74" stroke="none" /><path d="M 112.45986205192187 83.09580414077388 l 10.862563265095138 -14.737153284781352 a39.30789358794004,39.30789358794004 0 0,0 0.5397292203950554,0.4050228690838599 l -11.11394547440096 14.548511388433477" fill="#ffaa0f" stroke="none" /><path d="M 113.03279911837588 83.53348406188908 l 13.407402514360458 -16.939815091609976 a42.60360566016738,42.60360566016738 0 0,0 0.5695680699609665,0.45880371955236493 l -13.696221354676684 16.7071630782642" fill="#ffd914" stroke="none" /><path d="M 113.59037401385872 83.9905735841838 l 21.158928996645855 -24.925165154678627 a53.69501696395196,53.69501696395196 0 0,0 0.6975763077260675,0.6025498002362702 l -21.583684784134782 24.558271221977638" fill="#94ff23" stroke="none" /><path d="M 113.86319453409587 84.22622945171908 l 14.367999014775213 -16.34814538161362 a42.764679026049436,42.764679026049436 0 0,0 0.5472554700463023,0.48935921586008785 l -14.646519511644891 16.099090635870144" fill="#ffdb14" stroke="none" /><path d="M 114.39649973595853 84.71141617570332 l 14.791690840683954 -15.70826308259028 a42.5764604835511,42.5764604835511 0 0,0 0.5278011484922205,0.5056215609105456 l -15.059164475041486 15.452029391374154" fill="#ffd914" stroke="none" /><path d="M 114.91283532996326 85.21462403516908 l 31.975771903522723 -31.70247634997695 a66.02773584744142,66.02773584744142 0 0,0 0.7911166585401881,0.8117553852359369 l -32.515275363213725 31.14889827267327" fill="#34ff5e" stroke="none" /><path d="M 115.41159269507618 85.73525988315684 l 5.296862326169688 -4.902696691539733 a28.21756090044486,28.21756090044486 0 0,0 0.32598310243248874,0.3583125334076987 l -5.380243129444054 4.811046582574362" fill="#ff0000" stroke="none" /><path d="M 115.8921839302757 86.27271002978787 l 20.487847504325007 -17.696914709221904 a48.07272955551307,48.07272955551307 0 0,0 0.5340775786835013,0.6291420447701987 l -20.78861964651562 17.34260588200215" fill="#dbff1b" stroke="none" /><path d="M 116.35404254752997 86.82634096563983 l 17.160803838221906 -13.823528822506288 a43.03595102283071,43.03595102283071 0 0,0 0.45850413967014053,0.5793050023247117 l -17.395574408533605 13.526903876266898" fill="#ffdf14" stroke="none" /><path d="M 116.57777611688842 87.10902102172516 l 20.053466160770334 -15.59369657892072 a46.40285177015771,46.40285177015771 0 0,0 0.4835796359533439,0.6330212665777859 l -20.318197774077987 15.247154399102053" fill="#f1ff19" stroke="none" /><path d="M 117.01052211995028 87.68569379921539 l 46.89442277590646 -33.94794569499362 a78.89257210036267,78.89257210036267 0 0,0 0.7847365309477253,1.1038302060261413 l -47.470274405384146 33.137938262257975" fill="#46fff7" stroke="none" /><path d="M 117.42321728460499 88.27688183743584 l 21.473350036797356 -14.448228229920971 a46.881577633264754,46.881577633264754 0 0,0 0.4435344638366902,0.6715677089188365 l -21.71820893955477 14.077480642663076" fill="#ebff1a" stroke="none" /><path d="M 117.62189284568427 88.57770195909679 l 22.70749160221322 -14.718721712424236 a48.06050523756666,48.06050523756666 0 0,0 0.44280273785668595,0.6961594514905639 l -22.956812031695797 14.326748586255" fill="#dbff1b" stroke="none" /><line stroke="#e1ed5e" stroke-width="0.3" x1="172.87174338648825" x2="177.1583165268699" y1="56.24261187166439" y2="53.66864786411523" /><path d="M 173.72905801456457 55.72781907015455 a86.0,86.0 0 0,1 12.242430191666344,42.057860355516425" fill="none" id="id99" stroke="none" /><text fill="#e1ed5e" style="font-size:6.75px; font-family:Arial;" text-anchor="middle"><textPath startOffset="22.145653131862474" xlink:href="#id99">March</textPath></text><path d="M 118.00360718960297 89.18935116829356 l 21.69763222199169 -13.028804725695823 a46.308832383599324,46.308832383599324 0 0,0 0.40338585219782336,0.6850373656026023 l -21.91809178431928 12.654416191799665" fill="#f2ff19" stroke="none" /><path d="M 118.36410011445183 89.81374322990088 l 55.092300343355504 -30.558770310297362 a84.0,84.0 0 0,0 0.6886186015386349,1.2669806661015868 l -55.60876429450948 29.60853481072117" fill="#4dd2ff" stroke="none" /><path d="M 118.70294669586156 90.45014215332178 l 20.943891117900776 -10.69410003593263 a44.51617211063521,44.51617211063521 0 0,0 0.3416724040130208,0.6835736852957883 l -21.124383435125534 10.332994494473091" fill="#fff316" stroke="none" /><path d="M 118.8641267826498 90.77261029715802 l 19.860599065351185 -9.714814230174081 a43.109296930509146,43.109296930509146 0 0,0 0.3194619417691582,0.6675525907887991 l -20.024440265080255 9.37244913732018" fill="#ffe015" stroke="none" /><path d="M 119.4528033332814 92.08871423366111 l 18.32987186127753 -7.454599312523823 a40.78775513698142,40.78775513698142 0 0,0 0.2582084863365512,0.6508540598354595 l -18.455139022580205 7.1388442354747985" fill="#ffc011" stroke="none" /><path d="M 119.94978838288452 93.4421083053983 l 16.199251620565427 -5.325015765701513 a38.0520246883284,38.0520246883284 0 0,0 0.19865926390265293,0.6222973147005628 l -16.28827560024534 5.046149417309564" fill="#ff980e" stroke="none" /><path d="M 120.43855184770803 95.1765574152323 l 17.686673346316663 -4.174006751416021 a39.17252724362175,39.17252724362175 0 0,0 0.14883534282749622,0.6557959824616915 l -17.755719550701826 3.8697764350153037" fill="#ffa80f" stroke="none" /><path d="M 120.592083275326 95.88100663000786 l 18.25687737224736 -3.651886788120801 a39.618535079284,39.618535079284 0 0,0 0.12767300776974186,0.6680391261291483 l -18.31687667229926 3.337945096958338" fill="#ffaf10" stroke="none" /><path d="M 120.65975698304385 96.23510406497455 l 26.203980265824907 -4.775238104942909 a47.63553041954749,47.63553041954749 0 0,0 0.13969727784485983,0.8057367755022053 l -26.282092361162 4.324708296520112" fill="#e1ff1b" stroke="none" /><path d="M 120.77682067341334 96.94652285012252 l 58.86132482280251 -8.650587747909576 a80.49359821257872,80.49359821257872 0 0,0 0.18918097399963346,1.3688192874645975 l -59.00115031335736 7.6388801522448935" fill="#48f6ff" stroke="none" /><line stroke="#e1ed5e" stroke-width="0.3" x1="184.99686870605535" x2="189.99668451229388" y1="99.2704041080226" y2="99.22748670261217" /><path d="M 185.99683186730306 99.26182062694052 a86.0,86.0 0 0,1 -10.086455211305974,41.156179273409016" fill="none" id="id100" stroke="none" /><text fill="#e1ed5e" style="font-size:6.75px; font-family:Arial;" text-anchor="middle"><textPath startOffset="21.40746469413373" xlink:href="#id100">April</textPath></text><line stroke="#e1ed5e" stroke-width="0.3" x1="174.33088141563837" x2="178.70328620479359" y1="141.23008692659167" y2="143.65538615756765" /><path d="M 175.20536237346943 141.71514677278685 a86.0,86.0 0 0,1 -30.301960400862466,31.631185727798858" fill="none" id="id101" stroke="none" /><text fill="#e1ed5e" style="font-size:6.75px; font-family:Arial;" text-anchor="middle"><textPath startOffset="22.145653131862474" xlink:href="#id101">May</textPath></text><line stroke="#e1ed5e" stroke-width="0.3" x1="143.1302829299769" x2="145.66735839644613" y1="173.24464959558577" y2="177.55315839532614" /><path d="M 143.63769802327073 174.10635135553383 a86.0,86.0 0 0,1 -40.68552437913181,11.842963189579606" fill="none" id="id102" stroke="none" /><text fill="#e1ed5e" style="font-size:6.75px; font-family:Arial;" text-anchor="middle"><textPath startOffset="21.407464694133747" xlink:href="#id102">June</textPath></text><line stroke="#e1ed5e" stroke-width="0.3" x1="101.45913802915013" x2="101.54496967792366" y1="184.9874750549273" y2="189.98673829345242" /><path d="M 101.47630435890484 185.9873277026323 a86.0,86.0 0 0,1 -42.54439059252881,-10.42667462771756" fill="none" id="id103" stroke="none" /><text fill="#e1ed5e" style="font-size:6.75px; font-family:Arial;" text-anchor="middle"><textPath startOffset="22.145653131862474" xlink:href="#id103">July</textPath></text><line stroke="#e1ed5e" stroke-width="0.3" x1="58.13341422392154" x2="55.67067388415222" y1="173.97424548756322" y2="178.32567169271397" /><path d="M 57.64086615596768 174.84453072859336 a86.0,86.0 0 0,1 -31.369924170532247,-30.572349798747897" fill="none" id="id104" stroke="none" /><text fill="#e1ed5e" style="font-size:6.75px; font-family:Arial;" text-anchor="middle"><textPath startOffset="22.145653131862474" xlink:href="#id104">August</textPath></text><line stroke="#e1ed5e" stroke-width="0.3" x1="26.387840678322732" x2="22.057713659400548" y1="142.50000000000003" y2="145.00000000000006" /><path d="M 25.521815274538298 143.00000000000003 a86.0,86.0 0 0,1 -11.493303480769221,-40.785679425670985" fill="none" id="id105" stroke="none" /><text fill="#e1ed5e" style="font-size:6.75px; font-family:Arial;" text-anchor="middle"><textPath startOffset="21.40746469413373" xlink:href="#id105">September</textPath></text><line stroke="#e1ed5e" stroke-width="0.3" x1="15.003131293944662" x2="10.003315487706104" y1="100.72959589197737" y2="100.7725132973878" /><path d="M 14.003168132696942 100.73817937305945 a86.0,86.0 0 0,1 10.791469493833604,-42.45332614584628" fill="none" id="id106" stroke="none" /><text fill="#e1ed5e" style="font-size:6.75px; font-family:Arial;" text-anchor="middle"><textPath startOffset="22.145653131862435" xlink:href="#id106">October</textPath></text><line stroke="#e1ed5e" stroke-width="0.3" x1="26.387840678322718" x2="22.05771365940052" y1="57.49999999999999" y2="54.99999999999999" /><path d="M 25.521815274538284 56.99999999999999 a86.0,86.0 0 0,1 29.574782752854787,-30.34633250058573" fill="none" id="id107" stroke="none" /><text fill="#e1ed5e" style="font-size:6.75px; font-family:Arial;" text-anchor="middle"><textPath startOffset="21.40746469413373" xlink:href="#id107">November</textPath></text><line stroke="#e1ed5e" stroke-width="0.3" x1="56.869717070023135" x2="54.33264160355391" y1="26.7553504044142" y2="22.446841604673864" /><path d="M 56.362301976729285 25.89364864446614 a86.0,86.0 0 0,1 42.16139366436587,-11.88097634709845" fill="none" id="id108" stroke="none" /><text fill="#e1ed5e" style="font-size:6.75px; font-family:Arial;" text-anchor="middle"><textPath startOffset="22.145653131862474" xlink:href="#id108">December</textPath></text></svg>