<?xml version="1.0" encoding="utf-8" ?>
<svg baseProfile="full" height="200mm" version="1.1" viewBox="0,0,200,200" width="200mm" xmlns="http://www.w3.org/2000/svg" xmlns:ev="http://www.w3.org/2001/xml-events" xmlns:xlink="http://www.w3.org/1999/xlink"><defs /><rect fill="#1a1a1a" height="200" width="200" x="0" y="0" /><text alignment-baseline="middle" fill="#e1ed5e" style="dominant-baseline: central; font-size:9.0px; font-family:Arial;" text-anchor="middle" x="100.0" y="100.0">2021</text><line stroke="#e1ed5e" stroke-width="0.3" x1="100.0" x2="100.0" y1="15.0" y2="10.0" /><path d="M 100.0 14.0 a86.0,86.0 0 0,1 42.46469731375804,11.215312516191453" fill="none" id="id61" stroke="none" /><text fill="#e1ed5e" style="font-size:6.75px; font-family:Arial;" text-anchor="middle"><textPath startOffset="22.20632615414155" xlink:href="#id61">January</textPath></text><path d="M 101.08401301168833 79.027996857942 l 2.022079473062343 -39.12043177093074 a60.1726561180044,60.1726561180044 0 0,0 1.0339322833094904,0.06236961887581901 l -2.695173805211445 39.07982888267462" fill="#3eff2e" stroke="none" /><path d="M 102.16513564639614 79.11191278185805 l 4.881532762031181 -47.0944544565819 a68.34677394152479,68.34677394152479 0 0,0 1.1691636622614074,0.13136916016714448 l -5.691463127802313 47.00344934294416" fill="#38ff84" stroke="none" /><path d="M 103.2404852339499 79.25152402106235 l 7.2594300878922775 -46.4813445904252 a68.04481608142225,68.04481608142225 0 0,0 1.155695169995005,0.1906996054275059 l -8.058454464026157 46.34949872205807" fill="#38ff80" stroke="none" /><path d="M 103.95276090670814 79.375362276772 l 9.62172065705649 -50.204023848018345 a72.11772216105508,72.11772216105508 0 0,0 1.2171877717426198,0.2441564163035266 l -10.484474838266236 50.03096347563761" fill="#3dffaf" stroke="none" /><path d="M 105.36241919743992 79.69619591428918 l 5.924901645597532 -22.43353938027625 a44.20276165969064,44.20276165969064 0 0,0 0.7339807758512072,0.2006246723245713 l -6.3101803106724494 22.32822816712539" fill="#f8ff18" stroke="none" /><path d="M 106.0581310904928 79.89281104454417 l 13.426726800204582 -44.56386446451685 a67.54261497358264,67.54261497358264 0 0,0 1.1103189835356568,0.3449815129403962 l -14.191831156450958 44.32614281669393" fill="#37ff7a" stroke="none" /><path d="M 107.4271985657038 80.35727306442388 l 7.3099395971264975 -19.332611906317695 a41.668456643734544,41.668456643734544 0 0,0 0.6687129227342863,0.2594502249423195 l -7.64163568486045 19.20391897748483" fill="#ffe515" stroke="none" /><path d="M 107.76421540070413 80.48803036053334 l 20.256894788950294 -50.90687155279375 a75.789153650912,75.789153650912 0 0,0 1.2079929636764,0.49277066078057474 l -21.13017162221508 50.5506400058296" fill="#42ffd8" stroke="none" /><path d="M 108.76106565485865 80.91482961587045 l 26.283196964575957 -57.255511152388685 a84.0,84.0 0 0,0 1.308887154801608,0.6145400694399883 l -27.264862330677165 56.79460610030869" fill="#4dd2ff" stroke="none" /><path d="M 109.73455568895987 81.39251694778311 l 8.661473120984915 -16.55629896788641 a39.685078328430436,39.685078328430436 0 0,0 0.6025611335205721,0.3218672895131386 l -8.945179301033798 16.404752951871515" fill="#ffca12" stroke="none" /><path d="M 110.36928655335952 81.73862282372117 l 21.386381219226347 -37.66361088299239 a64.31194854078421,64.31194854078421 0 0,0 0.9579517926228078,0.554907509796913 l -22.031529744314483 37.28989921580542" fill="#33ff52" stroke="none" /><line stroke="#e1ed5e" stroke-width="0.3" x1="143.23703022742887" x2="145.7803849466894" y1="26.81831364943548" y2="22.513508569990506" /><path d="M 143.74570117128098 25.957352633546492 a86.0,86.0 0 0,1 28.547481713284135,27.462654790039103" fill="none" id="id62" stroke="none" /><text fill="#e1ed5e" style="font-size:6.75px; font-family:Arial;" text-anchor="middle"><textPath startOffset="19.985693538727396" xlink:href="#id62">February</textPath></text><path d="M 110.99172775467656 82.1063720568725 l 27.46558095790078 -44.71170482669816 a73.47375235167374,73.47375235167374 0 0,0 1.071950024947439,0.671255007281202 l -28.231150135220485 44.23230547809401" fill="#3fffbf" stroke="none" /><path d="M 111.90073688211348 82.69761687909136 l 28.85197525182865 -41.94764866639575 a71.9120978213578,71.9120978213578 0 0,0 1.0138539453389726,0.7102694798472463 l -29.569760336751276 41.444794343784565" fill="#3dffad" stroke="none" /><path d="M 113.06298171725822 83.55741782278167 l 12.18774144129412 -15.340903366527042 a40.59296704281817,40.59296704281817 0 0,0 0.5433592894247526,0.4393587572757478 l -12.450004129283363 15.128838511987166" fill="#ffd714" stroke="none" /><path d="M 116.15771136456269 86.58626213691792 l 18.32392270021066 -15.212073676664362 a44.815401081391855,44.815401081391855 0 0,0 0.487637463109456,0.5977858708695283 l -18.583058655396524 14.894403636186734" fill="#f0ff19" stroke="none" /><path d="M 116.60985879189232 87.15038557335679 l 18.53261872643006 -14.337087866565987 a44.43096338934573,44.43096338934573 0 0,0 0.4627676520129276,0.6089479850345777 l -18.7766623186671 14.015955105650377" fill="#f5ff19" stroke="none" /><line stroke="#e1ed5e" stroke-width="0.3" x1="172.23445277983987" x2="176.4835382374775" y1="55.19839476539836" y2="52.563006222186495" /><path d="M 173.08426987136738 54.67131705675599 a86.0,86.0 0 0,1 12.851231095245387,41.99856678651699" fill="none" id="id63" stroke="none" /><text fill="#e1ed5e" style="font-size:6.75px; font-family:Arial;" text-anchor="middle"><textPath startOffset="22.20632615414155" xlink:href="#id63">March</textPath></text><path d="M 118.3937258080291 89.86733742301442 l 20.819761682388254 -11.469107578455223 a44.769789758380725,44.769789758380725 0 0,0 0.3660290619621949,0.6781962616356494 l -21.014098843568913 11.109030333487114" fill="#f1ff19" stroke="none" /><path d="M 119.196687751892 91.48605970444005 l 28.540981513445665 -12.658236448014684 a52.222084743410306,52.222084743410306 0 0,0 0.3573713680481365,0.8248623895647675 l -28.75464359133648 12.165074913863315" fill="#96ff23" stroke="none" /><path d="M 119.61058180528143 92.48833698450437 l 19.269055602424835 -7.380844370118696 a41.634276518096115,41.634276518096115 0 0,0 0.2505895958543752,0.6714555315810518 l -19.393249786780835 7.048065701508311" fill="#ffe515" stroke="none" /><path d="M 119.85752413597 93.16781622104841 l 10.648963578670125 -3.6638845672128038 a32.26163733307475,32.26163733307475 0 0,0 0.17615269733162123,0.5266741438830309 l -10.710453569773517 3.480037320407459" fill="#ff6209" stroke="none" /><path d="M 120.08093135843002 93.85539295169968 l 30.71572382624518 -9.398769895060683 a53.12152807246979,53.12152807246979 0 0,0 0.2600276105840503,0.8766838362398707 l -30.872957333940935 8.868656672074282" fill="#8bff24" stroke="none" /><path d="M 120.53481517161879 95.60439243477599 l 31.163565587981104 -6.670759074920177 a52.86952849968179,52.86952849968179 0 0,0 0.18282963734709662,0.8915422423285531 l -31.273774521243197 6.133341176428212" fill="#8eff24" stroke="none" /><path d="M 120.67395015179393 96.31383870115 l 37.429225137212725 -6.673623576226181 a59.019523221751726,59.019523221751726 0 0,0 0.16971805434883602,1.0016855639550353 l -37.53855505308178 6.028352223955308" fill="#4aff2c" stroke="none" /><path d="M 120.78858239683441 97.02765380044208 l 15.416590150559824 -2.204260120744751 a36.573375181708165,36.573375181708165 0 0,0 0.0837425812712079,0.62397949982826 l -15.452248730888869 1.938562278851827" fill="#ffa00e" stroke="none" /><path d="M 120.91429891909075 98.10471618934814 l 40.51909496318073 -3.671898589719525 a61.68513114011607,61.68513114011607 0 0,0 0.08672787321781358,1.0582997269046428 l -40.57629732021804 2.973884945607113" fill="#2fff31" stroke="none" /><path d="M 120.98425023603335 99.18683210126433 l 30.298963403249537 -1.1741255526100074 a51.3217043406987,51.3217043406987 0 0,0 0.026609828472313073,0.8830506601582118 l -30.314684926177495 0.6524047450267966" fill="#a0ff22" stroke="none" /><line stroke="#e1ed5e" stroke-width="0.3" x1="184.98032266829074" x2="189.97916517819016" y1="98.17113171792111" y2="98.06355123074" /><path d="M 185.9800911702706 98.14961562048488 a86.0,86.0 0 0,1 -9.607161424134198,41.387399972396054" fill="none" id="id64" stroke="none" /><text fill="#e1ed5e" style="font-size:6.75px; font-family:Arial;" text-anchor="middle"><textPath startOffset="21.466115282336823" xlink:href="#id64">April</textPath></text><path d="M 120.99824983174949 100.27111621757518 l 47.16151152037593 0.6089198252703875 a68.16544235179141,68.16544235179141 0 0,0 -0.02524697798385579,1.1731278608147258 l -47.14404247970707 -1.4206375018752282" fill="#38ff81" stroke="none" /><path d="M 120.92983693683757 101.71520430193887 l 19.479188973117676 1.5963234126381065 a40.54448903113524,40.54448903113524 0 0,0 -0.06298953920859418,0.6950843163331916 l -19.448824837632007 -1.9313891175198685" fill="#ffd614" stroke="none" /><path d="M 120.89721153311464 102.0752229133903 l 38.05951330867873 3.779546087548324 a59.2467191000927,59.2467191000927 0 0,0 -0.10951529900377471,1.0139756552777093 l -37.98881570817391 -4.434118064710825" fill="#48ff2c" stroke="none" /><path d="M 120.5718875245553 104.21870165774334 l 4.657729469830805 0.955166170933067 a25.754659422947693,25.754659422947693 0 0,0 -0.09279766964580557,0.43351981865024536 l -4.6405977614605565 -1.0351998089994814" fill="#ff0000" stroke="none" /><path d="M 119.54520255179757 107.68017299344265 l 20.61758804912522 8.10156060062188 a43.15220578472898,43.15220578472898 0 0,0 -0.27760715193066243,0.6889981846950773 l -20.47507828293717 -8.455258153159772" fill="#fff817" stroke="none" /><path d="M 119.12269723197855 108.67885076344098 l 40.124983436468966 18.210754419533565 a65.06411093288358,65.06411093288358 0 0,0 -0.4716385341301867,1.0158674435826938 l -39.805570285498945 -18.89874193039509" fill="#34ff5c" stroke="none" /><path d="M 118.81262510543309 109.33194174019688 l 39.076601317159046 19.383821495029675 a64.62010208896089,64.62010208896089 0 0,0 -0.502871573425004,0.992213321806065 l -38.73715107394777 -20.053589028538433" fill="#33ff56" stroke="none" /><line stroke="#e1ed5e" stroke-width="0.3" x1="174.80103733775053" x2="179.2010983576182" y1="140.37084112569926" y2="142.7455964860345" /><path d="M 175.68104954172406 140.8457921977663 a86.0,86.0 0 0,1 -30.038265399797805,32.042727171017184" fill="none" id="id65" stroke="none" /><text fill="#e1ed5e" style="font-size:6.75px; font-family:Arial;" text-anchor="middle"><textPath startOffset="22.206326154141568" xlink:href="#id65">May</textPath></text><path d="M 117.55443506779139 111.5257021239791 l 16.353751013742905 10.737369904882772 a40.56364701924923,40.56364701924923 0 0,0 -0.3882460516230836,0.5803751692604785 l -16.1665018567091 -11.017281988349058" fill="#ffd614" stroke="none" /><path d="M 117.14729908036423 112.12312394758627 l 25.161561519564028 17.789199779328303 a51.81492831229142,51.81492831229142 0 0,0 -0.5211599960078785,0.7238456525135732 l -24.851621731180547 -18.219679037293005" fill="#9bff22" stroke="none" /><path d="M 116.498646956653 112.99209946851258 l 30.893025855506323 24.32716245475028 a60.32162101959676,60.32162101959676 0 0,0 -0.6494113346831546,0.810240491574734 l -30.469696608768313 -24.855330779903266" fill="#3cff2e" stroke="none" /><path d="M 116.0416608686014 113.55231037782055 l 28.60496171891974 24.166033849977172 a58.44650887571639,58.44650887571639 0 0,0 -0.655874171714311,0.7629298360425181 l -28.184745037634652 -24.654840785181218" fill="#50ff2b" stroke="none" /><path d="M 115.56566222782051 114.09645910891815 l 27.708059037094714 25.092766082627836 a58.381592332063704,58.381592332063704 0 0,0 -0.6809895594604009,0.7390796697228166 l -27.272023069638593 -25.56599700715199" fill="#51ff2b" stroke="none" /><path d="M 113.20401910651253 116.32954008644616 l 15.242548118073422 18.850608932465065 a45.242127180932684,45.242127180932684 0 0,0 -0.6097831005757937,0.4844485743456493 l -14.915807524780277 -19.110191420815838" fill="#ebff1a" stroke="none" /><path d="M 112.63410532772338 116.77436683061366 l 14.57663352115028 19.353471535705104 a45.22880734359968,45.22880734359968 0 0,0 -0.6259129135282513,0.4630354099637907 l -14.241335637203465 -19.60151689440866" fill="#ebff1a" stroke="none" /><path d="M 111.7513745106137 117.40417183066458 l 21.96360653412465 32.528823057742 a60.249513901547,60.249513901547 0 0,0 -0.8645096631978271,0.5729498644964313 l -21.40042217218686 -32.902070943329754" fill="#3dff2e" stroke="none" /><line stroke="#e1ed5e" stroke-width="0.3" x1="143.8653032363475" x2="146.44561519142675" y1="172.8068346515853" y2="177.08958963109032" /><path d="M 144.38136562736335 173.6633856474863 a86.0,86.0 0 0,1 -40.68145358897372,12.25698825130547" fill="none" id="id66" stroke="none" /><text fill="#e1ed5e" style="font-size:6.75px; font-family:Arial;" text-anchor="middle"><textPath startOffset="21.466115282336833" xlink:href="#id66">June</textPath></text><path d="M 110.5260780823613 118.17145234162733 l 19.984169368313104 34.49921028724191 a60.869318225732954,60.869318225732954 0 0,0 -0.9111592971869088,0.5173800287396503 l -19.387361304204997 -34.83809348177619" fill="#37ff2e" stroke="none" /><path d="M 110.21172684928248 118.3499491758327 l 15.185412077931241 27.287406327725385 a52.22818092798502,52.22818092798502 0 0,0 -0.7893349144828264,0.4304083310080892 l -14.713454351579765 -27.544755310493247" fill="#96ff23" stroke="none" /><path d="M 109.2508944713604 118.85261126421891 l 21.011196005945923 42.819201075391405 a68.69648140413587,68.69648140413587 0 0,0 -1.0660625258364507,0.5117747969145026 l -20.27102081210924 -43.17453014880547" fill="#39ff88" stroke="none" /><path d="M 108.2653958097858 119.30500536409082 l 6.841907347309863 15.980245965238563 a38.383324114181846,38.383324114181846 0 0,0 -0.6096159081637609,0.2548194990537661 l -6.565819979648641 -16.095650507312303" fill="#ffb911" stroke="none" /><path d="M 107.59598834532513 119.57807347666477 l 12.81499621080563 33.02966329230122 a56.42855889089695,56.42855889089695 0 0,0 -0.9085798171711819,0.3435471427696289 l -12.244546172874173 -33.245358685177486" fill="#66ff29" stroke="none" /><path d="M 106.57524785965236 119.94407469862006 l 9.845265514276074 29.862708605915792 a52.44376914952199,52.44376914952199 0 0,0 -0.8597747762456509,0.27527273256130047 l -9.329769392939482 -30.0277541851368" fill="#93ff23" stroke="none" /><path d="M 105.88484417918355 120.15858648285463 l 13.25332398592108 45.39938010602483 a68.29433698327014,68.29433698327014 0 0,0 -1.1313081538781242,0.3197189846176711 l -12.46988466393835 -45.620787883981016" fill="#38ff83" stroke="none" /><path d="M 105.18746579009965 120.34920634021253 l 9.606992730043888 37.68596946618691 a59.89121499672501,59.89121499672501 0 0,0 -1.001172109397069,0.24606374609339682 l -8.956867335903608 -37.845754470594336" fill="#41ff2d" stroke="none" /><path d="M 104.13013068566511 120.58985236759428 l 6.225246181772813 31.034586939224386 a52.652792554717095,52.652792554717095 0 0,0 -0.890164120960115,0.17060207239046996 l -5.690114446240994 -31.137146209963326" fill="#91ff24" stroke="none" /><path d="M 103.7750983002368 120.6578951692458 l 4.365855973678103 23.890608364452465 a45.28624850417509,45.28624850417509 0 0,0 -0.7680354277587761,0.13353280384902283 l -3.953971574447277 -23.962219746822495" fill="#eaff1a" stroke="none" /><path d="M 103.06178313531738 120.77559828337769 l 1.3520226301933918 9.174091630112128 a30.273182971895274,30.273182971895274 0 0,0 -0.5161886321907331,0.07153904090010704 l -1.1939054068158281 -9.196005236504838" fill="#ff4506" stroke="none" /><path d="M 102.34483914955558 120.86867818915974 l 3.6186817409686145 32.205665252379845 a53.40832812551068,53.40832812551068 0 0,0 -0.9144711363678969,0.09478867233142209 l -3.063778007995115 -32.26318329316703" fill="#88ff25" stroke="none" /><path d="M 101.26447882468166 120.96189622390904 l 2.7167026666698533 45.036135250653224 a66.11800030690878,66.11800030690878 0 0,0 -1.1366374763540614,0.05875117439160535 l -1.9410771219023124 -45.076226231807034" fill="#35ff69" stroke="none" /><line stroke="#e1ed5e" stroke-width="0.3" x1="102.19456741930631" x2="102.32365962044197" y1="184.97166512339345" y2="189.96999836594603" /><path d="M 102.22038585953345 185.97133177190398 a86.0,86.0 0 0,1 -42.740103519485714,-10.115201625700543" fill="none" id="id67" stroke="none" /><text fill="#e1ed5e" style="font-size:6.75px; font-family:Arial;" text-anchor="middle"><textPath startOffset="22.20632615414155" xlink:href="#id67">July</textPath></text><path d="M 99.45781275523022 120.99299961872073 l -0.16117522944294377 6.240559074162001 a27.242640067526853,27.242640067526853 0 0,0 -0.4686767344309705,-0.016142174369790985 l 0.2685723155485573 -6.2368601013661165" fill="#ff1702" stroke="none" /><path d="M 99.09653310690486 120.98055641714683 l -1.4052030141041152 32.632010470196214 a53.66225195600944,53.66225195600944 0 0,0 -0.922510153901,-0.047683237670216455 l 1.966701236418604 -32.60298742576379" fill="#85ff25" stroke="none" /><path d="M 98.01472825383883 120.90594882070398 l -1.9980693025543679 21.04071377643534 a42.135371233070074,42.135371233070074 0 0,0 -0.721452667873066,-0.07478151886702349 l 2.3599545670330273 -21.003202889112558" fill="#ffeb16" stroke="none" /><path d="M 96.93821686468263 120.77559828337769 l -4.797078992605263 32.5503739746959 a53.90195758239705,53.90195758239705 0 0,0 -0.9167545776060564,-0.143178211011934 l 5.356669433819837 -32.46297745633686" fill="#82ff25" stroke="none" /><path d="M 96.22490169976321 120.6578951692458 l -7.1750924506223885 39.26316505859118 a60.91338224321704,60.91338224321704 0 0,0 -1.0298201620150238,-0.19736748504281718 l 7.849880227209107 -39.13384037519989" fill="#36ff2e" stroke="none" /><path d="M 93.42475214034765 119.94407469862007 l -6.8137312330192445 20.6674436596587 a42.76166723256719,42.76166723256719 0 0,0 -0.6970768077987718,-0.23648630036413137 l 7.168477773755242 -20.547094372396447" fill="#fff316" stroke="none" /><path d="M 92.40401165467489 119.57807347666478 l -11.989598441549 30.90226427069446 a54.14665002448111,54.14665002448111 0 0,0 -0.8660342164838483,-0.3446128876482016 l 12.519753734074706 -30.691304538640193" fill="#80ff26" stroke="none" /><path d="M 91.7346041902142 119.30500536409082 l -5.06190361265261 11.822794533212056 a33.86084518056004,33.86084518056004 0 0,0 -0.5338393227570678,-0.23401947100514173 l 5.264663610067421 -11.733910508912462" fill="#ff790b" stroke="none" /><line stroke="#e1ed5e" stroke-width="0.3" x1="58.666819895761336" x2="56.23545636021788" y1="174.27360380694188" y2="178.64263932499728" /><path d="M 58.180547188652646 175.14741091055294 a86.0,86.0 0 0,1 -31.652253787137756,-30.449443065178592" fill="none" id="id68" stroke="none" /><text fill="#e1ed5e" style="font-size:6.75px; font-family:Arial;" text-anchor="middle"><textPath startOffset="22.20632615414155" xlink:href="#id68">August</textPath></text><path d="M 82.6465618267979 111.8261652097733 l -6.124743884116645 4.173941343391243 a28.41176591536018,28.41176591536018 0 0,0 -0.271936986608793,-0.40650889808528573 l 6.195683976136169 -4.067895531100136" fill="#ff2904" stroke="none" /><path d="M 82.44556493220864 111.52570212397912 l -16.432289932157882 10.788936143004094 a40.657601468956415,40.657601468956415 0 0,0 -0.3790743159226643,-0.588331756448469 l 16.615569111457592 -10.504482786634176" fill="#ffd814" stroke="none" /><path d="M 82.05923443525364 110.91462005526583 l -16.59421482582642 10.095419244274327 a40.42383729862207,40.42383729862207 0 0,0 -0.3565365593032348,-0.597575781336798 l 16.76553226082789 -9.808281369051418" fill="#ffd413" stroke="none" /><line stroke="#e1ed5e" stroke-width="0.3" x1="26.63291911575756" x2="22.317208475507996" y1="142.92168965132927" y2="145.44649492493687" /><path d="M 25.769776987707644 143.4266507060508 a86.0,86.0 0 0,1 -11.730757126820373,-40.83630448921669" fill="none" id="id69" stroke="none" /><text fill="#e1ed5e" style="font-size:6.75px; font-family:Arial;" text-anchor="middle"><textPath startOffset="21.46611528233685" xlink:href="#id69">September</textPath></text><path d="M 81.51974371655577 109.97397251340807 l -17.746634449980622 9.578029735885158 a41.166350386788864,41.166350386788864 0 0,0 -0.3311881734944509,-0.6264832127295792 l 17.908875131699958 -9.271131508069454" fill="#ffde14" stroke="none" /><path d="M 80.87730276802145 108.67885076344099 l -21.36928082639744 9.698464445916219 a44.46713394614132,44.46713394614132 0 0,0 -0.31033594839311207,-0.6997256373287863 l 21.53305785952183 -9.329190472094737" fill="#f5ff19" stroke="none" /><path d="M 80.58989483394504 108.01547362559985 l -24.80372206089376 10.242787367453058 a47.8354117003806,47.8354117003806 0 0,0 -0.30773519364966584,-0.7637735134589181 l 24.976359868800813 -9.814314486151336" fill="#caff1d" stroke="none" /><path d="M 80.32549172779594 107.34259656027581 l -23.741594561809947 8.860447648965799 a46.34109004911642,46.34109004911642 0 0,0 -0.2724762066494329,-0.7497374968250098 l 23.890595029464603 -8.450462355134672" fill="#ddff1b" stroke="none" /><path d="M 80.0844068197444 106.66101706037122 l -11.69549272317849 3.911702546513836 a33.33231392928042,33.33231392928042 0 0,0 -0.17730846464093492,-0.5456993426272283 l 11.761093438835672 -3.709804303908804" fill="#ff720a" stroke="none" /><path d="M 79.97269907076064 106.31721596034903 l -28.56396686978558 9.009938385518817 a50.95128032403713,50.95128032403713 0 0,0 -0.2566324459437287,-0.8386896819980568 l 28.71482608823544 -8.516921730968713" fill="#a5ff21" stroke="none" /><path d="M 79.67330655649465 105.27499134158121 l -30.20484118786308 7.838474869641008 a52.20535401923881,52.20535401923881 0 0,0 -0.21823997219572186,-0.8717602042357394 l 30.335292474353864 -7.317386826007877" fill="#96ff23" stroke="none" /><path d="M 79.50377843672027 104.57218783832718 l -17.93880003644614 4.001691878066216 a39.379719383999884,39.379719383999884 0 0,0 -0.14189068199772023,-0.662866028453018 l 18.0050247571683 -3.6923120301970345" fill="#ffc612" stroke="none" /><path d="M 79.35854240842038 103.8639653848113 l -33.681459938808715 6.304980873373766 a55.26650737123912,55.26650737123912 0 0,0 -0.16699316724726543,-0.9365863659946968 l 33.78499954839516 -5.724275756645855" fill="#73ff27" stroke="none" /><path d="M 79.23777060512086 103.15116336523772 l -34.93952605443043 5.30290617676373 a56.339656122092954,56.339656122092954 0 0,0 -0.13727009385168396,-0.9600667166837195 l 35.02563019929872 -4.70069398809961" fill="#67ff28" stroke="none" /><path d="M 79.1416061653843 102.43462659150553 l -36.71060762883859 4.284923481268757 a57.95983335621077,57.95983335621077 0 0,0 -0.10713653982241265,-0.9919512995793927 l 36.778926470162055 -3.652375859804583" fill="#55ff2b" stroke="none" /><path d="M 79.07016306316243 101.71520430193888 l -30.93718239968332 2.5353082540461673 a52.04089307307878,52.04089307307878 0 0,0 -0.06548092786533782,-0.8934352358830736 l 30.97623988621299 -2.0023998816663333" fill="#98ff23" stroke="none" /><path d="M 79.0095281055655 100.63252640178507 l -29.799081996669692 0.8979648578958116 a50.81260855293041,50.81260855293041 0 0,0 -0.018819870673140324,-0.8744854389189837 l 29.81012393002784 -0.38488960318669907" fill="#a6ff21" stroke="none" /><line stroke="#e1ed5e" stroke-width="0.3" x1="15.007084014347285" x2="10.007500721073583" y1="101.09737516637583" y2="101.16192664675087" /><path d="M 14.007167355692545 101.11028546245083 a86.0,86.0 0 0,1 10.666146001902534,-42.60595125391555" fill="none" id="id70" stroke="none" /><text fill="#e1ed5e" style="font-size:6.75px; font-family:Arial;" text-anchor="middle"><textPath startOffset="22.20632615414155" xlink:href="#id70">October</textPath></text><path d="M 79.00019446554 99.90962569577889 l -35.26699442794949 -0.1517742665838462 a56.26732101264594,56.26732101264594 0 0,0 0.012504723174820608,-0.9685045905782682 l 35.259156697656955 0.7588151152225864" fill="#68ff28" stroke="none" /><path d="M 79.03285615573316 98.82574320788736 l -39.15500664330987 -2.192861022828073 a60.216363736367484,60.216363736367484 0 0,0 0.06686714353311314,-1.0344051143589625 l 39.11145890877234 2.8665252014400475" fill="#3dff2e" stroke="none" /><path d="M 79.16333360222342 97.38593545837743 l -37.61486767412012 -4.718974232616904 a58.9097215493555,58.9097215493555 0 0,0 0.13488643364199784,-1.0050606050101119 l 37.528065241420286 5.365753179691675" fill="#4bff2c" stroke="none" /><path d="M 79.21141760316559 97.0276538004421 l -42.4188505006812 -6.0650364064513616 a63.850245558348,63.850245558348 0 0,0 0.1649285487616071,-1.086673068406498 l 42.308166058480296 6.794308587249952" fill="#32ff4c" stroke="none" /><path d="M 79.32604984820605 96.31383870115002 l -43.936507967055334 -7.833870841597237 a65.6294327176802,65.6294327176802 0 0,0 0.2078711527344258,-1.110456009918422 l 43.795151090411046 8.589004928978232" fill="#35ff63" stroke="none" /><path d="M 79.46518482838121 95.60439243477599 l -42.42988299562852 -9.082385847081946 a64.39106709563617,64.39106709563617 0 0,0 0.24133040035023678,-1.081836864633988 l 42.26725820827624 9.811400881265895" fill="#33ff53" stroke="none" /><path d="M 79.62865764111835 94.90015583598534 l -16.332948094271313 -4.088856225196569 a37.83698128170515,37.83698128170515 0 0,0 0.16360650911111177,-0.630442618900446 l 16.260145253289892 4.369395269645878" fill="#ffb110" stroke="none" /><path d="M 79.81627453868168 94.20196356495316 l -37.13471766873461 -10.667428392302265 a59.63652785695846,59.63652785695846 0 0,0 0.2919182562108925,-0.9842032396044377 l 36.945593515412014 11.305061018653241" fill="#43ff2d" stroke="none" /><path d="M 80.38941819471856 92.48833698450439 l -30.94004464500308 -11.851315344201614 a54.132160177424176,54.132160177424176 0 0,0 0.34079146353775885,-0.8672771028017282 l 30.73145963158363 12.382141451899106" fill="#80ff26" stroke="none" /><path d="M 80.65960295795068 91.81776055985345 l -25.0770367038368 -10.609209227402406 a48.22890174568887,48.22890174568887 0 0,0 0.33004482071143065,-0.7617889506997073 l 24.89070117328269 11.039297322688713" fill="#c6ff1e" stroke="none" /><path d="M 80.95270993114464 91.15688171328213 l -36.25355230165045 -16.83149939746121 a60.970231753834526,60.970231753834526 0 0,0 0.45013975490483327,-0.948109123779482 l 35.958454352903864 17.453050936881226" fill="#36ff2f" stroke="none" /><path d="M 81.26839172434947 90.50648371742162 l -31.892165370996665 -16.163523536300534 a56.75429631749925,56.75429631749925 0 0,0 0.44914422264781206,-0.8676036784208119 l 31.60921171518874 16.710099936981685" fill="#63ff29" stroke="none" /><path d="M 81.6062741919709 89.86733742301443 l -28.320195912451716 -15.600916980600948 a53.33298790949036,53.33298790949036 0 0,0 0.4498824416766381,-0.800290664510913 l 28.047455829482647 16.086091155046645" fill="#89ff24" stroke="none" /><line stroke="#e1ed5e" stroke-width="0.3" x1="26.266209847984243" x2="21.928928074336255" y1="57.711370442889674" y2="55.22380399835377" /><path d="M 25.398753493254645 57.213857153982495 a86.0,86.0 0 0,1 29.58750427330803,-30.492523968695096" fill="none" id="id71" stroke="none" /><text fill="#e1ed5e" style="font-size:6.75px; font-family:Arial;" text-anchor="middle"><textPath startOffset="21.46611528233685" xlink:href="#id71">November</textPath></text><path d="M 81.96595687620814 89.24020034530311 l -26.724875055277764 -15.94508227676533 a52.12016380954675,52.12016380954675 0 0,0 0.4663121605022999,-0.7664945833387796 l 26.446447096489248 16.402744633311183" fill="#97ff23" stroke="none" /><path d="M 82.15384107792192 88.93136811851018 l -28.328994366659785 -17.570347299184725 a54.335401993079515,54.335401993079515 0 0,0 0.4998142958069086,-0.7905861853037689 l 28.02235247460691 18.055381132202708" fill="#7eff26" stroke="none" /><path d="M 88.39885842347998 82.49532879139004 l -11.134905821175275 -16.801179785013705 a41.15603556790859,41.15603556790859 0 0,0 0.5938874221462382,-0.38628089941729643 l 10.84405137324475 16.990359608590534" fill="#ffde14" stroke="none" /><path d="M 89.00827224532344 82.1063720568725 l -11.96903259446736 -19.484599770354038 a43.86716793698561,43.86716793698561 0 0,0 0.6468066305186483,-0.38969375771870535 l 11.631863897731062 19.687740137531364" fill="#fcff18" stroke="none" /><line stroke="#e1ed5e" stroke-width="0.3" x1="56.762969772571076" x2="54.21961505331055" y1="26.818313649435495" y2="22.513508569990535" /><path d="M 56.25429882871897 25.957352633546506 a86.0,86.0 0 0,1 42.265352541879196,-11.944610805530505" fill="none" id="id72" stroke="none" /><text fill="#e1ed5e" style="font-size:6.75px; font-family:Arial;" text-anchor="middle"><textPath startOffset="22.20632615414155" xlink:href="#id72">December</textPath></text><path d="M 89.63071344664047 81.73862282372117 l -13.832207592526508 -24.359936310746132 a49.01314805491086,49.01314805491086 0 0,0 0.7372415613948412,-0.4102741307217294 l 13.410841942059621 24.594425839028048" fill="#bcff1f" stroke="none" /><path d="M 90.26544431104013 81.39251694778311 l -14.49414751911698 -27.705384091045023 a52.26769291038684,52.26769291038684 0 0,0 0.8007896205641949,-0.41019554649058715 l 14.015097410964023 27.950772162848118" fill="#95ff23" stroke="none" /><path d="M 90.58718382345135 81.22770947309562 l -13.923277633334362 -27.767652944385727 a52.062842917137544,52.062842917137544 0 0,0 0.8045661165587554,-0.39479709920309936 l 13.44324024976518 28.003205203723656" fill="#98ff23" stroke="none" /><path d="M 91.56875222667455 80.76684994638697 l -3.3168293466217262 -7.566267560968816 a29.261341399481086,29.261341399481086 0 0,0 0.4630485245662113,-0.1982532127028684 l 3.1860970642652067 7.622240301634471" fill="#ff3605" stroke="none" /><path d="M 91.90106846888425 80.62456947434976 l -15.380585573129707 -36.79565212658836 a60.88085289952149,60.88085289952149 0 0,0 0.9703715951755648,-0.3958389382518416 l 14.744930108365763 37.054951951023774" fill="#36ff2e" stroke="none" /><path d="M 92.57280143429618 80.3572730644239 l -11.69087277532725 -30.918874664899022 a54.05530693841191,54.05530693841191 0 0,0 0.8731674047284751,-0.321594924124353 l 11.156923044826206 31.1155328568297" fill="#81ff25" stroke="none" /><path d="M 92.91201910852362 80.23233633223022 l -7.301559685397804 -20.36331337809613 a42.63278312131787,42.63278312131787 0 0,0 0.6929207664844196,-0.24174644957051172 l 6.949956914850099 20.485980680838853" fill="#fff216" stroke="none" /><path d="M 93.94186890950719 79.89281104454417 l -10.061995577125565 -33.39618164680002 a55.87905823814853,55.87905823814853 0 0,0 0.9233609444304849,-0.26955437990351405 l 9.485644414971658 33.56443435562223" fill="#6cff28" stroke="none" /><path d="M 96.04723909329186 79.375362276772 l -5.998014895192566 -31.296323554994675 a52.86590734220299,52.86590734220299 0 0,0 0.8952083132480837,-0.16359359721855438 l 5.458411460841589 31.394932633563965" fill="#8eff24" stroke="none" /><path d="M 96.40284397218896 79.31037775812273 l -5.4643759363158875 -31.429238274876184 a52.900727623556335,52.900727623556335 0 0,0 0.8984830722535437,-0.14825740542186644 l 4.922563657923458 31.51864194323768" fill="#8eff24" stroke="none" /><path d="M 97.11714578562143 79.19881850522333 l -5.344962192783665 -38.56647627212012 a59.9350961587395,59.9350961587395 0 0,0 1.023135677065399,-0.13283237507364026 l 4.6803117872104085 38.652766970357895" fill="#40ff2d" stroke="none" /><path d="M 98.19473922651362 79.07773832637324 l -4.014044941573897 -46.52120063248054 a67.69405385143256,67.69405385143256 0 0,0 1.1617905299947981,-0.090177305137807 l 3.212664222216765 46.58340319980682" fill="#37ff7c" stroke="none" /></svg>