<?xml version="1.0" encoding="utf-8" ?>
<svg baseProfile="full" height="200mm" version="1.1" viewBox="0,0,200,200" width="200mm" xmlns="http://www.w3.org/2000/svg" xmlns:ev="http://www.w3.org/2001/xml-events" xmlns:xlink="http://www.w3.org/1999/xlink"><defs /><rect fill="#1a1a1a" height="200" width="200" x="0" y="0" /><text alignment-baseline="middle" fill="#e1ed5e" style="dominant-baseline: central; font-size:9.0px; font-family:Arial;" text-anchor="middle" x="100.0" y="100.0">2025</text><line stroke="#e1ed5e" stroke-width="0.3" x1="100.0" x2="100.0" y1="15.0" y2="10.0" /><path d="M 100.0 14.0 a86.0,86.0 0 0,1 42.46469731375804,11.215312516191453" fill="none" id="id109" stroke="none" /><text fill="#e1ed5e" style="font-size:6.75px; font-family:Arial;" text-anchor="middle"><textPath startOffset="22.20632615414155" xlink:href="#id109">January</textPath></text><path d="M 101.44485096284872 79.0497635885617 l 1.362866044773589 -19.761460918317646 a40.808400780532295,40.808400780532295 0 0,0 0.7003689522732064,0.05436211011159289 l -1.7028251864091364 19.73507354601759" fill="#fff817" stroke="none" /><path d="M 102.88285421437855 79.19881850522331 l 1.7798694635266306 -12.842615336970535 a33.96536555599515,33.96536555599515 0 0,0 0.5784318244716172,0.08524581487095152 l -2.0006702684269038 12.810075037938615" fill="#ffa10e" stroke="none" /><path d="M 103.95276090670814 79.375362276772 l 3.4730616738989246 -18.12167254868127 a39.45148160317577,39.45148160317577 0 0,0 0.6658538226883447,0.1335640128037425 l -3.7844819060543946 18.05920457980032" fill="#ffe815" stroke="none" /><path d="M 105.36241919743992 79.69619591428918 l 5.261843947185185 -19.922994585025293 a41.60613294530239,41.60613294530239 0 0,0 0.6908641132983737,0.18883925970751805 l -5.604005949707269 19.829468784491482" fill="#fcff18" stroke="none" /><path d="M 106.74666289553966 80.11325718540242 l 3.7692984762700577 -11.110540210715737 a32.732506755895905,32.732506755895905 0 0,0 0.5320092194241783,0.18560757038223996 l -3.9599896997575095 11.044011787161288" fill="#ff910d" stroke="none" /><path d="M 107.08798089147638 80.2323363322302 l 9.62489905000653 -26.842872486516505 a49.51628455900595,49.51628455900595 0 0,0 0.7998475659280612,0.2945906087225879 l -10.085528941707167 26.673218609987593" fill="#a0ff22" stroke="none" /><path d="M 108.09893153111575 80.62456947434976 l 7.262964998392638 -17.375510978940117 a39.83239343119045,39.83239343119045 0 0,0 0.6303310144414733,0.2698748447505527 l -7.560979770624427 17.247916606226774" fill="#ffec16" stroke="none" /><line stroke="#e1ed5e" stroke-width="0.3" x1="143.23703022742887" x2="145.7803849466894" y1="26.81831364943548" y2="22.513508569990506" /><path d="M 143.74570117128098 25.957352633546492 a86.0,86.0 0 0,1 28.547481713284135,27.462654790039103" fill="none" id="id110" stroke="none" /><text fill="#e1ed5e" style="font-size:6.75px; font-family:Arial;" text-anchor="middle"><textPath startOffset="19.985693538727396" xlink:href="#id110">February</textPath></text><path d="M 110.99172775467656 82.1063720568725 l 1.8303453743529616 -2.979651595006236 a24.496925480624157,24.496925480624157 0 0,0 0.3573994663346253,0.22380351303085233 l -1.8813639930598502 2.9477037406524396" fill="#ff1e03" stroke="none" /><path d="M 112.77801427241765 83.33499621200491 l 8.672793679469244 -11.311001571882644 a35.25328406949687,35.25328406949687 0 0,0 0.47838277540587065,0.37338534418613084 l -8.866209010034545 11.160037838473288" fill="#ffb210" stroke="none" /><path d="M 114.68862486808459 84.99185889309783 l 2.0224204173325178 -2.0664133826956705 a23.8914094508781,23.8914094508781 0 0,0 0.29143446594566935,0.29018295373133035 l -2.0576906834455095 2.0312945783142213" fill="#ff1602" stroke="none" /><path d="M 116.60985879189232 87.15038557335679 l 2.2350450708909935 -1.7290615017833495 a23.825788411375385,23.825788411375385 0 0,0 0.24815586517606159,0.32654403006814664 l -2.2644768762911687 1.6903326958341693" fill="#ff1502" stroke="none" /><line stroke="#e1ed5e" stroke-width="0.3" x1="172.23445277983987" x2="176.4835382374775" y1="55.19839476539836" y2="52.563006222186495" /><path d="M 173.08426987136738 54.67131705675599 a86.0,86.0 0 0,1 12.851231095245387,41.99856678651699" fill="none" id="id111" stroke="none" /><text fill="#e1ed5e" style="font-size:6.75px; font-family:Arial;" text-anchor="middle"><textPath startOffset="22.20632615414155" xlink:href="#id111">March</textPath></text><path d="M 118.03404312379186 89.2402003453031 l 12.639030980736342 -7.540929133235662 a35.71770078254397,35.71770078254397 0 0,0 0.31047241561985817,0.5306979994065287 l -12.766963070826527 7.322251721475238" fill="#ffb811" stroke="none" /><path d="M 118.73160827565052 90.50648371742162 l 14.28299418785596 -7.238878578442516 a37.01266018011252,37.01266018011252 0 0,0 0.2831292024711039,0.5707711954036272 l -14.405483403280474 6.991947794539939" fill="#ffc912" stroke="none" /><path d="M 119.7369772167798 92.82701384747503 l 11.030440954846444 -4.008780035379039 a32.73630883329198,32.73630883329198 0 0,0 0.18791719883390315,0.5312672263055853 l -11.097811234490157 3.8183151826468396" fill="#ff910d" stroke="none" /><path d="M 120.37134235888165 94.90015583598534 l 14.713144611647799 -3.683348075945588 a36.16719082136942,36.16719082136942 0 0,0 0.1459900708742895,0.6052230944772184 l -14.774367482782907 3.4295397498089635" fill="#ffbe11" stroke="none" /><path d="M 120.73433829027371 96.67025291283417 l 8.473842886207994 -1.3608224806811273 a29.582415224403032,29.582415224403032 0 0,0 0.0764129373216855,0.5034657837517917 l -8.49601171696898 1.2147575845372534" fill="#ff6609" stroke="none" /><path d="M 120.87857604477298 97.74499172005257 l 13.953304876491192 -1.5070385050035915 a35.03445339270028,35.03445339270028 0 0,0 0.059596732159011866,0.6001309597023483 l -13.977178734332433 1.2666320145968082" fill="#ffaf10" stroke="none" /><path d="M 120.96714384426684 98.82574320788733 l 30.12846788514708 -1.687333206318232 a51.17568011587284,51.17568011587284 0 0,0 0.04168720157044692,0.8799509381359941 l -30.153048694951025 1.1684711615592382" fill="#8dff24" stroke="none" /><line stroke="#e1ed5e" stroke-width="0.3" x1="184.98032266829074" x2="189.97916517819016" y1="98.17113171792111" y2="98.06355123074" /><path d="M 185.9800911702706 98.14961562048488 a86.0,86.0 0 0,1 -9.607161424134198,41.387399972396054" fill="none" id="id112" stroke="none" /><text fill="#e1ed5e" style="font-size:6.75px; font-family:Arial;" text-anchor="middle"><textPath startOffset="21.466115282336823" xlink:href="#id112">April</textPath></text><path d="M 120.99513854157772 99.54816195383933 l 14.401187640868427 -0.30992910445229965 a35.40452225925206,35.40452225925206 0 0,0 0.007868221589743367,0.6094024332100424 l -14.404388869575886 0.061990413181794546" fill="#ffb410" stroke="none" /><path d="M 120.9904718944345 100.63252640178507 l 15.782722431739908 0.4755961981382557 a36.789886608238504,36.789886608238504 0 0,0 -0.02452285453149625,0.6328259106033552 l -15.772197444357209 -0.7471993557556171" fill="#ffc612" stroke="none" /><path d="M 120.92983693683757 101.71520430193887 l 18.361202562450288 1.5047042038084921 a39.42275479618317,39.42275479618317 0 0,0 -0.0612468233854924,0.6758535924434308 l -18.33258114278772 -1.8205391848004935" fill="#ffe715" stroke="none" /><path d="M 120.8583938346157 102.4346265915055 l 13.979959110325117 1.6317641937354046 a35.0748680672438,35.0748680672438 0 0,0 -0.07515791078056629,0.5990824974491593 l -13.949799690297702 -1.8721644454719588" fill="#ffb010" stroke="none" /><path d="M 120.70491114924044 103.5080841355445 l 13.981219331180801 2.368872456285945 a35.18048132824602,35.18048132824602 0 0,0 -0.10630127145223589,0.5961939830906133 l -13.938371617389377 -2.6091851901097765" fill="#ffb110" stroke="none" /><path d="M 120.49622156327973 104.57218783832717 l 13.732959106564863 3.063475305310507 a35.07050271912237,35.07050271912237 0 0,0 -0.1365068116567653,0.5880677719021603 l -13.678191728977545 -3.2994117345612324" fill="#ffb010" stroke="none" /><path d="M 120.41448212921028 104.9243191809786 l 7.320679916756016 1.7658721050927302 a28.530647962502265,28.530647962502265 0 0,0 -0.11926990890182732,0.4764239983049025 l -7.289198693559128 -1.8916239427950285" fill="#ff5808" stroke="none" /><path d="M 120.23288151984713 105.62410040840565 l 10.215686063196353 2.8396372560086394 a31.603008133897497,31.603008133897497 0 0,0 -0.15020061468149817,0.5228680441757417 l -10.165292811628756 -3.015062775688963" fill="#ff820b" stroke="none" /><path d="M 120.02730092923936 106.31721596034902 l 28.645826262574015 9.035759311886 a51.03711551743792,51.03711551743792 0 0,0 -0.2714876804322267,0.8355531646121663 l -28.486046331125543 -9.527511376475962" fill="#8fff24" stroke="none" /><path d="M 119.79798401119884 107.00284435728193 l 8.453197124161461 2.990022809819479 a29.966425041407103,29.966425041407103 0 0,0 -0.1761964989056772,0.4848170916032715 l -8.400476364250556 -3.135087698428882" fill="#ff6b09" stroke="none" /><path d="M 119.54520255179757 107.68017299344265 l 13.16770685229935 5.174173369889085 a35.147811626175994,35.147811626175994 0 0,0 -0.22611321263190498,0.5611944503427866 l -13.076691025410051 -5.400067188074685" fill="#ffb110" stroke="none" /><path d="M 119.26925614724726 108.34839909993367 l 15.54497871004788 6.734857084246662 a37.94121197084404,37.94121197084404 0 0,0 -0.2647915652584641,0.5970350767261411 l -15.426746060058145 -7.001440497465491" fill="#ffd513" stroke="none" /><path d="M 119.12269723197855 108.67885076344098 l 12.943971657993025 5.87463143630539 a35.21470002481073,35.21470002481073 0 0,0 -0.25526529543558163,0.5498187369014812 l -12.840931745717612 -6.096570240485701" fill="#ffb210" stroke="none" /><path d="M 118.81262510543309 109.33194174019688 l 13.53450861292445 6.713749152505432 a36.10818821288951,36.10818821288951 0 0,0 -0.28099276901705544,0.5544253910615543 l -13.416937174121125 -6.9457287552696805" fill="#ffbd11" stroke="none" /><line stroke="#e1ed5e" stroke-width="0.3" x1="174.80103733775053" x2="179.2010983576182" y1="140.37084112569926" y2="142.7455964860345" /><path d="M 175.68104954172406 140.8457921977663 a86.0,86.0 0 0,1 -30.038265399797805,32.042727171017184" fill="none" id="id113" stroke="none" /><text fill="#e1ed5e" style="font-size:6.75px; font-family:Arial;" text-anchor="middle"><textPath startOffset="22.206326154141568" xlink:href="#id113">May</textPath></text><path d="M 118.48025628344425 109.97397251340804 l 7.174546317525688 3.8721718286602367 a29.152780478646005,29.152780478646005 0 0,0 -0.24213964978844646,0.4395537985817273 l -7.106830258285732 -3.995096145639769" fill="#ff6008" stroke="none" /><path d="M 118.30583269289576 110.29060199501025 l 19.394394436893233 10.902535679885423 a43.24877119809024,43.24877119809024 0 0,0 -0.37039072232566617,0.6458074447016952 l -19.203851718415187 -11.234762970445432" fill="#e8ff1a" stroke="none" /><path d="M 116.71984013943494 112.70617746262583 l 1.79644467913126 1.3652011445369674 a23.256321708051416,23.256321708051416 0 0,0 -0.24495903897163904,0.3166425786815984 l -1.7726788229415524 -1.3959217173318184" fill="#ff0c01" stroke="none" /><path d="M 114.81725581225074 114.88116024355365 l 9.943614770959565 9.986499975553794 a35.0927519127735,35.0927519127735 0 0,0 -0.4317244822823558,0.42253327187183304 l -9.770240336301415 -10.1561833503482" fill="#ffb010" stroke="none" /><path d="M 112.92097659922987 116.55440617244103 l 0.87223458498647 1.1175103899172127 a22.41761159801246,22.41761159801246 0 0,0 -0.3062366068219446,0.23480917151224628 l -0.8528692496710317 -1.1323589032568304" fill="#ff0000" stroke="none" /><path d="M 112.04921762599082 117.19931262002967 l 5.664212543854384 8.08521891727672 a30.871882732399463,30.871882732399463 0 0,0 -0.4378560824083272,0.30116140606536834 l -5.5241995768231735 -8.181521112707182" fill="#ff780b" stroke="none" /><path d="M 111.45004920935366 117.60387380957326 l 3.4632158710720704 5.324519926068114 a27.35172233435482,27.35172233435482 0 0,0 -0.39688416860177744,0.25331025432617055 l -3.3710499004233623 -5.383344609218093" fill="#ff4706" stroke="none" /><line stroke="#e1ed5e" stroke-width="0.3" x1="143.8653032363475" x2="146.44561519142675" y1="172.8068346515853" y2="177.08958963109032" /><path d="M 144.38136562736335 173.6633856474863 a86.0,86.0 0 0,1 -40.68145358897372,12.25698825130547" fill="none" id="id114" stroke="none" /><text fill="#e1ed5e" style="font-size:6.75px; font-family:Arial;" text-anchor="middle"><textPath startOffset="21.466115282336833" xlink:href="#id114">June</textPath></text><path d="M 109.57404056367764 118.69057910512821 l 4.699098760525346 9.173647899468643 a31.307150185409945,31.307150185409945 0 0,0 -0.48175158304781734,0.2415602447389865 l -4.540493269794768 -9.25317598511693" fill="#ff7e0b" stroke="none" /><path d="M 106.57524785965236 119.94407469862006 l 2.6692695949369614 8.096441887590329 a29.52510242809916,29.52510242809916 0 0,0 -0.48404107380943756,0.1549746663204741 l -2.5295071760365833 -8.14118940057051" fill="#ff6509" stroke="none" /><path d="M 106.2309692047433 120.05430185196036 l 1.8385096590677523 5.917221935974621 a27.19625961415955,27.19625961415955 0 0,0 -0.44825266924193735,0.13505485216988053 l -1.7363820153855691 -5.947992157250227" fill="#ff4506" stroke="none" /><path d="M 105.88484417918355 120.15858648285463 l 2.4437676798508607 8.3711480913184 a29.720557369793937,29.720557369793937 0 0,0 -0.4923264559766794,0.13913637417505775 l -2.2993100557695754 -8.411973258831976" fill="#ff6809" stroke="none" /><path d="M 102.70371172650421 120.8252237178851 l 0.7844496977944202 6.0421901831666025 a27.092899436058715,27.092899436058715 0 0,0 -0.4629951732203903,0.05606226763291284 l -0.6803271015226495 -6.054797979524866" fill="#ff4306" stroke="none" /><line stroke="#e1ed5e" stroke-width="0.3" x1="102.19456741930631" x2="102.32365962044197" y1="184.97166512339345" y2="189.96999836594603" /><path d="M 102.22038585953345 185.97133177190398 a86.0,86.0 0 0,1 -42.740103519485714,-10.115201625700543" fill="none" id="id115" stroke="none" /><text fill="#e1ed5e" style="font-size:6.75px; font-family:Arial;" text-anchor="middle"><textPath startOffset="22.20632615414155" xlink:href="#id115">July</textPath></text><path d="M 99.81925306533755 120.99922214144158 l -0.06185045713951942 7.1858009179965325 a28.186067096272353,28.186067096272353 0 0,0 -0.4851228967610832,-0.008351830615127858 l 0.18553304379327057 -7.183671610102245" fill="#ff5307" stroke="none" /><path d="M 98.01472825383883 120.90594882070398 l -1.0797059255570827 11.369867558309892 a32.42101804478002,32.42101804478002 0 0,0 -0.5551210130364169,-0.05754056275410136 l 1.275259535199093 -11.34959762710003" fill="#ff8d0d" stroke="none" /><path d="M 97.2962882734958 120.8252237178851 l -1.6494148136323052 12.704546923683735 a33.811170194931904,33.811170194931904 0 0,0 -0.5765149212057664,-0.07989971486318963 l 1.8678583260249026 -12.67427264332794" fill="#ff9f0e" stroke="none" /><path d="M 96.22490169976321 120.6578951692458 l -1.2962953802313821 7.093519676432747 a28.210991825868877,28.210991825868877 0 0,0 -0.4769436058684114,-0.09140737720002776 l 1.4182066006714886 -7.070155100884251" fill="#ff5307" stroke="none" /><path d="M 95.51606077576429 120.51570834832081 l -4.102713135251783 18.771455613115997 a40.214572618337144,40.214572618337144 0 0,0 -0.6749917404162549,-0.15362592253430116 l 4.4252250250609 -18.698052957004005" fill="#fff116" stroke="none" /><path d="M 94.46302465271185 120.25689768951611 l -4.523991297237105 16.55091870713799 a38.15807120010193,38.15807120010193 0 0,0 -0.6320954121790682,-0.1786364773122208 l 4.8082178775207876 -16.470593436487245" fill="#ffd714" stroke="none" /><path d="M 94.11515582081647 120.15858648285463 l -4.439411316096454 15.207243254639586 a36.841989150332935,36.841989150332935 0 0,0 -0.6072349731586273,-0.18295491618825396 l 4.700521263695327 -15.128572969345607" fill="#ffc712" stroke="none" /><path d="M 93.08242187328487 119.8279376855182 l -7.003346836733271 20.07377757434278 a42.2603718927908,42.2603718927908 0 0,0 -0.684779900744286,-0.24553770910501233 l 7.347846298107283 -19.950252324197812" fill="#f4ff19" stroke="none" /><path d="M 92.40401165467489 119.57807347666478 l -5.657936319553632 14.582894016508682 a36.64202804283539,36.64202804283539 0 0,0 -0.5860611881272196,-0.2332058416803024 l 5.908118583722709 -14.483341330422313" fill="#ffc412" stroke="none" /><path d="M 92.06813273071674 119.44442032107085 l -7.978991801738951 19.559942831142457 a42.12476446566396,42.12476446566396 0 0,0 -0.6690386291069553,-0.27965820122734775 l 8.314501890343369 -19.41969958689514" fill="#f6ff19" stroke="none" /><path d="M 91.40352486487194 119.15986991738527 l -7.952181921968129 17.72386574605297 a40.42608077570426,40.42608077570426 0 0,0 -0.6324410162147769,-0.29032265127120543 l 8.256090933950325 -17.58435602444769" fill="#fff417" stroke="none" /><path d="M 91.07499286063937 119.00905698771935 l -6.107024814233161 13.007136118379695 a35.36945865659932,35.36945865659932 0 0,0 -0.5488789769464236,-0.2634952642547856 l 6.330016459179827 -12.900086577625347" fill="#ffb410" stroke="none" /><path d="M 90.42595943632237 118.69057910512821 l -6.424466329199689 12.541935177263845 a35.09162537132281,35.09162537132281 0 0,0 -0.535246040550797,-0.28001543112604205 l 6.639403272276981 -12.429490327193086" fill="#ffb010" stroke="none" /><path d="M 90.10565033884886 118.52300852407294 l -6.638607101204057 12.427999831700665 a35.089935559146774,35.089935559146774 0 0,0 -0.5303211942606003,-0.2891733989360837 l 6.851551107333298 -12.311885781004815" fill="#ffb010" stroke="none" /><line stroke="#e1ed5e" stroke-width="0.3" x1="58.666819895761336" x2="56.23545636021788" y1="174.27360380694188" y2="178.64263932499728" /><path d="M 58.180547188652646 175.14741091055294 a86.0,86.0 0 0,1 -31.652253787137756,-30.449443065178592" fill="none" id="id116" stroke="none" /><text fill="#e1ed5e" style="font-size:6.75px; font-family:Arial;" text-anchor="middle"><textPath startOffset="22.20632615414155" xlink:href="#id116">August</textPath></text><path d="M 88.8546689885994 117.79835938074946 l -12.73765995163959 20.34120379710206 a45.00026151855105,45.00026151855105 0 0,0 -0.6529713617785738,-0.41675721735778976 l 13.085913115465086 -20.118932150920465" fill="#d3ff1c" stroke="none" /><path d="M 88.54995079064634 117.60387380957326 l -9.217762191317284 14.17184498124656 a37.90586673282863,37.90586673282863 0 0,0 -0.5439046053710689,-0.36047031422831605 l 9.460341495428315 -14.011076645926924" fill="#ffd413" stroke="none" /><path d="M 87.95078237400918 117.19931262002967 l -8.69015149141644 12.404509309706976 a36.14564571612496,36.14564571612496 0 0,0 -0.5065083691195964,-0.36138027273554046 l 8.902387188384923 -12.253084775127215" fill="#ffbe11" stroke="none" /><path d="M 87.36589467227662 116.77436683061367 l -16.948944282227718 22.503200773374527 a49.171985328138724,49.171985328138724 0 0,0 -0.6717157120753701,-0.5150429645920218 l 17.333788722796573 -22.20811846695514" fill="#a3ff21" stroke="none" /><path d="M 87.07902340077011 116.55440617244103 l -7.032721667703065 9.010350734001207 a32.430030376385545,32.430030376385545 0 0,0 -0.4370989099516383,-0.3472578094967875 l 7.186778070372061 -8.887959010499289" fill="#ff8d0d" stroke="none" /><path d="M 86.51685102203217 116.09983520530335 l -9.042621790741258 10.797531117746473 a35.08388039884932,35.08388039884932 0 0,0 -0.45965651016023584,-0.39172924999358255 l 9.227143777478549 -10.640277477529938" fill="#ffb010" stroke="none" /><path d="M 85.97065885151581 115.62618273729859 l -12.425358914434105 13.83963273246424 a39.59905853321621,39.59905853321621 0 0,0 -0.5032860268192286,-0.4597398527028421 l 12.661744490720187 -13.623700113174822" fill="#ffe915" stroke="none" /><path d="M 85.70375840098266 115.38237550388516 l -11.73770240116733 12.629455415752126 a38.24171690281568,38.24171690281568 0 0,0 -0.47832041246384155,-0.4522818052393855 l 11.953358648021988 -12.42553897376681" fill="#ffd814" stroke="none" /><path d="M 85.18274418774928 114.88116024355367 l -19.899152579674816 19.984974410999552 a49.20240194730736,49.20240194730736 0 0,0 -0.5950195830621233,-0.6027516961870988 l 20.240212787792473 -19.639482220831788" fill="#a3ff21" stroke="none" /><path d="M 84.67929136418377 114.36230785411682 l -11.058249950382713 10.366491125866068 a36.15747440135721,36.15747440135721 0 0,0 -0.42175729678166324,-0.45773424757873027 l 11.235053655160105 -10.174605623485993" fill="#ffbe11" stroke="none" /><path d="M 84.43433777217949 114.09645910891817 l -11.950141612048425 10.822198253726913 a37.12221633619215,37.12221633619215 0 0,0 -0.4248569608496986,-0.47733129939235913 l 12.13465742254646 -10.61489278459369" fill="#ffca12" stroke="none" /><path d="M 83.95833913139862 113.55231037782056 l -13.990642302248613 11.819569583113264 a39.3150292699609,39.3150292699609 0 0,0 -0.43228559632079394,-0.5207158484610767 l 14.192023898462944 -11.576992477538425" fill="#ffe615" stroke="none" /><path d="M 83.50135304334701 112.99209946851258 l -23.738274792616874 18.693049686247072 a51.21482743128432,51.21482743128432 0 0,0 -0.5394462231025312,-0.6973069614426868 l 24.056527832937473 -18.28166473069113" fill="#8dff24" stroke="none" /><path d="M 83.06392112726016 112.41649034213515 l -12.61872963532741 9.251275683372532 a36.64667502631949,36.64667502631949 0 0,0 -0.3685961098953735,-0.511947758317865 l 12.77610553759839 -9.032694319603527" fill="#ffc412" stroke="none" /><path d="M 82.6465618267979 111.8261652097733 l -16.403781104949093 11.178985021634437 a40.850786902614516,40.850786902614516 0 0,0 -0.390994348045406,-0.584483499518095 l 16.59377855840523 -10.894964607910522" fill="#fff917" stroke="none" /><path d="M 82.44556493220864 111.52570212397912 l -12.20873061236278 8.015877002398044 a35.605046637474935,35.605046637474935 0 0,0 -0.3319664271833841,-0.5152192669961 l 12.34490190292321 -7.804536135480495" fill="#ffb710" stroke="none" /><path d="M 82.05923443525364 110.91462005526583 l -30.520799725372147 18.56793298943083 a56.72516411965479,56.72516411965479 0 0,0 -0.5003135821007876,-0.8385543415843968 l 30.835894183171167 -18.03981655396032" fill="#53ff2b" stroke="none" /><line stroke="#e1ed5e" stroke-width="0.3" x1="26.63291911575756" x2="22.317208475507996" y1="142.92168965132927" y2="145.44649492493687" /><path d="M 25.769776987707644 143.4266507060508 a86.0,86.0 0 0,1 -11.730757126820373,-40.83630448921669" fill="none" id="id117" stroke="none" /><text fill="#e1ed5e" style="font-size:6.75px; font-family:Arial;" text-anchor="middle"><textPath startOffset="21.46611528233685" xlink:href="#id117">September</textPath></text><path d="M 81.69416730710424 110.29060199501025 l -16.1412298744867 9.07377310472056 a39.51682100731581,39.51682100731581 0 0,0 -0.3282221812932268,-0.595818597624402 l 16.295028465231443 -8.794583988698335" fill="#ffe815" stroke="none" /><path d="M 81.35079622478065 109.6543875284942 l -10.36836654310839 5.36753364117631 a32.67533477727336,32.67533477727336 0 0,0 -0.2542784130705273,-0.5017154323874563 l 10.459223625965185 -5.188263997086169" fill="#ff900d" stroke="none" /><path d="M 81.18737489456691 109.33194174019688 l -13.220016633578755 6.557746424945333 a35.75712973331814,35.75712973331814 0 0,0 -0.2687688800575843,-0.5537434996312929 l 13.330938770251059 -6.329213969348755" fill="#ffb911" stroke="none" /><path d="M 80.32549172779594 107.34259656027581 l -26.390905093946547 9.849179775392127 a49.16888733914932,49.16888733914932 0 0,0 -0.28910308094058706,-0.7954875139159056 l 26.556532435892358 -9.393444464470104" fill="#a3ff21" stroke="none" /><path d="M 79.97269907076064 106.31721596034903 l -15.387806496885942 4.853779205712587 a37.135171562875094,37.135171562875094 0 0,0 -0.18704318808304124,-0.611267960901816 l 15.469076457475113 -4.588184272258722" fill="#ffca12" stroke="none" /><path d="M 79.67330655649465 105.27499134158121 l -16.361782624160167 4.246055164611903 a37.90375446760858,37.90375446760858 0 0,0 -0.15845337085686478,-0.6329424511479553 l 16.43244730931209 -3.963784874066556" fill="#ffd413" stroke="none" /><path d="M 79.35854240842038 103.8639653848113 l -41.5530982140839 7.778507521502853 a63.27487611396844,63.27487611396844 0 0,0 -0.1911912380942089,-1.0723019980304869 l 41.6808358945173 -7.0620867727391525" fill="#33ff53" stroke="none" /><path d="M 79.23777060512086 103.15116336523772 l -13.926226836570821 2.11363697938026 a35.08571102870668,35.08571102870668 0 0,0 -0.0854854143114836,-0.5978847885909468 l 13.960546301898905 -1.8736067188089127" fill="#ffb010" stroke="none" /><path d="M 79.18660465613746 102.79330883721812 l -18.37112318269838 2.465538173279654 a39.53583139429621,39.53583139429621 0 0,0 -0.08471679730544808,-0.6752762281247875 l 18.410841489250675 -2.148944190867458" fill="#ffe915" stroke="none" /><path d="M 79.10278846688536 102.07522291339032 l -21.746529902460697 2.1595655032156245 a42.85349596657927,42.85349596657927 0 0,0 -0.06657679080230344,-0.734669338748928 l 21.780481289540077 -1.78491477591813" fill="#edff1a" stroke="none" /><path d="M 79.0095281055655 100.63252640178507 l -1.5335125380701524 0.04621083188010644 a22.53420863815891,22.53420863815891 0 0,0 -0.008346174391931596,-0.38781392833050865 l 1.5340807751470915 -0.01980708775946898" fill="#ff0200" stroke="none" /><line stroke="#e1ed5e" stroke-width="0.3" x1="15.007084014347285" x2="10.007500721073583" y1="101.09737516637583" y2="101.16192664675087" /><path d="M 14.007167355692545 101.11028546245083 a86.0,86.0 0 0,1 10.666146001902534,-42.60595125391555" fill="none" id="id118" stroke="none" /><text fill="#e1ed5e" style="font-size:6.75px; font-family:Arial;" text-anchor="middle"><textPath startOffset="22.20632615414155" xlink:href="#id118">October</textPath></text><path d="M 79.00175016825051 100.2711162175752 l -14.16690858466034 0.18291422861344228 a35.16808937228842,35.16808937228842 0 0,0 -0.002605290093308065,-0.6053776656080152 l 14.167958172043152 0.0609729151982483" fill="#ffb110" stroke="none" /><path d="M 79.00019446554 99.90962569577889 l -15.49613824299532 -0.06668884192888823 a36.49628174265233,36.49628174265233 0 0,0 0.008110851767752681,-0.6281944078846852 l 15.492694384109852 0.3334195078740454" fill="#ffc212" stroke="none" /><path d="M 79.03285615573316 98.82574320788736 l -6.71535175206511 -0.3760906809653136 a27.72587491366535,27.72587491366535 0 0,0 0.030788143660582988,-0.47627895527426595 l 6.707883017400113 0.49162870049259133" fill="#ff4c07" stroke="none" /><path d="M 79.21141760316559 97.0276538004421 l -18.82764261599856 -2.6919715307196417 a40.01911767664237,40.01911767664237 0 0,0 0.10337148970080441,-0.6810889609008238 l 18.778515232858453 3.0156596040125576" fill="#ffef16" stroke="none" /><path d="M 79.32604984820605 96.31383870115002 l -1.7927802329727902 -0.31965236752561865 a22.821054255040938,22.821054255040938 0 0,0 0.07228218587561049,-0.38613432724914676 l 1.7870123231873183 0.35046477223733813" fill="#ff0601" stroke="none" /><path d="M 79.3925641242962 95.95851677861259 l -26.28560811295172 -5.155073381919769 a47.78633934378961,47.78633934378961 0 0,0 0.1652513147043332,-0.8058240983082132 l 26.192977502332393 5.606773136391385" fill="#b3ff20" stroke="none" /><path d="M 79.81627453868168 94.20196356495316 l -19.24524969638473 -5.528447122165952 a41.02357019761415,41.02357019761415 0 0,0 0.20080862360660293,-0.6770268514873111 l 19.14723517566642 5.858903360399802" fill="#fffb17" stroke="none" /><path d="M 80.02781315780177 93.51064311812611 l -26.79783761836835 -8.707145258658988 a49.17691394698549,49.17691394698549 0 0,0 0.2685122874816203,-0.8028175626810007 l 26.64398803711496 9.167135924262311" fill="#a3ff21" stroke="none" /><path d="M 80.14247586403 93.16781622104843 l -14.153091503920194 -4.869515531392172 a35.967370531553215,35.967370531553215 0 0,0 0.20646455756908488,-0.5837031070641381 l 14.0671738655413 5.112416264882921" fill="#ffbb11" stroke="none" /><path d="M 80.38941819471856 92.48833698450439 l -11.084201867961106 -4.24570724390377 a32.86952235983611,32.86952235983611 0 0,0 0.20693156515611008,-0.526618262217515 l 11.009476752923304 4.435874511017048" fill="#ff930d" stroke="none" /><path d="M 80.65960295795068 91.81776055985345 l -12.97914956561939 -5.491020129756288 a35.092892730454835,35.092892730454835 0 0,0 0.24015117637431493,-0.5543020256010752 l 12.882707679402392 5.713621299943963" fill="#ffb010" stroke="none" /><path d="M 80.803312248108 91.48605970444005 l -32.51075419221006 -14.418873908537734 a56.564772780612756,56.564772780612756 0 0,0 0.4024117140437152,-0.8866608702012768 l 32.25774016120299 14.97635678758108" fill="#54ff2b" stroke="none" /><path d="M 81.10775173730289 90.83032412892265 l -12.79735755621734 -6.21141640555821 a35.225120533229614,35.225120533229614 0 0,0 0.26945537648440376,-0.5432055966026076 l 12.688542166779525 6.430781590659779" fill="#ffb210" stroke="none" /><path d="M 81.26839172434947 90.50648371742162 l -11.423431031102686 -5.789600492428523 a33.80680484681048,33.80680484681048 0 0,0 0.2675415266922304,-0.5168050728117936 l 11.322080071250342 5.985378287500652" fill="#ff9f0e" stroke="none" /><path d="M 81.6062741919709 89.86733742301443 l -12.342121069546716 -6.7989786075549405 a35.09092128291613,35.09092128291613 0 0,0 0.2960042173941623,-0.5265584737060617 l 12.223259210860123 7.010420591195786" fill="#ffb010" stroke="none" /><line stroke="#e1ed5e" stroke-width="0.3" x1="26.266209847984243" x2="21.928928074336255" y1="57.711370442889674" y2="55.22380399835377" /><path d="M 25.398753493254645 57.213857153982495 a86.0,86.0 0 0,1 29.58750427330803,-30.492523968695096" fill="none" id="id119" stroke="none" /><text fill="#e1ed5e" style="font-size:6.75px; font-family:Arial;" text-anchor="middle"><textPath startOffset="21.46611528233685" xlink:href="#id119">November</textPath></text><path d="M 82.34701348167596 88.62581576622439 l -13.027169895379698 -8.393674933186963 a36.49712664874035,36.49712664874035 0 0,0 0.3448167965180094,-0.5251796376175544 l 12.880756463503769 8.616672634782185" fill="#ffc212" stroke="none" /><path d="M 82.7489923806493 88.02491185347247 l -12.607675699732543 -8.751838220613617 a36.34757827116121,36.34757827116121 0 0,0 0.3612038517086721,-0.5108972325125228 l 12.455159228219992 8.967561953457926" fill="#ffc011" stroke="none" /><path d="M 82.95767976084542 87.72973835380427 l -12.299625443070957 -8.855579534877549 a36.15592540686251,36.15592540686251 0 0,0 0.3679939542197495,-0.501943339995819 l 12.145368876337574 9.065985318544868" fill="#ffbe11" stroke="none" /><path d="M 83.39014120810768 87.1503855733568 l -14.520274869283764 -11.233083662953694 a39.35811948044981,39.35811948044981 0 0,0 0.419156324633216,-0.5322859662929746 l 14.324764464056576 11.481362023199717" fill="#ffe615" stroke="none" /><path d="M 85.05521093208273 85.24692304244772 l -25.06788965664022 -24.74631817064394 a56.22469808018561,56.22469808018561 0 0,0 0.6858454664069118,-0.6829002280131892 l 24.638208390065994 25.174154249307236" fill="#58ff2a" stroke="none" /><path d="M 85.31137513191541 84.99185889309783 l -10.12264116934191 -10.342835248935826 a35.47211474629348,35.47211474629348 0 0,0 0.4400514417101026,-0.4233291382728138 l 9.943106484019378 10.515547473970955" fill="#ffb510" stroke="none" /><path d="M 85.57189188830299 84.74124197986013 l -11.61396478179518 -12.282599831378404 a37.904036102971254,37.904036102971254 0 0,0 0.47793761582961586,-0.4441909263905817 l 11.400819282170708 12.480695343843633" fill="#ffd413" stroke="none" /><path d="M 86.10567301691215 84.25364557470407 l -13.981161285927922 -15.844763201083182 a42.131242079005425,42.131242079005425 0 0,0 0.5479192134519231,-0.4751501426199181 l 13.706348273829224 16.08307833712278" fill="#f5ff19" stroke="none" /><path d="M 86.37877921826538 84.01681056812374 l -9.138052654610581 -10.722623835078972 a35.08824574697074,35.08824574697074 0 0,0 0.46306870714759485,-0.3878067250930188 l 8.952126410503876 10.878331717565803" fill="#ffb010" stroke="none" /><path d="M 86.93701828274178 83.55741782278169 l -30.658751255282112 -38.59065624350257 a70.28689255610914,70.28689255610914 0 0,0 0.9537845798808765,-0.7444439932773399 l 29.98993412024181 39.11267862600313" fill="#3cffa3" stroke="none" /><path d="M 87.22198572758235 83.33499621200491 l -8.56851588393966 -11.175003143609203 a35.08190895131061,35.08190895131061 0 0,0 0.48238267348518604,-0.36332062882743466 l 8.374887056696085 11.320840361942492" fill="#ffb010" stroke="none" /><path d="M 87.80319425747018 82.90503203632743 l -7.907979985416711 -11.083776142852834 a34.61566160840614,34.61566160840614 0 0,0 0.4880294992837356,-0.34189585215893886 l 7.716019346549315 11.218256837775716" fill="#ffaa0f" stroke="none" /><path d="M 88.39885842347998 82.49532879139004 l -12.448148057386591 -18.78269801841453 a43.533222914389555,43.533222914389555 0 0,0 0.6281905722353852,-0.4085926224394745 l 12.12299045936692 18.994189565013535" fill="#e5ff1a" stroke="none" /><path d="M 89.00827224532344 82.1063720568725 l -19.903835860604715 -32.401806292846985 a59.0268291210965,59.0268291210965 0 0,0 0.8703307336562007,-0.524364528830822 l 19.343143060730867 32.73961743113642" fill="#3cff2e" stroke="none" /><line stroke="#e1ed5e" stroke-width="0.3" x1="56.762969772571076" x2="54.21961505331055" y1="26.818313649435495" y2="22.513508569990535" /><path d="M 56.25429882871897 25.957352633546506 a86.0,86.0 0 0,1 42.265352541879196,-11.944610805530505" fill="none" id="id120" stroke="none" /><text fill="#e1ed5e" style="font-size:6.75px; font-family:Arial;" text-anchor="middle"><textPath startOffset="22.20632615414155" xlink:href="#id120">December</textPath></text><path d="M 89.3179101791058 81.91981866633112 l -7.256463258693395 -12.28206968468457 a35.265535207773134,35.265535207773134 0 0,0 0.5252940306833681,-0.30428420795540045 l 7.043972495544706 12.405158050030018" fill="#ffb210" stroke="none" /><path d="M 90.26544431104013 81.39251694778311 l -11.149349324017551 -21.311843623760648 a45.052082425282805,45.052082425282805 0 0,0 0.690239763458158,-0.3535676159011298 l 10.78084907297063 21.500603764974283" fill="#d3ff1c" stroke="none" /><path d="M 90.91171255644093 81.06846463323043 l -6.156406852780724 -12.8242240124393 a35.22540216859229,35.22540216859229 0 0,0 0.54888186215702,-0.257707393984971 l 5.9347467793240956 12.928296389064279" fill="#ffb210" stroke="none" /><path d="M 91.56875222667455 80.76684994638697 l -16.917053373104896 -38.59075604672631 a63.13588906248951,63.13588906248951 0 0,0 0.9990991143721187,-0.4277620999190559 l 16.250270500942467 38.876237674608156" fill="#33ff52" stroke="none" /><path d="M 91.90106846888425 80.62456947434976 l -1.2390421908710314 -2.9642151925025333 a24.21275539968752,24.21275539968752 0 0,0 0.3859237997136406,-0.1574280078727212 l 1.1878345215690105 2.985104086558832" fill="#ff1a02" stroke="none" /><path d="M 92.23578459929587 80.48803036053334 l -4.539282420865101 -11.407506903125347 a33.277471182667355,33.277471182667355 0 0,0 0.5340508578474775,-0.20720343586693693 l 4.342248398017947 11.483953042882835" fill="#ff980e" stroke="none" /><path d="M 92.57280143429618 80.3572730644239 l -4.524530494394076 -11.966034868578763 a33.792863896358185,33.792863896358185 0 0,0 0.5458636522098442,-0.2010461898417476 l 4.317884516411663 12.042144326226834" fill="#ff9f0e" stroke="none" /><path d="M 93.59665428221793 80.00007090966166 l -9.13611087320136 -28.53532788618283 a50.96220051096701,50.96220051096701 0 0,0 0.8377570026302184,-0.2602951787093345 l 8.643568497860413 28.688363199774688" fill="#90ff24" stroke="none" /><path d="M 94.28887869178378 79.79150937346287 l -3.830226164201771 -13.553045953591251 a35.08388039884932,35.08388039884932 0 0,0 0.5825630071095822,-0.15923647628813523 l 3.5963652678684666 13.616968970705683" fill="#ffb010" stroke="none" /><path d="M 94.63758080256005 79.69619591428918 l -2.5643272780360125 -9.709348849441634 a31.04227212681638,31.04227212681638 0 0,0 0.5178015238592941,-0.1319991377635959 l 2.396816865491719 9.752050983374092" fill="#ff7a0b" stroke="none" /><path d="M 95.692805502759 79.44645832069477 l -0.8932152500296744 -4.262342200203806 a25.35492761300619,25.35492761300619 0 0,0 0.42793514436088725,-0.08583976415397297 l 0.8197136962016508 4.277085920434989" fill="#ff2b04" stroke="none" /><path d="M 96.04723909329186 79.375362276772 l -11.858282720124423 -61.87391316968403 a84.0,84.0 0 0,0 1.4224195155884267,-0.2599380745970552 l 10.791468083433102 62.06886672563182" fill="#4dd2ff" stroke="none" /></svg>