<?xml version="1.0" encoding="utf-8" ?>
<svg baseProfile="full" height="200mm" version="1.1" viewBox="0,0,200,200" width="200mm" xmlns="http://www.w3.org/2000/svg" xmlns:ev="http://www.w3.org/2001/xml-events" xmlns:xlink="http://www.w3.org/1999/xlink"><defs /><rect fill="#1a1a1a" height="200" width="200" x="0" y="0" /><text alignment-baseline="middle" fill="#e1ed5e" style="dominant-baseline: central; font-size:9.0px; font-family:Arial;" text-anchor="middle" x="100.0" y="100.0">2025</text><line stroke="#e1ed5e" stroke-width="0.3" x1="100.0" x2="100.0" y1="15.0" y2="10.0" /><path d="M 100.0 14.0 a86.0,86.0 0 0,1 42.46469731375804,11.215312516191453" fill="none" id="id109" stroke="none" /><text fill="#e1ed5e" style="font-size:6.75px; font-family:Arial;" text-anchor="middle"><textPath startOffset="22.20632615414155" xlink:href="#id109">January</textPath></text><path d="M 101.44485096284872 79.0497635885617 l 2.4033636495877837 -34.84860233767461 a55.93137904122224,55.93137904122224 0 0,0 0.9599151299500014,0.07450788876741918 l -3.0028689689001262 34.80206918671873" fill="#60ff29" stroke="none" /><path d="M 102.88285421437855 79.19881850522331 l 3.1387336899730727 -22.647475138791936 a43.86394059078117,43.86394059078117 0 0,0 0.7470050378999019,0.11008912455093971 l -3.52810770830163 22.590091530080027" fill="#e9ff1a" stroke="none" /><path d="M 103.95276090670814 79.375362276772 l 6.124615263425879 -31.956896453802827 a53.53850247144243,53.53850247144243 0 0,0 0.9036116029860249,0.18125598682238864 l -6.673793275879029 31.84673651090323" fill="#7aff26" stroke="none" /><path d="M 105.36241919743992 79.69619591428918 l 9.279066362365247 -35.13346095913532 a57.3381500839581,57.3381500839581 0 0,0 0.9520920934420881,0.26024273462491376 l -9.882456345031047 34.96853168368411" fill="#51ff2b" stroke="none" /><path d="M 106.74666289553966 80.11325718540242 l 6.647017861406208 -19.593024987392415 a41.68983988837122,41.68983988837122 0 0,0 0.677594885791517,0.23639955072831037 l -6.983294751260999 19.475704583491897" fill="#fffa17" stroke="none" /><path d="M 107.08798089147638 80.2323363322302 l 16.97315198103758 -47.336408616249095 a71.28740865123099,71.28740865123099 0 0,0 1.1515213792557375,0.4241150420685684 l -17.785455686065895 47.037230306374205" fill="#3dffab" stroke="none" /><path d="M 108.09893153111575 80.62456947434976 l 12.807969009357139 -30.641068239935205 a54.210226332095644,54.210226332095644 0 0,0 0.8578542240008822,0.36728840913211974 l -13.333506991148337 30.416060302840297" fill="#72ff27" stroke="none" /><line stroke="#e1ed5e" stroke-width="0.3" x1="143.23703022742887" x2="145.7803849466894" y1="26.81831364943548" y2="22.513508569990506" /><path d="M 143.74570117128098 25.957352633546492 a86.0,86.0 0 0,1 28.547481713284135,27.462654790039103" fill="none" id="id110" stroke="none" /><text fill="#e1ed5e" style="font-size:6.75px; font-family:Arial;" text-anchor="middle"><textPath startOffset="19.985693538727396" xlink:href="#id110">February</textPath></text><path d="M 110.99172775467656 82.1063720568725 l 3.227746083909408 -5.2545049158253345 a27.166698200222314,27.166698200222314 0 0,0 0.39635028675385825,0.24819451320402086 l -3.3177155230355293 5.1981660612983696" fill="#ff3605" stroke="none" /><path d="M 112.77801427241765 83.33499621200491 l 15.294149523751498 -19.946531152156744 a46.13513705271622,46.13513705271622 0 0,0 0.6260481963467633,0.48864054746059327 l -15.635230275257692 19.680312215472927" fill="#ceff1d" stroke="none" /><path d="M 114.68862486808459 84.99185889309783 l 3.566463288039884 -3.6440432484452665 a26.098893172196863,26.098893172196863 0 0,0 0.3183620040940161,0.3169948564733247 l -3.628661092301223 3.5821125413218233" fill="#ff2603" stroke="none" /><path d="M 116.60985879189232 87.15038557335679 l 3.9414189671606006 -3.049135736577932 a25.983172906368992,25.983172906368992 0 0,0 0.27062595542570694,0.35611203492230703 l -3.993320862810421 2.9808389257745915" fill="#ff2503" stroke="none" /><line stroke="#e1ed5e" stroke-width="0.3" x1="172.23445277983987" x2="176.4835382374775" y1="55.19839476539836" y2="52.563006222186495" /><path d="M 173.08426987136738 54.67131705675599 a86.0,86.0 0 0,1 12.851231095245387,41.99856678651699" fill="none" id="id111" stroke="none" /><text fill="#e1ed5e" style="font-size:6.75px; font-family:Arial;" text-anchor="middle"><textPath startOffset="22.20632615414155" xlink:href="#id111">March</textPath></text><path d="M 118.03404312379186 89.2402003453031 l 22.288461688222576 -13.298148436845791 a46.95411867653667,46.95411867653667 0 0,0 0.4081438146749471,0.6976500810408529 l -22.51406517736785 12.912518943451044" fill="#c4ff1e" stroke="none" /><path d="M 118.73160827565052 90.50648371742162 l 25.187529742931822 -12.765493502407047 a49.237731476006914,49.237731476006914 0 0,0 0.3766451688813962,0.7592936772651566 l -25.403534924766625 12.33004023664294" fill="#aaff21" stroke="none" /><path d="M 119.7369772167798 92.82701384747503 l 19.451772924760494 -7.069334695930291 a41.69654471064021,41.69654471064021 0 0,0 0.2393519050354147,0.6766800670092845 l -19.57057791060572 6.733457002494392" fill="#fffa17" stroke="none" /><path d="M 120.37134235888165 94.90015583598534 l 25.94608403838924 -6.495447522854216 a47.746777664782535,47.746777664782535 0 0,0 0.1927314590101365,0.7989963243847331 l -26.0540482976602 6.047865966810077" fill="#bbff1f" stroke="none" /><path d="M 120.73433829027371 96.67025291283417 l 14.943307189382402 -2.3997599002139856 a36.13477047513185,36.13477047513185 0 0,0 0.09333801619997582,0.614980906729548 l -14.982401099021677 2.142179881092355" fill="#ffb210" stroke="none" /><path d="M 120.87857604477298 97.74499172005257 l 24.606134887853923 -2.657606428265267 a45.749237282122834,45.749237282122834 0 0,0 0.07782353588396058,0.7836723858089769 l -24.64823554942011 2.2336585117518553" fill="#d3ff1c" stroke="none" /><path d="M 120.96714384426684 98.82574320788733 l 53.13043406622165 -2.9755494374220337 a74.21369108152214,74.21369108152214 0 0,0 0.0604537368608946,1.276082837430923 l -53.17378141131605 2.060555493368111" fill="#41ffcb" stroke="none" /><line stroke="#e1ed5e" stroke-width="0.3" x1="184.98032266829074" x2="189.97916517819016" y1="98.17113171792111" y2="98.06355123074" /><path d="M 185.9800911702706 98.14961562048488 a86.0,86.0 0 0,1 -9.607161424134198,41.387399972396054" fill="none" id="id112" stroke="none" /><text fill="#e1ed5e" style="font-size:6.75px; font-family:Arial;" text-anchor="middle"><textPath startOffset="21.466115282336823" xlink:href="#id112">April</textPath></text><path d="M 120.99513854157772 99.54816195383933 l 25.3959595073087 -0.5465484641329493 a46.401839982971886,46.401839982971886 0 0,0 0.01031224080597294,0.7986944149106977 l -25.401604755232388 0.10931779116178889" fill="#cbff1d" stroke="none" /><path d="M 120.9904718944345 100.63252640178507 l 27.832244797234598 0.8386962305437167 a48.84487855639382,48.84487855639382 0 0,0 -0.03255829147292927,0.8401848334003387 l -27.813684372910465 -1.3176583109580615" fill="#aeff20" stroke="none" /><path d="M 120.92983693683757 101.71520430193887 l 32.37929873632015 2.653489974809695 a53.4878438142989,53.4878438142989 0 0,0 -0.08309821422429715,0.9169818695026104 l -32.32882592581878 -3.210453232860876" fill="#7aff26" stroke="none" /><path d="M 120.8583938346157 102.4346265915055 l 24.65313863921285 2.8775555477090924 a45.82050705957477,45.82050705957477 0 0,0 -0.09818350777261932,0.7826191605627884 l -24.599953622193386 -3.301492462559276" fill="#d2ff1c" stroke="none" /><path d="M 120.70491114924044 103.5080841355445 l 24.655360991883988 4.177418590609307 a46.006752122602464,46.006752122602464 0 0,0 -0.1390139094570575,0.7796638295285202 l -24.579800640087743 -4.601201170871045" fill="#cfff1d" stroke="none" /><path d="M 120.49622156327973 104.57218783832717 l 24.21756330680074 5.4023249155174735 a45.812808930302964,45.812808930302964 0 0,0 -0.17831967024260378,0.7681964723457733 l -24.120983070627585 -5.818390045211811" fill="#d2ff1c" stroke="none" /><path d="M 120.41448212921028 104.9243191809786 l 12.909747124209588 3.114049868272991 a34.28001797412672,34.28001797412672 0 0,0 -0.14330465351858454,0.5724308556420533 l -12.854231156395944 -3.3358085633124404" fill="#ff9a0e" stroke="none" /><path d="M 120.23288151984713 105.62410040840565 l 18.01498293543989 5.007594829497819 a39.6980110209777,39.6980110209777 0 0,0 -0.18867399051763567,0.6567989126940676 l -17.926116308036153 -5.316951217696468" fill="#ffe115" stroke="none" /><path d="M 120.02730092923936 106.31721596034902 l 50.51585063395929 15.934225935035919 a73.96933755882979,73.96933755882979 0 0,0 -0.3934737234531549,1.2109876009828318 l -50.23408465948989 -16.801412435996546" fill="#40ffc8" stroke="none" /><path d="M 119.79798401119884 107.00284435728193 l 14.906899154850349 5.272794167934739 a36.811957524300546,36.811957524300546 0 0,0 -0.21644684091224828,0.5955687459713256 l -14.813928052932873 -5.528610710912196" fill="#ffbb11" stroke="none" /><path d="M 119.54520255179757 107.68017299344265 l 23.220761951334456 9.124462555615606 a45.94914031643923,45.94914031643923 0 0,0 -0.2956004158986281,0.7336559902467303 l -23.060258921178434 -9.522817913705149" fill="#d0ff1d" stroke="none" /><path d="M 119.26925614724726 108.34839909993367 l 27.412992574447536 11.876670318054778 a50.875198070146396,50.875198070146396 0 0,0 -0.3550578020591569,0.8005616111211372 l -27.204493687657106 -12.346780265668603" fill="#97ff23" stroke="none" /><path d="M 119.12269723197855 108.67885076344098 l 22.826213246279146 10.359694338916192 a46.06709552302344,46.06709552302344 0 0,0 -0.3339324412889682,0.7192607705118386 l -22.644506188150345 -10.75107517670686" fill="#cfff1d" stroke="none" /><path d="M 118.81262510543309 109.33194174019688 l 23.86760323223057 11.83944726443231 a47.64272875623773,47.64272875623773 0 0,0 -0.37075419563601625,0.7315332014495137 l -23.660270366808287 -12.248534677584518" fill="#bcff1f" stroke="none" /><line stroke="#e1ed5e" stroke-width="0.3" x1="174.80103733775053" x2="179.2010983576182" y1="140.37084112569926" y2="142.7455964860345" /><path d="M 175.68104954172406 140.8457921977663 a86.0,86.0 0 0,1 -30.038265399797805,32.042727171017184" fill="none" id="id113" stroke="none" /><text fill="#e1ed5e" style="font-size:6.75px; font-family:Arial;" text-anchor="middle"><textPath startOffset="22.206326154141568" xlink:href="#id113">May</textPath></text><path d="M 118.48025628344425 109.97397251340804 l 12.652045949746803 6.828431197363861 a35.37712555873519,35.37712555873519 0 0,0 -0.2938383458685411,0.5334019488684801 l -12.532631194426752 -7.045203664630147" fill="#ffa80f" stroke="none" /><path d="M 118.30583269289576 110.29060199501025 l 34.20129423148135 19.226216723099515 a60.2348816309155,60.2348816309155 0 0,0 -0.5158630106341835,0.8994506412632679 l -33.86527922469479 -19.8120872102211" fill="#34ff2f" stroke="none" /><path d="M 116.71984013943494 112.70617746262583 l 3.1679634670454537 2.4074815112888577 a24.97893952652366,24.97893952652366 0 0,0 -0.263103387447103,0.34009659496892397 l -3.126053262380282 -2.461656100371034" fill="#ff1602" stroke="none" /><path d="M 114.81725581225074 114.88116024355365 l 17.535195317011908 17.610821782446397 a45.85204455691412,45.85204455691412 0 0,0 -0.5640894235688556,0.5520802260478752 l -17.229455941067258 -17.910052111416846" fill="#d1ff1c" stroke="none" /><path d="M 112.92097659922987 116.55440617244103 l 1.5381532935748083 1.9706880653922847 a23.499905399333066,23.499905399333066 0 0,0 -0.3210213210566328,0.24614545993484804 l -1.504003244024682 -1.9968728671545042" fill="#ff0000" stroke="none" /><path d="M 112.04921762599082 117.19931262002967 l 9.988628437580832 14.257983254671622 a38.408698531324646,38.408698531324646 0 0,0 -0.5447507822928677,0.37468455536386835 l -9.741720770665081 -14.427808599400583" fill="#ffd013" stroke="none" /><path d="M 111.45004920935366 117.60387380957326 l 6.107252555839305 9.3895931231773 a32.20102641723624,32.20102641723624 0 0,0 -0.46724946390949595,0.2982207150102767 l -5.944721289882879 -9.493328267011387" fill="#ff7d0b" stroke="none" /><line stroke="#e1ed5e" stroke-width="0.3" x1="143.8653032363475" x2="146.44561519142675" y1="172.8068346515853" y2="177.08958963109032" /><path d="M 144.38136562736335 173.6633856474863 a86.0,86.0 0 0,1 -40.68145358897372,12.25698825130547" fill="none" id="id114" stroke="none" /><text fill="#e1ed5e" style="font-size:6.75px; font-family:Arial;" text-anchor="middle"><textPath startOffset="21.466115282336833" xlink:href="#id114">June</textPath></text><path d="M 109.57404056367764 118.69057910512821 l 8.286686127502595 16.177387337699066 a39.17627651774945,39.17627651774945 0 0,0 -0.6028409842023984,0.3022769842526263 l -8.006991235617436 -16.317632162860995" fill="#ffda14" stroke="none" /><path d="M 106.57524785965236 119.94407469862006 l 4.707157787093562 14.277774545969521 a36.033701487595486,36.033701487595486 0 0,0 -0.5907444895020931,0.18913773044245463 l -4.460691952500529 -14.356685123071681" fill="#ffb110" stroke="none" /><path d="M 106.2309692047433 120.05430185196036 l 3.2421434967612854 10.434801103161547 a31.926873684459473,31.926873684459473 0 0,0 -0.5262233319084084,0.1585467732281895 l -3.0620451904126313 -10.489063245495462" fill="#ff790b" stroke="none" /><path d="M 105.88484417918355 120.15858648285463 l 4.309493535563689 14.762208732944936 a36.37837901757207,36.37837901757207 0 0,0 -0.6026144864328913,0.17030487321934337 l -4.054747881026192 -14.834202399502798" fill="#ffb610" stroke="none" /><path d="M 102.70371172650421 120.8252237178851 l 1.383347905569426 10.655177965440629 a31.74460184944304,31.74460184944304 0 0,0 -0.5424889080913116,0.06568785186627593 l -1.199731574426734 -10.677411346032255" fill="#ff770a" stroke="none" /><line stroke="#e1ed5e" stroke-width="0.3" x1="102.19456741930631" x2="102.32365962044197" y1="184.97166512339345" y2="189.96999836594603" /><path d="M 102.22038585953345 185.97133177190398 a86.0,86.0 0 0,1 -42.740103519485714,-10.115201625700543" fill="none" id="id115" stroke="none" /><text fill="#e1ed5e" style="font-size:6.75px; font-family:Arial;" text-anchor="middle"><textPath startOffset="22.20632615414155" xlink:href="#id115">July</textPath></text><path d="M 99.81925306533755 120.99922214144158 l -0.1090709838795662 12.671893019652167 a33.67236241515503,33.67236241515503 0 0,0 -0.5795499577800051,-0.009977478104412974 l 0.32718063155223914 -12.668138064268595" fill="#ff910d" stroke="none" /><path d="M 98.01472825383883 120.90594882070398 l -1.904021296648798 20.050339132786185 a41.14054111581487,41.14054111581487 0 0,0 -0.7044189306311609,-0.07301590235515057 l 2.248872823885552 -20.014593861975275" fill="#fff316" stroke="none" /><path d="M 97.2962882734958 120.8252237178851 l -2.908681760307595 22.403996620178706 a43.59202279876074,43.59202279876074 0 0,0 -0.7432884293603828,-0.10301300344975119 l 3.2938987808548092 -22.350609051236347" fill="#edff1a" stroke="none" /><path d="M 96.22490169976321 120.6578951692458 l -2.285968755274293 12.509158477718461 a33.716316250029564,33.716316250029564 0 0,0 -0.5700182945763389,-0.10924536281052774 l 2.500954664422327 -12.467955916559465" fill="#ff920d" stroke="none" /><path d="M 95.51606077576429 120.51570834832081 l -7.234982228637551 33.10276475330955 a54.88418513350519,54.88418513350519 0 0,0 -0.921217589359637,-0.20966612411127386 l 7.803719967390051 -32.973321895620586" fill="#6bff28" stroke="none" /><path d="M 94.46302465271185 120.25689768951611 l -7.977890619937945 29.186930396102227 a51.25762126622993,51.25762126622993 0 0,0 -0.8490918493152146,-0.23996183796572063 l 8.479113637357774 -29.045279764797986" fill="#93ff23" stroke="none" /><path d="M 94.11515582081647 120.15858648285463 l -7.828736964715702 26.817408643203496 a48.936759454154156,48.936759454154156 0 0,0 -0.8065827198514595,-0.24301675699230288 l 8.289194659007407 -26.67867651710547" fill="#adff20" stroke="none" /><path d="M 93.08242187328487 119.8279376855182 l -12.350142024160965 35.399361160326436 a58.49187616772698,58.49187616772698 0 0,0 -0.9477924439021789,-0.3398446495433647 l 12.95765402869287 -35.18152896974311" fill="#46ff2d" stroke="none" /><path d="M 92.40401165467489 119.57807347666478 l -9.977560549141664 25.716391951705464 a48.584135468155054,48.584135468155054 0 0,0 -0.7770660544038341,-0.30921061986295556 l 10.418747679587357 -25.54083448743644" fill="#b1ff20" stroke="none" /><path d="M 92.06813273071674 119.44442032107085 l -14.070655681970628 34.49323267584423 a58.25273750679943,58.25273750679943 0 0,0 -0.9251881200438214,-0.386728709213297 l 14.66231526151191 -34.245918923610965" fill="#48ff2c" stroke="none" /><path d="M 91.40352486487194 119.15986991738527 l -14.02337745478307 31.25537893294153 a55.25717191306199,55.25717191306199 0 0,0 -0.8644642588963101,-0.39683314196488473 l 14.559309709446799 -31.00935872064257" fill="#67ff28" stroke="none" /><path d="M 91.07499286063937 119.00905698771935 l -10.76951142920059 22.937601426079578 a46.34000662204669,46.34000662204669 0 0,0 -0.7191248153766624,-0.34522361252386496 l 11.162748912577495 -22.74882353705615" fill="#cbff1d" stroke="none" /><path d="M 90.42595943632237 118.69057910512821 l -11.329307750245022 22.117236845188142 a45.8500579429085,45.8500579429085 0 0,0 -0.6993424132762335,-0.3658628976624562 l 11.708341066047751 -21.91894452858097" fill="#d1ff1c" stroke="none" /><path d="M 90.10565033884886 118.52300852407294 l -11.706937047932504 21.916316095140942 a45.84707802190005,45.84707802190005 0 0,0 -0.6928960336490327,-0.3778221638661518 l 12.082455893450177 -21.711553279515027" fill="#d1ff1c" stroke="none" /><line stroke="#e1ed5e" stroke-width="0.3" x1="58.666819895761336" x2="56.23545636021788" y1="174.27360380694188" y2="178.64263932499728" /><path d="M 58.180547188652646 175.14741091055294 a86.0,86.0 0 0,1 -31.652253787137756,-30.449443065178592" fill="none" id="id116" stroke="none" /><text fill="#e1ed5e" style="font-size:6.75px; font-family:Arial;" text-anchor="middle"><textPath startOffset="22.20632615414155" xlink:href="#id116">August</textPath></text><path d="M 88.8546689885994 117.79835938074946 l -22.462390215075335 35.870957371260715 a63.32356975616678,63.32356975616678 0 0,0 -0.9188497173359562,-0.5864533634735131 l 23.076521734458215 -35.4789895789634" fill="#33ff50" stroke="none" /><path d="M 88.54995079064634 117.60387380957326 l -16.255181252855227 24.991522245445186 a50.81286805571979,50.81286805571979 0 0,0 -0.7291048940369684,-0.48321096689299875 l 16.682960845632156 -24.708013257460866" fill="#98ff23" stroke="none" /><path d="M 87.95078237400918 117.19931262002967 l -15.324759380406345 21.87489143210383 a47.70878367192489,47.70878367192489 0 0,0 -0.6685424407722252,-0.4769872805882595 l 15.699029149027456 -21.60785988967135" fill="#bbff1f" stroke="none" /><path d="M 87.36589467227662 116.77436683061367 l -29.88883371407347 39.68355873675673 a70.6802497457607,70.6802497457607 0 0,0 -0.9655301483316325,-0.7403273454230294 l 30.56749259089859 -39.163192049506335" fill="#3cffa5" stroke="none" /><path d="M 87.07902340077011 116.55440617244103 l -12.401943447518983 15.889418851676396 a41.156434027859895,41.156434027859895 0 0,0 -0.5547152513361002,-0.4406993444452814 l 12.67361619157244 -15.673585593225983" fill="#fff316" stroke="none" /><path d="M 86.51685102203217 116.09983520530335 l -15.946327661606945 19.041045077908542 a45.8363999716198,45.8363999716198 0 0,0 -0.6005321934102396,-0.5117865634919162 l 16.271725331594244 -18.763734124193675" fill="#d1ff1c" stroke="none" /><path d="M 85.97065885151581 115.62618273729859 l -21.911658935631856 24.405678283939878 a53.79874890617979,53.79874890617979 0 0,0 -0.6837576343418547,-0.624596387234246 l 22.328516119440565 -24.024889130119057" fill="#77ff27" stroke="none" /><path d="M 85.70375840098266 115.38237550388516 l -20.69900221582767 22.27157553503416 a51.40512735614786,51.40512735614786 0 0,0 -0.6429659469064937,-0.6079644347110168 l 21.079303997124978 -21.91197646357721" fill="#91ff24" stroke="none" /><path d="M 85.18274418774928 114.88116024355367 l -35.091416468253506 35.24276008014986 a70.73388832391268,70.73388832391268 0 0,0 -0.8554063841015513,-0.8665221509065051 l 35.69286347741059 -34.63349743526268" fill="#3cffa5" stroke="none" /><path d="M 84.67929136418377 114.36230785411682 l -19.500813055490664 18.280922062167782 a47.72964311898399,47.72964311898399 0 0,0 -0.5567403584322412,-0.6042317015219787 l 19.812599821918635 -17.94253910584446" fill="#bbff1f" stroke="none" /><path d="M 84.43433777217949 114.09645910891817 l -21.073630873674645 19.084544656008816 a49.430929688054306,49.430929688054306 0 0,0 -0.5657279287704323,-0.6356013252141824 l 21.399017652093416 -18.71896916105377" fill="#a7ff21" stroke="none" /><path d="M 83.95833913139862 113.55231037782056 l -24.671978051368566 20.843371950430413 a53.297873850010646,53.297873850010646 0 0,0 -0.5860329651970068,-0.7059144586262526 l 25.02710701645911 -20.4155962346904" fill="#7cff26" stroke="none" /><path d="M 83.50135304334701 112.99209946851258 l -41.86156589584658 32.96449881347515 a74.28272591821772,74.28272591821772 0 0,0 -0.782420598646117,-1.011384095108204 l 42.42279331171077 -32.239036724253694" fill="#41ffcc" stroke="none" /><path d="M 83.06392112726016 112.41649034213515 l -22.25266101963841 16.314281051316872 a48.59233025092827,48.59233025092827 0 0,0 -0.4887467659311485,-0.6788265108782103 l 22.530187577945167 -15.928820934987522" fill="#b1ff20" stroke="none" /><path d="M 82.6465618267979 111.8261652097733 l -28.927458699713277 19.71372486923021 a56.00612539318402,56.00612539318402 0 0,0 -0.5360503467622488,-0.8013225361434193 l 29.26251215188626 -19.21286541888097" fill="#5fff29" stroke="none" /><path d="M 82.44556493220864 111.52570212397912 l -21.529642971064604 14.135701363321171 a46.7554572759738,46.7554572759738 0 0,0 -0.43592814977228544,-0.6765701691411428 l 21.769775984213936 -13.76300959425858" fill="#c7ff1e" stroke="none" /><path d="M 82.05923443525364 110.91462005526583 l -53.82229669423909 32.743860165797486 a84.0,84.0 0 0,0 -0.7408764972070725,-1.2417516244555555 l 54.3779540671444 -31.812546447455823" fill="#4dd2ff" stroke="none" /><line stroke="#e1ed5e" stroke-width="0.3" x1="26.63291911575756" x2="22.317208475507996" y1="142.92168965132927" y2="145.44649492493687" /><path d="M 25.769776987707644 143.4266507060508 a86.0,86.0 0 0,1 -11.730757126820373,-40.83630448921669" fill="none" id="id117" stroke="none" /><text fill="#e1ed5e" style="font-size:6.75px; font-family:Arial;" text-anchor="middle"><textPath startOffset="21.46611528233685" xlink:href="#id117">September</textPath></text><path d="M 81.69416730710424 110.29060199501025 l -28.46445935662474 16.001261846769065 a53.653726083768895,53.653726083768895 0 0,0 -0.4456416928493234,-0.8089691179013796 l 28.73567745892558 -15.508922210469862" fill="#78ff26" stroke="none" /><path d="M 81.35079622478065 109.6543875284942 l -18.28422929081678 9.46544621212996 a41.58901922758555,41.58901922758555 0 0,0 -0.3236444211645982,-0.6385811471119531 l 18.444452381767643 -9.149310853315322" fill="#fff917" stroke="none" /><path d="M 81.18737489456691 109.33194174019688 l -23.313008307700088 11.564342248724929 a47.023650166733674,47.023650166733674 0 0,0 -0.3534538114717923,-0.7282195411926985 l 23.508615375786597 -11.161333751566945" fill="#c3ff1e" stroke="none" /><path d="M 80.32549172779594 107.34259656027581 l -46.5393809066901 17.368662709888756 a70.67478655724523,70.67478655724523 0 0,0 -0.41555340468828034,-1.1434244966165013 l 46.8314585723836 -16.564990416266138" fill="#3cffa5" stroke="none" /><line stroke="#e1ed5e" stroke-width="0.3" x1="15.007084014347285" x2="10.007500721073583" y1="101.09737516637583" y2="101.16192664675087" /><path d="M 14.007167355692545 101.11028546245083 a86.0,86.0 0 0,1 10.666146001902534,-42.60595125391555" fill="none" id="id118" stroke="none" /><text fill="#e1ed5e" style="font-size:6.75px; font-family:Arial;" text-anchor="middle"><textPath startOffset="22.20632615414155" xlink:href="#id118">October</textPath></text><line stroke="#e1ed5e" stroke-width="0.3" x1="26.266209847984243" x2="21.928928074336255" y1="57.711370442889674" y2="55.22380399835377" /><path d="M 25.398753493254645 57.213857153982495 a86.0,86.0 0 0,1 29.58750427330803,-30.492523968695096" fill="none" id="id119" stroke="none" /><text fill="#e1ed5e" style="font-size:6.75px; font-family:Arial;" text-anchor="middle"><textPath startOffset="21.46611528233685" xlink:href="#id119">November</textPath></text><line stroke="#e1ed5e" stroke-width="0.3" x1="56.762969772571076" x2="54.21961505331055" y1="26.818313649435495" y2="22.513508569990535" /><path d="M 56.25429882871897 25.957352633546506 a86.0,86.0 0 0,1 42.265352541879196,-11.944610805530505" fill="none" id="id120" stroke="none" /><text fill="#e1ed5e" style="font-size:6.75px; font-family:Arial;" text-anchor="middle"><textPath startOffset="22.20632615414155" xlink:href="#id120">December</textPath></text></svg>