<?xml version="1.0" encoding="utf-8" ?>
<svg baseProfile="full" height="200mm" version="1.1" viewBox="0,0,200,200" width="200mm" xmlns="http://www.w3.org/2000/svg" xmlns:ev="http://www.w3.org/2001/xml-events" xmlns:xlink="http://www.w3.org/1999/xlink"><defs /><rect fill="#1a1a1a" height="200" width="200" x="0" y="0" /><text alignment-baseline="middle" fill="#e1ed5e" style="dominant-baseline: central; font-size:9.0px; font-family:Arial;" text-anchor="middle" x="100.0" y="100.0">2019</text><line stroke="#e1ed5e" stroke-width="0.3" x1="100.0" x2="100.0" y1="15.0" y2="10.0" /><path d="M 100.0 14.0 a86.0,86.0 0 0,1 42.46469731375804,11.215312516191453" fill="none" id="id37" stroke="none" /><text fill="#e1ed5e" style="font-size:6.75px; font-family:Arial;" text-anchor="middle"><textPath startOffset="22.20632615414155" xlink:href="#id37">January</textPath></text><path d="M 101.44485096284872 79.0497635885617 l 0.5070326704348659 -7.351937734110466 a28.369400964469612,28.369400964469612 0 0,0 0.48688621092896706,0.03779174065958853 l -0.6335090707261741 7.342120731262414" fill="#ff5e08" stroke="none" /><path d="M 102.52436894288641 79.15227682838746 l 0.2809807143306195 -2.320503968104117 a23.337453492117586,23.337453492117586 0 0,0 0.39838730243129944,0.05172210564772029 l -0.320882745269765 2.3153235392922595" fill="#ff1702" stroke="none" /><path d="M 102.88285421437855 79.19881850522331 l 1.2268559279291202 -8.852356354862534 a29.93696752267624,29.93696752267624 0 0,0 0.5098280103813773,0.07513539599709385 l -1.3790529187391531 8.829926474704472" fill="#ff730a" stroke="none" /><path d="M 103.2404852339499 79.25152402106235 l 1.8755273995749198 -12.008798802791027 a33.15437582570456,33.15437582570456 0 0,0 0.5631046450344824,0.0929170912974705 l -2.0819612507482774 11.974735448553933" fill="#ff9e0e" stroke="none" /><path d="M 103.95276090670814 79.375362276772 l 2.979461969702092 -15.546177769304297 a36.82911358426972,36.82911358426972 0 0,0 0.6215940458959898,0.12468591795355827 l -3.2466224250652074 15.49258789527353" fill="#ffcd13" stroke="none" /><path d="M 104.66035177308747 79.52364482259891 l 2.286457417893579 -10.046090180822391 a31.303000312775723,31.303000312775723 0 0,0 0.5243644779542485,0.1241001303949641 l -2.4590455828103503 10.005244138286558" fill="#ff850c" stroke="none" /><path d="M 106.0581310904928 79.89281104454417 l 2.1280425936820255 -7.063061841559159 a28.376680002427513,28.376680002427513 0 0,0 0.4664783338450109,0.14493708902582148 l -2.2493063002377545 7.025384617650817" fill="#ff5e08" stroke="none" /><path d="M 106.74666289553966 80.11325718540242 l 4.386310389297191 -12.929270065445193 a34.653048863036915,34.653048863036915 0 0,0 0.5632242471918673,0.1964978806472496 l -4.608216640552332 12.851851331625735" fill="#ffb110" stroke="none" /><path d="M 107.4271985657038 80.35727306442388 l 5.213958507795615 -13.789366517676799 a35.74218410819239,35.74218410819239 0 0,0 0.5736056078162951,0.2225500643349288 l -5.450547280611577 13.697573749451324" fill="#ffbf11" stroke="none" /><path d="M 108.09893153111575 80.62456947434976 l 4.102765870249 -9.815227450264308 a31.638203687018876,31.638203687018876 0 0,0 0.5006613790254621,0.21435707404754367 l -4.271111007064777 9.743150848253974" fill="#ff8a0c" stroke="none" /><path d="M 109.08828744355905 81.06846463323043 l 7.6476429928376115 -15.930572694852497 a38.67115134143438,38.67115134143438 0 0,0 0.5976142737182638,0.2932467287032569 l -7.920728533566307 15.796570806014408" fill="#ffe415" stroke="none" /><path d="M 109.41281617654863 81.2277094730956 l 4.001724482767282 -7.980771449281431 a29.927850343819877,29.927850343819877 0 0,0 0.45852247510177624,0.2348730208566841 l -4.1385074454578135 7.9107059031122455" fill="#ff730a" stroke="none" /><path d="M 110.05341064243156 81.56283822128135 l 3.4672629857549735 -6.358686705576169 a28.242569242475877,28.242569242475877 0 0,0 0.4248165374482472,0.23640994315084346 l -3.5762036122752554 6.298061364865145" fill="#ff5c08" stroke="none" /><path d="M 110.36928655335952 81.73862282372117 l 8.784614667909874 -15.470607449554937 a38.79070402547021,38.79070402547021 0 0,0 0.5778028080541631,0.33470068101563205 l -9.049614208429366 15.317102611149254" fill="#ffe515" stroke="none" /><line stroke="#e1ed5e" stroke-width="0.3" x1="143.23703022742887" x2="145.7803849466894" y1="26.81831364943548" y2="22.513508569990506" /><path d="M 143.74570117128098 25.957352633546492 a86.0,86.0 0 0,1 28.547481713284135,27.462654790039103" fill="none" id="id38" stroke="none" /><text fill="#e1ed5e" style="font-size:6.75px; font-family:Arial;" text-anchor="middle"><textPath startOffset="19.985693538727396" xlink:href="#id38">February</textPath></text><path d="M 110.99172775467656 82.1063720568725 l 10.889987656336203 -17.72800343829704 a41.80562272712419,41.80562272712419 0 0,0 0.6099258155591278,0.381935489748424 l -11.193532624267593 17.53792360722567" fill="#f4ff19" stroke="none" /><path d="M 111.2981086023043 82.29822771554956 l 4.805721757554736 -7.529560496286306 a29.932482458883996,29.932482458883996 0 0,0 0.4319299611988324,0.2809392616772425 l -4.9346187445378495 7.445722310449535" fill="#ff730a" stroke="none" /><path d="M 114.42810811169701 84.74124197986012 l 7.970463675902494 -8.429336375731253 a32.600948363996245,32.600948363996245 0 0,0 0.40443301537844484,0.3890642403622058 l -8.114379934893357 8.290889048606745" fill="#ff970d" stroke="none" /><path d="M 114.68862486808459 84.99185889309783 l 6.907876279367038 -7.058140764083804 a30.87603694488145,30.87603694488145 0 0,0 0.3766350141899878,0.3750176237448426 l -7.028347093724348 6.938187289688843" fill="#ff800b" stroke="none" /><path d="M 115.9244219780498 86.31012108654704 l 1.2353059367131172 -1.0619656222362426 a22.629033989851127,22.629033989851127 0 0,0 0.25138635508912105,0.2975621530874352 l -1.2534029052893554 1.0405445195197007" fill="#ff0d01" stroke="none" /><path d="M 117.45458315368197 88.32363383020206 l 3.6655186856341784 -2.4520745066703395 a25.410067643585062,25.410067643585062 0 0,0 0.24006871029857146,0.3656411159522285 l -3.7071840312906748 2.388615326740437" fill="#ff3505" stroke="none" /><path d="M 117.65298651832404 88.62581576622439 l 7.751339842151156 -4.99434853879913 a30.22099705430627,30.22099705430627 0 0,0 0.27799345927734453,0.4397188923031108 l -7.836160897674456 4.860181998781813" fill="#ff770a" stroke="none" /><line stroke="#e1ed5e" stroke-width="0.3" x1="172.23445277983987" x2="176.4835382374775" y1="55.19839476539836" y2="52.563006222186495" /><path d="M 173.08426987136738 54.67131705675599 a86.0,86.0 0 0,1 12.851231095245387,41.99856678651699" fill="none" id="id39" stroke="none" /><text fill="#e1ed5e" style="font-size:6.75px; font-family:Arial;" text-anchor="middle"><textPath startOffset="22.20632615414155" xlink:href="#id39">March</textPath></text><path d="M 118.03404312379186 89.2402003453031 l 4.202360313326467 -2.507288839106135 a25.893498699880027,25.893498699880027 0 0,0 0.22507655627515508,0.3847287943119149 l -4.244896544071949 2.434580632440325" fill="#ff3b05" stroke="none" /><path d="M 118.56541770881063 90.18545643968196 l 13.031200948505724 -6.888899100377994 a35.74005186475018,35.74005186475018 0 0,0 0.2828409275376035,0.5463586455435636 l -13.147851309203443 6.663567732574085" fill="#ffbf11" stroke="none" /><path d="M 118.73160827565052 90.50648371742162 l 5.907695713090094 -2.9941265383840427 a27.62311575969488,27.62311575969488 0 0,0 0.21130366465828065,0.4259752940267016 l -5.9583593907017836 2.891991655858391" fill="#ff5307" stroke="none" /><path d="M 119.47837535516314 92.15188598940014 l 5.661873807931194 -2.2812493520664567 a27.104171821241675,27.104171821241675 0 0,0 0.17063553999441944,0.4342488371777334 l -5.700302897807314 2.183451509992939" fill="#ff4c07" stroke="none" /><path d="M 119.7369772167798 92.82701384747503 l 11.39668979375158 -4.14188541524498 a33.125994930232345,33.125994930232345 0 0,0 0.1901541254261608,0.5375913190096722 l -11.46629699998755 3.9450964698086928" fill="#ff9d0e" stroke="none" /><path d="M 120.08093135843002 93.85539295169968 l 14.236550795140555 -4.356272565145872 a35.888132495530115,35.888132495530115 0 0,0 0.17567087543878016,0.5922748613094124 l -14.309427567691037 4.11056831708993" fill="#ffc111" stroke="none" /><path d="M 120.28053869075195 94.5502522615342 l 7.121185226564543 -1.9135913338122101 a28.373812502625917,28.373812502625917 0 0,0 0.12268791686012857,0.4727665912131203 l -7.1530694752949735 1.7907283170502395" fill="#ff5e08" stroke="none" /><path d="M 120.45610955862082 95.25157060432595 l 15.871149121559796 -3.6841331346986594 a37.29313387267695,37.29313387267695 0 0,0 0.13977042676495785,0.6265634169607679 l -15.932213935326791 3.410391548187928" fill="#ffd313" stroke="none" /><path d="M 120.53481517161879 95.60439243477599 l 4.213734755375197 -0.9019766778409467 a25.309190471077585,25.309190471077585 0 0,0 0.08752243961100502,0.42679049850502765 l -4.228636490901199 0.8293105231725073" fill="#ff3304" stroke="none" /><path d="M 120.83666639777658 97.38593545837742 l 2.917421219896803 -0.36600515736640576 a23.940290181176504,23.940290181176504 0 0,0 0.047777576689750176,0.4093290998034033 l -2.9232891495901425 0.3157323192381497" fill="#ff2003" stroke="none" /><path d="M 120.87857604477298 97.74499172005257 l 8.078336682200716 -0.8725075918731665 a29.125318027552275,29.125318027552275 0 0,0 0.04954476549349378,0.49890902716789504 l -8.09215857337644 0.7333230340008365" fill="#ff6809" stroke="none" /><path d="M 120.91429891909075 98.10471618934814 l 6.497671622555045 -0.5888283360968619 a27.524297304993674,27.524297304993674 0 0,0 0.03869852787788704,0.4722200598869018 l -6.506844634252427 0.4768943590021913" fill="#ff5207" stroke="none" /><path d="M 120.94382443527127 98.46500227214037 l 6.752276639558598 -0.4948823617021446 a27.770387608479492,27.770387608479492 0 0,0 0.030837572695621176,0.4770436005685146 l -6.759794803258635 0.37857969688059473" fill="#ff5507" stroke="none" /><line stroke="#e1ed5e" stroke-width="0.3" x1="184.98032266829074" x2="189.97916517819016" y1="98.17113171792111" y2="98.06355123074" /><path d="M 185.9800911702706 98.14961562048488 a86.0,86.0 0 0,1 -9.607161424134198,41.387399972396054" fill="none" id="id40" stroke="none" /><text fill="#e1ed5e" style="font-size:6.75px; font-family:Arial;" text-anchor="middle"><textPath startOffset="21.466115282336823" xlink:href="#id40">April</textPath></text><path d="M 120.9904718944345 100.63252640178507 l 9.400984953360027 0.28328906637687595 a30.40525229796789,30.40525229796789 0 0,0 -0.020267080109171588,0.5230032828716988 l -9.39471574039965 -0.445069596262581" fill="#ff790b" stroke="none" /><path d="M 120.89721153311464 102.0752229133903 l 9.025361192938357 0.8962744297022346 a30.069754821180986,30.069754821180986 0 0,0 -0.05558279412313786,0.514627642035951 l -9.008596097314166 -1.0514983936229771" fill="#ff750a" stroke="none" /><path d="M 120.64145759157962 103.86396538481128 l 11.693551320976837 2.1889673890181407 a32.89666847174048,32.89666847174048 0 0,0 -0.10898206811696869,0.555697217406984 l -11.654139319884205 -2.3899283334930694" fill="#ff9a0e" stroke="none" /><path d="M 120.23288151984713 105.62410040840565 l 13.10684782183327 3.6432886791421426 a34.60378668695819,34.60378668695819 0 0,0 -0.1644625096657712,0.5725155716008423 l -13.042192675281399 -3.868361726247567" fill="#ffb110" stroke="none" /><path d="M 120.02730092923936 106.31721596034902 l 16.68274045864303 5.262240511592629 a38.49299872555565,38.49299872555565 0 0,0 -0.20476029710791885,0.63018739547616 l -16.58968791051886 -5.548626807046584" fill="#ffe215" stroke="none" /><path d="M 119.67450827220406 107.3425965602758 l 13.55680354651319 5.059447367718689 a35.470139255220325,35.470139255220325 0 0,0 -0.21840437663404283,0.5701849092242364 l -13.46770489028564 -5.292055843776069" fill="#ffbc11" stroke="none" /><path d="M 118.97047184881838 109.00673069616215 l 13.287548638644298 6.308613362607511 a35.70909757202011,35.70909757202011 0 0,0 -0.2684078457605137,0.5529996620445005 l -13.17698753626907 -6.5364019806172875" fill="#ffbf11" stroke="none" /><path d="M 118.81262510543309 109.33194174019688 l 7.961165248114179 3.949110231193927 a29.886823038966256,29.886823038966256 0 0,0 -0.2325783036614403,0.45889905783340723 l -7.89200827466647 -4.085563500730029" fill="#ff720a" stroke="none" /><path d="M 118.64920377521936 109.65438752849418 l 19.690027511786067 10.193204939831745 a43.172023145403365,43.172023145403365 0 0,0 -0.34732404882251244,0.6570062078868949 l -19.511650954738663 -10.530626162804774" fill="#e4ff1b" stroke="none" /><line stroke="#e1ed5e" stroke-width="0.3" x1="174.80103733775053" x2="179.2010983576182" y1="140.37084112569926" y2="142.7455964860345" /><path d="M 175.68104954172406 140.8457921977663 a86.0,86.0 0 0,1 -30.038265399797805,32.042727171017184" fill="none" id="id41" stroke="none" /><text fill="#e1ed5e" style="font-size:6.75px; font-family:Arial;" text-anchor="middle"><textPath startOffset="22.206326154141568" xlink:href="#id41">May</textPath></text><path d="M 117.35343817320211 111.8261652097733 l 7.367784544100839 5.0210590189040785 a29.916012716433798,29.916012716433798 0 0,0 -0.293659986794841,0.4230391131747263 l -7.280263650143862 -5.147139394265824" fill="#ff730a" stroke="none" /><path d="M 117.14729908036423 112.12312394758627 l 10.200978341361768 7.212081870117171 a33.49296137920088,33.49296137920088 0 0,0 -0.336875726498606,0.4678909201228891 l -10.07532282248756 -7.3866063956911905" fill="#ffa20f" stroke="none" /><path d="M 116.27256486870786 113.27417163493432 l 4.429374366230574 3.613215006184325 a26.71617704039475,26.71617704039475 0 0,0 -0.2937558164847344,0.35384780460673065 l -4.366522549852297 -3.6889240679048263" fill="#ff4706" stroke="none" /><path d="M 115.56566222782051 114.09645910891815 l 8.893716888792795 8.05426165711657 a32.99872205442298,32.99872205442298 0 0,0 -0.38491216660865224,0.4177461357775175 l -8.75375831418842 -8.206159047695422" fill="#ff9c0e" stroke="none" /><path d="M 114.0293411484842 115.62618273729858 l 6.885616432610307 7.669348082432207 a31.306823645844517,31.306823645844517 0 0,0 -0.40409304549576275,0.35656512955724334 l -6.752581034207957 -7.786736353761739" fill="#ff850c" stroke="none" /><path d="M 113.75828350139079 115.86535959552629 l 5.432845960772408 6.2648843357562445 a29.29244179804025,29.29244179804025 0 0,0 -0.38377914352373266,0.3270649120216347 l -5.324201340671628 -6.357473638000826" fill="#ff6a09" stroke="none" /><path d="M 111.7513745106137 117.40417183066458 l 3.8111420616015406 5.6444266371800325 a27.810606131337792,27.810606131337792 0 0,0 -0.39904948908331245,0.2644682418608605 l -3.713417873778264 -5.709192900132211" fill="#ff5608" stroke="none" /><path d="M 111.45004920935366 117.60387380957326 l 5.639420906413069 8.670325531392963 a31.34299825872621,31.34299825872621 0 0,0 -0.4547991403735832,0.2902743294629872 l -5.489339963992555 -8.76611428967976" fill="#ff860c" stroke="none" /><path d="M 111.1453310114006 117.79835938074945 l 7.81100860094732 12.473666153439328 a35.717479494517086,35.717479494517086 0 0,0 -0.5238917433477386,0.32181709791350205 l -7.595137657667272 -12.606271718181208" fill="#ffbf11" stroke="none" /><line stroke="#e1ed5e" stroke-width="0.3" x1="143.8653032363475" x2="146.44561519142675" y1="172.8068346515853" y2="177.08958963109032" /><path d="M 144.38136562736335 173.6633856474863 a86.0,86.0 0 0,1 -40.68145358897372,12.25698825130547" fill="none" id="id42" stroke="none" /><text fill="#e1ed5e" style="font-size:6.75px; font-family:Arial;" text-anchor="middle"><textPath startOffset="21.466115282336833" xlink:href="#id42">June</textPath></text><path d="M 109.89434966115114 118.52300852407294 l 1.4748613836609057 2.7610576659364376 a24.13028042444132,24.13028042444132 0 0,0 -0.36805468307311284,0.19254881484526468 l -1.4271157980612974 -2.786035899726419" fill="#ff2203" stroke="none" /><path d="M 109.57404056367764 118.69057910512821 l 6.716669183185431 13.112377773661912 a35.73255224988446,35.73255224988446 0 0,0 -0.5498492680034166,0.275705837660474 l -6.4899660074992545 -13.226051452231689" fill="#ffbf11" stroke="none" /><path d="M 109.2508944713604 118.85261126421891 l 2.4642197492504017 5.021890277318995 a26.593903907829198,26.593903907829198 0 0,0 -0.41269601866574485,0.1981191684553103 l -2.3774110625844243 -5.063563722273866" fill="#ff4506" stroke="none" /><path d="M 107.2578585660854 119.70592522655815 l 4.100530337056469 11.133414005730739 a32.864537768835405,32.864537768835405 0 0,0 -0.532531397699047,0.1909468126552719 l -3.908279378727687 -11.20234835942597" fill="#ff9a0e" stroke="none" /><path d="M 106.57524785965236 119.94407469862006 l 3.689938142842781 11.192338832689215 a32.784909505114115,32.784909505114115 0 0,0 -0.537483073606473,0.1720851070127551 l -3.4967337241453675 -11.254196786361677" fill="#ff990e" stroke="none" /><path d="M 105.88484417918355 120.15858648285463 l 3.7102284466038427 12.709420799377487 a34.239908314699065,34.239908314699065 0 0,0 -0.5671903290304648,0.16029365249507335 l -3.4909069494687723 -12.771403245211078" fill="#ffac0f" stroke="none" /><path d="M 105.18746579009965 120.34920634021253 l 3.6544328373462553 14.335479186298148 a35.793946155893025,35.793946155893025 0 0,0 -0.5983498678145053,0.14705983972884834 l -3.4071296847885386 -14.396260284341025" fill="#ffc011" stroke="none" /><path d="M 101.26447882468166 120.96189622390904 l 0.6549628543471341 10.85764594499735 a31.877382580726483,31.877382580726483 0 0,0 -0.5480054980662175,0.02832562470817026 l -0.467969287867437 -10.867311376467722" fill="#ff8d0d" stroke="none" /><line stroke="#e1ed5e" stroke-width="0.3" x1="102.19456741930631" x2="102.32365962044197" y1="184.97166512339345" y2="189.96999836594603" /><path d="M 102.22038585953345 185.97133177190398 a86.0,86.0 0 0,1 -42.740103519485714,-10.115201625700543" fill="none" id="id43" stroke="none" /><text fill="#e1ed5e" style="font-size:6.75px; font-family:Arial;" text-anchor="middle"><textPath startOffset="22.20632615414155" xlink:href="#id43">July</textPath></text><path d="M 100.18074693466247 120.99922214144158 l 0.054160543772794834 6.292384942019094 a27.292618026151786,27.292618026151786 0 0,0 -0.46981495687049624,0.0 l 0.0541605437727905 -6.292384942019094" fill="#ff4f07" stroke="none" /><path d="M 99.81925306533755 120.99922214144158 l -0.08026688271767421 9.325425650715973 a30.325771085518486,30.325771085518486 0 0,0 -0.5219502907330364,-0.008985847600316276 l 0.24077686334337858 -9.322662325836497" fill="#ff780b" stroke="none" /><path d="M 98.01472825383883 120.90594882070398 l -0.9848416256398802 10.370896912192645 a31.417553253567746,31.417553253567746 0 0,0 -0.5379394306852785,-0.055759621492154236 l 1.163213652930752 -10.35240792224473" fill="#ff870c" stroke="none" /><path d="M 97.65516085044442 120.86867818915974 l -0.675502303425478 6.011858079431252 a27.04968932501132,27.04968932501132 0 0,0 -0.4622567482726732,-0.05597285465533092 l 0.7788864747495405 -5.999339696050572" fill="#ff4b07" stroke="none" /><path d="M 96.93821686468263 120.77559828337769 l -3.508509659898233 23.806841976037074 a45.063984809370204,45.063984809370204 0 0,0 -0.7664399627046482,-0.119702159540523 l 3.9177854862113985 -23.742921509149443" fill="#ceff1d" stroke="none" /><path d="M 94.46302465271185 120.25689768951611 l -2.3310709895593007 8.528169908798482 a29.84101656777663,29.84101656777663 0 0,0 -0.49432188457158666,-0.13970030222777602 l 2.477524042235501 -8.486780813232185" fill="#ff720a" stroke="none" /><path d="M 93.76903079525671 120.05430185196036 l -4.454521516307684 14.336825646013901 a36.01290549971757,36.01290549971757 0 0,0 -0.5904035554671353,-0.1890285741308031 l 4.70064641686576 -14.25802422522339" fill="#ffc312" stroke="none" /><path d="M 93.08242187328487 119.8279376855182 l -4.9931644115806275 14.31196742455597 a36.15797157942403,36.15797157942403 0 0,0 -0.5858976407516316,-0.21008204873394506 l 5.238781612961986 -14.223897834782068" fill="#ffc412" stroke="none" /><path d="M 92.7421414339146 119.70592522655815 l -6.105563275747183 16.577310274425336 a38.66593102128276,38.66593102128276 0 0,0 -0.6225763200154508,-0.23540509249177216 l 6.390009816522917 -16.469756931826932" fill="#ffe415" stroke="none" /><path d="M 91.07499286063937 119.00905698771935 l -4.847223703908115 10.323930298437183 a32.40522312112823,32.40522312112823 0 0,0 -0.5028786526572071,-0.24141231316085787 l 5.024215024565565 -10.238963708776764" fill="#ff940d" stroke="none" /><path d="M 90.7491055286396 118.85261126421891 l -3.4461699094484044 7.023029162684328 a28.822980612573584,28.822980612573584 0 0,0 -0.4435254073280337,-0.2223928466706964 l 3.5665492244591985 -6.96266847510433" fill="#ff6409" stroke="none" /><path d="M 90.42595943632237 118.69057910512821 l -6.04544809190015 11.802010346215072 a34.260274915854,34.260274915854 0 0,0 -0.5225656065472064,-0.27338162736968563 l 6.247704600973852 -11.69619929990067" fill="#ffac0f" stroke="none" /><line stroke="#e1ed5e" stroke-width="0.3" x1="58.666819895761336" x2="56.23545636021788" y1="174.27360380694188" y2="178.64263932499728" /><path d="M 58.180547188652646 175.14741091055294 a86.0,86.0 0 0,1 -31.652253787137756,-30.449443065178592" fill="none" id="id44" stroke="none" /><text fill="#e1ed5e" style="font-size:6.75px; font-family:Arial;" text-anchor="middle"><textPath startOffset="22.20632615414155" xlink:href="#id44">August</textPath></text><path d="M 88.24862548938628 117.40417183066458 l -2.044123977420547 3.027414785740733 a24.65290064469145,24.65290064469145 0 0,0 -0.3496522252903456,-0.24049398885390855 l 2.095933087333783 -2.9917800075217236" fill="#ff2a04" stroke="none" /><path d="M 87.95078237400918 117.19931262002967 l -1.0232871657012246 1.4606621283854702 a22.783437825321762,22.783437825321762 0 0,0 -0.31926395855458,-0.22778635744484602 l 1.0482784521046915 -1.4428315090964048" fill="#ff0f01" stroke="none" /><path d="M 86.24171649860922 115.8653595955263 l -4.689956071276363 5.4082211309644554 a28.15852944059829,28.15852944059829 0 0,0 -0.3634564159894834,-0.32070802875784804 l 4.782354840172434 -5.326689960434319" fill="#ff5b08" stroke="none" /><path d="M 85.97065885151581 115.62618273729859 l -7.858532716536059 8.75300322202941 a32.763145916876354,32.763145916876354 0 0,0 -0.416404686004642,-0.3803758078054259 l 8.008036952007556 -8.616434647637409" fill="#ff990e" stroke="none" /><path d="M 85.18274418774928 114.88116024355367 l -6.369899613840579 6.397371962124038 a30.0278452086961,30.0278452086961 0 0,0 -0.363135847625222,-0.36785469643877255 l 6.479076086521333 -6.2867767717046" fill="#ff740a" stroke="none" /><path d="M 83.95833913139862 113.55231037782056 l -1.1533002423166672 0.9743307111848856 a22.509775408359047,22.509775408359047 0 0,0 -0.247504627775629,-0.29813526832059806 l 1.1699008699858326 -0.9543341857505263" fill="#ff0b01" stroke="none" /><path d="M 83.50135304334701 112.99209946851258 l -3.4930740536275215 2.7506719596366067 a25.44609520519488,25.44609520519488 0 0,0 -0.26802394227662396,-0.34645707538354586 l 3.539904813122214 -2.6901368901398084" fill="#ff3505" stroke="none" /><path d="M 82.6465618267979 111.8261652097733 l -10.050988966159988 6.8496314591406025 a33.16305185074529,33.16305185074529 0 0,0 -0.317412877957273,-0.4744891854012997 l 10.16740494952799 -6.675605359533482" fill="#ff9e0e" stroke="none" /><path d="M 82.05923443525364 110.91462005526583 l -12.574222789974351 7.64977747173271 a35.71836180214835,35.71836180214835 0 0,0 -0.31503446164226867,-0.5280158784608212 l 12.704038127314853 -7.432199499385778" fill="#ffbf11" stroke="none" /><line stroke="#e1ed5e" stroke-width="0.3" x1="26.63291911575756" x2="22.317208475507996" y1="142.92168965132927" y2="145.44649492493687" /><path d="M 25.769776987707644 143.4266507060508 a86.0,86.0 0 0,1 -11.730757126820373,-40.83630448921669" fill="none" id="id45" stroke="none" /><text fill="#e1ed5e" style="font-size:6.75px; font-family:Arial;" text-anchor="middle"><textPath startOffset="21.46611528233685" xlink:href="#id45">September</textPath></text><path d="M 81.69416730710424 110.29060199501025 l -7.819701451592494 4.395835835939402 a29.970568738300088,29.970568738300088 0 0,0 -0.2489321052435444,-0.4518840782347801 l 7.894209966287555 -4.260581239306799" fill="#ff730a" stroke="none" /><path d="M 81.18737489456691 109.33194174019688 l -6.129926645120221 3.040730254462035 a27.842663308606934,27.842663308606934 0 0,0 -0.20927970144935518,-0.43117817158567234 l 6.181359603184294 -2.934763126911078" fill="#ff5608" stroke="none" /><path d="M 80.87730276802145 108.67885076344099 l -2.697862452077305 1.2244269371537464 a23.962715500137715,23.962715500137715 0 0,0 -0.16723569479014902,-0.3770723428177509 l 2.7185392315987342 -1.1778062578432997" fill="#ff2003" stroke="none" /><path d="M 80.45479744820244 107.68017299344265 l -3.580092117234323 1.4067762521238851 a24.84656716975319,24.84656716975319 0 0,0 -0.15299063178634295,-0.399410262933602 l 3.603777028614175 -1.3449424223571254" fill="#ff2d04" stroke="none" /><path d="M 79.86692584326677 105.97154293290107 l -6.494133783669552 1.9261836716682739 a27.773769787732654,27.773769787732654 0 0,0 -0.13200127267838024,-0.4595137471335245 l 6.526327693234037 -1.8141124490301535" fill="#ff5607" stroke="none" /><path d="M 79.58551787078972 104.9243191809786 l -4.727897083019336 1.1404489295514413 a25.86350024041716,25.86350024041716 0 0,0 -0.10066989870031663,-0.4336832888249318 l 4.7468275476502075 -1.0588969833779354" fill="#ff3b05" stroke="none" /><path d="M 79.04373962182676 101.35467743843564 l -6.934727885295335 0.4482822430324757 a27.949201955081673,27.949201955081673 0 0,0 -0.026902636252073134,-0.48036464244961236 l 6.9414168724349405 -0.3288458842474257" fill="#ff5808" stroke="none" /><line stroke="#e1ed5e" stroke-width="0.3" x1="15.007084014347285" x2="10.007500721073583" y1="101.09737516637583" y2="101.16192664675087" /><path d="M 14.007167355692545 101.11028546245083 a86.0,86.0 0 0,1 10.666146001902534,-42.60595125391555" fill="none" id="id46" stroke="none" /><text fill="#e1ed5e" style="font-size:6.75px; font-family:Arial;" text-anchor="middle"><textPath startOffset="22.20632615414155" xlink:href="#id46">October</textPath></text><path d="M 79.03285615573316 98.82574320788736 l -0.7377765228030371 -0.0413188891819237 a21.73893264118089,21.73893264118089 0 0,0 0.02413995530415284,-0.3734344239581115 l 0.7369559764944711 0.054012377393046956" fill="#ff0000" stroke="none" /><path d="M 79.16333360222342 97.38593545837743 l -4.92503598734717 -0.6178705218466756 a25.963642156565257,25.963642156565257 0 0,0 0.05944932351992135,-0.4429665122806715 l 4.913670664769414 0.7025553761920065" fill="#ff3c05" stroke="none" /><path d="M 79.54389044137918 95.25157060432595 l -10.102765154870445 -2.345131507117946 a31.37137915419843,31.37137915419843 0 0,0 0.1266316172789357,-0.5249698065713271 l 10.060900737330694 2.5186865453486704" fill="#ff860c" stroke="none" /><path d="M 79.71946130924805 94.55025226153421 l -14.252879436303028 -3.830006621571548 a35.758506799370714,35.758506799370714 0 0,0 0.16485221537961076,-0.5930611297541765 l 14.184840450357056 4.074779054744667" fill="#ffbf11" stroke="none" /><path d="M 79.91906864156998 93.8553929516997 l -5.530198558407471 -1.6921972608718407 a26.783305946006507,26.783305946006507 0 0,0 0.13869226896126985,-0.4396923936874365 l 5.500250805677997 1.7871398209856917" fill="#ff4806" stroke="none" /><path d="M 80.2630227832202 92.82701384747504 l -16.896707604440763 -6.14075034584709 a38.97797382020531,38.97797382020531 0 0,0 0.2346017638275065,-0.6286160903990281 l 16.788501252111626 6.43068957327546" fill="#ffe815" stroke="none" /><path d="M 80.38941819471856 92.48833698450439 l -11.141822576647913 -4.267778355850728 a32.93122552063153,32.93122552063153 0 0,0 0.20732002019657872,-0.527606837924691 l 11.066709006569644 4.458934198671183" fill="#ff9b0e" stroke="none" /><path d="M 80.52162464483688 92.15188598940014 l -15.064208375713537 -6.069583456337648 a37.241004196796624,37.241004196796624 0 0,0 0.24468813989228355,-0.5925317392383195 l 14.957498548935053 6.327989766029279" fill="#ffd213" stroke="none" /><path d="M 80.803312248108 91.48605970444005 l -21.567070175677063 -9.565230741838187 a44.59305311118477,44.59305311118477 0 0,0 0.31724280068291466,-0.6990024591780306 l 21.399225058030797 9.935055209858287" fill="#d3ff1c" stroke="none" /><path d="M 80.95270993114464 91.15688171328213 l -15.361424124731531 -7.131874933199142 a37.9362626102301,37.9362626102301 0 0,0 0.28008127018970025,-0.5899225846487209 l 15.23638466070008 7.395239933488395" fill="#ffdb14" stroke="none" /><path d="M 81.26839172434947 90.50648371742162 l -20.229098095129988 -10.252471081067508 a43.678835353926736,43.678835353926736 0 0,0 0.3456671622083398,-0.6677189337385769 l 20.049621499761532 10.59916273706642" fill="#deff1b" stroke="none" /><line stroke="#e1ed5e" stroke-width="0.3" x1="26.266209847984243" x2="21.928928074336255" y1="57.711370442889674" y2="55.22380399835377" /><path d="M 25.398753493254645 57.213857153982495 a86.0,86.0 0 0,1 29.58750427330803,-30.492523968695096" fill="none" id="id47" stroke="none" /><text fill="#e1ed5e" style="font-size:6.75px; font-family:Arial;" text-anchor="middle"><textPath startOffset="21.46611528233685" xlink:href="#id47">November</textPath></text><path d="M 81.96595687620814 89.24020034530311 l -2.9271613216963654 -1.7464563637911679 a24.408574956468154,24.408574956468154 0 0,0 0.2183802676508122,-0.3589597407927665 l 2.8966652557593364 1.7965838777910088" fill="#ff2603" stroke="none" /><path d="M 82.15384107792192 88.93136811851018 l -16.290157081894094 -10.103560817676172 a40.16901559677141,40.16901559677141 0 0,0 0.36950215710770234,-0.5844636764094223 l 16.11382732854043 10.382472141799811" fill="#fff617" stroke="none" /><path d="M 82.34701348167596 88.62581576622439 l -4.232667169570657 -2.7271949784234493 a26.035182600333314,26.035182600333314 0 0,0 0.24597465842747906,-0.3746362801363657 l 4.185095875785258 2.7996493225374817" fill="#ff3d05" stroke="none" /><path d="M 82.54541684631803 88.32363383020206 l -19.037535585073407 -12.735293332684638 a43.904485530621685,43.904485530621685 0 0,0 0.4256132905445413,-0.6245349859525113 l 18.815497828860128 13.061106341907564" fill="#dbff1b" stroke="none" /><path d="M 83.17141714833178 87.43820079747576 l -11.890114854805994 -8.875449383797479 a35.83739980673262,35.83739980673262 0 0,0 0.37326197988287124,-0.4911690122483811 l 11.735576934699015 9.078803171926886" fill="#ffc011" stroke="none" /><path d="M 83.6137871275137 86.86637796730984 l -10.473614321962279 -8.394648164969885 a34.42261952000598,34.42261952000598 0 0,0 0.3745533555715225,-0.4591581262434054 l 10.327562474314362 8.573690460821371" fill="#ffae10" stroke="none" /><path d="M 83.84228863543731 86.58626213691792 l -28.324778563076237 -23.51454027754471 a57.813403606724215,57.813403606724215 0 0,0 0.6422501647444748,-0.7602216189274611 l 27.915817784844638 23.99862084610129" fill="#45ff2d" stroke="none" /><path d="M 84.31358615837235 86.03803664274999 l -13.195957376070918 -11.745289599564584 a38.66593102128276,38.66593102128276 0 0,0 0.44678733589598113,-0.49335373546572975 l 12.991826399558892 11.97069612229987" fill="#ffe415" stroke="none" /><path d="M 84.80347519578584 85.50635884689758 l -1.89585002109051 -1.8081614211011992 a23.61986545975697,23.61986545975697 0 0,0 0.28314115346405727,-0.291801847454757 l 1.8644446039233344 1.8405274641060798" fill="#ff1b02" stroke="none" /><path d="M 85.05521093208273 85.24692304244772 l -12.13657577743606 -11.980887494093757 a38.05397715336748,38.05397715336748 0 0,0 0.46419364799732016,-0.4622002529525642 l 11.928546329271427 12.18802359769643" fill="#ffdc14" stroke="none" /><path d="M 85.31137513191541 84.99185889309783 l -30.987086980885937 -31.661137654312746 a65.30154847323433,65.30154847323433 0 0,0 0.8101022664444211,-0.7793177384763401 l 30.43750147082909 32.189838479551405" fill="#36ff6d" stroke="none" /><path d="M 85.83668400450813 84.49514656593479 l -11.188445066430498 -12.248205220113103 a37.589148082964925,37.589148082964925 0 0,0 0.48147941999740573,-0.4322769772168759 l 10.975954658837122 12.438981206099257" fill="#ffd714" stroke="none" /><path d="M 86.37877921826538 84.01681056812374 l -5.159678575245443 -6.054385388593581 a28.954738552175193,28.954738552175193 0 0,0 0.3821232170978493,-0.3200172050440297 l 5.0546978211884825 6.142303751031423" fill="#ff6609" stroke="none" /><path d="M 86.93701828274178 83.55741782278169 l -19.37740770329639 -24.39065026953032 a52.15104733183637,52.15104733183637 0 0,0 0.7076833668530125,-0.5523580929163356 l 18.95469178128395 24.720586751669877" fill="#7fff26" stroke="none" /><path d="M 87.51073957382395 83.11751280151077 l -10.502771232761807 -14.197229846703724 a38.659828393499865,38.659828393499865 0 0,0 0.5383927563160995,-0.39116523423367433 l 10.256833160091926 14.375914315754066" fill="#ffe415" stroke="none" /><path d="M 88.09926311788651 82.69761687909137 l -10.013314157415588 -14.558274800783101 a38.6694602518078,38.6694602518078 0 0,0 0.5516756552987871,-0.3724938650848079 l 9.76123380771026 14.728480578166575" fill="#ffe415" stroke="none" /><path d="M 88.70189139769569 82.29822771554957 l -8.082717031485922 -12.663926447107372 a36.0234931912927,36.0234931912927 0 0,0 0.5255670656410009,-0.32911004828878093 l 7.8635308134726785 12.801180836719084" fill="#ffc312" stroke="none" /><line stroke="#e1ed5e" stroke-width="0.3" x1="56.762969772571076" x2="54.21961505331055" y1="26.818313649435495" y2="22.513508569990535" /><path d="M 56.25429882871897 25.957352633546506 a86.0,86.0 0 0,1 42.265352541879196,-11.944610805530505" fill="none" id="id48" stroke="none" /><text fill="#e1ed5e" style="font-size:6.75px; font-family:Arial;" text-anchor="middle"><textPath startOffset="22.20632615414155" xlink:href="#id48">December</textPath></text><path d="M 89.3179101791058 81.91981866633112 l -15.050912512731578 -25.474718152537797 a50.58870109378137,50.58870109378137 0 0,0 0.7535386191652402,-0.43649820577289317 l 14.610177161101019 25.730020515700737" fill="#90ff24" stroke="none" /><path d="M 89.94658935756843 81.56283822128135 l -4.682762106847431 -8.587816175617547 a30.78155650270061,30.78155650270061 0 0,0 0.46737389364071164,-0.24965494779992015 l 4.534243166678414 8.667149849919218" fill="#ff7e0b" stroke="none" /><path d="M 90.91171255644093 81.06846463323043 l -3.38088569521926 -7.042620241441612 a28.8120988184547,28.8120988184547 0 0,0 0.448949833885104,-0.21078796676910022 l 3.2591576500345476 7.09977319085072" fill="#ff6409" stroke="none" /><path d="M 91.56875222667455 80.76684994638697 l -25.293743319976343 -57.69945016083907 a84.0,84.0 0 0,0 1.329264968838767,-0.5691218881488553 l 24.29679459334727 58.12629157695071" fill="#4dd2ff" stroke="none" /><path d="M 92.91201910852362 80.23233633223022 l -1.6337751119554644 -4.556433971308508 a25.84048671636844,25.84048671636844 0 0,0 0.41999157809810345,-0.146526814847619 l 1.5551015297940758 4.583881639328337" fill="#ff3b05" stroke="none" /><path d="M 93.94186890950719 79.89281104454417 l -2.4359817769117957 -8.085124793235218 a29.444125184981164,29.444125184981164 0 0,0 0.48654283189355435,-0.14203519451264848 l 2.29644872729482 8.125858316666566" fill="#ff6c0a" stroke="none" /><path d="M 94.63758080256005 79.69619591428918 l -3.0148353287202165 -11.415113890058825 a32.80652604208001,32.80652604208001 0 0,0 0.5472302126507007,-0.13950116579361468 l 2.8178962273845167 11.465318052021303" fill="#ff990e" stroke="none" /><path d="M 96.04723909329186 79.375362276772 l -2.891525859507396 -15.087346471798355 a36.361931693517135,36.361931693517135 0 0,0 0.6157371579208585,-0.11252202991717242 l 2.6313935804836444 15.134883983066263" fill="#ffc712" stroke="none" /><path d="M 97.47563105711357 79.15227682838746 l -1.139098343671003 -9.407343962543695 a30.47605748537657,30.47605748537657 0 0,0 0.5213340283094838,-0.05857795249392643 l 0.9769976118518012 9.425557868508221" fill="#ff7a0b" stroke="none" /><path d="M 98.55514903715128 79.0497635885617 l -0.6082884540047325 -8.82013940913421 a29.841090093412568,29.841090093412568 0 0,0 0.5127522766523436,-0.030930617593396107 l 0.456374128512766 8.829303296107913" fill="#ff720a" stroke="none" /><path d="M 99.27714615592234 79.0124445844662 l -0.6029951734781385 -17.507542807384144 a38.517923916138756,38.517923916138756 0 0,0 0.6628262748039383,-0.017118847150195224 l 0.30154226347932117 17.515328446676698" fill="#ffe215" stroke="none" /></svg>