<?xml version="1.0" encoding="utf-8" ?>
<svg baseProfile="full" height="200mm" version="1.1" viewBox="0,0,200,200" width="200mm" xmlns="http://www.w3.org/2000/svg" xmlns:ev="http://www.w3.org/2001/xml-events" xmlns:xlink="http://www.w3.org/1999/xlink"><defs /><rect fill="#1a1a1a" height="200" width="200" x="0" y="0" /><text alignment-baseline="middle" fill="#e1ed5e" style="dominant-baseline: central; font-size:9.0px; font-family:Arial;" text-anchor="middle" x="100.0" y="100.0">2022</text><line stroke="#e1ed5e" stroke-width="0.3" x1="100.0" x2="100.0" y1="15.0" y2="10.0" /><path d="M 100.0 14.0 a86.0,86.0 0 0,1 42.46469731375804,11.215312516191453" fill="none" id="id73" stroke="none" /><text fill="#e1ed5e" style="font-size:6.75px; font-family:Arial;" text-anchor="middle"><textPath startOffset="22.20632615414155" xlink:href="#id73">January</textPath></text><path d="M 100.36148047927253 79.00311137660856 l 0.03664861019272177 -2.1287644300109454 a23.129079876169254,23.129079876169254 0 0,0 0.3980111152237121,0.010279452859059731 l -0.07328636061130164 2.1278181850095264" fill="#ff0000" stroke="none" /><path d="M 102.52436894288641 79.15227682838746 l 1.340484675707083 -11.070510716621353 a32.15137241296486,32.15137241296486 0 0,0 0.5488473080146217,0.07125613260350958 l -1.5308467122295508 11.045796260853706" fill="#ff810b" stroke="none" /><path d="M 102.88285421437855 79.19881850522331 l 1.7313483938473286 -12.492512452237104 a33.61191637421438,33.61191637421438 0 0,0 0.5724125677455737,0.08435873289720681 l -1.946129942021558 12.460859235178928" fill="#ff950d" stroke="none" /><path d="M 103.59715602781102 79.31037775812273 l 2.522925603104828 -14.511012941621958 a35.72870157857514,35.72870157857514 0 0,0 0.605014314190467,0.110562498764134 l -2.772335038398196 14.465434961507087" fill="#ffb110" stroke="none" /><path d="M 104.307194497241 79.44645832069477 l 3.46624955807961 -16.540628664087052 a37.89991960342135,37.89991960342135 0 0,0 0.6373634458068852,0.13930296269694456 l -3.750455728040023 16.478512203294237" fill="#ffcd13" stroke="none" /><path d="M 105.01212808612495 79.60689891045804 l 4.542205547526115 -18.48110329754033 a40.03110113289121,40.03110113289121 0 0,0 0.6677399477620293,0.17022178053467737 l -4.85965438397317 18.400178520836786" fill="#ffe815" stroke="none" /><path d="M 105.71112130821622 79.79150937346287 l 5.83584561014786 -20.64982075252498 a42.45861577774516,42.45861577774516 0 0,0 0.7015978579428576,0.20481565381353745 l -6.190433685814145 20.54630676979274" fill="#f7ff18" stroke="none" /><path d="M 106.40334571778207 80.00007090966166 l 7.069636392967214 -22.080992154019402 a44.18512396418516,44.18512396418516 0 0,0 0.7223577170596656,0.23814998212619481 l -7.448676932269297 21.956028447633972" fill="#e2ff1b" stroke="none" /><path d="M 107.08798089147638 80.2323363322302 l 7.079728715327392 -19.74464918097334 a41.975550766603064,41.975550766603064 0 0,0 0.6780404145458208,0.24972800689567184 l -7.418551455645789 19.619857906271342" fill="#fdff18" stroke="none" /><path d="M 107.76421540070413 80.48803036053334 l 12.165847235066034 -30.57355181921794 a53.90516539677879,53.90516539677879 0 0,0 0.8591870652765596,0.3504839768287506 l -12.69031816993098 30.359606956205607" fill="#74ff27" stroke="none" /><path d="M 108.43124777332544 80.76684994638697 l 9.28348827970928 -21.177259630478503 a44.122704861157445,44.122704861157445 0 0,0 0.6929741449915451,0.3109172991462247 l -9.646644543167605 21.01432200081575" fill="#e3ff1b" stroke="none" /><path d="M 109.41281617654863 81.2277094730956 l 12.238994105672848 -24.408630615901874 a48.30520509467448,48.30520509467448 0 0,0 0.7400806254326536,0.3790980412340492 l -12.657335218694257 24.194340049355326" fill="#b2ff20" stroke="none" /><line stroke="#e1ed5e" stroke-width="0.3" x1="143.23703022742887" x2="145.7803849466894" y1="26.81831364943548" y2="22.513508569990506" /><path d="M 143.74570117128098 25.957352633546492 a86.0,86.0 0 0,1 28.547481713284135,27.462654790039103" fill="none" id="id74" stroke="none" /><text fill="#e1ed5e" style="font-size:6.75px; font-family:Arial;" text-anchor="middle"><textPath startOffset="19.985693538727396" xlink:href="#id74">February</textPath></text><path d="M 111.2981086023043 82.29822771554956 l 9.028811855895649 -14.146259086199084 a37.78201685325789,37.78201685325789 0 0,0 0.5451998542338663,0.3546131509142845 l -9.270978735913795 13.988747011125271" fill="#ffcc13" stroke="none" /><path d="M 111.60114157652 82.49532879139004 l 11.614280537720255 -17.52449625723263 a42.023783709851756,42.023783709851756 0 0,0 0.5995299201307821,0.4048052783162005 l -11.91421515225758 17.32197906661776" fill="#fdff18" stroke="none" /><path d="M 112.19680574252982 82.90503203632743 l 14.641220343996187 -20.52104444501642 a46.20870084466447,46.20870084466447 0 0,0 0.6435214755823221,0.4675457196953176 l -14.992287135932298 20.265979490504428" fill="#caff1d" stroke="none" /><path d="M 113.06298171725822 83.55741782278167 l 16.96530804663318 -21.354502192255897 a48.273365047170444,48.273365047170444 0 0,0 0.6461656597435854,0.5224876923697487 l -17.330377104941256 21.05930840262202" fill="#b2ff20" stroke="none" /><path d="M 113.34407831869373 83.78471172551755 l 16.275632066567304 -19.77761667054082 a46.61347927035935,46.61347927035935 0 0,0 0.6151702121853578,0.5151873613570285 l -16.61365981571178 19.49452815178997" fill="#c6ff1e" stroke="none" /><path d="M 114.16331599549186 84.49514656593476 l 21.241997355256853 -23.25402156845836 a52.49558652806875,52.49558652806875 0 0,0 0.6619246403903836,0.6151868140895049 l -21.63912987944208 22.884930168294215" fill="#83ff25" stroke="none" /><path d="M 114.68862486808459 84.99185889309783 l 17.613692978958063 -17.99683714547243 a46.18190476508187,46.18190476508187 0 0,0 0.5633405086141006,0.5609213454410875 l -17.920869287739485 17.690979949381227" fill="#cbff1d" stroke="none" /><path d="M 115.19652480421416 85.50635884689758 l 16.285706078211508 -15.532444612405081 a43.50513403877717,43.50513403877717 0 0,0 0.5121852760209928,0.5463635413735757 l -16.550658676202964 15.24981165415345" fill="#ebff1a" stroke="none" /><path d="M 115.4437574822437 85.77008943001954 l 20.06347929565461 -18.48653194846347 a48.281771660372826,48.281771660372826 0 0,0 0.5578989969387588,0.6160460067659512 l -20.378721933209405 18.138433154427968" fill="#b2ff20" stroke="none" /><path d="M 115.9244219780498 86.31012108654704 l 14.4253384863744 -12.4011494694279 a40.02311485034894,40.02311485034894 0 0,0 0.4446175195129787,0.5262869035185838 l -14.636666619374495 12.151003616280208" fill="#ffe815" stroke="none" /><path d="M 116.38621287248628 86.86637796730983 l 10.676642849673941 -8.557376427172313 a34.682813813533315,34.682813813533315 0 0,0 0.3693652277579058,0.46905632962638516 l -10.822362158025811 8.37232770359289" fill="#ffa30f" stroke="none" /><path d="M 117.04232023915458 87.72973835380427 l 22.130416252296577 -15.933628399437476 a48.269687153894395,48.269687153894395 0 0,0 0.4796797407158281,0.6784729754811664 l -22.40140861281629 15.550328923624516" fill="#b2ff20" stroke="none" /><line stroke="#e1ed5e" stroke-width="0.3" x1="172.23445277983987" x2="176.4835382374775" y1="55.19839476539836" y2="52.563006222186495" /><path d="M 173.08426987136738 54.67131705675599 a86.0,86.0 0 0,1 12.851231095245387,41.99856678651699" fill="none" id="id75" stroke="none" /><text fill="#e1ed5e" style="font-size:6.75px; font-family:Arial;" text-anchor="middle"><textPath startOffset="22.20632615414155" xlink:href="#id75">March</textPath></text><path d="M 117.84615892207809 88.93136811851018 l 14.475699356504736 -8.978188981946627 a38.03390000133438,38.03390000133438 0 0,0 0.34028423522915696,0.5593378110014897 l -14.628099390020116 8.727683397738055" fill="#ffcf13" stroke="none" /><path d="M 118.03404312379186 89.2402003453031 l 21.750476764830285 -12.977166061833515 a46.32765442147823,46.32765442147823 0 0,0 0.4026983390058484,0.6883419979454903 l -21.97063477830646 12.60084465153413" fill="#c9ff1d" stroke="none" /><path d="M 118.56541770881063 90.18545643968196 l 9.445810586221523 -4.993494943934852 a31.68449013223736,31.68449013223736 0 0,0 0.2507458750052013,0.48436121970100604 l -9.53036589438684 4.830161001973502" fill="#ff7a0b" stroke="none" /><path d="M 118.73160827565052 90.50648371742162 l 32.02730462955175 -16.23201454532812 a56.9058008967054,56.9058008967054 0 0,0 0.43530224375822346,0.8775427609136145 l -32.30196688626338 15.678312195915556" fill="#54ff2b" stroke="none" /><path d="M 119.34039704204932 91.81776055985345 l 23.236813083213192 -9.830675557456601 a46.23076820432074,46.23076820432074 0 0,0 0.30375444813273317,0.7355654897401164 l -23.402589218232123 9.429235497263182" fill="#caff1d" stroke="none" /><path d="M 119.7369772167798 92.82701384747503 l 9.961786324980874 -3.620400154424397 a31.59926809089817,31.59926809089817 0 0,0 0.18139021033441263,0.5128145508838018 l -10.022629616125096 3.4483879771139807" fill="#ff790b" stroke="none" /><path d="M 119.85752413597 93.16781622104841 l 19.912109075749424 -6.850964284395387 a42.05772541065639,42.05772541065639 0 0,0 0.2296406006376026,0.6865961666990799 l -20.027086970158795 6.507195014773993" fill="#fcff18" stroke="none" /><path d="M 120.83666639777658 97.38593545837742 l 9.158668701281815 -1.149001027488927 a30.230461296219694,30.230461296219694 0 0,0 0.06033085530777311,0.5168779248445653 l -9.177089909593178 0.9911793643195091" fill="#ff6609" stroke="none" /><path d="M 120.87857604477298 97.74499172005257 l 21.4165529912036 -2.3131129354574766 a42.541105669793566,42.541105669793566 0 0,0 0.0723662176752888,0.728717936205383 l -21.453196334561117 1.9441194685476588" fill="#f6ff19" stroke="none" /><path d="M 120.94382443527127 98.46500227214037 l 26.514377010711204 -1.943270131624757 a47.58549392188522,47.58549392188522 0 0,0 0.052841218810540054,0.8174302669220179 l -26.54389882052616 1.4865808004497039" fill="#baff1f" stroke="none" /><path d="M 120.98425023603335 99.18683210126433 l 27.46974328887714 -1.064489470806411 a48.49036075045703,48.49036075045703 0 0,0 0.02514180303842725,0.8343340429176785 l -27.48399678637121 0.5914852804637334" fill="#b0ff20" stroke="none" /><line stroke="#e1ed5e" stroke-width="0.3" x1="184.98032266829074" x2="189.97916517819016" y1="98.17113171792111" y2="98.06355123074" /><path d="M 185.9800911702706 98.14961562048488 a86.0,86.0 0 0,1 -9.607161424134198,41.387399972396054" fill="none" id="id76" stroke="none" /><text fill="#e1ed5e" style="font-size:6.75px; font-family:Arial;" text-anchor="middle"><textPath startOffset="21.466115282336823" xlink:href="#id76">April</textPath></text><path d="M 120.99513854157772 99.54816195383933 l 20.996434261087117 -0.45186593144326953 a42.00129601953537,42.00129601953537 0 0,0 0.009334273789042558,0.7229497916919736 l -21.001101541993876 0.09037988169083319" fill="#fdff18" stroke="none" /><path d="M 120.99824983174949 100.27111621757518 l 31.47562444881332 0.4063935001609755 a52.47824788833883,52.47824788833883 0 0,0 -0.01943678678457806,0.9031511064922167 l -31.463965599343734 -0.9481344224433071" fill="#83ff25" stroke="none" /><path d="M 120.9764740272857 100.99374915477107 l 31.27671882880734 1.4817177023988783 a52.31179694693158,52.31179694693158 0 0,0 -0.050352967044194806,0.8990860517840884 l -31.246579510875616 -2.0198754705183903" fill="#85ff25" stroke="none" /><path d="M 120.92983693683757 101.71520430193887 l 20.916570937524778 1.7141171506552992 a41.98668952909622,41.98668952909622 0 0,0 -0.06523012842265989,0.7198090316051187 l -20.883966212825044 -2.0739075708089882" fill="#fdff18" stroke="none" /><path d="M 120.81339534386255 102.79330883721812 l 26.921451020311128 3.6130542760263586 a48.16281808355907,48.16281808355907 0 0,0 -0.11734744252190922,0.8207277396850208 l -26.85526952677262 -4.075927487691788" fill="#b4ff20" stroke="none" /><path d="M 120.70491114924044 103.5080841355445 l 18.628369440460318 3.1562505549577384 a39.89386317236226,39.89386317236226 0 0,0 -0.12054321652952403,0.6760703744694445 l -18.571279781591603 -3.4764396801604014" fill="#ffe715" stroke="none" /><path d="M 120.5718875245553 104.21870165774334 l 19.308225273806706 3.9595609237830978 a40.7100402316489,40.7100402316489 0 0,0 -0.14668401560449093,0.6852588872809364 l -19.23720721947777 -4.291333630480203" fill="#fff116" stroke="none" /><path d="M 120.49622156327973 104.57218783832717 l 24.568676736450975 5.480649427572722 a46.17255240789421,46.17255240789421 0 0,0 -0.17971991920776967,0.7742287082397876 l -24.470696251312653 -5.902746793161074" fill="#cbff1d" stroke="none" /><path d="M 120.32669344350535 105.2749913415812 l 10.782442781116714 2.798157628025748 a32.13960315448152,32.13960315448152 0 0,0 -0.1435751427397046,0.5342965173985357 l -10.732679562035234 -2.9833450785998323" fill="#ff810b" stroke="none" /><path d="M 120.13307415673323 105.97154293290107 l 30.157197748723966 8.944734405215804 a52.455760198022446,52.455760198022446 0 0,0 -0.2642102407994847,0.8634543540349392 l -29.998760735418347 -9.462515731802801" fill="#83ff25" stroke="none" /><path d="M 119.9155931802556 106.66101706037122 l 21.876365326106615 7.316821614963288 a44.06753646201678,44.06753646201678 0 0,0 -0.24679744503222253,0.7173088985868996 l -21.747177050131164 -7.692303216639488" fill="#e4ff1a" stroke="none" /><path d="M 119.79798401119884 107.00284435728193 l 25.70147041995043 9.09099618437865 a48.261911036682186,48.261911036682186 0 0,0 -0.2837702443121113,0.7808138378765184 l -25.54117591463309 -9.532057819261299" fill="#b2ff20" stroke="none" /><path d="M 119.54520255179757 107.68017299344265 l 33.292711365510215 13.082176151935379 a56.77076967214208,56.77076967214208 0 0,0 -0.36521821758581446,0.9064416647199652 l -33.062590533667006 -13.653317184498157" fill="#56ff2b" stroke="none" /><path d="M 119.12269723197855 108.67885076344098 l 19.10540946243361 8.671004696011629 a41.98101506518461,41.98101506518461 0 0,0 -0.30431314779764473,0.6554634473875774 l -18.953321697796135 -8.998588210678037" fill="#fdff18" stroke="none" /><path d="M 118.81262510543309 109.33194174019688 l 22.559033841285075 11.190335657154195 a46.1820098477469,46.1820098477469 0 0,0 -0.35938692767916286,0.7091045033576515 l -22.36306824381964 -11.576994372214541" fill="#cbff1d" stroke="none" /><line stroke="#e1ed5e" stroke-width="0.3" x1="174.80103733775053" x2="179.2010983576182" y1="140.37084112569926" y2="142.7455964860345" /><path d="M 175.68104954172406 140.8457921977663 a86.0,86.0 0 0,1 -30.038265399797805,32.042727171017184" fill="none" id="id77" stroke="none" /><text fill="#e1ed5e" style="font-size:6.75px; font-family:Arial;" text-anchor="middle"><textPath startOffset="22.206326154141568" xlink:href="#id77">May</textPath></text><path d="M 117.94076556474637 110.91462005526583 l 21.517409593155463 13.090542286797005 a46.18652840234317,46.18652840234317 0 0,0 -0.41905556341077727,0.6756509984143722 l -21.288889390076722 -13.45898961657665" fill="#cbff1d" stroke="none" /><path d="M 117.55443506779139 111.5257021239791 l 26.469563406802596 17.379101178729524 a52.66497978409683,52.66497978409683 0 0,0 -0.5040713042957436,0.7535182066294539 l -26.16648899709613 -17.832156299564787" fill="#81ff25" stroke="none" /><path d="M 117.14729908036423 112.12312394758627 l 28.18223620404662 19.924813874218202 a55.51429624638049,55.51429624638049 0 0,0 -0.5583686275848944,0.7755251874151641 l -27.835087784086124 -20.4069726670845" fill="#63ff29" stroke="none" /><path d="M 116.71984013943494 112.70617746262583 l 16.718111062413268 12.704863457270475 a41.997828291589386,41.997828291589386 0 0,0 -0.4423634909402718,0.5718144432389726 l -16.49694075425493 -12.990755894622701" fill="#fdff18" stroke="none" /><path d="M 116.27256486870786 113.27417163493432 l 19.50002783286163 15.906940204439678 a46.165091538677096,46.165091538677096 0 0,0 -0.5076049667410132,0.6114428821807314 l -19.223326866227072 -16.24024434373418" fill="#cbff1d" stroke="none" /><path d="M 115.56566222782051 114.09645910891815 l 11.689668808552574 10.58631081317188 a36.7708063676759,36.7708063676759 0 0,0 -0.42891148098361864,0.46549870156141554 l -11.505710919573234 -10.78596076953463" fill="#ffbf11" stroke="none" /><path d="M 115.07121518719521 114.62390073753431 l 18.110405639853834 17.57288785968111 a46.23476134559186,46.23476134559186 0 0,0 -0.5591310043825235,0.5663967554613725 l -17.805234010415774 -17.882025109123145" fill="#caff1d" stroke="none" /><path d="M 114.55890576462653 115.13401014063108 l 14.56286404787541 15.13812478357173 a42.00570949146662,42.00570949146662 0 0,0 -0.5253997444951529,0.4967982522187334 l -14.300128468989449 -15.386557672536384" fill="#fdff18" stroke="none" /><path d="M 114.29624159901734 115.38237550388516 l 18.81407218132513 20.243440980336768 a48.63632057218345,48.63632057218345 0 0,0 -0.6181455177614189,0.5646612743862908 l -18.462827114096847 -20.564295021309643" fill="#aeff20" stroke="none" /><path d="M 113.75828350139079 115.86535959552629 l 20.64430980968886 23.805978318374926 a52.51050826650298,52.51050826650298 0 0,0 -0.6879739841238723,0.5863063545472037 l -20.23147034898794 -24.157809063145077" fill="#83ff25" stroke="none" /><path d="M 112.92097659922987 116.55440617244103 l 12.909230805461146 16.539357415145325 a41.98090998251958,41.98090998251958 0 0,0 -0.5734817631278845,0.43972136144956564 l -12.622620313839768 -16.75911811842226" fill="#fdff18" stroke="none" /><path d="M 112.34349029814194 116.9893568818739 l 14.790001995923543 20.35669135092173 a46.16225430672129,46.16225430672129 0 0,0 -0.6468709489218195,0.4615252465667874 l -14.43740371915284 -20.608260859332738" fill="#cbff1d" stroke="none" /><path d="M 111.45004920935366 117.60387380957326 l 14.921935419370877 22.94172394496063 a48.3676241977022,48.3676241977022 0 0,0 -0.7018331087997665,0.44794309612026073 l -14.524820508524181 -23.1951814699047" fill="#b1ff20" stroke="none" /><path d="M 111.1453310114006 117.79835938074945 l 7.798894847129316 12.454321286635263 a35.69465479510548,35.69465479510548 0 0,0 -0.5235569584823068,0.3216114457054139 l -7.5833586887147 -12.586721199169055" fill="#ffb010" stroke="none" /><line stroke="#e1ed5e" stroke-width="0.3" x1="143.8653032363475" x2="146.44561519142675" y1="172.8068346515853" y2="177.08958963109032" /><path d="M 144.38136562736335 173.6633856474863 a86.0,86.0 0 0,1 -40.68145358897372,12.25698825130547" fill="none" id="id78" stroke="none" /><text fill="#e1ed5e" style="font-size:6.75px; font-family:Arial;" text-anchor="middle"><textPath startOffset="21.466115282336833" xlink:href="#id78">June</textPath></text><path d="M 109.57404056367764 118.69057910512821 l 9.576691466944155 18.6957542364506 a42.00581457413165,42.00581457413165 0 0,0 -0.646381658773009,0.3241091823719074 l -9.253455900488385 -18.85783125973181" fill="#fdff18" stroke="none" /><path d="M 109.2508944713604 118.85261126421891 l 11.094537092267313 22.609813094777955 a46.18516232769779,46.18516232769779 0 0,0 -0.7167218728071235,0.34407005406390206 l -10.703702551459957 -22.797437425341418" fill="#cbff1d" stroke="none" /><path d="M 108.59647513512805 119.15986991738527 l 10.309997386087481 22.978977506584265 a46.185897906353,46.185897906353 0 0,0 -0.7281521866267244,0.3192005201969171 l -9.912924524803003 -23.153042580075635" fill="#cbff1d" stroke="none" /><path d="M 107.93186726928326 119.44442032107085 l 10.316767153351293 25.290836328191233 a48.31413712120201,48.31413712120201 0 0,0 -0.7727476375350026,0.3074922326688826 l -9.879898439774426 -25.464675405266185" fill="#b2ff20" stroke="none" /><path d="M 107.2578585660854 119.70592522655815 l 12.33514422088465 33.49134286129647 a56.69069668138936,56.69069668138936 0 0,0 -0.9186064369023622,0.32937958582162324 l -11.756818223352553 -33.69870998815804" fill="#56ff2a" stroke="none" /><path d="M 106.57524785965236 119.94407469862006 l 6.575818163105585 19.94580454590714 a42.00182143286052,42.00182143286052 0 0,0 -0.6885871707921776,0.22046386722150185 l -6.231509647222467 -20.05604125978835" fill="#fdff18" stroke="none" /><path d="M 105.88484417918355 120.15858648285463 l 7.6750194952104245 26.290848073611993 a48.38822040004804,48.38822040004804 0 0,0 -0.8015597003838857,0.22652877789192438 l -7.221328626721934 -26.419065644842437" fill="#b1ff20" stroke="none" /><path d="M 105.53697534728816 120.25689768951611 l 6.938886805704788 25.38575870147902 a47.31700771273402,47.31700771273402 0 0,0 -0.7875117339601251,0.20798900652163752 l -6.500884628933165 -25.501439057304243" fill="#bdff1f" stroke="none" /><path d="M 104.83641907484287 120.43548508189849 l 4.825996453306097 20.391446026632003 a41.95474439892716,41.95474439892716 0 0,0 -0.7042000970473573,0.16027364940929933 l -4.474276206865877 -20.47149640961899" fill="#feff18" stroke="none" /><path d="M 103.41894727170886 120.7198165907248 l 4.109234418437618 24.90315781786395 a46.239910396178324,46.239910396178324 0 0,0 -0.7864398887366943,0.12282573666747562 l -3.6799586660924066 -24.970201861878532" fill="#caff1d" stroke="none" /><path d="M 103.06178313531738 120.77559828337769 l 3.9732786017367028 26.960511717974992 a48.251718018174294,48.251718018174294 0 0,0 -0.8227409832582603,0.11402440344668174 l -3.508609027291612 -27.024910686914275" fill="#b3ff20" stroke="none" /><path d="M 102.34483914955558 120.86867818915974 l 3.7443474519682827 33.32406916625217 a54.5337698989872,54.5337698989872 0 0,0 -0.9337412399945892,0.09678609736302882 l -3.1701736153680904 -33.383584632070956" fill="#6dff28" stroke="none" /><path d="M 101.62511606390274 120.93702456842531 l 0.7093686591103159 9.139082046974673 a30.16657103588156,30.16657103588156 0 0,0 -0.5180566140546005,0.035728217234736036 l -0.5519492842767851 -9.149938608725694" fill="#ff6509" stroke="none" /><path d="M 100.90346689309514 120.98055641714683 l 1.0884090049816617 25.275332951844693 a46.29875668859502,46.29875668859502 0 0,0 -0.7965142159217357,0.02743356009987745 l -0.6531744373852738 -25.290323310370663" fill="#c9ff1d" stroke="none" /><line stroke="#e1ed5e" stroke-width="0.3" x1="102.19456741930631" x2="102.32365962044197" y1="184.97166512339345" y2="189.96999836594603" /><path d="M 102.22038585953345 185.97133177190398 a86.0,86.0 0 0,1 -42.740103519485714,-10.115201625700543" fill="none" id="id79" stroke="none" /><text fill="#e1ed5e" style="font-size:6.75px; font-family:Arial;" text-anchor="middle"><textPath startOffset="22.20632615414155" xlink:href="#id79">July</textPath></text><path d="M 99.81925306533755 120.99922214144158 l -0.32562865937932445 37.83161560496933 a58.833016973352365,58.833016973352365 0 0,0 -1.012601138066591,-0.017432846897727165 l 0.9767894873385832 -37.82040528079244" fill="#40ff2d" stroke="none" /><path d="M 99.09653310690486 120.98055641714683 l -1.083038186592871 25.150610331598916 a46.17391848253959,46.17391848253959 0 0,0 -0.7937778809666535,-0.04102924959192982 l 1.5158041359730134 -25.128241275244783" fill="#cbff1d" stroke="none" /><path d="M 98.37488393609728 120.93702456842531 l -1.947860696594731 25.09507361740978 a46.17055583725864,46.17055583725864 0 0,0 -0.7918375256104824,-0.0683230735882159 l 2.379542539946755 -25.057826291542902" fill="#cbff1d" stroke="none" /><path d="M 97.65516085044442 120.86867818915974 l -2.8159635831733905 25.0616072410666 a46.21931419383248,46.21931419383248 0 0,0 -0.7898497328351505,-0.09563980290333246 l 3.2469407390599305 -25.00942190943792" fill="#caff1d" stroke="none" /><path d="M 96.22490169976321 120.6578951692458 l -3.768776329130462 20.623300410118752 a41.964832334770016,41.964832334770016 0 0,0 -0.7094702156148697,-0.1359716553759308 l 4.123214159317026 -20.555371556394352" fill="#fdff18" stroke="none" /><path d="M 95.86986931433489 120.58985236759428 l -4.948505932198348 24.66968101948102 a46.16109839740595,46.16109839740595 0 0,0 -0.7777233696571655,-0.16297949377434742 l 5.3724207632849 -24.580845544980132" fill="#cbff1d" stroke="none" /><path d="M 94.46302465271185 120.25689768951611 l -4.618508384423264 16.89670730920912 a38.516544681816356,38.516544681816356 0 0,0 -0.6380335908147572,-0.1803146659095297 l 4.908673143342635 -16.81470384996107" fill="#ffd513" stroke="none" /><path d="M 93.76903079525671 120.05430185196036 l -7.74305450956458 24.92093080363545 a47.09612395084133,47.09612395084133 0 0,0 -0.7721042954869524,-0.24720341316489777 l 8.170880150142473 -24.783954543810847" fill="#c0ff1e" stroke="none" /><path d="M 93.42475214034765 119.94407469862007 l -6.56913903227844 19.925545372871927 a41.980489651859465,41.980489651859465 0 0,0 -0.6843424873308133,-0.2321661274629149 l 6.91115125254648 -19.80951625851089" fill="#fdff18" stroke="none" /><path d="M 92.40401165467489 119.57807347666478 l -12.515957057845561 32.258912964247536 a55.60183010635033,55.60183010635033 0 0,0 -0.889308707915446,-0.35387428811959487 l 13.069386841802865 -32.03869183172188" fill="#62ff29" stroke="none" /><path d="M 91.7346041902142 119.30500536409082 l -9.093716607219026 21.239666184411647 a44.104525560107284,44.104525560107284 0 0,0 -0.6953379317609827,-0.30481571518582956 l 9.457975213637752 -21.079985915931367" fill="#e3ff1b" stroke="none" /><path d="M 91.40352486487194 119.15986991738527 l -9.444210024806333 21.049305989187847 a44.07089910729774,44.07089910729774 0 0,0 -0.6894619434310654,-0.31649816225633326 l 9.805139964004818 -20.883620756597438" fill="#e4ff1a" stroke="none" /><path d="M 90.7491055286396 118.85261126421891 l -11.087732331752587 22.59594551633705 a46.16971517593841,46.16971517593841 0 0,0 -0.7104553829764022,-0.35623707783618386 l 11.47504162241175 -22.401740597591566" fill="#cbff1d" stroke="none" /><path d="M 90.10565033884886 118.52300852407294 l -5.335421210692225 9.988332325994802 a32.32402323160886,32.32402323160886 0 0,0 -0.48851940963527424,-0.2663797329983056 l 5.50656343219614 -9.89501194123673" fill="#ff830c" stroke="none" /><line stroke="#e1ed5e" stroke-width="0.3" x1="58.666819895761336" x2="56.23545636021788" y1="174.27360380694188" y2="178.64263932499728" /><path d="M 58.180547188652646 175.14741091055294 a86.0,86.0 0 0,1 -31.652253787137756,-30.449443065178592" fill="none" id="id80" stroke="none" /><text fill="#e1ed5e" style="font-size:6.75px; font-family:Arial;" text-anchor="middle"><textPath startOffset="22.20632615414155" xlink:href="#id80">August</textPath></text><path d="M 89.4739219176387 118.17145234162733 l -11.565626789308299 19.966053297204734 a44.0739465045836,44.0739465045836 0 0,0 -0.6532013429906072,-0.3859228670434163 l 11.907596003327289 -19.76401185786757" fill="#e4ff1a" stroke="none" /><path d="M 88.8546689885994 117.79835938074946 l -13.378513078637688 21.364604022086123 a46.2077551006792,46.2077551006792 0 0,0 -0.6704925650350498,-0.4279400782631128 l 13.744287445719662 -21.131149514999205" fill="#caff1d" stroke="none" /><path d="M 87.95078237400918 117.19931262002967 l -16.840401920156946 24.038352220226393 a50.3503239214849,50.3503239214849 0 0,0 -0.7055583030499749,-0.5033971154913346 l 17.25168755105581 -23.74491084289084" fill="#9bff22" stroke="none" /><path d="M 87.36589467227662 116.77436683061367 l -13.886646190475224 18.43737179670563 a44.08193278712587,44.08193278712587 0 0,0 -0.6021828623384502,-0.4617281404465708 l 14.201957781307161 -18.195604314431694" fill="#e4ff1b" stroke="none" /><path d="M 87.07902340077011 116.55440617244103 l -15.525978137982891 19.891944416641667 a46.233815601606594,46.233815601606594 0 0,0 -0.6231492899581932,-0.49506748356865715 l 15.866084920658443 -19.62174301906788" fill="#caff1d" stroke="none" /><path d="M 86.51685102203217 116.09983520530335 l -16.96813844572563 20.26115955281306 a47.42786992434048,47.42786992434048 0 0,0 -0.6213830661237509,-0.5295561295683939 l 17.314386988426435 -19.966079033021714" fill="#bcff1f" stroke="none" /><path d="M 85.70375840098266 115.38237550388516 l -23.27235973099266 25.040439738247798 a55.18517733950708,55.18517733950708 0 0,0 -0.6902461218988772,-0.6526707912460431 l 23.699941687282355 -24.636134310255823" fill="#66ff29" stroke="none" /><path d="M 85.18274418774928 114.88116024355367 l -19.464367862266226 19.548314537323346 a48.586196140964226,48.586196140964226 0 0,0 -0.5875676191851684,-0.5952028961229997 l 19.797976106506926 -19.210371147219682" fill="#afff20" stroke="none" /><path d="M 84.67929136418377 114.36230785411682 l -18.38552500487775 17.2354018640045 a46.20092472745226,46.20092472745226 0 0,0 -0.5389086888527799,-0.5848789459909874 l 18.67948010172626 -16.916371663212168" fill="#caff1d" stroke="none" /><path d="M 84.19399662182784 113.82643327865904 l -24.610419282279206 21.52816952046021 a53.697627133344895,53.697627133344895 0 0,0 -0.6025832405832436,-0.7009404437111915 l 24.977345032433227 -21.101351977587488" fill="#76ff27" stroke="none" /><path d="M 83.50135304334701 112.99209946851258 l -19.779288896639972 15.57548867108581 a46.1757048878451,46.1757048878451 0 0,0 -0.4863691014924596,-0.628697626893674 l 20.044464815350498 -15.232713050078884" fill="#cbff1d" stroke="none" /><path d="M 83.28015986056508 112.70617746262583 l -20.087970624282725 15.265775120310295 a46.23034787366061,46.23034787366061 0 0,0 -0.476037707830759,-0.6377303026097014 l 20.347769598808572 -14.917731938191285" fill="#caff1d" stroke="none" /><path d="M 82.85270091963577 112.12312394758628 l -15.7369674233728 11.126020823369435 a40.272791262459805,40.272791262459805 0 0,0 -0.39532365032820027,-0.5694932029288559 l 15.926151980863134 -10.853486358253567" fill="#ffeb16" stroke="none" /><path d="M 82.6465618267979 111.8261652097733 l -31.182628574462942 21.2505967702739 a58.735185012209605,58.735185012209605 0 0,0 -0.5621709424085878,-0.840369282545739 l 31.54380262228226 -20.710690573522342" fill="#41ff2d" stroke="none" /><path d="M 82.24976979558568 111.22182372390057 l -21.280451392838454 13.453655053785086 a46.17654554916534,46.17654554916534 0 0,0 -0.41896498786186975,-0.6755049617896464 l 21.50888102036828 -13.085353760630175" fill="#cbff1d" stroke="none" /><line stroke="#e1ed5e" stroke-width="0.3" x1="26.63291911575756" x2="22.317208475507996" y1="142.92168965132927" y2="145.44649492493687" /><path d="M 25.769776987707644 143.4266507060508 a86.0,86.0 0 0,1 -11.730757126820373,-40.83630448921669" fill="none" id="id81" stroke="none" /><text fill="#e1ed5e" style="font-size:6.75px; font-family:Arial;" text-anchor="middle"><textPath startOffset="21.46611528233685" xlink:href="#id81">September</textPath></text><path d="M 81.87401531095188 110.60418214915194 l -19.956185252076928 11.674898056330441 a44.120393042526786,44.120393042526786 0 0,0 -0.37785545798433273,-0.65882284052703 l 20.15419270621364 -11.329655369945105" fill="#e3ff1b" stroke="none" /><path d="M 81.69416730710424 110.29060199501025 l -22.136168370283634 12.44382062344137 a46.394066665777075,46.394066665777075 0 0,0 -0.38534379466621643,-0.6995109179905646 l 22.347088574401365 -12.060939187052984" fill="#c8ff1d" stroke="none" /><path d="M 81.35079622478065 109.6543875284942 l -33.41414180236415 17.297954260156434 a58.62610920590865,58.62610920590865 0 0,0 -0.45622651198500885,-0.9001781903668424 l 33.70694698413543 -16.720221858086905" fill="#43ff2d" stroke="none" /><path d="M 81.02952815118164 109.00673069616217 l -23.499567266561606 11.157037923621893 a47.01363405879292,47.01363405879292 0 0,0 -0.3407937361119965,-0.7340393891511839 l 23.688135619513428 -10.750878467191882" fill="#c1ff1e" stroke="none" /><path d="M 80.87730276802145 108.67885076344099 l -21.826797834340187 9.906108889872117 a44.969566058632786,44.969566058632786 0 0,0 -0.31384242007896546,-0.7076318052988956 l 21.994081339150434 -9.528928748080526" fill="#d9ff1c" stroke="none" /><path d="M 80.58989483394504 108.01547362559985 l -23.251022081495258 9.601594255573199 a46.15552901615938,46.15552901615938 0 0,0 -0.29692815750716256,-0.7369513360318085 l 23.41285285325981 -9.199943551698585" fill="#cbff1d" stroke="none" /><path d="M 80.32549172779594 107.34259656027581 l -35.43028037810945 13.222706826246409 a58.81725457359789,58.81725457359789 0 0,0 -0.3458335225770878,-0.9515853245443769 l 35.65263816169176 -12.610873704695914" fill="#41ff2d" stroke="none" /><path d="M 80.0844068197444 106.66101706037122 l -20.974176278751763 7.01507330238636 a43.116223095501795,43.116223095501795 0 0,0 -0.2293531536514147,-0.7058764251921884 l 21.09182168341943 -6.652997977216368" fill="#efff19" stroke="none" /><path d="M 79.97269907076064 106.31721596034903 l -46.455723126145564 14.653539017510951 a69.71201511855993,69.71201511855993 0 0,0 -0.3511268968662628,-1.1475030150252394 l 46.701076795517956 -13.851709029933664" fill="#3bff9b" stroke="none" /><path d="M 79.76711848015287 105.62410040840567 l -16.877282377855558 4.691350098648356 a38.51717517780654,38.51717517780654 0 0,0 -0.1720652522528986,-0.6403188134780161 l 16.95553570645023 -4.400140351994801" fill="#ffd513" stroke="none" /><path d="M 79.58551787078972 104.9243191809786 l -23.681668249454415 5.7124198625395906 a45.360893903203845,45.360893903203845 0 0,0 -0.17656065697771492,-0.7606186892382878 l 23.776489472362687 -5.303932515952728" fill="#d4ff1c" stroke="none" /><path d="M 79.4281124754447 104.21870165774334 l -26.007484698940477 5.333386092170294 a47.548714989124775,47.548714989124775 0 0,0 -0.15752225184354018,-0.8032025684738187 l 26.095436883759685 -4.8849197966285205" fill="#bbff1f" stroke="none" /><path d="M 79.29508885075956 103.50808413554451 l -23.67035831042695 4.010527158166973 a45.00771106603862,45.00771106603862 0 0,0 -0.12284585897710731,-0.7649612811159893 l 23.73588592376535 -3.60248664735777" fill="#d9ff1c" stroke="none" /><path d="M 79.23777060512086 103.15116336523772 l -29.307660865623113 4.448136348177576 a50.64329439158804,50.64329439158804 0 0,0 -0.12339105796149291,-0.862996771993303 l 29.379885974601205 -3.9429941042038723" fill="#97ff23" stroke="none" /><path d="M 79.10278846688536 102.07522291339032 l -27.1563922042834 2.696798434472441 a48.28996810824515,48.28996810824515 0 0,0 -0.07502284310945974,-0.8278708221602115 l 27.198789643669933 -2.2289462237636632" fill="#b2ff20" stroke="none" /><path d="M 79.07016306316243 101.71520430193888 l -25.635251982559616 2.100814001297095 a46.72118900201491,46.72118900201491 0 0,0 -0.058787361748916266,-0.8021068442875465 l 25.66761590297287 -1.6592340205127878" fill="#c4ff1e" stroke="none" /><path d="M 79.0235259727143 100.99374915477108 l -27.35438885530346 1.2958994332831009 a48.38506792009714,48.38506792009714 0 0,0 -0.032251797749102036,-0.8322755922624876 l 27.37264278590376 -0.8248465940066166" fill="#b1ff20" stroke="none" /><line stroke="#e1ed5e" stroke-width="0.3" x1="15.007084014347285" x2="10.007500721073583" y1="101.09737516637583" y2="101.16192664675087" /><path d="M 14.007167355692545 101.11028546245083 a86.0,86.0 0 0,1 10.666146001902534,-42.60595125391555" fill="none" id="id82" stroke="none" /><text fill="#e1ed5e" style="font-size:6.75px; font-family:Arial;" text-anchor="middle"><textPath startOffset="22.20632615414155" xlink:href="#id82">October</textPath></text><path d="M 79.00019446554 99.90962569577889 l -52.43450329607185 -0.22565598261309736 a73.43498885790154,73.43498885790154 0 0,0 0.016320027157641158,-1.2640040886602208 l 52.4228502617965 1.1281963293337902" fill="#40ffc3" stroke="none" /><path d="M 79.01574976396665 99.18683210126434 l -27.268450900352445 -1.0566891202212167 a48.28891728159485,48.28891728159485 0 0,0 0.03933567319043483,-0.8303138906468636 l 27.246221618928512 1.5259141174910895" fill="#b2ff20" stroke="none" /><path d="M 79.03285615573316 98.82574320788736 l -20.54089594729803 -1.1503849432877877 a41.57308415953884,41.57308415953884 0 0,0 0.04616475012972562,-0.7141482515047778 l 20.51805060616389 1.5037922590455772" fill="#fffc17" stroke="none" /><path d="M 79.08570108090925 98.10471618934814 l -23.981737334401753 -2.1732594861072596 a45.08000793957913,45.08000793957913 0 0,0 0.07668511704141519,-0.7722086634240558 l 23.94077509167811 2.585743680235746" fill="#d8ff1c" stroke="none" /><path d="M 79.16333360222342 97.38593545837743 l -56.23676990050958 -7.055185475734052 a77.67759637581563,77.67759637581563 0 0,0 0.17785950558666283,-1.3252599054266394 l 56.10699439586508 8.02216372322535" fill="#45ffef" stroke="none" /><path d="M 79.26566170972629 96.67025291283419 l -16.789464494420855 -2.696236055992007 a38.00458193779106,38.00458193779106 0 0,0 0.10928695032977892,-0.6450177672259202 l 16.740565682570853 2.9848396115337548" fill="#ffcf13" stroke="none" /><path d="M 79.3925641242962 95.95851677861259 l -20.58818712653713 -4.037708200697838 a41.98038456919443,41.98038456919443 0 0,0 0.14517357548448556,-0.7079179114082857 l 20.51563425513765 4.391501768269527" fill="#fdff18" stroke="none" /><path d="M 79.46518482838121 95.60439243477599 l -25.516921221049323 -5.462058997029067 a47.094968041526,47.094968041526 0 0,0 0.17650658708703587,-0.7912444204474941 l 25.419120246960247 5.90048158702652" fill="#c0ff1e" stroke="none" /><path d="M 79.62865764111835 94.90015583598534 l -50.88027565835319 -12.73757380875682 a73.45043600966093,73.45043600966093 0 0,0 0.31759852454297516,-1.2238366716559432 l 50.653480801939914 13.61150690596163" fill="#40ffc4" stroke="none" /><path d="M 79.81627453868168 94.20196356495316 l -24.18328306084674 -6.946961133342839 a46.16130856273602,46.16130856273602 0 0,0 0.22595763342172043,-0.761816810341412 l 24.06011953031331 7.36220733043079" fill="#cbff1d" stroke="none" /><path d="M 79.91906864156998 93.8553929516997 l -24.495716387034562 -7.4954965423827655 a46.61684191564029,46.61684191564029 0 0,0 0.24139647249382956,-0.7652927853401493 l 24.36306443077253 7.916039494149329" fill="#c6ff1e" stroke="none" /><path d="M 80.14247586403 93.16781622104843 l -27.779594106542135 -9.55785277867445 a50.37785557972272,50.37785557972272 0 0,0 0.2891854897878057,-0.8175663217669952 l 27.61095553594452 10.034616726868055" fill="#9aff22" stroke="none" /><path d="M 80.38941819471856 92.48833698450439 l -33.284455825856305 -12.749321682574848 a56.64267390347072,56.64267390347072 0 0,0 0.3565965162850876,-0.9074992381041666 l 33.06006575968953 13.320369925574779" fill="#57ff2a" stroke="none" /><path d="M 80.65960295795068 91.81776055985345 l -20.87097522698326 -8.829773054051469 a43.661917375001664,43.661917375001664 0 0,0 0.29879157870804823,-0.6896521591560607 l 20.71589293843253 9.187724357794128" fill="#e9ff1a" stroke="none" /><path d="M 80.95270993114464 91.15688171328213 l -25.075579079735515 -11.641882446712538 a48.64630342536128,48.64630342536128 0 0,0 0.35915289266620015,-0.7564675873620802 l 24.871467993227565 12.07179244971515" fill="#aeff20" stroke="none" /><path d="M 81.26839172434947 90.50648371742162 l -29.929025068670303 -15.168568690413235 a54.553420357347775,54.553420357347775 0 0,0 0.43172685010677153,-0.8339588585098549 l 29.663488785403416 15.681500271183426" fill="#6dff28" stroke="none" /><path d="M 81.6062741919709 89.86733742301443 l -18.387037492844243 -10.128978144495704 a41.99236399300783,41.99236399300783 0 0,0 0.35422030502039104,-0.6301183976675029 l 18.209959546531422 10.443980052097992" fill="#fdff18" stroke="none" /><line stroke="#e1ed5e" stroke-width="0.3" x1="26.266209847984243" x2="21.928928074336255" y1="57.711370442889674" y2="55.22380399835377" /><path d="M 25.398753493254645 57.213857153982495 a86.0,86.0 0 0,1 29.58750427330803,-30.492523968695096" fill="none" id="id83" stroke="none" /><text fill="#e1ed5e" style="font-size:6.75px; font-family:Arial;" text-anchor="middle"><textPath startOffset="21.46611528233685" xlink:href="#id83">November</textPath></text><path d="M 82.34701348167596 88.62581576622439 l -21.149910740193913 -13.627324817654351 a46.15994248809063,46.15994248809063 0 0,0 0.4361089476820036,-0.6642238470347988 l 20.91220515715399 13.989366728666816" fill="#cbff1d" stroke="none" /><path d="M 82.54541684631803 88.32363383020206 l -3.093727681875919 -2.0695708929378407 a24.722133078021375,24.722133078021375 0 0,0 0.2396581643412719,-0.3516687839065898 l 3.0576450518659066 2.1225177001148463" fill="#ff1802" stroke="none" /><path d="M 82.7489923806493 88.02491185347247 l -34.49672076471194 -23.946501041492212 a62.99355492987817,62.99355492987817 0 0,0 0.6259980927407984,-0.8854299078663811 l 34.07941005216726 24.53675744969038" fill="#32ff4d" stroke="none" /><path d="M 83.17141714833178 87.43820079747576 l -21.49219834470201 -16.04298367881923 a47.81961809957166,47.81961809957166 0 0,0 0.49806195274623805,-0.6553911476481874 l 21.212860451731665 16.410559602348446" fill="#b8ff1f" stroke="none" /><path d="M 83.39014120810768 87.1503855733568 l -20.033213833892326 -15.497968809804908 a46.32817983480338,46.32817983480338 0 0,0 0.4933861130267834,-0.6265502593997713 l 19.76347364027157 15.840511463157727" fill="#c9ff1d" stroke="none" /><path d="M 83.84228863543731 86.58626213691792 l -17.75877279794791 -14.7429000126933 a44.08088196047557,44.08088196047557 0 0,0 0.4896953290240876,-0.5796448117066991 l 17.502366855436698 15.046403774029114" fill="#e4ff1b" stroke="none" /><path d="M 84.31358615837235 86.03803664274999 l -29.78251677249223 -26.508443042649827 a60.870990178940765,60.870990178940765 0 0,0 0.7033682318532498,-0.7766767692661622 l 29.321804900022933 27.017172599185542" fill="#30ff33" stroke="none" /><path d="M 84.80347519578584 85.50635884689758 l -15.207348178754458 -14.503963914962364 a42.01495676598924,42.01495676598924 0 0,0 0.5036507655699024,-0.5190563860719616 l 14.955433149481438 14.763584496584448" fill="#fdff18" stroke="none" /><path d="M 85.05521093208273 85.24692304244772 l -15.576055394687563 -15.376245384836842 a42.88703780307175,42.88703780307175 0 0,0 0.5231487486675268,-0.5209021816846238 l 15.309070845852723 15.642083417171575" fill="#f2ff19" stroke="none" /><path d="M 85.57189188830299 84.74124197986013 l -7.209914741929538 -7.625001389042283 a31.49397526053829,31.49397526053829 0 0,0 0.39711220747382764,-0.3690725179950944 l 7.0775946506608545 7.747978493112025" fill="#ff780b" stroke="none" /><path d="M 86.10567301691215 84.25364557470407 l -29.431676996736407 -33.354736640755725 a65.48327851242976,65.48327851242976 0 0,0 0.8516137831754788,-0.7385110808281996 l 28.853169414914156 33.8564127150036" fill="#36ff6b" stroke="none" /><path d="M 86.65592168130627 83.78471172551755 l -13.018716139007935 -15.819918777150573 a41.48796720086468,41.48796720086468 0 0,0 0.5553393609824064,-0.44904580865057725 l 12.744473379461027 16.041670683065284" fill="#fffb17" stroke="none" /><path d="M 87.22198572758235 83.33499621200491 l -14.082738858592643 -18.36661717700429 a44.14424680748856,44.14424680748856 0 0,0 0.6069914788143446,-0.4571733975899006 l 13.76450122601991 18.606307164100045" fill="#e3ff1b" stroke="none" /><path d="M 87.51073957382395 83.11751280151077 l -8.073664162158384 -10.913659192890542 a34.57541932987283,34.57541932987283 0 0,0 0.48151158676444283,-0.349838645511712 l 7.884607259040159 11.051017073218922" fill="#ffa20e" stroke="none" /><path d="M 88.09926311788651 82.69761687909137 l -35.70221064634046 -51.907149362725875 a84.0,84.0 0 0,0 1.198381222373842,-0.8091523508053382 l 34.80342472956008 52.51401362582988" fill="#4dd2ff" stroke="none" /><path d="M 89.00827224532344 82.1063720568725 l -13.367388453205605 -21.76100799541301 a46.538765495523144,46.538765495523144 0 0,0 0.6861984375626261,-0.41342688070476497 l 12.990827949425329 21.987881485576395" fill="#c6ff1e" stroke="none" /><line stroke="#e1ed5e" stroke-width="0.3" x1="56.762969772571076" x2="54.21961505331055" y1="26.818313649435495" y2="22.513508569990535" /><path d="M 56.25429882871897 25.957352633546506 a86.0,86.0 0 0,1 42.265352541879196,-11.944610805530505" fill="none" id="id84" stroke="none" /><text fill="#e1ed5e" style="font-size:6.75px; font-family:Arial;" text-anchor="middle"><textPath startOffset="22.20632615414155" xlink:href="#id84">December</textPath></text><path d="M 89.3179101791058 81.91981866633112 l -12.801445747582738 -21.66733891309343 a46.16645761332248,46.16645761332248 0 0,0 0.6876675615213604,-0.39834143750298273 l 12.426581453596057 21.88448450798646" fill="#cbff1d" stroke="none" /><path d="M 89.94658935756843 81.56283822128135 l -2.1703285347929504 -3.9802112668172938 a25.533476334716642,25.533476334716642 0 0,0 0.3876893051750806,-0.2070902002936372 l 2.1014941830895646 4.016980193612681" fill="#ff2303" stroke="none" /><path d="M 90.26544431104013 81.39251694778311 l -9.316484573216592 -17.808345274450918 a41.098110513604034,41.098110513604034 0 0,0 0.6296612398890508,-0.3225369432464124 l 9.008562845738778 17.966074743009834" fill="#fff617" stroke="none" /><path d="M 90.91171255644093 81.06846463323043 l -6.058747129186292 -12.6207920102476 a34.99974313126326,34.99974313126326 0 0,0 0.5453656453079145,-0.2560564830269955 l 5.84060327257877 12.723213475914603" fill="#ffa70f" stroke="none" /><path d="M 91.23893434514133 80.91482961587045 l -11.002829238626655 -23.968644797247503 a47.37343710385503,47.37343710385503 0 0,0 0.7440288888829035,-0.333824074520213 l 10.588618231276977 24.154489202284243" fill="#bdff1f" stroke="none" /><path d="M 91.90106846888425 80.62456947434976 l -6.4663739617163785 -15.469791165261135 a37.7668849494936,37.7668849494936 0 0,0 0.6019612184759682,-0.2455550953624124 l 6.19912887365203 15.578807146807126" fill="#ffcb13" stroke="none" /><path d="M 92.57280143429618 80.3572730644239 l -8.162116201766262 -21.586365080915748 a44.07793964585474,44.07793964585474 0 0,0 0.7120007700668524,-0.2622358924372971 l 7.789333105926841 21.723664241159366" fill="#e4ff1a" stroke="none" /><path d="M 93.59665428221793 80.00007090966166 l -7.640559589212139 -23.86418861789589 a46.05748688968655,46.05748688968655 0 0,0 0.7571294366906496,-0.23524380149703056 l 7.228644779810761 23.992172554275445" fill="#ccff1d" stroke="none" /><path d="M 93.94186890950719 79.89281104454417 l -7.254472736248659 -24.07789661548718 a46.147017320291965,46.147017320291965 0 0,0 0.7625460206203819,-0.22260809380777738 l 6.838936497904856 24.199203038213653" fill="#cbff1d" stroke="none" /><path d="M 97.11714578562143 79.19881850522333 l -1.4383929186121487 -10.378697615585981 a31.477897612788727,31.477897612788727 0 0,0 0.5373506034153535,-0.06976353038889552 l 1.2595275866889375 10.401919469139013" fill="#ff780b" stroke="none" /><path d="M 97.47563105711357 79.15227682838746 l -2.7742424276054924 -22.91132534514935 a44.07867522450995,44.07867522450995 0 0,0 0.7540251336107253,-0.0847235094150713 l 2.379450590485049 22.95568480803502" fill="#e4ff1b" stroke="none" /><path d="M 98.19473922651362 79.07773832637324 l -2.2093372540464737 -25.605349007380433 a46.700487717004044,46.700487717004044 0 0,0 0.8014911397510508,-0.06221113807400619 l 1.7682559249330887 25.6395854076429" fill="#c5ff1e" stroke="none" /><path d="M 98.91598698831166 79.02799685794201 l -1.1910640157615748 -23.04307975237258 a44.07384142191857,44.07384142191857 0 0,0 0.7579843753021448,-0.03264040166300253 l 0.7942388080701059 23.060167880559774" fill="#e4ff1a" stroke="none" /><path d="M 99.63851952072746 79.00311137660856 l -0.5421176158644905 -31.489344110620916 a52.4940102880933,52.4940102880933 0 0,0 0.9035980951370185,-0.00777755408094391 l 7.713807778325454e-15 31.4940102880933" fill="#83ff25" stroke="none" /></svg>