<?xml version="1.0" encoding="utf-8" ?>
<svg baseProfile="full" height="200mm" version="1.1" viewBox="0,0,200,200" width="200mm" xmlns="http://www.w3.org/2000/svg" xmlns:ev="http://www.w3.org/2001/xml-events" xmlns:xlink="http://www.w3.org/1999/xlink"><defs /><rect fill="#1a1a1a" height="200" width="200" x="0" y="0" /><text alignment-baseline="middle" fill="#e1ed5e" style="dominant-baseline: central; font-size:9.0px; font-family:Arial;" text-anchor="middle" x="100.0" y="100.0">2018</text><line stroke="#e1ed5e" stroke-width="0.3" x1="100.0" x2="100.0" y1="15.0" y2="10.0" /><path d="M 100.0 14.0 a86.0,86.0 0 0,1 42.46469731375804,11.215312516191453" fill="none" id="id25" stroke="none" /><text fill="#e1ed5e" style="font-size:6.75px; font-family:Arial;" text-anchor="middle"><textPath startOffset="22.20632615414155" xlink:href="#id25">January</textPath></text><path d="M 101.80526077348638 79.07773832637324 l 1.4871417576962211 -17.23538751701149 a38.299426969383674,38.299426969383674 0 0,0 0.656333400624925,0.06232676485997073 l -1.7836002854113904 17.20723520763634" fill="#ffd013" stroke="none" /><path d="M 103.59715602781102 79.31037775812273 l 2.089425920309545 -12.017669697774434 a33.1979541580245,33.1979541580245 0 0,0 0.5621597365712262,0.10273109862378431 l -2.2959807779836723 11.97992311779991" fill="#ff8c0c" stroke="none" /><path d="M 105.71112130821622 79.79150937346287 l 1.817117778781926 -6.429771951613094 a27.681607918137356,27.681607918137356 0 0,0 0.45741851127325234,0.13353300668212206 l -1.9275265077786052 6.397540616012268" fill="#ff3f05" stroke="none" /><path d="M 107.76421540070413 80.48803036053334 l 1.5020902438907657 -3.7748488059563217 a25.062727976202897,25.062727976202897 0 0,0 0.3994713964644523,0.1629544127472742 l -1.5668455099436054 3.748433507025468" fill="#ff1902" stroke="none" /><line stroke="#e1ed5e" stroke-width="0.3" x1="143.23703022742887" x2="145.7803849466894" y1="26.81831364943548" y2="22.513508569990506" /><path d="M 143.74570117128098 25.957352633546492 a86.0,86.0 0 0,1 28.547481713284135,27.462654790039103" fill="none" id="id26" stroke="none" /><text fill="#e1ed5e" style="font-size:6.75px; font-family:Arial;" text-anchor="middle"><textPath startOffset="19.985693538727396" xlink:href="#id26">February</textPath></text><path d="M 110.99172775467656 82.1063720568725 l 2.847451689493012 -4.635416947635004 a26.44013523751188,26.44013523751188 0 0,0 0.38575004978385147,0.2415566457858702 l -2.9268208916491263 4.58571596052619" fill="#ff2d04" stroke="none" /><path d="M 111.90073688211348 82.69761687909136 l 4.2722170303668845 -6.211341076381392 a28.538739703803255,28.538739703803255 0 0,0 0.40235391151542116,0.28187462776111744 l -4.378502081465957 6.136881605856339" fill="#ff4b07" stroke="none" /><path d="M 112.19680574252982 82.90503203632743 l 2.5382348007338473 -3.557574295991365 a25.37023692437319,25.37023692437319 0 0,0 0.35331641017842813,0.2566993978368126 l -2.5990965272660644 3.5133556633378777" fill="#ff1d03" stroke="none" /><path d="M 112.77801427241765 83.33499621200491 l 3.0523021030714714 -3.9807927135901777 a26.01629930895149,26.01629930895149 0 0,0 0.35303801610854213,0.27555177136893866 l -3.120372674339444 3.927662552998015" fill="#ff2703" stroke="none" /><path d="M 113.34407831869373 83.78471172551755 l 4.5712020857020725 -5.5547755199199536 a28.193845952272607,28.193845952272607 0 0,0 0.372081519514669,0.3116075721018773 l -4.666141142175858 5.475266790424257" fill="#ff4606" stroke="none" /><path d="M 116.60985879189232 87.15038557335679 l 6.013521593602978 -4.652142729943579 a28.602951659487005,28.602951659487005 0 0,0 0.2979120813588775,0.3920173782066293 l -6.092709615185969 4.5479405758559155" fill="#ff4c07" stroke="none" /><path d="M 117.04232023915458 87.72973835380427 l 7.812208876264071 -5.6246946191200164 a30.626411433381435,30.626411433381435 0 0,0 0.30434978889717995,0.430481192622361 l -7.907871284965133 5.489386926165863" fill="#ff6909" stroke="none" /><path d="M 117.45458315368197 88.32363383020206 l 7.936469741321413 -5.309157255677126 a30.548544534138145,30.548544534138145 0 0,0 0.28861590573768003,0.4395818252376243 l -8.026682282417017 5.1717573664618275" fill="#ff6809" stroke="none" /><path d="M 117.65298651832404 88.62581576622439 l 4.110435077107784 -2.648438313792825 a25.88977525302379,25.88977525302379 0 0,0 0.23815191039421793,0.37669912993866433 l -4.155414583747958 2.5772915361399544" fill="#ff2503" stroke="none" /><line stroke="#e1ed5e" stroke-width="0.3" x1="172.23445277983987" x2="176.4835382374775" y1="55.19839476539836" y2="52.563006222186495" /><path d="M 173.08426987136738 54.67131705675599 a86.0,86.0 0 0,1 12.851231095245387,41.99856678651699" fill="none" id="id27" stroke="none" /><text fill="#e1ed5e" style="font-size:6.75px; font-family:Arial;" text-anchor="middle"><textPath startOffset="22.20632615414155" xlink:href="#id27">March</textPath></text><path d="M 118.73160827565052 90.50648371742162 l 8.250270593957929 -4.181385659299306 a30.24937570354458,30.24937570354458 0 0,0 0.2313933010088044,0.4664747750231307 l -8.321023907920141 4.038751295777225" fill="#ff6309" stroke="none" /><path d="M 118.89224826269711 90.83032412892265 l 5.796090220447355 -2.8132315382476274 a27.442742702557396,27.442742702557396 0 0,0 0.2026082092638316,0.42674456024501584 l -5.843656623552943 2.713044562362071" fill="#ff3c05" stroke="none" /><path d="M 119.04729006885535 91.15688171328212 l 4.334376431500208 -2.012328438552618 a25.77873255105913,25.77873255105913 0 0,0 0.18339442451189436,0.40408530455977953 l -4.368373172975449 1.9374211251507756" fill="#ff2303" stroke="none" /><path d="M 119.196687751892 91.48605970444005 l 14.214280891905451 -6.304188536174632 a36.54955222421611,36.54955222421611 0 0,0 0.2501195336052365,0.5773103684642437 l -14.320691135353368 6.0585790231237855" fill="#ffb911" stroke="none" /><path d="M 119.34039704204932 91.81776055985345 l 23.432712665877645 -9.913553757325008 a46.4434779655014,46.4434779655014 0 0,0 0.3051520354675211,0.7389498583269385 l -23.59988638823136 9.508729328544767" fill="#c9ff1d" stroke="none" /><path d="M 119.61058180528143 92.48833698450437 l 15.36222547270444 -5.884367025150729 a37.4506457855274,37.4506457855274 0 0,0 0.2254090373781719,0.6039841538508591 l -15.461239098584237 5.619059734270536" fill="#ffc512" stroke="none" /><path d="M 119.85752413597 93.16781622104841 l 16.47018400636813 -5.666734847413515 a38.417773825449544,38.417773825449544 0 0,0 0.2097659959090525,0.6271736282481528 l -16.565287296048954 5.382388116243049" fill="#ffd113" stroke="none" /><path d="M 119.97218684219823 93.5106431181261 l 8.184935740970035 -2.659446834641842 a29.606150739447642,29.606150739447642 0 0,0 0.15330983522127614,0.48603407334185345 l -8.229501059959517 2.5181625948735693" fill="#ff5a08" stroke="none" /><path d="M 120.18372546131832 94.20196356495316 l 17.456744789464246 -5.014675933865826 a39.16273419301676,39.16273419301676 0 0,0 0.1805462271750985,0.649520840315993 l -17.540477787205706 4.7134437901308806" fill="#ffdb14" stroke="none" /><path d="M 120.37134235888165 94.90015583598534 l 2.3173596023429317 -0.5801371669932851 a23.388873093970876,23.388873093970876 0 0,0 0.0944099655824274,0.39139025809834876 l -2.3270023681861787 0.5401616772355301" fill="#ff0000" stroke="none" /><path d="M 120.53481517161879 95.60439243477599 l 12.599606732051036 -2.697025817246987 a33.88503155064987,33.88503155064987 0 0,0 0.11717880234051133,0.5714054554169511 l -12.644164830306545 2.479744705666624" fill="#ff950d" stroke="none" /><path d="M 120.6074358757038 95.95851677861258 l 6.229766773274378 -1.2217676201545102 a27.348441554196704,27.348441554196704 0 0,0 0.08662199010337697,0.46273813483047194 l -6.249874487287613 1.1143514078614756" fill="#ff3a05" stroke="none" /><path d="M 120.87857604477298 97.74499172005257 l 8.331749760557308 -0.8998776859215173 a29.380204885452756,29.380204885452756 0 0,0 0.04997835078825714,0.5032751719149743 l -8.346005237027795 0.7563269833021081" fill="#ff5708" stroke="none" /><path d="M 120.91429891909075 98.10471618934814 l 8.937088410359186 -0.8098917895381481 a29.973710156080248,29.973710156080248 0 0,0 0.04214234591443438,0.5142433628039939 l -8.949705240093115 0.6559345095263855" fill="#ff6008" stroke="none" /><path d="M 120.94382443527127 98.46500227214037 l 6.001757197580754 -0.43987590184038583 a27.01785512186296,27.01785512186296 0 0,0 0.03000192446524617,0.4641164923112747 l -6.008439713050415 0.33650034527607586" fill="#ff3505" stroke="none" /><line stroke="#e1ed5e" stroke-width="0.3" x1="184.98032266829074" x2="189.97916517819016" y1="98.17113171792111" y2="98.06355123074" /><path d="M 185.9800911702706 98.14961562048488 a86.0,86.0 0 0,1 -9.607161424134198,41.387399972396054" fill="none" id="id28" stroke="none" /><text fill="#e1ed5e" style="font-size:6.75px; font-family:Arial;" text-anchor="middle"><textPath startOffset="21.466115282336823" xlink:href="#id28">April</textPath></text><path d="M 120.99980553446 99.90962569577887 l 10.053601227440288 -0.04326645855627821 a31.053694327302022,31.053694327302022 0 0,0 -0.0023004912588537457,0.5345531507656992 l -10.052856438891931 -0.12979617041310573" fill="#ff6f0a" stroke="none" /><path d="M 120.8583938346157 102.4346265915055 l 7.179831666983115 0.8380419526819465 a28.22857503804647,28.22857503804647 0 0,0 -0.0604877748963899,0.4821470803768235 l -7.164342382839877 -0.9615067873461649" fill="#ff4706" stroke="none" /><path d="M 120.81339534386255 102.79330883721812 l 8.735929249033624 1.17242516031069 a29.814252129401037,29.814252129401037 0 0,0 -0.07264164302052944,0.5080554820963754 l -8.714453554996494 -1.322626114387475" fill="#ff5d08" stroke="none" /><path d="M 120.76222939487914 103.15116336523771 l 8.367422502055389 1.2699558774957858 a29.463246850865744,29.463246850865744 0 0,0 -0.08041817239580562,0.5007640362738217 l -8.344322575298294 -1.4137991434628123" fill="#ff5808" stroke="none" /><path d="M 120.70491114924044 103.5080841355445 l 12.516778663322665 2.120748663948503 a33.69516927820377,33.69516927820377 0 0,0 -0.10181325555644286,0.5710228065229924 l -12.478418965427032 -2.3358902212047137" fill="#ff930d" stroke="none" /><path d="M 120.23288151984713 105.62410040840565 l 3.868354162432045 1.0752799695609632 a25.015020664821584,25.015020664821584 0 0,0 -0.11888967860931308,0.4138705680995553 l -3.8492718469366327 -1.1417080131651005" fill="#ff1802" stroke="none" /><line stroke="#e1ed5e" stroke-width="0.3" x1="174.80103733775053" x2="179.2010983576182" y1="140.37084112569926" y2="142.7455964860345" /><path d="M 175.68104954172406 140.8457921977663 a86.0,86.0 0 0,1 -30.038265399797805,32.042727171017184" fill="none" id="id29" stroke="none" /><text fill="#e1ed5e" style="font-size:6.75px; font-family:Arial;" text-anchor="middle"><textPath startOffset="22.206326154141568" xlink:href="#id29">May</textPath></text><path d="M 113.75828350139079 115.86535959552629 l 3.3055849661391856 3.811834096605314 a26.045490179200456,26.045490179200456 0 0,0 -0.3412387394176911,0.2908110567481084 l -3.2394807501444474 -3.8681695435763697" fill="#ff2703" stroke="none" /><line stroke="#e1ed5e" stroke-width="0.3" x1="143.8653032363475" x2="146.44561519142675" y1="172.8068346515853" y2="177.08958963109032" /><path d="M 144.38136562736335 173.6633856474863 a86.0,86.0 0 0,1 -40.68145358897372,12.25698825130547" fill="none" id="id30" stroke="none" /><text fill="#e1ed5e" style="font-size:6.75px; font-family:Arial;" text-anchor="middle"><textPath startOffset="21.466115282336833" xlink:href="#id30">June</textPath></text><line stroke="#e1ed5e" stroke-width="0.3" x1="102.19456741930631" x2="102.32365962044197" y1="184.97166512339345" y2="189.96999836594603" /><path d="M 102.22038585953345 185.97133177190398 a86.0,86.0 0 0,1 -42.740103519485714,-10.115201625700543" fill="none" id="id31" stroke="none" /><text fill="#e1ed5e" style="font-size:6.75px; font-family:Arial;" text-anchor="middle"><textPath startOffset="22.20632615414155" xlink:href="#id31">July</textPath></text><line stroke="#e1ed5e" stroke-width="0.3" x1="58.666819895761336" x2="56.23545636021788" y1="174.27360380694188" y2="178.64263932499728" /><path d="M 58.180547188652646 175.14741091055294 a86.0,86.0 0 0,1 -31.652253787137756,-30.449443065178592" fill="none" id="id32" stroke="none" /><text fill="#e1ed5e" style="font-size:6.75px; font-family:Arial;" text-anchor="middle"><textPath startOffset="22.20632615414155" xlink:href="#id32">August</textPath></text><line stroke="#e1ed5e" stroke-width="0.3" x1="26.63291911575756" x2="22.317208475507996" y1="142.92168965132927" y2="145.44649492493687" /><path d="M 25.769776987707644 143.4266507060508 a86.0,86.0 0 0,1 -11.730757126820373,-40.83630448921669" fill="none" id="id33" stroke="none" /><text fill="#e1ed5e" style="font-size:6.75px; font-family:Arial;" text-anchor="middle"><textPath startOffset="21.46611528233685" xlink:href="#id33">September</textPath></text><path d="M 79.1416061653843 102.43462659150553 l -4.4030648888949 0.5139330932009599 a25.432956986042857,25.432956986042857 0 0,0 -0.047011850296234656,-0.43527134695856806 l 4.411259040692188 -0.43806542435760976" fill="#ff1e03" stroke="none" /><path d="M 79.10278846688536 102.07522291339032 l -5.2182291764502065 0.5182025715311941 a26.243896418036663,26.243896418036663 0 0,0 -0.04077227218576488,-0.44991862607127703 l 5.226376044913046 -0.42830255691135094" fill="#ff2a04" stroke="none" /><line stroke="#e1ed5e" stroke-width="0.3" x1="15.007084014347285" x2="10.007500721073583" y1="101.09737516637583" y2="101.16192664675087" /><path d="M 14.007167355692545 101.11028546245083 a86.0,86.0 0 0,1 10.666146001902534,-42.60595125391555" fill="none" id="id34" stroke="none" /><text fill="#e1ed5e" style="font-size:6.75px; font-family:Arial;" text-anchor="middle"><textPath startOffset="22.20632615414155" xlink:href="#id34">October</textPath></text><path d="M 79.01574976396665 99.18683210126434 l -8.390419388691836 -0.32514002773840084 a29.39671683193935,29.39671683193935 0 0,0 0.02394627403695497,-0.505467997607702 l 8.383579506421382 0.46951913196911194" fill="#ff5708" stroke="none" /><path d="M 79.03285615573316 98.82574320788736 l -9.189146865997516 -0.5146346207792476 a30.203546540208105,30.203546540208105 0 0,0 0.03353946928039781,-0.5188407448472562 l 9.178926805712706 0.6727344298795156" fill="#ff6309" stroke="none" /><path d="M 79.08570108090925 98.10471618934814 l -8.806386893715608 -0.7980474303520896 a29.842473060343334,29.842473060343334 0 0,0 0.050764710212672454,-0.5111937040047305 l 8.791345057820708 0.9495166650612504" fill="#ff5e08" stroke="none" /><path d="M 79.16333360222342 97.38593545837743 l -10.924380506382679 -1.3705184493415383 a32.01001409028251,32.01001409028251 0 0,0 0.07329378798456646,-0.546123853276192 l 10.89917071934028 1.5583606446823897" fill="#ff7c0b" stroke="none" /><path d="M 79.21141760316559 97.0276538004421 l -10.172367715438432 -1.4544425368847227 a31.275819579536893,31.275819579536893 0 0,0 0.0807870900021694,-0.5322859846852986 l 10.14582473199696 1.6293276339621134" fill="#ff720a" stroke="none" /><path d="M 79.26566170972629 96.67025291283419 l -11.665548699590465 -1.8733815499129436 a32.81501523037829,32.81501523037829 0 0,0 0.09436369923562261,-0.5569398945113989 l 11.63157313883462 2.0739072327401704" fill="#ff870c" stroke="none" /><path d="M 79.3925641242962 95.95851677861259 l -14.482940056868427 -2.840361100198951 a35.75883477346255,35.75883477346255 0 0,0 0.12365865516705839,-0.6030035190720825 l 14.431902105786374 3.089240275434436" fill="#ffaf10" stroke="none" /><path d="M 79.62865764111835 94.90015583598534 l -12.172315654213334 -3.047266687588671 a33.54795212977379,33.54795212977379 0 0,0 0.1450608148391807,-0.5589784936058788 l 12.118058507503845 3.2563416067434137" fill="#ff910d" stroke="none" /><path d="M 79.71946130924805 94.55025226153421 l -14.570811359915917 -3.915440682673954 a36.08771750218677,36.08771750218677 0 0,0 0.16636992734645553,-0.5985211472105735 l 14.501254662003099 4.16567313330347" fill="#ffb310" stroke="none" /><path d="M 79.91906864156998 93.8553929516997 l -5.885130339828911 -1.8008035942564928 a27.15448232606625,27.15448232606625 0 0,0 0.14061433543204443,-0.4457858696518195 l 5.8532605206286625 1.901839630334727" fill="#ff3705" stroke="none" /><path d="M 80.2630227832202 92.82701384747504 l -20.3580222053429 -7.398691793978036 a42.660787344312126,42.660787344312126 0 0,0 0.2567679891061376,-0.6880105537919049 l 20.227649627735133 7.748025484799283" fill="#f7ff18" stroke="none" /><path d="M 80.38941819471856 92.48833698450439 l -6.962204678708844 -2.6668120258055357 a28.45547988859311,28.45547988859311 0 0,0 0.17914276107065844,-0.4558987868897973 l 6.915268367756495 2.7862598175910964" fill="#ff4a06" stroke="none" /><path d="M 80.803312248108 91.48605970444005 l -13.452480400484061 -5.966321713266566 a35.716189170828294,35.716189170828294 0 0,0 0.2540912337628751,-0.5598563525271352 l 13.347786849757835 6.197000074635771" fill="#ffae10" stroke="none" /><path d="M 81.10775173730289 90.83032412892265 l -26.449869616034807 -12.837896677982297 a50.40080260502747,50.40080260502747 0 0,0 0.3855421084575815,-0.777229364552129 l 26.22496749462381 13.291285631033386" fill="#9cff22" stroke="none" /><path d="M 81.43458229118936 90.18545643968196 l -13.768522187100357 -7.278681411104049 a36.57406197178586,36.57406197178586 0 0,0 0.2990223913922534,-0.5540430776191296 l 13.641191696489633 7.514605472055651" fill="#ffb911" stroke="none" /><line stroke="#e1ed5e" stroke-width="0.3" x1="26.266209847984243" x2="21.928928074336255" y1="57.711370442889674" y2="55.22380399835377" /><path d="M 25.398753493254645 57.213857153982495 a86.0,86.0 0 0,1 29.58750427330803,-30.492523968695096" fill="none" id="id35" stroke="none" /><text fill="#e1ed5e" style="font-size:6.75px; font-family:Arial;" text-anchor="middle"><textPath startOffset="21.46611528233685" xlink:href="#id35">November</textPath></text><path d="M 81.96595687620814 89.24020034530311 l -7.682070128101672 -4.583416760418947 a29.945496668869836,29.945496668869836 0 0,0 0.2679183684073028,-0.44038735326986694 l 7.602035961408152 4.714971886895888" fill="#ff5f08" stroke="none" /><path d="M 82.34701348167596 88.62581576622439 l -20.71204604700858 -13.345199541878157 a45.63905846955092,45.63905846955092 0 0,0 0.4311877504502623,-0.6567285260269214 l 20.4792616612004 13.699746131882746" fill="#d3ff1c" stroke="none" /><path d="M 82.7489923806493 88.02491185347247 l -6.090744388779087 -4.227996563620014 a28.41438616147194,28.41438616147194 0 0,0 0.28236780037707215,-0.39938922877170174 l 6.017063968598137 4.3322122927235025" fill="#ff4906" stroke="none" /><path d="M 83.17141714833178 87.43820079747576 l -10.969828097375734 -8.1884956719206 a34.68899520984051,34.68899520984051 0 0,0 0.3613008505639409,-0.47542956813248777 l 10.827251306587685 8.376110015934115" fill="#ffa00e" stroke="none" /><path d="M 83.39014120810768 87.1503855733568 l -12.843586135261807 -9.935974276557513 a37.23826621404828,37.23826621404828 0 0,0 0.3965802992632044,-0.5036167067043313 l 12.67065175540463 10.155583377214892" fill="#ffc212" stroke="none" /><path d="M 84.31358615837235 86.03803664274999 l -4.941330526476872 -4.398116513007437 a27.615147483910008,27.615147483910008 0 0,0 0.319094816776028,-0.35235246654541996 l 4.8648920690847985 4.482521766822413" fill="#ff3e05" stroke="none" /><path d="M 84.5562425177563 85.77008943001954 l -10.975378852737483 -10.112737118908655 a35.92402067129599,35.92402067129599 0 0,0 0.42293294457872416,-0.45115537712980347 l 10.799678586188303 10.300161912916508" fill="#ffb110" stroke="none" /><path d="M 85.57189188830299 84.74124197986013 l -25.311156196425816 -26.76836107833953 a57.84019249162832,57.84019249162832 0 0,0 0.7293155700748161,-0.6778193387023494 l 24.846632742556142 27.200085003116527" fill="#4cff2c" stroke="none" /><path d="M 86.10567301691215 84.25364557470407 l -6.0609090030827675 -6.868790508397736 a30.160507681995828,30.160507681995828 0 0,0 0.3922391278054613,-0.34014590644434556 l 5.941776076630533 6.972101408261762" fill="#ff6209" stroke="none" /><path d="M 88.09926311788651 82.69761687909137 l -8.338669223412046 -12.12352235422097 a35.71438747249694,35.71438747249694 0 0,0 0.5095172775669513,-0.34402834024932877 l 8.128747251438554 12.265262606768964" fill="#ffae10" stroke="none" /><path d="M 88.39885842347998 82.49532879139004 l -10.613883158018242 -16.01502177197323 a40.21289770047298,40.21289770047298 0 0,0 0.580277809143168,-0.377428828544085 l 10.336638323090787 16.195349524676853" fill="#ffe815" stroke="none" /><path d="M 89.00827224532344 82.1063720568725 l -11.604095819180541 -18.890512741864022 a43.169946130544616,43.169946130544616 0 0,0 0.6365263295884394,-0.3834999914353266 l 11.277207423374453 19.087459342757967" fill="#f1ff19" stroke="none" /><line stroke="#e1ed5e" stroke-width="0.3" x1="56.762969772571076" x2="54.21961505331055" y1="26.818313649435495" y2="22.513508569990535" /><path d="M 56.25429882871897 25.957352633546506 a86.0,86.0 0 0,1 42.265352541879196,-11.944610805530505" fill="none" id="id36" stroke="none" /><text fill="#e1ed5e" style="font-size:6.75px; font-family:Arial;" text-anchor="middle"><textPath startOffset="22.20632615414155" xlink:href="#id36">December</textPath></text><path d="M 89.94658935756843 81.56283822128135 l -21.16634766701033 -38.81741133244769 a65.2131846411587,65.2131846411587 0 0,0 0.9901689025951282,-0.5289139360456525 l 20.495033717886898 39.17600399499509" fill="#35ff67" stroke="none" /><path d="M 90.58718382345135 81.22770947309562 l -2.546708120526097 -5.0789842093008915 a26.68170774059009,26.68170774059009 0 0,0 0.41233241938341963,-0.20232972745140693 l 2.4589044341322515 5.122069096887128" fill="#ff3104" stroke="none" /><path d="M 90.91171255644093 81.06846463323043 l -7.648251542503106 -15.931840346165915 a38.6725574966704,38.6725574966704 0 0,0 0.6025954017942488,-0.2829266210645839 l 7.372877929409249 16.061131949870507" fill="#ffd513" stroke="none" /><path d="M 91.56875222667455 80.76684994638697 l -1.8493171574615324 -4.218615718862923 a25.606158109782918,25.606158109782918 0 0,0 0.40520677335572775,-0.1734883934723545 l 1.7764266263154964 4.249823640298064" fill="#ff2103" stroke="none" /><path d="M 92.23578459929587 80.48803036053334 l -10.892796675237381 -27.374294380967317 a50.46192478885114,50.46192478885114 0 0,0 0.8098341990649042,-0.31420308770802524 l 10.419979311172801 27.557740172565897" fill="#9bff22" stroke="none" /><path d="M 92.57280143429618 80.3572730644239 l -2.400242027589791 -6.347924901987866 a27.786553790568966,27.786553790568966 0 0,0 0.44884238817296185,-0.1653124395008349 l 2.2906173136442596 6.3883006092950225" fill="#ff4006" stroke="none" /><path d="M 93.25333710446033 80.11325718540243 l -3.8203228665469777 -11.260941815541646 a32.891327822311354,32.891327822311354 0 0,0 0.5377218019359836,-0.17727842382743167 l 3.6259182423685847 11.32503396362831" fill="#ff880c" stroke="none" /><path d="M 93.94186890950719 79.89281104454417 l -1.244855566292113 -4.131727379251929 a25.315186730303623,25.315186730303623 0 0,0 0.41831511597969495,-0.12211765331023512 l 1.1735502325889966 4.152543361480863" fill="#ff1d02" stroke="none" /><path d="M 94.98787191387505 79.60689891045804 l -3.5205267403782137 -14.324146644160354 a35.75043340424709,35.75043340424709 0 0,0 0.5988645548779764,-0.14173189160186325 l 3.273438498537703 14.382624447903089" fill="#ffae10" stroke="none" /><path d="M 95.692805502759 79.44645832069477 l -1.4537376133595379 -6.937104104794525 a28.087789952393717,28.087789952393717 0 0,0 0.47405982109332356,-0.09509194038806976 l 1.334111382799078 6.961100001259805" fill="#ff4506" stroke="none" /><path d="M 96.40284397218896 79.31037775812273 l -1.263425734124833 -7.266796593645685 a28.375810282204213,28.375810282204213 0 0,0 0.48194394189553086,-0.07952487986780359 l 1.1381525860904165 7.287467736453116" fill="#ff4906" stroke="none" /><path d="M 96.75951476605007 79.25152402106235 l -9.72145570184976 -62.24542793681294 a84.0,84.0 0 0,0 1.430524078285405,-0.2108220633561242 l 8.648562643135705 62.403544484330034" fill="#4dd2ff" stroke="none" /><path d="M 98.19473922651362 79.07773832637324 l -0.42017633789336467 -4.869678342089958 a25.88777201906405,25.88777201906405 0 0,0 0.44429557196294944,-0.03448588736943722 l 0.33629057656808103 4.876189491647857" fill="#ff2503" stroke="none" /><path d="M 98.91598698831166 79.02799685794201 l -0.301231509159387 -5.827815799681421 a26.83559572084349,26.83559572084349 0 0,0 0.46152006727983097,-0.019874024930322344 l 0.20087060949023194 5.8321375511359355" fill="#ff3304" stroke="none" /><path d="M 99.63851952072746 79.00311137660856 l -0.20468781343989284 -11.889458678410659 a32.891220491043185,32.891220491043185 0 0,0 0.5661682927124256,-0.004873189241084949 l 2.9125090224622907e-15 11.891220491043185" fill="#ff880c" stroke="none" /></svg>