<?xml version="1.0" encoding="utf-8" ?>
<svg baseProfile="full" height="200mm" version="1.1" viewBox="0,0,200,200" width="200mm" xmlns="http://www.w3.org/2000/svg" xmlns:ev="http://www.w3.org/2001/xml-events" xmlns:xlink="http://www.w3.org/1999/xlink"><defs /><rect fill="#1a1a1a" height="200" width="200" x="0" y="0" /><text alignment-baseline="middle" fill="#e1ed5e" style="dominant-baseline: central; font-size:9.0px; font-family:Arial;" text-anchor="middle" x="100.0" y="100.0">2025</text><line stroke="#e1ed5e" stroke-width="0.3" x1="100.0" x2="100.0" y1="15.0" y2="10.0" /><path d="M 100.0 14.0 a86.0,86.0 0 0,1 42.46469731375804,11.215312516191453" fill="none" id="id109" stroke="none" /><text fill="#e1ed5e" style="font-size:6.75px; font-family:Arial;" text-anchor="middle"><textPath startOffset="22.20632615414155" xlink:href="#id109">January</textPath></text><path d="M 101.44485096284872 79.0497635885617 l 2.8453562766783245 -41.257464059580165 a62.35546388288713,62.35546388288713 0 0,0 1.070167663345463,0.08306560729716368 l -3.5551141293861286 41.202373190094534" fill="#31ff42" stroke="none" /><path d="M 102.88285421437855 79.19881850522331 l 3.715965167035118 -26.81247823155288 a48.06875294578816,48.06875294578816 0 0,0 0.8186131964535845,0.1206423057022242 l -4.176947343917358 26.744541441689687" fill="#baff1f" stroke="none" /><path d="M 103.95276090670814 79.375362276772 l 7.250967819629651 -37.83395655650485 a59.52252332130907,59.52252332130907 0 0,0 1.0046086503975402,0.20151504440224674 l -7.901142879494317 37.7035375560254" fill="#3dff2e" stroke="none" /><path d="M 105.36241919743992 79.69619591428918 l 10.985540919036152 -41.59470984703233 a64.0209483454587,64.0209483454587 0 0,0 1.0630590391410109,0.2905741926850878 l -11.699897847400875 41.39944911352095" fill="#33ff56" stroke="none" /><path d="M 106.74666289553966 80.11325718540242 l 7.869443309750068 -23.196296838622054 a45.49482241272301,45.49482241272301 0 0,0 0.7394381719718037,0.25797545895185664 l -8.267563485785145 23.05740052649799" fill="#d9ff1c" stroke="none" /><path d="M 107.08798089147638 80.2323363322302 l 20.094613868585284 -56.04185092620322 a80.53555712145746,80.53555712145746 0 0,0 1.300908779969077,0.47913568248342714 l -21.056304974326935 55.68765197591346" fill="#49f3ff" stroke="none" /><path d="M 108.09893153111575 80.62456947434976 l 15.163429395516744 -36.276139840752826 a60.31778112735605,60.31778112735605 0 0,0 0.9545037315556765,0.40866868433510883 l -15.785616884862735 36.00975162845492" fill="#35ff2f" stroke="none" /><line stroke="#e1ed5e" stroke-width="0.3" x1="143.23703022742887" x2="145.7803849466894" y1="26.81831364943548" y2="22.513508569990506" /><path d="M 143.74570117128098 25.957352633546492 a86.0,86.0 0 0,1 28.547481713284135,27.462654790039103" fill="none" id="id110" stroke="none" /><text fill="#e1ed5e" style="font-size:6.75px; font-family:Arial;" text-anchor="middle"><textPath startOffset="19.985693538727396" xlink:href="#id110">February</textPath></text><path d="M 110.99172775467656 82.1063720568725 l 3.821347460651964 -6.2208390917641845 a28.300790054552497,28.300790054552497 0 0,0 0.4128961926404008,0.2585555579522495 l -3.927862805664628 6.154139192488991" fill="#ff4006" stroke="none" /><path d="M 112.77801427241765 83.33499621200491 l 18.106833042651314 -23.61481485395826 a50.757635716252345,50.757635716252345 0 0,0 0.688774940771851,0.5375997664395076 l -18.510640538582596 23.29963669829553" fill="#9bff22" stroke="none" /><path d="M 114.68862486808459 84.99185889309783 l 4.222356739026002 -4.314204107742664 a27.036609438655276,27.036609438655276 0 0,0 0.32980054395436875,0.328384275608361 l -4.295993083147693 4.240883981484184" fill="#ff2e04" stroke="none" /><path d="M 116.60985879189232 87.15038557335679 l 4.666268959819261 -3.6098896261513556 a26.899607539351063,26.899607539351063 0 0,0 0.28017101749451945,0.368672217745265 l -4.7277159175378936 3.529032632525057" fill="#ff2c04" stroke="none" /><line stroke="#e1ed5e" stroke-width="0.3" x1="172.23445277983987" x2="176.4835382374775" y1="55.19839476539836" y2="52.563006222186495" /><path d="M 173.08426987136738 54.67131705675599 a86.0,86.0 0 0,1 12.851231095245387,41.99856678651699" fill="none" id="id111" stroke="none" /><text fill="#e1ed5e" style="font-size:6.75px; font-family:Arial;" text-anchor="middle"><textPath startOffset="22.20632615414155" xlink:href="#id111">March</textPath></text><path d="M 118.03404312379186 89.2402003453031 l 26.387440108352223 -15.743755685690365 a51.72723284909631,51.72723284909631 0 0,0 0.4496336153820581,0.7685695995658057 l -26.65453339820461 15.287206673770665" fill="#90ff24" stroke="none" /><path d="M 118.73160827565052 90.50648371742162 l 29.81966372852697 -15.113142394493709 a54.43081539416396,54.43081539416396 0 0,0 0.4163697847549491,0.8393760788373215 l -30.075393526235327 14.597606727157437" fill="#72ff27" stroke="none" /><path d="M 119.7369772167798 92.82701384747503 l 23.029067695802805 -8.36942667933549 a45.50276029100887,45.50276029100887 0 0,0 0.26120083655861204,0.7384499386341244 l -23.169721613171227 7.97177911427475" fill="#d9ff1c" stroke="none" /><path d="M 120.37134235888165 94.90015583598534 l 30.717720594016832 -7.689998299740392 a52.665666459780944,52.665666459780944 0 0,0 0.21258671753301495,0.881309189450805 l -30.845540111810667 7.1601038786301805" fill="#86ff25" stroke="none" /><path d="M 120.73433829027371 96.67025291283417 l 17.691468751694842 -2.8410897767243655 a38.918143255136755,38.918143255136755 0 0,0 0.10052761475601098,0.6623513782589513 l -17.737752259890154 2.536139286073332" fill="#ffd213" stroke="none" /><path d="M 120.87857604477298 97.74499172005257 l 29.13134696031418 -3.1463557888554328 a50.300766721576935,50.300766721576935 0 0,0 0.0855660936991632,0.8616388863847277 l -29.18119017969557 2.64444137176627" fill="#a1ff22" stroke="none" /><path d="M 120.96714384426684 98.82574320788733 l 62.90143153280055 -3.5227703763380056 a84.0,84.0 0 0,0 0.0684255670660141,1.444355573508001 l -62.95275070810006 2.4395036962070047" fill="#4dd2ff" stroke="none" /><line stroke="#e1ed5e" stroke-width="0.3" x1="184.98032266829074" x2="189.97916517819016" y1="98.17113171792111" y2="98.06355123074" /><path d="M 185.9800911702706 98.14961562048488 a86.0,86.0 0 0,1 -9.607161424134198,41.387399972396054" fill="none" id="id112" stroke="none" /><text fill="#e1ed5e" style="font-size:6.75px; font-family:Arial;" text-anchor="middle"><textPath startOffset="21.466115282336823" xlink:href="#id112">April</textPath></text><path d="M 120.99513854157772 99.54816195383933 l 30.06642494521511 -0.6470619222339968 a51.07338687473459,51.07338687473459 0 0,0 0.011350434905645062,0.8791036920603434 l -30.07310838723847 0.12942197211319065" fill="#98ff23" stroke="none" /><path d="M 120.9904718944345 100.63252640178507 l 32.95075734437522 0.9929373710105502 a53.9657145257106,53.9657145257106 0 0,0 -0.035971662024799574,0.92826876037302 l -32.928783549499215 -1.5599833783975765" fill="#78ff26" stroke="none" /><path d="M 120.92983693683757 101.71520430193887 l 38.334041088469064 3.1414822955413944 a59.46254824092697,59.46254824092697 0 0,0 -0.09238045917876792,1.0194106690981983 l -38.27428603301322 -3.8008743531881635" fill="#3eff2e" stroke="none" /><path d="M 120.8583938346157 102.4346265915055 l 29.18699497636846 3.4067548373584327 a50.38514342780077,50.38514342780077 0 0,0 -0.10796454336343447,0.8605836378683469 l -29.12402892375818 -3.9086562295141745" fill="#a0ff22" stroke="none" /><path d="M 120.70491114924044 103.5080841355445 l 29.189626032689425 4.9456702938573605 a50.60564004685261,50.60564004685261 0 0,0 -0.1529098999369154,0.857599923800904 l -29.10016969041332 -5.447388968391483" fill="#9dff22" stroke="none" /><path d="M 120.49622156327973 104.57218783832717 l 28.671314793613913 6.395844053670283 a50.376029567546624,50.376029567546624 0 0,0 -0.1960813403579523,0.8447132823365993 l -28.556972887325408 -6.8884259933554475" fill="#a0ff22" stroke="none" /><path d="M 120.41448212921028 104.9243191809786 l 15.283925100764494 3.686741846203589 a36.72229092487248,36.72229092487248 0 0,0 -0.15351436458899853,0.6132135762334492 l -15.218199421880433 -3.949283261834434" fill="#ffb510" stroke="none" /><path d="M 120.23288151984713 105.62410040840565 l 21.328043626855447 5.928520796932821 a43.13668457083658,43.13668457083658 0 0,0 -0.20501708288053713,0.7136913612216195 l -21.222833907088813 -6.294769633659022" fill="#f6ff19" stroke="none" /><path d="M 120.02730092923936 106.31721596034902 l 59.80601092045883 18.864623248354988 a83.71070843580398,83.71070843580398 0 0,0 -0.4452921335809013,1.3704682687555936 l -59.472426535861686 -19.891290417088378" fill="#4dd5ff" stroke="none" /><path d="M 119.79798401119884 107.00284435728193 l 17.648365066742684 6.242491844269688 a39.719868962009244,39.719868962009244 0 0,0 -0.23354477013617378,0.6426149039271637 l -17.53829603560128 -6.545354545202983" fill="#ffdd14" stroke="none" /><path d="M 119.54520255179757 107.68017299344265 l 27.491195840802135 10.802504568291269 a50.537433092692574,50.537433092692574 0 0,0 -0.32511786156974803,0.8069158696943493 l -27.301175364974995 -11.274119805828432" fill="#9eff22" stroke="none" /><path d="M 119.26925614724726 108.34839909993367 l 32.45440218654336 14.060859429788094 a56.369421668867744,56.369421668867744 0 0,0 -0.39340196638641606,0.8870175791153563 l -32.20755913542567 -14.617425345396137" fill="#5eff2a" stroke="none" /><path d="M 119.12269723197855 108.67885076344098 l 27.02408732204885 12.264902698665633 a50.67708095142541,50.67708095142541 0 0,0 -0.36734943167950557,0.7912379948980295 l -26.80896327352951 -12.728260760842494" fill="#9cff22" stroke="none" /><path d="M 118.81262510543309 109.33194174019688 l 28.256995015191777 14.016790838969559 a52.54248234860398,52.54248234860398 0 0,0 -0.40888392181620675,0.8067667685710895 l -28.0115324235893 -14.501111819243343" fill="#87ff25" stroke="none" /><line stroke="#e1ed5e" stroke-width="0.3" x1="174.80103733775053" x2="179.2010983576182" y1="140.37084112569926" y2="142.7455964860345" /><path d="M 175.68104954172406 140.8457921977663 a86.0,86.0 0 0,1 -30.038265399797805,32.042727171017184" fill="none" id="id113" stroke="none" /><text fill="#e1ed5e" style="font-size:6.75px; font-family:Arial;" text-anchor="middle"><textPath startOffset="22.206326154141568" xlink:href="#id113">May</textPath></text><path d="M 118.48025628344425 109.97397251340804 l 14.97883117359671 8.084219618873659 a38.02116300883387,38.02116300883387 0 0,0 -0.3157994175633452,0.5732676730190295 l -14.837455346581855 -8.340857810290492" fill="#ffc712" stroke="none" /><path d="M 118.30583269289576 110.29060199501025 l 40.4911122079918 22.76203038987956 a67.45040576044501,67.45040576044501 0 0,0 -0.5776581349870512,1.0071956492990255 l -40.09330207685237 -23.455645885036898" fill="#38ff7f" stroke="none" /><path d="M 116.71984013943494 112.70617746262583 l 3.7505704710111005 2.850231437222446 a25.710689769423535,25.710689769423535 0 0,0 -0.27081091912464944,0.3500596186478786 l -3.7009527346683826 -2.9143690499835775" fill="#ff1a02" stroke="none" /><path d="M 114.81725581225074 114.88116024355365 l 20.760020260187346 20.849554874786318 a50.42248085529354,50.42248085529354 0 0,0 -0.6203166823950329,0.6071104330785503 l -20.39805362541652 -21.203815410787442" fill="#9fff22" stroke="none" /><path d="M 112.92097659922987 116.55440617244103 l 1.821028677502538 2.33310912279161 a23.959652618659845,23.959652618659845 0 0,0 -0.32730171483662585,0.2509609980756173 l -1.7805982341724185 -2.364109462694599" fill="#ff0000" stroke="none" /><path d="M 112.04921762599082 117.19931262002967 l 11.825595608535114 16.880109738454514 a41.610259976013694,41.610259976013694 0 0,0 -0.5901585458527461,0.4059164291904468 l -11.533280178059485 -17.08116695701006" fill="#fff517" stroke="none" /><path d="M 111.45004920935366 117.60387380957326 l 7.230412008602028 11.11639419738687 a34.2609606652698,34.2609606652698 0 0,0 -0.49713991400295293,0.31729821447761974 l -7.037990292552144 -11.239206840688297" fill="#ff940d" stroke="none" /><line stroke="#e1ed5e" stroke-width="0.3" x1="143.8653032363475" x2="146.44561519142675" y1="172.8068346515853" y2="177.08958963109032" /><path d="M 144.38136562736335 173.6633856474863 a86.0,86.0 0 0,1 -40.68145358897372,12.25698825130547" fill="none" id="id114" stroke="none" /><text fill="#e1ed5e" style="font-size:6.75px; font-family:Arial;" text-anchor="middle"><textPath startOffset="21.466115282336833" xlink:href="#id114">June</textPath></text><path d="M 109.57404056367764 118.69057910512821 l 9.810656156756313 19.152503454678392 a42.519000041999355,42.519000041999355 0 0,0 -0.6542785101337445,0.32806882758012523 l -9.479523738939807 -19.318540123167818" fill="#feff18" stroke="none" /><path d="M 106.57524785965236 119.94407469862006 l 5.572831625842029 16.903540763937375 a38.79848708986462,38.79848708986462 0 0,0 -0.6360709975145289,0.2036498469440906 l -5.28103928323656 -16.99696345754117" fill="#ffd113" stroke="none" /><path d="M 106.2309692047433 120.05430185196036 l 3.8383926419057666 12.353822035988216 a33.93638964202549,33.93638964202549 0 0,0 -0.5593444634405642,0.16852589846204313 l -3.6251732040249567 -12.418063303555984" fill="#ff900d" stroke="none" /><path d="M 105.88484417918355 120.15858648285463 l 5.102034593401606 17.477065230276235 a39.20655283285656,39.20655283285656 0 0,0 -0.6494637017433749,0.1835449294302492 l -4.800439723553625 -17.562298953045" fill="#ffd614" stroke="none" /><path d="M 102.70371172650421 120.8252237178851 l 1.6377536735303828 12.61472749173479 a33.720596950846755,33.720596950846755 0 0,0 -0.5762570249521972,0.06977670055069474 l -1.4203692255268052 -12.641049721010836" fill="#ff8d0d" stroke="none" /><line stroke="#e1ed5e" stroke-width="0.3" x1="102.19456741930631" x2="102.32365962044197" y1="184.97166512339345" y2="189.96999836594603" /><path d="M 102.22038585953345 185.97133177190398 a86.0,86.0 0 0,1 -42.740103519485714,-10.115201625700543" fill="none" id="id115" stroke="none" /><text fill="#e1ed5e" style="font-size:6.75px; font-family:Arial;" text-anchor="middle"><textPath startOffset="22.20632615414155" xlink:href="#id115">July</textPath></text><path d="M 99.81925306533755 120.99922214144158 l -0.12912977552874008 15.002328235699059 a36.002883955779346,36.002883955779346 0 0,0 -0.6196615972254846,-0.010668036353838815 l 0.3873510626468926 -14.997882722066059" fill="#ffac0f" stroke="none" /><path d="M 98.01472825383883 120.90594882070398 l -2.2541819454904664 23.737713729167563 a44.8445043842661,44.8445043842661 0 0,0 -0.7678391427599832,-0.07958966665190496 l 2.6624536848560427 -23.695394694059896" fill="#e1ff1b" stroke="none" /><path d="M 97.2962882734958 120.8252237178851 l -3.443605342441825 26.524222589802072 a47.74682788197248,47.74682788197248 0 0,0 -0.8141320917170373,-0.11283128952346148 l 3.899666025345693 -26.461016734786003" fill="#beff1f" stroke="none" /><path d="M 96.22490169976321 120.6578951692458 l -2.7063717749188134 14.809665860031167 a36.05492115787558,36.05492115787558 0 0,0 -0.6095554602433348,-0.11682275470985468 l 2.9608948497338434 -14.760885906972844" fill="#ffac10" stroke="none" /><path d="M 95.51606077576429 120.51570834832081 l -8.565537761811802 39.190556735927295 a61.11568489283164,61.11568489283164 0 0,0 -1.0258117847989607,-0.23347142246379896 l 9.238869696003626 -39.03730857988581" fill="#30ff32" stroke="none" /><path d="M 94.46302465271185 120.25689768951611 l -9.445071349892045 34.55457754541923 a56.82217472665419,56.82217472665419 0 0,0 -0.9412696927579391,-0.2660122172622261 l 10.038472210754597 -34.386876534818484" fill="#59ff2a" stroke="none" /><path d="M 94.11515582081647 120.15858648285463 l -9.268487465406269 31.749286888097096 a54.07449285777618,54.07449285777618 0 0,0 -0.8912635820251678,-0.26853040611753654 l 9.813626021871682 -31.585041112873835" fill="#76ff27" stroke="none" /><path d="M 93.08242187328487 119.8279376855182 l -14.621405350930697 41.909510649881675 a65.38685140161184,65.38685140161184 0 0,0 -1.0595174535228213,-0.37990526300788297 l 15.340642365083246 -41.65161784583384" fill="#35ff66" stroke="none" /><path d="M 92.40401165467489 119.57807347666478 l -11.812492270700508 30.44578678963349 a53.65701925903802,53.65701925903802 0 0,0 -0.8582029472155708,-0.34149666398737577 l 12.334816293957937 -30.237943281240046" fill="#7bff26" stroke="none" /><path d="M 92.06813273071674 119.44442032107085 l -16.65833152987127 40.83673983917201 a65.10373374274928,65.10373374274928 0 0,0 -1.0339977760230945,-0.4322111542373577 l 17.358800765391827 -40.54394364191468" fill="#35ff63" stroke="none" /><path d="M 91.40352486487194 119.15986991738527 l -16.602358560278667 37.003425861940656 a61.55726612191947,61.55726612191947 0 0,0 -0.9630253340053588,-0.44207769743198605 l 17.236851890051447 -36.71216109417459" fill="#30ff38" stroke="none" /><path d="M 91.07499286063937 119.00905698771935 l -12.750087547962472 27.155960439376425 a51.00018199720937,51.00018199720937 0 0,0 -0.7914434877415546,-0.37994097005749583 l 13.21564370370427 -26.932465192819365" fill="#99ff23" stroke="none" /><path d="M 90.42595943632237 118.69057910512821 l -13.412833685451242 26.18472601557028 a50.420128891356995,50.420128891356995 0 0,0 -0.7690488561756345,-0.4023300140574745 l 13.861573444153372 -25.949966582568088" fill="#9fff22" stroke="none" /><path d="M 90.10565033884886 118.52300852407294 l -13.859911218897748 25.946854764850578 a50.41660094545216,50.41660094545216 0 0,0 -0.7619561449146879,-0.4154792428622821 l 14.304490175681078 -25.704434870228532" fill="#9fff22" stroke="none" /><line stroke="#e1ed5e" stroke-width="0.3" x1="58.666819895761336" x2="56.23545636021788" y1="174.27360380694188" y2="178.64263932499728" /><path d="M 58.180547188652646 175.14741091055294 a86.0,86.0 0 0,1 -31.652253787137756,-30.449443065178592" fill="none" id="id116" stroke="none" /><text fill="#e1ed5e" style="font-size:6.75px; font-family:Arial;" text-anchor="middle"><textPath startOffset="22.20632615414155" xlink:href="#id116">August</textPath></text><path d="M 88.8546689885994 117.79835938074946 l -26.59335510821452 42.46783616132466 a71.10712169080074,71.10712169080074 0 0,0 -1.0317920944405201,-0.6585385322252687 l 27.320429004701964 -42.003783200275585" fill="#3cffa8" stroke="none" /><path d="M 88.54995079064634 117.60387380957326 l -19.244604125675444 29.587609306240417 a56.295628800358394,56.295628800358394 0 0,0 -0.807776062280537,-0.5353499273971495 l 19.751054886695943 -29.251961357751952" fill="#5eff29" stroke="none" /><path d="M 87.95078237400918 117.19931262002967 l -18.143072230913987 25.89781186408017 a52.62068514949437,52.62068514949437 0 0,0 -0.7373728394935286,-0.5260959425154771 l 18.586172398256405 -25.581671659720474" fill="#86ff25" stroke="none" /><path d="M 87.36589467227662 116.77436683061367 l -35.385564987437576 46.981597209365425 a79.81673814334846,79.81673814334846 0 0,0 -1.0903394837468947,-0.8360258216763641 l 36.18903319967796 -46.3655320458617" fill="#48faff" stroke="none" /><path d="M 87.07902340077011 116.55440617244103 l -14.682733358915623 18.81157588038862 a44.863320095758525,44.863320095758525 0 0,0 -0.604677457377487,-0.480392342603247 l 15.004368309010468 -18.556049623780243" fill="#e1ff1b" stroke="none" /><path d="M 86.51685102203217 116.09983520530335 l -18.878950553198525 22.542804596480646 a50.40395913929319,50.40395913929319 0 0,0 -0.6603747274485212,-0.5627856692553909 l 19.264190757224103 -22.214494537002302" fill="#9fff22" stroke="none" /><path d="M 85.97065885151581 115.62618273729859 l -25.9413411264784 28.89402521491527 a59.83063059699751,59.83063059699751 0 0,0 -0.7604201077152775,-0.6946257390111676 l 26.434860783660532 -28.443206709317526" fill="#3aff2e" stroke="none" /><path d="M 85.70375840098266 115.38237550388516 l -24.505669745768785 26.36744849286289 a56.996808048943244,56.996808048943244 0 0,0 -0.7129056680267831,-0.6740968064475354 l 24.955911248186386 -25.941717049669425" fill="#57ff2a" stroke="none" /><path d="M 85.18274418774928 114.88116024355367 l -41.544933128452584 41.724109715449025 a79.88024116963538,79.88024116963538 0 0,0 -0.9660160056120886,-0.9785691135240844 l 42.25698975912021 -41.002800107944275" fill="#48faff" stroke="none" /><path d="M 84.67929136418377 114.36230785411682 l -23.087126593300965 21.642890513875383 a52.645380770828176,52.645380770828176 0 0,0 -0.6140797677260448,-0.6664623056395294 l 23.456252769022736 -21.24227695343451" fill="#86ff25" stroke="none" /><path d="M 84.43433777217949 114.09645910891817 l -24.949194804164044 22.594304001325888 a54.65954388699373,54.65954388699373 0 0,0 -0.6255684597855815,-0.702832796174817 l 25.334422113597963 -22.161497035410207" fill="#70ff27" stroke="none" /><line stroke="#e1ed5e" stroke-width="0.3" x1="26.63291911575756" x2="22.317208475507996" y1="142.92168965132927" y2="145.44649492493687" /><path d="M 25.769776987707644 143.4266507060508 a86.0,86.0 0 0,1 -11.730757126820373,-40.83630448921669" fill="none" id="id117" stroke="none" /><text fill="#e1ed5e" style="font-size:6.75px; font-family:Arial;" text-anchor="middle"><textPath startOffset="21.46611528233685" xlink:href="#id117">September</textPath></text><line stroke="#e1ed5e" stroke-width="0.3" x1="15.007084014347285" x2="10.007500721073583" y1="101.09737516637583" y2="101.16192664675087" /><path d="M 14.007167355692545 101.11028546245083 a86.0,86.0 0 0,1 10.666146001902534,-42.60595125391555" fill="none" id="id118" stroke="none" /><text fill="#e1ed5e" style="font-size:6.75px; font-family:Arial;" text-anchor="middle"><textPath startOffset="22.20632615414155" xlink:href="#id118">October</textPath></text><line stroke="#e1ed5e" stroke-width="0.3" x1="26.266209847984243" x2="21.928928074336255" y1="57.711370442889674" y2="55.22380399835377" /><path d="M 25.398753493254645 57.213857153982495 a86.0,86.0 0 0,1 29.58750427330803,-30.492523968695096" fill="none" id="id119" stroke="none" /><text fill="#e1ed5e" style="font-size:6.75px; font-family:Arial;" text-anchor="middle"><textPath startOffset="21.46611528233685" xlink:href="#id119">November</textPath></text><line stroke="#e1ed5e" stroke-width="0.3" x1="56.762969772571076" x2="54.21961505331055" y1="26.818313649435495" y2="22.513508569990535" /><path d="M 56.25429882871897 25.957352633546506 a86.0,86.0 0 0,1 42.265352541879196,-11.944610805530505" fill="none" id="id120" stroke="none" /><text fill="#e1ed5e" style="font-size:6.75px; font-family:Arial;" text-anchor="middle"><textPath startOffset="22.20632615414155" xlink:href="#id120">December</textPath></text></svg>