<?xml version="1.0" encoding="utf-8" ?>
<svg baseProfile="full" height="200mm" version="1.1" viewBox="0,0,200,200" width="200mm" xmlns="http://www.w3.org/2000/svg" xmlns:ev="http://www.w3.org/2001/xml-events" xmlns:xlink="http://www.w3.org/1999/xlink"><defs /><rect fill="#1a1a1a" height="200" width="200" x="0" y="0" /><text alignment-baseline="middle" fill="#e1ed5e" style="dominant-baseline: central; font-size:9.0px; font-family:Arial;" text-anchor="middle" x="100.0" y="100.0">2016</text><line stroke="#e1ed5e" stroke-width="0.3" x1="100.0" x2="100.0" y1="15.0" y2="10.0" /><path d="M 100.0 14.0 a86.0,86.0 0 0,1 42.35913384403234,11.155469271406648" fill="none" id="id1" stroke="none" /><text fill="#e1ed5e" style="font-size:6.75px; font-family:Arial;" text-anchor="middle"><textPath startOffset="22.145653131862478" xlink:href="#id1">January</textPath></text><line stroke="#e1ed5e" stroke-width="0.3" x1="143.13028292997686" x2="145.6673583964461" y1="26.7553504044142" y2="22.446841604673864" /><path d="M 143.63769802327073 25.89364864446614 a86.0,86.0 0 0,1 29.32050498858742,28.57503671076993" fill="none" id="id2" stroke="none" /><text fill="#e1ed5e" style="font-size:6.75px; font-family:Arial;" text-anchor="middle"><textPath startOffset="20.669276256404974" xlink:href="#id2">February</textPath></text><line stroke="#e1ed5e" stroke-width="0.3" x1="172.87174338648825" x2="177.1583165268699" y1="56.24261187166439" y2="53.66864786411523" /><path d="M 173.72905801456457 55.72781907015455 a86.0,86.0 0 0,1 12.242430191666344,42.057860355516425" fill="none" id="id3" stroke="none" /><text fill="#e1ed5e" style="font-size:6.75px; font-family:Arial;" text-anchor="middle"><textPath startOffset="22.145653131862474" xlink:href="#id3">March</textPath></text><line stroke="#e1ed5e" stroke-width="0.3" x1="184.99686870605535" x2="189.99668451229388" y1="99.2704041080226" y2="99.22748670261217" /><path d="M 185.99683186730306 99.26182062694052 a86.0,86.0 0 0,1 -10.086455211305974,41.156179273409016" fill="none" id="id4" stroke="none" /><text fill="#e1ed5e" style="font-size:6.75px; font-family:Arial;" text-anchor="middle"><textPath startOffset="21.40746469413373" xlink:href="#id4">April</textPath></text><line stroke="#e1ed5e" stroke-width="0.3" x1="174.33088141563837" x2="178.70328620479359" y1="141.23008692659167" y2="143.65538615756765" /><path d="M 175.20536237346943 141.71514677278685 a86.0,86.0 0 0,1 -30.301960400862466,31.631185727798858" fill="none" id="id5" stroke="none" /><text fill="#e1ed5e" style="font-size:6.75px; font-family:Arial;" text-anchor="middle"><textPath startOffset="22.145653131862474" xlink:href="#id5">May</textPath></text><line stroke="#e1ed5e" stroke-width="0.3" x1="143.1302829299769" x2="145.66735839644613" y1="173.24464959558577" y2="177.55315839532614" /><path d="M 143.63769802327073 174.10635135553383 a86.0,86.0 0 0,1 -40.68552437913181,11.842963189579606" fill="none" id="id6" stroke="none" /><text fill="#e1ed5e" style="font-size:6.75px; font-family:Arial;" text-anchor="middle"><textPath startOffset="21.407464694133747" xlink:href="#id6">June</textPath></text><line stroke="#e1ed5e" stroke-width="0.3" x1="101.45913802915013" x2="101.54496967792366" y1="184.9874750549273" y2="189.98673829345242" /><path d="M 101.47630435890484 185.9873277026323 a86.0,86.0 0 0,1 -42.54439059252881,-10.42667462771756" fill="none" id="id7" stroke="none" /><text fill="#e1ed5e" style="font-size:6.75px; font-family:Arial;" text-anchor="middle"><textPath startOffset="22.145653131862474" xlink:href="#id7">July</textPath></text><path d="M 93.95794788825049 120.11202640906438 l -10.61379820674929 35.329882279484686 a57.88974510966212,57.88974510966212 0 0,0 -0.9492798090088423,-0.2940893113953385 l 11.218718648629766 -35.142476380282694" fill="#52ff2b" stroke="none" /><line stroke="#e1ed5e" stroke-width="0.3" x1="58.13341422392154" x2="55.67067388415222" y1="173.97424548756322" y2="178.32567169271397" /><path d="M 57.64086615596768 174.84453072859336 a86.0,86.0 0 0,1 -31.369924170532247,-30.572349798747897" fill="none" id="id8" stroke="none" /><text fill="#e1ed5e" style="font-size:6.75px; font-family:Arial;" text-anchor="middle"><textPath startOffset="22.145653131862474" xlink:href="#id8">August</textPath></text><path d="M 87.2517909369889 116.68781488649013 l -8.380417220438247 10.970235156560495 a34.80497925311204,34.80497925311204 0 0,0 -0.47167385583870874,-0.3667764431939907 l 8.567501020912184 -10.82475766174571" fill="#ff900d" stroke="none" /><path d="M 81.99639281039703 110.81064883170644 l -5.3471633174980235 3.21081793567661 a27.2371072910492,27.2371072910492 0 0,0 -0.23725633254995332,-0.4029131218584488 l 5.4014933601777475 -3.118553645524602" fill="#ff2203" stroke="none" /><line stroke="#e1ed5e" stroke-width="0.3" x1="26.387840678322732" x2="22.057713659400548" y1="142.50000000000003" y2="145.00000000000006" /><path d="M 25.521815274538298 143.00000000000003 a86.0,86.0 0 0,1 -11.493303480769221,-40.785679425670985" fill="none" id="id9" stroke="none" /><text fill="#e1ed5e" style="font-size:6.75px; font-family:Arial;" text-anchor="middle"><textPath startOffset="21.40746469413373" xlink:href="#id9">September</textPath></text><path d="M 80.05021161711548 106.5578916946017 l -12.273847280135232 4.034657390564779 a33.91997628927089,33.91997628927089 0 0,0 -0.177086963871571,-0.5547223921042564 l 12.341298959784059 -3.8233659647691307" fill="#ff840c" stroke="none" /><path d="M 79.407916724674 104.11899336999214 l -20.488329447323462 4.098239698596209 a41.89419087136929,41.89419087136929 0 0,0 -0.1350064394335512,-0.7064107394074569 l 20.55566217903917 -3.7459263941554375" fill="#ffef16" stroke="none" /><path d="M 79.2786578344484 103.40968896794605 l -12.06829403849681 1.9858331915101701 a33.23058684054535,33.23058684054535 0 0,0 -0.08778968444205613,-0.5636727501883567 l 12.100605215077133 -1.7783722593903635" fill="#ff7a0b" stroke="none" /><line stroke="#e1ed5e" stroke-width="0.3" x1="15.003131293944662" x2="10.003315487706104" y1="100.72959589197737" y2="100.7725132973878" /><path d="M 14.003168132696942 100.73817937305945 a86.0,86.0 0 0,1 10.791469493833604,-42.45332614584628" fill="none" id="id10" stroke="none" /><text fill="#e1ed5e" style="font-size:6.75px; font-family:Arial;" text-anchor="middle"><textPath startOffset="22.145653131862435" xlink:href="#id10">October</textPath></text><path d="M 80.9802524753101 91.09779779509293 l -22.1636671764974 -10.373715347762403 a45.471250740960286,45.471250740960286 0 0,0 0.3369652277047362,-0.7041277264963774 l 21.982322690832756 10.752655576323868" fill="#e1ff1b" stroke="none" /><path d="M 81.63589988554816 89.8137432299009 l -10.350443702128807 -5.74121664428131 a32.83609958506224,32.83609958506224 0 0,0 0.2776474147210821,-0.49057637815070754 l 10.250362922386355 5.918049792531122" fill="#ff740a" stroke="none" /><line stroke="#e1ed5e" stroke-width="0.3" x1="26.387840678322718" x2="22.05771365940052" y1="57.49999999999999" y2="54.99999999999999" /><path d="M 25.521815274538284 56.99999999999999 a86.0,86.0 0 0,1 29.574782752854787,-30.34633250058573" fill="none" id="id11" stroke="none" /><text fill="#e1ed5e" style="font-size:6.75px; font-family:Arial;" text-anchor="middle"><textPath startOffset="21.40746469413373" xlink:href="#id11">November</textPath></text><path d="M 81.99639281039701 89.18935116829357 l -19.719252823500856 -11.840844740359177 a44.001185536455246,44.001185536455246 0 0,0 0.39440155809061384,-0.6442253047132178 l 19.51308330095485 12.177607161196939" fill="#f4ff19" stroke="none" /><path d="M 83.8745106332314 86.54754324733833 l -22.50021707675235 -18.770481333377703 a50.3017190278601,50.3017190278601 0 0,0 0.5588411673398754,-0.6583134899402452 l 22.174681345905363 19.153961605767503" fill="#a7ff21" stroke="none" /><path d="M 84.58840730492382 85.73525988315684 l -4.838771150459603 -4.478694338206636 a27.593360995850624,27.593360995850624 0 0,0 0.3247399141777897,-0.34486253534262024 l 4.7611754025455415 4.561098333493768" fill="#ff2803" stroke="none" /><path d="M 84.83555147118756 85.47280134310135 l -8.672033899835602 -8.30761230669936 a33.00918790752816,33.00918790752816 0 0,0 0.39550225527749566,-0.40582015576171665 l 8.528144843407304 8.455255154528807" fill="#ff770a" stroke="none" /><path d="M 85.08716467003674 85.21462403516908 l -17.24171616839218 -17.094351958435432 a45.279490219324245,45.279490219324245 0 0,0 0.5519959689782242,-0.5472780830628458 l 16.94572827928398 17.38781005172695" fill="#e4ff1a" stroke="none" /><path d="M 85.34317274990677 84.96080404539775 l -7.929961224946003 -8.136838808249037 a32.361885002963845,32.361885002963845 0 0,0 0.401175670263552,-0.3843172171516821 l 7.789113068817151 8.271768155706289" fill="#ff6e0a" stroke="none" /><path d="M 85.60350026404147 84.71141617570332 l -6.613075858896351 -7.022857393081319 a30.646413752222877,30.646413752222877 0 0,0 0.3861013664206102,-0.35736966060020975 l 6.491544721161787 7.135344799813894" fill="#ff5507" stroke="none" /><path d="M 86.13680546590413 84.22622945171909 l -41.502711183325545 -47.222466779013885 a83.86840545346769,83.86840545346769 0 0,0 1.089572476536924,-0.9411467545684914 l 40.685959227025776 47.927957666047085" fill="#4dd3ff" stroke="none" /><path d="M 86.68645165197937 83.75963576809568 l -11.461594576630286 -13.981281754279212 a39.078838174273855,39.078838174273855 0 0,0 0.5224454148971146,-0.4208450442706518 l 11.219898391377926 14.175975092343265" fill="#ffca12" stroke="none" /><path d="M 86.96720088162412 83.53348406188908 l -9.244763650458287 -11.680456869752655 a35.89626556016597,35.89626556016597 0 0,0 0.48646286681693307,-0.3782764675811929 l 9.042890839006109 11.837434388954653" fill="#ff9f0e" stroke="none" /><path d="M 87.25179093698888 83.31218511350988 l -6.1709723437372 -8.078000888825445 a31.16538233550682,31.16538233550682 0 0,0 0.42792594504271564,-0.32112360692601377 l 6.031393409783732 8.18274352301546" fill="#ff5c08" stroke="none" /><path d="M 88.12776184653039 82.6780497279521 l -7.205379866704774 -10.512864560908405 a33.74510966212211,33.74510966212211 0 0,0 0.48063274088166064,-0.3233911580228885 l 7.023850837726124 10.635005392988404" fill="#ff810b" stroke="none" /><path d="M 88.4268655584334 82.4767994020092 l -9.257658196842966 -14.017274444532736 a37.79845880260818,37.79845880260818 0 0,0 0.5445036603014222,-0.3529406941007906 l 9.015668904284519 14.174128980337432" fill="#ffb911" stroke="none" /><path d="M 88.72937992617638 82.28071324371311 l -6.893062498646129 -10.8370391551209 a33.84350918790753,33.84350918790753 0 0,0 0.49288376749035906,-0.3075959244398155 l 6.706014602366072 10.95377087640225" fill="#ff830c" stroke="none" /><line stroke="#e1ed5e" stroke-width="0.3" x1="56.869717070023135" x2="54.33264160355391" y1="26.7553504044142" y2="22.446841604673864" /><path d="M 56.362301976729285 25.89364864446614 a86.0,86.0 0 0,1 42.16139366436587,-11.88097634709845" fill="none" id="id12" stroke="none" /><text fill="#e1ed5e" style="font-size:6.75px; font-family:Arial;" text-anchor="middle"><textPath startOffset="22.145653131862474" xlink:href="#id12">December</textPath></text><path d="M 89.34428304082924 81.90426304109057 l -6.044164967243526 -10.2643134950542 a32.91167753408418,32.91167753408418 0 0,0 0.48929874388051176,-0.2824967614935577 l 5.867073755502615 10.366557153823932" fill="#ff750a" stroke="none" /><path d="M 89.97174638481275 81.54914285379989 l -5.344608815546069 -9.833478244768235 a32.19205690574985,32.19205690574985 0 0,0 0.4878034547735738,-0.25972786402806813 l 5.175016544985934 9.923776576518879" fill="#ff6b09" stroke="none" /><path d="M 91.26138138417902 80.90454125486306 l -7.179199334221626 -15.687846184469777 a38.2525192649674,38.2525192649674 0 0,0 0.5994472093860955,-0.2681251120977176 l 6.908838721979912 15.80877504747734" fill="#ffbf11" stroke="none" /><path d="M 91.5904679813234 80.7573450057729 l -3.5189857287061064 -8.052128008635213 a29.787492590397157,29.787492590397157 0 0,0 0.4703089400760177,-0.2007469202201842 l 3.380241713459658 8.111349578514803" fill="#ff4806" stroke="none" /><path d="M 92.25597844496254 80.48000691201159 l -14.15813577553213 -35.687750933158576 a59.39359810314167,59.39359810314167 0 0,0 0.9509416720279966,-0.36784466729423176 l 13.543421841010606 35.92553548859085" fill="#43ff2d" stroke="none" /><path d="M 93.61358852112211 79.99465700312896 l -3.5869145680123284 -11.235958796405033 a32.794605809128626,32.794605809128626 0 0,0 0.537768081031255,-0.16660192615495054 l 3.3935058541094576 11.295877310366626" fill="#ff740a" stroke="none" /><path d="M 94.30408787586887 79.78721728523814 l -9.428312609795794 -33.45775531565494 a55.76081802015411,55.76081802015411 0 0,0 0.9235547431669707,-0.25171895211567424 l 8.852576465694145 33.614674761914756" fill="#69ff28" stroke="none" /><path d="M 96.76829788921471 79.25015418208739 l -3.199136055134232 -20.540748379320735 a41.78838174273859,41.78838174273859 0 0,0 0.7097555545198588,-0.10430962473956368 l 2.8460553950066885 20.592639077359184" fill="#ffee16" stroke="none" /><path d="M 97.48249496171623 79.15144685158666 l -7.5525151148513325 -62.54565944524002 a84.0,84.0 0 0,0 1.4330563935968028,-0.16057695797211657 l 6.477722819653731 62.666092163719114" fill="#4dd2ff" stroke="none" /><path d="M 98.1996594967304 79.07731436759882 l -0.34073681300766695 -3.9598782613613897 a24.97451096621221,24.97451096621221 0 0,0 0.4274577895991913,-0.033087936346978285 l 0.2727100286332585 3.965143964703422" fill="#ff0000" stroke="none" /><path d="M 98.5590905019552 79.04949213459386 l -0.2805395111853693 -4.078982922675893 a25.08861885002964,25.08861885002964 0 0,0 0.42991815192279026,-0.02586280843872571 l 0.21047700713009523 4.083197708939313" fill="#ff0200" stroke="none" /><path d="M 99.63950707515114 79.00309439819443 l -0.1593863699542743 -9.283456993081023 a30.28482513337285,30.28482513337285 0 0,0 0.5198792948031241,-0.0044625384862612355 l 2.274126276045591e-15 9.284825133372848" fill="#ff5007" stroke="none" /></svg>