<?xml version="1.0" encoding="utf-8" ?>
<svg baseProfile="full" height="200mm" version="1.1" viewBox="0,0,200,200" width="200mm" xmlns="http://www.w3.org/2000/svg" xmlns:ev="http://www.w3.org/2001/xml-events" xmlns:xlink="http://www.w3.org/1999/xlink"><defs /><rect fill="#1a1a1a" height="200" width="200" x="0" y="0" /><text alignment-baseline="middle" fill="#e1ed5e" style="dominant-baseline: central; font-size:9.0px; font-family:Arial;" text-anchor="middle" x="100.0" y="100.0">2016</text><line stroke="#e1ed5e" stroke-width="0.3" x1="100.0" x2="100.0" y1="15.0" y2="10.0" /><path d="M 100.0 14.0 a86.0,86.0 0 0,1 42.35913384403234,11.155469271406648" fill="none" id="id1" stroke="none" /><text fill="#e1ed5e" style="font-size:6.75px; font-family:Arial;" text-anchor="middle"><textPath startOffset="22.145653131862478" xlink:href="#id1">January</textPath></text><line stroke="#e1ed5e" stroke-width="0.3" x1="143.13028292997686" x2="145.6673583964461" y1="26.7553504044142" y2="22.446841604673864" /><path d="M 143.63769802327073 25.89364864446614 a86.0,86.0 0 0,1 29.32050498858742,28.57503671076993" fill="none" id="id2" stroke="none" /><text fill="#e1ed5e" style="font-size:6.75px; font-family:Arial;" text-anchor="middle"><textPath startOffset="20.669276256404974" xlink:href="#id2">February</textPath></text><line stroke="#e1ed5e" stroke-width="0.3" x1="172.87174338648825" x2="177.1583165268699" y1="56.24261187166439" y2="53.66864786411523" /><path d="M 173.72905801456457 55.72781907015455 a86.0,86.0 0 0,1 12.242430191666344,42.057860355516425" fill="none" id="id3" stroke="none" /><text fill="#e1ed5e" style="font-size:6.75px; font-family:Arial;" text-anchor="middle"><textPath startOffset="22.145653131862474" xlink:href="#id3">March</textPath></text><line stroke="#e1ed5e" stroke-width="0.3" x1="184.99686870605535" x2="189.99668451229388" y1="99.2704041080226" y2="99.22748670261217" /><path d="M 185.99683186730306 99.26182062694052 a86.0,86.0 0 0,1 -10.086455211305974,41.156179273409016" fill="none" id="id4" stroke="none" /><text fill="#e1ed5e" style="font-size:6.75px; font-family:Arial;" text-anchor="middle"><textPath startOffset="21.40746469413373" xlink:href="#id4">April</textPath></text><line stroke="#e1ed5e" stroke-width="0.3" x1="174.33088141563837" x2="178.70328620479359" y1="141.23008692659167" y2="143.65538615756765" /><path d="M 175.20536237346943 141.71514677278685 a86.0,86.0 0 0,1 -30.301960400862466,31.631185727798858" fill="none" id="id5" stroke="none" /><text fill="#e1ed5e" style="font-size:6.75px; font-family:Arial;" text-anchor="middle"><textPath startOffset="22.145653131862474" xlink:href="#id5">May</textPath></text><line stroke="#e1ed5e" stroke-width="0.3" x1="143.1302829299769" x2="145.66735839644613" y1="173.24464959558577" y2="177.55315839532614" /><path d="M 143.63769802327073 174.10635135553383 a86.0,86.0 0 0,1 -40.68552437913181,11.842963189579606" fill="none" id="id6" stroke="none" /><text fill="#e1ed5e" style="font-size:6.75px; font-family:Arial;" text-anchor="middle"><textPath startOffset="21.407464694133747" xlink:href="#id6">June</textPath></text><line stroke="#e1ed5e" stroke-width="0.3" x1="101.45913802915013" x2="101.54496967792366" y1="184.9874750549273" y2="189.98673829345242" /><path d="M 101.47630435890484 185.9873277026323 a86.0,86.0 0 0,1 -42.54439059252881,-10.42667462771756" fill="none" id="id7" stroke="none" /><text fill="#e1ed5e" style="font-size:6.75px; font-family:Arial;" text-anchor="middle"><textPath startOffset="22.145653131862474" xlink:href="#id7">July</textPath></text><path d="M 93.95794788825049 120.11202640906438 l -10.404606011365024 34.633549497124704 a57.16266827850954,57.16266827850954 0 0,0 -0.9373571557979185,-0.29039564295371534 l 10.997603800034575 -34.44983726636434" fill="#57ff2a" stroke="none" /><line stroke="#e1ed5e" stroke-width="0.3" x1="58.13341422392154" x2="55.67067388415222" y1="173.97424548756322" y2="178.32567169271397" /><path d="M 57.64086615596768 174.84453072859336 a86.0,86.0 0 0,1 -31.369924170532247,-30.572349798747897" fill="none" id="id8" stroke="none" /><text fill="#e1ed5e" style="font-size:6.75px; font-family:Arial;" text-anchor="middle"><textPath startOffset="22.145653131862474" xlink:href="#id8">August</textPath></text><path d="M 87.2517909369889 116.68781488649013 l -8.32444085106678 10.89696029218765 a34.71276992778716,34.71276992778716 0 0,0 -0.47042424360064417,-0.36580473715945966 l 8.510275039302654 -10.752454503407398" fill="#ff970d" stroke="none" /><path d="M 81.99639281039703 110.81064883170644 l -5.3443999907086654 3.2091586373364276 a27.233884055729444,27.233884055729444 0 0,0 -0.23722825567002848,-0.4028654411781442 l 5.398701956508464 -3.1169420278647246" fill="#ff2c04" stroke="none" /><line stroke="#e1ed5e" stroke-width="0.3" x1="26.387840678322732" x2="22.057713659400548" y1="142.50000000000003" y2="145.00000000000006" /><path d="M 25.521815274538298 143.00000000000003 a86.0,86.0 0 0,1 -11.493303480769221,-40.785679425670985" fill="none" id="id9" stroke="none" /><text fill="#e1ed5e" style="font-size:6.75px; font-family:Arial;" text-anchor="middle"><textPath startOffset="21.40746469413373" xlink:href="#id9">September</textPath></text><path d="M 80.05021161711548 106.5578916946017 l -12.093617907714057 3.9754124160397306 a33.730259148005786,33.730259148005786 0 0,0 -0.1760965023142126,-0.5516197853828286 l 12.160079125805524 -3.7672235969655103" fill="#ff890c" stroke="none" /><path d="M 79.407916724674 104.11899336999214 l -20.077766104805207 4.016115531595542 a41.47549451716338,41.47549451716338 0 0,0 -0.13365716635273897,-0.6993507725001133 l 20.143749563440103 -3.670862194062114" fill="#fff016" stroke="none" /><path d="M 79.2786578344484 103.40968896794605 l -11.931507850274828 1.9633250762914924 a33.09196116998251,33.09196116998251 0 0,0 -0.0874234584728105,-0.5613213167530158 l 11.963452800885905 -1.7582155776070265" fill="#ff800b" stroke="none" /><line stroke="#e1ed5e" stroke-width="0.3" x1="15.003131293944662" x2="10.003315487706104" y1="100.72959589197737" y2="100.7725132973878" /><path d="M 14.003168132696942 100.73817937305945 a86.0,86.0 0 0,1 10.791469493833604,-42.45332614584628" fill="none" id="id10" stroke="none" /><text fill="#e1ed5e" style="font-size:6.75px; font-family:Arial;" text-anchor="middle"><textPath startOffset="22.145653131862435" xlink:href="#id10">October</textPath></text><path d="M 80.9802524753101 91.09779779509293 l -22.063385339242764 -10.32677838440043 a45.360527999787536,45.360527999787536 0 0,0 0.3361447155551163,-0.7024131716789268 l 21.88286136572774 10.704004058144445" fill="#ddff1b" stroke="none" /><path d="M 81.63589988554816 89.8137432299009 l -10.274054519170795 -5.698844852185925 a32.74874584422439,32.74874584422439 0 0,0 0.2769087904442548,-0.48927129982716494 l 10.17471236370517 5.874372922112195" fill="#ff7c0b" stroke="none" /><line stroke="#e1ed5e" stroke-width="0.3" x1="26.387840678322718" x2="22.05771365940052" y1="57.49999999999999" y2="54.99999999999999" /><path d="M 25.521815274538284 56.99999999999999 a86.0,86.0 0 0,1 29.574782752854787,-30.34633250058573" fill="none" id="id11" stroke="none" /><text fill="#e1ed5e" style="font-size:6.75px; font-family:Arial;" text-anchor="middle"><textPath startOffset="21.40746469413373" xlink:href="#id11">November</textPath></text><path d="M 81.99639281039701 89.18935116829357 l -19.61480399962245 -11.77812622267866 a43.87935299043562,43.87935299043562 0 0,0 0.39330952056047785,-0.6424415434775472 l 19.40972651460658 12.11310488228075" fill="#efff19" stroke="none" /><path d="M 83.8745106332314 86.54754324733833 l -22.370065918139762 -18.661904607876718 a50.132224988411174,50.132224988411174 0 0,0 0.5569581253943243,-0.6560952712632275 l 22.046413229238325 19.043166661589503" fill="#a4ff21" stroke="none" /><path d="M 84.58840730492382 85.73525988315684 l -5.597382053673897 -5.180853264818606 a28.62705227505176,28.62705227505176 0 0,0 0.3369051889098017,-0.3577816355334403 l 5.507621031027824 5.2761763602965575" fill="#ff4106" stroke="none" /><path d="M 84.83555147118756 85.47280134310135 l -8.649318634367724 -8.285851596221226 a32.977731400954966,32.977731400954966 0 0,0 0.39512535659923365,-0.40543342451485853 l 8.505806476617687 8.433107712803816" fill="#ff7f0b" stroke="none" /><path d="M 85.08716467003674 85.21462403516908 l -17.228314569044624 -17.081064901983762 a45.260618316022715,45.260618316022715 0 0,0 0.5517659042292853,-0.5470499846674668 l 16.932556744685364 17.374294896879903" fill="#deff1b" stroke="none" /><path d="M 85.34317274990677 84.96080404539775 l -7.9085971643904545 -8.114917400048034 a32.331275017322945,32.331275017322945 0 0,0 0.4007962120983332,-0.3839537048130935 l 7.768128466426821 8.249483235166696" fill="#ff760a" stroke="none" /><path d="M 85.60350026404147 84.71141617570332 l -6.46523719638157 -6.865857856681254 a30.430763283723515,30.430763283723515 0 0,0 0.38338447624122307,-0.3548549476109843 l 6.346422948826393 6.975830550424604" fill="#ff5b08" stroke="none" /><path d="M 86.13680546590413 84.22622945171909 l -40.81701385434283 -46.44226909035412 a82.82970951125742,82.82970951125742 0 0,0 1.0760783066644466,-0.9294908120272083 l 40.01375606791554 47.136104034846035" fill="#4bddff" stroke="none" /><path d="M 86.68645165197937 83.75963576809568 l -11.346930566677901 -13.841410306244528 a38.89797397894023,38.89797397894023 0 0,0 0.5200274394918654,-0.4188972944436811 l 11.10765235683079 14.034155894481609" fill="#ffcf13" stroke="none" /><path d="M 86.96720088162412 83.53348406188908 l -8.998378079436563 -11.369156749548289 a35.49925974856247,35.49925974856247 0 0,0 0.4810826808214869,-0.3740928024093699 l 8.801885453979832 11.521950603578464" fill="#ffa20e" stroke="none" /><path d="M 87.25179093698888 83.31218511350988 l -6.025138885954273 -7.887100211270708 a30.925152308033603,30.925152308033603 0 0,0 0.4246273921667256,-0.31864831135339233 l 5.8888585048767945 7.989367549888102" fill="#ff6209" stroke="none" /><path d="M 88.12776184653039 82.6780497279521 l -6.73304528664556 -9.82371429271207 a32.90962893363414,32.90962893363414 0 0,0 0.46873296054289,-0.3153844547406405 l 6.563416038005681 9.937848421509822" fill="#ff7e0b" stroke="none" /><path d="M 88.4268655584334 82.4767994020092 l -9.173124832953834 -13.889280157407551 a37.645069014333025,37.645069014333025 0 0,0 0.5422940119767418,-0.35150842675294647 l 8.933345188720065 14.044702425864402" fill="#ffbe11" stroke="none" /><path d="M 88.72937992617638 82.28071324371311 l -6.681888211588354 -10.505038100749298 a33.450038376260444,33.450038376260444 0 0,0 0.48715341089626807,-0.3040197581097614 l 6.500570671902387 10.618193655700594" fill="#ff850c" stroke="none" /><line stroke="#e1ed5e" stroke-width="0.3" x1="56.869717070023135" x2="54.33264160355391" y1="26.7553504044142" y2="22.446841604673864" /><path d="M 56.362301976729285 25.89364864446614 a86.0,86.0 0 0,1 42.16139366436587,-11.88097634709845" fill="none" id="id12" stroke="none" /><text fill="#e1ed5e" style="font-size:6.75px; font-family:Arial;" text-anchor="middle"><textPath startOffset="22.145653131862474" xlink:href="#id12">December</textPath></text><path d="M 89.34428304082924 81.90426304109057 l -5.794640670938733 -9.840566688706982 a32.41992177119383,32.41992177119383 0 0,0 0.48198779849253925,-0.2782757852057811 l 5.624860404585794 9.938589371188936" fill="#ff770b" stroke="none" /><path d="M 89.97174638481275 81.54914285379989 l -5.286159323964797 -9.725937763562133 a32.06965879234875,32.06965879234875 0 0,0 0.4859487667444854,-0.2587403471182973 l 5.11842174143375 9.815248578403006" fill="#ff720a" stroke="none" /><path d="M 91.26138138417902 80.90454125486306 l -7.145915664612904 -15.615115359628716 a38.17253441924845,38.17253441924845 0 0,0 0.59819378363844,-0.2675644707037232 l 6.876808478118845 15.735483581242283" fill="#ffc512" stroke="none" /><path d="M 91.5904679813234 80.7573450057729 l -3.489350089209844 -7.984315865808077 a29.713487470012414,29.713487470012414 0 0,0 0.46914048759138105,-0.20024817733497235 l 3.3517745264480316 8.043038692802455" fill="#ff5107" stroke="none" /><path d="M 92.25597844496254 80.48000691201159 l -14.035301741404227 -35.37812892602629 a59.060500538994525,59.060500538994525 0 0,0 0.9456084986774199,-0.36578168127261634 l 13.425920980233279 35.61385049543695" fill="#43ff2d" stroke="none" /><path d="M 93.61358852112211 79.99465700312896 l -3.510560385725913 -10.99678040789416 a32.54353557456609,32.54353557456609 0 0,0 0.5336510149798869,-0.16532644856812587 l 3.32126873787441 11.055423444268929" fill="#ff790b" stroke="none" /><path d="M 94.30408787586887 79.78721728523814 l -9.357801148457646 -33.207535014521746 a55.50085251228965,55.50085251228965 0 0,0 0.9192489889407458,-0.2505453996544781 l 8.786370758582223 33.36328090832036" fill="#68ff28" stroke="none" /><path d="M 96.76829788921471 79.25015418208739 l -3.1970337534677413 -20.52725009453241 a41.77472072650539,41.77472072650539 0 0,0 0.7095235287330841,-0.10427552493915458 l 2.8441851191269722 20.57910669277045" fill="#fff417" stroke="none" /><path d="M 97.48249496171623 79.15144685158666 l -7.5525151148513325 -62.54565944524002 a84.0,84.0 0 0,0 1.4330563935968028,-0.16057695797211657 l 6.477722819653731 62.666092163719114" fill="#4dd2ff" stroke="none" /><path d="M 98.1996594967304 79.07731436759882 l -0.27976980124407086 -3.2513491699145085 a24.263363688955295,24.263363688955295 0 0,0 0.4152859619455094,-0.03214575990656518 l 0.22391484452334437 3.255672696816127" fill="#ff0000" stroke="none" /><path d="M 98.5590905019552 79.04949213459386 l -0.2552303719565564 -3.710993592881487 a24.719760205870337,24.719760205870337 0 0,0 0.42359739638157695,-0.025482567481186953 l 0.19148862344249565 3.714828138187368" fill="#ff0701" stroke="none" /><path d="M 99.63950707515114 79.00309439819443 l -0.15900787533336516 -9.261411578932181 a30.262776470302903,30.262776470302903 0 0,0 0.519500800182215,-0.004459289565156791 l 2.2687259111147737e-15 9.262776470302903" fill="#ff5908" stroke="none" /></svg>