<?xml version="1.0" encoding="utf-8" ?>
<svg baseProfile="full" height="200mm" version="1.1" viewBox="0,0,200,200" width="200mm" xmlns="http://www.w3.org/2000/svg" xmlns:ev="http://www.w3.org/2001/xml-events" xmlns:xlink="http://www.w3.org/1999/xlink"><defs /><rect fill="#1a1a1a" height="200" width="200" x="0" y="0" /><text alignment-baseline="middle" fill="#e1ed5e" style="dominant-baseline: central; font-size:9.0px; font-family:Arial;" text-anchor="middle" x="100.0" y="100.0">2023</text><line stroke="#e1ed5e" stroke-width="0.3" x1="100.0" x2="100.0" y1="15.0" y2="10.0" /><path d="M 100.0 14.0 a86.0,86.0 0 0,1 42.46469731375804,11.215312516191453" fill="none" id="id85" stroke="none" /><text fill="#e1ed5e" style="font-size:6.75px; font-family:Arial;" text-anchor="middle"><textPath startOffset="22.20632615414155" xlink:href="#id85">January</textPath></text><path d="M 100.72285384407766 79.0124445844662 l 0.6114421818238681 -17.7527957823859 a38.76332231404959,38.76332231404959 0 0,0 0.6666537724174381,0.028707513783756314 l -0.9169367866306377 17.739640542077947" fill="#ffc011" stroke="none" /><path d="M 101.80526077348638 79.07773832637324 l 1.6530220880925335 -19.15787524290208 a40.22905785123967,40.22905785123967 0 0,0 0.6894012895949567,0.06546695936826241 l -1.9825485047777345 19.126582739018637" fill="#ffd413" stroke="none" /><path d="M 102.88285421437855 79.19881850522331 l 3.2569853843347825 -23.500718061800104 a44.725338842975205,44.725338842975205 0 0,0 0.761674691956527,0.11225105022830763 l -3.6610290567199653 23.441172527410828" fill="#f0ff19" stroke="none" /><path d="M 103.2404852339499 79.25152402106235 l 1.8294012093480831 -11.713457802654803 a32.85545454545455,32.85545454545455 0 0,0 0.5580276693045417,0.0920793468008236 l -2.0307580847915 11.680232192914355" fill="#ff6d0a" stroke="none" /><path d="M 103.95276090670814 79.375362276772 l 3.362572169013027 -17.54516259417753 a38.86447933884297,38.86447933884297 0 0,0 0.655946521726516,0.13157670143384806 l -3.6640851002066683 17.484681936666473" fill="#ffc112" stroke="none" /><path d="M 104.66035177308747 79.52364482259891 l 3.2897901856430227 -14.454469443564554 a35.82411570247934,35.82411570247934 0 0,0 0.6000988256974357,0.14202400362713818 l -3.5381126983029816 14.395699527796546" fill="#ff970e" stroke="none" /><path d="M 106.0581310904928 79.89281104454417 l 5.989953870239451 -19.88090592697483 a41.763669421487606,41.763669421487606 0 0,0 0.6865442654081723,0.21331264518856002 l -6.331283508358342 19.774853146903748" fill="#ffe815" stroke="none" /><path d="M 107.76421540070413 80.48803036053334 l 5.26133302407101 -13.222066226999154 a35.230413223140495,35.230413223140495 0 0,0 0.561532742231033,0.22906330480351966 l -5.488149635890431 13.129542036012054" fill="#ff8f0d" stroke="none" /><path d="M 109.08828744355905 81.06846463323043 l 6.568095678484098 -13.681800493411085 a36.176677685950416,36.176677685950416 0 0,0 0.5590653034854034,0.27433091642633195 l -6.802632248979934 13.566714416849921" fill="#ff9c0e" stroke="none" /><line stroke="#e1ed5e" stroke-width="0.3" x1="143.23703022742887" x2="145.7803849466894" y1="26.81831364943548" y2="22.513508569990506" /><path d="M 143.74570117128098 25.957352633546492 a86.0,86.0 0 0,1 28.547481713284135,27.462654790039103" fill="none" id="id86" stroke="none" /><text fill="#e1ed5e" style="font-size:6.75px; font-family:Arial;" text-anchor="middle"><textPath startOffset="19.985693538727396" xlink:href="#id86">February</textPath></text><path d="M 110.99172775467656 82.1063720568725 l 7.902987369380124 -12.865412861663902 a36.09887603305785,36.09887603305785 0 0,0 0.5266668684484217,0.32979874470589027 l -8.12327339020081 12.727469775635068" fill="#ff9b0e" stroke="none" /><path d="M 112.19680574252982 82.90503203632743 l 7.2300418040659125 -10.133582154673565 a33.4484132231405,33.4484132231405 0 0,0 0.465816433697205,0.33843544932480685 l -7.403403554116906 10.007627470532084" fill="#ff760a" stroke="none" /><path d="M 113.34407831869373 83.78471172551755 l 9.466323819225012 -11.50316761954973 a35.89745454545454,35.89745454545454 0 0,0 0.4737480461726381,0.3967503644051418 l -9.662929402356768 11.338516097750768" fill="#ff980e" stroke="none" /><path d="M 114.16331599549186 84.49514656593476 l 7.980786098191731 -8.73671947872056 a32.83314049586777,32.83314049586777 0 0,0 0.4139979406458066,0.3847659667047648 l -8.129991922632385 8.598048925941155" fill="#ff6d0a" stroke="none" /><path d="M 114.94478906791727 85.2469230424477 l 12.757415395249373 -12.593762966492369 a38.92636363636363,38.92636363636363 0 0,0 0.46662651482669143,0.4808996411575608 l -12.972306173779174 12.372299129784693" fill="#ffc212" stroke="none" /><path d="M 115.4437574822437 85.77008943001954 l 13.070560671312277 -12.043242045604579 a38.77299173553719,38.77299173553719 0 0,0 0.4480244293795234,0.4947197649884762 l -13.275928741307837 11.816469493346553" fill="#ffc011" stroke="none" /><path d="M 117.04232023915458 87.72973835380427 l 7.196164992790033 -5.1811505752522 a29.867305785123968,29.867305785123968 0 0,0 0.2968061808482787,0.41981129401216766 l -7.284283793442195 5.056512780908239" fill="#ff4106" stroke="none" /><line stroke="#e1ed5e" stroke-width="0.3" x1="172.23445277983987" x2="176.4835382374775" y1="55.19839476539836" y2="52.563006222186495" /><path d="M 173.08426987136738 54.67131705675599 a86.0,86.0 0 0,1 12.851231095245387,41.99856678651699" fill="none" id="id87" stroke="none" /><text fill="#e1ed5e" style="font-size:6.75px; font-family:Arial;" text-anchor="middle"><textPath startOffset="22.20632615414155" xlink:href="#id87">March</textPath></text><path d="M 118.03404312379186 89.2402003453031 l 12.71329777721649 -7.585239543587753 a35.80418181818182,35.80418181818182 0 0,0 0.311224143067357,0.5319829452903365 l -12.841981594754174 7.365277185943522" fill="#ff970d" stroke="none" /><path d="M 119.61058180528143 92.48833698450437 l 8.771278407453147 -3.3597620032944104 a30.39272727272727,30.39272727272727 0 0,0 0.18292863191401143,0.49015778713572855 l -8.827811627868783 3.208281079129349" fill="#ff4906" stroke="none" /><path d="M 119.85752413597 93.16781622104841 l 16.92747259941125 -5.824069653419339 a38.90137190082645,38.90137190082645 0 0,0 0.21240650372093248,0.6350684105154959 l -17.02521639690395 5.531828139981529" fill="#ffc212" stroke="none" /><path d="M 120.45610955862082 95.25157060432595 l 11.527392080672636 -2.675826860159653 a32.83388429752066,32.83388429752066 0 0,0 0.12305766622573983,0.5516433885064732 l -11.571744133900413 2.477005302103216" fill="#ff6d0a" stroke="none" /><path d="M 120.67395015179393 96.31383870115 l 14.605669817628531 -2.604188093239258 a35.83601652892562,35.83601652892562 0 0,0 0.1030509680339208,0.6082126467170299 l -14.648332647182675 2.35238965820639" fill="#ff980e" stroke="none" /><path d="M 120.83666639777658 97.38593545837742 l 7.333965359903125 -0.9200828208708449 a28.391454545454543,28.391454545454543 0 0,0 0.05666075417688814,0.48543473964813216 l -7.3487164670836025 0.79370434289786" fill="#ff2b04" stroke="none" /><path d="M 120.87857604477298 97.74499172005257 l 14.678058009998148 -1.585316080709488 a35.7634214876033,35.7634214876033 0 0,0 0.06083677195119691,0.612617991181986 l -14.703171907631575 1.332422558823067" fill="#ff970d" stroke="none" /><path d="M 120.96714384426684 98.82574320788733 l 17.317127993559108 -0.9698390642691871 a38.34426446280992,38.34426446280992 0 0,0 0.031234857614249777,0.6593184772490985 l -17.331256459406852 0.6716094803970888" fill="#ffba11" stroke="none" /><line stroke="#e1ed5e" stroke-width="0.3" x1="184.98032266829074" x2="189.97916517819016" y1="98.17113171792111" y2="98.06355123074" /><path d="M 185.9800911702706 98.14961562048488 a86.0,86.0 0 0,1 -9.607161424134198,41.387399972396054" fill="none" id="id88" stroke="none" /><text fill="#e1ed5e" style="font-size:6.75px; font-family:Arial;" text-anchor="middle"><textPath startOffset="21.466115282336823" xlink:href="#id88">April</textPath></text><path d="M 120.99513854157772 99.54816195383933 l 22.42667483561926 -0.4826462525855444 a43.43186776859504,43.43186776859504 0 0,0 0.009652200844778686,0.747573592526645 l -22.431660043581754 0.09653640199843667" fill="#fffe18" stroke="none" /><path d="M 120.99824983174949 100.27111621757518 l 16.616780309005204 0.2145454341077321 a37.6181652892562,37.6181652892562 0 0,0 -0.013932939596422052,0.6474089546108567 l -16.610625306723772 -0.5005442045087036" fill="#ffb010" stroke="none" /><path d="M 120.9904718944345 100.63252640178507 l 12.479640960765009 0.3760612163547994 a33.48530578512397,33.48530578512397 0 0,0 -0.022320136277000115,0.5759835400133478 l -12.471318691636807 -0.5908220033821535" fill="#ff760a" stroke="none" /><path d="M 120.92983693683757 101.71520430193887 l 16.374051438966266 1.341856773802788 a37.42894214876033,37.42894214876033 0 0,0 -0.05814925469168081,0.6416721800234559 l -16.34852758799751 -1.6235103423748145" fill="#ffae10" stroke="none" /><path d="M 120.8583938346157 102.4346265915055 l 26.577977209412044 3.102225922835737 a47.758413223140494,47.758413223140494 0 0,0 -0.10233602456222352,0.8157188050736479 l -26.520639675602972 -3.5592624821967798" fill="#caff1d" stroke="none" /><path d="M 120.76222939487914 103.15116336523771 l 14.81643675967031 2.24874756137459 a35.98611570247934,35.98611570247934 0 0,0 -0.09822195330560983,0.6116281969942086 l -14.775533052003412 -2.503454988062004" fill="#ff9a0e" stroke="none" /><path d="M 120.70491114924044 103.5080841355445 l 9.262648787305652 1.5693934173226098 a30.394661157024792,30.394661157024792 0 0,0 -0.09184044687181399,0.515089999219167 l -9.23426189809465 -1.7286021672749952" fill="#ff4906" stroke="none" /><path d="M 120.5718875245553 104.21870165774334 l 8.604780939757376 1.7645927517221067 a29.78385123966942,29.78385123966942 0 0,0 -0.1073154159303702,0.5013418960851306 l -8.573131485102563 -1.9124484672234066" fill="#ff4006" stroke="none" /><path d="M 120.41448212921028 104.9243191809786 l 33.523520112857234 8.086441383171682 a55.48502479338843,55.48502479338843 0 0,0 -0.23195035251988252,0.9265263583517418 l -33.37935844604229 -8.66229558092082" fill="#70ff27" stroke="none" /><path d="M 119.41010516605496 108.01547362559984 l 10.107462791664936 4.173913574152377 a31.935371900826446,31.935371900826446 0 0,0 -0.2141936094042911,0.5062904208623866 l -10.034118201068337 -4.347278520680927" fill="#ff6008" stroke="none" /><path d="M 118.97047184881838 109.00673069616215 l 10.803090190742681 5.129051338827452 a32.95884297520661,32.95884297520661 0 0,0 -0.2477355252087316,0.5104085587687376 l -10.713201408919236 -5.314248853561464" fill="#ff6f0a" stroke="none" /><line stroke="#e1ed5e" stroke-width="0.3" x1="174.80103733775053" x2="179.2010983576182" y1="140.37084112569926" y2="142.7455964860345" /><path d="M 175.68104954172406 140.8457921977663 a86.0,86.0 0 0,1 -30.038265399797805,32.042727171017184" fill="none" id="id89" stroke="none" /><text fill="#e1ed5e" style="font-size:6.75px; font-family:Arial;" text-anchor="middle"><textPath startOffset="22.206326154141568" xlink:href="#id89">May</textPath></text><path d="M 116.93607887273984 112.41649034213515 l 12.79899671107795 9.38343640498231 a36.87019834710743,36.87019834710743 0 0,0 -0.37965547558472484,0.5086105519568556 l -12.635579968798131 -9.60235983644848" fill="#ffa60f" stroke="none" /><path d="M 115.80600337817218 113.82643327865902 l 9.024089598114513 7.893897637734143 a32.98948760330579,32.98948760330579 0 0,0 -0.3775586380995427,0.42419113237647804 l -8.886872110366632 -8.048062939851487" fill="#ff6f0a" stroke="none" /><line stroke="#e1ed5e" stroke-width="0.3" x1="143.8653032363475" x2="146.44561519142675" y1="172.8068346515853" y2="177.08958963109032" /><path d="M 144.38136562736335 173.6633856474863 a86.0,86.0 0 0,1 -40.68145358897372,12.25698825130547" fill="none" id="id90" stroke="none" /><text fill="#e1ed5e" style="font-size:6.75px; font-family:Arial;" text-anchor="middle"><textPath startOffset="21.466115282336833" xlink:href="#id90">June</textPath></text><path d="M 107.93186726928326 119.44442032107085 l 5.011348121936989 12.284970984764968 a34.267785123966945,34.267785123966945 0 0,0 -0.5480869901841219,0.21809512462061673 l -4.7991400557110016 -12.369412953791654" fill="#ff810b" stroke="none" /><path d="M 106.57524785965236 119.94407469862006 l 2.2947537400341895 6.960458523095027 a28.32897520661157,28.32897520661157 0 0,0 -0.46443149900401576,0.1486962997177402 l -2.1746008959392333 -6.998927669472474" fill="#ff2a04" stroke="none" /><path d="M 104.83641907484287 120.43548508189849 l 2.0388675482619165 8.614896005021453 a29.852876033057854,29.852876033057854 0 0,0 -0.5010732040155067,0.11404262987963618 l -1.8902741948535475 -8.648715368478774" fill="#ff4106" stroke="none" /><path d="M 103.41894727170886 120.7198165907248 l 2.419403707116611 14.662291368219911 a35.86056198347107,35.86056198347107 0 0,0 -0.6099098405399851,0.0952553736629546 l -2.166658002968109 -14.701765049229971" fill="#ff980e" stroke="none" /><path d="M 102.34483914955558 120.86867818915974 l 1.9955107159693755 17.75971326752936 a38.87147107438017,38.87147107438017 0 0,0 -0.6655673295397763,0.06898877504742229 l -1.6895107898239965 -17.79143141103254" fill="#ffc112" stroke="none" /><path d="M 101.26447882468166 120.96189622390904 l 0.3825682923411132 6.3420254148039295 a27.353553719008264,27.353553719008264 0 0,0 -0.4702361554216582,0.024305838006532632 l -0.2733440685059754 -6.347671059572664" fill="#ff1c02" stroke="none" /><line stroke="#e1ed5e" stroke-width="0.3" x1="102.19456741930631" x2="102.32365962044197" y1="184.97166512339345" y2="189.96999836594603" /><path d="M 102.22038585953345 185.97133177190398 a86.0,86.0 0 0,1 -42.740103519485714,-10.115201625700543" fill="none" id="id91" stroke="none" /><text fill="#e1ed5e" style="font-size:6.75px; font-family:Arial;" text-anchor="middle"><textPath startOffset="22.20632615414155" xlink:href="#id91">July</textPath></text><path d="M 100.54218724476979 120.99299961872073 l 0.2736195620163751 10.594301906757622 a31.597834710743804,31.597834710743804 0 0,0 -0.5438443417414982,0.009362773543664804 l -0.091215530382209 -10.597442157580446" fill="#ff5b08" stroke="none" /><path d="M 99.81925306533755 120.99922214144158 l -0.12289340460050373 14.277785168216148 a35.27831404958678,35.27831404958678 0 0,0 -0.6071907033403093,-0.010453338606023559 l 0.368643797833481 -14.273554352330965" fill="#ff900d" stroke="none" /><path d="M 99.09653310690486 120.98055641714683 l -0.9424514361988457 21.885866188025087 a42.90614876033058,42.90614876033058 0 0,0 -0.7376015067097681,-0.03812557271226097 l 1.3190410113221027 -21.866400808550626" fill="#fff717" stroke="none" /><path d="M 98.37488393609728 120.93702456842531 l -1.1468522728556076 14.775359585990559 a35.819801652892565,35.819801652892565 0 0,0 -0.6143192906028655,-0.05300605331398118 l 1.4010158812000149 -14.753429280397915" fill="#ff970e" stroke="none" /><path d="M 97.65516085044442 120.86867818915974 l -0.8270499605349851 7.360607006255865 a28.406925619834713,28.406925619834713 0 0,0 -0.48545079049417106,-0.058781330159441265 l 0.9536281740805456 -7.345280147371075" fill="#ff2b04" stroke="none" /><path d="M 96.58105272829116 120.7198165907248 l -2.353357880363708 14.2620344153776 a35.45489256198347,35.45489256198347 0 0,0 -0.6012998310618276,-0.10454368313442959 l 2.5985066828975856 -14.219412153722166" fill="#ff920d" stroke="none" /><path d="M 95.86986931433489 120.58985236759428 l -3.5187835728143613 17.54211665244107 a38.891553719008265,38.891553719008265 0 0,0 -0.6552458944791815,-0.13731314802461464 l 3.8202209287229296 -17.478947523689914" fill="#ffc212" stroke="none" /><path d="M 95.16358092515715 120.4354850818985 l -5.525063482474725 23.345237587030876 a44.99013223140496,44.99013223140496 0 0,0 -0.7520780066096819,-0.1848424760576678 l 5.926094773827618 -23.24667385265918" fill="#ecff1a" stroke="none" /><path d="M 94.11515582081647 120.15858648285463 l -4.272271812463606 14.634705386839723 a36.245553719008264,36.245553719008264 0 0,0 -0.5974044384485323,-0.17999305672120822 l 4.523551225352383 -14.55899696101279" fill="#ff9d0e" stroke="none" /><path d="M 93.76903079525671 120.05430185196036 l -5.310816160907057 17.09279999169684 a38.89884297520661,38.89884297520661 0 0,0 -0.6377162541439455,-0.20417660616133787 l 5.604253760141943 -16.998850538875796" fill="#ffc212" stroke="none" /><path d="M 93.42475214034765 119.94407469862007 l -3.4275750141400034 10.396537678314427 a31.94697520661157,31.94697520661157 0 0,0 -0.5207817406822459,-0.1766774418159803 l 3.6060264877594754 -10.335997249600323" fill="#ff6008" stroke="none" /><path d="M 92.7421414339146 119.70592522655815 l -5.5208225078027136 14.989671476408791 a36.974033057851244,36.974033057851244 0 0,0 -0.5953343635930115,-0.22510451557435585 l 5.778027092156008 -14.892418710727803" fill="#ffa70f" stroke="none" /><path d="M 92.06813273071674 119.44442032107085 l -5.826185943465765 14.282489167736655 a36.42510743801653,36.42510743801653 0 0,0 -0.5785149010214183,-0.2418192755459014 l 6.071172303984645 -14.18008484917078" fill="#ffa00e" stroke="none" /><path d="M 91.40352486487194 119.15986991738527 l -7.242657167861547 16.142473166169196 a38.692809917355376,38.692809917355376 0 0,0 -0.6053250662637634,-0.2778750486020546 l 7.519450229892731 -16.015411047233066" fill="#ffbf11" stroke="none" /><path d="M 90.7491055286396 118.85261126421891 l -4.735256554470109 9.650088576206805 a31.749272727272725,31.749272727272725 0 0,0 -0.4885549245586898,-0.24497158140759095 l 4.900665386711559 -9.567149153889911" fill="#ff5d08" stroke="none" /><path d="M 90.10565033884886 118.52300852407294 l -12.857421184469091 24.070113787530012 a48.288892561983474,48.288892561983474 0 0,0 -0.729799663776173,-0.3979449654295025 l 13.269843660113905 -23.845228170340743" fill="#c3ff1e" stroke="none" /><line stroke="#e1ed5e" stroke-width="0.3" x1="58.666819895761336" x2="56.23545636021788" y1="174.27360380694188" y2="178.64263932499728" /><path d="M 58.180547188652646 175.14741091055294 a86.0,86.0 0 0,1 -31.652253787137756,-30.449443065178592" fill="none" id="id92" stroke="none" /><text fill="#e1ed5e" style="font-size:6.75px; font-family:Arial;" text-anchor="middle"><textPath startOffset="22.20632615414155" xlink:href="#id92">August</textPath></text><path d="M 88.8546689885994 117.79835938074946 l -7.057086747018008 11.269702620412916 a34.29694214876033,34.29694214876033 0 0,0 -0.49766201937481735,-0.31763144682850464 l 7.250030568439749 -11.146556744760607" fill="#ff820c" stroke="none" /><path d="M 88.54995079064634 117.60387380957326 l -7.755995670928165 11.924452599476906 a35.22490909090909,35.22490909090909 0 0,0 -0.5054360163655066,-0.33497543106347394 l 7.960106386033633 -11.789179147322114" fill="#ff8f0d" stroke="none" /><path d="M 87.95078237400918 117.19931262002967 l -10.286674573540985 14.683420725110627 a38.92814876033058,38.92814876033058 0 0,0 -0.5454995408380248,-0.3891994384768213 l 10.537901442227897 -14.504177024789588" fill="#ffc212" stroke="none" /><path d="M 87.36589467227662 116.77436683061367 l -9.264364200703316 12.300344149735352 a36.39892561983471,36.39892561983471 0 0,0 -0.4972288606682374,-0.3812538874340745 l 9.47472178986504 -12.139050920473911" fill="#ff9f0e" stroke="none" /><path d="M 87.07902340077011 116.55440617244103 l -10.083945073769224 12.919590194266831 a37.38907438016529,37.38907438016529 0 0,0 -0.5039379694066274,-0.40035880070661023 l 10.30484053589321 -12.74409747955509" fill="#ffad10" stroke="none" /><path d="M 85.97065885151581 115.62618273729859 l -14.755951700434256 16.43549724062776 a43.08763636363636,43.08763636363636 0 0,0 -0.5476242646601372,-0.5002417817210394 l 15.036675514561248 -16.179062692320148" fill="#fff917" stroke="none" /><path d="M 85.70375840098266 115.38237550388516 l -13.274338822900567 14.282835312023034 a40.498909090909095,40.498909090909095 0 0,0 -0.5065529602117045,-0.47897744132176967 l 13.51822761750309 -14.052223233955333" fill="#ffd714" stroke="none" /><path d="M 84.9287848128048 114.62390073753433 l -10.165116493164692 9.863415307599922 a35.1639173553719,35.1639173553719 0 0,0 -0.4177698575246221,-0.4380300253926858 l 10.333392902068272 -9.686978165624737" fill="#ff8e0d" stroke="none" /><path d="M 84.43433777217949 114.09645910891817 l -22.071300433219463 19.988046732855892 a50.77690909090909,50.77690909090909 0 0,0 -0.5811324162957543,-0.6529084302507329 l 22.412091699163554 -19.605164132864296" fill="#a6ff21" stroke="none" /><path d="M 83.06392112726016 112.41649034213515 l -13.453685134278947 9.863413650297767 a37.681983471074375,37.681983471074375 0 0,0 -0.3790093510694884,-0.5264108395408997 l 13.621474277724044 -9.63036920530573" fill="#ffb110" stroke="none" /><path d="M 82.85270091963577 112.12312394758628 l -5.672091696741594 4.0101633708842215 a27.946512396694217,27.946512396694217 0 0,0 -0.2743270815922251,-0.39518862131415816 l 5.7402796854959535 -3.9119334873830507" fill="#ff2503" stroke="none" /><path d="M 82.44556493220864 111.52570212397912 l -16.982827843269895 11.150402401925582 a41.31619834710744,41.31619834710744 0 0,0 -0.3852147952434753,-0.5978619167165291 l 17.172247501890418 -10.856418885287605" fill="#ffe215" stroke="none" /><path d="M 82.05923443525364 110.91462005526583 l -23.017133776372237 14.002929196287091 a47.94198347107438,47.94198347107438 0 0,0 -0.4228462950382018,-0.7087147125574762 l 23.25476094710867 -13.604652389843503" fill="#c8ff1d" stroke="none" /><line stroke="#e1ed5e" stroke-width="0.3" x1="26.63291911575756" x2="22.317208475507996" y1="142.92168965132927" y2="145.44649492493687" /><path d="M 25.769776987707644 143.4266507060508 a86.0,86.0 0 0,1 -11.730757126820373,-40.83630448921669" fill="none" id="id93" stroke="none" /><text fill="#e1ed5e" style="font-size:6.75px; font-family:Arial;" text-anchor="middle"><textPath startOffset="21.46611528233685" xlink:href="#id93">September</textPath></text><path d="M 81.87401531095188 110.60418214915194 l -12.925004095284113 7.5614704556017704 a35.974363636363634,35.974363636363634 0 0,0 -0.3080913090327861,-0.5371831663923917 l 13.053247400469276 -7.337867443351072" fill="#ff9a0e" stroke="none" /><path d="M 81.51974371655577 109.97397251340807 l -26.232058330575015 14.157694825567098 a50.80874380165289,50.80874380165289 0 0,0 -0.4087623726444582,-0.7732243629211485 l 26.471873211444358 -13.704055447559824" fill="#a5ff21" stroke="none" /><path d="M 81.02952815118164 109.00673069616217 l -14.762297097070094 7.008788999538178 a37.34161983471074,37.34161983471074 0 0,0 -0.2706829708171605,-0.5830270380525987 l 14.880754684727082 -6.753641894206752" fill="#ffad10" stroke="none" /><path d="M 80.32549172779594 107.34259656027581 l -4.276592347102114 1.5960394955281938 a25.564710743801655,25.564710743801655 0 0,0 -0.15031531196564707,-0.41360318067180946 l 4.303431920072986 -1.5221885178502672" fill="#ff0000" stroke="none" /><path d="M 80.0844068197444 106.66101706037122 l -14.130148631036885 4.726003400703619 a35.89953719008264,35.89953719008264 0 0,0 -0.19096459471726543,-0.5877285893446746 l 14.2094054767704 -4.482075911381141" fill="#ff980e" stroke="none" /><path d="M 79.76711848015287 105.62410040840567 l -14.843720950303334 4.126084412493095 a36.40651239669422,36.40651239669422 0 0,0 -0.16263642674385256,-0.605230646149671 l 14.912545453388962 -3.8699628331678855" fill="#ffa00e" stroke="none" /><path d="M 79.67330655649465 105.27499134158121 l -29.257623382379887 7.592661858469145 a51.22676033057851,51.22676033057851 0 0,0 -0.21414904582588193,-0.8554189869426639 l 29.383983742500828 -7.087915032129089" fill="#a0ff22" stroke="none" /><path d="M 79.50377843672027 104.57218783832718 l -14.848024308161527 3.3122181059258247 a36.212975206611574,36.212975206611574 0 0,0 -0.13048045617410756,-0.6095612520648706 l 14.902838803060076 -3.05614303444479" fill="#ff9d0e" stroke="none" /><path d="M 79.4281124754447 104.21870165774334 l -17.7659500724457 3.6432846977483324 a39.135669421487606,39.135669421487606 0 0,0 -0.12965100689024064,-0.6610876909180534 l 17.82603101231161 -3.336933279762324" fill="#ffc512" stroke="none" /><path d="M 79.29508885075956 103.50808413554451 l -23.442408410112737 3.9719050446390636 a44.776512396694216,44.776512396694216 0 0,0 -0.12221481601897279,-0.761031776013308 l 23.507304980493004 -3.567794038932542" fill="#efff19" stroke="none" /><path d="M 79.10278846688536 102.07522291339032 l -15.159384965243012 1.5054210932844052 a36.23395041322314,36.23395041322314 0 0,0 -0.05629272670037323,-0.6211855483413667 l 15.18305228822046 -1.2442541563944722" fill="#ff9d0e" stroke="none" /><path d="M 79.07016306316243 101.71520430193888 l -12.482287875176073 1.022925975302723 a33.52413223140496,33.52413223140496 0 0,0 -0.04218204482598065,-0.575540487859823 l 12.498046478666389 -0.8079123509461393" fill="#ff770a" stroke="none" /><path d="M 79.0095281055655 100.63252640178507 l -10.488197819687123 0.3160511141179133 a31.49295867768595,31.49295867768595 0 0,0 -0.011664298021842469,-0.5419940950960163 l 10.492084180393974 -0.13546720323176822" fill="#ff5908" stroke="none" /><line stroke="#e1ed5e" stroke-width="0.3" x1="15.007084014347285" x2="10.007500721073583" y1="101.09737516637583" y2="101.16192664675087" /><path d="M 14.007167355692545 101.11028546245083 a86.0,86.0 0 0,1 10.666146001902534,-42.60595125391555" fill="none" id="id94" stroke="none" /><text fill="#e1ed5e" style="font-size:6.75px; font-family:Arial;" text-anchor="middle"><textPath startOffset="22.20632615414155" xlink:href="#id94">October</textPath></text><path d="M 79.12142395522702 97.74499172005258 l -14.831578401505649 -1.601897180553065 a35.917834710743804,35.917834710743804 0 0,0 0.07168113207631971,-0.6141201647002472 l 14.80180691642574 1.856961083578174" fill="#ff990e" stroke="none" /><path d="M 79.21141760316559 97.0276538004421 l -23.712532099431435 -3.390411780957823 a44.953685950413224,44.953685950413224 0 0,0 0.11611773957096941,-0.7650708219011823 l 23.650658466421163 3.7980817152510973" fill="#edff1a" stroke="none" /><path d="M 79.26566170972629 96.67025291283419 l -18.04592447715159 -2.8980121584683807 a39.27714049586777,39.27714049586777 0 0,0 0.11294635235019614,-0.6666157650972944 l 17.99336626328117 3.208213711881503" fill="#ffc712" stroke="none" /><path d="M 79.3925641242962 95.95851677861259 l -17.75212600616325 -3.481506376174207 a39.09029752066116,39.09029752066116 0 0,0 0.1351792823258455,-0.6591821885657861 l 17.689567427922412 3.786564220903396" fill="#ffc412" stroke="none" /><path d="M 79.54389044137918 95.25157060432595 l -48.16609564398414 -11.180684370863435 a70.44674380165289,70.44674380165289 0 0,0 0.28436062870523426,-1.1788583882575083 l 47.966502215018096 12.00812799078034" fill="#3bff9d" stroke="none" /><path d="M 79.71946130924805 94.55025226153421 l -15.219167509399048 -4.089665712553329 a36.75907438016529,36.75907438016529 0 0,0 0.169464985796912,-0.6096557192092338 l 15.146515753035775 4.351032735181506" fill="#ffa40f" stroke="none" /><path d="M 79.81627453868168 94.20196356495316 l -17.36753576235893 -4.9890494859396 a39.0699173553719,39.0699173553719 0 0,0 0.19124557640310502,-0.6447850103625367 l 17.279084288844118 5.287263883048676" fill="#ffc412" stroke="none" /><path d="M 80.02781315780177 93.51064311812611 l -14.794933846393352 -4.807165411156069 a36.556314049586774,36.556314049586774 0 0,0 0.19960218565021895,-0.5967851292484263 l 14.70999436697136 5.061123643326817" fill="#ffa20e" stroke="none" /><path d="M 80.2630227832202 92.82701384747504 l -26.566483982544504 -9.655025672627232 a49.26654545454546,49.26654545454546 0 0,0 0.296526918372883,-0.7945447173308007 l 26.396352475669993 10.110893526987374" fill="#b8ff1f" stroke="none" /><path d="M 80.52162464483688 92.15188598940014 l -13.990762792293655 -5.637076988562807 a36.08370247933885,36.08370247933885 0 0,0 0.23708420947616315,-0.5741182185973338 l 13.891656895931291 5.877069777613452" fill="#ff9b0e" stroke="none" /><path d="M 80.65960295795068 91.81776055985345 l -7.61975109058553 -3.223647775272469 a29.273603305785123,29.273603305785123 0 0,0 0.2003280357819683,-0.4623847265505467 l 7.563132344960881 3.354331646409615" fill="#ff3905" stroke="none" /><path d="M 80.95270993114464 91.15688171328213 l -13.580065668666485 -6.304840563423569 a35.97228099173554,35.97228099173554 0 0,0 0.26558130555193843,-0.559381961169579 l 13.469526169272795 6.53766494023368" fill="#ff9a0e" stroke="none" /><path d="M 81.26839172434947 90.50648371742162 l -56.19482482695157 -28.480548847735136 a84.0,84.0 0 0,0 0.6647622673595439,-1.284109110958658 l 55.69625312643191 29.44363068095413" fill="#4dd2ff" stroke="none" /><path d="M 81.6062741919709 89.86733742301443 l -8.680448736700583 -4.78185110421803 a30.910413223140495,30.910413223140495 0 0,0 0.2607401669987023,-0.4638276629210217 l 8.59685092840945 4.930562277073837" fill="#ff5107" stroke="none" /><line stroke="#e1ed5e" stroke-width="0.3" x1="26.266209847984243" x2="21.928928074336255" y1="57.711370442889674" y2="55.22380399835377" /><path d="M 25.398753493254645 57.213857153982495 a86.0,86.0 0 0,1 29.58750427330803,-30.492523968695096" fill="none" id="id95" stroke="none" /><text fill="#e1ed5e" style="font-size:6.75px; font-family:Arial;" text-anchor="middle"><textPath startOffset="21.46611528233685" xlink:href="#id95">November</textPath></text><path d="M 81.96595687620814 89.24020034530311 l -11.349821917049569 -6.771737713260146 a34.21646280991735,34.21646280991735 0 0,0 0.3061301333576509,-0.5031974477411475 l 11.231575985405701 6.966102934208369" fill="#ff810b" stroke="none" /><path d="M 82.54541684631803 88.32363383020206 l -11.030142531100308 -7.378691428160572 a34.27061157024793,34.27061157024793 0 0,0 0.3322218124891558,-0.4874945158093439 l 10.901496252942412 7.567463967240331" fill="#ff810b" stroke="none" /><path d="M 82.95767976084542 87.72973835380427 l -12.194655386050647 -8.780002380676674 a36.026578512396696,36.026578512396696 0 0,0 0.3666774653005782,-0.5001476505895692 l 12.041715308236435 8.988612474937744" fill="#ff9a0e" stroke="none" /><path d="M 84.07557802195018 86.31012108654704 l -12.535772664614464 -10.776730866696251 a37.53128925619835,37.53128925619835 0 0,0 0.4253691530185082,-0.48627047439329446 l 12.348411648018113 10.99091689729249" fill="#ffaf10" stroke="none" /><path d="M 84.5562425177563 85.77008943001954 l -11.063382736058035 -10.193824081773894 a36.04368595041323,36.04368595041323 0 0,0 0.4243417620750721,-0.4526582054079482 l 10.886273652012507 10.382751704059892" fill="#ff9a0e" stroke="none" /><path d="M 85.05521093208273 85.24692304244772 l -11.765766003047395 -11.614834476329019 a37.532925619834714,37.532925619834714 0 0,0 0.45783770756117664,-0.4558716069445647 l 11.564092495318905 11.815641933923693" fill="#ffaf10" stroke="none" /><path d="M 85.57189188830299 84.74124197986013 l -13.435822215920659 -14.20934459370635 a40.55573553719008,40.55573553719008 0 0,0 0.5113732874832724,-0.47526573924152005 l 13.18924104464253 14.438514919022516" fill="#ffd814" stroke="none" /><path d="M 85.83668400450813 84.49514656593479 l -20.30297134472536 -22.22605180002978 a51.10328925619834,51.10328925619834 0 0,0 0.6545820622677236,-0.5876902385962935 l 19.917378294861667 22.57224104739535" fill="#a2ff22" stroke="none" /><path d="M 86.37877921826538 84.01681056812374 l -12.67622647763038 -14.874329718303752 a40.54309090909091,40.54309090909091 0 0,0 0.5350577178017216,-0.4480954512227356 l 12.418311222869546 15.0903263269203" fill="#ffd814" stroke="none" /><path d="M 86.65592168130627 83.78471172551755 l -10.42898800055378 -12.672965700687836 a37.41242975206612,37.41242975206612 0 0,0 0.5007860407023883,-0.40493415091326307 l 10.209298561286891 12.850605948865233" fill="#ffad10" stroke="none" /><line stroke="#e1ed5e" stroke-width="0.3" x1="56.762969772571076" x2="54.21961505331055" y1="26.818313649435495" y2="22.513508569990535" /><path d="M 56.25429882871897 25.957352633546506 a86.0,86.0 0 0,1 42.265352541879196,-11.944610805530505" fill="none" id="id96" stroke="none" /><text fill="#e1ed5e" style="font-size:6.75px; font-family:Arial;" text-anchor="middle"><textPath startOffset="22.20632615414155" xlink:href="#id96">December</textPath></text></svg>