<?xml version="1.0" encoding="utf-8" ?>
<svg baseProfile="full" height="200mm" version="1.1" viewBox="0,0,200,200" width="200mm" xmlns="http://www.w3.org/2000/svg" xmlns:ev="http://www.w3.org/2001/xml-events" xmlns:xlink="http://www.w3.org/1999/xlink"><defs /><rect fill="#1a1a1a" height="200" width="200" x="0" y="0" /><text alignment-baseline="middle" fill="#e1ed5e" style="dominant-baseline: central; font-size:9.0px; font-family:Arial;" text-anchor="middle" x="100.0" y="100.0">2025</text><line stroke="#e1ed5e" stroke-width="0.3" x1="100.0" x2="100.0" y1="15.0" y2="10.0" /><path d="M 100.0 14.0 a86.0,86.0 0 0,1 42.46469731375804,11.215312516191453" fill="none" id="id109" stroke="none" /><text fill="#e1ed5e" style="font-size:6.75px; font-family:Arial;" text-anchor="middle"><textPath startOffset="22.20632615414155" xlink:href="#id109">January</textPath></text><path d="M 101.44485096284872 79.0497635885617 l 2.8453562766783245 -41.257464059580165 a62.35546388288713,62.35546388288713 0 0,0 1.070167663345463,0.08306560729716368 l -3.5551141293861286 41.202373190094534" fill="#30ff34" stroke="none" /><path d="M 102.88285421437855 79.19881850522331 l 3.715965167035118 -26.81247823155288 a48.06875294578816,48.06875294578816 0 0,0 0.8186131964535845,0.1206423057022242 l -4.176947343917358 26.744541441689687" fill="#d0ff1d" stroke="none" /><path d="M 103.95276090670814 79.375362276772 l 7.250967819629651 -37.83395655650485 a59.52252332130907,59.52252332130907 0 0,0 1.0046086503975402,0.20151504440224674 l -7.901142879494317 37.7035375560254" fill="#4aff2c" stroke="none" /><path d="M 105.36241919743992 79.69619591428918 l 10.985540919036152 -41.59470984703233 a64.0209483454587,64.0209483454587 0 0,0 1.0630590391410109,0.2905741926850878 l -11.699897847400875 41.39944911352095" fill="#32ff4a" stroke="none" /><path d="M 106.74666289553966 80.11325718540242 l 7.869443309750068 -23.196296838622054 a45.49482241272301,45.49482241272301 0 0,0 0.7394381719718037,0.25797545895185664 l -8.267563485785145 23.05740052649799" fill="#f1ff19" stroke="none" /><path d="M 107.08798089147638 80.2323363322302 l 20.094613868585284 -56.04185092620322 a80.53555712145746,80.53555712145746 0 0,0 1.300908779969077,0.47913568248342714 l -21.056304974326935 55.68765197591346" fill="#48f5ff" stroke="none" /><path d="M 108.09893153111575 80.62456947434976 l 15.163429395516744 -36.276139840752826 a60.31778112735605,60.31778112735605 0 0,0 0.9545037315556765,0.40866868433510883 l -15.785616884862735 36.00975162845492" fill="#41ff2d" stroke="none" /><line stroke="#e1ed5e" stroke-width="0.3" x1="143.23703022742887" x2="145.7803849466894" y1="26.81831364943548" y2="22.513508569990506" /><path d="M 143.74570117128098 25.957352633546492 a86.0,86.0 0 0,1 28.547481713284135,27.462654790039103" fill="none" id="id110" stroke="none" /><text fill="#e1ed5e" style="font-size:6.75px; font-family:Arial;" text-anchor="middle"><textPath startOffset="19.985693538727396" xlink:href="#id110">February</textPath></text><path d="M 110.99172775467656 82.1063720568725 l 3.821347460651964 -6.2208390917641845 a28.300790054552497,28.300790054552497 0 0,0 0.4128961926404008,0.2585555579522495 l -3.927862805664628 6.154139192488991" fill="#ff1602" stroke="none" /><path d="M 112.77801427241765 83.33499621200491 l 18.106833042651314 -23.61481485395826 a50.757635716252345,50.757635716252345 0 0,0 0.688774940771851,0.5375997664395076 l -18.510640538582596 23.29963669829553" fill="#afff20" stroke="none" /><path d="M 114.68862486808459 84.99185889309783 l 4.222356739026002 -4.314204107742664 a27.036609438655276,27.036609438655276 0 0,0 0.32980054395436875,0.328384275608361 l -4.295993083147693 4.240883981484184" fill="#ff0200" stroke="none" /><path d="M 116.60985879189232 87.15038557335679 l 4.666268959819261 -3.6098896261513556 a26.899607539351063,26.899607539351063 0 0,0 0.28017101749451945,0.368672217745265 l -4.7277159175378936 3.529032632525057" fill="#ff0000" stroke="none" /><line stroke="#e1ed5e" stroke-width="0.3" x1="172.23445277983987" x2="176.4835382374775" y1="55.19839476539836" y2="52.563006222186495" /><path d="M 173.08426987136738 54.67131705675599 a86.0,86.0 0 0,1 12.851231095245387,41.99856678651699" fill="none" id="id111" stroke="none" /><text fill="#e1ed5e" style="font-size:6.75px; font-family:Arial;" text-anchor="middle"><textPath startOffset="22.20632615414155" xlink:href="#id111">March</textPath></text><path d="M 118.03404312379186 89.2402003453031 l 26.387440108352223 -15.743755685690365 a51.72723284909631,51.72723284909631 0 0,0 0.4496336153820581,0.7685695995658057 l -26.65453339820461 15.287206673770665" fill="#a3ff21" stroke="none" /><path d="M 118.73160827565052 90.50648371742162 l 29.81966372852697 -15.113142394493709 a54.43081539416396,54.43081539416396 0 0,0 0.4163697847549491,0.8393760788373215 l -30.075393526235327 14.597606727157437" fill="#83ff25" stroke="none" /><path d="M 119.7369772167798 92.82701384747503 l 23.029067695802805 -8.36942667933549 a45.50276029100887,45.50276029100887 0 0,0 0.26120083655861204,0.7384499386341244 l -23.169721613171227 7.97177911427475" fill="#f1ff19" stroke="none" /><path d="M 120.37134235888165 94.90015583598534 l 30.717720594016832 -7.689998299740392 a52.665666459780944,52.665666459780944 0 0,0 0.21258671753301495,0.881309189450805 l -30.845540111810667 7.1601038786301805" fill="#98ff23" stroke="none" /><path d="M 120.73433829027371 96.67025291283417 l 17.691468751694842 -2.8410897767243655 a38.918143255136755,38.918143255136755 0 0,0 0.10052761475601098,0.6623513782589513 l -17.737752259890154 2.536139286073332" fill="#ffb410" stroke="none" /><path d="M 120.87857604477298 97.74499172005257 l 29.13134696031418 -3.1463557888554328 a50.300766721576935,50.300766721576935 0 0,0 0.0855660936991632,0.8616388863847277 l -29.18119017969557 2.64444137176627" fill="#b5ff20" stroke="none" /><path d="M 120.96714384426684 98.82574320788733 l 62.90143153280055 -3.5227703763380056 a84.0,84.0 0 0,0 0.0684255670660141,1.444355573508001 l -62.95275070810006 2.4395036962070047" fill="#4dd2ff" stroke="none" /><line stroke="#e1ed5e" stroke-width="0.3" x1="184.98032266829074" x2="189.97916517819016" y1="98.17113171792111" y2="98.06355123074" /><path d="M 185.9800911702706 98.14961562048488 a86.0,86.0 0 0,1 -9.607161424134198,41.387399972396054" fill="none" id="id112" stroke="none" /><text fill="#e1ed5e" style="font-size:6.75px; font-family:Arial;" text-anchor="middle"><textPath startOffset="21.466115282336823" xlink:href="#id112">April</textPath></text><path d="M 120.99513854157772 99.54816195383933 l 30.06642494521511 -0.6470619222339968 a51.07338687473459,51.07338687473459 0 0,0 0.011350434905645062,0.8791036920603434 l -30.07310838723847 0.12942197211319065" fill="#abff21" stroke="none" /><path d="M 120.9904718944345 100.63252640178507 l 32.95075734437522 0.9929373710105502 a53.9657145257106,53.9657145257106 0 0,0 -0.035971662024799574,0.92826876037302 l -32.928783549499215 -1.5599833783975765" fill="#89ff24" stroke="none" /><path d="M 120.92983693683757 101.71520430193887 l 38.334041088469064 3.1414822955413944 a59.46254824092697,59.46254824092697 0 0,0 -0.09238045917876792,1.0194106690981983 l -38.27428603301322 -3.8008743531881635" fill="#4bff2c" stroke="none" /><path d="M 120.8583938346157 102.4346265915055 l 29.18699497636846 3.4067548373584327 a50.38514342780077,50.38514342780077 0 0,0 -0.10796454336343447,0.8605836378683469 l -29.12402892375818 -3.9086562295141745" fill="#b4ff20" stroke="none" /><path d="M 120.70491114924044 103.5080841355445 l 29.189626032689425 4.9456702938573605 a50.60564004685261,50.60564004685261 0 0,0 -0.1529098999369154,0.857599923800904 l -29.10016969041332 -5.447388968391483" fill="#b1ff20" stroke="none" /><path d="M 120.49622156327973 104.57218783832717 l 28.671314793613913 6.395844053670283 a50.376029567546624,50.376029567546624 0 0,0 -0.1960813403579523,0.8447132823365993 l -28.556972887325408 -6.8884259933554475" fill="#b4ff20" stroke="none" /><path d="M 120.41448212921028 104.9243191809786 l 15.283925100764494 3.686741846203589 a36.72229092487248,36.72229092487248 0 0,0 -0.15351436458899853,0.6132135762334492 l -15.218199421880433 -3.949283261834434" fill="#ff950d" stroke="none" /><path d="M 120.23288151984713 105.62410040840565 l 21.328043626855447 5.928520796932821 a43.13668457083658,43.13668457083658 0 0,0 -0.20501708288053713,0.7136913612216195 l -21.222833907088813 -6.294769633659022" fill="#ffee16" stroke="none" /><path d="M 120.02730092923936 106.31721596034902 l 59.80601092045883 18.864623248354988 a83.71070843580398,83.71070843580398 0 0,0 -0.4452921335809013,1.3704682687555936 l -59.472426535861686 -19.891290417088378" fill="#4dd5ff" stroke="none" /><line stroke="#e1ed5e" stroke-width="0.3" x1="174.80103733775053" x2="179.2010983576182" y1="140.37084112569926" y2="142.7455964860345" /><path d="M 175.68104954172406 140.8457921977663 a86.0,86.0 0 0,1 -30.038265399797805,32.042727171017184" fill="none" id="id113" stroke="none" /><text fill="#e1ed5e" style="font-size:6.75px; font-family:Arial;" text-anchor="middle"><textPath startOffset="22.206326154141568" xlink:href="#id113">May</textPath></text><line stroke="#e1ed5e" stroke-width="0.3" x1="143.8653032363475" x2="146.44561519142675" y1="172.8068346515853" y2="177.08958963109032" /><path d="M 144.38136562736335 173.6633856474863 a86.0,86.0 0 0,1 -40.68145358897372,12.25698825130547" fill="none" id="id114" stroke="none" /><text fill="#e1ed5e" style="font-size:6.75px; font-family:Arial;" text-anchor="middle"><textPath startOffset="21.466115282336833" xlink:href="#id114">June</textPath></text><line stroke="#e1ed5e" stroke-width="0.3" x1="102.19456741930631" x2="102.32365962044197" y1="184.97166512339345" y2="189.96999836594603" /><path d="M 102.22038585953345 185.97133177190398 a86.0,86.0 0 0,1 -42.740103519485714,-10.115201625700543" fill="none" id="id115" stroke="none" /><text fill="#e1ed5e" style="font-size:6.75px; font-family:Arial;" text-anchor="middle"><textPath startOffset="22.20632615414155" xlink:href="#id115">July</textPath></text><line stroke="#e1ed5e" stroke-width="0.3" x1="58.666819895761336" x2="56.23545636021788" y1="174.27360380694188" y2="178.64263932499728" /><path d="M 58.180547188652646 175.14741091055294 a86.0,86.0 0 0,1 -31.652253787137756,-30.449443065178592" fill="none" id="id116" stroke="none" /><text fill="#e1ed5e" style="font-size:6.75px; font-family:Arial;" text-anchor="middle"><textPath startOffset="22.20632615414155" xlink:href="#id116">August</textPath></text><line stroke="#e1ed5e" stroke-width="0.3" x1="26.63291911575756" x2="22.317208475507996" y1="142.92168965132927" y2="145.44649492493687" /><path d="M 25.769776987707644 143.4266507060508 a86.0,86.0 0 0,1 -11.730757126820373,-40.83630448921669" fill="none" id="id117" stroke="none" /><text fill="#e1ed5e" style="font-size:6.75px; font-family:Arial;" text-anchor="middle"><textPath startOffset="21.46611528233685" xlink:href="#id117">September</textPath></text><line stroke="#e1ed5e" stroke-width="0.3" x1="15.007084014347285" x2="10.007500721073583" y1="101.09737516637583" y2="101.16192664675087" /><path d="M 14.007167355692545 101.11028546245083 a86.0,86.0 0 0,1 10.666146001902534,-42.60595125391555" fill="none" id="id118" stroke="none" /><text fill="#e1ed5e" style="font-size:6.75px; font-family:Arial;" text-anchor="middle"><textPath startOffset="22.20632615414155" xlink:href="#id118">October</textPath></text><line stroke="#e1ed5e" stroke-width="0.3" x1="26.266209847984243" x2="21.928928074336255" y1="57.711370442889674" y2="55.22380399835377" /><path d="M 25.398753493254645 57.213857153982495 a86.0,86.0 0 0,1 29.58750427330803,-30.492523968695096" fill="none" id="id119" stroke="none" /><text fill="#e1ed5e" style="font-size:6.75px; font-family:Arial;" text-anchor="middle"><textPath startOffset="21.46611528233685" xlink:href="#id119">November</textPath></text><line stroke="#e1ed5e" stroke-width="0.3" x1="56.762969772571076" x2="54.21961505331055" y1="26.818313649435495" y2="22.513508569990535" /><path d="M 56.25429882871897 25.957352633546506 a86.0,86.0 0 0,1 42.265352541879196,-11.944610805530505" fill="none" id="id120" stroke="none" /><text fill="#e1ed5e" style="font-size:6.75px; font-family:Arial;" text-anchor="middle"><textPath startOffset="22.20632615414155" xlink:href="#id120">December</textPath></text></svg>