<?xml version="1.0" encoding="utf-8" ?>
<svg baseProfile="full" height="200mm" version="1.1" viewBox="0,0,200,200" width="200mm" xmlns="http://www.w3.org/2000/svg" xmlns:ev="http://www.w3.org/2001/xml-events" xmlns:xlink="http://www.w3.org/1999/xlink"><defs /><rect fill="#1a1a1a" height="200" width="200" x="0" y="0" /><text alignment-baseline="middle" fill="#e1ed5e" style="dominant-baseline: central; font-size:9.0px; font-family:Arial;" text-anchor="middle" x="100.0" y="100.0">2023</text><line stroke="#e1ed5e" stroke-width="0.3" x1="100.0" x2="100.0" y1="15.0" y2="10.0" /><path d="M 100.0 14.0 a86.0,86.0 0 0,1 42.46469731375804,11.215312516191453" fill="none" id="id85" stroke="none" /><text fill="#e1ed5e" style="font-size:6.75px; font-family:Arial;" text-anchor="middle"><textPath startOffset="22.20632615414155" xlink:href="#id85">January</textPath></text><path d="M 100.72285384407766 79.0124445844662 l 0.604987767791029 -17.565396388581945 a38.575811801654694,38.575811801654694 0 0,0 0.663428956199591,0.028568646413834706 l -0.9072575563799515 17.552380015643916" fill="#ffbc11" stroke="none" /><path d="M 101.80526077348638 79.07773832637324 l 1.6337208677082264 -18.93418169710984 a40.00453315429649,40.00453315429649 0 0,0 0.6855536326055506,0.06510157797488489 l -1.9593996274040213 18.903254574619773" fill="#ffd013" stroke="none" /><path d="M 102.88285421437855 79.19881850522331 l 3.2329552691479977 -23.327329208195362 a44.55029273193512,44.55029273193512 0 0,0 0.7586936481868478,0.11181172186745125 l -3.6340178977635014 23.26822300216694" fill="#f3ff19" stroke="none" /><path d="M 103.2404852339499 79.25152402106235 l 1.8127095104276556 -11.606582662330217 a32.747283808042575,32.747283808042575 0 0,0 0.5561904625052431,0.09177619193714402 l -2.012229179071774 11.573660207453448" fill="#ff6a09" stroke="none" /><path d="M 103.95276090670814 79.375362276772 l 3.3281389671920563 -17.365497714370836 a38.68154461162149,38.68154461162149 0 0,0 0.6528589878121226,0.13095737117663175 l -3.6265643644713044 17.305636387116998" fill="#ffbe11" stroke="none" /><path d="M 104.66035177308747 79.52364482259891 l 3.2613439796107633 -14.329484325160031 a35.695934321381216,35.695934321381216 0 0,0 0.5979516269525428,0.14151583105743115 l -3.5075192935258297 14.271222581961732" fill="#ff940d" stroke="none" /><path d="M 106.0581310904928 79.89281104454417 l 5.940437167002004 -19.716557930278444 a41.59202394989683,41.59202394989683 0 0,0 0.683722621241453,0.21243594661090034 l -6.2789451609541755 19.611381848785022" fill="#ffe515" stroke="none" /><path d="M 107.76421540070413 80.48803036053334 l 5.217098735045208 -13.110902630943256 a35.11077202031431,35.11077202031431 0 0,0 0.5596257974478057,0.22828541414590928 l -5.442008402081401 13.019156330613768" fill="#ff8c0c" stroke="none" /><path d="M 109.08828744355905 81.06846463323043 l 6.485229192341476 -13.509183834566214 a35.9852008846496,35.9852008846496 0 0,0 0.5561062690224011,0.2728789310662823 l -6.716806728374309 13.395549743365098" fill="#ff980e" stroke="none" /><line stroke="#e1ed5e" stroke-width="0.3" x1="143.23703022742887" x2="145.7803849466894" y1="26.81831364943548" y2="22.513508569990506" /><path d="M 143.74570117128098 25.957352633546492 a86.0,86.0 0 0,1 28.547481713284135,27.462654790039103" fill="none" id="id86" stroke="none" /><text fill="#e1ed5e" style="font-size:6.75px; font-family:Arial;" text-anchor="middle"><textPath startOffset="19.985693538727396" xlink:href="#id86">February</textPath></text><path d="M 110.99172775467656 82.1063720568725 l 7.820440638305571 -12.731033578739885 a35.94116821939515,35.94116821939515 0 0,0 0.5243659801804458,0.32835792868356767 l -8.03842577085828 12.594531308733373" fill="#ff980e" stroke="none" /><path d="M 112.19680574252982 82.90503203632743 l 7.133760270472396 -9.998634548962741 a33.28263931084365,33.28263931084365 0 0,0 0.4635077976458922,0.3367581270518417 l -7.3048133844720775 9.874357187094224" fill="#ff720a" stroke="none" /><path d="M 113.34407831869373 83.78471172551755 l 9.365062081834191 -11.380117662576167 a35.73809573217268,35.73809573217268 0 0,0 0.47164494645739014,0.3949890788755316 l -9.559564565250698 11.217227426306815" fill="#ff950d" stroke="none" /><path d="M 114.16331599549186 84.49514656593476 l 7.882856755988479 -8.629514351175631 a32.68794030497159,32.68794030497159 0 0,0 0.4121670898924356,0.3830643904628298 l -8.030231729675762 8.49254537463816" fill="#ff6909" stroke="none" /><path d="M 114.94478906791727 85.2469230424477 l 12.620700191299209 -12.458801548437016 a38.73425525196918,38.73425525196918 0 0,0 0.4643236317031513,0.4785263176696111 l -12.833288086705469 12.239711035217292" fill="#ffbe11" stroke="none" /><path d="M 115.4437574822437 85.77008943001954 l 12.940954394721327 -11.923822550231266 a38.59675665728378,38.59675665728378 0 0,0 0.44598802164215573,0.49247111270260313 l -13.144286056979519 11.699298650259113" fill="#ffbd11" stroke="none" /><path d="M 117.04232023915458 87.72973835380427 l 7.101993480180794 -5.1133482406452835 a29.751265144117205,29.751265144117205 0 0,0 0.29565302764027973,0.41818024057837205 l -7.188959127624957 4.990341499735118" fill="#ff3e05" stroke="none" /><line stroke="#e1ed5e" stroke-width="0.3" x1="172.23445277983987" x2="176.4835382374775" y1="55.19839476539836" y2="52.563006222186495" /><path d="M 173.08426987136738 54.67131705675599 a86.0,86.0 0 0,1 12.851231095245387,41.99856678651699" fill="none" id="id87" stroke="none" /><text fill="#e1ed5e" style="font-size:6.75px; font-family:Arial;" text-anchor="middle"><textPath startOffset="22.20632615414155" xlink:href="#id87">March</textPath></text><path d="M 118.03404312379186 89.2402003453031 l 12.582854614924633 -7.507412165503367 a35.6522854081907,35.6522854081907 0 0,0 0.3099037992518062,0.5297260497138241 l -12.710218088646767 7.289706703435647" fill="#ff940d" stroke="none" /><path d="M 119.61058180528143 92.48833698450437 l 8.634860532709332 -3.307508321351652 a30.246644132611124,30.246644132611124 0 0,0 0.18204938245648977,0.48780183572489805 l -8.690514503667448 3.1583833485974204" fill="#ff4606" stroke="none" /><path d="M 119.85752413597 93.16781622104841 l 16.666115339117084 -5.734147021470549 a38.62497780312342,38.62497780312342 0 0,0 0.21089735632911633,0.6305562519018714 l -16.76234998921797 5.446417666646364" fill="#ffbd11" stroke="none" /><path d="M 120.45610955862082 95.25157060432595 l 11.283479890062637 -2.619208087536406 a32.583486929041015,32.583486929041015 0 0,0 0.12211920535053662,0.5474364524166228 l -11.32689348241521 2.42459346556982" fill="#ff6809" stroke="none" /><path d="M 120.67395015179393 96.31383870115 l 14.318189047115183 -2.5529303276623234 a35.54400188554812,35.54400188554812 0 0,0 0.10221124323761589,0.6032565434351431 l -14.360012151873022 2.3060879959113425" fill="#ff920d" stroke="none" /><path d="M 120.83666639777658 97.38593545837742 l 7.191092930302941 -0.9021587563845428 a28.247462173338626,28.247462173338626 0 0,0 0.05637338896329033,0.4829727699890047 l -7.20555667226982 0.7782422480706854" fill="#ff2803" stroke="none" /><path d="M 120.87857604477298 97.74499172005257 l 14.460232712661943 -1.561789675076182 a35.54432937929808,35.54432937929808 0 0,0 0.060464076720292005,0.608865001068322 l -14.484973915064465 1.312649143303425" fill="#ff920d" stroke="none" /><path d="M 120.96714384426684 98.82574320788733 l 17.079098242339533 -0.9565082999948293 a38.105861711689485,38.105861711689485 0 0,0 0.03104065709716033,0.6552192112690933 l -17.093032507670188 0.6623779821027362" fill="#ffb610" stroke="none" /><line stroke="#e1ed5e" stroke-width="0.3" x1="184.98032266829074" x2="189.97916517819016" y1="98.17113171792111" y2="98.06355123074" /><path d="M 185.9800911702706 98.14961562048488 a86.0,86.0 0 0,1 -9.607161424134198,41.387399972396054" fill="none" id="id88" stroke="none" /><text fill="#e1ed5e" style="font-size:6.75px; font-family:Arial;" text-anchor="middle"><textPath startOffset="21.466115282336823" xlink:href="#id88">April</textPath></text><path d="M 120.99513854157772 99.54816195383933 l 22.113878858306403 -0.47591454548315637 a43.1189993628657,43.1189993628657 0 0,0 0.009582669672272472,0.7421883265899981 l -22.11879453509639 0.09518996083269557" fill="#fff917" stroke="none" /><path d="M 120.99824983174949 100.27111621757518 l 16.393945199596864 0.21166832708739394 a37.39531160692218,37.39531160692218 0 0,0 -0.013850399502535896,0.6435736407830381 l -16.38787273740932 -0.4938317836605469" fill="#ffac0f" stroke="none" /><path d="M 120.9904718944345 100.63252640178507 l 13.071221225405507 0.3938878825699276 a34.077154582994226,34.077154582994226 0 0,0 -0.022714642031512636,0.5861639805904024 l -13.062504450522791 -0.6188291101743362" fill="#ff7d0b" stroke="none" /><path d="M 120.92983693683757 101.71520430193887 l 16.11322390270311 1.3204819053022463 a37.16724024071126,37.16724024071126 0 0,0 -0.05774267705333983,0.6371856296639314 l -16.088106629372692 -1.5976489235147482" fill="#ffa90f" stroke="none" /><path d="M 120.8583938346157 102.4346265915055 l 26.31660113227348 3.071717670243014 a47.49526268223927,47.49526268223927 0 0,0 -0.10177214945834587,0.8112241656940795 l -26.259827473568286 -3.5242595902244886" fill="#ceff1d" stroke="none" /><path d="M 120.76222939487914 103.15116336523771 l 14.488606244122572 2.1989914638499277 a35.654530847328836,35.654530847328836 0 0,0 -0.09731691224953397,0.605992505474095 l -14.44860757751175 -2.4480631990172275" fill="#ff940d" stroke="none" /><path d="M 120.70491114924044 103.5080841355445 l 8.978843898161845 1.521307655349568 a30.10681144692166,30.10681144692166 0 0,0 -0.0909706807681151,0.5102118890080916 l -8.951326775054541 -1.675638295090878" fill="#ff4406" stroke="none" /><path d="M 120.5718875245553 104.21870165774334 l 8.399339230513101 1.722462573909112 a29.574134173650073,29.574134173650073 0 0,0 -0.10655977576864432,0.4978117968151103 l -8.368445416020014 -1.8667881901403913" fill="#ff3c05" stroke="none" /><path d="M 120.41448212921028 104.9243191809786 l 33.32044649295689 8.037456583297914 a55.27612671843775,55.27612671843775 0 0,0 -0.231077072165301,0.9230380374332332 l -33.17715810649653 -8.609822460128543" fill="#72ff27" stroke="none" /><path d="M 119.41010516605496 108.01547362559984 l 9.789229011625865 4.042497775584782 a31.59107137676191,31.59107137676191 0 0,0 -0.21188435269050712,0.5008320201344069 l -9.71819367774305 -4.210404321385353" fill="#ff5908" stroke="none" /><path d="M 118.97047184881838 109.00673069616215 l 10.599813588670463 5.032540423005955 a32.73381912353143,32.73381912353143 0 0,0 -0.24604413081963922,0.5069237853527376 l -10.51161620123611 -5.214253164323967" fill="#ff6a09" stroke="none" /><line stroke="#e1ed5e" stroke-width="0.3" x1="174.80103733775053" x2="179.2010983576182" y1="140.37084112569926" y2="142.7455964860345" /><path d="M 175.68104954172406 140.8457921977663 a86.0,86.0 0 0,1 -30.038265399797805,32.042727171017184" fill="none" id="id89" stroke="none" /><text fill="#e1ed5e" style="font-size:6.75px; font-family:Arial;" text-anchor="middle"><textPath startOffset="22.206326154141568" xlink:href="#id89">May</textPath></text><path d="M 116.93607887273984 112.41649034213515 l 12.604761906641258 9.241035404637621 a36.62935565123785,36.62935565123785 0 0,0 -0.37717549846660214,0.5052882173350616 l -12.443825141479563 -9.456636501481999" fill="#ffa10e" stroke="none" /><path d="M 115.80600337817218 113.82643327865902 l 8.858174649624376 7.748762152795615 a32.769051492106136,32.769051492106136 0 0,0 -0.37503578721645836,0.42135668266477416 l -8.723480012759579 -7.900093005201256" fill="#ff6b09" stroke="none" /><line stroke="#e1ed5e" stroke-width="0.3" x1="143.8653032363475" x2="146.44561519142675" y1="172.8068346515853" y2="177.08958963109032" /><path d="M 144.38136562736335 173.6633856474863 a86.0,86.0 0 0,1 -40.68145358897372,12.25698825130547" fill="none" id="id90" stroke="none" /><text fill="#e1ed5e" style="font-size:6.75px; font-family:Arial;" text-anchor="middle"><textPath startOffset="21.466115282336833" xlink:href="#id90">June</textPath></text><path d="M 107.93186726928326 119.44442032107085 l 4.8156762319215405 11.805294970869372 a33.74973438625008,33.74973438625008 0 0,0 -0.5398011652155478,0.21479802386568234 l -4.611753990664127 -11.886439839141124" fill="#ff790b" stroke="none" /><path d="M 106.57524785965236 119.94407469862006 l 2.223958135586248 6.745720941549568 a28.10286849168001,28.10286849168001 0 0,0 -0.4607246554000851,0.14750948545402442 l -2.1075121350952224 -6.783003273663299" fill="#ff2503" stroke="none" /><path d="M 104.83641907484287 120.43548508189849 l 1.993040516836271 8.421261499294323 a29.65389251962652,29.65389251962652 0 0,0 -0.49773331453514674,0.11328248190765283 l -1.8477870529082623 -8.454320714779659" fill="#ff3d05" stroke="none" /><path d="M 103.41894727170886 120.7198165907248 l 2.373616639986903 14.38480840116597 a35.579326757154384,35.579326757154384 0 0,0 -0.6051266435528297,0.09450833666497532 l -2.1256541328255563 -14.42353504517805" fill="#ff930d" stroke="none" /><path d="M 102.34483914955558 120.86867818915974 l 1.961059217495198 17.453100664729632 a38.56292902871582,38.56292902871582 0 0,0 -0.660284393244656,0.0684411770998098 l -1.6603422276449393 -17.4842712102852" fill="#ffbc11" stroke="none" /><path d="M 101.26447882468166 120.96189622390904 l 0.3778966818768236 6.264581797845284 a27.275969327846333,27.275969327846333 0 0,0 -0.4689023987114519,0.024236898019326984 l -0.2700062147518922 -6.2701585026268125" fill="#ff1902" stroke="none" /><line stroke="#e1ed5e" stroke-width="0.3" x1="102.19456741930631" x2="102.32365962044197" y1="184.97166512339345" y2="189.96999836594603" /><path d="M 102.22038585953345 185.97133177190398 a86.0,86.0 0 0,1 -42.740103519485714,-10.115201625700543" fill="none" id="id91" stroke="none" /><text fill="#e1ed5e" style="font-size:6.75px; font-family:Arial;" text-anchor="middle"><textPath startOffset="22.20632615414155" xlink:href="#id91">July</textPath></text><path d="M 100.54218724476979 120.99299961872073 l 0.26878911995172494 10.407271559954628 a31.41074199630578,31.41074199630578 0 0,0 -0.5406242060879124,0.009307335988117456 l -0.08960522397114462 -10.410356373221907" fill="#ff5708" stroke="none" /><path d="M 99.81925306533755 120.99922214144158 l -0.12039959864890107 13.98805419572053 a34.988572344802364,34.988572344802364 0 0,0 -0.6022038304056281,-0.010367485065966605 l 0.36116311894719705 -13.983909233375403" fill="#ff8a0c" stroke="none" /><path d="M 99.09653310690486 120.98055641714683 l -0.9244935773991165 21.46884385709259 a42.48873995689078,42.48873995689078 0 0,0 -0.7304258134530531,-0.03775467133457788 l 1.2939074592656585 -21.44974937899581" fill="#fff116" stroke="none" /><path d="M 98.37488393609728 120.93702456842531 l -1.1217796024731197 14.452338278494825 a35.49580874572273,35.49580874572273 0 0,0 -0.6087627245776914,-0.05252660941651868 l 1.370386644792353 -14.430887416799642" fill="#ff920d" stroke="none" /><path d="M 97.65516085044442 120.86867818915974 l -0.8025405349536866 7.1424771975846735 a28.187423170250987,28.187423170250987 0 0,0 -0.481699675745188,-0.058327122402767384 l 0.925367633750264 -7.127604546456557" fill="#ff2703" stroke="none" /><path d="M 96.58105272829116 120.7198165907248 l -2.2893376508424312 13.874053171924857 a35.06166484798165,35.06166484798165 0 0,0 -0.5946308570243304,-0.10338419651462351 l 2.5278174793388115 -13.832590396889227" fill="#ff8b0c" stroke="none" /><path d="M 95.86986931433489 120.58985236759428 l -3.4685388005764266 17.291632461659134 a38.63607991023538,38.63607991023538 0 0,0 -0.6509416651970386,-0.13641115492930414 l 3.765671927202852 -17.229365326003286" fill="#ffbd11" stroke="none" /><path d="M 95.16358092515715 120.4354850818985 l -5.4423368526767915 22.99568996037771 a44.63092861425086,44.63092861425086 0 0,0 -0.7460733756615724,-0.1833666838625676 l 5.837363513081574 -22.898602018201114" fill="#f2ff19" stroke="none" /><path d="M 94.11515582081647 120.15858648285463 l -4.194528416075777 14.368394685683263 a35.96812728689993,35.96812728689993 0 0,0 -0.5928318560245109,-0.17861537514631615 l 4.441235246540534 -14.294063941431222" fill="#ff980e" stroke="none" /><path d="M 93.76903079525671 120.05430185196036 l -5.189643395507673 16.702806856807623 a38.49045898392481,38.49045898392481 0 0,0 -0.6310211164675221,-0.20203303450282642 l 5.476385857066136 -16.611000975645087" fill="#ffbb11" stroke="none" /><path d="M 93.42475214034765 119.94407469862007 l -3.3670795378626717 10.213042497059389 a31.753764999340213,31.753764999340213 0 0,0 -0.5176321358320337,-0.17560892484582363 l 3.542381406631931 -10.153570585315443" fill="#ff5c08" stroke="none" /><path d="M 92.7421414339146 119.70592522655815 l -5.393841640933138 14.644903740174847 a36.606624657703904,36.606624657703904 0 0,0 -0.5894185673438382,-0.22286766762748156 l 5.645130429037258 -14.549887822440732" fill="#ffa10e" stroke="none" /><path d="M 92.06813273071674 119.44442032107085 l -5.722945318994828 14.029401965408303 a36.151772920394734,36.151772920394734 0 0,0 -0.5741737170818296,-0.24000466030707288 l 5.96359049557412 -13.928812262081257" fill="#ff9b0e" stroke="none" /><path d="M 91.40352486487194 119.15986991738527 l -7.101309459392813 15.827436634938524 a38.347517011695246,38.347517011695246 0 0,0 -0.5999231724378675,-0.27539530409274676 l 7.3727006275981 -15.702854260511703" fill="#ffb911" stroke="none" /><path d="M 90.7491055286396 118.85261126421891 l -4.6534466147617985 9.483366212694301 a31.56356001168687,31.56356001168687 0 0,0 -0.4856971941617759,-0.24353865606106845 l 4.8159977166063355 -9.401859715723932" fill="#ff5908" stroke="none" /><path d="M 90.10565033884886 118.52300852407294 l -12.66781637075028 23.71515851497598 a47.886470854195174,47.886470854195174 0 0,0 -0.7237177842494649,-0.39462863978818985 l 13.074156966868385 -23.493589223428025" fill="#c9ff1d" stroke="none" /><line stroke="#e1ed5e" stroke-width="0.3" x1="58.666819895761336" x2="56.23545636021788" y1="174.27360380694188" y2="178.64263932499728" /><path d="M 58.180547188652646 175.14741091055294 a86.0,86.0 0 0,1 -31.652253787137756,-30.449443065178592" fill="none" id="id92" stroke="none" /><text fill="#e1ed5e" style="font-size:6.75px; font-family:Arial;" text-anchor="middle"><textPath startOffset="22.20632615414155" xlink:href="#id92">August</textPath></text><path d="M 88.8546689885994 117.79835938074946 l -6.898339883710063 11.016194337811765 a33.99783177455459,33.99783177455459 0 0,0 -0.49332181107876766,-0.31486132054411753 l 7.086943496835754 -10.895818588443843" fill="#ff7c0b" stroke="none" /><path d="M 88.54995079064634 117.60387380957326 l -7.6073420684729 11.695905174822768 a34.95227046774838,34.95227046774838 0 0,0 -0.5015239727817437,-0.3323827418933724 l 7.8075407399946055 -11.563224411838076" fill="#ff8a0c" stroke="none" /><path d="M 87.95078237400918 117.19931262002967 l -10.102877231574544 14.421064442625326 a38.60781724162935,38.60781724162935 0 0,0 -0.5410107402674326,-0.3859967984547509 l 10.349615299690862 -14.245023382326355" fill="#ffbd11" stroke="none" /><path d="M 87.36589467227662 116.77436683061367 l -9.115916395965266 12.10324923345258 a36.152180494743945,36.152180494743945 0 0,0 -0.49385818982191254,-0.378669400761891 l 9.322903314280666 -11.944540490863323" fill="#ff9b0e" stroke="none" /><path d="M 87.07902340077011 116.55440617244103 l -9.79316826286781 12.547045797469767 a36.91648525487474,36.91648525487474 0 0,0 -0.4975683117429727,-0.39529835942623764 l 10.007694067328142 -12.3766135240384" fill="#ffa50f" stroke="none" /><path d="M 85.97065885151581 115.62618273729859 l -14.491314229390554 16.1407383180313 a42.691510356498945,42.691510356498945 0 0,0 -0.5425896832423814,-0.49564281096469276 l 14.76700346209979 -15.88890274048003" fill="#fff316" stroke="none" /><path d="M 85.70375840098266 115.38237550388516 l -12.859686014318138 13.836679924876108 a39.88981830855763,39.88981830855763 0 0,0 -0.49893456391996205,-0.4717737721116065 l 13.095956412628917 -13.613271516018571" fill="#ffce13" stroke="none" /><path d="M 84.9287848128048 114.62390073753433 l -9.975819300945478 9.679736465879202 a34.90015355217301,34.90015355217301 0 0,0 -0.41463617462550334,-0.43474437140125893 l 10.14096202694994 -9.506584977895443" fill="#ff890c" stroke="none" /><path d="M 84.43433777217949 114.09645910891817 l -21.700806172716824 19.65252247973868 a50.277066594221125,50.277066594221125 0 0,0 -0.5754118105505813,-0.6464812690523059 l 22.035876832915744 -19.276067040945506" fill="#acff20" stroke="none" /><path d="M 83.06392112726016 112.41649034213515 l -13.047720327653275 9.565785247726506 a37.17860479628199,37.17860479628199 0 0,0 -0.37394631544075796,-0.5193787258782032 l 13.21044643546964 -9.339772916397166" fill="#ffa90f" stroke="none" /><path d="M 82.85270091963577 112.12312394758628 l -5.618457150702209 3.9722437984512333 a27.880827097712242,27.880827097712242 0 0,0 -0.27368230502341895,-0.39425977257708406 l 5.6860003628877624 -3.874942763687137" fill="#ff2203" stroke="none" /><path d="M 82.44556493220864 111.52570212397912 l -16.539516327644808 10.859337696197782 a40.78587414173282,40.78587414173282 0 0,0 -0.38027027618415227,-0.5901879133330925 l 16.72399146720601 -10.573028182943242" fill="#ffda14" stroke="none" /><path d="M 82.05923443525364 110.91462005526583 l -22.62377430479371 13.7636211711125 a47.48154888854012,47.48154888854012 0 0,0 -0.418785281220333,-0.7019082198096497 l 22.857340461712276 -13.37215085741674" fill="#ceff1d" stroke="none" /><line stroke="#e1ed5e" stroke-width="0.3" x1="26.63291911575756" x2="22.317208475507996" y1="142.92168965132927" y2="145.44649492493687" /><path d="M 25.769776987707644 143.4266507060508 a86.0,86.0 0 0,1 -11.730757126820373,-40.83630448921669" fill="none" id="id93" stroke="none" /><text fill="#e1ed5e" style="font-size:6.75px; font-family:Arial;" text-anchor="middle"><textPath startOffset="21.46611528233685" xlink:href="#id93">September</textPath></text><path d="M 81.87401531095188 110.60418214915194 l -12.693630649294391 7.426110848504981 a35.70630413785154,35.70630413785154 0 0,0 -0.3057955963794625,-0.5331803978751266 l 12.81957824182623 -7.206510604771548" fill="#ff950d" stroke="none" /><path d="M 81.51974371655577 109.97397251340807 l -25.743896291920436 13.894229066166789 a50.25402190524012,50.25402190524012 0 0,0 -0.4042995691667596,-0.7647824205927453 l 25.97924836931208 -13.449031630487918" fill="#acff20" stroke="none" /><path d="M 81.02952815118164 109.00673069616217 l -14.402027602427761 6.8377415768833725 a36.94280743574765,36.94280743574765 0 0,0 -0.26779204842472315,-0.5768002484078184 l 14.517594267692312 -6.588821261196727" fill="#ffa60f" stroke="none" /><path d="M 80.32549172779594 107.34259656027581 l -4.37456114413379 1.6326017995078785 a25.669279798804254,25.669279798804254 0 0,0 -0.15093015679147714,-0.41529496956714856 l 4.402015561930492 -1.5570590329346128" fill="#ff0000" stroke="none" /><path d="M 80.0844068197444 106.66101706037122 l -13.896692422366456 4.647921077233335 a35.65336925836673,35.65336925836673 0 0,0 -0.18965512493040973,-0.5836984557392405 l 13.974639798313115 -4.408023721516291" fill="#ff940d" stroke="none" /><path d="M 79.76711848015287 105.62410040840567 l -14.54706852160944 4.043624430520914 a36.09861255571206,36.09861255571206 0 0,0 -0.16126096596401457,-0.6001120449039243 l 14.614517563915228 -3.792621452441451" fill="#ff9a0e" stroke="none" /><path d="M 79.67330655649465 105.27499134158121 l -28.764035311106078 7.464570547921584 a50.71682252266308,50.71682252266308 0 0,0 -0.21201729487596982,-0.84690370156768 l 28.888263920277105 -6.968339006956512" fill="#a7ff21" stroke="none" /><path d="M 79.50377843672027 104.57218783832718 l -14.551117533176742 3.245985725410654 a35.90877073382958,35.90877073382958 0 0,0 -0.12938436456185162,-0.6044406769600978 l 14.604835936463035 -2.9950312290343923" fill="#ff970e" stroke="none" /><path d="M 79.4281124754447 104.21870165774334 l -17.492943888682642 3.587298992078852 a38.856981826478105,38.856981826478105 0 0,0 -0.1287277538110187,-0.6563800433577646 l 17.552101575469326 -3.2856552216531325" fill="#ffc011" stroke="none" /><path d="M 79.29508885075956 103.50808413554451 l -23.098931420609624 3.9137088916048755 a44.42814013237614,44.42814013237614 0 0,0 -0.12126395473231104,-0.7551107618735972 l 23.162877129703226 -3.5155189000380647" fill="#f4ff19" stroke="none" /><path d="M 79.10278846688536 102.07522291339032 l -14.763980093327904 1.4661549333489463 a35.836600637772996,35.836600637772996 0 0,0 -0.05567540780307445,-0.6143734857500287 l 14.787030097408053 -1.2118000590503515" fill="#ff960d" stroke="none" /><path d="M 79.07016306316243 101.71520430193888 l -12.293003898087179 1.0074141157134324 a33.33421371790376,33.33421371790376 0 0,0 -0.041943078125977994,-0.5722799770982141 l 12.30852353487749 -0.7956610021184576" fill="#ff730a" stroke="none" /><path d="M 79.0095281055655 100.63252640178507 l -10.382911105139893 0.31287840666077466 a31.387624170838677,31.387624170838677 0 0,0 -0.011625284441301337,-0.540181287309191 l 10.386758452266202 -0.13410730356145478" fill="#ff5608" stroke="none" /><line stroke="#e1ed5e" stroke-width="0.3" x1="15.007084014347285" x2="10.007500721073583" y1="101.09737516637583" y2="101.16192664675087" /><path d="M 14.007167355692545 101.11028546245083 a86.0,86.0 0 0,1 10.666146001902534,-42.60595125391555" fill="none" id="id94" stroke="none" /><text fill="#e1ed5e" style="font-size:6.75px; font-family:Arial;" text-anchor="middle"><textPath startOffset="22.20632615414155" xlink:href="#id94">October</textPath></text><path d="M 79.12142395522702 97.74499172005258 l -14.621010236036035 -1.5791545875903523 a35.706041939753135,35.706041939753135 0 0,0 0.07125845777781444,-0.6104989494334983 l 14.591661425254632 1.8305972753487123" fill="#ff950d" stroke="none" /><path d="M 79.21141760316559 97.0276538004421 l -23.365768722637988 -3.340831641942917 a44.6033960281061,44.6033960281061 0 0,0 0.11521292224369482,-0.7591092062272454 l 23.30479990695499 3.742539960562255" fill="#f2ff19" stroke="none" /><path d="M 79.26566170972629 96.67025291283419 l -17.669381689470406 -2.837542794415279 a38.895773199231435,38.895773199231435 0 0,0 0.11184968277300884,-0.6601431591738294 l 17.617920145177173 3.1412717419049363" fill="#ffc111" stroke="none" /><path d="M 79.3925641242962 95.95851677861259 l -17.53803749735407 -3.439519827170103 a38.87213070397857,38.87213070397857 0 0,0 0.13442483338129912,-0.6555032275750889 l 17.476233368057773 3.7408987109085943" fill="#ffc011" stroke="none" /><path d="M 79.54389044137918 95.25157060432595 l -47.32764819135585 -10.986057503062446 a69.58600356877835,69.58600356877835 0 0,0 0.28088622207458525,-1.1644547297081254 l 47.131529169020446 11.799097464429968" fill="#3aff92" stroke="none" /><path d="M 79.71946130924805 94.55025226153421 l -14.861188955481861 -3.99347039721296 a36.38839637466985,36.38839637466985 0 0,0 0.16775610318776757,-0.6035079592385066 l 14.790246081727732 4.24868965987041" fill="#ff9e0e" stroke="none" /><path d="M 79.81627453868168 94.20196356495316 l -17.103607614953294 -4.913232708812652 a38.79531536942335,38.79531536942335 0 0,0 0.18990141141277525,-0.6402531542353553 l 17.016500306428814 5.206915249794546" fill="#ffbf11" stroke="none" /><path d="M 80.02781315780177 93.51064311812611 l -14.541639641627718 -4.7248651350860635 a36.28998476165724,36.28998476165724 0 0,0 0.19814799341679812,-0.5924372795635792 l 14.458154354439147 4.974475517571965" fill="#ff9d0e" stroke="none" /><path d="M 80.2630227832202 92.82701384747504 l -26.419142168083326 -9.601477412262449 a49.10977483715557,49.10977483715557 0 0,0 0.2955833428159378,-0.7920164039544397 l 26.24995423676576 10.05481695324623" fill="#baff1f" stroke="none" /><path d="M 80.52162464483688 92.15188598940014 l -13.637689741773112 -5.494818843105055 a35.70304783408549,35.70304783408549 0 0,0 0.23458315776992553,-0.5680617235090375 l 13.541084897116988 5.728755137067404" fill="#ff950d" stroke="none" /><path d="M 80.65960295795068 91.81776055985345 l -9.765037232014043 -4.131242631708581 a31.602976837882224,31.602976837882224 0 0,0 0.21626863658239315,-0.4991778309874011 l 9.692477885588968 4.298719607282582" fill="#ff5a08" stroke="none" /><path d="M 80.95270993114464 91.15688171328213 l -13.325577491893856 -6.186688897667644 a35.691702930871976,35.691702930871976 0 0,0 0.26350981367933535,-0.5550188709895852 l 13.217109484372768 6.415150184297762" fill="#ff940d" stroke="none" /><path d="M 81.26839172434947 90.50648371742162 l -56.19482482695157 -28.480548847735136 a84.0,84.0 0 0,0 0.6647622673595439,-1.284109110958658 l 55.69625312643191 29.44363068095413" fill="#4dd2ff" stroke="none" /><path d="M 81.6062741919709 89.86733742301443 l -8.325202822103352 -4.586154646521835 a30.504831217384737,30.504831217384737 0 0,0 0.25731894065827743,-0.45774168301209955 l 8.245026240152644 4.728779839468719" fill="#ff4906" stroke="none" /><line stroke="#e1ed5e" stroke-width="0.3" x1="26.266209847984243" x2="21.928928074336255" y1="57.711370442889674" y2="55.22380399835377" /><path d="M 25.398753493254645 57.213857153982495 a86.0,86.0 0 0,1 29.58750427330803,-30.492523968695096" fill="none" id="id95" stroke="none" /><text fill="#e1ed5e" style="font-size:6.75px; font-family:Arial;" text-anchor="middle"><textPath startOffset="21.46611528233685" xlink:href="#id95">November</textPath></text><line stroke="#e1ed5e" stroke-width="0.3" x1="56.762969772571076" x2="54.21961505331055" y1="26.818313649435495" y2="22.513508569990535" /><path d="M 56.25429882871897 25.957352633546506 a86.0,86.0 0 0,1 42.265352541879196,-11.944610805530505" fill="none" id="id96" stroke="none" /><text fill="#e1ed5e" style="font-size:6.75px; font-family:Arial;" text-anchor="middle"><textPath startOffset="22.20632615414155" xlink:href="#id96">December</textPath></text></svg>