<?xml version="1.0" encoding="utf-8" ?>
<svg baseProfile="full" height="200mm" version="1.1" viewBox="0,0,200,200" width="200mm" xmlns="http://www.w3.org/2000/svg" xmlns:ev="http://www.w3.org/2001/xml-events" xmlns:xlink="http://www.w3.org/1999/xlink"><defs /><rect fill="#1a1a1a" height="200" width="200" x="0" y="0" /><text alignment-baseline="middle" fill="#e1ed5e" style="dominant-baseline: central; font-size:9.0px; font-family:Arial;" text-anchor="middle" x="100.0" y="100.0">2020</text><line stroke="#e1ed5e" stroke-width="0.3" x1="100.0" x2="100.0" y1="15.0" y2="10.0" /><path d="M 100.0 14.0 a86.0,86.0 0 0,1 42.35913384403234,11.155469271406648" fill="none" id="id49" stroke="none" /><text fill="#e1ed5e" style="font-size:6.75px; font-family:Arial;" text-anchor="middle"><textPath startOffset="22.145653131862478" xlink:href="#id49">January</textPath></text><path d="M 100.0 79.0 l 0.0 -9.013468709434711 a30.01346870943471,30.01346870943471 0 0,0 0.5152211009487477,0.00442255349443826 l -0.15472817609989292 9.012140554134708" fill="#ff5d08" stroke="none" /><path d="M 100.36049292484886 79.00309439819443 l 0.2045829464330502 -11.915930987536122 a32.91768708607903,32.91768708607903 0 0,0 0.5649093408289703,0.014550060748369321 l -0.4091056013327618 11.910663209437708" fill="#ff860c" stroke="none" /><path d="M 101.44090949804482 79.04949213459386 l 1.073221255772108 -15.604401519237737 a36.64126435546149,36.64126435546149 0 0,0 0.6271431657138061,0.048544847356832614 l -1.3409334162611475 15.58367890488585" fill="#ffb811" stroke="none" /><path d="M 102.51750503828377 79.15144685158666 l 1.0153217484511807 -8.408320584635256 a29.46939981975576,29.46939981975576 0 0,0 0.5017125719585805,0.06495673707565723 l -1.159512142300553 8.3896522513592" fill="#ff5507" stroke="none" /><path d="M 103.23170211078529 79.25015418208739 l 3.6112060677208437 -23.186533459208494 a44.466063647713455,44.466063647713455 0 0,0 0.7532180566745581,0.12394174459271265 l -4.008701627448472 23.121125716120115" fill="#e3ff1b" stroke="none" /><path d="M 103.94208987418118 79.37332000966035 l 5.434401018189062 -28.435082486455276 a49.94972591300321,49.94972591300321 0 0,0 0.8408287455720032,0.16818929789682266 l -5.921726249292022 28.337603791895592" fill="#a2ff22" stroke="none" /><path d="M 104.64783097203109 79.52079915486377 l 3.587757210143947 -15.808320253525812 a37.21033593226785,37.21033593226785 0 0,0 0.6217100203414376,0.14672187197195843 l -3.8585993842252693 15.744402237907627" fill="#ffbf11" stroke="none" /><path d="M 105.3480935250658 79.69241777938227 l 8.250374015840224 -31.328013972130737 a53.396190066723435,53.396190066723435 0 0,0 0.8843899059253627,0.24104440156718343 l -8.78694532270028 31.18176907641941" fill="#7cff26" stroke="none" /><path d="M 106.04205211174951 79.88797359093562 l 15.161455891054892 -50.46755566503506 a73.69576756761225,73.69576756761225 0 0,0 1.2084679942677332,0.3743864737295779 l -16.025564518194255 50.19985260349883" fill="#40ffc5" stroke="none" /><path d="M 106.72888874123014 80.10723608172694 l 4.731007362262944 -13.986382621612993 a35.76486808271392,35.76486808271392 0 0,0 0.5798919593207353,0.20171652546162988 l -4.970405093628698 13.903107663582773" fill="#ffac0f" stroke="none" /><path d="M 107.40779381753099 80.34994680014964 l 7.523522412851459 -19.95703704832215 a42.32807345366152,42.32807345366152 0 0,0 0.6777082081110695,0.26215209372783577 l -7.865002883456054 19.824945066456277" fill="#fdff18" stroke="none" /><path d="M 108.07796709384702 80.6158196554323 l 16.09154928952817 -38.61386037203647 a62.83262090006366,62.83262090006366 0 0,0 0.9920520583606893,0.4234480326523579 l -16.752036423059288 38.33193768972471" fill="#32ff49" stroke="none" /><path d="M 108.73861861582097 80.90454125486305 l 11.065229671550819 -24.179523788350323 a47.591139093983315,47.591139093983315 0 0,0 0.7399544778045994,0.3463360581044492 l -11.478672863226922 23.986011498675342" fill="#beff1f" stroke="none" /><path d="M 109.3889696526874 81.21577127319529 l 28.166908958062173 -56.352686180414125 a84.0,84.0 0 0,0 1.2842911131456847,0.6557681933086643 l -29.130127292921436 55.86086003543262" fill="#4dd2ff" stroke="none" /><path d="M 110.34350942703115 81.72400993836675 l 10.609779087304343 -18.74646303786992 a42.54059629424459,42.54059629424459 0 0,0 0.6324521230844393,0.36514640351235145 l -10.93002367824918 18.561569737081395" fill="#fbff18" stroke="none" /><line stroke="#e1ed5e" stroke-width="0.3" x1="143.13028292997686" x2="145.6673583964461" y1="26.7553504044142" y2="22.446841604673864" /><path d="M 143.63769802327073 25.89364864446614 a86.0,86.0 0 0,1 29.32050498858742,28.57503671076993" fill="none" id="id50" stroke="none" /><text fill="#e1ed5e" style="font-size:6.75px; font-family:Arial;" text-anchor="middle"><textPath startOffset="20.669276256404974" xlink:href="#id50">February</textPath></text><path d="M 110.96478420261332 82.08984904055464 l 13.667745342624366 -22.325234846237606 a47.17677164377785,47.17677164377785 0 0,0 0.687064240788742,0.4287789013037161 l -14.04897371220282 22.087320148092346" fill="#c2ff1e" stroke="none" /><path d="M 111.5731344415666 82.4767994020092 l 17.43247212166523 -26.394984647346032 a52.63204544139168,52.63204544139168 0 0,0 0.7496400074555986,0.5043912523866957 l -17.88300841721783 26.09184372090222" fill="#84ff25" stroke="none" /><path d="M 112.16784306229584 82.88440491214696 l 30.531379536333663 -42.94620886726424 a73.6929026763789,73.6929026763789 0 0,0 1.0247489039126518,0.7418391800507418 l -31.264109450620285 42.415768915840424" fill="#40ffc5" stroke="none" /><path d="M 113.03279911837588 83.53348406188908 l 22.756833821521536 -28.752516126384027 a57.66852422962124,57.66852422962124 0 0,0 0.7709711310578673,0.6210397689973819 l -23.247055722934665 28.357628063593236" fill="#4eff2b" stroke="none" /><path d="M 113.59037401385872 83.9905735841838 l 17.13103798383473 -20.180319669575013 a47.47107410684018,47.47107410684018 0 0,0 0.6167182444782834,0.5327065310228091 l -17.474935708075876 19.883269006087485" fill="#bfff1e" stroke="none" /><path d="M 114.39649973595853 84.71141617570332 l 23.58769358005256 -25.049313175738252 a55.40708326787766,55.40708326787766 0 0,0 0.6868565834562025,0.6579930696265401 l -24.014222649374073 24.640707975806134" fill="#66ff29" stroke="none" /><path d="M 114.91283532996326 85.21462403516908 l 22.70956259758652 -22.515464938283223 a52.97921816994221,52.97921816994221 0 0,0 0.6347747883937235,0.6513348534986404 l -23.092724187131054 22.12230739271684" fill="#80ff25" stroke="none" /><path d="M 115.41159269507618 85.73525988315684 l 38.86875876334152 -35.97634283447406 a73.96298378628654,73.96298378628654 0 0,0 0.8544566628165738,0.9391975512114182 l -39.48061312699997 35.30380770770497" fill="#40ffc8" stroke="none" /><path d="M 117.01052211995028 87.68569379921539 l 17.419516128274715 -12.610386322092962 a42.5049153761565,42.5049153761565 0 0,0 0.42279214573051477,0.5947101006809594 l -17.63342337253519 12.309498994702498" fill="#fbff18" stroke="none" /><path d="M 117.62189284568427 88.57770195909679 l 14.57612189648663 -9.448066109593956 a38.37035643711708,38.37035643711708 0 0,0 0.35352310174241935,0.5557970345655339 l -14.736162689854938 9.19645540034975" fill="#ffce13" stroke="none" /><line stroke="#e1ed5e" stroke-width="0.3" x1="172.87174338648825" x2="177.1583165268699" y1="56.24261187166439" y2="53.66864786411523" /><path d="M 173.72905801456457 55.72781907015455 a86.0,86.0 0 0,1 12.242430191666344,42.057860355516425" fill="none" id="id51" stroke="none" /><text fill="#e1ed5e" style="font-size:6.75px; font-family:Arial;" text-anchor="middle"><textPath startOffset="22.145653131862474" xlink:href="#id51">March</textPath></text><path d="M 118.00360718960297 89.18935116829356 l 9.004557418650014 -5.406978007950476 a31.503212150776786,31.503212150776786 0 0,0 0.27441741513030565,0.46602076426852596 l -9.096048543910088 5.251606075388394" fill="#ff720a" stroke="none" /><path d="M 120.7213421655516 96.59031103205396 l 2.602781633104253 -0.42828672725273303 a23.637783491942752,23.637783491942752 0 0,0 0.06244709320436815,0.4009551348940901 l -2.6097502184468864 0.38354341042720164" fill="#ff0000" stroke="none" /><path d="M 120.86939407059847 97.66154086499901 l 5.519440274114022 -0.6184647951651878 a26.553982322835623,26.553982322835623 0 0,0 0.046871075942459435,0.45343514173084926 l -5.529243742538147 0.5236251311514071" fill="#ff2b04" stroke="none" /><line stroke="#e1ed5e" stroke-width="0.3" x1="184.99686870605535" x2="189.99668451229388" y1="99.2704041080226" y2="99.22748670261217" /><path d="M 185.99683186730306 99.26182062694052 a86.0,86.0 0 0,1 -10.086455211305974,41.156179273409016" fill="none" id="id52" stroke="none" /><text fill="#e1ed5e" style="font-size:6.75px; font-family:Arial;" text-anchor="middle"><textPath startOffset="21.40746469413373" xlink:href="#id52">April</textPath></text><path d="M 120.65975698304385 103.76489593502545 l 2.7759407900274136 0.5058688833960213 a23.821657420192317,23.821657420192317 0 0,0 -0.07676666102898226,0.40167560900691474 l -2.766847836716272 -0.5534470574362506" fill="#ff0300" stroke="none" /><path d="M 120.51834098615036 104.47187691870673 l 8.458363614293685 1.8434609816807304 a29.65691997321141,29.65691997321141 0 0,0 -0.11268095683408774,0.4964930868428257 l -8.425471795901933 -1.988388402462573" fill="#ff5808" stroke="none" /><path d="M 120.35273937422433 105.17358676015961 l 2.5390651115611274 0.6454204224219553 a23.61981281056992,23.61981281056992 0 0,0 -0.10326415606826225,0.39211082042046125 l -2.527611474688135 -0.6889117472152199" fill="#ff0000" stroke="none" /><path d="M 120.05942366710727 106.21446072829308 l 5.520417346107514 1.7102394052042216 a26.779266951639976,26.779266951639976 0 0,0 -0.13980726397713406,0.43794426315419593 l -5.490245366353125 -1.804752702049801" fill="#ff2f04" stroke="none" /><path d="M 119.83427380445688 106.89939002012753 l 12.355689751594477 4.2979502755874766 a34.08187470544949,34.08187470544949 0 0,0 -0.19696050089699918,0.5509335754050182 l -12.280089080653536 -4.509418807373415" fill="#ff960d" stroke="none" /><path d="M 119.31412917781788 108.2440532568976 l 24.04465121337477 10.263231819648876 a47.14343472760796,47.14343472760796 0 0,0 -0.3240911742862538,0.7415840310274086 l -23.86492615707155 -10.67447792045213" fill="#c3ff1e" stroke="none" /><line stroke="#e1ed5e" stroke-width="0.3" x1="174.33088141563837" x2="178.70328620479359" y1="141.23008692659167" y2="143.65538615756765" /><path d="M 175.20536237346943 141.71514677278685 a86.0,86.0 0 0,1 -30.301960400862466,31.631185727798858" fill="none" id="id53" stroke="none" /><text fill="#e1ed5e" style="font-size:6.75px; font-family:Arial;" text-anchor="middle"><textPath startOffset="22.145653131862474" xlink:href="#id53">May</textPath></text><path d="M 118.18653347947321 110.5 l 26.22602272473581 15.141601279899454 a51.28320255979892,51.28320255979892 0 0,0 -0.44671647509179696,0.7586222362555614 l -25.962232539514247 -15.589574684448566" fill="#93ff23" stroke="none" /><path d="M 116.57777611688842 112.89097897827486 l 6.375851594014236 4.9579007634990715 a29.076649276129213,29.076649276129213 0 0,0 -0.3097820251205639,0.3913994689594905 l -6.289803138252111 -5.066620176373245" fill="#ff5007" stroke="none" /><path d="M 114.91283532996324 114.78537596483092 l 1.9024046591151742 1.8861448879374958 a23.678933747839963,23.678933747839963 0 0,0 -0.2886665886740135,0.2861993676987112 l -1.8697461503111958 -1.9185242658648687" fill="#ff0100" stroke="none" /><path d="M 114.13192950727249 115.5334660781643 l 9.161853742504928 10.070482183559252 a34.614484030195044,34.614484030195044 0 0,0 -0.4429582113036704,0.3960959639636183 l -8.98763050437788 -10.226273677406258" fill="#ff9d0e" stroke="none" /><path d="M 113.31354834802062 116.24036423190432 l 7.408438662542137 9.037090573024752 a32.68563089617766,32.68563089617766 0 0,0 -0.4369745568835446,0.3519957712195058 l -7.25221333530334 -9.162934638037662" fill="#ff820c" stroke="none" /><path d="M 111.8722381534696 117.32195027204791 l 6.384075279148735 9.31455662267919 a32.29235946323596,32.29235946323596 0 0,0 -0.4599411705504637,0.3094689460686117 l -6.223237820501269 -9.422775242804923" fill="#ff7d0b" stroke="none" /><path d="M 110.96478420261333 117.91015095944535 l 7.925845400858828 12.946272811896693 a36.17975642223453,36.17975642223453 0 0,0 -0.5324751231354004,0.3197360121898686 l -7.702437521165991 -13.080422824622485" fill="#ffb210" stroke="none" /><line stroke="#e1ed5e" stroke-width="0.3" x1="143.1302829299769" x2="145.66735839644613" y1="173.24464959558577" y2="177.55315839532614" /><path d="M 143.63769802327073 174.10635135553383 a86.0,86.0 0 0,1 -40.68552437913181,11.842963189579606" fill="none" id="id54" stroke="none" /><text fill="#e1ed5e" style="font-size:6.75px; font-family:Arial;" text-anchor="middle"><textPath startOffset="21.407464694133747" xlink:href="#id54">June</textPath></text><path d="M 110.34350942703117 118.27599006163325 l 6.72810878850567 11.88792355435696 a34.65980140061349,34.65980140061349 0 0,0 -0.5203192299475686,0.2886123058376916 l -6.5230453704020075 -12.001668775627795" fill="#ff9d0e" stroke="none" /><path d="M 108.73861861582097 119.09545874513695 l 1.177412659788324 2.5728591507912695 a23.829470759919634,23.829470759919634 0 0,0 -0.3734266401968233,0.16702898636493188 l -1.133072616735874 -2.5926918880660517" fill="#ff0300" stroke="none" /><path d="M 108.4095320186766 119.2426549942271 l 4.6865443697557545 10.723730669205457 a32.703080688235346,32.703080688235346 0 0,0 -0.5163425947661942,0.22039595007710905 l -4.50176669981913 -10.80260126894197" fill="#ff830c" stroke="none" /><path d="M 107.407793817531 119.65005319985036 l 5.184634945530604 13.752860164706304 a35.697673361058975,35.697673361058975 0 0,0 -0.5752609488614209,0.2112437886163221 l -4.947784845015056 -13.839834802331348" fill="#ffab0f" stroke="none" /><path d="M 104.9986988182912 120.39639698878246 l 0.6243465625316548 2.547547033916031 a23.622938146460847,23.622938146460847 0 0,0 -0.3946918776087985,0.09314620842541202 l -0.580522531182977 -2.5578893859876684" fill="#ff0000" stroke="none" /><path d="M 102.51750503828377 120.84855314841334 l 1.672522384483924 13.85088462368896 a34.95149941710005,34.95149941710005 0 0,0 -0.5962794012555971,0.06681435063050158 l -1.4345070816275276 -13.877554734826434" fill="#ffa10e" stroke="none" /><line stroke="#e1ed5e" stroke-width="0.3" x1="101.45913802915013" x2="101.54496967792366" y1="184.9874750549273" y2="189.98673829345242" /><path d="M 101.47630435890484 185.9873277026323 a86.0,86.0 0 0,1 -42.54439059252881,-10.42667462771756" fill="none" id="id55" stroke="none" /><text fill="#e1ed5e" style="font-size:6.75px; font-family:Arial;" text-anchor="middle"><textPath startOffset="22.145653131862474" xlink:href="#id55">July</textPath></text><path d="M 100.0 121.0 l 1.1484211501551402e-15 9.377570340727758 a30.377570340727758,30.377570340727758 0 0,0 -0.5214713896157472,-0.004476204705412737 l 0.16097846476689393 -9.37618853421678" fill="#ff6209" stroke="none" /><path d="M 98.19965949673042 120.92268563240118 l -1.1972747376907444 13.91414729981665 a34.96556342860922,34.96556342860922 0 0,0 -0.5975788562388948,-0.05659133898621798 l 1.4359531573146544 -13.891544205325248" fill="#ffa10e" stroke="none" /><path d="M 96.41257539226777 120.69131181640829 l -1.248970833359973 7.203731865737226 a28.31120242750957,28.31120242750957 0 0,0 -0.4781428644020304,-0.08713355767088993 l 1.3724484313130605 -7.18123013413497" fill="#ff4506" stroke="none" /><path d="M 95.70440661134978 120.55596938700252 l -1.5475174674052856 7.405431289163632 a28.565396413305002,28.565396413305002 0 0,0 -0.47913362861614006,-0.10442494430865357 l 1.6744135126405622 -7.37777488672126" fill="#ff4906" stroke="none" /><path d="M 94.6519064749342 120.30758222061772 l -5.1338328391810295 19.493999497193386 a41.158676941139504,41.158676941139504 0 0,0 -0.6817025406213624,-0.18580105884289638 l 5.467716780737087 -19.402997944206344" fill="#fff216" stroke="none" /><path d="M 92.59220618246901 119.65005319985036 l -6.686840498919056 17.73763886782527 a39.956203957105174,39.956203957105174 0 0,0 -0.6397325740878385,-0.24746230267811262 l 6.9903453355004235 -17.620236677009117" fill="#ffe315" stroke="none" /><path d="M 91.26138138417905 119.09545874513695 l -7.313960857738839 15.98232443393775 a38.57636816126072,38.57636816126072 0 0,0 -0.5997914086904831,-0.28073266451079143 l 7.587240980300812 -15.85441553785643" fill="#ffd113" stroke="none" /><path d="M 89.97174638481275 118.45085714620012 l -11.61332909751864 21.36721750291758 a45.31928034593665,45.31928034593665 0 0,0 -0.6803412627447353,-0.37737382994103624 l 11.978414548419478 -21.164710757543396" fill="#d9ff1c" stroke="none" /><line stroke="#e1ed5e" stroke-width="0.3" x1="58.13341422392154" x2="55.67067388415222" y1="173.97424548756322" y2="178.32567169271397" /><path d="M 57.64086615596768 174.84453072859336 a86.0,86.0 0 0,1 -31.369924170532247,-30.572349798747897" fill="none" id="id56" stroke="none" /><text fill="#e1ed5e" style="font-size:6.75px; font-family:Arial;" text-anchor="middle"><textPath startOffset="22.145653131862474" xlink:href="#id56">August</textPath></text><path d="M 89.03521579738668 117.91015095944536 l -11.952273862769962 19.523141106582184 a43.89126228844039,43.89126228844039 0 0,0 -0.6392153543097333,-0.3989176572524668 l 12.28565334586941 -19.315087652488167" fill="#eaff1a" stroke="none" /><path d="M 87.54013794807813 116.9041958592261 l -12.95213925445777 17.572064429040264 a42.82968986415538,42.82968986415538 0 0,0 -0.5880863361051452,-0.4413109502279287 l 13.251878579473681 -17.34713445154832" fill="#f7ff18" stroke="none" /><path d="M 86.68645165197938 116.24036423190432 l -13.331160754576242 16.261848504164945 a42.02778076347491,42.02778076347491 0 0,0 -0.5540175425498542,-0.46218113831179086 l 13.608352631287989 -16.030605181941283" fill="#fffd17" stroke="none" /><path d="M 86.13680546590413 115.77377054828092 l -15.508536923238868 17.645868155789156 a44.49236855812877,44.49236855812877 0 0,0 -0.5693645462396871,-0.5091292881235426 l 15.809166496301925 -17.377043337782233" fill="#e3ff1b" stroke="none" /><path d="M 85.60350026404147 115.28858382429668 l -4.49992537448671 4.778764807606836 a27.56398670492034,27.56398670492034 0 0,0 -0.3416982923111159,-0.3273392345059681 l 4.581296152663141 -4.700813442795286" fill="#ff3a05" stroke="none" /><path d="M 84.58840730492382 114.26474011684316 l -13.115979342135265 12.139954668878438 a38.871972847610934,38.871972847610934 0 0,0 -0.4490680945544015,-0.49360450106667597 l 13.322445137531547 -11.91301259225409" fill="#ffd513" stroke="none" /><path d="M 84.1078160697243 113.72728997021213 l -3.9427259131012167 3.4056327386887224 a26.209934930176026,26.209934930176026 0 0,0 -0.29118668139690024,-0.343017178507052 l 4.000607158005229 -3.337448777732116" fill="#ff2603" stroke="none" /><path d="M 83.4222238831116 112.89097897827486 l -16.978215755122424 13.202363263003123 a42.50725937807469,42.50725937807469 0 0,0 -0.4429823649037973,-0.5798781355840138 l 17.202350097380517 -12.90896421417824" fill="#fbff18" stroke="none" /><path d="M 82.78059297857968 112.02048342749411 l -10.821800847521471 7.554457454978249 a34.19777257807138,34.19777257807138 0 0,0 -0.3318979537841138,-0.48424903346153997 l 10.949888538120911 -7.367573686446658" fill="#ff970d" stroke="none" /><path d="M 81.99639281039703 110.81064883170644 l -5.124121905390776 3.0768879762064962 a26.976944446741136,26.976944446741136 0 0,0 -0.23499011236560283,-0.3990645845423667 l 5.176185727886149 -2.9884722233705707" fill="#ff3204" stroke="none" /><line stroke="#e1ed5e" stroke-width="0.3" x1="26.387840678322732" x2="22.057713659400548" y1="142.50000000000003" y2="145.00000000000006" /><path d="M 25.521815274538298 143.00000000000003 a86.0,86.0 0 0,1 -11.493303480769221,-40.785679425670985" fill="none" id="id57" stroke="none" /><text fill="#e1ed5e" style="font-size:6.75px; font-family:Arial;" text-anchor="middle"><textPath startOffset="21.40746469413373" xlink:href="#id57">September</textPath></text><path d="M 80.41425534168474 107.57618678355246 l -16.66521827144568 6.446464437058804 a38.868587067062435,38.868587067062435 0 0,0 -0.23537579230558991,-0.6243622534169423 l 16.77342474756571 -6.1594339034477175" fill="#ffd513" stroke="none" /><path d="M 79.94057633289273 106.21446072829308 l -20.56510948619339 6.371123487688235 a42.52939717396876,42.52939717396876 0 0,0 -0.2100621706148225,-0.6992286469583985 l 20.671447976811844 -6.017157237139114" fill="#fbff18" stroke="none" /><path d="M 79.56144815229197 104.8234425847677 l -25.76107202821136 6.079542854895412 a47.46873010492199,47.46873010492199 0 0,0 -0.18035662276301853,-0.7946845579240711 l 25.861639512532044 -5.636423963032315" fill="#bfff1e" stroke="none" /><path d="M 79.17382384314188 102.69636545807758 l -13.549059373034966 1.7541969974580895 a34.662145402531685,34.662145402531685 0 0,0 -0.07133455286008053,-0.5907524290936484 l 13.577176012154707 -1.521350891441042" fill="#ff9d0e" stroke="none" /><path d="M 79.03789590574601 101.26102812881392 l -11.960134590227396 0.7194919973139184 a32.98175647184304,32.98175647184304 0 0,0 -0.029147094145133546,-0.5654458397068121 l 11.970723273829103 -0.5140743642303756" fill="#ff870c" stroke="none" /><line stroke="#e1ed5e" stroke-width="0.3" x1="15.003131293944662" x2="10.003315487706104" y1="100.72959589197737" y2="100.7725132973878" /><path d="M 14.003168132696942 100.73817937305945 a86.0,86.0 0 0,1 10.791469493833604,-42.45332614584628" fill="none" id="id58" stroke="none" /><text fill="#e1ed5e" style="font-size:6.75px; font-family:Arial;" text-anchor="middle"><textPath startOffset="22.145653131862435" xlink:href="#id58">October</textPath></text><path d="M 79.01933749520258 99.09900007780938 l -26.297080887359858 -1.1293098026782502 a47.32131842873324,47.32131842873324 0 0,0 0.041819450231275965,-0.8112861623307799 l 26.273819847672012 1.5805677583857423" fill="#c1ff1e" stroke="none" /><path d="M 79.0935383218832 98.0201363427161 l -15.82984239012609 -1.4991025325700138 a36.90066723440846,36.90066723440846 0 0,0 0.06513425953379923,-0.6301148759524747 l 15.801775738110628 1.7706219308054012" fill="#ffbb11" stroke="none" /><path d="M 79.2786578344484 96.59031103205396 l -6.117616190367965 -1.0066514160990618 a27.199885073627293,27.199885073627293 0 0,0 0.0797671374499804,-0.46007565151959967 l 6.0994342354257505 1.111520100539254" fill="#ff3505" stroke="none" /><path d="M 79.64726062577567 94.8264132398404 l -13.906171103104255 -3.5348943147500047 a35.34841707524784,35.34841707524784 0 0,0 0.15454078687664793,-0.5868165396187309 l 13.843440835422882 3.7730913587415205" fill="#ffa70f" stroke="none" /><path d="M 79.83685265289637 94.1308016681162 l -7.607004832268174 -2.214288240996947 a28.922726483501037,28.922726483501037 0 0,0 0.14285579173320034,-0.47552046935160075 l 7.567872720531344 2.3445463139392713" fill="#ff4e07" stroke="none" /><path d="M 80.16572619554312 93.10060997987247 l -13.570620402874122 -4.720566222771898 a35.36821086922371,35.36821086922371 0 0,0 0.20439428842566418,-0.5717272021642759 l 13.487585944404515 4.9528283813170955" fill="#ffa70f" stroke="none" /><path d="M 80.5471966667186 92.08871423366112 l -13.307205547766403 -5.411924648396234 a35.365606422647936,35.365606422647936 0 0,0 0.23353788586266633,-0.5604059095882131 l 13.212341817367257 5.639563067425711" fill="#ffa70f" stroke="none" /><path d="M 80.9802524753101 91.09779779509293 l -14.571107726051219 -6.820014154152474 a37.0881873878641,37.0881873878641 0 0,0 0.27484244010578596,-0.5743149933143199 l 14.451886027985527 7.069141649531881" fill="#ffbe11" stroke="none" /><path d="M 81.29705330413844 90.45014215332179 l -13.151922879302706 -6.715465533332631 a35.767212084632106,35.767212084632106 0 0,0 0.28390979284619955,-0.5444344626919648 l 13.034705017481567 6.940246239129083" fill="#ffac0f" stroke="none" /><line stroke="#e1ed5e" stroke-width="0.3" x1="26.387840678322718" x2="22.05771365940052" y1="57.49999999999999" y2="54.99999999999999" /><path d="M 25.521815274538284 56.99999999999999 a86.0,86.0 0 0,1 29.574782752854787,-30.34633250058573" fill="none" id="id59" stroke="none" /><text fill="#e1ed5e" style="font-size:6.75px; font-family:Arial;" text-anchor="middle"><textPath startOffset="21.40746469413373" xlink:href="#id59">November</textPath></text><path d="M 81.81346652052679 89.5 l -14.310126955672867 -8.261955649995452 a37.5239112999909,37.5239112999909 0 0,0 0.32686237502507537,-0.5550837717332274 l 14.166190870518012 8.506390590022251" fill="#ffc312" stroke="none" /><path d="M 82.18462484594161 88.88188828441811 l -12.488232272183694 -7.793580563508033 a35.72059249092578,35.72059249092578 0 0,0 0.32910965198262965,-0.5174150365769209 l 12.352604928575174 8.006809274763626" fill="#ffac0f" stroke="none" /><path d="M 82.78059297857968 87.97951657250589 l -11.893858317911766 -8.302836829489662 a35.50520475910936,35.50520475910936 0 0,0 0.35316672370379604,-0.49677322516989764 l 11.749576495678 8.505787281369079" fill="#ffa90f" stroke="none" /><path d="M 83.8745106332314 86.54754324733833 l -11.032068219208288 -9.203343677566322 a35.36690864593582,35.36690864593582 0 0,0 0.3929186694782887,-0.4628572046654826 l 10.872454986222884 9.391367664681361" fill="#ffa70f" stroke="none" /><path d="M 85.08716467003674 85.21462403516908 l -10.439736864516346 -10.350508880470528 a35.70105914160748,35.70105914160748 0 0,0 0.43522664762709906,-0.4315067841023017 l 10.26051829675927 10.528195674801504" fill="#ffab0f" stroke="none" /><path d="M 85.60350026404147 84.71141617570332 l -10.184868592502694 -10.815977499516588 a35.85654460218112,35.85654460218112 0 0,0 0.4517416288233568,-0.4181253075279749 l 9.997697192365383 10.989220553176928" fill="#ffad10" stroke="none" /><path d="M 86.40962598614128 83.9905735841838 l -9.58119851031194 -11.286627753566501 a35.804976559980815,35.804976559980815 0 0,0 0.4719874512635205,-0.39374871865943956 l 9.386036724886512 11.449438656137822" fill="#ffad10" stroke="none" /><path d="M 86.96720088162412 83.53348406188908 l -16.273192172260963 -20.56064670640531 a47.22130768022356,47.22130768022356 0 0,0 0.6399387889100462,-0.49762027289161365 l 15.917843438715673 20.836968030917728" fill="#c2ff1e" stroke="none" /><path d="M 87.83215693770416 82.88440491214696 l -9.84472840816631 -13.847843395201226 a37.9906281263694,37.9906281263694 0 0,0 0.5347721982641338,-0.3733125268902806 l 9.605561118728412 14.014800737896632" fill="#ffca12" stroke="none" /><path d="M 88.4268655584334 82.4767994020092 l -9.90496376112763 -14.997377571168528 a38.97302537475092,38.97302537475092 0 0,0 0.561423815727317,-0.3639081344243373 l 9.646054313143287 15.16519954729677" fill="#ffd614" stroke="none" /><path d="M 88.72937992617638 82.28071324371311 l -9.383408338641466 -14.752276451043087 a38.4836498631632,38.4836498631632 0 0,0 0.5604609801548912,-0.34976910313152265 l 9.128783229696877 14.911181351016145" fill="#ffd013" stroke="none" /><line stroke="#e1ed5e" stroke-width="0.3" x1="56.869717070023135" x2="54.33264160355391" y1="26.7553504044142" y2="22.446841604673864" /><path d="M 56.362301976729285 25.89364864446614 a86.0,86.0 0 0,1 42.16139366436587,-11.88097634709845" fill="none" id="id60" stroke="none" /><text fill="#e1ed5e" style="font-size:6.75px; font-family:Arial;" text-anchor="middle"><textPath startOffset="22.145653131862474" xlink:href="#id60">December</textPath></text><path d="M 89.34428304082924 81.90426304109057 l -13.348565800870455 -22.668783005103766 a47.30699397256649,47.30699397256649 0 0,0 0.7033142781484728,-0.4060586878139259 l 12.957459054861584 22.894588590193866" fill="#c1ff1e" stroke="none" /><path d="M 89.97174638481275 81.54914285379989 l -8.739099794018221 -16.07895931567005 a39.30040430932557,39.30040430932557 0 0,0 0.5955156283493999,-0.31707852954489096 l 8.461795349882259 16.226608312937515" fill="#ffdb14" stroke="none" /><path d="M 90.93487009805054 81.0573650232925 l -8.524206666959175 -17.812313458795526 a40.74691393750982,40.74691393750982 0 0,0 0.6335393940715578,-0.2965284257048104 l 8.217178559016094 17.95601811607088" fill="#ffed16" stroke="none" /><path d="M 91.5904679813234 80.7573450057729 l -1.3381187106702193 -3.061877478266516 a24.341504956716577,24.341504956716577 0 0,0 0.3843232981529671,-0.1640447627055557 l 1.285360337346821 3.084396890631476" fill="#ff0b01" stroke="none" /><path d="M 91.92203290615298 80.6158196554323 l -9.16613198323248 -21.9953799465741 a44.828863055718614,44.828863055718614 0 0,0 0.7128761346362805,-0.2899205179061143 l 8.787201387405759 22.149487721059504" fill="#deff1b" stroke="none" /><path d="M 92.93061703081487 80.22567764915836 l -10.097749121437355 -28.245201457553314 a50.995932102491174,50.995932102491174 0 0,0 0.8268485966706244,-0.2876208633735728 l 9.611394752721726 28.41438075349547" fill="#96ff23" stroke="none" /><path d="M 93.61358852112211 79.99465700312896 l -8.023395740268688 -25.133172880353023 a47.38278336792148,47.38278336792148 0 0,0 0.7769859663504168,-0.24071223851945497 l 7.590769141046654 25.26720170667912" fill="#c0ff1e" stroke="none" /><path d="M 94.30408787586887 79.78721728523814 l -4.918338434155115 -17.45344800283488 a39.133198839160954,39.133198839160954 0 0,0 0.6481549712943648,-0.17665751964340873 l 4.618002061926073 17.535306016622428" fill="#ffd814" stroke="none" /><path d="M 95.00130118170881 79.60360301121753 l -7.588436201637071 -30.963409262882713 a52.87972831074768,52.87972831074768 0 0,0 0.8835141134862362,-0.20850692509854393 l 7.055789934410929 31.08911233162749" fill="#82ff25" stroke="none" /><path d="M 98.1996594967304 79.07731436759882 l -2.2479434941111727 -26.124510869623304 a47.22104723556599,47.22104723556599 0 0,0 0.8082242131260208,-0.0625616656631188 l 1.799150286209935 26.159250302281478" fill="#c2ff1e" stroke="none" /><path d="M 99.27912038922189 79.0123766808444 l -1.263498765330344 -36.785387954513304 a57.80708078745235,57.80708078745235 0 0,0 0.9920429651540345,-0.025551507763710003 l 0.6318424861055657 36.80165717962706" fill="#4dff2c" stroke="none" /></svg>