<?xml version="1.0" encoding="utf-8" ?>
<svg baseProfile="full" height="200mm" version="1.1" viewBox="0,0,200,200" width="200mm" xmlns="http://www.w3.org/2000/svg" xmlns:ev="http://www.w3.org/2001/xml-events" xmlns:xlink="http://www.w3.org/1999/xlink"><defs /><rect fill="#1a1a1a" height="200" width="200" x="0" y="0" /><text alignment-baseline="middle" fill="#e1ed5e" style="dominant-baseline: central; font-size:9.0px; font-family:Arial;" text-anchor="middle" x="100.0" y="100.0">2019</text><line stroke="#e1ed5e" stroke-width="0.3" x1="100.0" x2="100.0" y1="15.0" y2="10.0" /><path d="M 100.0 14.0 a86.0,86.0 0 0,1 42.46469731375804,11.215312516191453" fill="none" id="id37" stroke="none" /><text fill="#e1ed5e" style="font-size:6.75px; font-family:Arial;" text-anchor="middle"><textPath startOffset="22.20632615414155" xlink:href="#id37">January</textPath></text><path d="M 101.44485096284872 79.0497635885617 l 0.5062442735135384 -7.340506034708546 a28.35794211108363,28.35794211108363 0 0,0 0.4866895498252068,0.03777647597296502 l -0.6325240127010864 7.3307042965471165" fill="#ff5407" stroke="none" /><path d="M 102.52436894288641 79.15227682838746 l 0.27953851982487155 -2.3085934778011126 a23.325456004703533,23.325456004703533 0 0,0 0.39818249659640176,0.051695515972383754 l -0.31923574492911944 2.3034396386645923" fill="#ff0c01" stroke="none" /><path d="M 102.88285421437855 79.19881850522331 l 1.227002491207561 -8.853413879499096 a29.938035155174585,29.938035155174585 0 0,0 0.5098461922146588,0.07513807552669155 l -1.3792176638508755 8.830981319811434" fill="#ff6909" stroke="none" /><path d="M 103.2404852339499 79.25152402106235 l 1.8750047827661067 -12.005452543968355 a33.15098900175916,33.15098900175916 0 0,0 0.5630471221208979,0.09290759952385372 l -2.08138111102588 11.971398681504876" fill="#ff950d" stroke="none" /><path d="M 103.95276090670814 79.375362276772 l 2.975734144307976 -15.526726795652282 a36.80930860867821,36.80930860867821 0 0,0 0.6212597816764985,0.12461886769572283 l -3.2425603354516 15.47320397187935" fill="#ffc512" stroke="none" /><path d="M 104.66035177308747 79.52364482259891 l 2.2855636635996013 -10.04216326044044 a31.29897296868511,31.29897296868511 0 0,0 0.5242970148944613,0.12408416406835654 l -2.4580843654565863 10.001333184231214" fill="#ff7c0b" stroke="none" /><path d="M 106.0581310904928 79.89281104454417 l 2.1285310172828495 -7.064682939796449 a28.37837308160723,28.37837308160723 0 0,0 0.466506166021106,0.1449457366184143 l -2.249822556014674 7.026997068295515" fill="#ff5407" stroke="none" /><path d="M 106.74666289553966 80.11325718540242 l 4.384133018647061 -12.922851957589263 a34.64627147036728,34.64627147036728 0 0,0 0.5631140926164542,0.19645944987882974 l -4.605929115326789 12.845471654538224" fill="#ffa90f" stroke="none" /><path d="M 107.4271985657038 80.35727306442388 l 5.21172685684137 -13.78346446592445 a35.735874236492506,35.735874236492506 0 0,0 0.5735043443406022,0.22251077567958238 l -5.448214366181639 13.691710986354321" fill="#ffb711" stroke="none" /><path d="M 108.09893153111575 80.62456947434976 l 4.101693286712115 -9.812661461439484 a31.635422548026895,31.635422548026895 0 0,0 0.5006173686607537,0.21433823110618272 l -4.269994413163184 9.74060370237051" fill="#ff810b" stroke="none" /><path d="M 109.08828744355905 81.06846463323043 l 7.64612553987363 -15.927411734700934 a38.66764501392862,38.66764501392862 0 0,0 0.5975600878124119,0.2932201399145822 l -7.919156894696473 15.79343643465152" fill="#ffdd14" stroke="none" /><path d="M 109.41281617654863 81.2277094730956 l 3.999437764497082 -7.976210971426958 a29.92274867363175,29.92274867363175 0 0,0 0.4584443127742138,0.23483298307666536 l -4.136142564860052 7.906185463037791" fill="#ff6909" stroke="none" /><path d="M 110.05341064243156 81.56283822128135 l 3.453888169586928 -6.3341583481637995 a28.21463134661957,28.21463134661957 0 0,0 0.4243963037195319,0.23617608353579078 l -3.562408562378495 6.273766867067829" fill="#ff5207" stroke="none" /><path d="M 110.36928655335952 81.73862282372117 l 8.784526174640282 -15.470451603830616 a38.79052480786909,38.79052480786909 0 0,0 0.5778001385374378,0.3346991346592394 l -9.049523045643049 15.316948311781328" fill="#ffde14" stroke="none" /><line stroke="#e1ed5e" stroke-width="0.3" x1="143.23703022742887" x2="145.7803849466894" y1="26.81831364943548" y2="22.513508569990506" /><path d="M 143.74570117128098 25.957352633546492 a86.0,86.0 0 0,1 28.547481713284135,27.462654790039103" fill="none" id="id38" stroke="none" /><text fill="#e1ed5e" style="font-size:6.75px; font-family:Arial;" text-anchor="middle"><textPath startOffset="19.985693538727396" xlink:href="#id38">February</textPath></text><path d="M 110.99172775467656 82.1063720568725 l 10.88937928853006 -17.727013065589613 a41.804460423597924,41.804460423597924 0 0,0 0.6099088580572432,0.38192487096229955 l -11.192907298959566 17.53694385330437" fill="#faff18" stroke="none" /><path d="M 111.2981086023043 82.29822771554956 l 4.804676112717766 -7.527922189606311 a29.93053889980262,29.93053889980262 0 0,0 0.4319019153660232,0.2809210198874378 l -4.93354505386807 7.444102245559346" fill="#ff6909" stroke="none" /><path d="M 114.42810811169701 84.74124197986012 l 7.963914154436425 -8.422409787544861 a32.59141558605179,32.59141558605179 0 0,0 0.40431475593132804,0.3889504748677763 l -8.107712153980172 8.284076225914784" fill="#ff8e0d" stroke="none" /><path d="M 114.68862486808459 84.99185889309783 l 6.898664653557821 -7.048728761176092 a30.862867288516007,30.862867288516007 0 0,0 0.3764743668335628,0.3748576662592197 l -7.018974820558706 6.928935244266754" fill="#ff760a" stroke="none" /><path d="M 115.9244219780498 86.31012108654704 l 1.232300457213148 -1.0593818769368428 a22.625070576322752,22.625070576322752 0 0,0 0.2513423254552862,0.29751003588863617 l -1.2503533961555515 1.0380128914191002" fill="#ff0100" stroke="none" /><path d="M 117.45458315368197 88.32363383020206 l 3.657768199040894 -2.4468897641496787 a25.400742859542618,25.400742859542618 0 0,0 0.23998061179721042,0.3655069358905648 l -3.699345446196029 2.38356476428144" fill="#ff2a04" stroke="none" /><path d="M 117.65298651832404 88.62581576622439 l 7.747373352284017 -4.99179284736055 a30.216278516334043,30.216278516334043 0 0,0 0.2779500549286636,0.4396502370470744 l -7.832151003458636 4.857694962599269" fill="#ff6d0a" stroke="none" /><line stroke="#e1ed5e" stroke-width="0.3" x1="172.23445277983987" x2="176.4835382374775" y1="55.19839476539836" y2="52.563006222186495" /><path d="M 173.08426987136738 54.67131705675599 a86.0,86.0 0 0,1 12.851231095245387,41.99856678651699" fill="none" id="id39" stroke="none" /><text fill="#e1ed5e" style="font-size:6.75px; font-family:Arial;" text-anchor="middle"><textPath startOffset="22.20632615414155" xlink:href="#id39">March</textPath></text><path d="M 118.03404312379186 89.2402003453031 l 4.187539702145484 -2.498446295813269 a25.876240626764407,25.876240626764407 0 0,0 0.22492654226160555,0.3844723717350018 l -4.2299259188774165 2.425994511724372" fill="#ff3004" stroke="none" /><path d="M 118.56541770881063 90.18545643968196 l 13.025038687788784 -6.885641442662718 a35.73308151390295,35.73308151390295 0 0,0 0.28278576532053806,0.5462520896979743 l -13.141633886269439 6.660416630704399" fill="#ffb711" stroke="none" /><path d="M 118.73160827565052 90.50648371742162 l 5.8997394447871345 -2.990094158378483 a27.614195989865006,27.614195989865006 0 0,0 0.21123543267209352,0.4258377425061206 l -5.950334890412637 2.8880968273734124" fill="#ff4906" stroke="none" /><path d="M 119.47837535516314 92.15188598940014 l 5.652588953700195 -2.2775083524580184 a27.09416164660977,27.09416164660977 0 0,0 0.17057252048712665,0.43408845940553953 l -5.690955024069022 2.1798708881566946" fill="#ff4206" stroke="none" /><path d="M 119.7369772167798 92.82701384747503 l 11.394485631321643 -4.141084359114945 a33.1236497174614,33.1236497174614 0 0,0 0.19014066313214256,0.5375532592916306 l -11.464079375263594 3.9443334733967" fill="#ff950d" stroke="none" /><path d="M 120.08093135843002 93.85539295169968 l 14.23783356827543 -4.35666508363544 a35.88947397891809,35.88947397891809 0 0,0 0.17567744194265664,0.5922970002961 l -14.31071690732979 4.11093869659281" fill="#ffb911" stroke="none" /><path d="M 120.28053869075195 94.5502522615342 l 7.11579503256103 -1.9121428911436764 a28.368231089045153,28.368231089045153 0 0,0 0.12266378291601038,0.4726735932815775 l -7.147655147347343 1.7893728723132485" fill="#ff5407" stroke="none" /><path d="M 120.45610955862082 95.25157060432595 l 15.902554581443196 -3.691423211458742 a37.32537434614828,37.32537434614828 0 0,0 0.13989126039485814,0.627105090430517 l -15.963740228840091 3.417139951478261" fill="#ffcc13" stroke="none" /><path d="M 120.53481517161879 95.60439243477599 l 4.215296696000849 -0.9023110211487959 a25.310787795079023,25.310787795079023 0 0,0 0.08752796336308294,0.4268174342818802 l -4.230203955278929 0.829617930703504" fill="#ff2803" stroke="none" /><path d="M 120.83666639777658 97.38593545837742 l 2.9124682905616575 -0.36538378748386313 a23.935298427022914,23.935298427022914 0 0,0 0.04776761465858495,0.40924375120408957 l -2.918326258223831 0.3151962979549208" fill="#ff1402" stroke="none" /><path d="M 120.87857604477298 97.74499172005257 l 8.073987269247208 -0.872037829845237 a29.12094331963025,29.12094331963025 0 0,0 0.049537323724861616,0.4988340895733439 l -8.087801718654298 0.7329282095674582" fill="#ff5e08" stroke="none" /><path d="M 120.91429891909075 98.10471618934814 l 6.5002504129745535 -0.5890620297890132 a27.526886662591515,27.526886662591515 0 0,0 0.038702168455013335,0.4722644841490863 l -6.509427065249062 0.4770836284321581" fill="#ff4806" stroke="none" /><path d="M 120.94382443527127 98.46500227214037 l 6.7420689018113915 -0.4941342244984082 a27.760152491519175,27.760152491519175 0 0,0 0.030826207129977592,0.4768677802985268 l -6.749575699945785 0.3780073799468462" fill="#ff4b07" stroke="none" /><line stroke="#e1ed5e" stroke-width="0.3" x1="184.98032266829074" x2="189.97916517819016" y1="98.17113171792111" y2="98.06355123074" /><path d="M 185.9800911702706 98.14961562048488 a86.0,86.0 0 0,1 -9.607161424134198,41.387399972396054" fill="none" id="id40" stroke="none" /><text fill="#e1ed5e" style="font-size:6.75px; font-family:Arial;" text-anchor="middle"><textPath startOffset="21.466115282336823" xlink:href="#id40">April</textPath></text><path d="M 120.9904718944345 100.63252640178507 l 9.395157624613038 0.28311346578519375 a30.399422324049144,30.399422324049144 0 0,0 -0.020263194052009895,0.5229030010036624 l -9.388892297709825 -0.44479371380286237" fill="#ff700a" stroke="none" /><path d="M 120.89721153311464 102.0752229133903 l 9.022415227361988 0.8959818770209138 a30.066794365093067,30.066794365093067 0 0,0 -0.05557732183305023,0.5145769754260988 l -9.005655604027886 -1.0511551743318042" fill="#ff6b09" stroke="none" /><path d="M 120.64145759157962 103.86396538481128 l 11.685640327052322 2.1874864952126445 a32.88862006374033,32.88862006374033 0 0,0 -0.10895540486534917,0.5555612620614121 l -11.64625498921131 -2.3883114843420015" fill="#ff920d" stroke="none" /><path d="M 120.23288151984713 105.62410040840565 l 13.11096047251583 3.644431865808892 a34.60805526651019,34.60805526651019 0 0,0 -0.1644827970785963,0.5725861947463451 l -13.046285038551133 -3.8695755360598194" fill="#ffa80f" stroke="none" /><path d="M 120.02730092923936 106.31721596034902 l 16.65122694649421 5.252300197487569 a38.459954644505316,38.459954644505316 0 0,0 -0.2045845218740441,0.6296464149326205 l -16.558350173603916 -5.5381455123979855" fill="#ffda14" stroke="none" /><path d="M 119.67450827220406 107.3425965602758 l 13.30037777787863 4.963748357573554 a35.19643782050983,35.19643782050983 0 0,0 -0.2167190832439699,0.5657851399822259 l -13.212964415041153 -5.191957064388924" fill="#ffb010" stroke="none" /><path d="M 118.97047184881838 109.00673069616215 l 13.28385367003774 6.306859079032741 a35.70500730260794,35.70500730260794 0 0,0 -0.2683771012030718,0.552936319149933 l -13.173323312219953 -6.534584354147949" fill="#ffb710" stroke="none" /><path d="M 118.81262510543309 109.33194174019688 l 7.954109604986511 3.945610302277149 a29.878947024595554,29.878947024595554 0 0,0 -0.2325170127688097,0.45877812508757854 l -7.885013922431433 -4.081942639067422" fill="#ff6909" stroke="none" /><path d="M 118.64920377521936 109.65438752849418 l 19.74092539869416 10.219553942744412 a43.22933688586934,43.22933688586934 0 0,0 -0.3477851446651779,0.6578784274527127 l -19.56208774580409 -10.557847385283258" fill="#e9ff1a" stroke="none" /><line stroke="#e1ed5e" stroke-width="0.3" x1="174.80103733775053" x2="179.2010983576182" y1="140.37084112569926" y2="142.7455964860345" /><path d="M 175.68104954172406 140.8457921977663 a86.0,86.0 0 0,1 -30.038265399797805,32.042727171017184" fill="none" id="id41" stroke="none" /><text fill="#e1ed5e" style="font-size:6.75px; font-family:Arial;" text-anchor="middle"><textPath startOffset="22.206326154141568" xlink:href="#id41">May</textPath></text><path d="M 117.35343817320211 111.8261652097733 l 7.365941648492594 5.019803107095136 a29.913782564265283,29.913782564265283 0 0,0 -0.2936380952927025,0.42300757683315043 l -7.278442646037755 -5.145851946115306" fill="#ff6909" stroke="none" /><path d="M 117.14729908036423 112.12312394758627 l 10.197188881592663 7.209402725707316 a33.48832049349764,33.48832049349764 0 0,0 -0.3368290479823298,0.4678260877463999 l -10.07158004123473 -7.383862418904847" fill="#ff9a0e" stroke="none" /><path d="M 116.27256486870786 113.27417163493432 l 4.427617996888688 3.611782266583245 a26.71391041823179,26.71391041823179 0 0,0 -0.2937308940026317,0.35381778387154 l -4.364791102992513 -3.687461307568556" fill="#ff3c05" stroke="none" /><path d="M 115.56566222782051 114.09645910891815 l 8.876168772107997 8.038369862365707 a32.97504747861713,32.97504747861713 0 0,0 -0.38463601554280363,0.4174464283360368 l -8.736486348569471 -8.189967545503078" fill="#ff930d" stroke="none" /><path d="M 114.0293411484842 115.62618273729858 l 6.88842372087356 7.672474900643667 a31.311025771440036,31.311025771440036 0 0,0 -0.40414728446132053,0.35661298913809164 l -6.755334083505653 -7.789911031554047" fill="#ff7c0b" stroke="none" /><path d="M 113.75828350139079 115.86535959552629 l 5.420926893268477 6.251139867416564 a29.274249091256934,29.274249091256934 0 0,0 -0.38354078915656115,0.32686178125894355 l -5.312520627534869 -6.343526038898454" fill="#ff6008" stroke="none" /><path d="M 111.7513745106137 117.40417183066458 l 3.794177195332628 5.619301112726554 a27.78028949124387,27.78028949124387 0 0,0 -0.3986144809542889,0.264179942193212 l -3.696888015638375 -5.683779076011085" fill="#ff4b07" stroke="none" /><path d="M 111.45004920935366 117.60387380957326 l 5.669432504547895 8.716466851550566 a31.398041127914624,31.398041127914624 0 0,0 -0.4555978338930718,0.29078409345600076 l -5.518552868607892 -8.812765373830375" fill="#ff7d0b" stroke="none" /><path d="M 111.1453310114006 117.79835938074945 l 7.809381846294974 12.471068333428677 a35.71441436817276,35.71441436817276 0 0,0 -0.5238467851254106,0.32178948090136045 l -7.593555861237254 -12.603646281158415" fill="#ffb711" stroke="none" /><line stroke="#e1ed5e" stroke-width="0.3" x1="143.8653032363475" x2="146.44561519142675" y1="172.8068346515853" y2="177.08958963109032" /><path d="M 144.38136562736335 173.6633856474863 a86.0,86.0 0 0,1 -40.68145358897372,12.25698825130547" fill="none" id="id42" stroke="none" /><text fill="#e1ed5e" style="font-size:6.75px; font-family:Arial;" text-anchor="middle"><textPath startOffset="21.466115282336833" xlink:href="#id42">June</textPath></text><path d="M 109.89434966115114 118.52300852407294 l 1.4733004149980822 2.7581354086039704 a24.126967387906134,24.126967387906134 0 0,0 -0.36800414994251845,0.19252237829968094 l -1.425605362529068 -2.783087205848368" fill="#ff1702" stroke="none" /><path d="M 109.57404056367764 118.69057910512821 l 6.714766106115454 13.108662559350568 a35.72837798112054,35.72837798112054 0 0,0 -0.5497850347348764,0.27567362976616716 l -6.4881271636978175 -13.222304030026038" fill="#ffb711" stroke="none" /><path d="M 109.2508944713604 118.85261126421891 l 2.4612057684831563 5.015748016379946 a26.58706201850616,26.58706201850616 0 0,0 -0.41258984318682473,0.1980681977731554 l -2.374503257296099 -5.057370490652661" fill="#ff3b05" stroke="none" /><path d="M 107.2578585660854 119.70592522655815 l 4.0988458818179065 11.128840514986003 a32.85966394004862,32.85966394004862 0 0,0 -0.532452423003762,0.19091849513932782 l -3.90667389818441 -11.197746551165292" fill="#ff910d" stroke="none" /><path d="M 106.57524785965236 119.94407469862006 l 3.6906553561650033 11.194514287725825 a32.787200138119616,32.787200138119616 0 0,0 -0.5375206267517122,0.17209713034397145 l -3.4974133843223507 -11.256384264729503" fill="#ff900d" stroke="none" /><path d="M 105.88484417918355 120.15858648285463 l 3.7096373646145184 12.707396042725067 a34.237799045294835,34.237799045294835 0 0,0 -0.5671553885979028,0.16028377797982077 l -3.49035080791201 -12.769368614043406" fill="#ffa30f" stroke="none" /><path d="M 105.18746579009965 120.34920634021253 l 3.6696430294422853 14.395145186992956 a35.85552035164507,35.85552035164507 0 0,0 -0.5993791734889498,0.14731281802074414 l -3.421310571210124 -14.45617926332773" fill="#ffb911" stroke="none" /><path d="M 101.26447882468166 120.96189622390904 l 0.651925813618206 10.807299405897652 a31.82694452351066,31.82694452351066 0 0,0 -0.5471384151871244,0.02828080642749472 l -0.4657993300176021 -10.81692001908735" fill="#ff830c" stroke="none" /><line stroke="#e1ed5e" stroke-width="0.3" x1="102.19456741930631" x2="102.32365962044197" y1="184.97166512339345" y2="189.96999836594603" /><path d="M 102.22038585953345 185.97133177190398 a86.0,86.0 0 0,1 -42.740103519485714,-10.115201625700543" fill="none" id="id43" stroke="none" /><text fill="#e1ed5e" style="font-size:6.75px; font-family:Arial;" text-anchor="middle"><textPath startOffset="22.20632615414155" xlink:href="#id43">July</textPath></text><path d="M 100.18074693466247 120.99922214144158 l 0.05418941657994318 6.295739391665985 a27.29597260005506,27.29597260005506 0 0,0 -0.4698727024847929,0.0 l 0.054189416579938844 -6.295739391665985" fill="#ff4506" stroke="none" /><path d="M 99.81925306533755 120.99922214144158 l -0.08019107598525903 9.316618406395198 a30.316963514957514,30.316963514957514 0 0,0 -0.5217986997313769,-0.00898323782374813 l 0.24054946560930388 -9.313857691292291" fill="#ff6f0a" stroke="none" /><path d="M 98.01472825383883 120.90594882070398 l -0.9602639388135777 10.112081027709566 a31.157573014413902,31.157573014413902 0 0,0 -0.533487982136402,-0.05529821064918823 l 1.1341845175555731 -10.094053448604617" fill="#ff7a0b" stroke="none" /><path d="M 97.65516085044442 120.86867818915974 l -0.6707684026350282 5.969727150239785 a27.00729327553463,27.00729327553463 0 0,0 -0.46153223496180934,-0.05588512618322884 l 0.7734280606482269 -5.9572964953312075" fill="#ff4106" stroke="none" /><path d="M 96.93821686468263 120.77559828337769 l -3.4725101412745705 23.562568784806412 a44.81707317073171,44.81707317073171 0 0,0 -0.7622405349818232,-0.11904629529581087 l 3.877586539864911 -23.499304182163495" fill="#d6ff1c" stroke="none" /><path d="M 94.46302465271185 120.25689768951611 l -2.3316544825477763 8.53030460455361 a29.843229572529125,29.843229572529125 0 0,0 -0.4943585433991214,-0.13971066237861246 l 2.4781441940515117 -8.488905148836476" fill="#ff6809" stroke="none" /><path d="M 93.76903079525671 120.05430185196036 l -4.448731805533961 14.318191529285576 a35.993392656329476,35.993392656329476 0 0,0 -0.5900836575873684,-0.18892615293174383 l 4.69453680821227 -14.239492529694125" fill="#ffba11" stroke="none" /><path d="M 93.08242187328487 119.8279376855182 l -4.99041930461255 14.304099091317648 a36.14963813594516,36.14963813594516 0 0,0 -0.5857626070464671,-0.21003363045154216 l 5.235901472288743 -14.216077919826148" fill="#ffbc11" stroke="none" /><path d="M 92.7421414339146 119.70592522655815 l -6.105088853468929 16.576022163082854 a38.66455832054016,38.66455832054016 0 0,0 -0.6225542175869242,-0.23539673524453306 l 6.389513291816136 -16.46847717773169" fill="#ffdd14" stroke="none" /><path d="M 91.07499286063937 119.00905698771935 l -4.844396440505519 10.317908610129258 a32.39857074197296,32.39857074197296 0 0,0 -0.5027754180812851,-0.24136275429086046 l 5.0212845265870465 -10.232991579338835" fill="#ff8b0c" stroke="none" /><path d="M 90.7491055286396 118.85261126421891 l -3.445208927138243 7.021070754664288 a28.820799133952693,28.820799133952693 0 0,0 -0.4434918389331854,-0.222376014780651 l 3.565554673754189 -6.960726898974335" fill="#ff5a08" stroke="none" /><path d="M 90.42595943632237 118.69057910512821 l -6.0443817850314625 11.799928686674674 a34.25793604501953,34.25793604501953 0 0,0 -0.5225299321850114,-0.27336296422945966 l 6.24660261974297 -11.694136303500496" fill="#ffa40f" stroke="none" /><line stroke="#e1ed5e" stroke-width="0.3" x1="58.666819895761336" x2="56.23545636021788" y1="174.27360380694188" y2="178.64263932499728" /><path d="M 58.180547188652646 175.14741091055294 a86.0,86.0 0 0,1 -31.652253787137756,-30.449443065178592" fill="none" id="id44" stroke="none" /><text fill="#e1ed5e" style="font-size:6.75px; font-family:Arial;" text-anchor="middle"><textPath startOffset="22.20632615414155" xlink:href="#id44">August</textPath></text><path d="M 88.24862548938628 117.40417183066458 l -2.041645523261864 3.023744113683334 a24.648471585155875,24.648471585155875 0 0,0 -0.3495894079146187,-0.24045078249008414 l 2.093391815799373 -2.988152541828149" fill="#ff1f03" stroke="none" /><path d="M 87.95078237400918 117.19931262002967 l -1.0226601062921266 1.4597670502863624 a22.782344953734594,22.782344953734594 0 0,0 -0.31924864416209076,-0.22777543103242728 l 1.0476360783031042 -1.441947357409716" fill="#ff0400" stroke="none" /><path d="M 86.24171649860922 115.8653595955263 l -4.681162439533757 5.398080757731635 a28.14510725267957,28.14510725267957 0 0,0 -0.3632831690049075,-0.3205551584370413 l 4.773387961445253 -5.316702457522305" fill="#ff5107" stroke="none" /><path d="M 85.97065885151581 115.62618273729859 l -7.852410259260094 8.746183897074449 a32.75398143784384,32.75398143784384 0 0,0 -0.416288209643562,-0.3802694094112072 l 8.001798018370511 -8.609721721076665" fill="#ff900d" stroke="none" /><path d="M 85.18274418774928 114.88116024355367 l -6.475164366804681 6.503090704967215 a30.177033414680807,30.177033414680807 0 0,0 -0.36494002588907737,-0.3696823194947505 l 6.586145017749292 -6.3906678914918" fill="#ff6d0a" stroke="none" /><path d="M 83.95833913139862 113.55231037782056 l -1.1771484777427965 0.9944781691760242 a22.54099492783717,22.54099492783717 0 0,0 -0.2478478997722433,-0.2985487615539865 l 1.194092377408576 -0.9740681505082766" fill="#ff0000" stroke="none" /><path d="M 83.50135304334701 112.99209946851258 l -3.4886223354380896 2.747166389411676 a25.440428917394208,25.440428917394208 0 0,0 -0.2679642592179007,-0.34637992698478876 l 3.5353934118740584 -2.6867084683136344" fill="#ff2a04" stroke="none" /><path d="M 82.6465618267979 111.8261652097733 l -10.05170943642657 6.850122451203173 a33.16392371691079,33.16392371691079 0 0,0 -0.3174212228330712,-0.4745016598583704 l 10.168133764670372 -6.676083877138981" fill="#ff950d" stroke="none" /><path d="M 82.05923443525364 110.91462005526583 l -12.572357284239944 7.648642554372104 a35.71617819296617,35.71617819296617 0 0,0 -0.31501520230033814,-0.5279835986959504 l 12.702153362238514 -7.431096861790043" fill="#ffb711" stroke="none" /><line stroke="#e1ed5e" stroke-width="0.3" x1="26.63291911575756" x2="22.317208475507996" y1="142.92168965132927" y2="145.44649492493687" /><path d="M 25.769776987707644 143.4266507060508 a86.0,86.0 0 0,1 -11.730757126820373,-40.83630448921669" fill="none" id="id45" stroke="none" /><text fill="#e1ed5e" style="font-size:6.75px; font-family:Arial;" text-anchor="middle"><textPath startOffset="21.46611528233685" xlink:href="#id45">September</textPath></text><path d="M 81.69416730710424 110.29060199501025 l -7.811457833540781 4.3912016958927715 a29.961111862888288,29.961111862888288 0 0,0 -0.24885355752141602,-0.451741491303389 l 7.885887800513713 -4.256089686191561" fill="#ff6a09" stroke="none" /><path d="M 81.18737489456691 109.33194174019688 l -6.120926134186402 3.0362655801704 a27.832616293448183,27.832616293448183 0 0,0 -0.2092041829434718,-0.43102258109571 l 6.1722835737445925 -2.930454043109405" fill="#ff4c07" stroke="none" /><path d="M 80.87730276802145 108.67885076344099 l -2.688288580664343 1.2200818282910424 a23.952201747959702,23.952201747959702 0 0,0 -0.1671623193561198,-0.3769069005845639 l 2.7088919847517423 -1.1736265912137827" fill="#ff1502" stroke="none" /><path d="M 80.45479744820244 107.68017299344265 l -3.5727426764600225 1.4038883323695566 a24.83867069204459,24.83867069204459 0 0,0 -0.1529420098940199,-0.39928332651553294 l 3.5963789659475514 -1.3421814390208657" fill="#ff2203" stroke="none" /><path d="M 79.86692584326677 105.97154293290107 l -6.488970020362738 1.9246520807129173 a27.768383673888394,27.768383673888394 0 0,0 -0.13197567392503612,-0.4594246345148926 l 6.521138331173878 -1.8126699706934286" fill="#ff4b07" stroke="none" /><path d="M 79.58551787078972 104.9243191809786 l -4.719134941565803 1.1383353524862487 a25.85448678764576,25.85448678764576 0 0,0 -0.10063481515133826,-0.4335321498141548 l 4.738030322647696 -1.05693454532352" fill="#ff3004" stroke="none" /><path d="M 79.04373962182676 101.35467743843564 l -6.920913850343613 0.44738926111942645 a27.935359087663958,27.935359087663958 0 0,0 -0.026889311734706843,-0.4801267242411328 l 6.927589512965852 -0.3281908205428561" fill="#ff4e07" stroke="none" /><line stroke="#e1ed5e" stroke-width="0.3" x1="15.007084014347285" x2="10.007500721073583" y1="101.09737516637583" y2="101.16192664675087" /><path d="M 14.007167355692545 101.11028546245083 a86.0,86.0 0 0,1 10.666146001902534,-42.60595125391555" fill="none" id="id46" stroke="none" /><text fill="#e1ed5e" style="font-size:6.75px; font-family:Arial;" text-anchor="middle"><textPath startOffset="22.20632615414155" xlink:href="#id46">October</textPath></text><path d="M 79.16333360222342 97.38593545837743 l -4.920569236617919 -0.6173101455141712 a25.95914039205439,25.95914039205439 0 0,0 0.05943901576520792,-0.4428897075353102 l 4.909214221794877 0.7019181951141408" fill="#ff3204" stroke="none" /><path d="M 79.54389044137918 95.25157060432595 l -10.09666460163334 -2.343715399805951 a31.365116398437756,31.365116398437756 0 0,0 0.12660633745662703,-0.5248650053872885 l 10.054825463915897 2.5171656368526363" fill="#ff7d0b" stroke="none" /><path d="M 79.71946130924805 94.55025226153421 l -14.245501132831198 -3.8280239379124765 a35.750866747236444,35.750866747236444 0 0,0 0.16481699356436502,-0.5929344181446691 l 14.177497368700472 4.072669659476088" fill="#ffb711" stroke="none" /><path d="M 79.91906864156998 93.8553929516997 l -5.519077293215842 -1.6887942411979644 a26.771675680215765,26.771675680215765 0 0,0 0.1386320438361717,-0.4395014635828758 l 5.489189765611466 1.7835458712072547" fill="#ff3d05" stroke="none" /><path d="M 80.2630227832202 92.82701384747504 l -16.885892221009904 -6.136819723911841 a38.96646633101112,38.96646633101112 0 0,0 0.2345325022164583,-0.6284305037161254 l 16.77775513029182 6.426573364657307" fill="#ffe015" stroke="none" /><path d="M 80.38941819471856 92.48833698450439 l -11.13909633313894 -4.2667340919558105 a32.92830612159192,32.92830612159192 0 0,0 0.20730164098784037,-0.527560064843168 l 11.064001142269408 4.457843161694742" fill="#ff920d" stroke="none" /><path d="M 80.52162464483688 92.15188598940014 l -14.995359649514745 -6.041843326945929 a37.16677710014139,37.16677710014139 0 0,0 0.24420043848352999,-0.5913507315928941 l 14.889137524145013 6.299068628992134" fill="#ffca12" stroke="none" /><path d="M 80.803312248108 91.48605970444005 l -21.558887086048827 -9.56160145237802 a44.584101312602954,44.584101312602954 0 0,0 0.31717911601781307,-0.6988621384602014 l 21.39110565306766 9.931285599680294" fill="#d9ff1c" stroke="none" /><path d="M 80.95270993114464 91.15688171328213 l -15.36020889623183 -7.131310736962858 a37.93492279766876,37.93492279766876 0 0,0 0.2800713784297277,-0.5899017500795055 l 15.23517932396035 7.394654902682896" fill="#ffd313" stroke="none" /><path d="M 81.26839172434947 90.50648371742162 l -20.228427286324532 -10.25213110308893 a43.678083310391166,43.678083310391166 0 0,0 0.3456612106587463,-0.6677074372391023 l 20.048956642505672 10.598811262588367" fill="#e4ff1a" stroke="none" /><line stroke="#e1ed5e" stroke-width="0.3" x1="26.266209847984243" x2="21.928928074336255" y1="57.711370442889674" y2="55.22380399835377" /><path d="M 25.398753493254645 57.213857153982495 a86.0,86.0 0 0,1 29.58750427330803,-30.492523968695096" fill="none" id="id47" stroke="none" /><text fill="#e1ed5e" style="font-size:6.75px; font-family:Arial;" text-anchor="middle"><textPath startOffset="21.46611528233685" xlink:href="#id47">November</textPath></text><path d="M 81.96595687620814 89.24020034530311 l -2.9131643944480996 -1.7381052618259065 a24.392276033913966,24.392276033913966 0 0,0 0.2182344433625794,-0.35872004400482665 l 2.882814152799303 1.7879930790378076" fill="#ff1b02" stroke="none" /><path d="M 82.15384107792192 88.93136811851018 l -16.28236017356448 -10.098724981096938 a40.15984078914828,40.15984078914828 0 0,0 0.369417760934248,-0.5843301819308024 l 16.10611481638427 10.377502810741955" fill="#ffef16" stroke="none" /><path d="M 82.34701348167596 88.62581576622439 l -4.218538818437705 -2.7180917896491943 a26.018375508032868,26.018375508032868 0 0,0 0.2458158687292763,-0.37439443253206783 l 4.171126314350508 2.7903042861589293" fill="#ff3204" stroke="none" /><path d="M 82.54541684631803 88.32363383020206 l -19.0324894597189 -12.731917691636143 a43.8984144241672,43.8984144241672 0 0,0 0.4255544367949958,-0.6244486253372247 l 18.810510557255164 13.057644340243783" fill="#e1ff1b" stroke="none" /><path d="M 83.17141714833178 87.43820079747576 l -11.887085485827606 -8.873188092686261 a35.83361952712697,35.83361952712697 0 0,0 0.3732226066398981,-0.49111720167590817 l 11.7325869389636 9.076490070243196" fill="#ffb811" stroke="none" /><path d="M 83.6137871275137 86.86637796730984 l -10.467603649669915 -8.389830584564663 a34.41491645163247,34.41491645163247 0 0,0 0.3744695382982374,-0.4590553761770239 l 10.321635619295284 8.568770130349769" fill="#ffa60f" stroke="none" /><path d="M 83.84228863543731 86.58626213691792 l -28.322721040738404 -23.51283217268602 a57.81072946753955,57.81072946753955 0 0,0 0.6422204576830539,-0.7601864551368283 l 27.913789969568228 23.996877577451965" fill="#48ff2c" stroke="none" /><path d="M 84.31358615837235 86.03803664274999 l -13.190540247303902 -11.740467990616217 a38.658678904562144,38.658678904562144 0 0,0 0.4467035372178263,-0.4932612028723162 l 12.986493069470031 11.96578198075809" fill="#ffdc14" stroke="none" /><path d="M 84.80347519578584 85.50635884689758 l -1.888193397726693 -1.8008589389278504 a23.6092848110421,23.6092848110421 0 0,0 0.2830143188262127,-0.2916711332113788 l 1.8569148151973618 1.8330942676893527" fill="#ff1001" stroke="none" /><path d="M 85.05521093208273 85.24692304244772 l -12.123084690294816 -11.967569470939914 a38.03501985469443,38.03501985469443 0 0,0 0.4639624012713407,-0.461969999273516 l 11.915286488856161 12.17447532086354" fill="#ffd513" stroke="none" /><path d="M 85.31137513191541 84.99185889309783 l -31.018031375206053 -31.692755170628587 a65.34578898496082,65.34578898496082 0 0,0 0.8106510947594644,-0.7798457108805757 l 30.467897036834163 32.22198396827148" fill="#36ff6b" stroke="none" /><path d="M 85.83668400450813 84.49514656593479 l -11.191562076799123 -12.251617471095384 a37.59376968554457,37.59376968554457 0 0,0 0.48153861810757825,-0.4323301258646882 l 10.979012471095574 12.442446605729351" fill="#ffcf13" stroke="none" /><path d="M 86.37877921826538 84.01681056812374 l -5.154983791955401 -6.048876513003887 a28.94750054827887,28.94750054827887 0 0,0 0.38202769527750047,-0.319937208266548 l 5.050098559718791 6.136714878664248" fill="#ff5c08" stroke="none" /><path d="M 86.93701828274178 83.55741782278169 l -19.371287576994437 -24.382946769530633 a52.14120863994176,52.14120863994176 0 0,0 0.7075498570011182,-0.5522538863592339 l 18.948705164833893 24.712779045113088" fill="#84ff25" stroke="none" /><path d="M 87.51073957382395 83.11751280151077 l -10.495706222819972 -14.18767964630513 a38.647948970402275,38.647948970402275 0 0,0 0.5382273185578184,-0.3910450366665452 l 10.249933587908371 14.366243917788342" fill="#ffdc14" stroke="none" /><path d="M 88.09926311788651 82.69761687909137 l -10.012035568269315 -14.556415870577169 a38.66720405773027,38.66720405773027 0 0,0 0.5516434674343045,-0.3724721316950257 l 9.759987406428472 14.72659991457086" fill="#ffdd14" stroke="none" /><path d="M 88.70189139769569 82.29822771554957 l -8.078700939386549 -12.657634071071795 a36.01602840784482,36.01602840784482 0 0,0 0.5254581577038523,-0.32904185014852977 l 7.8596236293104536 12.794820262543256" fill="#ffbb11" stroke="none" /><line stroke="#e1ed5e" stroke-width="0.3" x1="56.762969772571076" x2="54.21961505331055" y1="26.818313649435495" y2="22.513508569990535" /><path d="M 56.25429882871897 25.957352633546506 a86.0,86.0 0 0,1 42.265352541879196,-11.944610805530505" fill="none" id="id48" stroke="none" /><text fill="#e1ed5e" style="font-size:6.75px; font-family:Arial;" text-anchor="middle"><textPath startOffset="22.20632615414155" xlink:href="#id48">December</textPath></text><path d="M 89.3179101791058 81.91981866633112 l -15.046675074907698 -25.467545993762645 a50.580370683178806,50.580370683178806 0 0,0 0.753414534419698,-0.43642632787915897 l 14.60606380802268 25.72277647903185" fill="#95ff23" stroke="none" /><path d="M 89.94658935756843 81.56283822128135 l -4.68122737286978 -8.58500159461219 a30.778350683832073,30.778350683832073 0 0,0 0.46732521786803705,-0.24962894688790616 l 4.532757108473438 8.664309268001848" fill="#ff750a" stroke="none" /><path d="M 90.91171255644093 81.06846463323043 l -3.3765086826663278 -7.033502619616682 a28.801985002823052,28.801985002823052 0 0,0 0.44879224051169575,-0.2107139745671886 l 3.2549382308550237 7.090581576823878" fill="#ff5a08" stroke="none" /><path d="M 91.56875222667455 80.76684994638697 l -25.293743319976343 -57.69945016083907 a84.0,84.0 0 0,0 1.329264968838767,-0.5691218881488553 l 24.29679459334727 58.12629157695071" fill="#4dd2ff" stroke="none" /><path d="M 92.91201910852362 80.23233633223022 l -1.6319022018241873 -4.551210613892354 a25.834937729518867,25.834937729518867 0 0,0 0.4199013890947237,-0.14649534967524733 l 1.5533188086661784 4.578626816739812" fill="#ff3004" stroke="none" /><path d="M 93.94186890950719 79.89281104454417 l -2.435441800642617 -8.083332589548363 a29.442253402828655,29.442253402828655 0 0,0 0.4865119020498776,-0.14202616524312708 l 2.2959396808693184 8.12405708371019" fill="#ff6309" stroke="none" /><path d="M 94.63758080256005 79.69619591428918 l -3.0138038488955257 -11.411208383326175 a32.802486619662446,32.802486619662446 0 0,0 0.547162832947476,-0.139483989206991 l 2.8169321272630503 11.46139536870203" fill="#ff900d" stroke="none" /><path d="M 96.04723909329186 79.375362276772 l -2.8917937462508565 -15.08874424595296 a36.363354906745926,36.363354906745926 0 0,0 0.6157612579955188,-0.1125264340517728 l 2.6316373671524445 15.13628616135547" fill="#ffbf11" stroke="none" /><path d="M 97.47563105711357 79.15227682838746 l -1.1380668478882465 -9.398825263804277 a30.467476563994644,30.467476563994644 0 0,0 0.521187240086867,-0.05856145912678713 l 0.9761129042916615 9.417022676401663" fill="#ff710a" stroke="none" /><path d="M 98.55514903715128 79.0497635885617 l -0.6080412502247637 -8.81655497187022 a29.837497141950564,29.837497141950564 0 0,0 0.5126905398311927,-0.030926893459748344 l 0.45618866155394805 8.825715134710274" fill="#ff6809" stroke="none" /><path d="M 99.27714615592234 79.0124445844662 l -0.602967913239881 -17.5067513254466 a38.51713196489149,38.51713196489149 0 0,0 0.6628126467045581,-0.01711849517659504 l 0.3015286313404439 17.514536612765557" fill="#ffdb14" stroke="none" /></svg>