<?xml version="1.0" encoding="utf-8" ?>
<svg baseProfile="full" height="200mm" version="1.1" viewBox="0,0,200,200" width="200mm" xmlns="http://www.w3.org/2000/svg" xmlns:ev="http://www.w3.org/2001/xml-events" xmlns:xlink="http://www.w3.org/1999/xlink"><defs /><rect fill="#1a1a1a" height="200" width="200" x="0" y="0" /><text alignment-baseline="middle" fill="#e1ed5e" style="dominant-baseline: central; font-size:9.0px; font-family:Arial;" text-anchor="middle" x="100.0" y="100.0">2023</text><line stroke="#e1ed5e" stroke-width="0.3" x1="100.0" x2="100.0" y1="15.0" y2="10.0" /><path d="M 100.0 14.0 a86.0,86.0 0 0,1 42.46469731375804,11.215312516191453" fill="none" id="id85" stroke="none" /><text fill="#e1ed5e" style="font-size:6.75px; font-family:Arial;" text-anchor="middle"><textPath startOffset="22.20632615414155" xlink:href="#id85">January</textPath></text><path d="M 100.72285384407766 79.0124445844662 l 0.6127511087249091 -17.79079955880011 a38.80134862482744,38.80134862482744 0 0,0 0.6673077510244778,0.028735675478255986 l -0.9188996921387185 17.77761615679766" fill="#ffe415" stroke="none" /><path d="M 101.80526077348638 79.07773832637324 l 1.6572154596917057 -19.206474768899202 a40.27783795263885,40.27783795263885 0 0,0 0.6902372292516973,0.06554634191130104 l -1.9875778160336472 19.17510288247272" fill="#fff617" stroke="none" /><path d="M 102.88285421437855 79.19881850522331 l 3.260999868062417 -23.52968449520831 a44.75458213868536,44.75458213868536 0 0,0 0.7621727067022627,0.11232444465617605 l -3.6655415551933355 23.470065566391163" fill="#d3ff1c" stroke="none" /><path d="M 103.2404852339499 79.25152402106235 l 1.8329026864855225 -11.735877381523986 a32.8781459063396,32.8781459063396 0 0,0 0.5584130667188588,0.09214294067639839 l -2.0346449593432565 11.702588177907963" fill="#ff980e" stroke="none" /><path d="M 103.95276090670814 79.375362276772 l 3.366359850600224 -17.564925884290602 a38.88460231496231,38.88460231496231 0 0,0 0.6562861530921439,0.131644828290707 l -3.6682124131594933 17.50437709992269" fill="#ffe515" stroke="none" /><path d="M 104.66035177308747 79.52364482259891 l 3.2951397367385087 -14.477973958589233 a35.848221301900814,35.848221301900814 0 0,0 0.6005026246921045,0.14211956980295404 l -3.5438660483931366 14.41910847664541" fill="#ffbf11" stroke="none" /><path d="M 106.0581310904928 79.89281104454417 l 5.9971873767864405 -19.9049142359365 a41.78874376128279,41.78874376128279 0 0,0 0.6869564572589779,0.21344071520305247 l -6.338929206756137 19.798733385850923" fill="#f6ff19" stroke="none" /><path d="M 107.76421540070413 80.48803036053334 l 5.377318980927298 -13.513546351131097 a35.54412233195285,35.54412233195285 0 0,0 0.5665329088489638,0.2311029983136805 l -5.60913575936465 13.418982466633837" fill="#ffbb11" stroke="none" /><path d="M 109.08828744355905 81.06846463323043 l 6.92393612532179 -14.423040913685108 a36.998906233407666,36.998906233407666 0 0,0 0.5717718172346489,0.28056594753930336 l -7.171179209566871 14.301719806010974" fill="#ffcd13" stroke="none" /><line stroke="#e1ed5e" stroke-width="0.3" x1="143.23703022742887" x2="145.7803849466894" y1="26.81831364943548" y2="22.513508569990506" /><path d="M 143.74570117128098 25.957352633546492 a86.0,86.0 0 0,1 28.547481713284135,27.462654790039103" fill="none" id="id86" stroke="none" /><text fill="#e1ed5e" style="font-size:6.75px; font-family:Arial;" text-anchor="middle"><textPath startOffset="19.985693538727396" xlink:href="#id86">February</textPath></text><path d="M 110.99172775467656 82.1063720568725 l 7.913686035346364 -12.882829409140369 a36.11931613040246,36.11931613040246 0 0,0 0.5269650805603281,0.32998548510300807 l -8.134270268278955 12.744699582714416" fill="#ffc212" stroke="none" /><path d="M 112.19680574252982 82.90503203632743 l 7.242314821121797 -10.150783939945619 a33.46954444090474,33.46954444090474 0 0,0 0.4661107157736955,0.33864925776860694 l -7.415970853249281 10.024615447360336" fill="#ffa00e" stroke="none" /><path d="M 113.34407831869373 83.78471172551755 l 9.45785344966663 -11.492874703028987 a35.88412445577148,35.88412445577148 0 0,0 0.4735721255113371,0.3966030359105096 l -9.654283112137085 11.328370509724657" fill="#ffbf11" stroke="none" /><path d="M 114.16331599549186 84.49514656593476 l 8.00361963151852 -8.761715785215904 a32.86699585855368,32.86699585855368 0 0,0 0.414424827937735,0.38516271191875445 l -8.153252343251102 8.622648487222508" fill="#ff980e" stroke="none" /><path d="M 114.94478906791727 85.2469230424477 l 12.776152106962723 -12.612259323221279 a38.952691940108316,38.952691940108316 0 0,0 0.46694212315662553,0.4812249032843133 l -12.991358493822458 12.390470224386851" fill="#ffe615" stroke="none" /><path d="M 115.4437574822437 85.77008943001954 l 13.096061440218858 -12.066738507616726 a38.807666985239464,38.807666985239464 0 0,0 0.44842510413445125,0.4951622000603075 l -13.301830184969344 11.83952352028687" fill="#ffe415" stroke="none" /><path d="M 117.04232023915458 87.72973835380427 l 7.223757615653543 -5.201016925449177 a29.90130614845492,29.90130614845492 0 0,0 0.29714405926490983,0.4202891990709481 l -7.312214294722336 5.075901226046436" fill="#ff700a" stroke="none" /><line stroke="#e1ed5e" stroke-width="0.3" x1="172.23445277983987" x2="176.4835382374775" y1="55.19839476539836" y2="52.563006222186495" /><path d="M 173.08426987136738 54.67131705675599 a86.0,86.0 0 0,1 12.851231095245387,41.99856678651699" fill="none" id="id87" stroke="none" /><text fill="#e1ed5e" style="font-size:6.75px; font-family:Arial;" text-anchor="middle"><textPath startOffset="22.20632615414155" xlink:href="#id87">March</textPath></text><path d="M 118.03404312379186 89.2402003453031 l 12.744478452216468 -7.603843126477902 a35.840490602102584,35.840490602102584 0 0,0 0.31153975341195145,0.5325224256758447 l -12.873477880098747 7.383341288448162" fill="#ffbf11" stroke="none" /><path d="M 118.3937258080291 89.86733742301442 l 0.8145039462618825 -0.4486906971013059 a21.929913985345653,21.929913985345653 0 0,0 0.17929469600569364,0.33220584155342475 l -0.822106741486041 0.43460387221542235" fill="#ff0000" stroke="none" /><path d="M 119.61058180528143 92.48833698450437 l 8.77828811403451 -3.362447010511408 a30.400233620048848,30.400233620048848 0 0,0 0.18297381133584764,0.4902788455244543 l -8.834866513871983 3.2108450279576206" fill="#ff770b" stroke="none" /><path d="M 119.85752413597 93.16781622104841 l 16.905148693390448 -5.816388885789205 a38.87776361898694,38.87776361898694 0 0,0 0.21227759945973643,0.6346830031817638 l -17.002763586621956 5.524532779685128" fill="#ffe515" stroke="none" /><path d="M 120.45610955862082 95.25157060432595 l 11.564352616216535 -2.6844064237835945 a32.87182754592758,32.87182754592758 0 0,0 0.1231998732078827,0.5522808745234328 l -11.608846876426457 2.484947379710198" fill="#ff980e" stroke="none" /><path d="M 120.67395015179393 96.31383870115 l 14.627198436482683 -2.6080266418018305 a35.85788467664861,35.85788467664861 0 0,0 0.10311385264025377,0.6085837952233005 l -14.669924150643158 2.355857058262692" fill="#ffbf11" stroke="none" /><path d="M 120.83666639777658 97.38593545837742 l 7.359840111270156 -0.9233289384973704 a28.417532122756718,28.417532122756718 0 0,0 0.05671279713209079,0.4858806119062114 l -7.3746432614058355 0.7965045882663063" fill="#ff5c08" stroke="none" /><path d="M 120.87857604477298 97.74499172005257 l 14.730736657011384 -1.5910056825739318 a35.816406498884994,35.816406498884994 0 0,0 0.06092690418447032,0.6135256104707444 l -14.755940686878084 1.3372045413987526" fill="#ffbe11" stroke="none" /><path d="M 120.96714384426684 98.82574320788733 l 17.323220342564916 -0.9701802639219929 a38.35036635871297,38.35036635871297 0 0,0 0.03123982815814673,0.6594233975747716 l -17.337353778956558 0.6718457597242216" fill="#ffde14" stroke="none" /><line stroke="#e1ed5e" stroke-width="0.3" x1="184.98032266829074" x2="189.97916517819016" y1="98.17113171792111" y2="98.06355123074" /><path d="M 185.9800911702706 98.14961562048488 a86.0,86.0 0 0,1 -9.607161424134198,41.387399972396054" fill="none" id="id88" stroke="none" /><text fill="#e1ed5e" style="font-size:6.75px; font-family:Arial;" text-anchor="middle"><textPath startOffset="21.466115282336823" xlink:href="#id88">April</textPath></text><path d="M 120.99513854157772 99.54816195383933 l 22.392436318147546 -0.48190940272826804 a43.397621323139006,43.397621323139006 0 0,0 0.009644589991579312,0.746984123558899 l -22.39741391525684 0.09638902110890639" fill="#e2ff1b" stroke="none" /><path d="M 120.99824983174949 100.27111621757518 l 16.52678435573725 0.21338346286524365 a37.52816183497929,37.52816183497929 0 0,0 -0.013899604299969738,0.6458599943732498 l -16.52066268875227 -0.4978332730286083" fill="#ffd413" stroke="none" /><path d="M 120.9904718944345 100.63252640178507 l 12.410242221710742 0.37396995633343444 a33.41587554422853,33.41587554422853 0 0,0 -0.022273856501373288,0.5747892646439797 l -12.401966232358166 -0.5875364679914202" fill="#ff9f0e" stroke="none" /><path d="M 120.92983693683757 101.71520430193887 l 16.410559803341314 1.3448486415283611 a37.465572900074335,37.465572900074335 0 0,0 -0.05820616388455193,0.6423001682246222 l -16.384979043179687 -1.627130198301554" fill="#ffd313" stroke="none" /><path d="M 120.8583938346157 102.4346265915055 l 26.577895221442148 3.1022163530628544 a47.75833067856005,47.75833067856005 0 0,0 -0.10233584768691209,0.8157173952033867 l -26.520557864508387 -3.5592515025536358" fill="#b0ff20" stroke="none" /><path d="M 120.76222939487914 103.15116336523771 l 14.860085602791282 2.255372314081144 a36.03026441541893,36.03026441541893 0 0,0 -0.09834245458051004,0.6123785585480396 l -14.819061393849484 -2.5108301023223882" fill="#ffc111" stroke="none" /><path d="M 120.70491114924044 103.5080841355445 l 9.284486422141613 1.5730934216246644 a30.416810024423917,30.416810024423917 0 0,0 -0.0919073718448917,0.5154653500096358 l -9.256032607957533 -1.7326775223675186" fill="#ff770b" stroke="none" /><path d="M 120.5718875245553 104.21870165774334 l 8.676805783028692 1.7793629727504263 a29.857374960178404,29.857374960178404 0 0,0 -0.10758033226317341,0.5025794969967988 l -8.644891412041076 -1.928456289163394" fill="#ff700a" stroke="none" /><path d="M 120.41448212921028 104.9243191809786 l 33.53969849684768 8.090343883666044 a55.50166719762132,55.50166719762132 0 0,0 -0.23201992465295757,0.9268042644398355 l -33.39546725789966 -8.666475987503276" fill="#5dff2a" stroke="none" /><path d="M 119.41010516605496 108.01547362559984 l 10.980577705705652 4.534469558045258 a32.88000424763725,32.88000424763725 0 0,0 -0.22052934936535343,0.5212662385830091 l -10.900897375147991 -4.72281032229443" fill="#ff980e" stroke="none" /><path d="M 118.97047184881838 109.00673069616215 l 10.84266783274469 5.147841865807591 a33.00265477328236,33.00265477328236 0 0,0 -0.2480648370967369,0.5110870387969877 l -10.752449739033239 -5.333717860569854" fill="#ff9a0e" stroke="none" /><line stroke="#e1ed5e" stroke-width="0.3" x1="174.80103733775053" x2="179.2010983576182" y1="140.37084112569926" y2="142.7455964860345" /><path d="M 175.68104954172406 140.8457921977663 a86.0,86.0 0 0,1 -30.038265399797805,32.042727171017184" fill="none" id="id89" stroke="none" /><text fill="#e1ed5e" style="font-size:6.75px; font-family:Arial;" text-anchor="middle"><textPath startOffset="22.206326154141568" xlink:href="#id89">May</textPath></text><path d="M 116.93607887273984 112.41649034213515 l 12.827981188012771 9.404686039011374 a36.906137835828815,36.906137835828815 0 0,0 -0.38002554746647427,0.5091063237187414 l -12.664194373851204 -9.624105242239429" fill="#ffcc13" stroke="none" /><path d="M 115.80600337817218 113.82643327865902 l 9.081332499137714 7.943971342815542 a33.06554104279495,33.06554104279495 0 0,0 -0.37842905577263913,0.42516905585943626 l -8.943244593716736 -8.099114568415844" fill="#ff9b0e" stroke="none" /><line stroke="#e1ed5e" stroke-width="0.3" x1="143.8653032363475" x2="146.44561519142675" y1="172.8068346515853" y2="177.08958963109032" /><path d="M 144.38136562736335 173.6633856474863 a86.0,86.0 0 0,1 -40.68145358897372,12.25698825130547" fill="none" id="id90" stroke="none" /><text fill="#e1ed5e" style="font-size:6.75px; font-family:Arial;" text-anchor="middle"><textPath startOffset="21.466115282336833" xlink:href="#id90">June</textPath></text><path d="M 107.93186726928326 119.44442032107085 l 5.045583997365141 12.368897849560444 a34.35842625039822,34.35842625039822 0 0,0 -0.5495367256132689,0.21867200426700378 l -4.831926195710006 -12.453916698233517" fill="#ffab0f" stroke="none" /><path d="M 106.57524785965236 119.94407469862006 l 2.310378851311852 7.007852688782407 a28.37887862376553,28.37887862376553 0 0,0 -0.4652496266865458,0.14895823836606564 l -2.189407879534366 -7.0465837738081785" fill="#ff5b08" stroke="none" /><path d="M 104.83641907484287 120.43548508189849 l 2.047675912219143 8.652114283143822 a29.891122438143782,29.891122438143782 0 0,0 -0.5017151605465042,0.1141887370960602 l -1.8984406022797764 -8.686079753817566" fill="#ff700a" stroke="none" /><path d="M 103.41894727170886 120.7198165907248 l 2.4260475160893007 14.702554786295131 a35.9013698630137,35.9013698630137 0 0,0 -0.610603893447357,0.09536377045316713 l -2.1726077590334265 -14.742136864095404" fill="#ffbf11" stroke="none" /><path d="M 102.34483914955558 120.86867818915974 l 1.9952090326185612 17.757028335915024 a38.8687692471063,38.8687692471063 0 0,0 -0.6655210681580008,0.06898397986604989 l -1.6892553678549578 -17.788741684236832" fill="#ffe515" stroke="none" /><path d="M 101.26447882468166 120.96189622390904 l 0.3839403687699305 6.364771010183417 a27.376340660507594,27.376340660507594 0 0,0 -0.47062788674383066,0.02432608604137434 l -0.2743244136126202 -6.370436902986993" fill="#ff4e07" stroke="none" /><line stroke="#e1ed5e" stroke-width="0.3" x1="102.19456741930631" x2="102.32365962044197" y1="184.97166512339345" y2="189.96999836594603" /><path d="M 102.22038585953345 185.97133177190398 a86.0,86.0 0 0,1 -42.740103519485714,-10.115201625700543" fill="none" id="id91" stroke="none" /><text fill="#e1ed5e" style="font-size:6.75px; font-family:Arial;" text-anchor="middle"><textPath startOffset="22.20632615414155" xlink:href="#id91">July</textPath></text><path d="M 100.54218724476979 120.99299961872073 l 0.2750586460927109 10.650021940301848 a31.65357332483806,31.65357332483806 0 0,0 -0.5448036837397449,0.009379289486170977 l -0.09169527246029809 -10.653178707067179" fill="#ff880c" stroke="none" /><path d="M 99.81925306533755 120.99922214144158 l -0.12179800872733564 14.150521813424362 a35.15104598067325,35.15104598067325 0 0,0 -0.6050002361834109,-0.01041562772743061 l 0.36535793480341444 -14.146328708417771" fill="#ffb610" stroke="none" /><path d="M 99.09653310690486 120.98055641714683 l -0.9508228725399452 22.08026998277321 a43.10073271742593,43.10073271742593 0 0,0 -0.7409466081481842,-0.0382984762475169 l 1.3307575491016184 -22.06063169976349" fill="#e6ff1a" stroke="none" /><path d="M 98.37488393609728 120.93702456842531 l -1.1488272250686336 14.800803690521953 a35.84532228947648,35.84532228947648 0 0,0 -0.6147569764257488,-0.053043818688465444 l 1.403428519235924 -14.778835619554823" fill="#ffbf11" stroke="none" /><path d="M 97.65516085044442 120.86867818915974 l -0.8289314739487653 7.377352162506011 a28.423776149516833,28.423776149516833 0 0,0 -0.4857387520660745,-0.05881619829553814 l 0.9557976490662292 -7.361990435485123" fill="#ff5c08" stroke="none" /><path d="M 96.58105272829116 120.7198165907248 l -2.3894146415310007 14.480548893335156 a35.676361898693855,35.676361898693855 0 0,0 -0.605055856397866,-0.10519671628410183 l 2.6383194694009164 -14.437273598530048" fill="#ffbc11" stroke="none" /><path d="M 95.86986931433489 120.58985236759428 l -3.512182669834234 17.509209311681765 a38.85799086757991,38.85799086757991 0 0,0 -0.6546804266975563,-0.13719464875303483 l 3.813054557961177 -17.44615868220219" fill="#ffe515" stroke="none" /><path d="M 95.16358092515715 120.4354850818985 l -5.518578258147027 23.31783534935243 a44.96197302750345,44.96197302750345 0 0,0 -0.7516072829890215,-0.1847267836443582 l 5.919138825879259 -23.21938730739404" fill="#d0ff1d" stroke="none" /><path d="M 94.11515582081647 120.15858648285463 l -4.222231446870652 14.463291665979035 a36.06698523946055,36.06698523946055 0 0,0 -0.5944612470415028,-0.17910629729363747 l 4.470567668352401 -14.388469999579673" fill="#ffc112" stroke="none" /><path d="M 93.76903079525671 120.05430185196036 l -5.3057306003081175 17.076432174109183 a38.881703302537964,38.881703302537964 0 0,0 -0.6374352625509958,-0.2040866415266974 l 5.598887207950054 -16.982572685922776" fill="#ffe515" stroke="none" /><path d="M 93.42475214034765 119.94407469862007 l -3.4201250309022457 10.373940351891335 a31.92318148030158,31.92318148030158 0 0,0 -0.5203938686497641,-0.17654585456339908 l 3.5981886324892356 -10.313531510429813" fill="#ff8b0c" stroke="none" /><path d="M 92.7421414339146 119.70592522655815 l -5.5435488274697295 15.051376062128574 a37.039789741956035,37.039789741956035 0 0,0 -0.5963931394539586,-0.22550485400911693 l 5.8018121876839714 -14.953722958012824" fill="#ffce13" stroke="none" /><path d="M 92.06813273071674 119.44442032107085 l -5.819145312020521 14.265229549982179 a36.406467027715834,36.406467027715834 0 0,0 -0.5782188482194203,-0.24169552545065562 l 6.063835619737404 -14.16294898151155" fill="#ffc612" stroke="none" /><path d="M 91.40352486487194 119.15986991738527 l -7.270534800225907 16.204606982798662 a38.760911118190506,38.760911118190506 0 0,0 -0.6063904674066687,-0.2783641220121362 l 7.548393263399996 -16.07705579045245" fill="#ffe315" stroke="none" /><path d="M 90.7491055286396 118.85261126421891 l -4.75459497485773 9.689498789258154 a31.793171923117765,31.793171923117765 0 0,0 -0.489230441396461,-0.2453102995735489 l 4.920679323936951 -9.606220648775304" fill="#ff8a0c" stroke="none" /><path d="M 90.10565033884886 118.52300852407294 l -12.73093303078744 23.83331791624211 a48.020431135181056,48.020431135181056 0 0,0 -0.72574235269235,-0.3957325959271182 l 13.139298195348431 -23.610644668555224" fill="#adff20" stroke="none" /><line stroke="#e1ed5e" stroke-width="0.3" x1="58.666819895761336" x2="56.23545636021788" y1="174.27360380694188" y2="178.64263932499728" /><path d="M 58.180547188652646 175.14741091055294 a86.0,86.0 0 0,1 -31.652253787137756,-30.449443065178592" fill="none" id="id92" stroke="none" /><text fill="#e1ed5e" style="font-size:6.75px; font-family:Arial;" text-anchor="middle"><textPath startOffset="22.20632615414155" xlink:href="#id92">August</textPath></text><path d="M 88.8546689885994 117.79835938074946 l -7.08088116024649 11.307700730784099 a34.34177551237124,34.34177551237124 0 0,0 -0.4983125689828027,-0.31804665836801027 l 7.274475531276216 -11.184139643592285" fill="#ffab0f" stroke="none" /><path d="M 88.54995079064634 117.60387380957326 l -7.931786416120286 12.194722013928413 a35.547318678984816,35.547318678984816 0 0,0 -0.5100622147586515,-0.3380414230995623 l 8.1405233296189 -12.056382569737533" fill="#ffbb11" stroke="none" /><path d="M 87.95078237400918 117.19931262002967 l -10.309798694127227 14.716428592622968 a38.968450674312415,38.968450674312415 0 0,0 -0.5460642909294647,-0.38960237267201875 l 10.56159031290558 -14.53678195810673" fill="#ffe615" stroke="none" /><path d="M 87.36589467227662 116.77436683061367 l -9.295465515889493 12.341637526378546 a36.45062121694807,36.45062121694807 0 0,0 -0.4979350502718182,-0.3817953635086308 l 9.506529294654799 -12.17980282104255" fill="#ffc612" stroke="none" /><path d="M 87.07902340077011 116.55440617244103 l -10.120128183385349 12.965948136994085 a37.44788149092067,37.44788149092067 0 0,0 -0.504730584267306,-0.4009885018887164 l 10.341816260370011 -12.789825721100238" fill="#ffd313" stroke="none" /><path d="M 85.97065885151581 115.62618273729859 l -14.826278838303578 16.51382912350852 a43.19290644578953,43.19290644578953 0 0,0 -0.5489621995341536,-0.5014639535063236 l 15.108340587304586 -16.25617240341562" fill="#e5ff1a" stroke="none" /><path d="M 85.70375840098266 115.38237550388516 l -13.275348965062513 14.283922198107026 a40.50039290644578,40.50039290644578 0 0,0 -0.5065715195055075,-0.4789949902924731 l 13.519256318958838 -14.053292571068623" fill="#fff917" stroke="none" /><path d="M 84.9287848128048 114.62390073753433 l -10.19807691348906 9.895397460936868 a35.209843899331,35.209843899331 0 0,0 -0.41831549427869835,-0.43860212334790777 l 10.366898959146717 -9.71838822100646" fill="#ffb610" stroke="none" /><path d="M 84.43433777217949 114.09645910891817 l -22.110006365846896 20.02309931131799 a50.82912817245407,50.82912817245407 0 0,0 -0.5817300541114128,-0.6535798826721401 l 22.451395269606646 -19.639545258904985" fill="#8eff24" stroke="none" /><path d="M 83.06392112726016 112.41649034213515 l -13.48963388178797 9.889769058749252 a37.72655835191675,37.72655835191675 0 0,0 -0.3794576899069341,-0.527033542973289 l 13.65787136407051 -9.656101910324825" fill="#ffd614" stroke="none" /><path d="M 82.85270091963577 112.12312394758628 l -5.685175447458128 4.019413570049261 a27.96253583943931,27.96253583943931 0 0,0 -0.27448437006611137,-0.39541520709192013 l 5.753520724686374 -3.9209571007703286" fill="#ff5607" stroke="none" /><path d="M 82.44556493220864 111.52570212397912 l -17.025645848199478 11.178515386960738 a41.36742062227886,41.36742062227886 0 0,0 -0.38569237011801466,-0.5986031235273612 l 17.215543081694538 -10.883790663511927" fill="#fbff18" stroke="none" /><path d="M 82.05923443525364 110.91462005526583 l -23.07958100313536 14.040920203480443 a48.01507911224381,48.01507911224381 0 0,0 -0.4234909955452341,-0.7097952676903663 l 23.317852874378826 -13.641562841903966" fill="#adff20" stroke="none" /><line stroke="#e1ed5e" stroke-width="0.3" x1="26.63291911575756" x2="22.317208475507996" y1="142.92168965132927" y2="145.44649492493687" /><path d="M 25.769776987707644 143.4266507060508 a86.0,86.0 0 0,1 -11.730757126820373,-40.83630448921669" fill="none" id="id93" stroke="none" /><text fill="#e1ed5e" style="font-size:6.75px; font-family:Arial;" text-anchor="middle"><textPath startOffset="21.46611528233685" xlink:href="#id93">September</textPath></text><path d="M 81.87401531095188 110.60418214915194 l -12.949579185782 7.575847535823457 a36.00283529786556,36.00283529786556 0 0,0 -0.30833514577027876,-0.53760831629727 l 13.078066327704656 -7.35181937366788" fill="#ffc111" stroke="none" /><path d="M 81.51974371655577 109.97397251340807 l -26.26464967831928 14.175284690209152 a50.845778910481044,50.845778910481044 0 0,0 -0.40906032448941704,-0.7737879755257261 l 26.504762511033583 -13.721081699597299" fill="#8eff24" stroke="none" /><path d="M 81.02952815118164 109.00673069616217 l -14.840897399210808 7.046106561255152 a37.42862907507699,37.42862907507699 0 0,0 -0.27131368581493326,-0.5843855420467609 l 14.959985701865568 -6.789600951929564" fill="#ffd313" stroke="none" /><path d="M 80.32549172779594 107.34259656027581 l -5.66083467808611 2.1126436635942776 a27.04221089518955,27.04221089518955 0 0,0 -0.1590027130636239,-0.43750717740313483 l 5.696361652154959 -2.0148886891850255" fill="#ff4906" stroke="none" /><path d="M 80.0844068197444 106.66101706037122 l -14.184194090874195 4.744079574822743 a35.95652543272804,35.95652543272804 0 0,0 -0.1912677389222396,-0.5886615712737138 l 14.263754080812685 -4.499219103571226" fill="#ffc011" stroke="none" /><path d="M 79.76711848015287 105.62410040840567 l -14.95289512230647 4.156431375418168 a36.51982584687268,36.51982584687268 0 0,0 -0.1631426244932617,-0.6071143962854073 l 15.022225823141508 -3.8984260459572218" fill="#ffc712" stroke="none" /><path d="M 79.67330655649465 105.27499134158121 l -29.09319606589087 7.549991235565836 a51.056886481894445,51.056886481894445 0 0,0 -0.21343890287770984,-0.8525823188689534 l 29.218846283063638 -7.04808107729949" fill="#8cff24" stroke="none" /><path d="M 79.50377843672027 104.57218783832718 l -14.837650890284076 3.309904059167755 a36.20234681958161,36.20234681958161 0 0,0 -0.13044216059689653,-0.6093823478773949 l 14.892427089605413 -3.0540078918741966" fill="#ffc312" stroke="none" /><path d="M 79.4281124754447 104.21870165774334 l -17.708819053738452 3.6315687711936517 a39.07734947435489,39.07734947435489 0 0,0 -0.129457801050675,-0.6601025385045556 l 17.768706787764796 -3.3262025056211413" fill="#ffe715" stroke="none" /><path d="M 79.29508885075956 103.50808413554451 l -23.563260374866168 3.992381290938553 a44.899086757990865,44.899086757990865 0 0,0 -0.12254937541658276,-0.763115077701587 l 23.628491504644042 -3.5861869835437523" fill="#d1ff1c" stroke="none" /><path d="M 79.10278846688536 102.07522291339032 l -15.155378861540218 1.5050232623018225 a36.22992460443878,36.22992460443878 0 0,0 -0.05628647224147318,-0.6211165309085803 l 15.179039930058766 -1.243925342844676" fill="#ffc412" stroke="none" /><path d="M 79.07016306316243 101.71520430193888 l -14.008788596462486 1.1480230131804996 a35.0557502389296,35.0557502389296 0 0,0 -0.0441092171388604,-0.6018352229235343 l 14.026474372265682 -0.9067146537602047" fill="#ffb410" stroke="none" /><path d="M 79.0095281055655 100.63252640178507 l -10.524287218006688 0.3171386312245542 a31.529064457895295,31.529064457895295 0 0,0 -0.011677670807327095,-0.5426154758901353 l 10.528186951499023 -0.1359333395442901" fill="#ff860c" stroke="none" /><line stroke="#e1ed5e" stroke-width="0.3" x1="15.007084014347285" x2="10.007500721073583" y1="101.09737516637583" y2="101.16192664675087" /><path d="M 14.007167355692545 101.11028546245083 a86.0,86.0 0 0,1 10.666146001902534,-42.60595125391555" fill="none" id="id94" stroke="none" /><text fill="#e1ed5e" style="font-size:6.75px; font-family:Arial;" text-anchor="middle"><textPath startOffset="22.20632615414155" xlink:href="#id94">October</textPath></text><path d="M 79.12142395522702 97.74499172005258 l -14.864354813851673 -1.6054372247145423 a35.95080174153127,35.95080174153127 0 0,0 0.07174692429645413,-0.614683832263727 l 14.83451753655163 1.8610647953031312" fill="#ffc011" stroke="none" /><path d="M 79.21141760316559 97.0276538004421 l -23.744650968019975 -3.395004128582151 a44.986131464372946,44.986131464372946 0 0,0 0.11620154804319073,-0.7656230150196631 l 23.68269352653748 3.803226255993906" fill="#d0ff1d" stroke="none" /><path d="M 79.26566170972629 96.67025291283419 l -18.08212497819407 -2.903825631327395 a39.31380482106828,39.31380482106828 0 0,0 0.11305178522388548,-0.6672380358860216 l 18.02946133144996 3.2146494555292446" fill="#ffea16" stroke="none" /><path d="M 79.3925641242962 95.95851677861259 l -17.71790149694109 -3.4747943436527486 a39.055421047042586,39.055421047042586 0 0,0 0.13505867498917012,-0.6585940643593332 l 17.655463526036925 3.779264064175484" fill="#ffe715" stroke="none" /><path d="M 79.54389044137918 95.25157060432595 l -47.62245445410233 -11.054490198929793 a69.88864818944461,69.88864818944461 0 0,0 0.28210785717029985,-1.1695191958634092 l 47.42511379667122 11.872594626452598" fill="#3bffa0" stroke="none" /><path d="M 79.71946130924805 94.55025226153421 l -15.30326047198237 -4.11226301332761 a36.84615057874058,36.84615057874058 0 0,0 0.16986642046314432,-0.6110998932904252 l 15.230207280952865 4.375074210036978" fill="#ffcb13" stroke="none" /><path d="M 79.81627453868168 94.20196356495316 l -17.334527304094234 -4.979567378979207 a39.035573961983644,39.035573961983644 0 0,0 0.1910774669596057,-0.644218228890738 l 17.24624394002292 5.277214994616485" fill="#ffe715" stroke="none" /><path d="M 80.02781315780177 93.51064311812611 l -14.846267931833045 -4.823844866603528 a36.61028990124243,36.61028990124243 0 0,0 0.19989690075601946,-0.5976662899027232 l 14.761033737305253 5.078684259428574" fill="#ffc812" stroke="none" /><path d="M 80.2630227832202 92.82701384747504 l -28.188575679923492 -10.244540528708296 a50.99243920569184,50.99243920569184 0 0,0 0.30691477793853134,-0.822379016447892 l 28.00805631348333 10.72824268218553" fill="#8cff24" stroke="none" /><path d="M 80.52162464483688 92.15188598940014 l -14.02917384788918 -5.652553348273745 a36.12511415525114,36.12511415525114 0 0,0 0.23735630058023904,-0.5747771087879263 l 13.92979586042274 5.893205027514982" fill="#ffc212" stroke="none" /><path d="M 80.65960295795068 91.81776055985345 l -7.344777804149754 -3.1073162819546294 a28.975034512052673,28.975034512052673 0 0,0 0.19828484009575795,-0.4576687492038419 l 7.290202254211314 3.2332841757450708" fill="#ff6409" stroke="none" /><path d="M 80.95270993114464 91.15688171328213 l -13.567056170349927 -6.29880062115103 a35.95793777211426,35.95793777211426 0 0,0 0.265475410376881,-0.5591589189242713 l 13.456622566131294 6.531401955715833" fill="#ffc011" stroke="none" /><path d="M 81.26839172434947 90.50648371742162 l -56.19482482695157 -28.480548847735136 a84.0,84.0 0 0,0 0.6647622673595439,-1.284109110958658 l 55.69625312643191 29.44363068095413" fill="#4dd2ff" stroke="none" /><path d="M 81.6062741919709 89.86733742301443 l -8.673653174825068 -4.778107592097415 a30.90265477328236,30.90265477328236 0 0,0 0.26067472175547446,-0.46371124313589585 l 8.590120811777162 4.926702345168095" fill="#ff7e0b" stroke="none" /><line stroke="#e1ed5e" stroke-width="0.3" x1="26.266209847984243" x2="21.928928074336255" y1="57.711370442889674" y2="55.22380399835377" /><path d="M 25.398753493254645 57.213857153982495 a86.0,86.0 0 0,1 29.58750427330803,-30.492523968695096" fill="none" id="id95" stroke="none" /><text fill="#e1ed5e" style="font-size:6.75px; font-family:Arial;" text-anchor="middle"><textPath startOffset="21.46611528233685" xlink:href="#id95">November</textPath></text><line stroke="#e1ed5e" stroke-width="0.3" x1="56.762969772571076" x2="54.21961505331055" y1="26.818313649435495" y2="22.513508569990535" /><path d="M 56.25429882871897 25.957352633546506 a86.0,86.0 0 0,1 42.265352541879196,-11.944610805530505" fill="none" id="id96" stroke="none" /><text fill="#e1ed5e" style="font-size:6.75px; font-family:Arial;" text-anchor="middle"><textPath startOffset="22.20632615414155" xlink:href="#id96">December</textPath></text></svg>