<?xml version="1.0" encoding="utf-8" ?>
<svg baseProfile="full" height="200mm" version="1.1" viewBox="0,0,200,200" width="200mm" xmlns="http://www.w3.org/2000/svg" xmlns:ev="http://www.w3.org/2001/xml-events" xmlns:xlink="http://www.w3.org/1999/xlink"><defs /><rect fill="#1a1a1a" height="200" width="200" x="0" y="0" /><text alignment-baseline="middle" fill="#e1ed5e" style="dominant-baseline: central; font-size:9.0px; font-family:Arial;" text-anchor="middle" x="100.0" y="100.0">2021</text><line stroke="#e1ed5e" stroke-width="0.3" x1="100.0" x2="100.0" y1="15.0" y2="10.0" /><path d="M 100.0 14.0 a86.0,86.0 0 0,1 42.46469731375804,11.215312516191453" fill="none" id="id61" stroke="none" /><text fill="#e1ed5e" style="font-size:6.75px; font-family:Arial;" text-anchor="middle"><textPath startOffset="22.20632615414155" xlink:href="#id61">January</textPath></text><path d="M 101.08401301168833 79.027996857942 l 2.023396558297883 -39.14591293711627 a60.19817130061578,60.19817130061578 0 0,0 1.0343707045579178,0.06239606564280065 l -2.6969293116954125 39.10528360209317" fill="#3aff2e" stroke="none" /><path d="M 102.16513564639614 79.11191278185805 l 4.900745547823303 -47.27980928457954 a68.53312185109162,68.53312185109162 0 0,0 1.1723513943493964,0.13172733900964026 l -5.713863645682424 47.1884459920993" fill="#39ff88" stroke="none" /><path d="M 103.2404852339499 79.25152402106235 l 7.299103799031403 -46.73537106582503 a68.3019220003732,68.3019220003732 0 0,0 1.160061940100654,0.19142015991086805 l -8.102494945270934 46.60280464297453" fill="#39ff86" stroke="none" /><path d="M 103.95276090670814 79.375362276772 l 9.628539070007072 -50.239600828329614 a72.15394663183429,72.15394663183429 0 0,0 1.2177991607542116,0.2442790551876027 l -10.491904640228409 50.0664178170648" fill="#3effb2" stroke="none" /><path d="M 105.36241919743992 79.69619591428918 l 5.939787340176043 -22.489901297402408 a44.26105616719538,44.26105616719538 0 0,0 0.7349487481280438,0.2008892557131953 l -6.326033977527797 22.384325500862918" fill="#f0ff19" stroke="none" /><path d="M 106.0581310904928 79.89281104454417 l 13.459247763278064 -44.67180289301307 a67.65534614666916,67.65534614666916 0 0,0 1.1121721478166542,0.3455573001032436 l -14.226205283805438 44.43350545802731" fill="#38ff7e" stroke="none" /><path d="M 107.4271985657038 80.35727306442388 l 7.395322177009797 -19.558423386496393 a41.9098712446352,41.9098712446352 0 0,0 0.6725872458161153,0.2609534021068487 l -7.730892587825579 19.428227280498998" fill="#fff016" stroke="none" /><path d="M 107.76421540070413 80.48803036053334 l 20.305183586652074 -51.02822438834209 a75.91976114946819,75.91976114946819 0 0,0 1.2100746987487556,0.49361985278584336 l -21.18054215498922 50.67114364937267" fill="#42ffdb" stroke="none" /><path d="M 108.76106565485865 80.91482961587045 l 26.283196964575957 -57.255511152388685 a84.0,84.0 0 0,0 1.308887154801608,0.6145400694399883 l -27.264862330677165 56.79460610030869" fill="#4dd2ff" stroke="none" /><path d="M 109.73455568895987 81.39251694778311 l 8.691891952168868 -16.614444188254872 a39.75069975741743,39.75069975741743 0 0,0 0.6035575010294479,0.3223995145299881 l -8.976594499726628 16.46236594722313" fill="#ffd313" stroke="none" /><path d="M 110.36928655335952 81.73862282372117 l 21.46223669525356 -37.797200156612206 a64.46557193506251,64.46557193506251 0 0,0 0.9602400735609039,0.5562330298145728 l -22.10967350127979 37.42216296940758" fill="#34ff57" stroke="none" /><line stroke="#e1ed5e" stroke-width="0.3" x1="143.23703022742887" x2="145.7803849466894" y1="26.81831364943548" y2="22.513508569990506" /><path d="M 143.74570117128098 25.957352633546492 a86.0,86.0 0 0,1 28.547481713284135,27.462654790039103" fill="none" id="id62" stroke="none" /><text fill="#e1ed5e" style="font-size:6.75px; font-family:Arial;" text-anchor="middle"><textPath startOffset="19.985693538727396" xlink:href="#id62">February</textPath></text><path d="M 110.99172775467656 82.1063720568725 l 27.710065677492118 -45.10970582415608 a73.94084717298003,73.94084717298003 0 0,0 1.078764734817646,0.675522377976743 l -28.482449564682025 44.626039104856396" fill="#40ffc5" stroke="none" /><path d="M 111.90073688211348 82.69761687909136 l 28.673691849570652 -41.68844389945369 a71.59749953349505,71.59749953349505 0 0,0 1.0094185759781888,0.7071622201642345 l -29.387041565132492 41.18869683652552" fill="#3dffab" stroke="none" /><path d="M 113.06298171725822 83.55741782278167 l 12.209829337888863 -15.368705752134087 a40.6284754618399,40.6284754618399 0 0,0 0.5438345892299601,0.43974308333000633 l -12.472567325683315 15.15625657153995" fill="#ffdf14" stroke="none" /><path d="M 116.15771136456269 86.58626213691792 l 18.331570273659484 -15.218422505605336 a44.825340548609816,44.825340548609816 0 0,0 0.4877456146926589,0.5979184519225479 l -18.590814380428554 14.900619884074686" fill="#e9ff1a" stroke="none" /><path d="M 116.60985879189232 87.15038557335679 l 18.618291054841794 -14.403365154104453 a44.539279716364994,44.539279716364994 0 0,0 0.46389581328843554,0.6104325130315679 l -18.863462808354342 14.080747865191851" fill="#edff1a" stroke="none" /><line stroke="#e1ed5e" stroke-width="0.3" x1="172.23445277983987" x2="176.4835382374775" y1="55.19839476539836" y2="52.563006222186495" /><path d="M 173.08426987136738 54.67131705675599 a86.0,86.0 0 0,1 12.851231095245387,41.99856678651699" fill="none" id="id63" stroke="none" /><text fill="#e1ed5e" style="font-size:6.75px; font-family:Arial;" text-anchor="middle"><textPath startOffset="22.20632615414155" xlink:href="#id63">March</textPath></text><path d="M 118.3937258080291 89.86733742301442 l 20.99198116101996 -11.563979160448564 a44.966411643963426,44.966411643963426 0 0,0 0.3676366041179541,0.6811747931069296 l -21.18792586435638 11.200923384009176" fill="#e8ff1a" stroke="none" /><path d="M 119.196687751892 91.48605970444005 l 28.664283521298717 -12.712922232705854 a52.356969583877586,52.356969583877586 0 0,0 0.35829442541368584,0.8269929332297816 l -28.878868656555085 12.217630154889468" fill="#8fff24" stroke="none" /><path d="M 119.61058180528143 92.48833698450437 l 19.354425670485814 -7.4135446331323775 a41.72569509236798,41.72569509236798 0 0,0 0.2511398286312174,0.6729298818644633 l -19.479170087618655 7.07929161423858" fill="#ffed16" stroke="none" /><path d="M 119.85752413597 93.16781622104841 l 10.671705450941145 -3.6717091403957007 a32.28568762828886,32.28568762828886 0 0,0 0.17628401504280397,0.5270667671250336 l -10.73332675975572 3.4874692703483534" fill="#ff6d0a" stroke="none" /><path d="M 120.08093135843002 93.85539295169968 l 30.86520462761486 -9.444509844532506 a53.27785034521366,53.27785034521366 0 0,0 0.2607928014311057,0.8792636793793953 l -31.02320332615767 8.91181677840658" fill="#85ff25" stroke="none" /><path d="M 120.53481517161879 95.60439243477599 l 31.152835854685726 -6.668462307384077 a52.85855570069043,52.85855570069043 0 0,0 0.18279169199526157,0.891357207316988 l -31.263006842595985 6.131229443903678" fill="#8aff24" stroke="none" /><path d="M 120.67395015179393 96.31383870115 l 37.54410951245729 -6.694107438031 a59.13621944392611,59.13621944392611 0 0,0 0.17005362899763285,1.003666144528026 l -37.653775002975145 6.046855505187136" fill="#45ff2d" stroke="none" /><path d="M 120.78858239683441 97.02765380044208 l 15.927956581713401 -2.2773751624155234 a37.08994215338683,37.08994215338683 0 0,0 0.08492537206896444,0.6327926651162441 l -15.964797952840202 2.002864155234615" fill="#ffb010" stroke="none" /><path d="M 120.91429891909075 98.10471618934814 l 40.536820838327245 -3.673504933987855 a61.7029296510543,61.7029296510543 0 0,0 0.08675289751413243,1.058605086703951 l -40.59404821966087 2.9751859300761354" fill="#30ff35" stroke="none" /><path d="M 120.98425023603335 99.18683210126433 l 29.87289513914881 -1.157614834755442 a50.89531629035268,50.89531629035268 0 0,0 0.026388750216473585,0.8757141491405322 l -29.88839558382093 0.6432305381899107" fill="#a0ff22" stroke="none" /><line stroke="#e1ed5e" stroke-width="0.3" x1="184.98032266829074" x2="189.97916517819016" y1="98.17113171792111" y2="98.06355123074" /><path d="M 185.9800911702706 98.14961562048488 a86.0,86.0 0 0,1 -9.607161424134198,41.387399972396054" fill="none" id="id64" stroke="none" /><text fill="#e1ed5e" style="font-size:6.75px; font-family:Arial;" text-anchor="middle"><textPath startOffset="21.466115282336823" xlink:href="#id64">April</textPath></text><path d="M 120.99824983174949 100.27111621757518 l 47.262714959985516 0.6102265005396312 a68.2666542265348,68.2666542265348 0 0,0 -0.025284464632298023,1.17486971806688 l -47.245208432668214 -1.423686034396626" fill="#38ff85" stroke="none" /><path d="M 120.92983693683757 101.71520430193887 l 19.55117814999233 1.6022229400085815 a40.6167195372271,40.6167195372271 0 0,0 -0.06310175584775408,0.6963226175954593 l -19.520701797867503 -1.9385269461526113" fill="#ffdf14" stroke="none" /><path d="M 120.89721153311464 102.0752229133903 l 37.97295127999075 3.770949940398347 a59.15973129315171,59.15973129315171 0 0,0 -0.10935450536268329,1.0124869058602919 l -37.90241447312702 -4.42403316814343" fill="#45ff2d" stroke="none" /><path d="M 120.5718875245553 104.21870165774334 l 4.671764716809811 0.9580443958711771 a25.76898675125956,25.76898675125956 0 0,0 -0.09284929303005453,0.4337609859151469 l -4.654581385055313 -1.0383192012024929" fill="#ff0c01" stroke="none" /><path d="M 119.54520255179757 107.68017299344265 l 20.69406219050185 8.131610667063555 a43.234372084344095,43.234372084344095 0 0,0 -0.278135744896098,0.6903101090856948 l -20.55102383134836 -8.486620143992063" fill="#fdff18" stroke="none" /><path d="M 119.12269723197855 108.67885076344098 l 40.38282600752027 18.32777646759873 a65.34726628102257,65.34726628102257 0 0,0 -0.47369107848086806,1.020288441511144 l -40.06136031219957 -19.020184976388705" fill="#35ff62" stroke="none" /><path d="M 118.81262510543309 109.33194174019688 l 39.19092119370312 19.440529499451007 a64.74771412576973,64.74771412576973 0 0,0 -0.5038646462253175,0.9941727486539246 l -38.85047787769153 -20.112256459807625" fill="#34ff5b" stroke="none" /><line stroke="#e1ed5e" stroke-width="0.3" x1="174.80103733775053" x2="179.2010983576182" y1="140.37084112569926" y2="142.7455964860345" /><path d="M 175.68104954172406 140.8457921977663 a86.0,86.0 0 0,1 -30.038265399797805,32.042727171017184" fill="none" id="id65" stroke="none" /><text fill="#e1ed5e" style="font-size:6.75px; font-family:Arial;" text-anchor="middle"><textPath startOffset="22.206326154141568" xlink:href="#id65">May</textPath></text><path d="M 117.55443506779139 111.5257021239791 l 16.404667068389482 10.770799820281269 a40.624556820302296,40.624556820302296 0 0,0 -0.38882903642602257,0.5812466524404554 l -16.21683492655274 -11.051583386927533" fill="#ffdf14" stroke="none" /><path d="M 117.14729908036423 112.12312394758627 l 25.261788811247552 17.860060378091735 a51.93767493935435,51.93767493935435 0 0,0 -0.5223945944866132,0.7255604018195012 l -24.950614424385336 -18.292254385362366" fill="#94ff23" stroke="none" /><path d="M 116.498646956653 112.99209946851258 l 30.949971609485466 24.372005216823457 a60.3941033774958,60.3941033774958 0 0,0 -0.6501916662456785,0.8112140751804453 l -30.525862031184936 -24.901147125582153" fill="#38ff2e" stroke="none" /><path d="M 116.0416608686014 113.55231037782055 l 29.107876522910992 24.59090616046409 a59.104870311625305,59.104870311625305 0 0,0 -0.6632621623705811,0.7715237382621148 l -28.680271850969632 -25.08830699788773" fill="#46ff2d" stroke="none" /><path d="M 115.56566222782051 114.09645910891815 l 27.982756093081328 25.34153518479521 a58.752192573241274,58.752192573241274 0 0,0 -0.6853124099496436,0.743771270155549 l -27.54239727513596 -25.819457709752093" fill="#49ff2c" stroke="none" /><path d="M 113.20401910651253 116.32954008644616 l 15.355000386599379 18.989679757180905 a45.42097406232506,45.42097406232506 0 0,0 -0.6121936372295547,0.48636365045093943 l -15.025849256652473 -19.25117732163697" fill="#e2ff1b" stroke="none" /><path d="M 112.63410532772338 116.77436683061366 l 14.685172996153927 19.49757995668828 a45.40921813771226,45.40921813771226 0 0,0 -0.6284095843981483,0.4648823873863699 l -14.347378441337215 -19.74747229281442" fill="#e2ff1b" stroke="none" /><path d="M 111.7513745106137 117.40417183066458 l 22.011624806407983 32.59993969699777 a60.3353237544318,60.3353237544318 0 0,0 -0.865740933663141,0.573765883421715 l -21.44720917400488 -32.97400360151081" fill="#39ff2e" stroke="none" /><line stroke="#e1ed5e" stroke-width="0.3" x1="143.8653032363475" x2="146.44561519142675" y1="172.8068346515853" y2="177.08958963109032" /><path d="M 144.38136562736335 173.6633856474863 a86.0,86.0 0 0,1 -40.68145358897372,12.25698825130547" fill="none" id="id66" stroke="none" /><text fill="#e1ed5e" style="font-size:6.75px; font-family:Arial;" text-anchor="middle"><textPath startOffset="21.466115282336833" xlink:href="#id66">June</textPath></text><path d="M 110.5260780823613 118.17145234162733 l 20.024886368664557 34.569501142543494 a60.950550475835044,60.950550475835044 0 0,0 -0.9123752713766877,0.5180704906195837 l -19.42686233036667 -34.909074798957704" fill="#32ff2f" stroke="none" /><path d="M 110.21172684928248 118.3499491758327 l 15.263282713706428 27.42733586460532 a52.38831871617839,52.38831871617839 0 0,0 -0.7917551088128448,0.4317280139249166 l -14.788904793024933 -27.686004530290006" fill="#8fff24" stroke="none" /><path d="M 109.2508944713604 118.85261126421891 l 20.744168475898093 42.27501951149816 a68.09031535734279,68.09031535734279 0 0,0 -1.0566557717536773,0.5072589833072672 l -20.01340003614418 -42.625832771304985" fill="#38ff83" stroke="none" /><path d="M 108.2653958097858 119.30500536409082 l 6.849528417850111 15.998046057459849 a38.402687068482926,38.402687068482926 0 0,0 -0.6099234366346111,0.2549480459795228 l -6.573133521718039 -16.113579146459344" fill="#ffc112" stroke="none" /><path d="M 107.59598834532513 119.57807347666477 l 12.761090328972221 32.89072504392853 a56.27952976301549,56.27952976301549 0 0,0 -0.9061802368801891,0.34263982682749905 l -12.193039871331758 -33.10551312086266" fill="#64ff29" stroke="none" /><path d="M 106.57524785965236 119.94407469862006 l 9.827903593173248 29.810046339978857 a52.38831871617839,52.38831871617839 0 0,0 -0.8588657095501433,0.274981678112779 l -9.313316538532165 -29.97480086475134" fill="#8fff24" stroke="none" /><path d="M 105.88484417918355 120.15858648285463 l 13.238977686926086 45.350236730228666 a68.2431423773092,68.2431423773092 0 0,0 -1.1304601058888395,0.31947931778497685 l -12.456386412932641 -45.57140484135216" fill="#38ff85" stroke="none" /><path d="M 105.18746579009965 120.34920634021253 l 9.681849754166215 37.9796159385717 a60.19425265907819,60.19425265907819 0 0,0 -1.0062378415860298,0.24730877981679156 l -9.026658627836975 -38.140645976702515" fill="#3aff2e" stroke="none" /><path d="M 104.13013068566511 120.58985236759428 l 6.237969354314867 31.09801549977758 a52.71748460533682,52.71748460533682 0 0,0 -0.8912578244386754,0.1708116832651723 l -5.701743915304487 -31.200784381391223" fill="#8bff24" stroke="none" /><path d="M 103.7750983002368 120.6578951692458 l 4.359784172451132 23.857382571834723 a45.25247247620825,45.25247247620825 0 0,0 -0.7674626007540152,0.13343321053170754 l -3.948472600225067 -23.928894360887437" fill="#e4ff1a" stroke="none" /><path d="M 103.06178313531738 120.77559828337769 l 1.2535085275025797 8.505628407115255 a29.597499533495053,29.597499533495053 0 0,0 -0.5046675407288429,0.06994232260391356 l -1.1069123955869062 -8.52594529521177" fill="#ff4606" stroke="none" /><path d="M 102.34483914955558 120.86867818915974 l 3.606738031309333 32.09936822415446 a53.301362194439264,53.301362194439264 0 0,0 -0.9126396381732773,0.09459883005500545 l -3.053665796530453 -32.15669642266522" fill="#85ff25" stroke="none" /><path d="M 101.26447882468166 120.96189622390904 l 2.718428911953244 45.06475207980144 a66.14666915469303,66.14666915469303 0 0,0 -1.1371303237881065,0.058776648974441494 l -1.9423105197516577 -45.10486853553808" fill="#36ff6c" stroke="none" /><line stroke="#e1ed5e" stroke-width="0.3" x1="102.19456741930631" x2="102.32365962044197" y1="184.97166512339345" y2="189.96999836594603" /><path d="M 102.22038585953345 185.97133177190398 a86.0,86.0 0 0,1 -42.740103519485714,-10.115201625700543" fill="none" id="id67" stroke="none" /><text fill="#e1ed5e" style="font-size:6.75px; font-family:Arial;" text-anchor="middle"><textPath startOffset="22.20632615414155" xlink:href="#id67">July</textPath></text><path d="M 100.54218724476979 120.99299961872073 l 0.10957058893183201 4.242474078573346 a25.243888785221124,25.243888785221124 0 0,0 -0.434483761468825,0.007480031977543099 l -0.03652713757033907 -4.243731587830048" fill="#ff0400" stroke="none" /><path d="M 99.45781275523022 120.99299961872073 l -0.16147244684690604 6.252067063160721 a27.25415189401008,27.25415189401008 0 0,0 -0.46887478150827727,-0.01614899551157263 l 0.26906758002982634 -6.248361269223055" fill="#ff2303" stroke="none" /><path d="M 99.09653310690486 120.98055641714683 l -1.4024894725990757 32.568995863826174 a53.599178951296885,53.599178951296885 0 0,0 -0.9214258630789883,-0.04762719221992956 l 1.962903404091553 -32.54002886484405" fill="#81ff25" stroke="none" /><path d="M 98.01472825383883 120.90594882070398 l -1.994903592662425 21.0073771971433 a42.10188467997761,42.10188467997761 0 0,0 -0.7208793024947762,-0.07472208720121415 l 2.3562154917627947 -20.969925741486325" fill="#fff216" stroke="none" /><path d="M 96.93821686468263 120.77559828337769 l -4.811781594633856 32.650137850831676 a54.00279902966972,54.00279902966972 0 0,0 -0.9184696703883235,-0.14344607323185957 l 5.373087128630696 -32.56247347025271" fill="#7dff26" stroke="none" /><path d="M 96.22490169976321 120.6578951692458 l -7.2212227422518 39.51559682402291 a61.16999440194066,61.16999440194066 0 0,0 -1.034158525197955,-0.1981989426722173 l 7.90034888202145 -39.38544068300222" fill="#30ff2f" stroke="none" /><path d="M 93.42475214034765 119.94407469862007 l -6.82431957368658 20.69956026753589 a42.795484232132864,42.795484232132864 0 0,0 -0.6976280736317517,-0.2366733196651611 l 7.179617380255558 -20.579023960972606" fill="#fffb17" stroke="none" /><path d="M 92.40401165467489 119.57807347666478 l -11.998514898894777 30.925245751066875 a54.17130061578653,54.17130061578653 0 0,0 -0.8664284838211147,-0.3447697747584504 l 12.52906445875775 -30.714129131902357" fill="#7bff26" stroke="none" /><path d="M 91.7346041902142 119.30500536409082 l -5.080465347533946 11.866148100264075 a33.90800522485539,33.90800522485539 0 0,0 -0.5345828330260398,-0.23434540405730642 l 5.283968855217729 -11.776938142912318" fill="#ff840c" stroke="none" /><line stroke="#e1ed5e" stroke-width="0.3" x1="58.666819895761336" x2="56.23545636021788" y1="174.27360380694188" y2="178.64263932499728" /><path d="M 58.180547188652646 175.14741091055294 a86.0,86.0 0 0,1 -31.652253787137756,-30.449443065178592" fill="none" id="id68" stroke="none" /><text fill="#e1ed5e" style="font-size:6.75px; font-family:Arial;" text-anchor="middle"><textPath startOffset="22.20632615414155" xlink:href="#id68">August</textPath></text><path d="M 87.95078237400918 117.19931262002967 l -2.26864351271221 3.238310586603833 a24.9539093114387,24.9539093114387 0 0,0 -0.34967874160445755,-0.2494864975883582 l 2.3240495821655545 -3.1987798271712555" fill="#ff0000" stroke="none" /><path d="M 82.6465618267979 111.8261652097733 l -3.484288015369558 2.374501542398968 a25.216458294457922,25.216458294457922 0 0,0 -0.2413538004631368,-0.3607911843787167 l 3.524644921243425 -2.3141734438144304" fill="#ff0400" stroke="none" /><path d="M 82.44556493220864 111.52570212397912 l -16.506213529875108 10.83747210351386 a40.74603470796791,40.74603470796791 0 0,0 -0.3798988301185817,-0.5896114207905917 l 16.690317223370737 -10.551739082801822" fill="#ffe115" stroke="none" /><path d="M 82.05923443525364 110.91462005526583 l -16.926387515461396 10.29750307882516 a40.81265161410711,40.81265161410711 0 0,0 -0.3599658853522887,-0.6033235290494781 l 17.101134276511917 -10.004617455889571" fill="#ffe115" stroke="none" /><line stroke="#e1ed5e" stroke-width="0.3" x1="26.63291911575756" x2="22.317208475507996" y1="142.92168965132927" y2="145.44649492493687" /><path d="M 25.769776987707644 143.4266507060508 a86.0,86.0 0 0,1 -11.730757126820373,-40.83630448921669" fill="none" id="id69" stroke="none" /><text fill="#e1ed5e" style="font-size:6.75px; font-family:Arial;" text-anchor="middle"><textPath startOffset="21.46611528233685" xlink:href="#id69">September</textPath></text><path d="M 81.51974371655577 109.97397251340807 l -17.81125652248358 9.6129068915381 a41.23978354170554,41.23978354170554 0 0,0 -0.33177895193903695,-0.627600742906066 l 17.9740879826475 -9.304891133545908" fill="#ffe715" stroke="none" /><path d="M 80.87730276802145 108.67885076344099 l -21.431408765677013 9.726661258672626 a44.53536107482739,44.53536107482739 0 0,0 -0.3108121052489278,-0.7007992453369121 l 21.59566195565722 -9.356313676843017" fill="#edff1a" stroke="none" /><path d="M 80.58989483394504 108.01547362559985 l -25.09296670842111 10.362231998163042 a48.14834857249487,48.14834857249487 0 0,0 -0.30974838190324244,-0.768770081603928 l 25.26761770458174 -9.928762548716309" fill="#c1ff1e" stroke="none" /><path d="M 80.32549172779594 107.34259656027581 l -23.878149244712667 8.911410342980757 a46.48684456055234,46.48684456055234 0 0,0 -0.27333321360235546,-0.7520956118896124 l 24.02800671932025 -8.499066934085027" fill="#d5ff1c" stroke="none" /><path d="M 80.0844068197444 106.66101706037122 l -11.728608336795425 3.9227784740682186 a33.36723269266654,33.36723269266654 0 0,0 -0.17749421209118063,-0.5462710144969218 l 11.794394799902854 -3.7203085595934935" fill="#ff7c0b" stroke="none" /><path d="M 79.97269907076064 106.31721596034903 l -28.753508742221978 9.069725620251058 a51.15002799029669,51.15002799029669 0 0,0 -0.2576335022350215,-0.8419611918787311 l 28.905369016963128 -8.573437455820278" fill="#9dff22" stroke="none" /><path d="M 79.67330655649465 105.27499134158121 l -30.35159562137148 7.876559193008555 a52.356969583877586,52.356969583877586 0 0,0 -0.21887378796486712,-0.8742919831706376 l 30.482680723631404 -7.3529393704405255" fill="#8fff24" stroke="none" /><path d="M 79.50377843672027 104.57218783832718 l -18.1019997497673 4.038097600075113 a39.54693039746221,39.54693039746221 0 0,0 -0.14249316685817204,-0.6656806371435109 l 18.168826955349914 -3.725903143515438" fill="#ffd113" stroke="none" /><path d="M 79.35854240842038 103.8639653848113 l -33.96461523466115 6.357985960676619 a55.55458107855943,55.55458107855943 0 0,0 -0.1678636101805041,-0.9414682722252714 l 34.06902528718084 -5.772398937718134" fill="#6bff28" stroke="none" /><path d="M 79.23777060512086 103.15116336523772 l -35.03892566659582 5.317992437994023 a56.4401940660571,56.4401940660571 0 0,0 -0.137515051914149,-0.9617799528020695 l 35.12527476952657 -4.714067013211553" fill="#62ff29" stroke="none" /><path d="M 79.1416061653843 102.43462659150553 l -36.941036739006826 4.311819552151335 a58.19182683336443,58.19182683336443 0 0,0 -0.10756537091050186,-0.9959217428645243 l 37.00978441141838 -3.6753014874020287" fill="#4fff2b" stroke="none" /><path d="M 79.07016306316243 101.71520430193888 l -31.26001396574882 2.5617643651275985 a52.36480686695279,52.36480686695279 0 0,0 -0.06588849534773032,-0.8989961703664466 l 31.299479019760884 -2.023295058264391" fill="#8fff24" stroke="none" /><path d="M 79.0095281055655 100.63252640178507 l -29.893502798716952 0.9008101321932631 a50.90707221496548,50.90707221496548 0 0,0 -0.0188548579322762,-0.8761111593712329 l 29.904579719334237 -0.38610915703190146" fill="#a0ff22" stroke="none" /><line stroke="#e1ed5e" stroke-width="0.3" x1="15.007084014347285" x2="10.007500721073583" y1="101.09737516637583" y2="101.16192664675087" /><path d="M 14.007167355692545 101.11028546245083 a86.0,86.0 0 0,1 10.666146001902534,-42.60595125391555" fill="none" id="id70" stroke="none" /><text fill="#e1ed5e" style="font-size:6.75px; font-family:Arial;" text-anchor="middle"><textPath startOffset="22.20632615414155" xlink:href="#id70">October</textPath></text><path d="M 79.00019446554 99.90962569577889 l -35.39284261751123 -0.15231586410247397 a56.3931703676059,56.3931703676059 0 0,0 0.012532691653098619,-0.9706707800432446 l 35.38497691874041 0.7615229022061906" fill="#62ff29" stroke="none" /><path d="M 79.03285615573316 98.82574320788736 l -39.19553032876755 -2.1951305361792266 a60.25695092367979,60.25695092367979 0 0,0 0.06691221349601391,-1.0351023267365997 l 39.151937524267126 2.8694919271688377" fill="#3aff2e" stroke="none" /><path d="M 79.16333360222342 97.38593545837743 l -38.00679493156672 -4.768143477208537 a59.30472103004292,59.30472103004292 0 0,0 0.13579086961349923,-1.0117997035255542 l 37.91908806289539 5.42166152279875" fill="#43ff2d" stroke="none" /><path d="M 79.21141760316559 97.0276538004421 l -43.144357793915354 -6.168769253868819 a64.58313118119052,64.58313118119052 0 0,0 0.1668216309436201,-1.0991461146978785 l 43.031780269532426 6.910514480958789" fill="#34ff59" stroke="none" /><path d="M 79.32604984820605 96.31383870115002 l -44.256681496805385 -7.890957719799777 a65.95465571935063,65.95465571935063 0 0,0 0.20890124666413867,-1.1159588128806566 l 44.11429452623139 8.651594610143007" fill="#35ff6a" stroke="none" /><path d="M 79.46518482838121 95.60439243477599 l -42.75947051690504 -9.15293614859763 a64.72812091808173,64.72812091808173 0 0,0 0.24259363976494552,-1.08749971923377 l 42.59558249013806 9.88761403738136" fill="#34ff5b" stroke="none" /><path d="M 79.62865764111835 94.90015583598534 l -16.421757602233384 -4.111089156287235 a37.92853144243329,37.92853144243329 0 0,0 0.1640023705593012,-0.6319680345423674 l 16.348558899803777 4.393153616378467" fill="#ffbb11" stroke="none" /><path d="M 79.81627453868168 94.20196356495316 l -37.2489354007162 -10.700238914464135 a59.75536480686695,59.75536480686695 0 0,0 0.292499958004027,-0.9861644488714356 l 37.059229545600466 11.33983275008211" fill="#3fff2d" stroke="none" /><path d="M 80.38941819471856 92.48833698450439 l -31.115651630958773 -11.918580074782467 a54.32020899421534,54.32020899421534 0 0,0 0.3419753333718974,-0.870289922398755 l 30.905882747705185 12.452419002076985" fill="#79ff26" stroke="none" /><path d="M 80.65960295795068 91.81776055985345 l -25.29156605162935 -10.699969023427313 a48.46183989550289,48.46183989550289 0 0,0 0.331638886242875,-0.7654682737259799 l 25.103636455543793 11.133736441739892" fill="#bdff1f" stroke="none" /><path d="M 80.95270993114464 91.15688171328213 l -36.48094518879108 -16.937071486260916 a61.220936741929464,61.220936741929464 0 0,0 0.4519906955794581,-0.9520076768889654 l 36.18399629936987 17.562521578790413" fill="#30ff2f" stroke="none" /><path d="M 81.26839172434947 90.50648371742162 l -32.15726742600948 -16.297882030177473 a57.05150214592275,57.05150214592275 0 0,0 0.45149626098561296,-0.8721470678506765 l 31.871961731863756 16.849001820288485" fill="#5bff2a" stroke="none" /><path d="M 81.6062741919709 89.86733742301443 l -28.43665204693435 -15.665069873171385 a53.46594513901847,53.46594513901847 0 0,0 0.45100398249786827,-0.8022857604869936 l 28.16279042314405 16.152239143593164" fill="#83ff25" stroke="none" /><line stroke="#e1ed5e" stroke-width="0.3" x1="26.266209847984243" x2="21.928928074336255" y1="57.711370442889674" y2="55.22380399835377" /><path d="M 25.398753493254645 57.213857153982495 a86.0,86.0 0 0,1 29.58750427330803,-30.492523968695096" fill="none" id="id71" stroke="none" /><text fill="#e1ed5e" style="font-size:6.75px; font-family:Arial;" text-anchor="middle"><textPath startOffset="21.46611528233685" xlink:href="#id71">November</textPath></text><path d="M 81.96595687620814 89.24020034530311 l -26.92823531938468 -16.066414785759385 a52.356969583877586,52.356969583877586 0 0,0 0.46843083021046006,-0.7699771192723042 l 26.647688690888 16.527559678238763" fill="#8fff24" stroke="none" /><path d="M 82.15384107792192 88.93136811851018 l -28.51256068125257 -17.684199695711108 a54.55140884493375,54.55140884493375 0 0,0 0.5018012749878622,-0.7937291091939551 l 28.203931810018744 18.17237645261928" fill="#77ff27" stroke="none" /><path d="M 88.39885842347998 82.49532879139004 l -11.215807894747199 -16.923250892294867 a41.30248180630714,41.30248180630714 0 0,0 0.5960006621074105,-0.3876554094716366 l 10.922840206855502 17.113805225926036" fill="#ffe815" stroke="none" /><path d="M 89.00827224532344 82.1063720568725 l -12.064441622132394 -19.63991781330023 a44.049449524164956,44.049449524164956 0 0,0 0.6494943111863045,-0.391313055248304 l 11.72458524472844 19.844677478007153" fill="#f3ff19" stroke="none" /><line stroke="#e1ed5e" stroke-width="0.3" x1="56.762969772571076" x2="54.21961505331055" y1="26.818313649435495" y2="22.513508569990535" /><path d="M 56.25429882871897 25.957352633546506 a86.0,86.0 0 0,1 42.265352541879196,-11.944610805530505" fill="none" id="id72" stroke="none" /><text fill="#e1ed5e" style="font-size:6.75px; font-family:Arial;" text-anchor="middle"><textPath startOffset="22.20632615414155" xlink:href="#id72">December</textPath></text><path d="M 89.63071344664047 81.73862282372117 l -13.933426473361061 -24.538193141702525 a49.21813771225975,49.21813771225975 0 0,0 0.7403249563827407,-0.41199003669417456 l 13.508977427906276 24.774398575956884" fill="#b4ff20" stroke="none" /><path d="M 90.26544431104013 81.39251694778311 l -14.551880131415855 -27.81573926689859 a52.39223735771599,52.39223735771599 0 0,0 0.8026977572193,-0.4111729681977618 l 14.07092188660779 28.062104760408857" fill="#8fff24" stroke="none" /><path d="M 90.58718382345135 81.22770947309562 l -14.051600935321723 -28.023572348429767 a52.34913230080239,52.34913230080239 0 0,0 0.8089903608896658,-0.3969680566819949 l 13.567139307421632 28.26129556524659" fill="#8fff24" stroke="none" /><path d="M 91.56875222667455 80.76684994638697 l -3.3463825366417668 -7.633683553654581 a29.334950550475835,29.334950550475835 0 0,0 0.464213358682917,-0.1987519338814299 l 3.2144854201685416 7.690155015498797" fill="#ff4206" stroke="none" /><path d="M 91.90106846888425 80.62456947434976 l -15.48000665669317 -37.03350156264889 a61.13864526963986,61.13864526963986 0 0,0 0.9744805125363105,-0.3975150688120605 l 14.840242274568478 37.29447751764452" fill="#31ff2f" stroke="none" /><path d="M 92.57280143429618 80.3572730644239 l -11.715265810019469 -30.983386972648784 a54.12427691733532,54.12427691733532 0 0,0 0.8742814921495187,-0.32200525192369384 l 11.18020199209738 31.1804554923788" fill="#7bff26" stroke="none" /><path d="M 92.91201910852362 80.23233633223022 l -6.705740459000795 -18.701633662174437 a40.867512595633514,40.867512595633514 0 0,0 0.6642294046695274,-0.23173659680295278 l 6.382829050267983 18.8142911121496" fill="#ffe215" stroke="none" /><path d="M 93.94186890950719 79.89281104454417 l -10.183176873140361 -33.79838740637171 a56.299122970703486,56.299122970703486 0 0,0 0.9303022097345784,-0.27158072558780627 l 9.599884445682362 33.96866646087821" fill="#63ff29" stroke="none" /><path d="M 96.04723909329186 79.375362276772 l -6.038673921108332 -31.508473416694855 a53.081918268333645,53.081918268333645 0 0,0 0.8988661484493763,-0.16426204322129642 l 5.495412651556062 31.607750941266886" fill="#87ff25" stroke="none" /><path d="M 96.40284397218896 79.31037775812273 l -5.51286479873335 -31.70812977655123 a53.18380294831125,53.18380294831125 0 0,0 0.9032909151489166,-0.14905074069479052 l 4.966244677445548 31.79832678018565" fill="#86ff25" stroke="none" /><path d="M 97.11714578562143 79.19881850522333 l -5.386994234518937 -38.8697576952218 a60.24127635752939,60.24127635752939 0 0,0 1.0283623957172425,-0.13351095316247927 l 4.717117110293836 38.95672697154842" fill="#3aff2e" stroke="none" /><path d="M 98.19473922651362 79.07773832637324 l -4.043393368941412 -46.861337351845876 a68.03545437581639,68.03545437581639 0 0,0 1.1676497727731208,-0.09063209514534791 l 3.236153406805957 46.92399470917968" fill="#38ff82" stroke="none" /></svg>