<?xml version="1.0" encoding="utf-8" ?>
<svg baseProfile="full" height="200mm" version="1.1" viewBox="0,0,200,200" width="200mm" xmlns="http://www.w3.org/2000/svg" xmlns:ev="http://www.w3.org/2001/xml-events" xmlns:xlink="http://www.w3.org/1999/xlink"><defs /><rect fill="#1a1a1a" height="200" width="200" x="0" y="0" /><text alignment-baseline="middle" fill="#e1ed5e" style="dominant-baseline: central; font-size:9.0px; font-family:Arial;" text-anchor="middle" x="100.0" y="100.0">2020</text><line stroke="#e1ed5e" stroke-width="0.3" x1="100.0" x2="100.0" y1="15.0" y2="10.0" /><path d="M 100.0 14.0 a86.0,86.0 0 0,1 42.35913384403234,11.155469271406648" fill="none" id="id49" stroke="none" /><text fill="#e1ed5e" style="font-size:6.75px; font-family:Arial;" text-anchor="middle"><textPath startOffset="22.145653131862478" xlink:href="#id49">January</textPath></text><path d="M 100.0 79.0 l 0.0 -8.24056798829573 a29.24056798829573,29.24056798829573 0 0,0 0.5019532323020248,0.0043086647993920745 l -0.14146030745317006 8.239353721690772" fill="#ff5207" stroke="none" /><path d="M 100.36049292484886 79.00309439819443 l 0.2036449641659455 -11.861298222893591 a32.863046269986846,32.863046269986846 0 0,0 0.563971634989545,0.01452590877221733 l -0.4072299132262318 11.85605459677133" fill="#ff850c" stroke="none" /><path d="M 101.44090949804482 79.04949213459386 l 1.0637718933651097 -15.467009863689965 a36.50354813468827,36.50354813468827 0 0,0 0.6247860476343646,0.04836239151002723 l -1.3291269357747078 15.446469705184883" fill="#ffb610" stroke="none" /><path d="M 102.51750503828377 79.15144685158666 l 1.0193955122419693 -8.442057192751136 a29.50338149538525,29.50338149538525 0 0,0 0.5022911054198593,0.06503163981486317 l -1.1641644395526203 8.423313956735877" fill="#ff5607" stroke="none" /><path d="M 103.23170211078529 79.25015418208739 l 3.611591405828871 -23.189007606284935 a44.468567622396506,44.468567622396506 0 0,0 0.7532604719186794,0.1239487240049919 l -4.009129380800621 23.123592883784276" fill="#e3ff1b" stroke="none" /><path d="M 103.94208987418118 79.37332000966035 l 5.394125051154561 -28.224341607927062 a49.73517085852207,49.73517085852207 0 0,0 0.837217032914566,0.16746685421342292 l -5.877838569600084 28.12758535705078" fill="#a5ff21" stroke="none" /><path d="M 104.64783097203109 79.52079915486377 l 3.5480223495965157 -15.633241126380033 a37.030804431118746,37.030804431118746 0 0,0 0.618710409334579,0.1460139719418571 l -3.8158649126709796 15.570031010791949" fill="#ffbd11" stroke="none" /><path d="M 105.3480935250658 79.69241777938227 l 8.18016543082023 -31.061420539124306 a53.12050672676133,53.12050672676133 0 0,0 0.8798238205400645,0.23979989469094057 l -8.712170652294988 30.916420150289227" fill="#7fff26" stroke="none" /><path d="M 106.04205211174951 79.88797359093562 l 15.157971216756696 -50.45595631762525 a73.68365609308196,73.68365609308196 0 0,0 1.2082693895199124,0.3743249454710263 l -16.02188123914824 50.18831478434758" fill="#40ffc5" stroke="none" /><path d="M 106.72888874123014 80.10723608172694 l 4.656409020681799 -13.765845879984967 a35.53205621236671,35.53205621236671 0 0,0 0.576117145127753,0.20040344913588887 l -4.89203193785457 13.683883998280487" fill="#ffa90f" stroke="none" /><path d="M 107.40779381753099 80.34994680014964 l 7.269089780433339 -19.282124262417916 a41.60679456653378,41.60679456653378 0 0,0 0.666159923904872,0.2576849693114784 l -7.599021966831738 19.154499404968398" fill="#fff817" stroke="none" /><path d="M 108.07796709384702 80.6158196554323 l 16.196027995651306 -38.864571232594514 a63.10423042794315,63.10423042794315 0 0,0 0.9963404484889922,0.42527849139469076 l -16.86080351931073 38.58081809154042" fill="#32ff4c" stroke="none" /><path d="M 108.73861861582097 80.90454125486305 l 11.14967553956749 -24.364053250019495 a47.79407313954739,47.79407313954739 0 0,0 0.7431097281006178,0.347812874560913 l -11.566273981539613 24.169064143888047" fill="#bbff1f" stroke="none" /><path d="M 109.3889696526874 81.21577127319529 l 28.166908958062173 -56.352686180414125 a84.0,84.0 0 0,0 1.2842911131456847,0.6557681933086643 l -29.130127292921436 55.86086003543262" fill="#4dd2ff" stroke="none" /><path d="M 110.34350942703115 81.72400993836675 l 10.647865237821636 -18.813757616489518 a42.61792103267166,42.61792103267166 0 0,0 0.6336017119300421,0.36581011894181753 l -10.969259417612076 18.62820060027153" fill="#faff18" stroke="none" /><line stroke="#e1ed5e" stroke-width="0.3" x1="143.13028292997686" x2="145.6673583964461" y1="26.7553504044142" y2="22.446841604673864" /><path d="M 143.63769802327073 25.89364864446614 a86.0,86.0 0 0,1 29.32050498858742,28.57503671076993" fill="none" id="id50" stroke="none" /><text fill="#e1ed5e" style="font-size:6.75px; font-family:Arial;" text-anchor="middle"><textPath startOffset="20.669276256404974" xlink:href="#id50">February</textPath></text><path d="M 110.96478420261332 82.08984904055464 l 13.738888221143274 -22.441441391703357 a47.31302607626736,47.31302607626736 0 0,0 0.6890485976014418,0.430017286717236 l -14.12210094753443 22.202288308144578" fill="#c1ff1e" stroke="none" /><path d="M 111.5731344415666 82.4767994020092 l 17.55763214337791 -26.584492872485356 a52.85915422244291,52.85915422244291 0 0,0 0.7528747255231313,0.5065677150634124 l -18.01140315699804 26.279175483364828" fill="#82ff25" stroke="none" /><path d="M 112.16784306229584 82.88440491214696 l 30.72364802579168 -43.21665857612953 a74.02473127228919,74.02473127228919 0 0,0 1.0293632015939254,0.7451795757274937 l -31.46099223775957 42.682878229028965" fill="#40ffc9" stroke="none" /><path d="M 113.03279911837588 83.53348406188908 l 22.84778387220811 -28.86742854432277 a57.815073796377405,57.815073796377405 0 0,0 0.772930353818418,0.6226179801671793 l -23.33996499638179 28.470962270362183" fill="#4dff2c" stroke="none" /><path d="M 113.59037401385872 83.9905735841838 l 17.24059180399472 -20.30937379425432 a47.64035791176076,47.64035791176076 0 0,0 0.6189174871319099,0.5346061844470106 l -17.58668877088949 20.01042347734259" fill="#bdff1f" stroke="none" /><path d="M 114.39649973595853 84.71141617570332 l 23.693133851621084 -25.161287090224256 a55.56088771642764,55.56088771642764 0 0,0 0.6887632277301964,0.6598195917109879 l -24.121569565216593 24.750855368207688" fill="#65ff29" stroke="none" /><path d="M 114.91283532996326 85.21462403516908 l 22.842734645340812 -22.647498770246585 a53.16674877300741,53.16674877300741 0 0,0 0.6370217014851213,0.6536403842726541 l -23.228143147976745 22.252035693906187" fill="#7eff26" stroke="none" /><path d="M 115.41159269507618 85.73525988315684 l 38.98921448798079 -36.08783485490062 a74.12711803687785,74.12711803687785 0 0,0 0.8563528221767664,0.9412817625064993 l -39.602965010999434 35.41321551683645" fill="#40ffca" stroke="none" /><path d="M 117.01052211995028 87.68569379921539 l 17.511734967737432 -12.677145650149862 a42.61876230072831,42.61876230072831 0 0,0 0.42392456971250764,0.5963029968289729 l -17.7267746359799 12.374665426611385" fill="#faff18" stroke="none" /><path d="M 117.62189284568427 88.57770195909679 l 14.666122811495384 -9.506403615342423 a38.4776104779704,38.4776104779704 0 0,0 0.35451128076178845,0.5573506161161546 l -14.827151783883062 9.253239324547597" fill="#ffd013" stroke="none" /><line stroke="#e1ed5e" stroke-width="0.3" x1="172.87174338648825" x2="177.1583165268699" y1="56.24261187166439" y2="53.66864786411523" /><path d="M 173.72905801456457 55.72781907015455 a86.0,86.0 0 0,1 12.242430191666344,42.057860355516425" fill="none" id="id51" stroke="none" /><text fill="#e1ed5e" style="font-size:6.75px; font-family:Arial;" text-anchor="middle"><textPath startOffset="22.145653131862474" xlink:href="#id51">March</textPath></text><path d="M 118.00360718960297 89.18935116829356 l 8.988270265559366 -5.39719804048746 a31.484214279333493,31.484214279333493 0 0,0 0.2742519289332317,0.465739732527156 l -9.079595904622366 5.242107139666747" fill="#ff720a" stroke="none" /><path d="M 120.86939407059847 97.66154086499901 l 5.433575646920734 -0.6088434845917066 a26.467580333158338,26.467580333158338 0 0,0 0.046718565702356545,0.45195974350399065 l -5.443226605104757 0.5154792188047845" fill="#ff2a04" stroke="none" /><line stroke="#e1ed5e" stroke-width="0.3" x1="184.99686870605535" x2="189.99668451229388" y1="99.2704041080226" y2="99.22748670261217" /><path d="M 185.99683186730306 99.26182062694052 a86.0,86.0 0 0,1 -10.086455211305974,41.156179273409016" fill="none" id="id52" stroke="none" /><text fill="#e1ed5e" style="font-size:6.75px; font-family:Arial;" text-anchor="middle"><textPath startOffset="21.40746469413373" xlink:href="#id52">April</textPath></text><path d="M 120.65975698304385 103.76489593502545 l 2.7539296992976765 0.5018577294370528 a23.799283831495032,23.799283831495032 0 0,0 -0.07669456085269181,0.4012983504179286 l -2.7449088461628257 -0.5490586448882959" fill="#ff0200" stroke="none" /><path d="M 120.51834098615036 104.47187691870673 l 8.469415452457199 1.8458696783695152 a29.668231248406144,29.668231248406144 0 0,0 -0.11272393382944355,0.4966824514141513 l -8.43648065707009 -1.9909864637226833" fill="#ff5808" stroke="none" /><path d="M 120.35273937422433 105.17358676015961 l 2.555527285257446 0.6496050426007302 a23.636798516585518,23.636798516585518 0 0,0 -0.1033384163772237,0.39239279890922457 l -2.543999388075492 -0.6933783458827579" fill="#ff0000" stroke="none" /><path d="M 120.05942366710727 106.21446072829308 l 5.433903843976665 1.683437301096871 a26.68869687470766,26.68869687470766 0 0,0 -0.13933442225682213,0.43646309319993354 l -5.404204705942588 -1.776469427988188" fill="#ff2d04" stroke="none" /><path d="M 119.83427380445688 106.89939002012753 l 12.367022001051728 4.301892220202226 a34.093872988872846,34.093872988872846 0 0,0 -0.1970298394510955,0.5511275276814783 l -12.29135199155669 -4.513554704264625" fill="#ff960d" stroke="none" /><path d="M 119.31412917781788 108.2440532568976 l 24.18786537475994 10.324361429103766 a47.29914961184632,47.29914961184632 0 0,0 -0.32516164825528565,0.7440334849590463 l -24.007069844487688 -10.738056983838657" fill="#c1ff1e" stroke="none" /><line stroke="#e1ed5e" stroke-width="0.3" x1="174.33088141563837" x2="178.70328620479359" y1="141.23008692659167" y2="143.65538615756765" /><path d="M 175.20536237346943 141.71514677278685 a86.0,86.0 0 0,1 -30.301960400862466,31.631185727798858" fill="none" id="id53" stroke="none" /><text fill="#e1ed5e" style="font-size:6.75px; font-family:Arial;" text-anchor="middle"><textPath startOffset="22.145653131862474" xlink:href="#id53">May</textPath></text><path d="M 118.18653347947321 110.5 l 18.632675433474127 10.757580177239207 a42.515160354478425,42.515160354478425 0 0,0 -0.3703400260420394,0.6289183282824345 l -18.44526169730232 -11.075849673815192" fill="#fbff18" stroke="none" /><path d="M 116.57777611688842 112.89097897827486 l 6.2745503617540255 4.879128312578506 a28.948325316240695,28.948325316240695 0 0,0 -0.30841486428341786,0.38967210590337736 l -6.189869066829046 -4.986120362396566" fill="#ff4e07" stroke="none" /><path d="M 114.91283532996324 114.78537596483092 l 1.8706502625220607 1.8546618948126272 a23.634217748923543,23.634217748923543 0 0,0 -0.28812146214915335,0.28565890034692165 l -1.8385368802429425 -1.8865008053882106" fill="#ff0000" stroke="none" /><path d="M 114.13192950727249 115.5334660781643 l 9.040595961218484 9.937198640688681 a34.43429537260905,34.43429537260905 0 0,0 -0.44065235444352263,0.39403405254065516 l -8.868678579951583 -10.090928223112723" fill="#ff9a0e" stroke="none" /><path d="M 113.31354834802062 116.24036423190432 l 7.262199152061678 8.858702148450387 a32.45496138270072,32.45496138270072 0 0,0 -0.43389073363539316,0.34951166150318885 l -7.109057648071032 -8.98206210374698" fill="#ff7f0b" stroke="none" /><path d="M 111.8722381534696 117.32195027204791 l 6.303509054640615 9.197008093371052 a32.14985131163052,32.14985131163052 0 0,0 -0.4579114221161007,0.30810324073717776 l -6.14470134442751 -9.30386100816535" fill="#ff7b0b" stroke="none" /><path d="M 110.96478420261333 117.91015095944535 l 7.822867435393268 12.778066044403252 a35.98253071903635,35.98253071903635 0 0,0 -0.5295724562580916,0.3179930441304381 l -7.602362222577739 -12.910473089069614" fill="#ffaf10" stroke="none" /><line stroke="#e1ed5e" stroke-width="0.3" x1="143.1302829299769" x2="145.66735839644613" y1="173.24464959558577" y2="177.55315839532614" /><path d="M 143.63769802327073 174.10635135553383 a86.0,86.0 0 0,1 -40.68552437913181,11.842963189579606" fill="none" id="id54" stroke="none" /><text fill="#e1ed5e" style="font-size:6.75px; font-family:Arial;" text-anchor="middle"><textPath startOffset="21.407464694133747" xlink:href="#id54">June</textPath></text><path d="M 110.34350942703117 118.27599006163325 l 6.692709677272986 11.825376716686133 a34.58793204707052,34.58793204707052 0 0,0 -0.5192403141667169,0.28801384944132186 l -6.488725174950175 -11.938523481560598" fill="#ff9c0e" stroke="none" /><path d="M 108.73861861582097 119.09545874513695 l 1.177597650144231 2.57326338810437 a23.829915315019797,23.829915315019797 0 0,0 -0.37343360672659265,0.16703210240508704 l -1.1332506405620113 -2.593099241419307" fill="#ff0300" stroke="none" /><path d="M 108.4095320186766 119.2426549942271 l 5.193147827409816 11.882938522016955 a33.96815377281461,33.96815377281461 0 0,0 -0.5363165882039291,0.2289216601486109 l -4.988396164035455 -11.97033483182497" fill="#ff940d" stroke="none" /><path d="M 107.407793817531 119.65005319985036 l 5.085233670836619 13.48918647399865 a35.4158854468714,35.4158854468714 0 0,0 -0.5707199923331432,0.20957628648033672 l -4.852924526849349 -13.574493609487709" fill="#ffa70f" stroke="none" /><path d="M 102.51750503828377 120.84855314841334 l 1.6564939179078442 13.718145927155197 a34.817796487819265,34.817796487819265 0 0,0 -0.5939984031883536,0.06655876003936026 l -1.420759613118691 -13.744560447701529" fill="#ff9f0e" stroke="none" /><line stroke="#e1ed5e" stroke-width="0.3" x1="101.45913802915013" x2="101.54496967792366" y1="184.9874750549273" y2="189.98673829345242" /><path d="M 101.47630435890484 185.9873277026323 a86.0,86.0 0 0,1 -42.54439059252881,-10.42667462771756" fill="none" id="id55" stroke="none" /><text fill="#e1ed5e" style="font-size:6.75px; font-family:Arial;" text-anchor="middle"><textPath startOffset="22.145653131862474" xlink:href="#id55">July</textPath></text><path d="M 100.0 121.0 l 1.1248802228107623e-15 9.185344081199148 a30.185344081199148,30.185344081199148 0 0,0 -0.5181715702571652,-0.004447879724917103 l 0.1576786454083119 -9.183990599668665" fill="#ff5f08" stroke="none" /><path d="M 98.19965949673042 120.92268563240118 l -1.1788341430391223 13.699839637421825 a34.75046384773506,34.75046384773506 0 0,0 -0.5939026975012074,-0.05624320293167115 l 1.413836403925345 -13.67758467898497" fill="#ff9e0e" stroke="none" /><path d="M 96.41257539226777 120.69131181640829 l -1.1688512052894982 6.741623141989353 a27.842199626488043,27.842199626488043 0 0,0 -0.4702219594787161,-0.08569010493463633 l 1.2844078983192713 -6.720564863123351" fill="#ff3e05" stroke="none" /><path d="M 95.70440661134978 120.55596938700252 l -1.53625159436765 7.351520008386598 a28.510320592019067,28.510320592019067 0 0,0 -0.4782098298450699,-0.10422360666616742 l 1.6622238408318564 -7.324064943586712" fill="#ff4806" stroke="none" /><path d="M 94.6519064749342 120.30758222061772 l -5.100388645423071 19.367006446051175 a41.02735386953924,41.02735386953924 0 0,0 -0.6795274641076026,-0.1852082320669355 l 5.432097510465368 -19.276597719840094" fill="#fff016" stroke="none" /><path d="M 92.59220618246901 119.65005319985036 l -6.67864816016637 17.715907715975376 a39.932979888233376,39.932979888233376 0 0,0 -0.6393607371291499,-0.24731846815452424 l 6.9817811597890485 -17.59864935968281" fill="#ffe215" stroke="none" /><path d="M 91.26138138417905 119.09545874513695 l -7.281482830314614 15.91135408266508 a38.498319375074544,38.498319375074544 0 0,0 -0.5985778939496061,-0.28016467833810965 l 7.55354943813571 -15.784013172756444" fill="#ffd013" stroke="none" /><path d="M 89.97174638481275 118.45085714620012 l -11.534102911302716 21.221450243711605 a45.153374100006175,45.153374100006175 0 0,0 -0.6778506480661265,-0.3759923279630699 l 11.896697747524945 -21.020325000315385" fill="#dbff1b" stroke="none" /><line stroke="#e1ed5e" stroke-width="0.3" x1="58.13341422392154" x2="55.67067388415222" y1="173.97424548756322" y2="178.32567169271397" /><path d="M 57.64086615596768 174.84453072859336 a86.0,86.0 0 0,1 -31.369924170532247,-30.572349798747897" fill="none" id="id56" stroke="none" /><text fill="#e1ed5e" style="font-size:6.75px; font-family:Arial;" text-anchor="middle"><textPath startOffset="22.145653131862474" xlink:href="#id56">August</textPath></text><path d="M 89.03521579738668 117.91015095944536 l -11.893779727858462 19.427595333209148 a43.77923301267509,43.77923301267509 0 0,0 -0.637583803302365,-0.39789944875487815 l 12.22552765995054 -19.22056008761272" fill="#ebff1a" stroke="none" /><path d="M 87.54013794807813 116.9041958592261 l -12.82165344174342 17.39503536356731 a42.60976752026565,42.60976752026565 0 0,0 -0.5850666241750336,-0.4390449020994888 l 13.11837305482922 -17.172371434203804" fill="#faff18" stroke="none" /><path d="M 86.68645165197938 116.24036423190432 l -13.225476951628703 16.132931448514935 a41.8610814130175,41.8610814130175 0 0,0 -0.5518200826124661,-0.46034793907665067 l 13.500471368403062 -15.903521325526416" fill="#fffb17" stroke="none" /><path d="M 86.13680546590413 115.77377054828092 l -15.495868324713381 17.63145361620971 a44.473178134999316,44.473178134999316 0 0,0 -0.5691189682470709,-0.5089096907682361 l 15.796252319783823 -17.362848395558093" fill="#e3ff1b" stroke="none" /><path d="M 85.60350026404147 115.28858382429668 l -4.477268757289497 4.754704265284218 a27.530937771508206,27.530937771508206 0 0,0 -0.34128859961206914,-0.326946758167905 l 4.558229842766881 -4.6771453768107305" fill="#ff3905" stroke="none" /><path d="M 84.58840730492382 114.26474011684316 l -13.067817640258236 12.09537691663352 a38.80634720077297,38.80634720077297 0 0,0 -0.448309954896943,-0.4927711727766089 l 13.273525295997059 -11.869268168299236" fill="#ffd413" stroke="none" /><path d="M 84.1078160697243 113.72728997021213 l -3.9106458721349155 3.377922763361684 a26.167544226466077,26.167544226466077 0 0,0 -0.2907157298906007,-0.3424623988168219 l 3.9680561655326287 -3.3102935820953077" fill="#ff2603" stroke="none" /><path d="M 83.4222238831116 112.89097897827486 l -17.038813395905194 13.249484354997362 a42.58402181276229,42.58402181276229 0 0,0 -0.44378233190593297,-0.5809253180690952 l 17.263747705165425 -12.955038123687396" fill="#faff18" stroke="none" /><path d="M 82.78059297857968 112.02048342749411 l -10.767037553442671 7.516228422579496 a34.13098577326305,34.13098577326305 0 0,0 -0.3312497711048162,-0.48330331556127076 l 10.894477061362814 -7.330290371948173" fill="#ff960d" stroke="none" /><path d="M 81.99639281039703 110.81064883170644 l -5.086573702701091 3.0543413593388307 a26.93314698725542,26.93314698725542 0 0,0 -0.23460860251943788,-0.39841669741755964 l 5.138256015350299 -2.9665734936277124" fill="#ff3104" stroke="none" /><line stroke="#e1ed5e" stroke-width="0.3" x1="26.387840678322732" x2="22.057713659400548" y1="142.50000000000003" y2="145.00000000000006" /><path d="M 25.521815274538298 143.00000000000003 a86.0,86.0 0 0,1 -11.493303480769221,-40.785679425670985" fill="none" id="id57" stroke="none" /><text fill="#e1ed5e" style="font-size:6.75px; font-family:Arial;" text-anchor="middle"><textPath startOffset="21.40746469413373" xlink:href="#id57">September</textPath></text><path d="M 80.41425534168474 107.57618678355246 l -16.579618699238907 6.413352683640975 a38.77680648645637,38.77680648645637 0 0,0 -0.23481999832107625,-0.6228879438407221 l 16.68726938137442 -6.127796459606108" fill="#ffd413" stroke="none" /><path d="M 79.94057633289273 106.21446072829308 l -20.53809086940814 6.3627530511427395 a42.501111667769464,42.501111667769464 0 0,0 -0.20992246219608196,-0.6987636030701119 l 20.644289651607853 -6.009251844481904" fill="#fbff18" stroke="none" /><path d="M 79.56144815229197 104.8234425847677 l -25.519130772758107 6.022445377380329 a47.220142709769135,47.220142709769135 0 0,0 -0.17941211923507233,-0.7905229011073438 l 25.61875375355085 -5.583488142333959" fill="#c2ff1e" stroke="none" /><path d="M 79.17382384314188 102.69636545807758 l -13.38638141276512 1.7331350785749304 a34.49810966500904,34.49810966500904 0 0,0 -0.0709969679860526,-0.587956742061749 l 13.414160467010834 -1.5030846595897822" fill="#ff9b0e" stroke="none" /><path d="M 79.03789590574601 101.26102812881392 l -11.895701518856297 0.715615863741664 a32.91720691647832,32.91720691647832 0 0,0 -0.02909004951899763,-0.5643391891993697 l 11.906233157831867 -0.5113048811655635" fill="#ff850c" stroke="none" /><line stroke="#e1ed5e" stroke-width="0.3" x1="15.003131293944662" x2="10.003315487706104" y1="100.72959589197737" y2="100.7725132973878" /><path d="M 14.003168132696942 100.73817937305945 a86.0,86.0 0 0,1 10.791469493833604,-42.45332614584628" fill="none" id="id58" stroke="none" /><text fill="#e1ed5e" style="font-size:6.75px; font-family:Arial;" text-anchor="middle"><textPath startOffset="22.145653131862435" xlink:href="#id58">October</textPath></text><path d="M 79.01933749520258 99.09900007780938 l -26.364207138162076 -1.1321924927141784 a47.38850654858047,47.38850654858047 0 0,0 0.04187882664612197,-0.8124380489162556 l 26.340886722059384 1.5846023350071459" fill="#c0ff1e" stroke="none" /><path d="M 79.0935383218832 98.0201363427161 l -15.144333501899363 -1.434184128134039 a36.21209128720121,36.21209128720121 0 0,0 0.06391883748819709,-0.618356770203271 l 15.117482271929502 1.6939454206202227" fill="#ffb210" stroke="none" /><path d="M 79.2786578344484 96.59031103205396 l -6.114612665997066 -1.0061571873068054 a27.196841158262885,27.196841158262885 0 0,0 0.07975821077934919,-0.4600241648555693 l 6.096439637725482 1.1109743850829674" fill="#ff3505" stroke="none" /><path d="M 79.64726062577567 94.8264132398404 l -13.941718761832718 -3.543930390590742 a35.38509522552392,35.38509522552392 0 0,0 0.15470114116331313,-0.5874254309639589 l 13.87882813986468 3.7827363259274853" fill="#ffa70f" stroke="none" /><path d="M 79.83685265289637 94.1308016681162 l -7.410221613020442 -2.1570075138232987 a28.717775960000747,28.717775960000747 0 0,0 0.14184349542297972,-0.47215086416640806 l 7.3721017975938326 2.28389598158043" fill="#ff4b06" stroke="none" /><path d="M 80.16572619554312 93.10060997987247 l -13.59985711880027 -4.730736270239773 a35.399165924120204,35.399165924120204 0 0,0 0.20457317891130794,-0.5722275906909745 l 13.516643769845018 4.9634988173116685" fill="#ffa70f" stroke="none" /><path d="M 80.5471966667186 92.08871423366112 l -13.29284082431594 -5.406082640423192 a35.350099187660184,35.350099187660184 0 0,0 0.23343548335240438,-0.5601601808419094 l 13.198079496427058 5.633475330706366" fill="#ffa60f" stroke="none" /><path d="M 80.9802524753101 91.09779779509293 l -14.597583121268896 -6.832405975935421 a37.11741928480961,37.11741928480961 0 0,0 0.27505906341501923,-0.5747676527156341 l 14.478144799893972 7.081986130716142" fill="#ffbe11" stroke="none" /><path d="M 81.29705330413844 90.45014215332179 l -13.169125081015379 -6.724249100097662 a35.78652702156908,35.78652702156908 0 0,0 0.2840631092336115,-0.5447284670803507 l 13.051753902806826 6.9493238102824995" fill="#ffac10" stroke="none" /><line stroke="#e1ed5e" stroke-width="0.3" x1="26.387840678322718" x2="22.05771365940052" y1="57.49999999999999" y2="54.99999999999999" /><path d="M 25.521815274538284 56.99999999999999 a86.0,86.0 0 0,1 29.574782752854787,-30.34633250058573" fill="none" id="id59" stroke="none" /><text fill="#e1ed5e" style="font-size:6.75px; font-family:Arial;" text-anchor="middle"><textPath startOffset="21.40746469413373" xlink:href="#id59">November</textPath></text><path d="M 81.81346652052679 89.5 l -14.306649206408952 -8.259947770521757 a37.51989554104351,37.51989554104351 0 0,0 0.3268273946495869,-0.5550243674082074 l 14.162748101629587 8.504323306223537" fill="#ffc312" stroke="none" /><path d="M 82.18462484594161 88.88188828441811 l -12.493421355560026 -7.796818935317811 a35.7267091598121,35.7267091598121 0 0,0 0.32916600756432896,-0.5175036369117655 l 12.357737656369807 8.010136246908248" fill="#ffac0f" stroke="none" /><path d="M 82.78059297857968 87.97951657250589 l -11.937321262268547 -8.333177340153059 a35.558210175054114,35.558210175054114 0 0,0 0.35369396327936736,-0.49751485366095966 l 11.792512200459207 8.536869420523539" fill="#ffa90f" stroke="none" /><path d="M 83.8745106332314 86.54754324733833 l -11.040041455684603 -9.209995235012848 a35.377292080645574,35.377292080645574 0 0,0 0.3930340271814913,-0.4629930957497924 l 10.880312864995998 9.398155113212196" fill="#ffa70f" stroke="none" /><path d="M 85.08716467003674 85.21462403516908 l -10.482911570905427 -10.393314574492454 a35.761857025719365,35.761857025719365 0 0,0 0.43596782617812974,-0.4322416278319873 l 10.302951824597322 10.571736212553114" fill="#ffac0f" stroke="none" /><path d="M 85.60350026404147 84.71141617570332 l -10.154595637510555 -10.783828670391795 a35.81238580896786,35.81238580896786 0 0,0 0.45118529063197915,-0.4176103692036826 l 9.967980575564622 10.956556785727843" fill="#ffad10" stroke="none" /><path d="M 86.40962598614128 83.9905735841838 l -9.60167622679611 -11.310750452094366 a35.836618959647595,35.836618959647595 0 0,0 0.4724045668995429,-0.39409669135824116 l 9.406097325734658 11.473909327364488" fill="#ffad10" stroke="none" /><path d="M 86.96720088162412 83.53348406188908 l -16.088012857270872 -20.326678691246276 a46.922924686710765,46.922924686710765 0 0,0 0.6358951302127268,-0.49447589943072706 l 15.7367077824229 20.599855642297808" fill="#c6ff1e" stroke="none" /><path d="M 87.83215693770416 82.88440491214696 l -9.781448361411066 -13.75883208466261 a37.88141559173556,37.88141559173556 0 0,0 0.5332348762954139,-0.3722393567616732 l 9.543818393941887 13.924716257229408" fill="#ffc812" stroke="none" /><path d="M 88.4268655584334 82.4767994020092 l -9.894203117804008 -14.981084585679131 a38.95349967832554,38.95349967832554 0 0,0 0.5611425393602283,-0.36372581448147506 l 9.635574946186752 15.148724241864512" fill="#ffd614" stroke="none" /><path d="M 88.72937992617638 82.28071324371311 l -9.370621988698515 -14.73217418517649 a38.45982567717847,38.45982567717847 0 0,0 0.5601140139322,-0.3495525705470524 l 9.116343845976616 14.890862552565078" fill="#ffd013" stroke="none" /><line stroke="#e1ed5e" stroke-width="0.3" x1="56.869717070023135" x2="54.33264160355391" y1="26.7553504044142" y2="22.446841604673864" /><path d="M 56.362301976729285 25.89364864446614 a86.0,86.0 0 0,1 42.16139366436587,-11.88097634709845" fill="none" id="id60" stroke="none" /><text fill="#e1ed5e" style="font-size:6.75px; font-family:Arial;" text-anchor="middle"><textPath startOffset="22.145653131862474" xlink:href="#id60">December</textPath></text><path d="M 89.34428304082924 81.90426304109057 l -13.184697324639473 -22.39049850739279 a46.98404639296801,46.98404639296801 0 0,0 0.6985130082990967,-0.40328667337393664 l 12.798391848479977 22.613532078042898" fill="#c5ff1e" stroke="none" /><path d="M 89.97174638481275 81.54914285379989 l -8.741637490452835 -16.083628391283032 a39.30571845744865,39.30571845744865 0 0,0 0.5955961531764156,-0.31712140447969794 l 8.464252521489856 16.231320263485305" fill="#ffda14" stroke="none" /><path d="M 90.93487009805054 81.0573650232925 l -8.499507616350643 -17.760701942467666 a40.689696879575806,40.689696879575806 0 0,0 0.6326497743013425,-0.2961120387328141 l 8.193369128177778 17.90399021277102" fill="#ffec16" stroke="none" /><path d="M 91.5904679813234 80.7573450057729 l -1.3349498643451754 -3.0546265377353286 a24.333591820447147,24.333591820447147 0 0,0 0.38419835917999856,-0.163991433687326 l 1.2823164299947458 3.0770926210820586" fill="#ff0a01" stroke="none" /><path d="M 91.92203290615298 80.6158196554323 l -9.086814629250714 -21.805047171486713 a44.62266458842282,44.62266458842282 0 0,0 0.7095971318618616,-0.2885869760236101 l 8.71116303619841 21.957821404089618" fill="#e1ff1b" stroke="none" /><path d="M 92.93061703081487 80.22567764915836 l -10.093809465694873 -28.23418153927434 a50.984229133370285,50.984229133370285 0 0,0 0.8266588446022626,-0.2875548577542262 l 9.607644849047606 28.40329482959715" fill="#97ff23" stroke="none" /><path d="M 93.61358852112211 79.99465700312896 l -8.006045357650681 -25.07882305392105 a47.32573129162117,47.32573129162117 0 0,0 0.776050422689077,-0.24042240470172002 l 7.574354302089987 25.212562046429408" fill="#c1ff1e" stroke="none" /><path d="M 94.30408787586887 79.78721728523814 l -4.8284483532915115 -17.13445981742892 a38.801787178131576,38.801787178131576 0 0,0 0.6426658694061197,-0.17516144051481564 l 4.533601082950715 17.214821752087875" fill="#ffd413" stroke="none" /><path d="M 95.00130118170881 79.60360301121753 l -7.582744712749498 -30.940186045996068 a52.855817835045144,52.855817835045144 0 0,0 0.8831146174332455,-0.2084126451178095 l 7.050497941576347 31.065794834760112" fill="#82ff25" stroke="none" /><path d="M 98.1996594967304 79.07731436759882 l -2.2451020616988435 -26.091489117904164 a47.187903460513134,47.187903460513134 0 0,0 0.807656932155345,-0.06251775452825288 l 1.7968761347682813 26.12618463942747" fill="#c2ff1e" stroke="none" /><path d="M 99.27912038922189 79.0123766808444 l -1.2663759955397278 -36.86915537272598 a57.8908976044266,57.8908976044266 0 0,0 0.9934813682442482,-0.025588555924946885 l 0.6332813132247357 36.88546164600097" fill="#4cff2c" stroke="none" /></svg>