<?xml version="1.0" encoding="utf-8" ?>
<svg baseProfile="full" height="200mm" version="1.1" viewBox="0,0,200,200" width="200mm" xmlns="http://www.w3.org/2000/svg" xmlns:ev="http://www.w3.org/2001/xml-events" xmlns:xlink="http://www.w3.org/1999/xlink"><defs /><rect fill="#1a1a1a" height="200" width="200" x="0" y="0" /><text alignment-baseline="middle" fill="#e1ed5e" style="dominant-baseline: central; font-size:9.0px; font-family:Arial;" text-anchor="middle" x="100.0" y="100.0">2022</text><line stroke="#e1ed5e" stroke-width="0.3" x1="100.0" x2="100.0" y1="15.0" y2="10.0" /><path d="M 100.0 14.0 a86.0,86.0 0 0,1 42.46469731375804,11.215312516191453" fill="none" id="id73" stroke="none" /><text fill="#e1ed5e" style="font-size:6.75px; font-family:Arial;" text-anchor="middle"><textPath startOffset="22.20632615414155" xlink:href="#id73">January</textPath></text><path d="M 100.36148047927253 79.00311137660856 l 0.03672530997337811 -2.1332195993609497 a23.133535705698485,23.133535705698485 0 0,0 0.3980877922765681,0.01028143320111566 l -0.073439737444814 2.1322713740174746" fill="#ff0000" stroke="none" /><path d="M 102.52436894288641 79.15227682838746 l 1.3398760378508638 -11.065484227298555 a32.14630920894446,32.14630920894446 0 0,0 0.548760875439961,0.0712449111746871 l -1.530151641798671 11.040780992959732" fill="#ff810b" stroke="none" /><path d="M 102.88285421437855 79.19881850522331 l 1.7279622985498801 -12.468080143974849 a33.58725054099543,33.58725054099543 0 0,0 0.5719925074083037,0.08429682692275899 l -1.9423237863868394 12.436488832891122" fill="#ff940d" stroke="none" /><path d="M 103.59715602781102 79.31037775812273 l 2.521317495929942 -14.501763654208341 a35.71931353690791,35.71931353690791 0 0,0 0.6048553411704596,0.11053344746085761 l -2.7705679582033023 14.456214725396745" fill="#ffb110" stroke="none" /><path d="M 104.307194497241 79.44645832069477 l 3.458364420347242 -16.503001501642196 a37.86147511421015,37.86147511421015 0 0,0 0.636716924326831,0.13916165814267295 l -3.741924068827601 16.44102634540365" fill="#ffcd13" stroke="none" /><path d="M 105.01212808612495 79.60689891045804 l 4.536102456401616 -18.45627133951333 a40.00553017552296,40.00553017552296 0 0,0 0.6673134106632717,0.17011304673095937 l -4.853124755749913 18.375455296613502" fill="#ffe815" stroke="none" /><path d="M 105.71112130821622 79.79150937346287 l 5.82618367247468 -20.615632514109915 a42.42308848280837,42.42308848280837 0 0,0 0.7010107951390055,0.20464427408277103 l -6.180184685337112 20.512289911108443" fill="#f8ff18" stroke="none" /><path d="M 106.40334571778207 80.00007090966166 l 7.058396642726697 -22.045886411223226 a44.14826280355855,44.14826280355855 0 0,0 0.7217550946960848,0.23795130700758493 l -7.4368345596652 21.921121379956404" fill="#e3ff1b" stroke="none" /><path d="M 107.08798089147638 80.2323363322302 l 7.073352735032082 -19.72686721514135 a41.956660254868964,41.956660254868964 0 0,0 0.6777352719050871,0.24961562028588494 l -7.411870332709746 19.60218832704914" fill="#feff18" stroke="none" /><path d="M 107.76421540070413 80.48803036053334 l 12.155194395752508 -30.546780553026537 a53.87635248857898,53.87635248857898 0 0,0 0.8587278202699622,0.3502966392596041 l -12.679206085610858 30.33302302758335" fill="#74ff27" stroke="none" /><path d="M 108.43124777332544 80.76684994638697 l 9.275673356297444 -21.1594324240343 a44.10323996152921,44.10323996152921 0 0,0 0.6926684368029907,0.31078013679320016 l -9.638523911567216 20.996631956724567" fill="#e3ff1b" stroke="none" /><path d="M 109.41281617654863 81.2277094730956 l 12.236114079787475 -24.402886885053295 a48.298779754748736,48.298779754748736 0 0,0 0.7399821832548068,0.3790476153270411 l -12.654356750631036 24.188646744413756" fill="#b2ff20" stroke="none" /><line stroke="#e1ed5e" stroke-width="0.3" x1="143.23703022742887" x2="145.7803849466894" y1="26.81831364943548" y2="22.513508569990506" /><path d="M 143.74570117128098 25.957352633546492 a86.0,86.0 0 0,1 28.547481713284135,27.462654790039103" fill="none" id="id74" stroke="none" /><text fill="#e1ed5e" style="font-size:6.75px; font-family:Arial;" text-anchor="middle"><textPath startOffset="19.985693538727396" xlink:href="#id74">February</textPath></text><path d="M 111.2981086023043 82.29822771554956 l 9.013607861738576 -14.122437608476014 a37.7537569127194,37.7537569127194 0 0,0 0.5447920592894597,0.35434790973888813 l -9.255366946812316 13.965190774577598" fill="#ffcb12" stroke="none" /><path d="M 111.60114157652 82.49532879139004 l 11.61427503205967 -17.524487949879628 a42.02377374368838,42.02377374368838 0 0,0 0.5995297779490792,0.40480518231448 l -11.91420950441529 17.32197085526648" fill="#fdff18" stroke="none" /><path d="M 112.19680574252982 82.90503203632743 l 14.639197274765994 -20.518208923617745 a46.20521760038471,46.20521760038471 0 0,0 0.6434729664821364,0.4675104757710374 l -14.99021555760192 20.263179213030032" fill="#caff1d" stroke="none" /><path d="M 113.06298171725822 83.55741782278167 l 16.940154679062857 -21.32284124973445 a48.23292858860303,48.23292858860303 0 0,0 0.645624395406567,0.522050027584958 l -17.304682473033917 21.02808512488536" fill="#b3ff20" stroke="none" /><path d="M 113.34407831869373 83.78471172551755 l 16.270481644775774 -19.77135804614652 a46.60537388795384,46.60537388795384 0 0,0 0.6150632433451793,0.5150977780296381 l -16.608402425080072 19.488359110723064" fill="#c6ff1e" stroke="none" /><path d="M 114.16331599549186 84.49514656593476 l 21.216311355673774 -23.22590261249001 a52.45750180331811,52.45750180331811 0 0,0 0.661444424444583,0.6147405057037078 l -21.612963663913202 22.85725752071166" fill="#83ff25" stroke="none" /><path d="M 114.68862486808459 84.99185889309783 l 17.59983214713121 -17.98267480408345 a46.162088242365954,46.162088242365954 0 0,0 0.5630987808195773,0.5606806557025348 l -17.90676672811811 17.6770582977308" fill="#cbff1d" stroke="none" /><path d="M 115.19652480421416 85.50635884689758 l 16.257675099611415 -15.505710148425045 a43.46639817263765,43.46639817263765 0 0,0 0.5117292392628278,0.5458770731562086 l -16.522171660844705 15.22356365839078" fill="#ebff1a" stroke="none" /><path d="M 115.4437574822437 85.77008943001954 l 20.04148427296216 -18.46626568837371 a48.25186342870883,48.25186342870883 0 0,0 0.5575534053858445,0.6156643959415673 l -20.35638131896404 18.118548505162593" fill="#b3ff20" stroke="none" /><path d="M 117.04232023915458 87.72973835380427 l 22.111683169153167 -15.920140809227695 a48.24660375090166,48.24660375090166 0 0,0 0.4794503495302774,0.6781485179170894 l -22.382446138487328 15.537165790978813" fill="#b3ff20" stroke="none" /><line stroke="#e1ed5e" stroke-width="0.3" x1="172.23445277983987" x2="176.4835382374775" y1="55.19839476539836" y2="52.563006222186495" /><path d="M 173.08426987136738 54.67131705675599 a86.0,86.0 0 0,1 12.851231095245387,41.99856678651699" fill="none" id="id75" stroke="none" /><text fill="#e1ed5e" style="font-size:6.75px; font-family:Arial;" text-anchor="middle"><textPath startOffset="22.20632615414155" xlink:href="#id75">March</textPath></text><path d="M 117.84615892207809 88.93136811851018 l 14.465944521773446 -8.97213879068828 a38.02242125510941,38.02242125510941 0 0,0 0.3401815364162449,0.559169001155897 l -14.618241856475915 8.721802016325302" fill="#ffcf13" stroke="none" /><path d="M 118.03404312379186 89.2402003453031 l 21.72338311525445 -12.961000954577788 a46.296104832892524,46.296104832892524 0 0,0 0.4024240974739074,0.6878732302707045 l -21.943266887198686 12.585148311953187" fill="#c9ff1d" stroke="none" /><path d="M 118.56541770881063 90.18545643968196 l 9.438759842800884 -4.989767592925581 a31.67651478720846,31.67651478720846 0 0,0 0.2506827594284824,0.4842393004960697 l -9.523252035389483 4.826555570169166" fill="#ff7a0b" stroke="none" /><path d="M 118.73160827565052 90.50648371742162 l 32.0189722649652 -16.227791552955512 a56.89645948545323,56.89645948545323 0 0,0 0.43523078641619745,0.8773987072724763 l -32.293563064334805 15.674233257184087" fill="#54ff2b" stroke="none" /><path d="M 119.34039704204932 91.81776055985345 l 23.195843266529344 -9.813342673897008 a46.186282760278914,46.186282760278914 0 0,0 0.30346216115525654,0.7348576936401616 l -23.3613271145708 9.412610409803543" fill="#cbff1d" stroke="none" /><path d="M 119.7369772167798 92.82701384747503 l 9.93927723790428 -3.612219703682977 a31.575318586198605,31.575318586198605 0 0,0 0.18125273228642866,0.512425881929158 l -9.999983051000518 3.4405961953272044" fill="#ff790b" stroke="none" /><path d="M 119.85752413597 93.16781622104841 l 19.88060132599737 -6.840123721629695 a42.02440490502525,42.02440490502525 0 0,0 0.22945866638290932,0.6860522064345759 l -19.995397286152052 6.496898412272805" fill="#fdff18" stroke="none" /><path d="M 120.83666639777658 97.38593545837742 l 9.124495955025392 -1.14471388469106 a30.19602067804761,30.19602067804761 0 0,0 0.06026212225301453,0.5162890620059629 l -9.142848430281994 0.9874810843602445" fill="#ff6609" stroke="none" /><path d="M 120.87857604477298 97.74499172005257 l 21.35883182138996 -2.3068787116493548 a42.48304880981006,42.48304880981006 0 0,0 0.07226745777469473,0.7277234374841195 l -21.395376404846882 1.9388797434608003" fill="#f7ff18" stroke="none" /><path d="M 120.94382443527127 98.46500227214037 l 26.39296205433028 -1.934371485498836 a47.46375330608319,47.46375330608319 0 0,0 0.052706032181432355,0.8153389896047402 l -26.422348677516126 1.4797734316410607" fill="#bcff1f" stroke="none" /><path d="M 120.98425023603335 99.18683210126433 l 27.444807601621445 -1.0635231794125721 a48.46540634767973,48.46540634767973 0 0,0 0.025128864411659818,0.8339046728854587 l -27.459048160488752 0.5909483591021143" fill="#b0ff20" stroke="none" /><line stroke="#e1ed5e" stroke-width="0.3" x1="184.98032266829074" x2="189.97916517819016" y1="98.17113171792111" y2="98.06355123074" /><path d="M 185.9800911702706 98.14961562048488 a86.0,86.0 0 0,1 -9.607161424134198,41.387399972396054" fill="none" id="id76" stroke="none" /><text fill="#e1ed5e" style="font-size:6.75px; font-family:Arial;" text-anchor="middle"><textPath startOffset="21.466115282336823" xlink:href="#id76">April</textPath></text><path d="M 120.99513854157772 99.54816195383933 l 20.984411282765286 -0.4516071839706958 a41.98927025727338,41.98927025727338 0 0,0 0.009331601210619666,0.7227427975478359 l -20.989075891093623 0.09032812836239722" fill="#fdff18" stroke="none" /><path d="M 120.99824983174949 100.27111621757518 l 31.44541346177386 0.4060034348650113 a52.44803438326521,52.44803438326521 0 0,0 -0.01942559636798145,0.90263113180487 l -31.43376580272087 -0.9472243824599961" fill="#84ff25" stroke="none" /><path d="M 120.9764740272857 100.99374915477107 l 31.20181161590517 1.4781690135481709 a52.23680572252945,52.23680572252945 0 0,0 -0.05028078388721485,0.8977971730263091 l -31.17174448113043 -2.0150379029099033" fill="#86ff25" stroke="none" /><path d="M 120.92983693683757 101.71520430193887 l 20.892093782948113 1.7121112429668726 a41.962130319788415,41.962130319788415 0 0,0 -0.0651919734646226,0.7193879948225786 l -20.859527213206416 -2.0714806263380217" fill="#feff18" stroke="none" /><path d="M 120.81339534386255 102.79330883721812 l 26.875836798413523 3.606932516120088 a48.116794902620825,48.116794902620825 0 0,0 -0.11723530824915017,0.8199434728425153 l -26.80976743914777 -4.069021460943013" fill="#b4ff20" stroke="none" /><path d="M 120.70491114924044 103.5080841355445 l 18.610689952611324 3.1532550757499043 a39.87593171435441,39.87593171435441 0 0,0 -0.12048903487216005,0.6757664949610155 l -18.553654475399973 -3.473140321444138" fill="#ffe615" stroke="none" /><path d="M 120.5718875245553 104.21870165774334 l 19.27779758139305 3.9533210803913055 a40.6789793219524,40.6789793219524 0 0,0 -0.1465720987668586,0.684736049074552 l -19.20689144390175 -4.284570948882027" fill="#fff016" stroke="none" /><path d="M 120.49622156327973 104.57218783832717 l 24.54224173722844 5.47475244887456 a46.145467660495314,46.145467660495314 0 0,0 -0.179614495782803,0.7737745468842187 l -24.444366675515084 -5.896395653107343" fill="#cbff1d" stroke="none" /><path d="M 120.32669344350535 105.2749913415812 l 10.780380875934581 2.7976225418833245 a32.13747295022842,32.13747295022842 0 0,0 -0.1435656266178585,0.5342611043690622 l -10.730627172974947 -2.982774579427935" fill="#ff810b" stroke="none" /><path d="M 120.13307415673323 105.97154293290107 l 30.10057561545012 8.927940074793883 a52.396699927867274,52.396699927867274 0 0,0 -0.26391276482848597,0.862482185349871 l -29.942436078115502 -9.444749232695811" fill="#84ff25" stroke="none" /><path d="M 119.9155931802556 106.66101706037122 l 21.835404007982817 7.303121594262503 a44.02434479442174,44.02434479442174 0 0,0 -0.24655555283526875,0.7166058466353245 l -21.70645762420432 -7.677900143987128" fill="#e4ff1a" stroke="none" /><path d="M 119.79798401119884 107.00284435728193 l 25.66046110323822 9.076490573000662 a48.218411877855246,48.218411877855246 0 0,0 -0.28351447808440616,0.7801100790650978 l -25.500422364148587 -9.51684844907189" fill="#b3ff20" stroke="none" /><path d="M 119.54520255179757 107.68017299344265 l 33.28535305932777 13.079284748570787 a56.76286366915123,56.76286366915123 0 0,0 -0.36516735661744604,0.9063154319675524 l -33.05528308845293 -13.650299548381154" fill="#56ff2b" stroke="none" /><path d="M 119.12269723197855 108.67885076344098 l 19.093193992280252 8.665460695540348 a41.967600384707865,41.967600384707865 0 0,0 -0.30421590708928553,0.6552539995527112 l -18.941203468351137 -8.99283476237189" fill="#fdff18" stroke="none" /><path d="M 118.81262510543309 109.33194174019688 l 22.53195210541923 11.176901849809015 a46.15177927386391,46.15177927386391 0 0,0 -0.35915167431739703,0.7086403261563954 l -22.336221761315564 -11.563096387668105" fill="#cbff1d" stroke="none" /><line stroke="#e1ed5e" stroke-width="0.3" x1="174.80103733775053" x2="179.2010983576182" y1="140.37084112569926" y2="142.7455964860345" /><path d="M 175.68104954172406 140.8457921977663 a86.0,86.0 0 0,1 -30.038265399797805,32.042727171017184" fill="none" id="id77" stroke="none" /><text fill="#e1ed5e" style="font-size:6.75px; font-family:Arial;" text-anchor="middle"><textPath startOffset="22.206326154141568" xlink:href="#id77">May</textPath></text><path d="M 117.94076556474637 110.91462005526583 l 21.511627846092203 13.087024846461286 a46.17976075979803,46.17976075979803 0 0,0 -0.41899415982930405,0.6755519962897113 l -21.28316904659494 -13.455373174116271" fill="#cbff1d" stroke="none" /><path d="M 117.55443506779139 111.5257021239791 l 26.484657716187535 17.389011637999 a52.683036787689346,52.683036787689346 0 0,0 -0.5042441329456333,0.7537765620113398 l -26.18141047783118 -17.84232511421615" fill="#81ff25" stroke="none" /><path d="M 117.14729908036423 112.12312394758627 l 28.169801994660652 19.916022900148768 a55.49906828564559,55.49906828564559 0 0,0 -0.5582154631549838,0.775312455418158 l -27.822806739130066 -20.39796896101806" fill="#63ff29" stroke="none" /><path d="M 116.71984013943494 112.70617746262583 l 16.70744465003125 12.696757558680225 a41.984431353690795,41.984431353690795 0 0,0 -0.4422223808767803,0.5716320394600818 l -16.486415451936402 -12.98246759225356" fill="#fdff18" stroke="none" /><path d="M 116.27256486870786 113.27417163493432 l 19.46346524715639 15.877114664213892 a46.117906948785766,46.117906948785766 0 0,0 -0.5070861519529517,0.6108179363466373 l -19.187283095309894 -16.2097938576743" fill="#cbff1d" stroke="none" /><path d="M 115.07121518719521 114.62390073753431 l 18.108529492573286 17.57106739654931 a46.2321471507574,46.2321471507574 0 0,0 -0.5590993901308023,0.5663647303912891 l -17.80338947738695 -17.880172620921265" fill="#caff1d" stroke="none" /><path d="M 114.55890576462653 115.13401014063108 l 14.559051622061862 15.134161759711596 a42.00021038711229,42.00021038711229 0 0,0 -0.5253309627019707,0.4967332147401365 l -14.296384824969083 -15.382529611197654" fill="#fdff18" stroke="none" /><path d="M 114.29624159901734 115.38237550388516 l 18.847962345358322 20.279905894939404 a48.68610242846839,48.68610242846839 0 0,0 -0.6187782225171725,0.5652392351793868 l -18.496084573374283 -20.601337896705374" fill="#aeff20" stroke="none" /><path d="M 113.75828350139079 115.86535959552629 l 20.647073803872445 23.809165617258397 a52.51472709786006,52.51472709786006 0 0,0 -0.6880292577502929,0.586353459930775 l -20.234179069545103 -24.16104346741212" fill="#83ff25" stroke="none" /><path d="M 112.92097659922987 116.55440617244103 l 12.891850810430222 16.517090096974183 a41.952662899735515,41.952662899735515 0 0,0 -0.57309589281576,0.4394254925485828 l -12.605626189120969 -16.73655493135014" fill="#feff18" stroke="none" /><path d="M 112.34349029814194 116.9893568818739 l 14.763069635857786 20.319622137451603 a46.11643423899976,46.11643423899976 0 0,0 -0.6462288730281738,0.46106714246484354 l -14.411113434980727 -20.570733541760664" fill="#cbff1d" stroke="none" /><path d="M 111.45004920935366 117.60387380957326 l 14.95253731255552 22.98877281401845 a48.42374969944699,48.42374969944699 0 0,0 -0.7026475117402847,0.448462886609041 l -14.554607998768304 -23.2427501294513" fill="#b1ff20" stroke="none" /><path d="M 111.1453310114006 117.79835938074945 l 7.791436770102213 12.442411228954436 a35.680602308247174,35.680602308247174 0 0,0 -0.5233508414230194,0.3214848317728742 l -7.576106728746884 -12.57468452755569" fill="#ffb010" stroke="none" /><line stroke="#e1ed5e" stroke-width="0.3" x1="143.8653032363475" x2="146.44561519142675" y1="172.8068346515853" y2="177.08958963109032" /><path d="M 144.38136562736335 173.6633856474863 a86.0,86.0 0 0,1 -40.68145358897372,12.25698825130547" fill="none" id="id78" stroke="none" /><text fill="#e1ed5e" style="font-size:6.75px; font-family:Arial;" text-anchor="middle"><textPath startOffset="21.466115282336833" xlink:href="#id78">June</textPath></text><path d="M 109.57404056367764 118.69057910512821 l 9.56847738389991 18.679718585891838 a41.987797547487375,41.987797547487375 0 0,0 -0.6461044144037104,0.32397016628964237 l -9.24551906181344 -18.841656593090782" fill="#fdff18" stroke="none" /><path d="M 109.2508944713604 118.85261126421891 l 11.090952766968208 22.602508515559396 a46.177025727338304,46.177025727338304 0 0,0 -0.7165956054269949,0.3440094380481843 l -10.70024449354098 -22.790072230107143" fill="#cbff1d" stroke="none" /><path d="M 108.59647513512805 119.15986991738527 l 10.297494815278666 22.951111709665838 a46.155355854772786,46.155355854772786 0 0,0 -0.7276706703490222,0.3189894376112315 l -9.90090347027189 -23.124965700571526" fill="#cbff1d" stroke="none" /><path d="M 107.93186726928326 119.44442032107085 l 10.316131771442986 25.289278733684153 a48.31245491704737,48.31245491704737 0 0,0 -0.7727207319673198,0.30748152638823395 l -9.8792899634338 -25.463107104478453" fill="#b2ff20" stroke="none" /><path d="M 107.2578585660854 119.70592522655815 l 12.330855645097252 33.47969888214953 a56.67828805001203,56.67828805001203 0 0,0 -0.9184053695434545,0.3293074902203529 l -11.752730714924063 -33.68699391340984" fill="#57ff2a" stroke="none" /><path d="M 106.57524785965236 119.94407469862006 l 6.5715589332263376 19.93288542853188 a41.988218321711955,41.988218321711955 0 0,0 -0.6883641583727107,0.22039246568728865 l -6.227473429762687 -20.043050740878872" fill="#fdff18" stroke="none" /><path d="M 105.88484417918355 120.15858648285463 l 7.6900461901078625 26.34232215167051 a48.44184299110363,48.44184299110363 0 0,0 -0.8024479683893004,0.2267798113029239 l -7.235467053613957 -26.47079075631195" fill="#b0ff20" stroke="none" /><path d="M 105.53697534728816 120.25689768951611 l 6.927931274526781 25.34567814119336 a47.27545684058668,47.27545684058668 0 0,0 -0.7868201898208388,0.2078063634291051 l -6.490620641894445 -25.46117585392605" fill="#beff1f" stroke="none" /><path d="M 104.83641907484287 120.43548508189849 l 4.813936722807851 20.340489639504483 a41.902380379899014,41.902380379899014 0 0,0 -0.7033211798281082,0.16007361071170706 l -4.4630953935868805 -20.420339983793877" fill="#feff18" stroke="none" /><path d="M 103.41894727170886 120.7198165907248 l 4.1034834304920365 24.868305155340035 a46.204586439047844,46.204586439047844 0 0,0 -0.7858391053727688,0.12273190666176437 l -3.6748084615107506 -24.93525536934891" fill="#caff1d" stroke="none" /><path d="M 103.06178313531738 120.77559828337769 l 3.96636741700077 26.913616170057267 a48.204315941332055,48.204315941332055 0 0,0 -0.8219327295232332,0.11391238684383179 l -3.5025060962907064 -26.977903122393702" fill="#b3ff20" stroke="none" /><path d="M 102.34483914955558 120.86867818915974 l 3.7358247202405024 33.24821827227793 a54.45744169271459,54.45744169271459 0 0,0 -0.932434328807199,0.09665063067481837 l -3.162957794827701 -33.30759827140851" fill="#6eff28" stroke="none" /><path d="M 101.62511606390274 120.93702456842531 l 0.7053305894886006 9.087057970198378 a30.114390478480402,30.114390478480402 0 0,0 -0.5171605068087828,0.03566641643251557 l -0.5488073219008875 -9.09785273114718" fill="#ff6509" stroke="none" /><path d="M 100.90346689309514 120.98055641714683 l 1.092775321293877 25.376728748883487 a46.400246453474395,46.400246453474395 0 0,0 -0.7982602248057472,0.02749369617616709 l -0.6557947448134777 -25.391779243485747" fill="#c8ff1d" stroke="none" /><line stroke="#e1ed5e" stroke-width="0.3" x1="102.19456741930631" x2="102.32365962044197" y1="184.97166512339345" y2="189.96999836594603" /><path d="M 102.22038585953345 185.97133177190398 a86.0,86.0 0 0,1 -42.740103519485714,-10.115201625700543" fill="none" id="id79" stroke="none" /><text fill="#e1ed5e" style="font-size:6.75px; font-family:Arial;" text-anchor="middle"><textPath startOffset="22.20632615414155" xlink:href="#id79">July</textPath></text><path d="M 99.81925306533755 120.99922214144158 l -0.325819274472519 37.85376131213156 a58.85516350084154,58.85516350084154 0 0,0 -1.0129823117696142,-0.017439409148702838 l 0.9773612761348011 -37.84254442570369" fill="#40ff2d" stroke="none" /><path d="M 99.09653310690486 120.98055641714683 l -1.0814792697331717 25.114408735973736 a46.137683337340704,46.137683337340704 0 0,0 -0.7931549609781026,-0.0409970517437674 l 1.5136222991247632 -25.092071877467767" fill="#cbff1d" stroke="none" /><path d="M 98.37488393609728 120.93702456842531 l -1.9454470585056476 25.063977746109938 a46.139366434239,46.139366434239 0 0,0 -0.7913026189093504,-0.06827691958727221 l 2.3765939951565396 -25.026776574244003" fill="#cbff1d" stroke="none" /><path d="M 97.65516085044442 120.86867818915974 l -2.8122988177150625 25.028991438399242 a46.186493147391204,46.186493147391204 0 0,0 -0.7892888483820776,-0.09557188760715214 l 3.2427150891485295 -24.976874022066742" fill="#cbff1d" stroke="none" /><path d="M 96.22490169976321 120.6578951692458 l -3.761180329425631 20.58173397843188 a41.922577542678525,41.922577542678525 0 0,0 -0.7087558432514401,-0.13583474421225902 l 4.114903787248767 -20.513942035871153" fill="#feff18" stroke="none" /><path d="M 95.86986931433489 120.58985236759428 l -4.938025227999106 24.617431788501527 a46.10780836739601,46.10780836739601 0 0,0 -0.7768255378648702,-0.16279134439281692 l 5.361042227293364 -24.52878446338217" fill="#ccff1d" stroke="none" /><path d="M 94.46302465271185 120.25689768951611 l -4.621523875016208 16.90773941258572 a38.52798148593412,38.52798148593412 0 0,0 -0.6382230435618554,-0.180368207148252 l 4.911878086682677 -16.825682412098946" fill="#ffd513" stroke="none" /><path d="M 93.76903079525671 120.05430185196036 l -7.735588211134327 24.896900609051414 a47.0709605674441,47.0709605674441 0 0,0 -0.7716917614017638,-0.2470713327782174 l 8.16300131762703 -24.76005642961349" fill="#c0ff1e" stroke="none" /><path d="M 93.42475214034765 119.94407469862007 l -6.556869101208386 19.888328156573557 a41.94130199567204,41.94130199567204 0 0,0 -0.6837036720542321,-0.23194940663719726 l 6.898242506199844 -19.772515763038236" fill="#feff18" stroke="none" /><path d="M 92.40401165467489 119.57807347666478 l -12.492712979334593 32.199003146552094 a55.53756912719404,55.53756912719404 0 0,0 -0.8882809027472789,-0.35346530323169995 l 13.04511495812373 -31.97919099891433" fill="#62ff29" stroke="none" /><path d="M 91.7346041902142 119.30500536409082 l -9.082197367328945 21.212761364245022 a44.07525847559509,44.07525847559509 0 0,0 -0.6948765162088383,-0.3046134441675226 l 9.445994558195526 -21.053283366783045" fill="#e4ff1a" stroke="none" /><path d="M 91.40352486487194 119.15986991738527 l -9.428769914581022 21.01489298865252 a44.033181053137774,44.033181053137774 0 0,0 -0.6888718678154021,-0.3162272874825636 l 9.789109778163843 -20.84947863083588" fill="#e4ff1a" stroke="none" /><path d="M 90.7491055286396 118.85261126421891 l -11.077328884150916 22.57474409045881 a46.14609882183217,46.14609882183217 0 0,0 -0.7100919766647731,-0.35605485836734174 l 11.46427476849845 -22.380721391182167" fill="#cbff1d" stroke="none" /><path d="M 90.10565033884886 118.52300852407294 l -5.35507786070738 10.02513113625062 a32.36574296705939,32.36574296705939 0 0,0 -0.4891499283175063,-0.26672354205667814 l 5.5268506008935265 -9.931466942434175" fill="#ff840c" stroke="none" /><line stroke="#e1ed5e" stroke-width="0.3" x1="58.666819895761336" x2="56.23545636021788" y1="174.27360380694188" y2="178.64263932499728" /><path d="M 58.180547188652646 175.14741091055294 a86.0,86.0 0 0,1 -31.652253787137756,-30.449443065178592" fill="none" id="id80" stroke="none" /><text fill="#e1ed5e" style="font-size:6.75px; font-family:Arial;" text-anchor="middle"><textPath startOffset="22.20632615414155" xlink:href="#id80">August</textPath></text><path d="M 89.4739219176387 118.17145234162733 l -11.55246982292014 19.94334007146081 a44.04769776388555,44.04769776388555 0 0,0 -0.6528123214929749,-0.3856930262855568 l 11.894050015441497 -19.741528472881505" fill="#e4ff1a" stroke="none" /><path d="M 88.8546689885994 117.79835938074946 l -13.376161422124055 21.360848581558884 a46.203324116374134,46.203324116374134 0 0,0 -0.6704282697230214,-0.42789904195294887 l 13.741871493894 -21.12743511078213" fill="#caff1d" stroke="none" /><path d="M 87.95078237400918 117.19931262002967 l -16.80789567394089 23.991952104623234 a50.29367035345035,50.29367035345035 0 0,0 -0.7047644174855738,-0.5028306992201035 l 17.218387419275352 -23.699077143558913" fill="#9bff22" stroke="none" /><path d="M 87.36589467227662 116.77436683061367 l -13.865543280891407 18.409353354768516 a44.04685621543641,44.04685621543641 0 0,0 -0.601703697542229,-0.46136073731346344 l 14.180375706927123 -18.167953275627685" fill="#e4ff1a" stroke="none" /><path d="M 87.07902340077011 116.55440617244103 l -15.540614767846286 19.910696924541785 a46.25760399134407,46.25760399134407 0 0,0 -0.6234699149808366,-0.4953222074778184 l 15.881042175544481 -19.640240803058838" fill="#caff1d" stroke="none" /><path d="M 86.51685102203217 116.09983520530335 l -16.954705930097486 20.245120177414986 a47.406948785765806,47.406948785765806 0 0,0 -0.6211089648146457,-0.5293225344862736 l 17.30068037148919 -19.95027325270576" fill="#bcff1f" stroke="none" /><path d="M 85.70375840098266 115.38237550388516 l -23.20503902328276 24.968004448314524 a55.08628877133927,55.08628877133927 0 0,0 -0.6890092417443018,-0.6515012438577253 l 23.631384099417883 -24.564868567710867" fill="#67ff28" stroke="none" /><path d="M 85.18274418774928 114.88116024355367 l -19.434362363589536 19.51817962977681 a48.54367035345035,48.54367035345035 0 0,0 -0.5870533419272616,-0.5946819359759091 l 19.76745633057233 -19.180757199820235" fill="#afff20" stroke="none" /><path d="M 84.67929136418377 114.36230785411682 l -18.38036846937359 17.230567900241343 a46.193856696321234,46.193856696321234 0 0,0 -0.5388262441092588,-0.5847894685049299 l 18.674241121478577 -16.91162717693507" fill="#cbff1d" stroke="none" /><path d="M 84.19399662182784 113.82643327865904 l -24.54462540694943 21.470615779288178 a53.610212791536426,53.610212791536426 0 0,0 -0.6016022956109528,-0.6997993830944571 l 24.91057021213116 -21.04493929703219" fill="#77ff27" stroke="none" /><path d="M 83.50135304334701 112.99209946851258 l -19.76545045961133 15.564591392609747 a46.158090887232504,46.158090887232504 0 0,0 -0.4861835730706966,-0.6284578063990623 l 20.030440849900096 -15.222055592097433" fill="#cbff1d" stroke="none" /><path d="M 83.28015986056508 112.70617746262583 l -20.087393098511622 15.265336231847504 a46.22962250540996,46.22962250540996 0 0,0 -0.4760302386540113,-0.6377202964268525 l 20.34718460386072 -14.917303055911344" fill="#caff1d" stroke="none" /><path d="M 82.85270091963577 112.12312394758628 l -15.702552894724024 11.101689784734631 a40.230644385669635,40.230644385669635 0 0,0 -0.3949099303783205,-0.5688972084843621 l 15.891323732264476 -10.829751314063257" fill="#ffeb16" stroke="none" /><path d="M 82.6465618267979 111.8261652097733 l -31.13730040094269 21.21970615002001 a58.68033181053138,58.68033181053138 0 0,0 -0.561645927018321,-0.8395844557723138 l 31.49794943337174 -20.680584780041876" fill="#42ff2d" stroke="none" /><path d="M 82.24976979558568 111.22182372390057 l -21.260940358052487 13.441320036688543 a46.1534623707622,46.1534623707622 0 0,0 -0.41875555158974354,-0.675167283833018 l 21.489160549310185 -13.07335642149026" fill="#cbff1d" stroke="none" /><line stroke="#e1ed5e" stroke-width="0.3" x1="26.63291911575756" x2="22.317208475507996" y1="142.92168965132927" y2="145.44649492493687" /><path d="M 25.769776987707644 143.4266507060508 a86.0,86.0 0 0,1 -11.730757126820373,-40.83630448921669" fill="none" id="id81" stroke="none" /><text fill="#e1ed5e" style="font-size:6.75px; font-family:Arial;" text-anchor="middle"><textPath startOffset="21.46611528233685" xlink:href="#id81">September</textPath></text><path d="M 81.87401531095188 110.60418214915194 l -19.960991855061916 11.677710046655152 a44.12596176965617,44.12596176965617 0 0,0 -0.377903149625199,-0.6589059949228208 l 20.159047000839493 -11.332384205874025" fill="#e3ff1b" stroke="none" /><path d="M 81.69416730710424 110.29060199501025 l -22.10982786116581 12.429013337685795 a46.36384948304881,46.36384948304881 0 0,0 -0.3850928142134677,-0.6990553155666251 l 22.320497084830794 -12.046587503721348" fill="#c9ff1d" stroke="none" /><path d="M 81.35079622478065 109.6543875284942 l -33.387933928821525 17.28438687301605 a58.596597739841314,58.596597739841314 0 0,0 -0.4559968546973288,-0.8997250547506571 l 33.68050945330512 -16.707107606562708" fill="#43ff2d" stroke="none" /><path d="M 81.02952815118164 109.00673069616217 l -23.474381461238195 11.145080299809386 a46.98575378696802,46.98575378696802 0 0,0 -0.34059163682337,-0.7336040852630794 l 23.66274771490139 -10.739356147267479" fill="#c1ff1e" stroke="none" /><path d="M 80.87730276802145 108.67885076344099 l -21.758064539054534 9.87491423124069 a44.894085116614576,44.894085116614576 0 0,0 -0.3133156388891726,-0.7064440527820853 l 21.924821262674985 -9.498921841965908" fill="#daff1c" stroke="none" /><path d="M 80.58989483394504 108.01547362559985 l -23.212164717697036 9.585547965662844 a46.113488819427744,46.113488819427744 0 0,0 -0.2966577041417079,-0.736280092958469 l 23.373725036096133 -9.18456850486157" fill="#cbff1d" stroke="none" /><path d="M 80.32549172779594 107.34259656027581 l -35.4401725359718 13.226398614792727 a58.827813176244284,58.827813176244284 0 0,0 -0.3458956050182552,-0.9517561487591222 l 35.662592401995276 -12.614394669027488" fill="#41ff2d" stroke="none" /><path d="M 80.0844068197444 106.66101706037122 l -20.96488492241081 7.011965693060295 a43.106425823515266,43.106425823515266 0 0,0 -0.2293010378799958,-0.7057160293404653 l 21.082478211307055 -6.650050763742026" fill="#f0ff19" stroke="none" /><path d="M 79.97269907076064 106.31721596034903 l -46.47053719764565 14.658211823359762 a69.72754868958884,69.72754868958884 0 0,0 -0.3512051366730358,-1.1477587072406985 l 46.715969106824815 -13.856126143567016" fill="#3bff9b" stroke="none" /><path d="M 79.76711848015287 105.62410040840567 l -16.870666987410395 4.689511229574374 a38.510308968502045,38.510308968502045 0 0,0 -0.17203457928608454,-0.6402046679578773 l 16.948889643038257 -4.398415628440958" fill="#ffd513" stroke="none" /><path d="M 79.58551787078972 104.9243191809786 l -23.66227783542832 5.707742565946345 a45.340947343111324,45.340947343111324 0 0,0 -0.17648301790468657,-0.7602842221436851 l 23.757021419263562 -5.299589686454087" fill="#d5ff1c" stroke="none" /><path d="M 79.4281124754447 104.21870165774334 l -26.070584718944325 5.346326088982746 a47.61312815580669,47.61312815580669 0 0,0 -0.15773564366845974,-0.8042906487917469 l 26.15875029558845 -4.896771713123044" fill="#baff1f" stroke="none" /><path d="M 79.29508885075956 103.50808413554451 l -23.52991099837791 3.9867308238708374 a44.86526208223131,44.86526208223131 0 0,0 -0.12245705298449533,-0.7625401858288501 l 23.595049805723697 -3.581111408348774" fill="#daff1b" stroke="none" /><path d="M 79.23777060512086 103.15116336523772 l -29.5356732680719 4.4827426669765424 a50.873918009136815,50.873918009136815 0 0,0 -0.12395296635434376,-0.8669267579841644 l 29.608460285442842 -3.973670437011977" fill="#95ff23" stroke="none" /><path d="M 79.10278846688536 102.07522291339032 l -27.15364606721337 2.6965257260030833 a48.28720846357297,48.28720846357297 0 0,0 -0.07501855575129014,-0.8278235115200697 l 27.196039219241733 -2.2287208259344475" fill="#b2ff20" stroke="none" /><path d="M 79.07016306316243 101.71520430193888 l -25.63200485889999 2.100547898867022 a46.71793099302717,46.71793099302717 0 0,0 -0.058783262329423,-0.8020509109655648 l 25.664364679893747 -1.6590238514046967" fill="#c4ff1e" stroke="none" /><path d="M 79.0235259727143 100.99374915477108 l -27.348054896417658 1.2955993653936677 a48.37872685741765,48.37872685741765 0 0,0 -0.032247571018008236,-0.8321665191140141 l 27.366304600286867 -0.8246555992656568" fill="#b1ff20" stroke="none" /><line stroke="#e1ed5e" stroke-width="0.3" x1="15.007084014347285" x2="10.007500721073583" y1="101.09737516637583" y2="101.16192664675087" /><path d="M 14.007167355692545 101.11028546245083 a86.0,86.0 0 0,1 10.666146001902534,-42.60595125391555" fill="none" id="id82" stroke="none" /><text fill="#e1ed5e" style="font-size:6.75px; font-family:Arial;" text-anchor="middle"><textPath startOffset="22.20632615414155" xlink:href="#id82">October</textPath></text><path d="M 79.00019446554 99.90962569577889 l -52.377069670674956 -0.2254088125178494 a73.3775547006492,73.3775547006492 0 0,0 0.01630726311939846,-1.2630154998318601 l 52.36542940043784 1.1269605704101815" fill="#40ffc3" stroke="none" /><path d="M 79.01574976396665 99.18683210126434 l -27.241515845006838 -1.0556453506268137 a48.261962010098586,48.261962010098586 0 0,0 0.03931371569355923,-0.8298504025918512 l 27.21930852107978 1.524406859841674" fill="#b2ff20" stroke="none" /><path d="M 79.03285615573316 98.82574320788736 l -20.474347905152385 -1.1466579458926374 a41.50643183457562,41.50643183457562 0 0,0 0.04609073618561495,-0.7130032885487328 l 20.451576577962356 1.4989202986943821" fill="#fffb17" stroke="none" /><path d="M 79.08570108090925 98.10471618934814 l -23.935071616018423 -2.169030571673813 a45.03315099783602,45.03315099783602 0 0,0 0.07660540920137687,-0.7714060163525627 l 23.89418908113482 2.5807121187308057" fill="#d8ff1c" stroke="none" /><path d="M 79.16333360222342 97.38593545837743 l -56.22117363530881 -7.053228845865109 a77.66187785525366,77.66187785525366 0 0,0 0.17782351466487661,-1.3249917312548665 l 56.0914341215861 8.019938919184636" fill="#45ffef" stroke="none" /><path d="M 79.26566170972629 96.67025291283419 l -16.796899580125665 -2.6974300634699317 a38.01211228660736,38.01211228660736 0 0,0 0.10930860479392748,-0.6451455730991139 l 16.747979113811514 2.9861614248848736" fill="#ffcf13" stroke="none" /><path d="M 79.3925641242962 95.95851677861259 l -20.57440319817602 -4.035004928173676 a41.96633806203414,41.96633806203414 0 0,0 0.1451250008540134,-0.7076810442591747 l 20.501898901407014 4.388561628596253" fill="#feff18" stroke="none" /><path d="M 79.46518482838121 95.60439243477599 l -25.47678169053988 -5.453466875673346 a47.053919211348884,47.053919211348884 0 0,0 0.17635274073741972,-0.7905547574284025 l 25.37913456280042 5.891199802651708" fill="#c0ff1e" stroke="none" /><path d="M 79.62865764111835 94.90015583598534 l -50.831413647259524 -12.725341495454728 a73.40006612166385,73.40006612166385 0 0,0 0.31738072594328864,-1.2229974048057108 l 50.60483658944593 13.598435325809302" fill="#40ffc3" stroke="none" /><path d="M 79.81627453868168 94.20196356495316 l -24.150465687080526 -6.937533917878393 a46.12716398172637,46.12716398172637 0 0,0 0.2257904971563212,-0.7612533099423741 l 24.027469292812498 7.352216614567307" fill="#cbff1d" stroke="none" /><path d="M 79.91906864156998 93.8553929516997 l -24.481129028859424 -7.491032925518629 a46.60158691993267,46.60158691993267 0 0,0 0.24131747739247988,-0.7650423492815128 l 24.348556067698738 7.911325441226557" fill="#c6ff1e" stroke="none" /><path d="M 80.14247586403 93.16781622104843 l -27.74614324075899 -9.546343667013268 a50.34248016350084,50.34248016350084 0 0,0 0.2889824232430143,-0.816992225299635 l 27.577707736706166 10.022533518739515" fill="#9bff22" stroke="none" /><path d="M 80.38941819471856 92.48833698450439 l -33.20435199933077 -12.71863860763673 a56.556894686222655,56.556894686222655 0 0,0 0.3560564893419307,-0.9061249284373868 l 32.98050196010715 13.288312540969882" fill="#58ff2a" stroke="none" /><path d="M 80.65960295795068 91.81776055985345 l -20.885055666109768 -8.835729990928462 a43.67720605914883,43.67720605914883 0 0,0 0.29889620375310677,-0.6898936481850969 l 20.72986875251398 9.193922783700158" fill="#e9ff1a" stroke="none" /><path d="M 80.95270993114464 91.15688171328213 l -25.37978506900529 -11.783116687222128 a48.98169632123107,48.98169632123107 0 0,0 0.3616290793494524,-0.7616830680233452 l 25.173197795814087 12.218242170886006" fill="#aaff21" stroke="none" /><path d="M 81.26839172434947 90.50648371742162 l -29.874753340568496 -15.141062801605603 a54.49257634046646,54.49257634046646 0 0,0 0.4312453405041848,-0.8330287352190855 l 29.609698566904196 15.653064259085024" fill="#6dff28" stroke="none" /><path d="M 81.6062741919709 89.86733742301443 l -18.379720807213506 -10.124947557791744 a41.984010579466215,41.984010579466215 0 0,0 0.3541498410500091,-0.6299930501267745 l 18.202713324871063 10.439824117853302" fill="#fdff18" stroke="none" /><line stroke="#e1ed5e" stroke-width="0.3" x1="26.266209847984243" x2="21.928928074336255" y1="57.711370442889674" y2="55.22380399835377" /><path d="M 25.398753493254645 57.213857153982495 a86.0,86.0 0 0,1 29.58750427330803,-30.492523968695096" fill="none" id="id83" stroke="none" /><text fill="#e1ed5e" style="font-size:6.75px; font-family:Arial;" text-anchor="middle"><textPath startOffset="21.46611528233685" xlink:href="#id83">November</textPath></text><path d="M 82.34701348167596 88.62581576622439 l -21.118288853020303 -13.606950181886122 a46.12232507814379,46.12232507814379 0 0,0 0.4357535466961667,-0.6636825469507092 l 20.880938670966216 13.968450792814497" fill="#cbff1d" stroke="none" /><path d="M 82.54541684631803 88.32363383020206 l -3.03937354526475 -2.0332103109447184 a24.656738398653523,24.656738398653523 0 0,0 0.23902422354152275,-0.350738554007144 l 3.003924856054487 2.085226888222278" fill="#ff1702" stroke="none" /><path d="M 82.7489923806493 88.02491185347247 l -34.49717605246533 -23.94681708743568 a62.994109160855984,62.994109160855984 0 0,0 0.6260036004079785,-0.8854376980710167 l 34.07985983225347 24.537081285838482" fill="#32ff4d" stroke="none" /><path d="M 83.17141714833178 87.43820079747576 l -21.47981054774723 -16.033736731570063 a47.80415965376292,47.80415965376292 0 0,0 0.4979009463640898,-0.6551792821222363 l 21.20063366115903 16.401100789573327" fill="#b8ff1f" stroke="none" /><path d="M 83.39014120810768 87.1503855733568 l -19.9670750811288 -15.446802964127448 a46.24455999038231,46.24455999038231 0 0,0 0.4924955779322054,-0.6254193702649119 l 19.698225422602622 15.788214728345407" fill="#caff1d" stroke="none" /><path d="M 83.84228863543731 86.58626213691792 l -17.74878038157686 -14.734604552352671 a44.06789492666506,44.06789492666506 0 0,0 0.4895510558264554,-0.5794740377468116 l 17.49251871226328 15.037937539728599" fill="#e4ff1a" stroke="none" /><path d="M 84.31358615837235 86.03803664274999 l -29.768763945162288 -26.49620210133731 a60.8525787448906,60.8525787448906 0 0,0 0.7031554865409808,-0.7764418505787283 l 29.308264818005263 27.004696739185594" fill="#30ff33" stroke="none" /><path d="M 84.80347519578584 85.50635884689758 l -15.190282743652995 -14.4876878060711 a41.991374128396245,41.991374128396245 0 0,0 0.5033680706823644,-0.5187650441407716 l 14.938650409267511 14.747017045761996" fill="#fdff18" stroke="none" /><path d="M 85.05521093208273 85.24692304244772 l -15.543383147959883 -15.343992258468912 a42.84112767492185,42.84112767492185 0 0,0 0.5225887233703014,-0.520344561314 l 15.276958624422269 15.609272670433022" fill="#f3ff19" stroke="none" /><path d="M 85.57189188830299 84.74124197986013 l -7.197575692412451 -7.61195196015513 a31.476015869199326,31.476015869199326 0 0,0 0.39688575484342764,-0.36886205495483676 l 7.065482053774168 7.734718601184614" fill="#ff780b" stroke="none" /><path d="M 86.10567301691215 84.25364557470407 l -29.447214778104563 -33.372345511822566 a65.50676244289494,65.50676244289494 0 0,0 0.8519191930346305,-0.7387759292484973 l 28.86840178642316 33.87428643449074" fill="#36ff6b" stroke="none" /><path d="M 86.65592168130627 83.78471172551755 l -12.696232246597173 -15.428046880536167 a40.9804640538591,40.9804640538591 0 0,0 0.5485461509899737,-0.4435528386061186 l 12.4287826970427 15.644305816406419" fill="#fff417" stroke="none" /><path d="M 87.22198572758235 83.33499621200491 l -14.048185964440256 -18.321553515338273 a44.08746092810772,44.08746092810772 0 0,0 0.6062106625722765,-0.45658530298439326 l 13.730729148109589 18.560655407828524" fill="#e4ff1b" stroke="none" /><path d="M 87.51073957382395 83.11751280151077 l -8.087689502957115 -10.932618092649951 a34.59900216398173,34.59900216398173 0 0,0 0.4818400110639095,-0.35007725973250486 l 7.898304175539423 11.070214587199125" fill="#ffa20f" stroke="none" /><path d="M 88.09926311788651 82.69761687909137 l -35.70221064634046 -51.907149362725875 a84.0,84.0 0 0,0 1.198381222373842,-0.8091523508053382 l 34.80342472956008 52.51401362582988" fill="#4dd2ff" stroke="none" /><path d="M 89.00827224532344 82.1063720568725 l -13.359195445205042 -21.747670452838346 a46.523112527049776,46.523112527049776 0 0,0 0.6859676398094997,-0.41328782764092004 l 12.982865739177894 21.974404889937887" fill="#c7ff1e" stroke="none" /><line stroke="#e1ed5e" stroke-width="0.3" x1="56.762969772571076" x2="54.21961505331055" y1="26.818313649435495" y2="22.513508569990535" /><path d="M 56.25429882871897 25.957352633546506 a86.0,86.0 0 0,1 42.265352541879196,-11.944610805530505" fill="none" id="id84" stroke="none" /><text fill="#e1ed5e" style="font-size:6.75px; font-family:Arial;" text-anchor="middle"><textPath startOffset="22.20632615414155" xlink:href="#id84">December</textPath></text><path d="M 89.3179101791058 81.91981866633112 l -12.785631913539639 -21.64057289709153 a46.13536907910556,46.13536907910556 0 0,0 0.6872044855648882,-0.39807319401950925 l 12.411230695509431 21.857450248501088" fill="#cbff1d" stroke="none" /><path d="M 89.94658935756843 81.56283822128135 l -2.17574113065848 -3.9901375405133472 a25.544782399615293,25.544782399615293 0 0,0 0.38786097159399524,-0.20718189854943683 l 2.1067351125361795 4.0269981655645335" fill="#ff2403" stroke="none" /><path d="M 90.26544431104013 81.39251694778311 l -9.305835776233787 -17.78799023044939 a41.07513825438808,41.07513825438808 0 0,0 0.6293092835329018,-0.32235665753073395 l 8.99826600511212 17.945539413292632" fill="#fff517" stroke="none" /><path d="M 90.91171255644093 81.06846463323043 l -6.105476104184666 -12.718131717901933 a35.10771820149074,35.10771820149074 0 0,0 0.5470481117657663,-0.2568464235883691 l 5.885649781119291 12.82134312413031" fill="#ffa90f" stroke="none" /><path d="M 91.23893434514133 80.91482961587045 l -10.95642285369779 -23.867552784224213 a47.262202452512625,47.262202452512625 0 0,0 0.7422818804515302,-0.33304024276112926 l 10.543958854779486 24.05261335750187" fill="#beff1f" stroke="none" /><path d="M 91.90106846888425 80.62456947434976 l -6.452872542859912 -15.437491126416983 a37.731876653041596,37.731876653041596 0 0,0 0.6014032260226005,-0.2453274762303277 l 6.186185447248931 15.546279488830889" fill="#ffcb12" stroke="none" /><path d="M 92.57280143429618 80.3572730644239 l -8.151271552428025 -21.557684215071294 a44.04727698966098,44.04727698966098 0 0,0 0.7115054693563913,-0.26205346900561965 l 7.7789837572990645 21.694800951883234" fill="#e4ff1a" stroke="none" /><path d="M 93.59665428221793 80.00007090966166 l -7.592008785875211 -23.712547168751417 a45.89826280355855,45.89826280355855 0 0,0 0.7545119850931185,-0.23443054654457615 l 7.182711428071364 23.83971785017852" fill="#ceff1d" stroke="none" /><path d="M 93.94186890950719 79.89281104454417 l -7.234421852142653 -24.01134689752612 a46.07751262322674,46.07751262322674 0 0,0 0.7613975058682008,-0.22227281085726752 l 6.820034128551031 24.132318037302085" fill="#ccff1d" stroke="none" /><path d="M 97.11714578562143 79.19881850522333 l -1.432560430065234 -10.336613401883646 a31.435411156528012,31.435411156528012 0 0,0 0.536625328710241,-0.0696693689166485 l 1.254420372847135 10.359741093964432" fill="#ff770b" stroke="none" /><path d="M 97.47563105711357 79.15227682838746 l -2.770645138745087 -22.881616818374216 a44.04874969944699,44.04874969944699 0 0,0 0.7535132171813171,-0.0846659896395447 l 2.376365218054052 22.925918761484358" fill="#e4ff1a" stroke="none" /><path d="M 98.19473922651362 79.07773832637324 l -2.20853985426701 -25.596107457855037 a46.69121182976677,46.69121182976677 0 0,0 0.8013319435242564,-0.06219878138289038 l 1.7676177213804196 25.63033150142639" fill="#c5ff1e" stroke="none" /><path d="M 98.91598698831166 79.02799685794201 l -1.1893778253394585 -23.01045764318253 a44.04117576340467,44.04117576340467 0 0,0 0.7574225894907953,-0.03261620998421797 l 0.793114403459339 23.02752157969094" fill="#e4ff1a" stroke="none" /><path d="M 99.63851952072746 79.00311137660856 l -0.5419418658501437 -31.479135527617416 a52.48380019235394,52.48380019235394 0 0,0 0.9034223451226717,-0.007776041345084168 l 7.711307026112215e-15 31.48380019235394" fill="#83ff25" stroke="none" /></svg>