<?xml version="1.0" encoding="utf-8" ?>
<svg baseProfile="full" height="200mm" version="1.1" viewBox="0,0,200,200" width="200mm" xmlns="http://www.w3.org/2000/svg" xmlns:ev="http://www.w3.org/2001/xml-events" xmlns:xlink="http://www.w3.org/1999/xlink"><defs /><rect fill="#1a1a1a" height="200" width="200" x="0" y="0" /><text alignment-baseline="middle" fill="#e1ed5e" style="dominant-baseline: central; font-size:9.0px; font-family:Arial;" text-anchor="middle" x="100.0" y="100.0">2019</text><line stroke="#e1ed5e" stroke-width="0.3" x1="100.0" x2="100.0" y1="15.0" y2="10.0" /><path d="M 100.0 14.0 a86.0,86.0 0 0,1 42.46469731375804,11.215312516191453" fill="none" id="id37" stroke="none" /><text fill="#e1ed5e" style="font-size:6.75px; font-family:Arial;" text-anchor="middle"><textPath startOffset="22.20632615414155" xlink:href="#id37">January</textPath></text><path d="M 101.44485096284872 79.0497635885617 l 0.5057367172187931 -7.3331465044591 a28.350565099569145,28.350565099569145 0 0,0 0.4865629428098255,0.03776664883187215 l -0.6318898493909598 7.323354593438763" fill="#ff5207" stroke="none" /><path d="M 102.52436894288641 79.15227682838746 l 0.27759809158449594 -2.292568280333949 a23.30931375530583,23.30931375530583 0 0,0 0.3979069366603146,0.05165974038405653 l -0.3170197567526567 2.2874502167857558" fill="#ff0a01" stroke="none" /><path d="M 102.88285421437855 79.19881850522331 l 1.232074475309902 -8.890010687386642 a29.974981756781396,29.974981756781396 0 0,0 0.5104753946338177,0.07523080360746232 l -1.3849188503723757 8.86748539961821" fill="#ff6909" stroke="none" /><path d="M 103.2404852339499 79.25152402106235 l 1.8781922393146826 -12.025861483018332 a33.17164534878361,33.17164534878361 0 0,0 0.5633979562014447,0.09296549015320635 l -2.084919401655003 11.9917497299255" fill="#ff940d" stroke="none" /><path d="M 103.95276090670814 79.375362276772 l 2.9598221316542226 -15.443701410566598 a36.724772186259706,36.724772186259706 0 0,0 0.6198329936894227,0.1243326674480399 l -3.2252215348107707 15.39046478704135" fill="#ffc312" stroke="none" /><path d="M 104.66035177308747 79.52364482259891 l 2.2856555179324225 -10.04256684412575 a31.29938687327497,31.29938687327497 0 0,0 0.5243039483149646,0.12408580498497986 l -2.4581831532099105 10.0017351269999" fill="#ff7b0b" stroke="none" /><path d="M 106.0581310904928 79.89281104454417 l 2.130482550242975 -7.071160158825866 a28.38513790586581,28.38513790586581 0 0,0 0.46661737155849187,0.1449802887202009 l -2.251885294512185 7.033439735223145" fill="#ff5307" stroke="none" /><path d="M 106.74666289553966 80.11325718540242 l 4.37473079991098 -12.89513758845802 a34.61700565458327,34.61700565458327 0 0,0 0.5626384283501278,0.1962934999562212 l -4.596051232324381 12.81792323532959" fill="#ffa80f" stroke="none" /><path d="M 107.4271985657038 80.35727306442388 l 5.207734397665145 -13.772905601137644 a35.7245857753104,35.7245857753104 0 0,0 0.5733231823663346,0.22244048764808674 l -5.444040745031146 13.68122240959901" fill="#ffb610" stroke="none" /><path d="M 108.09893153111575 80.62456947434976 l 4.098753884763401 -9.805629400725614 a31.62780087093457,31.62780087093457 0 0,0 0.5004967587992939,0.21428659225787744 l -4.2669344013530095 9.733623280504945" fill="#ff800b" stroke="none" /><path d="M 109.08828744355905 81.06846463323043 l 7.660217243964989 -15.956765735225279 a38.70020624042551,38.70020624042551 0 0,0 0.5980632808400129,0.2934670545478827 l -7.933751791815434 15.822543520542565" fill="#ffdc14" stroke="none" /><path d="M 109.41281617654863 81.2277094730956 l 3.995773516380428 -7.968903240252958 a29.91457373331565,29.91457373331565 0 0,0 0.4583190650927237,0.23476882634955976 l -4.1323530690619075 7.8989418885908975" fill="#ff6809" stroke="none" /><path d="M 110.05341064243156 81.56283822128135 l 3.391947094354663 -6.220563304111282 a28.085246143314777,28.085246143314777 0 0,0 0.4224501290074128,0.23509303941557516 l -3.4985213124341104 6.161254867135527" fill="#ff4f07" stroke="none" /><path d="M 110.36928655335952 81.73862282372117 l 8.81303878937728 -15.520665242861119 a38.848268887598756,38.848268887598756 0 0,0 0.5786602593384008,0.3351973721441133 l -9.078895781181009 15.366663713326956" fill="#ffde14" stroke="none" /><line stroke="#e1ed5e" stroke-width="0.3" x1="143.23703022742887" x2="145.7803849466894" y1="26.81831364943548" y2="22.513508569990506" /><path d="M 143.74570117128098 25.957352633546492 a86.0,86.0 0 0,1 28.547481713284135,27.462654790039103" fill="none" id="id38" stroke="none" /><text fill="#e1ed5e" style="font-size:6.75px; font-family:Arial;" text-anchor="middle"><textPath startOffset="19.985693538727396" xlink:href="#id38">February</textPath></text><path d="M 110.99172775467656 82.1063720568725 l 10.908288924752204 -17.757796396713783 a41.84058780680172,41.84058780680172 0 0,0 0.6104359408328885,0.38225493014805395 l -11.212344017957356 17.567397125242785" fill="#fbff18" stroke="none" /><path d="M 111.2981086023043 82.29822771554956 l 4.821884212771856 -7.554883681952332 a29.962523908431603,29.962523908431603 0 0,0 0.43236346357055444,0.28122122367846347 l -4.95121470212669 7.470763534114341" fill="#ff6909" stroke="none" /><path d="M 114.42810811169701 84.74124197986012 l 7.95416988197702 -8.41210452129725 a32.57723287269371,32.57723287269371 0 0,0 0.40413881143224134,0.38878121639905555 l -8.097791937021679 8.273940218135891" fill="#ff8c0c" stroke="none" /><path d="M 114.68862486808459 84.99185889309783 l 6.877856628939897 -7.027468107273749 a30.83311851891363,30.83311851891363 0 0,0 0.37611148255921995,0.3744963403252751 l -6.9978039116664394 6.9080359162983545" fill="#ff750a" stroke="none" /><path d="M 115.9244219780498 86.31012108654704 l 1.2325505803310588 -1.0595969023363438 a22.625400420977922,22.625400420977922 0 0,0 0.2513459897056314,0.29751437320528085 l -1.2506071835238073 1.0382235795019565" fill="#ff0000" stroke="none" /><path d="M 117.45458315368197 88.32363383020206 l 3.643394256067364 -2.4372742138964876 a25.383449246754136,25.383449246754136 0 0,0 0.239817225560827,0.3652580874432675 l -3.6848081169861158 2.3741980624755463" fill="#ff2803" stroke="none" /><path d="M 117.65298651832404 88.62581576622439 l 7.768851501389159 -5.005631662943897 a30.241828931315656,30.241828931315656 0 0,0 0.2781850851705165,0.4400219984470511 l -7.853864182805631 4.871162016782639" fill="#ff6d0a" stroke="none" /><line stroke="#e1ed5e" stroke-width="0.3" x1="172.23445277983987" x2="176.4835382374775" y1="55.19839476539836" y2="52.563006222186495" /><path d="M 173.08426987136738 54.67131705675599 a86.0,86.0 0 0,1 12.851231095245387,41.99856678651699" fill="none" id="id39" stroke="none" /><text fill="#e1ed5e" style="font-size:6.75px; font-family:Arial;" text-anchor="middle"><textPath startOffset="22.20632615414155" xlink:href="#id39">March</textPath></text><path d="M 118.03404312379186 89.2402003453031 l 4.1407615477796345 -2.470536660367793 a25.821769134435165,25.821769134435165 0 0,0 0.22445305445485,0.383663027589929 l -4.1826742767048115 2.3988942204239687" fill="#ff2f04" stroke="none" /><path d="M 118.56541770881063 90.18545643968196 l 13.050858142342287 -6.899290807594526 a35.7622868113074,35.7622868113074 0 0,0 0.2830168912696034,0.5466985514656565 l -13.167684466772007 6.673619533868525" fill="#ffb710" stroke="none" /><path d="M 118.73160827565052 90.50648371742162 l 5.881847487889613 -2.9810261925298365 a27.594137322754378,27.594137322754378 0 0,0 0.21108199343281622,0.42552841836272687 l -5.932289494275837 2.8793381856681597" fill="#ff4806" stroke="none" /><path d="M 119.47837535516314 92.15188598940014 l 5.53866077559658 -2.2316050717955433 a26.971333551527305,26.971333551527305 0 0,0 0.169799250657334,0.4321205720332895 l -5.576253576135614 2.135935494866469" fill="#ff3f05" stroke="none" /><path d="M 119.7369772167798 92.82701384747503 l 11.393205794315087 -4.140619229474034 a33.1222879802084,33.1222879802084 0 0,0 0.19013284631163802,0.5375311600874398 l -11.462791721436535 3.943890442959979" fill="#ff940d" stroke="none" /><path d="M 120.08093135843002 93.85539295169968 l 14.197229554780387 -4.34424057487847 a35.84701159168235,35.84701159168235 0 0,0 0.17546959037111412,0.5915962281254098 l -14.269905042263204 4.09921496000653" fill="#ffb811" stroke="none" /><path d="M 120.28053869075195 94.5502522615342 l 7.009912031091333 -1.8836902126127761 a28.258591840070096,28.258591840070096 0 0,0 0.1221897045361094,0.4708467758950769 l -7.0412980674977454 1.7627470111688488" fill="#ff5107" stroke="none" /><path d="M 120.45610955862082 95.25157060432595 l 15.491803570576652 -3.5960765293972172 a36.903702219125364,36.903702219125364 0 0,0 0.13831088119288226,0.6200205603492795 l -15.551408838771572 3.328877799497974" fill="#ffc512" stroke="none" /><path d="M 120.53481517161879 95.60439243477599 l 4.223352653303599 -0.9040354499575844 a25.319026247772356,25.319026247772356 0 0,0 0.08755645299332869,0.4269563598368447 l -4.238288402211924 0.8312034339573279" fill="#ff2703" stroke="none" /><path d="M 120.83666639777658 97.38593545837742 l 2.9036671005549324 -0.3642796339555848 a23.926428246610516,23.926428246610516 0 0,0 0.04774991246192409,0.4090920895936486 l -2.909507366020445 0.31424380603708346" fill="#ff1302" stroke="none" /><path d="M 120.87857604477298 97.74499172005257 l 7.900002822356601 -0.8532464923766736 a28.945947027887573,28.945947027887573 0 0,0 0.04923963941362353,0.4958364491840188 l -7.913519587452453 0.7171345124882199" fill="#ff5b08" stroke="none" /><path d="M 120.91429891909075 98.10471618934814 l 6.38228757345436 -0.5783720678225106 a27.408440443595246,27.408440443595246 0 0,0 0.03853563579998981,0.47023236394605217 l -6.391297693073845 0.46842578666868967" fill="#ff4506" stroke="none" /><path d="M 120.94382443527127 98.46500227214037 l 6.614784194133595 -0.4848053773396412 a27.632526380562467,27.632526380562467 0 0,0 0.030684484964267338,0.47467540112270445 l -6.622149270102278 0.3708709119639015" fill="#ff4806" stroke="none" /><line stroke="#e1ed5e" stroke-width="0.3" x1="184.98032266829074" x2="189.97916517819016" y1="98.17113171792111" y2="98.06355123074" /><path d="M 185.9800911702706 98.14961562048488 a86.0,86.0 0 0,1 -9.607161424134198,41.387399972396054" fill="none" id="id40" stroke="none" /><text fill="#e1ed5e" style="font-size:6.75px; font-family:Arial;" text-anchor="middle"><textPath startOffset="21.466115282336823" xlink:href="#id40">April</textPath></text><path d="M 120.9904718944345 100.63252640178507 l 9.378811941015 0.28262090532809775 a30.38306922073231,30.38306922073231 0 0,0 -0.020252293644024196,0.5226217099084257 l -9.372557514519773 -0.4440198622505296" fill="#ff6f0a" stroke="none" /><path d="M 120.89721153311464 102.0752229133903 l 10.220518593931484 1.0149609836340199 a31.270790920235818,31.270790920235818 0 0,0 -0.05780286351263611,0.5351827273478296 l -10.201533428917795 -1.1907400328666409" fill="#ff7b0b" stroke="none" /><path d="M 120.64145759157962 103.86396538481128 l 11.647232979341688 2.1802968545868366 a32.84954557986026,32.84954557986026 0 0,0 -0.10882595655761214,0.5549012079291092 l -11.60797708980841 -2.380461789583891" fill="#ff900d" stroke="none" /><path d="M 120.23288151984713 105.62410040840565 l 13.128102147890493 3.6491967087889114 a34.62584685899863,34.62584685899863 0 0,0 -0.16456735574201858,0.5728805545467726 l -13.063342155262374 -3.8746347388402658" fill="#ffa80f" stroke="none" /><path d="M 120.02730092923936 106.31721596034902 l 16.513736865454252 5.208931670824688 a38.31578685514416,38.31578685514416 0 0,0 -0.20381763333949654,0.627286174714995 l -16.42162698109851 -5.4924167455174775" fill="#ffd714" stroke="none" /><path d="M 119.67450827220406 107.3425965602758 l 13.26751275130181 4.951483012602404 a35.16135864350756,35.16135864350756 0 0,0 -0.2165030861842773,0.5652212398178995 l -13.180315385524025 -5.179127819253448" fill="#ffaf10" stroke="none" /><path d="M 118.97047184881838 109.00673069616215 l 13.242035530369696 6.2870048168295565 a35.65871531050424,35.65871531050424 0 0,0 -0.2680291469079105,0.552219430241243 l -13.131853126847071 -6.5140132030360745" fill="#ffb510" stroke="none" /><path d="M 118.81262510543309 109.33194174019688 l 7.793200867888663 3.8657920445023675 a29.699329163711326,29.699329163711326 0 0,0 -0.23111923230424564,0.45602017162352665 l -7.725502965798149 -3.9993664278285883" fill="#ff6509" stroke="none" /><path d="M 118.64920377521936 109.65438752849418 l 19.649016393680554 10.17197415529318 a43.12584243492391,43.12584243492391 0 0,0 -0.3469525195270888,0.6563034144744241 l -19.47101136592857 -10.508692584853739" fill="#ebff1a" stroke="none" /><line stroke="#e1ed5e" stroke-width="0.3" x1="174.80103733775053" x2="179.2010983576182" y1="140.37084112569926" y2="142.7455964860345" /><path d="M 175.68104954172406 140.8457921977663 a86.0,86.0 0 0,1 -30.038265399797805,32.042727171017184" fill="none" id="id41" stroke="none" /><text fill="#e1ed5e" style="font-size:6.75px; font-family:Arial;" text-anchor="middle"><textPath startOffset="22.206326154141568" xlink:href="#id41">May</textPath></text><path d="M 117.35343817320211 111.8261652097733 l 7.327836929897332 4.9938351869123 a29.867670717004017,29.867670717004017 0 0,0 -0.2931854546087256,0.42235551416834427 l -7.24079056812647 -5.119231963267663" fill="#ff6709" stroke="none" /><path d="M 117.14729908036423 112.12312394758627 l 10.209608353042647 7.2181832800701935 a33.50353040493776,33.50353040493776 0 0,0 -0.33698203087053613,0.4680385675978569 l -10.083846529796508 -7.392855453119182" fill="#ff990e" stroke="none" /><path d="M 116.27256486870786 113.27417163493432 l 4.335817637323356 3.5368971001174345 a26.595440615442488,26.595440615442488 0 0,0 -0.2924282677475901,0.35224868663259734 l -4.274293369682223 -3.6110070438638022" fill="#ff3a05" stroke="none" /><path d="M 115.56566222782051 114.09645910891815 l 8.825556925575858 7.9925351388168435 a32.906765849373286,32.906765849373286 0 0,0 -0.38383954743084253,0.4165820195048655 l -8.686670970149294 -8.143268413123044" fill="#ff910d" stroke="none" /><path d="M 114.0293411484842 115.62618273729858 l 6.782166628214164 7.5541234592283875 a31.15197347367134,31.15197347367134 0 0,0 -0.4020943158137975,0.35480148300122427 l -6.651129959493779 -7.669748084001901" fill="#ff790b" stroke="none" /><path d="M 113.75828350139079 115.86535959552629 l 5.39482207369657 6.221037104259898 a29.23440391646063,29.23440391646063 0 0,0 -0.38301875186235707,0.3264168897514656 l -5.2869378452571665 -6.31297838423431" fill="#ff5f08" stroke="none" /><path d="M 111.7513745106137 117.40417183066458 l 3.737862134735773 5.535896657324616 a27.679653070247685,27.679653070247685 0 0,0 -0.39717046667455524,0.2632229282682965 l -3.6420169693212534 -5.599417606684231" fill="#ff4906" stroke="none" /><path d="M 111.45004920935366 117.60387380957326 l 5.403824762377012 8.308108329195724 a30.9109023843508,30.9109023843508 0 0,0 -0.44852926055536263,0.28627259551390255 l -5.26001369977472 -8.399895353533436" fill="#ff760a" stroke="none" /><path d="M 111.1453310114006 117.79835938074945 l 7.808941460657225 12.470365066577404 a35.71358459484586,35.71358459484586 0 0,0 -0.5238346142947427,0.32178200458310485 l -7.593127646430174 -12.602935537988888" fill="#ffb610" stroke="none" /><line stroke="#e1ed5e" stroke-width="0.3" x1="143.8653032363475" x2="146.44561519142675" y1="172.8068346515853" y2="177.08958963109032" /><path d="M 144.38136562736335 173.6633856474863 a86.0,86.0 0 0,1 -40.68145358897372,12.25698825130547" fill="none" id="id42" stroke="none" /><text fill="#e1ed5e" style="font-size:6.75px; font-family:Arial;" text-anchor="middle"><textPath startOffset="21.466115282336833" xlink:href="#id42">June</textPath></text><path d="M 109.89434966115114 118.52300852407294 l 1.4625194195553317 2.7379525287459705 a24.104085550084424,24.104085550084424 0 0,0 -0.367655137522461,0.1923397914968525 l -1.4151733795063752 -2.76272173918754" fill="#ff1602" stroke="none" /><path d="M 109.57404056367764 118.69057910512821 l 6.703705959979868 13.087070783664375 a35.70411831068124,35.70411831068124 0 0,0 -0.5494117291299543,0.275486446586162 l -6.477440323167153 -13.20052507115984" fill="#ffb610" stroke="none" /><path d="M 109.2508944713604 118.85261126421891 l 2.451147825632931 4.995250702605579 a26.564229977722576,26.564229977722576 0 0,0 -0.4122355254318213,0.19789810371889924 l -2.364799632200877 -5.0367030828240384" fill="#ff3905" stroke="none" /><path d="M 107.2578585660854 119.70592522655815 l 4.100261381458064 11.132683760181978 a32.86375956855566,32.86375956855566 0 0,0 -0.5325187878736608,0.1909422912205245 l -3.908023032954669 -11.201613592442461" fill="#ff900d" stroke="none" /><path d="M 106.57524785965236 119.94407469862006 l 3.7024542608438726 11.230302784418285 a32.82488343212541,32.82488343212541 0 0,0 -0.5381384150266102,0.1722949266404831 l -3.508594500726322 -11.292370557718474" fill="#ff900d" stroke="none" /><path d="M 105.88484417918355 120.15858648285463 l 3.6720094756127426 12.578501371683021 a34.10352434829735,34.10352434829735 0 0,0 -0.5649311037408731,0.15965517286144326 l -3.4549472037672637 -12.639845337882985" fill="#ffa10e" stroke="none" /><path d="M 105.18746579009965 120.34920634021253 l 3.624501215242036 14.218064483446812 a35.672776380588054,35.672776380588054 0 0,0 -0.5963243320235904,0.1465620123124824 l -3.379223598475235 -14.278347754073325" fill="#ffb510" stroke="none" /><path d="M 101.26447882468166 120.96189622390904 l 0.6382443544528751 10.5804950327303 a31.59972787356456,31.59972787356456 0 0,0 -0.5432323236782833,0.02807890611345475 l -0.4560239623611121 -10.589913745605955" fill="#ff7f0b" stroke="none" /><line stroke="#e1ed5e" stroke-width="0.3" x1="102.19456741930631" x2="102.32365962044197" y1="184.97166512339345" y2="189.96999836594603" /><path d="M 102.22038585953345 185.97133177190398 a86.0,86.0 0 0,1 -42.740103519485714,-10.115201625700543" fill="none" id="id43" stroke="none" /><text fill="#e1ed5e" style="font-size:6.75px; font-family:Arial;" text-anchor="middle"><textPath startOffset="22.20632615414155" xlink:href="#id43">July</textPath></text><path d="M 100.18074693466247 120.99922214144158 l 0.053413882860128076 6.205637698428483 a27.205867569247587,27.205867569247587 0 0,0 -0.4683216350451628,0.0 l 0.0534138828601238 -6.205637698428483" fill="#ff4206" stroke="none" /><path d="M 99.81925306533755 120.99922214144158 l -0.07933939613144499 9.21767003707966 a30.218011480371167,30.218011480371167 0 0,0 -0.5200955923948702,-0.00895391728643923 l 0.23799467841898314 -9.214938642514062" fill="#ff6c0a" stroke="none" /><path d="M 98.01472825383883 120.90594882070398 l -0.9404592114704907 9.903526900526133 a30.948080648943517,30.948080648943517 0 0,0 -0.5299009999514906,-0.0549264052794369 l 1.1107928080275749 -9.885871126790935" fill="#ff760a" stroke="none" /><path d="M 97.65516085044442 120.86867818915974 l -0.6655941445829373 5.923677114706551 a26.960953457677824,26.960953457677824 0 0,0 -0.46074032592135217,-0.05578923702685117 l 0.7674618935556788 -5.911342348954351" fill="#ff3f05" stroke="none" /><path d="M 96.93821686468263 120.77559828337769 l -3.3430640030530214 22.684217559990902 a43.929234684949876,43.929234684949876 0 0,0 -0.7471403413613761,-0.11668795560346357 l 3.733040208022915 -22.62331129704033" fill="#e2ff1b" stroke="none" /><path d="M 94.46302465271185 120.25689768951611 l -2.32760691337368 8.515496665289248 a29.82787842008131,29.82787842008131 0 0,0 -0.49410424875767994,-0.1396387961728606 l 2.473842330235974 -8.474169075777867" fill="#ff6709" stroke="none" /><path d="M 93.76903079525671 120.05430185196036 l -4.390835052154701 14.131851502499321 a35.79826541672782,35.79826541672782 0 0,0 -0.5868846983689792,-0.18790194720981815 l 4.633441095614621 -14.054176708629797" fill="#ffb711" stroke="none" /><path d="M 93.08242187328487 119.8279376855182 l -4.963008715111373 14.225531787761838 a36.06642658864052,36.06642658864052 0 0,0 -0.5844142612427764,-0.20955016161818457 l 5.207142536983876 -14.137994085103696" fill="#ffbb11" stroke="none" /><path d="M 92.7421414339146 119.70592522655815 l -6.103336989428009 16.5712656496453 a38.65948945008418,38.65948945008418 0 0,0 -0.6224726015846255,-0.23536587505606735 l 6.387679811772918 -16.4637515244826" fill="#ffdc14" stroke="none" /><path d="M 91.07499286063937 119.00905698771935 l -4.843964154551561 10.316987899567858 a32.39755359936552,32.39755359936552 0 0,0 -0.5027596336103041,-0.24135517678556886 l 5.020836456162106 -10.232078446282726" fill="#ff8a0c" stroke="none" /><path d="M 90.7491055286396 118.85261126421891 l -3.3882126046118413 6.904916634064717 a28.69141458884087,28.69141458884087 0 0,0 -0.44150088130656023,-0.2213777072950588 l 3.506567393601162 -6.845571085860357" fill="#ff5708" stroke="none" /><path d="M 90.42595943632237 118.69057910512821 l -5.931216525452571 11.579005846203735 a34.00971582542147,34.00971582542147 0 0,0 -0.5187438753033863,-0.2713822782090923 l 6.1296513032824524 -11.475194149049926" fill="#ffa00e" stroke="none" /><line stroke="#e1ed5e" stroke-width="0.3" x1="58.666819895761336" x2="56.23545636021788" y1="174.27360380694188" y2="178.64263932499728" /><path d="M 58.180547188652646 175.14741091055294 a86.0,86.0 0 0,1 -31.652253787137756,-30.449443065178592" fill="none" id="id44" stroke="none" /><text fill="#e1ed5e" style="font-size:6.75px; font-family:Arial;" text-anchor="middle"><textPath startOffset="22.20632615414155" xlink:href="#id44">August</textPath></text><path d="M 88.24862548938628 117.40417183066458 l -2.021583362072657 2.9940313936678082 a24.612620001616193,24.612620001616193 0 0,0 -0.34908092470830143,-0.24010104310418173 l 2.0728211714038487 -2.9587895611985253" fill="#ff1d02" stroke="none" /><path d="M 87.95078237400918 117.19931262002967 l -1.0221425523877221 1.4590282827019536 a22.781442934007682,22.781442934007682 0 0,0 -0.3192360041737397,-0.22776641273635131 l 1.0471058844103487 -1.441217608121383" fill="#ff0200" stroke="none" /><path d="M 86.24171649860922 115.8653595955263 l -4.646467248921549 5.358072011346783 a28.092150137587215,28.092150137587215 0 0,0 -0.36259962467091755,-0.3199520100366321 l 4.738009226499054 -5.277296859537863" fill="#ff4f07" stroke="none" /><path d="M 85.97065885151581 115.62618273729859 l -7.7706480896047925 8.655115429174957 a32.63159468107538,32.63159468107538 0 0,0 -0.4147327296187623,-0.3788485152886281 l 7.9184803686904095 -8.520074147299752" fill="#ff8d0d" stroke="none" /><path d="M 85.18274418774928 114.88116024355367 l -6.353197473718916 6.380597788369459 a30.004173825344203,30.004173825344203 0 0,0 -0.36284958240045445,-0.36756471127744383 l 6.462087681174904 -6.270292583111351" fill="#ff6909" stroke="none" /><path d="M 83.50135304334701 112.99209946851258 l -3.464464054134436 2.7281425994905995 a25.409679492383198,25.409679492383198 0 0,0 -0.26764037525661977,-0.3459612633048358 l 3.5109112466091243 -2.668103342072511" fill="#ff2903" stroke="none" /><path d="M 82.6465618267979 111.8261652097733 l -9.773194152049633 6.660317541443271 a32.826882669854896,32.826882669854896 0 0,0 -0.3141953083660546,-0.46967935542800304 l 9.886392565826418 -6.491101271809447" fill="#ff900d" stroke="none" /><path d="M 82.05923443525364 110.91462005526583 l -12.45251561348673 7.575734500457735 a35.575901286903544,35.575901286903544 0 0,0 -0.31377796583840095,-0.5259099192200353 l 12.581074455023362 -7.360262487351589" fill="#ffb410" stroke="none" /><line stroke="#e1ed5e" stroke-width="0.3" x1="26.63291911575756" x2="22.317208475507996" y1="142.92168965132927" y2="145.44649492493687" /><path d="M 25.769776987707644 143.4266507060508 a86.0,86.0 0 0,1 -11.730757126820373,-40.83630448921669" fill="none" id="id45" stroke="none" /><text fill="#e1ed5e" style="font-size:6.75px; font-family:Arial;" text-anchor="middle"><textPath startOffset="21.46611528233685" xlink:href="#id45">September</textPath></text><path d="M 81.69416730710424 110.29060199501025 l -7.804673241919721 4.387387745812363 a29.953328746630618,29.953328746630618 0 0,0 -0.24878891185078178,-0.45162414063358347 l 7.87903856322202 -4.252393086780957" fill="#ff6909" stroke="none" /><path d="M 81.18737489456691 109.33194174019688 l -5.595616238078712 2.7756873079435165 a27.24622775083721,27.24622775083721 0 0,0 -0.20479658666682496,-0.4219416272789238 l 5.642566081360256 -2.678956724699308" fill="#ff4306" stroke="none" /><path d="M 80.87730276802145 108.67885076344099 l -2.635139109619697 1.1959599002096353 a23.893834516684866,23.893834516684866 0 0,0 -0.16675497468455416,-0.375988445886036 l 2.655335169035531 -1.1504231178309035" fill="#ff1302" stroke="none" /><path d="M 80.45479744820244 107.68017299344265 l -3.5503467866971 1.3950879985144593 a24.814607821180246,24.814607821180246 0 0,0 -0.1527938448058217,-0.398896514224193 l 3.573834911096431 -1.3337679174571087" fill="#ff2003" stroke="none" /><path d="M 79.86692584326677 105.97154293290107 l -6.444086187987429 1.911339372979575 a27.72156715334395,27.72156715334395 0 0,0 -0.1317531675695262,-0.4586500607012711 l 6.476031992443059 -1.8001318367737078" fill="#ff4a06" stroke="none" /><path d="M 79.58551787078972 104.9243191809786 l -4.715746184802656 1.1375179269046047 a25.851000836271847,25.851000836271847 0 0,0 -0.10062124659455267,-0.43347369682664455 l 4.734627997327764 -1.056175572729386" fill="#ff2f04" stroke="none" /><path d="M 79.04373962182676 101.35467743843564 l -6.525485479667752 0.42182754912476716 a27.53910538426743,27.53910538426743 0 0,0 -0.02650789586232715,-0.4733162876191025 l 6.531779726417612 -0.3094395451702271" fill="#ff4706" stroke="none" /><line stroke="#e1ed5e" stroke-width="0.3" x1="15.007084014347285" x2="10.007500721073583" y1="101.09737516637583" y2="101.16192664675087" /><path d="M 14.007167355692545 101.11028546245083 a86.0,86.0 0 0,1 10.666146001902534,-42.60595125391555" fill="none" id="id46" stroke="none" /><text fill="#e1ed5e" style="font-size:6.75px; font-family:Arial;" text-anchor="middle"><textPath startOffset="22.20632615414155" xlink:href="#id46">October</textPath></text><path d="M 79.16333360222342 97.38593545837743 l -4.872038183963555 -0.6112216810021643 a25.910228916183645,25.910228916183645 0 0,0 0.05932702245797689,-0.44205522731307045 l 4.860795162447745 0.6949952503798942" fill="#ff3004" stroke="none" /><path d="M 79.54389044137918 95.25157060432595 l -10.024024969972752 -2.326853730128262 a31.290545412175636,31.290545412175636 0 0,0 0.1263053291858066,-0.5236171317748012 l 9.98248684052613 2.4990560935624604" fill="#ff7b0b" stroke="none" /><path d="M 79.71946130924805 94.55025226153421 l -14.102998780509644 -3.789730977151795 a35.60330905932763,35.60330905932763 0 0,0 0.16413672993130723,-0.5904871479164654 l 14.035675280011976 4.031929428487203" fill="#ffb410" stroke="none" /><path d="M 79.91906864156998 93.8553929516997 l -5.41344446261352 -1.6564714258929634 a26.661208222155484,26.661208222155484 0 0,0 0.13806000906064209,-0.4376879570218482 l 5.384128969784674 1.749409549341226" fill="#ff3b05" stroke="none" /><path d="M 80.2630227832202 92.82701384747504 l -16.685041865034247 -6.0638249179534975 a38.752763015191164,38.752763015191164 0 0,0 0.2332462584763807,-0.6249840099728716 l 16.57819101805624 6.3501320649557105" fill="#ffdd14" stroke="none" /><path d="M 80.38941819471856 92.48833698450439 l -11.158856938967698 -4.274303220370332 a32.94946677488229,32.94946677488229 0 0,0 0.20743485883801674,-0.5278990897411013 l 11.08362853024799 4.465751315007197" fill="#ff910d" stroke="none" /><path d="M 80.52162464483688 92.15188598940014 l -14.931162222772024 -6.015977272150427 a37.09756465623806,37.09756465623806 0 0,0 0.2437456853284698,-0.5902495107572191 l 14.825394850557354 6.2721013533609575" fill="#ffc812" stroke="none" /><path d="M 80.803312248108 91.48605970444005 l -21.432283015379507 -9.505451166829557 a44.44560421776983,44.44560421776983 0 0,0 0.3161938233951761,-0.6966911767717072 l 21.26548687502098 9.872964352443335" fill="#dbff1b" stroke="none" /><path d="M 80.95270993114464 91.15688171328213 l -15.117606845559747 -7.018677463518807 a37.667449417167035,37.667449417167035 0 0,0 0.27809663766724,-0.5857424424120243 l 14.994552014050756 7.277862321571363" fill="#ffcf13" stroke="none" /><path d="M 81.26839172434947 90.50648371742162 l -20.11670718153376 -10.195509342783312 a43.5528339369214,43.5528339369214 0 0,0 0.3446700075933519,-0.6657927484103596 l 19.93822774078029 10.540274813454008" fill="#e6ff1a" stroke="none" /><line stroke="#e1ed5e" stroke-width="0.3" x1="26.266209847984243" x2="21.928928074336255" y1="57.711370442889674" y2="55.22380399835377" /><path d="M 25.398753493254645 57.213857153982495 a86.0,86.0 0 0,1 29.58750427330803,-30.492523968695096" fill="none" id="id47" stroke="none" /><text fill="#e1ed5e" style="font-size:6.75px; font-family:Arial;" text-anchor="middle"><textPath startOffset="21.46611528233685" xlink:href="#id47">November</textPath></text><path d="M 81.96595687620814 89.24020034530311 l -2.820499469563941 -1.6828178246202312 a24.284371033953082,24.284371033953082 0 0,0 0.21726903170645673,-0.35713316108006427 l 2.7911146395712674 1.73111875890737" fill="#ff1802" stroke="none" /><path d="M 82.15384107792192 88.93136811851018 l -16.035643587258853 -9.945705214501874 a39.869523509388515,39.869523509388515 0 0,0 0.3667472234684134,-0.5801060329908116 l 15.862068767544478 10.220258895206902" fill="#ffeb16" stroke="none" /><path d="M 82.34701348167596 88.62581576622439 l -3.9534990202280738 -2.547321167296436 a25.703084055415214,25.703084055415214 0 0,0 0.24283706467964622,-0.3698575096004823 l 3.9090653201905075 2.6149967408745853" fill="#ff2d04" stroke="none" /><path d="M 82.54541684631803 88.32363383020206 l -18.910559998232618 -12.650352120767737 a43.75171835765748,43.75171835765748 0 0,0 0.42413235440813823,-0.622361894910261 l 18.690003178155738 12.973992038948415" fill="#e4ff1b" stroke="none" /><path d="M 83.17141714833178 87.43820079747576 l -11.827767046395254 -8.828909478632765 a35.75959741611149,35.75959741611149 0 0,0 0.3724516344192082,-0.49010269260582817 l 11.674039471751938 9.03119694711962" fill="#ffb710" stroke="none" /><path d="M 83.6137871275137 86.86637796730984 l -10.413119295239825 -8.346161133706898 a34.3450911996395,34.3450911996395 0 0,0 0.37370976804244976,-0.45812398767967455 l 10.267911035120983 8.524169290994655" fill="#ffa40f" stroke="none" /><path d="M 83.84228863543731 86.58626213691792 l -28.172275060431822 -23.387935589447576 a57.61519647928681,57.61519647928681 0 0,0 0.6400482781176962,-0.7576152796721487 l 27.765516168827002 23.86940981874884" fill="#4bff2c" stroke="none" /><path d="M 84.31358615837235 86.03803664274999 l -13.160801677263459 -11.713998663120863 a38.618866747548154,38.618866747548154 0 0,0 0.44624350516638644,-0.4927532239911407 l 12.957214531481027 11.93880467438156" fill="#ffdb14" stroke="none" /><path d="M 84.80347519578584 85.50635884689758 l -1.8810800740282496 -1.7940746272237358 a23.59945494535953,23.59945494535953 0 0,0 0.28289648413691265,-0.29154969420609345 l 1.8499193261882185 1.826188516979953" fill="#ff0e01" stroke="none" /><path d="M 85.05521093208273 85.24692304244772 l -11.753929978133396 -11.603150284224723 a37.516293968356436,37.516293968356436 0 0,0 0.45763482976628,-0.4556696003713937 l 11.552459348199802 11.803755735246227" fill="#ffcd13" stroke="none" /><path d="M 85.31137513191541 84.99185889309783 l -31.073347788807553 -31.749274861771557 a65.42487363012427,65.42487363012427 0 0,0 0.811632184056514,-0.7807895180070216 l 30.522232361138613 32.279447466540894" fill="#36ff6c" stroke="none" /><path d="M 85.83668400450813 84.49514656593479 l -11.92618692815504 -13.05582537360359 a38.68300061729704,38.68300061729704 0 0,0 0.49549057775576955,-0.44485633299313504 l 11.699685362803299 13.259180715366004" fill="#ffdc14" stroke="none" /><path d="M 86.37877921826538 84.01681056812374 l -5.09820823384608 -5.982255869017362 a28.85996898709204,28.85996898709204 0 0,0 0.38087251849363696,-0.3189697809311682 l 4.994478178393332 6.069126807342343" fill="#ff5908" stroke="none" /><path d="M 86.93701828274178 83.55741782278169 l -19.326800349168654 -24.326949990602614 a52.06969114075494,52.06969114075494 0 0,0 0.7065793732389918,-0.5514964083893359 l 18.905188420770237 24.65602478821517" fill="#85ff25" stroke="none" /><path d="M 87.51073957382395 83.11751280151077 l -10.504806414447518 -14.199980924636538 a38.66325043883654,38.66325043883654 0 0,0 0.5384404131344976,-0.39119985893899 l 10.258820684959238 14.378700018392196" fill="#ffdc14" stroke="none" /><path d="M 88.09926311788651 82.69761687909137 l -10.0083850133212 -14.5511083588708 a38.66076230083153,38.66076230083153 0 0,0 0.5515515664758932,-0.3724100797576694 l 9.756428752438767 14.721230350927136" fill="#ffdc14" stroke="none" /><path d="M 88.70189139769569 82.29822771554957 l -8.09586937368557 -12.684533415478864 a36.04793968901324,36.04793968901324 0 0,0 0.5259237293882937,-0.3293333910946153 l 7.876326491925035 12.82201114789641" fill="#ffba11" stroke="none" /><line stroke="#e1ed5e" stroke-width="0.3" x1="56.762969772571076" x2="54.21961505331055" y1="26.818313649435495" y2="22.513508569990535" /><path d="M 56.25429882871897 25.957352633546506 a86.0,86.0 0 0,1 42.265352541879196,-11.944610805530505" fill="none" id="id48" stroke="none" /><text fill="#e1ed5e" style="font-size:6.75px; font-family:Arial;" text-anchor="middle"><textPath startOffset="22.20632615414155" xlink:href="#id48">December</textPath></text><path d="M 89.3179101791058 81.91981866633112 l -14.978051195572998 -25.351395296380907 a50.445462487292836,50.445462487292836 0 0,0 0.7514050237296818,-0.43526228958256147 l 14.539449439377996 25.605461743353516" fill="#97ff23" stroke="none" /><path d="M 89.94658935756843 81.56283822128135 l -4.2048107699596695 -7.711291140087598 a29.783191029367533,29.783191029367533 0 0,0 0.45221514237655136,-0.24155766785540714 l 4.071450581054813 7.782527534444754" fill="#ff6609" stroke="none" /><path d="M 90.91171255644093 81.06846463323043 l -3.333632492555623 -6.944188531069845 a28.70291243299991,28.70291243299991 0 0,0 0.44724849272556844,-0.20998916428220396 l 3.213605788530446 7.0005426779920565" fill="#ff5708" stroke="none" /><path d="M 91.56875222667455 80.76684994638697 l -25.293743319976343 -57.69945016083907 a84.0,84.0 0 0,0 1.329264968838767,-0.5691218881488553 l 24.29679459334727 58.12629157695071" fill="#4dd2ff" stroke="none" /><path d="M 92.91201910852362 80.23233633223022 l -1.6091168904985245 -4.487664679197078 a25.76743027638587,25.76743027638587 0 0,0 0.41880417439881196,-0.146112553012219 l 1.5316307120364272 4.514698085381506" fill="#ff2e04" stroke="none" /><path d="M 93.94186890950719 79.89281104454417 l -2.357960986952898 -7.8261705476561785 a29.17367270307497,29.17367270307497 0 0,0 0.4820738006143911,-0.14073056173335405 l 2.2228969686150855 7.865599438308231" fill="#ff5e08" stroke="none" /><path d="M 94.63758080256005 79.69619591428918 l -2.994922530094522 -11.339717777370108 a32.72854467662853,32.72854467662853 0 0,0 0.5459294422142312,-0.13916957044649667 l 2.7992841991952915 11.389590343985468" fill="#ff8e0d" stroke="none" /><path d="M 96.04723909329186 79.375362276772 l -2.8754812795494447 -15.003629379653336 a36.2766909751764,36.2766909751764 0 0,0 0.6142937286197794,-0.11225825243856813 l 2.616792429826772 15.050903113442642" fill="#ffbd11" stroke="none" /><path d="M 97.47563105711357 79.15227682838746 l -1.1372927768593821 -9.39243253005971 a30.46103713617172,30.46103713617172 0 0,0 0.5210770849971365,-0.058549081918964886 l 0.9754489883525276 9.410617565449272" fill="#ff700a" stroke="none" /><path d="M 98.55514903715128 79.0497635885617 l -0.6075410705494283 -8.809302402078654 a29.830227344959646,29.830227344959646 0 0,0 0.5125656246573091,-0.030919358235331144 l 0.4558133970524962 8.81845502969429" fill="#ff6709" stroke="none" /><path d="M 99.27714615592234 79.0124445844662 l -0.5994339283706837 -17.40414454831232 a38.41446434700279,38.41446434700279 0 0,0 0.6610459161077502,-0.017072865737642468 l 0.29976137706805456 17.411884206192322" fill="#ffd914" stroke="none" /></svg>