<?xml version="1.0" encoding="utf-8" ?>
<svg baseProfile="full" height="200mm" version="1.1" viewBox="0,0,200,200" width="200mm" xmlns="http://www.w3.org/2000/svg" xmlns:ev="http://www.w3.org/2001/xml-events" xmlns:xlink="http://www.w3.org/1999/xlink"><defs /><rect fill="#1a1a1a" height="200" width="200" x="0" y="0" /><text alignment-baseline="middle" fill="#e1ed5e" style="dominant-baseline: central; font-size:9.0px; font-family:Arial;" text-anchor="middle" x="100.0" y="100.0">2025</text><line stroke="#e1ed5e" stroke-width="0.3" x1="100.0" x2="100.0" y1="15.0" y2="10.0" /><path d="M 100.0 14.0 a86.0,86.0 0 0,1 42.46469731375804,11.215312516191453" fill="none" id="id109" stroke="none" /><text fill="#e1ed5e" style="font-size:6.75px; font-family:Arial;" text-anchor="middle"><textPath startOffset="22.20632615414155" xlink:href="#id109">January</textPath></text><path d="M 101.44485096284872 79.0497635885617 l 1.7420566882562294 -25.25969833534771 a46.319698290024434,46.319698290024434 0 0,0 0.7949558899762474,0.061703876912993415 l -2.176602767594818 25.225969196246254" fill="#c7ff1e" stroke="none" /><path d="M 102.88285421437855 79.19881850522331 l 2.275083097895141 -16.415820196172163 a37.57272324681077,37.57272324681077 0 0,0 0.6398653010870896,0.09429951239049118 l -2.557317379410886 16.374226199620704" fill="#ffcc13" stroke="none" /><path d="M 103.95276090670814 79.375362276772 l 4.439372703534573 -23.163671137660515 a44.58524306795617,44.58524306795617 0 0,0 0.7525003707312697,0.15094449521275025 l -4.837439483732968 23.083822686370556" fill="#dbff1b" stroke="none" /><path d="M 105.36241919743992 79.69619591428918 l 6.725848425020608 -25.46617556437968 a47.33938372308967,47.33938372308967 0 0,0 0.7860639536709558,0.2148609722761489 l -7.163210267915274 25.346628051277236" fill="#bbff1f" stroke="none" /><path d="M 106.74666289553966 80.11325718540242 l 4.8180315635577555 -14.20182926887182 a35.9968457593463,35.9968457593463 0 0,0 0.5850652978392155,0.20411779435783803 l -5.061778865460245 14.116790621341776" fill="#ffb811" stroke="none" /><path d="M 107.08798089147638 80.2323363322302 l 12.302837705990694 -34.31137324645409 a57.450379280296,57.450379280296 0 0,0 0.9280087639497796,0.3417934595508292 l -12.89162879571305 34.094516519096935" fill="#4dff2c" stroke="none" /><path d="M 108.09893153111575 80.62456947434976 l 9.28374200864527 -22.209904802317343 a45.072136112341255,45.072136112341255 0 0,0 0.713247757200794,0.30537546675186933 l -9.66467352363638 22.046809807602685" fill="#d5ff1c" stroke="none" /><line stroke="#e1ed5e" stroke-width="0.3" x1="143.23703022742887" x2="145.7803849466894" y1="26.81831364943548" y2="22.513508569990506" /><path d="M 143.74570117128098 25.957352633546492 a86.0,86.0 0 0,1 28.547481713284135,27.462654790039103" fill="none" id="id110" stroke="none" /><text fill="#e1ed5e" style="font-size:6.75px; font-family:Arial;" text-anchor="middle"><textPath startOffset="19.985693538727396" xlink:href="#id110">February</textPath></text><path d="M 110.99172775467656 82.1063720568725 l 2.3396029370884657 -3.808680984943229 a25.469876144626504,25.469876144626504 0 0,0 0.37159439248400666,0.2326923744833499 l -2.4048164819447355 3.7678442691369347" fill="#ff2703" stroke="none" /><path d="M 112.77801427241765 83.33499621200491 l 11.085827762108279 -14.458065056898795 a39.218979728861015,39.218979728861015 0 0,0 0.532196782980363,0.41538803068166613 l -11.333057100248071 14.265098636993903" fill="#ffe115" stroke="none" /><path d="M 114.68862486808459 84.99185889309783 l 2.5851190790107075 -2.6413522208084665 a24.695887201611406,24.695887201611406 0 0,0 0.30124772305518316,0.29995406959617305 l -2.6302026022332132 2.596462300562175" fill="#ff1c02" stroke="none" /><path d="M 116.60985879189232 87.15038557335679 l 2.856902356054083 -2.2101388211549766 a24.61200839988,24.61200839988 0 0,0 0.25634468554571305,0.33731955779187367 l -2.8945229818239095 2.1606344874820693" fill="#ff1a02" stroke="none" /><line stroke="#e1ed5e" stroke-width="0.3" x1="172.23445277983987" x2="176.4835382374775" y1="55.19839476539836" y2="52.563006222186495" /><path d="M 173.08426987136738 54.67131705675599 a86.0,86.0 0 0,1 12.851231095245387,41.99856678651699" fill="none" id="id111" stroke="none" /><text fill="#e1ed5e" style="font-size:6.75px; font-family:Arial;" text-anchor="middle"><textPath startOffset="22.20632615414155" xlink:href="#id111">March</textPath></text><path d="M 118.03404312379186 89.2402003453031 l 16.1555925011891 -9.63904419117128 a39.81261124841074,39.81261124841074 0 0,0 0.3460670008319622,0.5915406836883351 l -16.31911917649139 9.359524095129048" fill="#ffe915" stroke="none" /><path d="M 118.73160827565052 90.50648371742162 l 18.25695610269086 -9.252954016581654 a41.4678676018914,41.4678676018914 0 0,0 0.3172094149722677,0.6394748242032179 l -18.413525530616536 8.937319603879486" fill="#fffd17" stroke="none" /><path d="M 119.7369772167798 92.82701384747503 l 14.099443972131507 -5.124144151335332 a36.001705689918715,36.001705689918715 0 0,0 0.206661652691031,0.5842603215149883 l -14.185558705632348 4.880686203393728" fill="#ffb811" stroke="none" /><path d="M 120.37134235888165 94.90015583598534 l 18.806787412669177 -4.708167156620817 a40.387163040527994,40.387163040527994 0 0,0 0.1630241293502518,0.6758402639914733 l -18.885044342280246 4.383741660969938" fill="#fff016" stroke="none" /><path d="M 120.73433829027371 96.67025291283417 l 10.831522827765136 -1.7394445426907834 a31.970303281381696,31.970303281381696 0 0,0 0.08258097799872234,0.5441054652314355 l -10.85985969920316 1.5527399650672657" fill="#ff820c" stroke="none" /><path d="M 120.87857604477298 97.74499172005257 l 17.83553723169316 -1.9263422969330204 a38.93926372480393,38.93926372480393 0 0,0 0.06623916305084394,0.6670193322935781 l -17.866053520426235 1.6190474339350072" fill="#ffde14" stroke="none" /><path d="M 120.96714384426684 98.82574320788733 l 38.51112087465121 -2.1568004490652846 a59.57146897901459,59.57146897901459 0 0,0 0.04852632792672073,1.0243140862130797 l -38.54254081081143 1.493575256229205" fill="#38ff2e" stroke="none" /><line stroke="#e1ed5e" stroke-width="0.3" x1="184.98032266829074" x2="189.97916517819016" y1="98.17113171792111" y2="98.06355123074" /><path d="M 185.9800911702706 98.14961562048488 a86.0,86.0 0 0,1 -9.607161424134198,41.387399972396054" fill="none" id="id112" stroke="none" /><text fill="#e1ed5e" style="font-size:6.75px; font-family:Arial;" text-anchor="middle"><textPath startOffset="21.466115282336823" xlink:href="#id112">April</textPath></text><path d="M 120.99513854157772 99.54816195383933 l 18.408034556892623 -0.3961607755706375 a39.41229696718619,39.41229696718619 0 0,0 0.008758900448587566,0.6783864923900664 l -18.412126464458925 0.07923802512010833" fill="#ffe315" stroke="none" /><path d="M 120.9904718944345 100.63252640178507 l 20.17395420227946 0.6079214762545673 a41.18311166983329,41.18311166983329 0 0,0 -0.027451225044209035,0.708394141614609 l -20.160500844384046 -0.9550928648831825" fill="#fffa17" stroke="none" /><path d="M 120.92983693683757 101.71520430193887 l 23.46984566165326 1.9233585223904517 a44.54852359252011,44.54852359252011 0 0,0 -0.06921016987934299,0.7637284574281112 l -23.433260895496844 -2.3270683683671334" fill="#dcff1b" stroke="none" /><path d="M 120.8583938346157 102.4346265915055 l 17.869607481296043 2.0857704528298204 a38.990922986814475,38.990922986814475 0 0,0 -0.08354917559423944,0.665969134253231 l -17.831056796454956 -2.3930573413704463" fill="#ffde14" stroke="none" /><path d="M 120.70491114924044 103.5080841355445 l 17.87121833379233 3.027964576507193 a39.1259210582706,39.1259210582706 0 0,0 -0.11822280418587257,0.6630562697586105 l -17.81644908726727 -3.335139596999022" fill="#ffe015" stroke="none" /><path d="M 120.49622156327973 104.57218783832717 l 17.553884589673668 3.915826992234258 a38.98534306652762,38.98534306652762 0 0,0 -0.1517447561552959,0.6537124379877708 l -17.48387926758782 -4.217408087570594" fill="#ffde14" stroke="none" /><path d="M 120.41448212921028 104.9243191809786 l 9.35751496669397 2.2571912500710587 a30.625902487107325,30.625902487107325 0 0,0 -0.12802893942241805,0.5114119712170757 l -9.31727471297649 -2.4179310606855307" fill="#ff700a" stroke="none" /><path d="M 120.23288151984713 105.62410040840565 l 13.057999573592458 3.6297104128624946 a34.553086384480224,34.553086384480224 0 0,0 -0.16422154473722822,0.5716767410729555 l -12.99358539196913 -3.8539446294400324" fill="#ffa50f" stroke="none" /><path d="M 120.02730092923936 106.31721596034902 l 36.61596341233469 11.549781435313045 a59.394351509264155,59.394351509264155 0 0,0 -0.3159433004499844,0.9723734944757387 l -36.41172786086846 -12.17835382976658" fill="#3aff2e" stroke="none" /><path d="M 119.79798401119884 107.00284435728193 l 10.805132788923654 3.8219377860793626 a32.46115626919615,32.46115626919615 0 0,0 -0.1908650123316101,0.5251785406756014 l -10.737743515586816 -4.0073641237610955" fill="#ff890c" stroke="none" /><path d="M 119.54520255179757 107.68017299344265 l 16.831362024912927 6.613785235738256 a39.0841616548335,39.0841616548335 0 0,0 -0.251436574452832,0.6240449576285401 l -16.715022836202703 -6.902529561209609" fill="#ffdf14" stroke="none" /><path d="M 119.26925614724726 108.34839909993367 l 19.870062970963815 8.60869846530724 a42.65477064613363,42.65477064613363 0 0,0 -0.29768747223493747,0.6712066626922729 l -19.718934413997605 -8.949453464492201" fill="#f2ff19" stroke="none" /><path d="M 119.12269723197855 108.67885076344098 l 16.545376917914105 7.509131967812917 a39.16966043342238,39.16966043342238 0 0,0 -0.28393412227292475,0.6115688394105514 l -16.41366817880135 -7.792820874502299" fill="#ffe015" stroke="none" /><path d="M 118.81262510543309 109.33194174019688 l 17.300219153470472 8.58171766715318 a40.311744117941174,40.311744117941174 0 0,0 -0.3137047069994996,0.6189691480832771 l -17.149935776684703 -8.87824102693915" fill="#ffef16" stroke="none" /><line stroke="#e1ed5e" stroke-width="0.3" x1="174.80103733775053" x2="179.2010983576182" y1="140.37084112569926" y2="142.7455964860345" /><path d="M 175.68104954172406 140.8457921977663 a86.0,86.0 0 0,1 -30.038265399797805,32.042727171017184" fill="none" id="id113" stroke="none" /><text fill="#e1ed5e" style="font-size:6.75px; font-family:Arial;" text-anchor="middle"><textPath startOffset="22.206326154141568" xlink:href="#id113">May</textPath></text><path d="M 118.48025628344425 109.97397251340804 l 9.170722570702893 4.949527400776611 a31.421131126698192,31.421131126698192 0 0,0 -0.260980310010173,0.47375506952385904 l -9.08416585124121 -5.106652988698275" fill="#ff7b0b" stroke="none" /><path d="M 118.30583269289576 110.29060199501025 l 24.790502832640552 13.935951572740109 a49.439053727803895,49.439053727803895 0 0,0 -0.42340548214575185,0.7382431470754184 l -24.54694535434242 -14.360614565673842" fill="#a3ff22" stroke="none" /><path d="M 116.71984013943494 112.70617746262583 l 2.296270040892267 1.7450414835529806 a23.884098798588592,23.884098798588592 0 0,0 -0.25157142053037707,0.3251899732042715 l -2.2658918031438215 -1.7843094508705049" fill="#ff1001" stroke="none" /><path d="M 114.81725581225074 114.88116024355365 l 12.710229801103665 12.765046969509257 a39.01378266024771,39.01378266024771 0 0,0 -0.4799625051559719,0.46974433001165616 l -12.4886173435719 -12.981941402443486" fill="#ffde14" stroke="none" /><path d="M 112.92097659922987 116.55440617244103 l 1.1149166848283365 1.4284356532446454 a22.812034113798376,22.812034113798376 0 0,0 -0.31162463008929225,0.2389404779965498 l -1.0901633262455506 -1.4474154730685667" fill="#ff0000" stroke="none" /><path d="M 112.04921762599082 117.19931262002967 l 7.2401681614759275 10.334771891097787 a33.61853973514664,33.61853973514664 0 0,0 -0.47681193376883163,0.32795559584954087 l -7.061199343084212 -10.457868276312421" fill="#ff980e" stroke="none" /><path d="M 111.45004920935366 117.60387380957326 l 4.426787499925202 6.805962761000086 a29.11896401479979,29.11896401479979 0 0,0 -0.4225275352785748,0.2696770642132044 l -4.308978162599696 -6.881154254037099" fill="#ff5b08" stroke="none" /><line stroke="#e1ed5e" stroke-width="0.3" x1="143.8653032363475" x2="146.44561519142675" y1="172.8068346515853" y2="177.08958963109032" /><path d="M 144.38136562736335 173.6633856474863 a86.0,86.0 0 0,1 -40.68145358897372,12.25698825130547" fill="none" id="id114" stroke="none" /><text fill="#e1ed5e" style="font-size:6.75px; font-family:Arial;" text-anchor="middle"><textPath startOffset="21.466115282336833" xlink:href="#id114">June</textPath></text><path d="M 109.57404056367764 118.69057910512821 l 6.006530470065151 11.726034807501541 a34.17491178697447,34.17491178697447 0 0,0 -0.525880438059389,0.26368736874179116 l -5.803796124323001 -11.827690017152635" fill="#ffa00e" stroke="none" /><path d="M 106.57524785965236 119.94407469862006 l 3.4119413044672577 10.349117431932045 a31.897044327938172,31.897044327938172 0 0,0 -0.5229272150855812,0.1674247807732275 l -3.233292744290736 -10.40631505936498" fill="#ff810b" stroke="none" /><path d="M 106.2309692047433 120.05430185196036 l 2.3500387732785097 7.563572435450575 a28.920246853616376,28.920246853616376 0 0,0 -0.4766676753048747,0.14361606040479452 l -2.219496123533389 -7.602903864961095" fill="#ff5808" stroke="none" /><path d="M 105.88484417918355 120.15858648285463 l 3.1236979214166563 10.70025522815578 a32.1468807588463,32.1468807588463 0 0,0 -0.5325189456504946,0.15049517322880593 l -2.939047807661556 -10.752439194723106" fill="#ff840c" stroke="none" /><path d="M 102.70371172650421 120.8252237178851 l 1.0027073811721323 7.723310636923347 a28.788128741017985,28.788128741017985 0 0,0 -0.49196523556274985,0.05957013873464122 l -0.8696147225580022 -7.739426304383339" fill="#ff5608" stroke="none" /><line stroke="#e1ed5e" stroke-width="0.3" x1="102.19456741930631" x2="102.32365962044197" y1="184.97166512339345" y2="189.96999836594603" /><path d="M 102.22038585953345 185.97133177190398 a86.0,86.0 0 0,1 -42.740103519485714,-10.115201625700543" fill="none" id="id115" stroke="none" /><text fill="#e1ed5e" style="font-size:6.75px; font-family:Arial;" text-anchor="middle"><textPath startOffset="22.20632615414155" xlink:href="#id115">July</textPath></text><path d="M 99.81925306533755 120.99922214144158 l -0.07905912906466532 9.18510854216287 a30.185448779303155,30.185448779303155 0 0,0 -0.5195351413104914,-0.008944268612760771 l 0.23715396026782468 -9.18238679627095" fill="#ff6a09" stroke="none" /><path d="M 98.01472825383883 120.90594882070398 l -1.3801128410085761 14.533309345036754 a35.59869144726504,35.59869144726504 0 0,0 -0.6095299546634173,-0.06318027201847985 l 1.6300753922775868 -14.507399704562514" fill="#ffb210" stroke="none" /><path d="M 97.2962882734958 120.8252237178851 l -2.1083320101899012 16.239336965317914 a37.37562606248483,37.37562606248483 0 0,0 -0.6372925275937208,-0.08832293730174905 l 2.387553128970453 -16.20063946252356" fill="#ffca12" stroke="none" /><path d="M 96.22490169976321 120.6578951692458 l -1.656964047015264 9.067151862059735 a30.217308324166797,30.217308324166797 0 0,0 -0.5108630026453101,-0.09790811032116496 l 1.8127946642322692 -9.037286553390102" fill="#ff6a09" stroke="none" /><path d="M 95.51606077576429 120.51570834832081 l -5.244212286798445 23.99424354619256 a45.56064913358381,45.56064913358381 0 0,0 -0.7647243238176106,-0.1740487663722395 l 5.656456760008918 -23.900418046242635" fill="#d0ff1d" stroke="none" /><path d="M 94.46302465271185 120.25689768951611 l -5.7827028028085765 21.15588596628717 a42.931966686190194,42.931966686190194 0 0,0 -0.7111758620046006,-0.20098540234617907 l 6.146009832917791 -21.053211770602466" fill="#efff19" stroke="none" /><path d="M 94.11515582081647 120.15858648285463 l -5.674590107211166 19.438359274763048 a41.249710718418314,41.249710718418314 0 0,0 -0.6798836750830954,-0.2048433741317071 l 6.008348756734508 -19.337800531525616" fill="#fffa17" stroke="none" /><path d="M 93.08242187328487 119.8279376855182 l -8.951890205127322 25.65891095170782 a48.17565177640319,48.17565177640319 0 0,0 -0.7806300930201795,-0.27990617786865135 l 9.392239858777229 -25.50101723279921" fill="#b1ff20" stroke="none" /><path d="M 92.40401165467489 119.57807347666478 l -7.2321457013360995 18.640297153937148 a40.994114369794715,40.994114369794715 0 0,0 -0.6556694772925549,-0.26090441649055596 l 7.551936254670512 -18.513045893040523" fill="#fff717" stroke="none" /><path d="M 92.06813273071674 119.44442032107085 l -10.19898917216778 25.00211180810654 a48.002314252653534,48.002314252653534 0 0,0 -0.7623877054015095,-0.31867812268930573 l 10.627848337066752 -24.82284864239726" fill="#b3ff20" stroke="none" /><path d="M 91.40352486487194 119.15986991738527 l -10.16471997121057 22.655182424620794 a45.83100527135327,45.83100527135327 0 0,0 -0.7169977151329359,-0.32913848450034605 l 10.553185682110925 -22.476856869786374" fill="#ccff1d" stroke="none" /><path d="M 91.07499286063937 119.00905698771935 l -7.806184227554836 16.626115645758016 a39.367477607462746,39.367477607462746 0 0,0 -0.6109220116693451,-0.29327969127079934 l 8.091218907224423 -16.489281677987655" fill="#ffe315" stroke="none" /><path d="M 90.42595943632237 118.69057910512821 l -8.211947593953406 16.031481702120086 a39.01234268081885,39.01234268081885 0 0,0 -0.5950480130676267,-0.3113009967310781 l 8.486686509547528 -15.887751286444292" fill="#ffde14" stroke="none" /><path d="M 90.10565033884886 118.52300852407294 l -8.485668819549376 15.885846089927472 a39.01018271167554,39.01018271167554 0 0,0 -0.5895686713105788,-0.3214798473721438 l 8.757860302728595 -15.737425590795564" fill="#ffde14" stroke="none" /><line stroke="#e1ed5e" stroke-width="0.3" x1="58.666819895761336" x2="56.23545636021788" y1="174.27360380694188" y2="178.64263932499728" /><path d="M 58.180547188652646 175.14741091055294 a86.0,86.0 0 0,1 -31.652253787137756,-30.449443065178592" fill="none" id="id116" stroke="none" /><text fill="#e1ed5e" style="font-size:6.75px; font-family:Arial;" text-anchor="middle"><textPath startOffset="22.20632615414155" xlink:href="#id116">August</textPath></text><path d="M 88.8546689885994 117.79835938074946 l -16.28166304133993 26.000743255593775 a51.677861744832214,51.677861744832214 0 0,0 -0.7498659478549288,-0.47859992660038914 l 16.72681079124178 -25.71662890016958" fill="#8aff24" stroke="none" /><path d="M 88.54995079064634 117.60387380957326 l -11.782423032490577 18.11488181775961 a42.609591291552974,42.609591291552974 0 0,0 -0.6113975205949667,-0.4052009381625359 l 12.092495251825506 -17.909382858505754" fill="#f3ff19" stroke="none" /><path d="M 87.95078237400918 117.19931262002967 l -11.108015043471745 15.855819792694037 a40.359623433950944,40.359623433950944 0 0,0 -0.5655587730914965,-0.4035111680840246 l 11.379301144412128 -15.662264362765793" fill="#ffef16" stroke="none" /><path d="M 87.36589467227662 116.77436683061367 l -21.664654320918306 28.764273322945986 a57.01028556734904,57.01028556734904 0 0,0 -0.7787911004597543,-0.5971438064763746 l 22.156574149871545 -28.387090174642243" fill="#52ff2b" stroke="none" /><path d="M 87.07902340077011 116.55440617244103 l -8.989438004453278 11.517303420901408 a35.61021128269596,35.61021128269596 0 0,0 -0.47996207077708986,-0.38131089679000835 l 9.186357567947727 -11.360858610106268" fill="#ffb310" stroke="none" /><path d="M 86.51685102203217 116.09983520530335 l -11.558553263794403 13.801731558621285 a39.0024428222454,39.0024428222454 0 0,0 -0.5109961199156708,-0.43548197921621234 l 11.79441486028713 -13.60072518918212" fill="#ffde14" stroke="none" /><path d="M 85.97065885151581 115.62618273729859 l -15.882470389428526 17.690238051682062 a44.77388037313753,44.77388037313753 0 0,0 -0.5690556592241696,-0.5198188525218222 l 16.18462559811955 -17.414226432573663" fill="#d9ff1c" stroke="none" /><path d="M 85.70375840098266 115.38237550388516 l -15.003486990617413 16.143352723781366 a43.038885158783444,43.038885158783444 0 0,0 -0.5383225170943479,-0.5090175403100675 l 15.279145342102577 -15.882700546725365" fill="#eeff19" stroke="none" /><path d="M 85.18274418774928 114.88116024355367 l -25.435699990465785 25.545400056610212 a57.049165011928395,57.049165011928395 0 0,0 -0.6899128708349084,-0.6988780957040118 l 25.871653486356227 -25.103781466925536" fill="#51ff2b" stroke="none" /><path d="M 84.67929136418377 114.36230785411682 l -14.134990273144298 13.250763175748467 a40.37474321795403,40.37474321795403 0 0,0 -0.4709494465470438,-0.5111226105814771 l 14.360986127687072 -13.005489310365647" fill="#fff016" stroke="none" /><path d="M 84.43433777217949 114.09645910891817 l -15.275033229209606 13.83326183951693 a41.60790560134855,41.60790560134855 0 0,0 -0.4761948521881647,-0.5350099645403757 l 15.510886931046109 -13.568277705235689" fill="#ffff18" stroke="none" /><path d="M 83.95833913139862 113.55231037782056 l -17.88326306103085 15.1081321040565 a44.410825559634866,44.410825559634866 0 0,0 -0.4883160604642889,-0.5882081519855661 l 18.140675121388675 -14.798062694957173" fill="#ddff1b" stroke="none" /><path d="M 83.50135304334701 112.99209946851258 l -30.34298237066467 23.894022713907002 a59.62150826416766,59.62150826416766 0 0,0 -0.6279938654862134,-0.8117667255659095 l 30.749783053368954 -23.36817799422784" fill="#37ff2e" stroke="none" /><path d="M 83.06392112726016 112.41649034213515 l -16.12964270613341 11.825260993862907 a41.000054284938784,41.000054284938784 0 0,0 -0.41238285612743497,-0.5727637191371479 l 16.330805354636453 -11.54586366927462" fill="#fff717" stroke="none" /><path d="M 82.6465618267979 111.8261652097733 l -20.967810223282118 14.289317500818457 a46.37387751603548,46.37387751603548 0 0,0 -0.44385739860887063,-0.6635065875575867 l 21.210670727301718 -13.92627399905505" fill="#c6ff1e" stroke="none" /><path d="M 82.44556493220864 111.52570212397912 l -15.605569527501457 10.246136953677386 a39.668613305524204,39.668613305524204 0 0,0 -0.36985340770467884,-0.5740207021246402 l 15.779627798583181 -9.975994651631298" fill="#ffe715" stroke="none" /><path d="M 82.05923443525364 110.91462005526583 l -39.01261132479556 23.734094759624835 a66.66498764303367,66.66498764303367 0 0,0 -0.5879824110871852,-0.9854923416672213 l 39.41537461158097 -23.059040324071503" fill="#37ff79" stroke="none" /><line stroke="#e1ed5e" stroke-width="0.3" x1="26.63291911575756" x2="22.317208475507996" y1="142.92168965132927" y2="145.44649492493687" /><path d="M 25.769776987707644 143.4266507060508 a86.0,86.0 0 0,1 -11.730757126820373,-40.83630448921669" fill="none" id="id117" stroke="none" /><text fill="#e1ed5e" style="font-size:6.75px; font-family:Arial;" text-anchor="middle"><textPath startOffset="21.46611528233685" xlink:href="#id117">September</textPath></text><path d="M 81.69416730710424 110.29060199501025 l -20.632209282315916 11.598371817550085 a44.66876187483036,44.66876187483036 0 0,0 -0.3710136110268151,-0.6734974722018403 l 20.82879930279425 -11.241503826950423" fill="#daff1c" stroke="none" /><path d="M 81.35079622478065 109.6543875284942 l -13.253160390913374 6.860944195439914 a35.92376680333138,35.92376680333138 0 0,0 -0.27955760748992226,-0.5515936812147192 l 13.369296668189564 -6.63179630252251" fill="#ffb711" stroke="none" /><path d="M 81.18737489456691 109.33194174019688 l -16.898225972905813 8.382310252187878 a39.86301052842103,39.86301052842103 0 0,0 -0.299630780640211,-0.6173281558245071 l 17.040010010160742 -8.090193140398085" fill="#ffe915" stroke="none" /><path d="M 80.32549172779594 107.34259656027581 l -33.733654825689534 12.589520127350632 a57.00632562391966,57.00632562391966 0 0,0 -0.3351856277995377,-0.9222868912053971 l 33.945364714494296 -12.006985439139118" fill="#52ff2b" stroke="none" /><path d="M 79.97269907076064 106.31721596034903 l -19.669160684053978 6.204247703621769 a41.624465364780505,41.624465364780505 0 0,0 -0.20965495449236313,-0.6851645218355289 l 19.77304241105247 -5.8647562092341925" fill="#ffff18" stroke="none" /><path d="M 79.67330655649465 105.27499134158121 l -20.91412649212196 5.427436413566166 a42.60689133012386,42.60689133012386 0 0,0 -0.17811442818308756,-0.7114786018711936 l 21.004452234600105 -5.066629972297581" fill="#f3ff19" stroke="none" /><path d="M 79.35854240842038 103.8639653848113 l -53.11442965301741 9.942724088291875 a75.03702804245654,75.03702804245654 0 0,0 -0.22673173264704427,-1.2716319657626816 l 53.27770782800364 -9.026973371795979" fill="#42ffd5" stroke="none" /><path d="M 79.23777060512086 103.15116336523772 l -17.8009252603046 2.70171485348494 a39.004782788817295,39.004782788817295 0 0,0 -0.09503412982291727,-0.6646684826380574 l 17.844793441144112 -2.394900898866482" fill="#ffde14" stroke="none" /><path d="M 79.18660465613746 102.79330883721812 l -23.482526499158247 3.1515256260026714 a44.693061527692464,44.693061527692464 0 0,0 -0.09576763408971034,-0.763362270310655 l 23.533295642494803 -2.746845601404608" fill="#daff1c" stroke="none" /><path d="M 79.10278846688536 102.07522291339032 l -27.797073680296524 2.760422084790585 a48.933800945700774,48.933800945700774 0 0,0 -0.07602309578812955,-0.8389085271196215 l 27.84047137236173 -2.281532169122397" fill="#a9ff21" stroke="none" /><path d="M 79.0095281055655 100.63252640178507 l -1.9601822084529987 0.05906808600547191 a22.961071984685933,22.961071984685933 0 0,0 -0.008504275170567555,-0.3951602502686407 l 1.9609085463085736 -0.025318019946702346" fill="#ff0200" stroke="none" /><line stroke="#e1ed5e" stroke-width="0.3" x1="15.007084014347285" x2="10.007500721073583" y1="101.09737516637583" y2="101.16192664675087" /><path d="M 14.007167355692545 101.11028546245083 a86.0,86.0 0 0,1 10.666146001902534,-42.60595125391555" fill="none" id="id118" stroke="none" /><text fill="#e1ed5e" style="font-size:6.75px; font-family:Arial;" text-anchor="middle"><textPath startOffset="22.20632615414155" xlink:href="#id118">October</textPath></text><path d="M 79.00175016825051 100.2711162175752 l -18.108571966016015 0.23380651132607275 a39.110081284553075,39.110081284553075 0 0,0 -0.002897317117244604,-0.67323446147856 l 18.109913580422763 0.07793742835616266" fill="#ffe015" stroke="none" /><path d="M 79.00019446554 99.90962569577889 l -19.80763360557406 -0.08524369915869638 a40.807817031185266,40.807817031185266 0 0,0 0.00906903769648132,-0.7024069640226585 l 19.803231560759862 0.4261869212418268" fill="#fff517" stroke="none" /><path d="M 79.03285615573316 98.82574320788736 l -8.583766158486746 -0.4807305080928238 a29.59721718261168,29.59721718261168 0 0,0 0.032866172029168174,-0.5084251343791512 l 8.574219395453165 0.6284147067249868" fill="#ff6109" stroke="none" /><path d="M 79.21141760316559 97.0276538004421 l -24.066063476361048 -3.4409596069029544 a45.310812702675676,45.310812702675676 0 0,0 0.11704021679027418,-0.7711487941986647 l 24.00326736613147 3.854707513493711" fill="#d3ff1c" stroke="none" /><path d="M 79.32604984820605 96.31383870115002 l -2.2915860347394967 -0.4085893451527376 a23.32772674676076,23.32772674676076 0 0,0 0.0738869932090167,-0.39470727219460944 l 2.284213317620618 0.4479746948099197" fill="#ff0801" stroke="none" /><path d="M 79.3925641242962 95.95851677861259 l -33.59906103292562 -6.589371052176225 a55.239110869844716,55.239110869844716 0 0,0 0.19102395830465713,-0.9315006614714677 l 33.48065777870597 7.166747369811095" fill="#64ff29" stroke="none" /><path d="M 79.81627453868168 94.20196356495316 l -24.599861504597 -7.066628684288677 a46.5947343609377,46.5947343609377 0 0,0 0.22807923418813875,-0.7689697934215372 l 24.474576373297154 7.489027864456753" fill="#c4ff1e" stroke="none" /><path d="M 80.02781315780177 93.51064311812611 l -34.253808312935426 -11.129736991859172 a57.016585477350326,57.016585477350326 0 0,0 0.31131790432028805,-0.9308009086268667 l 34.057153114843366 11.717711003408361" fill="#52ff2b" stroke="none" /><path d="M 80.14247586403 93.16781622104843 l -18.0909105546045 -6.2243623520891145 a40.13174668933301,40.13174668933301 0 0,0 0.23036944881524857,-0.6512854536843183 l 17.98108802497944 6.534845432200044" fill="#ffed16" stroke="none" /><path d="M 80.38941819471856 92.48833698450439 l -14.168162800821465 -5.426991690771208 a36.17198325738204,36.17198325738204 0 0,0 0.22772235715225633,-0.5795285600876178 l 14.072646893787518 5.67006925575459" fill="#ffba11" stroke="none" /><path d="M 80.65960295795068 91.81776055985345 l -16.590342385719527 -7.018788368141247 a39.013962657676316,39.013962657676316 0 0,0 0.26698423236946783,-0.616236418410367 l 16.46706744350738 7.303323931138213" fill="#ffde14" stroke="none" /><path d="M 80.803312248108 91.48605970444005 l -41.55623144180877 -18.43064168031591 a66.45997057184897,66.45997057184897 0 0,0 0.4728078865770509,-1.041769505012206 l 41.23282123826837 19.14323319417019" fill="#37ff77" stroke="none" /><path d="M 81.10775173730289 90.83032412892265 l -16.35797032900504 -7.93962072379958 a39.18298024313938,39.18298024313938 0 0,0 0.29973111612879016,-0.6042396402750152 l 16.21887919992284 8.220019952573557" fill="#ffe115" stroke="none" /><path d="M 81.26839172434947 90.50648371742162 l -14.601775799522688 -7.400442837976943 a37.37004614219797,37.37004614219797 0 0,0 0.29574043577164644,-0.5712763896207365 l 14.472225930590927 7.6506919498580155" fill="#ffc912" stroke="none" /><path d="M 81.6062741919709 89.86733742301443 l -15.776073253071523 -8.690660539987094 a39.011442693675804,39.011442693675804 0 0,0 0.32907518930204305,-0.585388042571972 l 15.62414042247705 8.960932092493852" fill="#ffde14" stroke="none" /><line stroke="#e1ed5e" stroke-width="0.3" x1="26.266209847984243" x2="21.928928074336255" y1="57.711370442889674" y2="55.22380399835377" /><path d="M 25.398753493254645 57.213857153982495 a86.0,86.0 0 0,1 29.58750427330803,-30.492523968695096" fill="none" id="id119" stroke="none" /><text fill="#e1ed5e" style="font-size:6.75px; font-family:Arial;" text-anchor="middle"><textPath startOffset="21.46611528233685" xlink:href="#id119">November</textPath></text><path d="M 82.34701348167596 88.62581576622439 l -16.65172342676316 -10.72904972024319 a40.80889701575692,40.80889701575692 0 0,0 0.3855534512027762,-0.5872243574836873 l 16.46457334020246 11.014092141704543" fill="#fff517" stroke="none" /><path d="M 82.7489923806493 88.02491185347247 l -16.115513230600254 -11.186864890517747 a40.61773974657505,40.61773974657505 0 0,0 0.403638557009554,-0.5709181137909174 l 15.92056205378682 11.462609504640449" fill="#fff316" stroke="none" /><path d="M 82.95767976084542 87.72973835380427 l -15.721754055225462 -11.319470182912426 a40.37276324623934,40.37276324623934 0 0,0 0.4109128067550856,-0.5604846066208413 l 15.524578635956743 11.588417233204767" fill="#fff016" stroke="none" /><path d="M 83.39014120810768 87.1503855733568 l -18.560255461905562 -14.358468023936416 a44.46590477278896,44.46590477278896 0 0,0 0.4735532454824437,-0.6013645316776925 l 18.310348135829148 14.675824949567156" fill="#ddff1b" stroke="none" /><path d="M 85.05521093208273 85.24692304244772 l -32.04253639180954 -31.631493971257214 a66.02527678176027,66.02527678176027 0 0,0 0.8053958188348235,-0.8019371932347985 l 31.49330477280741 32.17836701514212" fill="#36ff72" stroke="none" /><path d="M 85.31137513191541 84.99185889309783 l -12.939066769984343 -13.220525516823058 a39.49869573291811,39.49869573291811 0 0,0 0.4900034330418797,-0.471382914357072 l 12.709580093330036 13.441291517942442" fill="#ffe515" stroke="none" /><path d="M 85.57189188830299 84.74124197986013 l -14.845321814925505 -15.6999914022968 a42.60725132498108,42.60725132498108 0 0,0 0.5372411544774361,-0.4993071024306068 l 14.572872776653213 15.953203090802052" fill="#f3ff19" stroke="none" /><path d="M 86.10567301691215 84.25364557470407 l -17.871144138590694 -20.25325659417152 a48.01059413436951,48.01059413436951 0 0,0 0.6243805232737693,-0.5414566370351642 l 17.519869816670152 20.557878224626364" fill="#b3ff20" stroke="none" /><path d="M 86.37877921826538 84.01681056812374 l -11.680535886596662 -13.705982799401369 a39.00802274253225,39.00802274253225 0 0,0 0.5147990238676393,-0.4311293776617895 l 11.442879325769912 13.90501333445697" fill="#ffde14" stroke="none" /><path d="M 86.93701828274178 83.55741782278169 l -39.18894515177469 -49.32774653165494 a84.0,84.0 0 0,0 1.1398697793622974,-0.889686443107113 l 38.334042817252964 49.99501136398527" fill="#4dd2ff" stroke="none" /><path d="M 87.22198572758235 83.33499621200491 l -10.952536723098568 -14.284227743631927 a38.99992285824489,38.99992285824489 0 0,0 0.5362560823068713,-0.4038969634390327 l 10.705034487033307 14.470641296576813" fill="#ffde14" stroke="none" /><path d="M 87.80319425747018 82.90503203632743 l -10.108219716105848 -14.167618626083922 a38.40395137212326,38.40395137212326 0 0,0 0.5414387675347171,-0.37931245773023087 l 9.862849808987471 14.339515926578095" fill="#ffd714" stroke="none" /><path d="M 88.39885842347998 82.49532879139004 l -15.911600162712004 -24.008613929413634 a49.802648533592375,49.802648533592375 0 0,0 0.718659271854967,-0.46743598122264823 l 15.495973865072749 24.27894883479582" fill="#9fff22" stroke="none" /><path d="M 89.00827224532344 82.1063720568725 l -25.44168630210529 -41.4169709345236 a69.60704561363409,69.60704561363409 0 0,0 1.0263324657380717,-0.6183538268948564 l 24.72499177014957 41.848771370877074" fill="#3bff9b" stroke="none" /><line stroke="#e1ed5e" stroke-width="0.3" x1="56.762969772571076" x2="54.21961505331055" y1="26.818313649435495" y2="22.513508569990535" /><path d="M 56.25429882871897 25.957352633546506 a86.0,86.0 0 0,1 42.265352541879196,-11.944610805530505" fill="none" id="id120" stroke="none" /><text fill="#e1ed5e" style="font-size:6.75px; font-family:Arial;" text-anchor="middle"><textPath startOffset="22.20632615414155" xlink:href="#id120">December</textPath></text><path d="M 89.3179101791058 81.91981866633112 l -9.275431287887494 -15.699313752723468 a39.23463950514993,39.23463950514993 0 0,0 0.5844154017979111,-0.3385311221253992 l 9.003819153624264 15.856649032238913" fill="#ffe115" stroke="none" /><path d="M 90.26544431104013 81.39251694778311 l -14.251436253837065 -27.241444503088267 a51.74410079856003,51.74410079856003 0 0,0 0.792767702908884,-0.4060864086945648 l 13.780408063339417 27.482723437095338" fill="#89ff24" stroke="none" /><path d="M 90.91171255644093 81.06846463323043 l -7.869305846045087 -16.392311847696988 a39.1833402379966,39.1833402379966 0 0,0 0.6105544133301559,-0.2866634836993856 l 7.5859732214153235 16.52534031403638" fill="#ffe115" stroke="none" /><path d="M 91.56875222667455 80.76684994638697 l -21.62389039423231 -49.32787410316065 a74.85937058042026,74.85937058042026 0 0,0 1.1846183202603815,-0.5071917420281387 l 20.77158831618162 49.69278537315157" fill="#41ffd3" stroke="none" /><path d="M 91.90106846888425 80.62456947434976 l -1.5837812849736945 -3.788949707370268 a25.106641333695233,25.106641333695233 0 0,0 0.40017132546889955,-0.1632399313623583 l 1.5183260899164146 3.8156505249162027" fill="#ff2203" stroke="none" /></svg>