<?xml version="1.0" encoding="utf-8" ?>
<svg baseProfile="full" height="200mm" version="1.1" viewBox="0,0,200,200" width="200mm" xmlns="http://www.w3.org/2000/svg" xmlns:ev="http://www.w3.org/2001/xml-events" xmlns:xlink="http://www.w3.org/1999/xlink"><defs /><rect fill="#1a1a1a" height="200" width="200" x="0" y="0" /><text alignment-baseline="middle" fill="#e1ed5e" style="dominant-baseline: central; font-size:9.0px; font-family:Arial;" text-anchor="middle" x="100.0" y="100.0">2021</text><line stroke="#e1ed5e" stroke-width="0.3" x1="100.0" x2="100.0" y1="15.0" y2="10.0" /><path d="M 100.0 14.0 a86.0,86.0 0 0,1 42.46469731375804,11.215312516191453" fill="none" id="id61" stroke="none" /><text fill="#e1ed5e" style="font-size:6.75px; font-family:Arial;" text-anchor="middle"><textPath startOffset="22.20632615414155" xlink:href="#id61">January</textPath></text><path d="M 101.08401301168833 79.027996857942 l 2.016209466481852 -39.006866901208184 a60.05893964333007,60.05893964333007 0 0,0 1.0319783204649824,0.062251750500997224 l -2.6873498357864465 38.96638188132688" fill="red" stroke="none" /><path d="M 102.16513564639614 79.11191278185805 l 4.898062393953532 -47.253923630650775 a68.50709750875586,68.50709750875586 0 0,0 1.171906212907193,0.13167731768750038 l -5.710735310370451 47.162610359492675" fill="red" stroke="none" /><path d="M 103.2404852339499 79.25152402106235 l 7.275000236467697 -46.581038565364814 a68.14571859955694,68.14571859955694 0 0,0 1.1574089310067044,0.19098239067850728 l -8.075738373613277 46.44890991174668" fill="red" stroke="none" /><path d="M 103.95276090670814 79.375362276772 l 9.593919104538838 -50.05896145685605 a71.97001967748723,71.97001967748723 0 0,0 1.2146948802387352,0.24365636571975302 l -10.454180394244698 49.886401135059096" fill="red" stroke="none" /><path d="M 105.36241919743992 79.69619591428918 l 5.917422251140781 -22.405220042653017 a44.17347128200686,44.17347128200686 0 0,0 0.7334944131595992,0.20049173102849768 l -6.302214553524091 22.300041770798227" fill="red" stroke="none" /><path d="M 106.0581310904928 79.89281104454417 l 13.41256413208418 -44.51685798021392 a67.49352128015049,67.49352128015049 0 0,0 1.1095119425318265,0.34473076137203185 l -14.176861447326724 44.279387083959364" fill="red" stroke="none" /><path d="M 107.4271985657038 80.35727306442388 l 7.362580660530855 -19.471831832229583 a41.81729638751037,41.81729638751037 0 0,0 0.6711015655614097,0.26037698124945047 l -7.696665391091932 19.342212147089583" fill="red" stroke="none" /><path d="M 107.76421540070413 80.48803036053334 l 20.2817222317021 -50.96926450355539 a75.85630484016683,75.85630484016683 0 0,0 1.2090632773059198,0.49320726858403063 l -21.15606937859641 50.612596348787775" fill="red" stroke="none" /><path d="M 108.76106565485865 80.91482961587045 l 26.283196964575957 -57.255511152388685 a84.0,84.0 0 0,0 1.308887154801608,0.6145400694399883 l -27.264862330677165 56.79460610030869" fill="red" stroke="none" /><path d="M 109.73455568895987 81.39251694778311 l 8.661746283242412 -16.55682111417015 a39.685667611351064,39.685667611351064 0 0,0 0.6025700809385834,0.3218720689139716 l -8.945461410709306 16.40527031875442" fill="red" stroke="none" /><path d="M 110.36928655335952 81.73862282372117 l 21.386821946790523 -37.66438704943739 a64.31284110738463,64.31284110738463 0 0,0 0.9579650877537174,0.5549152111948771 l -22.031983767009567 37.290667680852465" fill="red" stroke="none" /><line stroke="#e1ed5e" stroke-width="0.3" x1="143.23703022742887" x2="145.7803849466894" y1="26.81831364943548" y2="22.513508569990506" /><path d="M 143.74570117128098 25.957352633546492 a86.0,86.0 0 0,1 28.547481713284135,27.462654790039103" fill="none" id="id62" stroke="none" /><text fill="#e1ed5e" style="font-size:6.75px; font-family:Arial;" text-anchor="middle"><textPath startOffset="19.985693538727396" xlink:href="#id62">February</textPath></text><path d="M 110.99172775467656 82.1063720568725 l 27.579982462795748 -44.897941059109705 a73.69231959209435,73.69231959209435 0 0,0 1.0751388257276162,0.6732518340372078 l -28.34874044089563 44.41654488374955" fill="red" stroke="none" /><path d="M 111.90073688211348 82.69761687909136 l 29.386953827062126 -42.72544960106556 a72.85611920349493,72.85611920349493 0 0,0 1.0271632469969727,0.719593496200112 l -30.11804821364275 42.21327126210152" fill="red" stroke="none" /><path d="M 113.06298171725822 83.55741782278167 l 12.162914260470288 -15.309653000434501 a40.553054960830664,40.553054960830664 0 0,0 0.5428250441579477,0.4389267680909262 l -12.424642703192728 15.098020135079446" fill="red" stroke="none" /><path d="M 116.15771136456269 86.58626213691792 l 18.27303319258921 -15.169826448711488 a44.74926054725691,44.74926054725691 0 0,0 0.4869177863578033,0.5969036322675391 l -18.53144947102342 14.853038646835847" fill="red" stroke="none" /><path d="M 116.60985879189232 87.15038557335679 l 18.565761498535082 -14.36272756934224 a44.472866106456436,44.472866106456436 0 0,0 0.4632040868892178,0.6095222821734545 l -18.81024152564841 14.041020511287753" fill="red" stroke="none" /><line stroke="#e1ed5e" stroke-width="0.3" x1="172.23445277983987" x2="176.4835382374775" y1="55.19839476539836" y2="52.563006222186495" /><path d="M 173.08426987136738 54.67131705675599 a86.0,86.0 0 0,1 12.851231095245387,41.99856678651699" fill="none" id="id63" stroke="none" /><text fill="#e1ed5e" style="font-size:6.75px; font-family:Arial;" text-anchor="middle"><textPath startOffset="22.20632615414155" xlink:href="#id63">March</textPath></text><path d="M 118.3937258080291 89.86733742301442 l 20.89192443778561 -11.508860310375788 a44.852177518161454,44.852177518161454 0 0,0 0.366702648203999,0.6794443146416916 l -21.086935185208073 11.147535012401638" fill="red" stroke="none" /><path d="M 119.196687751892 91.48605970444005 l 28.615782083776494 -12.691411316413935 a52.30391198346596,52.30391198346596 0 0,0 0.357931336361657,0.8261548736372712 l -28.830004129980832 12.196957298190062" fill="red" stroke="none" /><path d="M 119.61058180528143 92.48833698450437 l 19.291800334281135 -7.389556542086809 a41.65863272403253,41.65863272403253 0 0,0 0.25073619169589295,0.6718483355534522 l -19.416141114478652 7.0563850695040236" fill="red" stroke="none" /><path d="M 119.85752413597 93.16781622104841 l 10.638617623679085 -3.6603249358416643 a32.25069613751965,32.25069613751965 0 0,0 0.17609295699392025,0.5264955278771987 l -10.700047874444774 3.4766563050421517" fill="red" stroke="none" /><path d="M 120.08093135843002 93.85539295169968 l 30.741695846731833 -9.406717129045619 a53.14868878630744,53.14868878630744 0 0,0 0.2601605611179906,0.8771320793470666 l -30.89906230496153 8.876155662952023" fill="red" stroke="none" /><path d="M 120.53481517161879 95.60439243477599 l 31.038948873195707 -6.644084075915505 a52.74208878383228,52.74208878383228 0 0,0 0.18238893439979262,0.8893932182450326 l -31.148717103510496 6.108815201507061" fill="red" stroke="none" /><path d="M 120.67395015179393 96.31383870115 l 37.460420895566415 -6.679185773884942 a59.05121096988972,59.05121096988972 0 0,0 0.16980917644991553,1.002223371753733 l -37.56984193353656 6.0333766138153715" fill="red" stroke="none" /><path d="M 120.78858239683441 97.02765380044208 l 15.979471640391862 -2.284740772343127 a37.141981114562576,37.141981114562576 0 0,0 0.08504452642411701,0.6336805034632574 l -16.016432165873816 2.009341926815205" fill="red" stroke="none" /><path d="M 120.91429891909075 98.10471618934814 l 40.39040492524601 -3.6602365136234805 a61.555913765578005,61.555913765578005 0 0,0 0.0865461965662552,1.0560828115855467 l -40.44742560563176 2.964439784830165" fill="red" stroke="none" /><path d="M 120.98425023603335 99.18683210126433 l 30.234117504662436 -1.1716126868891652 a51.256809771914405,51.256809771914405 0 0,0 0.026576181239308664,0.8819340723024143 l -30.249805380357387 0.651008467161752" fill="red" stroke="none" /><line stroke="#e1ed5e" stroke-width="0.3" x1="184.98032266829074" x2="189.97916517819016" y1="98.17113171792111" y2="98.06355123074" /><path d="M 185.9800911702706 98.14961562048488 a86.0,86.0 0 0,1 -9.607161424134198,41.387399972396054" fill="none" id="id64" stroke="none" /><text fill="#e1ed5e" style="font-size:6.75px; font-family:Arial;" text-anchor="middle"><textPath startOffset="21.466115282336823" xlink:href="#id64">April</textPath></text><path d="M 120.99824983174949 100.27111621757518 l 47.084877951812175 0.6079303807493074 a68.08880239595064,68.08880239595064 0 0,0 -0.025218592232791343,1.171808886502428 l -47.067437296894376 -1.4183290830418505" fill="red" stroke="none" /><path d="M 120.92983693683757 101.71520430193887 l 19.47607024738296 1.596067832443531 a40.5413598505006,40.5413598505006 0 0,0 -0.06298467774280717,0.6950306704633312 l -19.445710973363077 -1.9310798914554328" fill="red" stroke="none" /><path d="M 120.89721153311464 102.0752229133903 l 37.84013468162323 3.7577604271575944 a59.02626140118559,59.02626140118559 0 0,0 -0.10910779136149149,1.0102026406178986 l -37.76984458876069 -4.408559389660284" fill="red" stroke="none" /><path d="M 120.5718875245553 104.21870165774334 l 4.642632760590919 0.9520702706555277 a25.739248542752126,25.739248542752126 0 0,0 -0.09274214207132463,0.4332604123083517 l -4.625556579795151 -1.0318445023800484" fill="red" stroke="none" /><path d="M 119.54520255179757 107.68017299344265 l 20.612408393889204 8.099525285400482 a43.14664059502741,43.14664059502741 0 0,0 -0.2775713499030508,0.6889093269986483 l -20.46993442972876 -8.453133980241944" fill="red" stroke="none" /><path d="M 119.12269723197855 108.67885076344098 l 40.222555881535214 18.255037748348595 a65.17126220561119,65.17126220561119 0 0,0 -0.47241525525147526,1.0175404317775945 l -39.9023660094439 -18.94469824740502" fill="red" stroke="none" /><path d="M 118.81262510543309 109.33194174019688 l 39.0342821420826 19.362829205325642 a64.572862393723,64.572862393723 0 0,0 -0.5025039556233531,0.991487977007498 l -38.69519951667298 -20.031871394035836" fill="red" stroke="none" /><line stroke="#e1ed5e" stroke-width="0.3" x1="174.80103733775053" x2="179.2010983576182" y1="140.37084112569926" y2="142.7455964860345" /><path d="M 175.68104954172406 140.8457921977663 a86.0,86.0 0 0,1 -30.038265399797805,32.042727171017184" fill="none" id="id65" stroke="none" /><text fill="#e1ed5e" style="font-size:6.75px; font-family:Arial;" text-anchor="middle"><textPath startOffset="22.206326154141568" xlink:href="#id65">May</textPath></text><path d="M 117.55443506779139 111.5257021239791 l 16.340986345947528 10.728989016625592 a40.548376916698636,40.548376916698636 0 0,0 -0.3880998971853346,0.5801566882065382 l -16.15388334335147 -11.008682619037938" fill="red" stroke="none" /><path d="M 117.14729908036423 112.12312394758627 l 25.163894302192382 17.790849054401523 a51.81778523074638,51.81778523074638 0 0,0 -0.5211887311940321,0.72388556317389 l -24.853925778622745 -18.221368223026545" fill="red" stroke="none" /><path d="M 116.498646956653 112.99209946851258 l 30.814979659222526 24.265703842542734 a60.222281350939944,60.222281350939944 0 0,0 -0.6483418623162159,0.808906160358084 l -30.392719884851456 -24.79253783647907" fill="red" stroke="none" /><path d="M 116.0416608686014 113.55231037782055 l 28.992140957348614 24.493130480059076 a58.95336188012822,58.95336188012822 0 0,0 -0.6615619672874634,0.7695460272743306 l -28.56623648049037 -24.988553606494936" fill="red" stroke="none" /><path d="M 115.56566222782051 114.09645910891815 l 27.96571764166415 25.32610494930852 a58.72920559880203,58.72920559880203 0 0,0 -0.6850442793802054,0.7434802673788544 l -27.52562695428822 -25.803736471488705" fill="red" stroke="none" /><path d="M 113.20401910651253 116.32954008644616 l 15.25791953285507 18.869618912065782 a45.26657426085666,45.26657426085666 0 0,0 -0.610112603566147,0.48471035144929253 l -14.930849436571572 -19.1294631775202" fill="red" stroke="none" /><path d="M 112.63410532772338 116.77436683061366 l 14.674640847189899 19.48359636816701 a45.39171194138831,45.39171194138831 0 0,0 -0.6281673194570748,0.4647031655747005 l -14.33708855731426 -19.73330948248148" fill="red" stroke="none" /><path d="M 111.7513745106137 117.40417183066458 l 21.92349855019596 32.46942181549191 a60.177839931685696,60.177839931685696 0 0,0 -0.8634812260282576,0.5722682724194054 l -21.361342625427735 -32.841988109002635" fill="red" stroke="none" /><line stroke="#e1ed5e" stroke-width="0.3" x1="143.8653032363475" x2="146.44561519142675" y1="172.8068346515853" y2="177.08958963109032" /><path d="M 144.38136562736335 173.6633856474863 a86.0,86.0 0 0,1 -40.68145358897372,12.25698825130547" fill="none" id="id66" stroke="none" /><text fill="#e1ed5e" style="font-size:6.75px; font-family:Arial;" text-anchor="middle"><textPath startOffset="21.466115282336833" xlink:href="#id66">June</textPath></text><path d="M 110.5260780823613 118.17145234162733 l 19.94591685336766 34.43317393953104 a60.79300273504697,60.79300273504697 0 0,0 -0.9100169224916634,0.5167313585735418 l -19.350251163954795 -34.771408463899206" fill="red" stroke="none" /><path d="M 110.21172684928248 118.3499491758327 l 15.202902179227697 27.318835142323252 a52.264148608343746,52.264148608343746 0 0,0 -0.7898785012092959,0.4307047378328794 l -14.730400866149752 -27.5764805319159" fill="red" stroke="none" /><path d="M 109.2508944713604 118.85261126421891 l 20.939789979410264 42.67368108655498 a68.534386099526,68.534386099526 0 0,0 -1.0635470588674507,0.5105672199047067 l -20.20213025254258 -43.02780258295925" fill="red" stroke="none" /><path d="M 108.2653958097858 119.30500536409082 l 6.822073966833465 15.933922289361893 a38.33293318317389,38.33293318317389 0 0,0 -0.608815583703111,0.2544849633643062 l -6.546786923632893 -16.04899229574617" fill="red" stroke="none" /><path d="M 107.59598834532513 119.57807347666477 l 12.750915970589647 32.864501420755836 a56.25140155687289,56.25140155687289 0 0,0 -0.9057273328738364,0.34246857728575175 l -12.183318416955537 -33.07911824814822" fill="red" stroke="none" /><path d="M 106.57524785965236 119.94407469862006 l 9.7889029974235 29.69174953786183 a52.263758771332746,52.263758771332746 0 0,0 -0.8568236462040955,0.27432787391560953 l -9.276358006128465 -29.855850258437147" fill="red" stroke="none" /><path d="M 105.88484417918355 120.15858648285463 l 13.186659613768448 45.17102070168959 a68.05644592403746,68.05644592403746 0 0,0 -1.1273674450736655,0.3186053009468548 l -12.407161000590177 -45.391314795974964" fill="red" stroke="none" /><path d="M 105.18746579009965 120.34920634021253 l 9.64389841370964 37.830741769741046 a60.04061730381298,60.04061730381298 0 0,0 -1.003669594594927,0.24667756719151732 l -8.991275534371502 -37.9911405952466" fill="red" stroke="none" /><path d="M 104.13013068566511 120.58985236759428 l 6.2135202472866995 30.976129888269767 a52.59317104562949,52.59317104562949 0 0,0 -0.889156141598486,0.17040889074680268 l -5.679396491116509 -31.07849597736504" fill="red" stroke="none" /><path d="M 103.7750983002368 120.6578951692458 l 4.342346496619682 23.761961035579947 a45.15547071272106,45.15547071272106 0 0,0 -0.7658174922856825,0.13314718733736963 l -3.93268003286195 -23.833186801438323" fill="red" stroke="none" /><path d="M 103.06178313531738 120.77559828337769 l 1.2485018195558608 8.47165560485392 a29.563159783671395,29.563159783671395 0 0,0 -0.5040820129860978,0.06986117379411001 l -1.1024912153829327 -8.491891344140633" fill="red" stroke="none" /><path d="M 102.34483914955558 120.86867818915974 l 3.5925635718402416 31.97321789387623 a53.174418029033575,53.174418029033575 0 0,0 -0.9104660675098967,0.0943735305685518 l -3.041664907724742 -32.03032079290054" fill="red" stroke="none" /><path d="M 101.26447882468166 120.96189622390904 l 2.707582125488331 44.88493948997998 a65.96652970805539,65.96652970805539 0 0,0 -1.1340335385697455,0.05861658055139348 l -1.934560518505106 -44.92489587729357" fill="red" stroke="none" /><line stroke="#e1ed5e" stroke-width="0.3" x1="102.19456741930631" x2="102.32365962044197" y1="184.97166512339345" y2="189.96999836594603" /><path d="M 102.22038585953345 185.97133177190398 a86.0,86.0 0 0,1 -42.740103519485714,-10.115201625700543" fill="none" id="id67" stroke="none" /><text fill="#e1ed5e" style="font-size:6.75px; font-family:Arial;" text-anchor="middle"><textPath startOffset="22.20632615414155" xlink:href="#id67">July</textPath></text><path d="M 100.54218724476979 120.99299961872073 l 0.11282846578473688 4.368616123024999 a25.370072893333166,25.370072893333166 0 0,0 -0.4366555720958075,0.007517421667054345 l -0.037613203796261374 -4.369911021971213" fill="red" stroke="none" /><path d="M 99.45781275523022 120.99299961872073 l -0.16089882730015664 6.229857033245108 a27.23193445787904,27.23193445787904 0 0,0 -0.4684925573410338,-0.016135830938418635 l 0.26811173631583346 -6.226164403880595" fill="red" stroke="none" /><path d="M 99.09653310690486 120.98055641714683 l -1.3969282265408538 32.439851079921105 a53.469914483373145,53.469914483373145 0 0,0 -0.9192036718765764,-0.047512330317537266 l 1.9551199668309192 -32.41099894284137" fill="red" stroke="none" /><path d="M 98.01472825383883 120.90594882070398 l -1.9872741426973464 20.927035102511432 a42.021181144264446,42.021181144264446 0 0,0 -0.7194974757909128,-0.07457885521341022 l 2.3472042150938526 -20.88972687884226" fill="red" stroke="none" /><path d="M 96.93821686468263 120.77559828337769 l -4.79291470617623 32.522117387549486 a53.87339578976028,53.87339578976028 0 0,0 -0.9162688038917276,-0.14310234314819686 l 5.352019373676475 -32.434796737054185" fill="red" stroke="none" /><path d="M 96.22490169976321 120.6578951692458 l -7.176788767043611 39.272447552454 a60.92281845971065,60.92281845971065 0 0,0 -1.0299796935603163,-0.19739805964316076 l 7.851736075175623 -39.14309229446236" fill="red" stroke="none" /><path d="M 93.42475214034765 119.94407469862007 l -6.797927286999588 20.61950705153734 a42.71119265373811,42.71119265373811 0 0,0 -0.6962539994154174,-0.2362071590868559 l 7.1518510193522316 -20.49943690555236" fill="red" stroke="none" /><path d="M 92.40401165467489 119.57807347666478 l -11.951392674709643 30.803791856518945 a54.04102570449117,54.04102570449117 0 0,0 -0.8643448363437515,-0.3439406484256245 l 12.479858587095253 -30.593504363687252" fill="red" stroke="none" /><path d="M 91.7346041902142 119.30500536409082 l -5.061088340515533 11.820890349390535 a33.85877380790317,33.85877380790317 0 0,0 -0.5338066661541263,-0.23400515531010133 l 5.263815681327403 -11.732020640785981" fill="red" stroke="none" /><line stroke="#e1ed5e" stroke-width="0.3" x1="58.666819895761336" x2="56.23545636021788" y1="174.27360380694188" y2="178.64263932499728" /><path d="M 58.180547188652646 175.14741091055294 a86.0,86.0 0 0,1 -31.652253787137756,-30.449443065178592" fill="none" id="id68" stroke="none" /><text fill="#e1ed5e" style="font-size:6.75px; font-family:Arial;" text-anchor="middle"><textPath startOffset="22.20632615414155" xlink:href="#id68">August</textPath></text><path d="M 82.6465618267979 111.8261652097733 l -3.4114991446024927 2.3248967780558734 a25.128373946511886,25.128373946511886 0 0,0 -0.24051072044413327,-0.35953089414090555 l 3.451012970457356 -2.265828969709147" fill="red" stroke="none" /><path d="M 82.44556493220864 111.52570212397912 l -16.349459087895763 10.734551958383163 a40.5585126789847,40.5585126789847 0 0,0 -0.37815045386693497,-0.5868979020216917 l 16.531814405139745 -10.451532456440024" fill="red" stroke="none" /><path d="M 82.05923443525364 110.91462005526583 l -16.740577350691975 10.184461785043936 a40.59515735801888,40.59515735801888 0 0,0 -0.35804759508308265,-0.6001083642184386 l 16.91340582147329 -9.894791326939387" fill="red" stroke="none" /><line stroke="#e1ed5e" stroke-width="0.3" x1="26.63291911575756" x2="22.317208475507996" y1="142.92168965132927" y2="145.44649492493687" /><path d="M 25.769776987707644 143.4266507060508 a86.0,86.0 0 0,1 -11.730757126820373,-40.83630448921669" fill="none" id="id69" stroke="none" /><text fill="#e1ed5e" style="font-size:6.75px; font-family:Arial;" text-anchor="middle"><textPath startOffset="21.46611528233685" xlink:href="#id69">September</textPath></text><path d="M 81.51974371655577 109.97397251340807 l -17.654622022547564 9.528369741562924 a41.061792260188355,41.061792260188355 0 0,0 -0.33034699095950515,-0.6248920123813769 l 17.816021521731955 -9.223062714095422" fill="red" stroke="none" /><path d="M 80.87730276802145 108.67885076344099 l -21.25628975818304 9.647183363193504 a44.34305038179275,44.34305038179275 0 0,0 -0.3094699696981786,-0.6977730839834101 l 21.419200812612498 -9.279861942717398" fill="red" stroke="none" /><path d="M 80.58989483394504 108.01547362559985 l -24.815786905647762 10.247769589037915 a47.84846478472334,47.84846478472334 0 0,0 -0.30781916686731264,-0.7639819280985239 l 24.988508686772462 -9.819088293096586" fill="red" stroke="none" /><path d="M 80.32549172779594 107.34259656027581 l -23.640308471250176 8.822647319226496 a46.23298021113077,46.23298021113077 0 0,0 -0.27184054273810515,-0.7479884227478225 l 23.788673274993503 -8.414411099472556" fill="red" stroke="none" /><path d="M 80.0844068197444 106.66101706037122 l -11.62246147063281 3.88727633863019 a33.25530611487197,33.25530611487197 0 0,0 -0.1768988279932337,-0.5444386106603745 l 11.687652549642294 -3.686638827992012" fill="red" stroke="none" /><path d="M 79.97269907076064 106.31721596034903 l -28.460142199563172 8.977188946833877 a50.842413029219216,50.842413029219216 0 0,0 -0.2560841009369946,-0.8368976587890198 l 28.610453073006298 -8.48596431549281" fill="red" stroke="none" /><path d="M 79.67330655649465 105.27499134158121 l -30.05119610362423 7.7986023497307215 a52.0466195562046,52.0466195562046 0 0,0 -0.2175763964868717,-0.8691095491350583 l 30.18098381440616 -7.280164961198271" fill="red" stroke="none" /><path d="M 79.50377843672027 104.57218783832718 l -17.876328435347173 3.987756046337248 a39.3157122879101,39.3157122879101 0 0,0 -0.1416600554046683,-0.6617886177898257 l 17.94232252947628 -3.6794536091312584" fill="red" stroke="none" /><path d="M 79.35854240842038 103.8639653848113 l -33.62069719953692 6.293606428512454 a55.20468918233234,55.20468918233234 0 0,0 -0.16680637753229954,-0.9355387500758608 l 33.72405001940841 -5.713948927703379" fill="red" stroke="none" /><path d="M 79.23777060512086 103.15116336523772 l -34.743966847791185 5.273225404242811 a56.14185735678131,56.14185735678131 0 0,0 -0.13678816235002134,-0.9566960888835547 l 34.829589061157805 -4.674383843378855" fill="red" stroke="none" /><path d="M 79.1416061653843 102.43462659150553 l -36.58885933086969 4.270712816437331 a57.837258517629294,57.837258517629294 0 0,0 -0.10690996491157394,-0.9898534973017469 l 36.656951597282315 -3.640262997250802" fill="red" stroke="none" /><path d="M 79.07016306316243 101.71520430193888 l -30.948329233447886 2.536221739291355 a52.05207727435862,52.05207727435862 0 0,0 -0.06549500048849993,-0.8936272456453694 l 30.987400792600724 -2.003121357149225" fill="red" stroke="none" /><path d="M 79.0095281055655 100.63252640178507 l -29.646901667317202 0.8933790593186333 a50.660359145081244,50.660359145081244 0 0,0 -0.018763480846926247,-0.871865225274383 l 29.657887210849136 -0.38292401825412137" fill="red" stroke="none" /><line stroke="#e1ed5e" stroke-width="0.3" x1="15.007084014347285" x2="10.007500721073583" y1="101.09737516637583" y2="101.16192664675087" /><path d="M 14.007167355692545 101.11028546245083 a86.0,86.0 0 0,1 10.666146001902534,-42.60595125391555" fill="none" id="id70" stroke="none" /><text fill="#e1ed5e" style="font-size:6.75px; font-family:Arial;" text-anchor="middle"><textPath startOffset="22.20632615414155" xlink:href="#id70">October</textPath></text><path d="M 79.00019446554 99.90962569577889 l -35.09397225898837 -0.15102965215829683 a56.09429724143905,56.09429724143905 0 0,0 0.012466270760121153,-0.9655264086837478 l 35.086172981110536 0.7550923189025166" fill="red" stroke="none" /><path d="M 79.03285615573316 98.82574320788736 l -38.91998343662565 -2.1796986389190933 a59.980972241129656,59.980972241129656 0 0,0 0.06660575350684964,-1.0303615263466304 l 38.87669709211439 2.8493192295187355" fill="red" stroke="none" /><path d="M 79.16333360222342 97.38593545837743 l -37.46089805995078 -4.6996579705429316 a58.75454500451716,58.75454500451716 0 0,0 0.13453112368351172,-1.0024131331169044 l 37.37445093720943 5.343789445724496" fill="red" stroke="none" /><path d="M 79.21141760316559 97.0276538004421 l -42.44032202720445 -6.06810639982762 a63.87193544794128,63.87193544794128 0 0,0 0.16498457488933985,-1.0870422105871054 l 42.32958155887581 6.797747722806817" fill="red" stroke="none" /><path d="M 79.32604984820605 96.31383870115002 l -43.82701914813334 -7.81434900643735 a65.51821714540301,65.51821714540301 0 0,0 0.20751889448299876,-1.1085742322537728 l 43.68601452974048 8.567601316153697" fill="red" stroke="none" /><path d="M 79.46518482838121 95.60439243477599 l -42.410570063953976 -9.078251791437143 a64.37131665903493,64.37131665903493 0 0,0 0.24125637795882354,-1.0815050367676147 l 42.248019298993114 9.806934997754716" fill="red" stroke="none" /><path d="M 79.62865764111835 94.90015583598534 l -16.26835841992369 -4.07268658512208 a37.770398376297905,37.770398376297905 0 0,0 0.16331860568036366,-0.6293332095385727 l 16.19584348237302 4.352116220209516" fill="red" stroke="none" /><path d="M 79.81627453868168 94.20196356495316 l -36.969691859389194 -10.620022592161872 a59.46482803856292,59.46482803856292 0 0,0 0.29107779293479474,-0.9813696152541115 l 36.78140816934269 11.254821594162522" fill="red" stroke="none" /><path d="M 80.38941819471856 92.48833698450439 l -30.7959647024735 -11.79612677374917 a53.97787210870883,53.97787210870883 0 0,0 0.33982013602059385,-0.8648051802183002 l 30.588351016571217 12.324480958863234" fill="red" stroke="none" /><path d="M 80.65960295795068 91.81776055985345 l -24.99844990737616 -10.575961927252518 a48.143571402051904,48.143571402051904 0 0,0 0.32946087961081405,-0.7604411341293692 l 24.812698317922663 11.004702205968487" fill="red" stroke="none" /><path d="M 80.95270993114464 91.15688171328213 l -36.14690202929992 -16.781984691154065 a60.85264779773028,60.85264779773028 0 0,0 0.4492716392415173,-0.9462806507954422 l 35.85267219621665 17.40170775759004" fill="red" stroke="none" /><path d="M 81.26839172434947 90.50648371742162 l -31.803142696886194 -16.11840524246535 a56.65449302624902,56.65449302624902 0 0,0 0.4483543957170806,-0.8660779841875014 l 31.520978868009 16.663455948913185" fill="red" stroke="none" /><path d="M 81.6062741919709 89.86733742301443 l -28.212719729869036 -15.541710928247085 a53.210283034045766,53.210283034045766 0 0,0 0.4488473830546774,-0.7984494107173896 l 27.94101470552193 16.02504384889926" fill="red" stroke="none" /><line stroke="#e1ed5e" stroke-width="0.3" x1="26.266209847984243" x2="21.928928074336255" y1="57.711370442889674" y2="55.22380399835377" /><path d="M 25.398753493254645 57.213857153982495 a86.0,86.0 0 0,1 29.58750427330803,-30.492523968695096" fill="none" id="id71" stroke="none" /><text fill="#e1ed5e" style="font-size:6.75px; font-family:Arial;" text-anchor="middle"><textPath startOffset="21.46611528233685" xlink:href="#id71">November</textPath></text><path d="M 81.96595687620814 89.24020034530311 l -26.626231435856255 -15.886227721804808 a52.00529683303837,52.00529683303837 0 0,0 0.46528446096970216,-0.7648053155225867 l 26.348831176600335 16.342200810534468" fill="red" stroke="none" /><path d="M 82.15384107792192 88.93136811851018 l -28.200080561955573 -17.49039174936902 a54.183706050517934,54.183706050517934 0 0,0 0.49841889248003457,-0.788378992347488 l 27.89483407322958 17.973218389430723" fill="red" stroke="none" /><path d="M 88.39885842347998 82.49532879139004 l -11.11234677314314 -16.767141003918145 a41.11519993069564,41.11519993069564 0 0,0 0.5932981581177319,-0.38589762570171054 l 10.82208158924112 16.95593755377939" fill="red" stroke="none" /><path d="M 89.00827224532344 82.1063720568725 l -11.94775491530013 -19.449961460253096 a43.826516342215015,43.826516342215015 0 0,0 0.6462072364324709,-0.3893326294884497 l 11.611185612650011 19.652740699200166" fill="red" stroke="none" /><line stroke="#e1ed5e" stroke-width="0.3" x1="56.762969772571076" x2="54.21961505331055" y1="26.818313649435495" y2="22.513508569990535" /><path d="M 56.25429882871897 25.957352633546506 a86.0,86.0 0 0,1 42.265352541879196,-11.944610805530505" fill="none" id="id72" stroke="none" /><text fill="#e1ed5e" style="font-size:6.75px; font-family:Arial;" text-anchor="middle"><textPath startOffset="22.20632615414155" xlink:href="#id72">December</textPath></text><path d="M 89.63071344664047 81.73862282372117 l -13.782618587931672 -24.272604987415203 a48.91271982475898,48.91271982475898 0 0,0 0.7357309490766456,-0.40943347660215884 l 13.362763549782981 24.506253861577544" fill="red" stroke="none" /><path d="M 90.26544431104013 81.39251694778311 l -14.415883918872167 -27.555784185133298 a52.098857715678875,52.098857715678875 0 0,0 0.7982029085059474,-0.4088705321059114 l 13.939420522777457 27.799847242551717" fill="red" stroke="none" /><path d="M 90.58718382345135 81.22770947309562 l -13.91041428256409 -27.74199913862984 a52.03414477185253,52.03414477185253 0 0,0 0.8041226226193033,-0.39457947865308324 l 13.430820392934361 27.977333777417755" fill="red" stroke="none" /><path d="M 91.56875222667455 80.76684994638697 l -3.3084114840888335 -7.54706494498853 a29.240374738561687,29.240374738561687 0 0,0 0.46271673590104845,-0.19811115811178953 l 3.1780109903974765 7.602895631063105" fill="red" stroke="none" /><path d="M 91.90106846888425 80.62456947434976 l -15.337383535547742 -36.692297989746976 a60.76883284036484,60.76883284036484 0 0,0 0.9685861227598792,-0.39511059922294095 l 14.703513543199481 36.950869475153496" fill="red" stroke="none" /><path d="M 92.57280143429618 80.3572730644239 l -11.626259393606828 -30.747991524736452 a53.872616115738275,53.872616115738275 0 0,0 0.870216359206092,-0.32050802915356164 l 11.095260708628166 30.943562821696336" fill="red" stroke="none" /><path d="M 92.91201910852362 80.23233633223022 l -6.638156429371128 -18.513148621443246 a40.66727720505427,40.66727720505427 0 0,0 0.6609749312300934,-0.23060117492319535 l 6.3184994940777495 18.62467064953865" fill="red" stroke="none" /><path d="M 93.94186890950719 79.89281104454417 l -10.090237448508018 -33.48991759207097 a55.97695630112744,55.97695630112744 0 0,0 0.9249786389790376,-0.27002662930234195 l 9.51226859180556 33.65864255029201" fill="red" stroke="none" /><path d="M 96.04723909329186 79.375362276772 l -5.977717422589112 -31.190415803672572 a52.75807210128337,52.75807210128337 0 0,0 0.8933822781153189,-0.16325990096976445 l 5.4399400233709 31.28869118599307" fill="red" stroke="none" /><path d="M 96.40284397218896 79.31037775812273 l -5.452961422800806 -31.36358586200447 a52.83409031842877,52.83409031842877 0 0,0 0.8973512827049431,-0.14807065044880027 l 4.9122809339569775 31.452802775392897" fill="red" stroke="none" /><path d="M 97.11714578562143 79.19881850522333 l -5.328408525218431 -38.44703358864649 a59.81451183743178,59.81451183743178 0 0,0 1.0210772150100804,-0.13256512762060332 l 4.665816581700493 38.53305703943123" fill="red" stroke="none" /><path d="M 98.19473922651362 79.07773832637324 l -4.005820997434765 -46.42588835749219 a67.59838743611004,67.59838743611004 0 0,0 1.1601486673933328,-0.09004986500037762 l 3.2060821406790976 46.48796348468103" fill="red" stroke="none" /></svg>