<?xml version="1.0" encoding="utf-8" ?>
<svg baseProfile="full" height="200mm" version="1.1" viewBox="0,0,200,200" width="200mm" xmlns="http://www.w3.org/2000/svg" xmlns:ev="http://www.w3.org/2001/xml-events" xmlns:xlink="http://www.w3.org/1999/xlink"><defs /><rect fill="#1a1a1a" height="200" width="200" x="0" y="0" /><text alignment-baseline="middle" fill="#e1ed5e" style="dominant-baseline: central; font-size:9.0px; font-family:Arial;" text-anchor="middle" x="100.0" y="100.0">2017</text><line stroke="#e1ed5e" stroke-width="0.3" x1="100.0" x2="100.0" y1="15.0" y2="10.0" /><path d="M 100.0 14.0 a86.0,86.0 0 0,1 42.46469731375804,11.215312516191453" fill="none" id="id13" stroke="none" /><text fill="#e1ed5e" style="font-size:6.75px; font-family:Arial;" text-anchor="middle"><textPath startOffset="22.20632615414155" xlink:href="#id13">January</textPath></text><path d="M 100.36148047927253 79.00311137660856 l 0.45824735932426985 -26.617671817461712 a47.62161609715727,47.62161609715727 0 0,0 0.8194849355470463,0.02116487816912004 l -0.9163589300661839 26.605840147150232" fill="#b0ff20" stroke="none" /><path d="M 100.72285384407766 79.0124445844662 l 0.166319594477898 -4.8289730135528925 a25.831836356203446,25.831836356203446 0 0,0 0.44425735791721144,0.019130656352091626 l -0.24941778478444093 4.825394630676606" fill="#ff3c05" stroke="none" /><path d="M 101.08401301168833 79.027996857942 l 0.29742452309010853 -5.754163433016303 a26.761845030959904,26.761845030959904 0 0,0 0.4598423490592088,0.02773894627023581 l -0.39642892098892923 5.748191217365763" fill="#ff4906" stroke="none" /><path d="M 101.44485096284872 79.0497635885617 l 0.2549144628324981 -3.69624161824005 a24.705021387761615,24.705021387761615 0 0,0 0.4239967657220226,0.03291030933100036 l -0.3185014179168619 3.691306046720585" fill="#ff2c04" stroke="none" /><path d="M 101.80526077348638 79.07773832637324 l 0.22728886726438535 -2.6341884930141806 a23.643976029753418,23.643976029753418 0 0,0 0.40518442232327734,0.038477143157761975 l -0.27259841667790685 2.62988580534124" fill="#ff1d02" stroke="none" /><path d="M 102.16513564639614 79.11191278185805 l 0.45959613786444053 -4.433941230801388 a25.457697101434825,25.457697101434825 0 0,0 0.4354882119428259,0.04893217477779361 l -0.5358510533169917 4.425373102552993" fill="#ff3705" stroke="none" /><path d="M 102.52436894288641 79.15227682838746 l 3.3612962553925163 -27.759561068785633 a48.96232363821281,48.96232363821281 0 0,0 0.8358224705872106,0.1085137449477453 l -3.838633454487573 27.69758900067375" fill="#a1ff22" stroke="none" /><path d="M 103.2404852339499 79.25152402106235 l 1.775521993362828 -11.36847501831068 a32.50628969698178,32.50628969698178 0 0,0 0.5520973405572474,0.09110079174450254 l -1.9709485400589504 11.336227963626552" fill="#ff960d" stroke="none" /><path d="M 103.59715602781102 79.31037775812273 l 3.1848985831384264 -18.318457151807998 a39.59326360291551,39.59326360291551 0 0,0 0.6704551289836045,0.1225213893804185 l -3.499748833224932 18.260920281076842" fill="#fff016" stroke="none" /><path d="M 103.95276090670814 79.375362276772 l 0.802510060504215 -4.187321130164018 a25.263529130231028,25.263529130231028 0 0,0 0.42639253995998355,0.08553033222322058 l -0.874469009931324 4.172886841863589" fill="#ff3404" stroke="none" /><path d="M 105.71112130821622 79.79150937346287 l 5.544703774129099 -19.61963127717385 a41.38807669681228,41.38807669681228 0 0,0 0.6839079754003299,0.19965149201085478 l -5.8816019672528554 19.52128145624429" fill="#f8ff18" stroke="none" /><path d="M 106.0581310904928 79.89281104454417 l 3.6317979722243496 -12.054088461399765 a33.5893210756698,33.5893210756698 0 0,0 0.5521678550493985,0.17156124037924056 l -3.838751199984466 11.989787086138003" fill="#ffa50f" stroke="none" /><path d="M 106.74666289553966 80.11325718540242 l 8.96923864748463 -26.438099099808145 a48.91810032804539,48.91810032804539 0 0,0 0.7950775223333414,0.27738693578571444 l -9.422998173881245 26.279791310850225" fill="#a1ff22" stroke="none" /><path d="M 107.08798089147638 80.2323363322302 l 9.117834273917081 -25.428719978915517 a48.013972340489175,48.013972340489175 0 0,0 0.7755803822743135,0.2856528001837252 l -9.554196981963972 25.26800391092547" fill="#abff21" stroke="none" /><path d="M 108.43124777332544 80.76684994638697 l 25.2937433199763 -57.69945016083909 a84.0,84.0 0 0,0 1.3192715261328791,0.591918677933875 l -26.283196964575957 57.255511152388685" fill="#4dd2ff" stroke="none" /><line stroke="#e1ed5e" stroke-width="0.3" x1="143.23703022742887" x2="145.7803849466894" y1="26.81831364943548" y2="22.513508569990506" /><path d="M 143.74570117128098 25.957352633546492 a86.0,86.0 0 0,1 28.547481713284135,27.462654790039103" fill="none" id="id14" stroke="none" /><text fill="#e1ed5e" style="font-size:6.75px; font-family:Arial;" text-anchor="middle"><textPath startOffset="19.985693538727396" xlink:href="#id14">February</textPath></text><path d="M 110.99172775467656 82.1063720568725 l 5.694993112837692 -9.270979974593613 a31.880441914030172,31.880441914030172 0 0,0 0.4651217531603519,0.2912591991586607 l -5.853734018370308 9.171576434112009" fill="#ff8e0d" stroke="none" /><path d="M 113.89432698308785 84.25364557470407 l 0.9247552882323579 -1.048019421372311 a22.39768274321724,22.39768274321724 0 0,0 0.28689193148744485,0.25757440875036974 l -0.9426582073157928 1.0319460038526438" fill="#ff0b01" stroke="none" /><path d="M 117.65298651832404 88.62581576622439 l 5.028859572901071 -3.2401982071752786 a26.982333409777546,26.982333409777546 0 0,0 0.24820200969808512,0.39259597350081393 l -5.083889178845112 3.1531545859602588" fill="#ff4c07" stroke="none" /><line stroke="#e1ed5e" stroke-width="0.3" x1="172.23445277983987" x2="176.4835382374775" y1="55.19839476539836" y2="52.563006222186495" /><path d="M 173.08426987136738 54.67131705675599 a86.0,86.0 0 0,1 12.851231095245387,41.99856678651699" fill="none" id="id15" stroke="none" /><text fill="#e1ed5e" style="font-size:6.75px; font-family:Arial;" text-anchor="middle"><textPath startOffset="22.20632615414155" xlink:href="#id15">March</textPath></text><path d="M 118.21658344932153 89.55222093294921 l 7.342196220633056 -4.210978649949122 a29.46405260691388,29.46405260691388 0 0,0 0.24853960837488398,0.44212423050415656 l -7.413593470300373 4.083970909510171" fill="#ff6e0a" stroke="none" /><path d="M 119.47837535516314 92.15188598940014 l 2.328234041390445 -0.9380785546546336 a23.510112572414275,23.510112572414275 0 0,0 0.1480089773847855,0.3766667033333768 l -2.3440365686569313 0.8978628464254724" fill="#ff1b02" stroke="none" /><path d="M 119.85752413597 93.16781622104841 l 5.471011139215433 -1.8823572014248604 a26.785778384899942,26.785778384899942 0 0,0 0.14625380181153588,0.4372802518812285 l -5.502602234798738 1.787903846621318" fill="#ff4906" stroke="none" /><path d="M 120.37134235888165 94.90015583598534 l 1.9171295588420947 -0.4799419606267702 a22.9762919903082,22.9762919903082 0 0,0 0.09274456820991381,0.3844861108142857 l -1.9251069273128278 0.4468706181530784" fill="#ff1302" stroke="none" /><path d="M 120.6074358757038 95.95851677861258 l 3.6821169411913766 -0.7221283582668493 a24.75225992362226,24.75225992362226 0 0,0 0.07839898335308267,0.41881050396227715 l -3.6940016484543188 0.6586397768420094" fill="#ff2d04" stroke="none" /><path d="M 120.83666639777658 97.38593545837742 l 21.295758257855415 -2.671659923238309 a42.46269057044002,42.46269057044002 0 0,0 0.08474268439642738,0.7260235684233676 l -21.33859129525543 2.3046926164900885" fill="#ebff1a" stroke="none" /><path d="M 120.91429891909075 98.10471618934814 l 13.689000989476126 -1.2405169334014368 a34.745094774207054,34.745094774207054 0 0,0 0.04885080275947804,0.5961035282116135 l -13.708326276055098 1.0046994879820546" fill="#ffb410" stroke="none" /><path d="M 120.94382443527127 98.46500227214037 l 6.6811574709846395 -0.48966995350488884 a27.699077683939734,27.699077683939734 0 0,0 0.030758386729155134,0.47581862871582326 l -6.688596448718211 0.37459226053603034" fill="#ff5607" stroke="none" /><line stroke="#e1ed5e" stroke-width="0.3" x1="184.98032266829074" x2="189.97916517819016" y1="98.17113171792111" y2="98.06355123074" /><path d="M 185.9800911702706 98.14961562048488 a86.0,86.0 0 0,1 -9.607161424134198,41.387399972396054" fill="none" id="id16" stroke="none" /><text fill="#e1ed5e" style="font-size:6.75px; font-family:Arial;" text-anchor="middle"><textPath startOffset="21.466115282336823" xlink:href="#id16">April</textPath></text><path d="M 120.99513854157772 99.54816195383933 l 12.590802858958183 -0.2709676695926343 a33.59371827980577,33.59371827980577 0 0,0 0.007465792576253453,0.5782338626229157 l -12.593601658652153 0.05419754890925588" fill="#ffa50f" stroke="none" /><path d="M 120.92983693683757 101.71520430193887 l 13.454188605316094 1.1025734335425694 a34.49929106300665,34.49929106300665 0 0,0 -0.05359777614691803,0.5914469935505888 l -13.4332162328921 -1.3340018156417288" fill="#ffb010" stroke="none" /><path d="M 120.8583938346157 102.4346265915055 l 12.486335237372137 1.457425918812053 a33.57110408710652,33.57110408710652 0 0,0 -0.07193566746841723,0.5733980478578563 l -12.45939806065687 -1.6721417209573042" fill="#ffa40f" stroke="none" /><path d="M 120.81339534386255 102.79330883721812 l 6.8886484165727895 0.9245066545173493 a27.95040930891107,27.95040930891107 0 0,0 -0.06810043889356451,0.47629431100927355 l -6.871713926662624 -1.042946437507032" fill="#ff5908" stroke="none" /><path d="M 120.49622156327973 104.57218783832717 l 41.32543954114511 9.218658741573124 a63.341181162816206,63.341181162816206 0 0,0 -0.2465463000732821,1.062115007999536 l -41.16063267514127 -9.928642406921226" fill="#33ff57" stroke="none" /><path d="M 119.79798401119884 107.00284435728193 l 0.595769468305212 0.21073261080532474 a21.631941051540018,21.631941051540018 0 0,0 -0.12719142415382267,0.3499761727282966 l -0.5920537831461626 -0.2209565805397525" fill="#ff0000" stroke="none" /><line stroke="#e1ed5e" stroke-width="0.3" x1="174.80103733775053" x2="179.2010983576182" y1="140.37084112569926" y2="142.7455964860345" /><path d="M 175.68104954172406 140.8457921977663 a86.0,86.0 0 0,1 -30.038265399797805,32.042727171017184" fill="none" id="id17" stroke="none" /><text fill="#e1ed5e" style="font-size:6.75px; font-family:Arial;" text-anchor="middle"><textPath startOffset="22.206326154141568" xlink:href="#id17">May</textPath></text><path d="M 118.48025628344425 109.97397251340804 l 0.5561158375470849 0.30014107991211036 a21.631941051540018,21.631941051540018 0 0,0 -0.17967242041632847,0.32615763243801693 l -0.5508670076792469 -0.30966923074793234" fill="#ff0000" stroke="none" /><path d="M 116.71984013943494 112.70617746262583 l 3.0024392315877537 2.2816920125525333 a24.771042267003022,24.771042267003022 0 0,0 -0.26091360380305484,0.33726600442318594 l -2.9627188105666304 -2.333036011088972" fill="#ff2d04" stroke="none" /><path d="M 116.0416608686014 113.55231037782055 l 11.942832652825853 10.089539744495124 a36.634259305421224,36.634259305421224 0 0,0 -0.41110179103090055,0.4782042586128978 l -11.767388352224174 -10.29362110226955" fill="#ffcc13" stroke="none" /><path d="M 115.32070863581623 114.36230785411682 l 4.080318192104764 3.825070198173627 a26.592866757734992,26.592866757734992 0 0,0 -0.3159402874336666,0.3312621282615758 l -4.013871353292133 -3.89473944301771" fill="#ff4706" stroke="none" /><path d="M 115.07121518719521 114.62390073753431 l 3.7694793613991853 3.6576010181395837 a26.252334706005524,26.252334706005524 0 0,0 -0.31747745298904917,0.32160298372958257 l -3.7059612833546005 -3.721944495849831" fill="#ff4206" stroke="none" /><path d="M 114.81725581225074 114.88116024355365 l 3.795360346999325 3.8117291232179342 a26.37903700232324,26.37903700232324 0 0,0 -0.3245250221824236,0.3176160376685284 l -3.729185372441107 -3.8764952638090344" fill="#ff4406" stroke="none" /><path d="M 114.29624159901734 115.38237550388516 l 2.6537374413268022 2.8553508646646066 a24.89812146653239,24.89812146653239 0 0,0 -0.3164438017545829,0.2890639100926891 l -2.6041940901053553 -2.9006075413438785" fill="#ff2f04" stroke="none" /><path d="M 112.63410532772338 116.77436683061366 l 2.029751011380982 2.69491089052437 a24.373786281919614,24.373786281919614 0 0,0 -0.3373042200634124,0.2495295981978958 l -1.9830618208990054 -2.7294504374620345" fill="#ff2703" stroke="none" /><path d="M 112.34349029814194 116.9893568818739 l 21.50312046752253 29.59650624521165 a57.58329361557866,57.58329361557866 0 0,0 -0.8069137944532665,0.575711567452375 l -20.99047934522038 -29.962262074508242" fill="#47ff2c" stroke="none" /><line stroke="#e1ed5e" stroke-width="0.3" x1="143.8653032363475" x2="146.44561519142675" y1="172.8068346515853" y2="177.08958963109032" /><path d="M 144.38136562736335 173.6633856474863 a86.0,86.0 0 0,1 -40.68145358897372,12.25698825130547" fill="none" id="id18" stroke="none" /><text fill="#e1ed5e" style="font-size:6.75px; font-family:Arial;" text-anchor="middle"><textPath startOffset="21.466115282336833" xlink:href="#id18">June</textPath></text><path d="M 109.2508944713604 118.85261126421891 l 3.653084519591089 7.44470522027898 a29.292687280015155,29.292687280015155 0 0,0 -0.4545769383232218,0.2182245549901955 l -3.5243949132676344 -7.506484051768735" fill="#ff6c09" stroke="none" /><path d="M 108.92500713936063 119.00905698771935 l 2.1701193437000375 4.622060423080103 a26.10615907708568,26.10615907708568 0 0,0 -0.4084147030671207,0.18748315870190424 l -2.0902366448654974 -4.658730652116081" fill="#ff4006" stroke="none" /><path d="M 105.88484417918355 120.15858648285463 l 3.1192707786231075 10.685090010835093 a32.13108254978014,32.13108254978014 0 0,0 -0.5322572454345954,0.15042121413374 l -2.934882365083906 -10.737200018307353" fill="#ff910d" stroke="none" /><line stroke="#e1ed5e" stroke-width="0.3" x1="102.19456741930631" x2="102.32365962044197" y1="184.97166512339345" y2="189.96999836594603" /><path d="M 102.22038585953345 185.97133177190398 a86.0,86.0 0 0,1 -42.740103519485714,-10.115201625700543" fill="none" id="id19" stroke="none" /><text fill="#e1ed5e" style="font-size:6.75px; font-family:Arial;" text-anchor="middle"><textPath startOffset="22.20632615414155" xlink:href="#id19">July</textPath></text><path d="M 99.45781275523022 120.99299961872073 l -0.17746034879141073 6.871104162728871 a27.87339541932975,27.87339541932975 0 0,0 -0.47952811879662227,-0.016515917988186392 l 0.29570881926267606 -6.867031446314591" fill="#ff5808" stroke="none" /><path d="M 95.51606077576429 120.51570834832081 l -0.8409817112988579 3.847807620144524 a24.938638561785204,24.938638561785204 0 0,0 -0.4185889330763545,-0.09526947835961283 l 0.907090793768075 -3.8327614082072246" fill="#ff2f04" stroke="none" /><line stroke="#e1ed5e" stroke-width="0.3" x1="58.666819895761336" x2="56.23545636021788" y1="174.27360380694188" y2="178.64263932499728" /><path d="M 58.180547188652646 175.14741091055294 a86.0,86.0 0 0,1 -31.652253787137756,-30.449443065178592" fill="none" id="id20" stroke="none" /><text fill="#e1ed5e" style="font-size:6.75px; font-family:Arial;" text-anchor="middle"><textPath startOffset="22.20632615414155" xlink:href="#id20">August</textPath></text><path d="M 87.95078237400918 117.19931262002967 l -3.6513847405138615 5.212065181114997 a27.363822277173426,27.363822277173426 0 0,0 -0.3834488143700943,-0.2735805478555973 l 3.7405608827328427 -5.148440371415179" fill="#ff5107" stroke="none" /><line stroke="#e1ed5e" stroke-width="0.3" x1="26.63291911575756" x2="22.317208475507996" y1="142.92168965132927" y2="145.44649492493687" /><path d="M 25.769776987707644 143.4266507060508 a86.0,86.0 0 0,1 -11.730757126820373,-40.83630448921669" fill="none" id="id21" stroke="none" /><text fill="#e1ed5e" style="font-size:6.75px; font-family:Arial;" text-anchor="middle"><textPath startOffset="21.46611528233685" xlink:href="#id21">September</textPath></text><line stroke="#e1ed5e" stroke-width="0.3" x1="15.007084014347285" x2="10.007500721073583" y1="101.09737516637583" y2="101.16192664675087" /><path d="M 14.007167355692545 101.11028546245083 a86.0,86.0 0 0,1 10.666146001902534,-42.60595125391555" fill="none" id="id22" stroke="none" /><text fill="#e1ed5e" style="font-size:6.75px; font-family:Arial;" text-anchor="middle"><textPath startOffset="22.20632615414155" xlink:href="#id22">October</textPath></text><path d="M 79.32604984820605 96.31383870115002 l -7.484105594829356 -1.3344145747479585 a28.60213777906293,28.60213777906293 0 0,0 0.09059288042879853,-0.48395078973033434 l 7.460026990490696 1.4630434419408656" fill="#ff6209" stroke="none" /><path d="M 79.3925641242962 95.95851677861259 l -3.952421174816413 -0.775139806729172 a25.027713354139454,25.027713354139454 0 0,0 0.08654905549596667,-0.42204393186976585 l 3.938492823405452 0.8430593947623404" fill="#ff3104" stroke="none" /><path d="M 79.81627453868168 94.20196356495316 l -7.0373663831388535 -2.0215745985254716 a28.321973058400054,28.321973058400054 0 0,0 0.13863484821736377,-0.46740778911417624 l 7.001525637809783 2.142411774386187" fill="#ff5e08" stroke="none" /><path d="M 79.91906864156998 93.8553929516997 l -6.126875545049416 -1.8747757255972604 a27.40729178091753,27.40729178091753 0 0,0 0.14192346123521712,-0.4499361561987627 l 6.093696600045996 1.9799620482224376" fill="#ff5207" stroke="none" /><path d="M 80.02781315780177 93.51064311812611 l -1.5662746082158256 -0.5089134699188002 a22.646878583322533,22.646878583322533 0 0,0 0.12365487552313575,-0.3697123387245419 l 1.5572824389209177 0.5357989115656642" fill="#ff0f01" stroke="none" /><path d="M 80.52162464483688 92.15188598940014 l -1.3268236339884185 -0.534596082149086 a22.430473322631144,22.430473322631144 0 0,0 0.14737708911432112,-0.35688531113617494 l 1.3174248579878978 0.5573559637385722" fill="#ff0c01" stroke="none" /><path d="M 80.65960295795068 91.81776055985345 l -4.763255676162636 -2.015165374953961 a26.171991504721262,26.171991504721262 0 0,0 0.1791027771974706,-0.41339390333277615 l 4.727862189122484 2.096858422873336" fill="#ff4106" stroke="none" /><line stroke="#e1ed5e" stroke-width="0.3" x1="26.266209847984243" x2="21.928928074336255" y1="57.711370442889674" y2="55.22380399835377" /><path d="M 25.398753493254645 57.213857153982495 a86.0,86.0 0 0,1 29.58750427330803,-30.492523968695096" fill="none" id="id23" stroke="none" /><text fill="#e1ed5e" style="font-size:6.75px; font-family:Arial;" text-anchor="middle"><textPath startOffset="21.46611528233685" xlink:href="#id23">November</textPath></text><path d="M 81.78341655067845 89.55222093294921 l -5.864831321056808 -3.3636637780287635 a27.760952627852948,27.760952627852948 0 0,0 0.24130920617629356,-0.4124756548837356 l 5.80606244041019 3.4641188452663907" fill="#ff5708" stroke="none" /><path d="M 82.95767976084542 87.72973835380427 l -5.791323367386939 -4.169681827260993 a28.136222592256534,28.136222592256534 0 0,0 0.2863696528858951,-0.39060788470767543 l 5.71869110198741 4.268752155640169" fill="#ff5c08" stroke="none" /><path d="M 83.17141714833178 87.43820079747576 l -5.926692929698052 -4.424016399604723 a28.395783270682315,28.395783270682315 0 0,0 0.29575433321333183,-0.389178034575487 l 5.8496626562606115 4.525379210061237" fill="#ff5f08" stroke="none" /><path d="M 88.39885842347998 82.49532879139004 l -2.8432750679194014 -4.29014635251929 a26.14680180674238,26.14680180674238 0 0,0 0.37730205322504373,-0.24540775075696844 l 2.7690059889100707 4.3384530274357935" fill="#ff4006" stroke="none" /><path d="M 89.00827224532344 82.1063720568725 l -5.2562490126939 -8.556740697071923 a31.042209171311484,31.042209171311484 0 0,0 0.4577069289449728,-0.2757633033715668 l 5.108180017531278 8.645950609902108" fill="#ff830c" stroke="none" /><line stroke="#e1ed5e" stroke-width="0.3" x1="56.762969772571076" x2="54.21961505331055" y1="26.818313649435495" y2="22.513508569990535" /><path d="M 56.25429882871897 25.957352633546506 a86.0,86.0 0 0,1 42.265352541879196,-11.944610805530505" fill="none" id="id24" stroke="none" /><text fill="#e1ed5e" style="font-size:6.75px; font-family:Arial;" text-anchor="middle"><textPath startOffset="22.20632615414155" xlink:href="#id24">December</textPath></text><path d="M 89.63071344664047 81.73862282372117 l -5.031829908323027 -8.861568572718888 a31.190520585097367,31.190520585097367 0 0,0 0.4691587667683212,-0.2610863457591533 l 4.87854705248266 8.946870316038225" fill="#ff850c" stroke="none" /><path d="M 89.94658935756843 81.56283822128135 l -9.528721866922151 -17.47492396892346 a40.90400733864455,40.90400733864455 0 0,0 0.6210688265128269,-0.331753458147606 l 9.226507993881018 17.636356153572816" fill="#feff18" stroke="none" /><path d="M 90.58718382345135 81.22770947309562 l -2.9684003910998205 -5.919979047368843 a27.622503514772013,27.622503514772013 0 0,0 0.42687124131661985,-0.20946386423261784 l 2.8660578827727745 5.97019807173629" fill="#ff5507" stroke="none" /><path d="M 91.23893434514133 80.91482961587045 l -3.2236364270189783 -7.022393495250694 a28.726955559322374,28.726955559322374 0 0,0 0.451174458355944,-0.20242882804451842 l 3.10227985019626 7.076842653811741" fill="#ff6409" stroke="none" /><path d="M 94.28887869178378 79.79150937346287 l -1.8908696884784177 -6.690739053405612 a27.952796362584877,27.952796362584877 0 0,0 0.46415233779679993,-0.1268703673760046 l 1.7754194614578953 6.722295961607913" fill="#ff5908" stroke="none" /><path d="M 97.83486435360386 79.11191278185805 l -0.26741716855858483 -2.579899855132805 a23.59372226819954,23.59372226819954 0 0,0 0.4043232287017414,-0.03839536244646565 l 0.22296881276660707 2.5841207620944515" fill="#ff1c02" stroke="none" /><path d="M 98.19473922651362 79.07773832637324 l -0.5354437546590683 -6.205582324182016 a27.228639658593494,27.228639658593494 0 0,0 0.46730804110832946,-0.036272097876856826 l 0.42854552418840475 6.213879684247335" fill="#ff4f07" stroke="none" /><path d="M 98.91598698831166 79.02799685794201 l -0.4541460141937617 -8.786196783552088 a29.79792603523746,29.79792603523746 0 0,0 0.51246638873385,-0.02206788070056663 l 0.30283879307058764 8.792712390776845" fill="#ff720a" stroke="none" /></svg>