<?xml version="1.0" encoding="utf-8" ?>
<svg baseProfile="full" height="200mm" version="1.1" viewBox="0,0,200,200" width="200mm" xmlns="http://www.w3.org/2000/svg" xmlns:ev="http://www.w3.org/2001/xml-events" xmlns:xlink="http://www.w3.org/1999/xlink"><defs /><rect fill="#1a1a1a" height="200" width="200" x="0" y="0" /><text alignment-baseline="middle" fill="#e1ed5e" style="dominant-baseline: central; font-size:9.0px; font-family:Arial;" text-anchor="middle" x="100.0" y="100.0">2019</text><line stroke="#e1ed5e" stroke-width="0.3" x1="100.0" x2="100.0" y1="15.0" y2="10.0" /><path d="M 100.0 14.0 a86.0,86.0 0 0,1 42.46469731375804,11.215312516191453" fill="none" id="id37" stroke="none" /><text fill="#e1ed5e" style="font-size:6.75px; font-family:Arial;" text-anchor="middle"><textPath startOffset="22.20632615414155" xlink:href="#id37">January</textPath></text><path d="M 101.44485096284872 79.0497635885617 l 0.5078217743230518 -7.3633796844816555 a28.38087009317423,28.38087009317423 0 0,0 0.4870830483815676,0.03780701903427607 l -0.6344950120669606 7.353547403258915" fill="#ff5507" stroke="none" /><path d="M 102.52436894288641 79.15227682838746 l 0.28242420207292274 -2.332425138715075 a23.349461737851154,23.349461737851154 0 0,0 0.3985922919185348,0.05174871916640112 l -0.32253122249930366 2.3272180963845375" fill="#ff0d01" stroke="none" /><path d="M 102.88285421437855 79.19881850522331 l 1.2267092332252794 -8.851297881928419 a29.935898932816478,29.935898932816478 0 0,0 0.5098098122441844,0.07513271406472341 l -1.3788880258981195 8.828870683702727" fill="#ff6a09" stroke="none" /><path d="M 103.2404852339499 79.25152402106235 l 1.8760504850217414 -12.01214806225211 a33.15776568666371,33.15776568666371 0 0,0 0.5631622195296909,0.0929265915824972 l -2.0825419106903076 11.97807520772999" fill="#ff960d" stroke="none" /><path d="M 103.95276090670814 79.375362276772 l 2.9831931378908525 -15.565646184924129 a36.84893631926768,36.84893631926768 0 0,0 0.621928609855014,0.1247530283363242 l -3.2506881572129918 15.511989200510596" fill="#ffc612" stroke="none" /><path d="M 104.66035177308747 79.52364482259891 l 2.287351973629885 -10.050020622530326 a31.3070312682437,31.3070312682437 0 0,0 0.5244320015091315,0.12411611103880636 l -2.46000766210154 10.00915859935065" fill="#ff7d0b" stroke="none" /><path d="M 106.0581310904928 79.89281104454417 l 2.127553732104734 -7.061439289659765 a28.374985405039347,28.374985405039347 0 0,0 0.4664504767114032,0.14492843367880798 l -2.2487895815268555 7.023770721098436" fill="#ff5507" stroke="none" /><path d="M 106.74666289553966 80.11325718540242 l 4.388489712426897 -12.93569392851074 a34.65983233309203,34.65983233309203 0 0,0 0.5633345005444724,0.1965363458770922 l -4.610506217034643 12.858236729461442" fill="#ffaa0f" stroke="none" /><path d="M 107.4271985657038 80.35727306442388 l 5.2161921599033665 -13.795273861883839 a35.748499638044976,35.748499638044976 0 0,0 0.5737069620964032,0.22258938822097749 l -5.4528822869994364 13.703441769772313" fill="#ffb811" stroke="none" /><path d="M 108.09893153111575 80.62456947434976 l 4.103839415586966 -9.817795740048213 a31.640987319898187,31.640987319898187 0 0,0 0.5007054288548977,0.21437593388564113 l -4.272228602232179 9.74570027819978" fill="#ff810b" stroke="none" /><path d="M 109.08828744355905 81.06846463323043 l 7.649161806523489 -15.933736489482484 a38.67466081311444,38.67466081311444 0 0,0 0.5976685082133968,0.29327334133448085 l -7.922301581747318 15.799707988013171" fill="#ffdd14" stroke="none" /><path d="M 109.41281617654863 81.2277094730956 l 4.004013251570645 -7.9853360165819876 a29.932956588749036,29.932956588749036 0 0,0 0.458600707518622,0.23491309453915604 l -4.140874446678022 7.9152303967303315" fill="#ff6a09" stroke="none" /><path d="M 110.05341064243156 81.56283822128135 l 3.480649795313038 -6.383237057919405 a28.270532190645213,28.270532190645213 0 0,0 0.425237148006591,0.23664401247117642 l -3.590011032391664 6.3223776478880485" fill="#ff5307" stroke="none" /><path d="M 110.36928655335952 81.73862282372117 l 8.78470324053266 -15.470763435028367 a38.790883403778345,38.790883403778345 0 0,0 0.5778054799646826,0.3347022287586648 l -9.049705452962671 15.317257048879654" fill="#ffdf14" stroke="none" /><line stroke="#e1ed5e" stroke-width="0.3" x1="143.23703022742887" x2="145.7803849466894" y1="26.81831364943548" y2="22.513508569990506" /><path d="M 143.74570117128098 25.957352633546492 a86.0,86.0 0 0,1 28.547481713284135,27.462654790039103" fill="none" id="id38" stroke="none" /><text fill="#e1ed5e" style="font-size:6.75px; font-family:Arial;" text-anchor="middle"><textPath startOffset="19.985693538727396" xlink:href="#id38">February</textPath></text><path d="M 110.99172775467656 82.1063720568725 l 10.890596569674509 -17.72899469908592 a41.80678607290474,41.80678607290474 0 0,0 0.6099427882670484,0.38194611805656675 l -11.19415851031382 17.538904239706408" fill="#faff18" stroke="none" /><path d="M 111.2981086023043 82.29822771554956 l 4.806768340036474 -7.5312002720594675 a29.934427760782757,29.934427760782757 0 0,0 0.4319580321807433,0.2809575198247225 l -4.935693398001497 7.447343828075216" fill="#ff6a09" stroke="none" /><path d="M 114.42810811169701 84.74124197986012 l 7.97701907041866 -8.436269175088892 a32.61048969011979,32.61048969011979 0 0,0 0.4045513808705088,0.38917810787179047 l -8.121053694901587 8.297707980454799" fill="#ff8e0d" stroke="none" /><path d="M 114.68862486808459 84.99185889309783 l 6.9170961653736045 -7.067561206869892 a30.889218410667166,30.889218410667166 0 0,0 0.3767958056012078,0.3751777246666435 l -7.037727771142134 6.947447631553129" fill="#ff770b" stroke="none" /><path d="M 115.9244219780498 86.31012108654704 l 1.238314111269783 -1.0645516844172154 a22.63300095742942,22.63300095742942 0 0,0 0.2514304242049618,0.297614317020476 l -1.256455148961862 1.0430784177676327" fill="#ff0200" stroke="none" /><path d="M 117.45458315368197 88.32363383020206 l 3.6732761222002637 -2.4572638984241886 a25.419400789295473,25.419400789295473 0 0,0 0.24015688779912575,0.36577541633508326 l -3.7150296453573146 2.3936704181114314" fill="#ff2b04" stroke="none" /><path d="M 117.65298651832404 88.62581576622439 l 7.755309888826804 -4.996906521962978 a30.225719823459357,30.225719823459357 0 0,0 0.27803690254732916,0.4397876091233026 l -7.840174387620088 4.862671265125469" fill="#ff6e0a" stroke="none" /><line stroke="#e1ed5e" stroke-width="0.3" x1="172.23445277983987" x2="176.4835382374775" y1="55.19839476539836" y2="52.563006222186495" /><path d="M 173.08426987136738 54.67131705675599 a86.0,86.0 0 0,1 12.851231095245387,41.99856678651699" fill="none" id="id39" stroke="none" /><text fill="#e1ed5e" style="font-size:6.75px; font-family:Arial;" text-anchor="middle"><textPath startOffset="22.20632615414155" xlink:href="#id39">March</textPath></text><path d="M 118.03404312379186 89.2402003453031 l 4.217194214362649 -2.5161393116347464 a25.91077224855802,25.91077224855802 0 0,0 0.2252267048084281,0.38498544682664065 l -4.259880593641404 2.4431744524542105" fill="#ff3204" stroke="none" /><path d="M 118.56541770881063 90.18545643968196 l 13.037368735010475 -6.892159679281796 a35.74702846601126,35.74702846601126 0 0,0 0.28289613921942225,0.5464652969393122 l -13.154074307390012 6.666721660082139" fill="#ffb811" stroke="none" /><path d="M 118.73160827565052 90.50648371742162 l 5.9156591158932725 -2.998162534282749 a27.632043528010648,27.632043528010648 0 0,0 0.21137195782907112,0.4261129688917094 l -5.966391086675752 2.89588997689209" fill="#ff4a06" stroke="none" /><path d="M 119.47837535516314 92.15188598940014 l 5.671166988024516 -2.2849937062830468 a27.114190972141138,27.114190972141138 0 0,0 0.17069861601221076,0.43440935876298215 l -5.709659153918428 2.1870353426242803" fill="#ff4306" stroke="none" /><path d="M 119.7369772167798 92.82701384747503 l 11.39889593268566 -4.1426871896935635 a33.1283422459893,33.1283422459893 0 0,0 0.19016759979201164,0.5376294128564102 l -11.46851661328748 3.945860150410539" fill="#ff950d" stroke="none" /><path d="M 120.08093135843002 93.85539295169968 l 14.235266871724543 -4.355879694679325 a35.886789809214676,35.886789809214676 0 0,0 0.17566430304662511,0.5922527024703768 l -14.308137071882872 4.110197605462417" fill="#ffba11" stroke="none" /><path d="M 120.28053869075195 94.5502522615342 l 7.12658025403254 -1.9150410753201161 a28.37939892114051,28.37939892114051 0 0,0 0.12271207244550156,0.4728596725372458 l -7.158488658348343 1.79208497723402" fill="#ff5507" stroke="none" /><path d="M 120.45610955862082 95.25157060432595 l 15.839715499948815 -3.6768365208218934 a37.26086448870934,37.26086448870934 0 0,0 0.1396494847818037,0.6260212577646275 l -15.900659371732656 3.403637093507302" fill="#ffcb13" stroke="none" /><path d="M 120.53481517161879 95.60439243477599 l 4.212171414134915 -0.9016420347226438 a25.307591714732737,25.307591714732737 0 0,0 0.08751691090569916,0.4267635385744765 l -4.227067620955611 0.8290028399847555" fill="#ff2904" stroke="none" /><path d="M 120.83666639777658 97.38593545837742 l 2.922378590594916 -0.3666270844402585 a23.945286411507833,23.945286411507833 0 0,0 0.047787547654012025,0.4094145249360336 l -2.9282564912525166 0.3162688211793722" fill="#ff1502" stroke="none" /><path d="M 120.87857604477298 97.74499172005257 l 8.082689995335368 -0.872977775143462 a29.129696658337807,29.129696658337807 0 0,0 0.049552213935266896,0.49898403196006486 l -8.096519334952864 0.7337182124789622" fill="#ff5f08" stroke="none" /><path d="M 120.91429891909075 98.10471618934814 l 6.4950905196970785 -0.5885944328482158 a27.521705625481633,27.521705625481633 0 0,0 0.03869488403620287,0.4721755957888425 l -6.504259887552776 0.47670491985160457" fill="#ff4906" stroke="none" /><path d="M 120.94382443527127 98.46500227214037 l 6.762493530731051 -0.49563116977127125 a27.78063190341639,27.78063190341639 0 0,0 0.030848948452930933,0.47721957849906715 l -6.770023070188397 0.37915252701916885" fill="#ff4c07" stroke="none" /><line stroke="#e1ed5e" stroke-width="0.3" x1="184.98032266829074" x2="189.97916517819016" y1="98.17113171792111" y2="98.06355123074" /><path d="M 185.9800911702706 98.14961562048488 a86.0,86.0 0 0,1 -9.607161424134198,41.387399972396054" fill="none" id="id40" stroke="none" /><text fill="#e1ed5e" style="font-size:6.75px; font-family:Arial;" text-anchor="middle"><textPath startOffset="21.466115282336823" xlink:href="#id40">April</textPath></text><path d="M 120.9904718944345 100.63252640178507 l 9.406817507556514 0.28346482443213433 a30.411087499708103,30.411087499708103 0 0,0 -0.02027096965101663,0.5231036546639288 l -9.400544405054294 -0.4453457261100693" fill="#ff710a" stroke="none" /><path d="M 120.89721153311464 102.0752229133903 l 9.028309800204424 0.8965672447197519 a30.072717931952454,30.072717931952454 0 0,0 -0.055588271320306706,0.514678354079281 l -9.011539227383066 -1.0518419206838243" fill="#ff6c0a" stroke="none" /><path d="M 120.64145759157962 103.86396538481128 l 11.701469408803373 2.1904496107624087 a32.90472409686383,32.90472409686383 0 0,0 -0.10900875527790936,0.5558332946656693 l -11.662030720549799 -2.391546632496023" fill="#ff920d" stroke="none" /><path d="M 120.23288151984713 105.62410040840565 l 13.10273148327769 3.642144467363466 a34.5995142797095,34.5995142797095 0 0,0 -0.16444220406093119,0.5724448851265492 l -13.03809664233066 -3.8671468279945977" fill="#ffa90f" stroke="none" /><path d="M 120.02730092923936 106.31721596034902 l 16.71428222941142 5.272189739320308 a38.526072437708706,38.526072437708706 0 0,0 -0.2049362299619738,0.6307288611247331 l -16.6210537484332 -5.559117500422837" fill="#ffdb14" stroke="none" /><path d="M 119.67450827220406 107.3425965602758 l 13.81345925582251 5.155232192542605 a35.744086121943816,35.744086121943816 0 0,0 -0.22009118125093727,0.5745886238026056 l -13.722673794978066 -5.392244383178355" fill="#ffb811" stroke="none" /><path d="M 118.97047184881838 109.00673069616215 l 13.291246920582344 6.310369219273594 a35.71319150923569,35.71319150923569 0 0,0 -0.26843861788704243,0.5530630617395523 l -13.180655046080588 -6.538221236978421" fill="#ffb711" stroke="none" /><path d="M 118.81262510543309 109.33194174019688 l 7.968227218138508 3.952613298547298 a29.89470611587231,29.89470611587231 0 0,0 -0.23263964951449576,0.4590200990213682 l -7.899008898837742 -4.08918760927136" fill="#ff6a09" stroke="none" /><path d="M 118.64920377521936 109.65438752849418 l 19.639083984010746 10.1668323093892 a43.114658010882,43.114658010882 0 0,0 -0.3468625395085731,0.6561332061892478 l -19.46116893627728 -10.503380530664582" fill="#eaff1a" stroke="none" /><line stroke="#e1ed5e" stroke-width="0.3" x1="174.80103733775053" x2="179.2010983576182" y1="140.37084112569926" y2="142.7455964860345" /><path d="M 175.68104954172406 140.8457921977663 a86.0,86.0 0 0,1 -30.038265399797805,32.042727171017184" fill="none" id="id41" stroke="none" /><text fill="#e1ed5e" style="font-size:6.75px; font-family:Arial;" text-anchor="middle"><textPath startOffset="22.206326154141568" xlink:href="#id41">May</textPath></text><path d="M 117.35343817320211 111.8261652097733 l 7.3696290922600785 5.0223160569072 a29.918244868411833,29.918244868411833 0 0,0 -0.29368189792740423,0.4230706777953932 l -7.282086287170538 -5.1484279968896125" fill="#ff6a09" stroke="none" /><path d="M 117.14729908036423 112.12312394758627 l 10.204771199193953 7.214763416954351 a33.497606426453075,33.497606426453075 0 0,0 -0.33692244687217904,0.4679558106355027 l -10.07906895994617 -7.389352833040984" fill="#ff9a0e" stroke="none" /><path d="M 116.27256486870786 113.27417163493432 l 4.431132310534114 3.614649030543614 a26.718445695070407,26.718445695070407 0 0,0 -0.2937807613151854,0.3538778522619464 l -4.368255549325385 -3.690388139919331" fill="#ff3d05" stroke="none" /><path d="M 115.56566222782051 114.09645910891815 l 8.91128074112621 8.07016770226835 a33.02241785956145,33.02241785956145 0 0,0 -0.3851885653031333,0.4180461119709716 l -8.771045767827356 -8.222365069040656" fill="#ff940d" stroke="none" /><path d="M 114.0293411484842 115.62618273729858 l 6.882806627011292 7.666218460357885 a31.302617752142538,31.302617752142538 0 0,0 -0.40403875789334454,0.35651722706002054 l -6.74982551621136 -7.783558829190194" fill="#ff7d0b" stroke="none" /><path d="M 113.75828350139079 115.86535959552629 l 5.4447757162755925 6.278641128958362 a29.310650818485392,29.310650818485392 0 0,0 -0.38401771162669324,0.32726822493460217 l -5.335892528071852 -6.371433744115911" fill="#ff6209" stroke="none" /><path d="M 111.7513745106137 117.40417183066458 l 3.828122140510034 5.669574692052656 a27.840949956798916,27.840949956798916 0 0,0 -0.39948488729038173,0.26475680005096747 l -3.729962554479688 -5.734629513194942" fill="#ff4d07" stroke="none" /><path d="M 111.45004920935366 117.60387380957326 l 5.609382396446551 8.624142835649943 a31.28790603180534,31.28790603180534 0 0,0 -0.45399973065412846,0.2897641083572694 l -5.460100863745492 -8.71942137283102" fill="#ff7d0b" stroke="none" /><path d="M 111.1453310114006 117.79835938074945 l 7.812636814333962 12.476266302952553 a35.720547369404294,35.720547369404294 0 0,0 -0.5239367418847513,0.32184473969021576 l -7.596720872516903 -12.608899509471147" fill="#ffb811" stroke="none" /><line stroke="#e1ed5e" stroke-width="0.3" x1="143.8653032363475" x2="146.44561519142675" y1="172.8068346515853" y2="177.08958963109032" /><path d="M 144.38136562736335 173.6633856474863 a86.0,86.0 0 0,1 -40.68145358897372,12.25698825130547" fill="none" id="id42" stroke="none" /><text fill="#e1ed5e" style="font-size:6.75px; font-family:Arial;" text-anchor="middle"><textPath startOffset="21.466115282336833" xlink:href="#id42">June</textPath></text><path d="M 109.89434966115114 118.52300852407294 l 1.4764237520667818 2.763982543699088 a24.13359643182402,24.13359643182402 0 0,0 -0.3681052615174923,0.1925752750968791 l -1.4286275880227939 -2.7889872377406837" fill="#ff1802" stroke="none" /><path d="M 109.57404056367764 118.69057910512821 l 6.718573966771983 13.116096319459352 a35.736730261775215,35.736730261775215 0 0,0 -0.5499135588708524,0.27573807443606285 l -6.491806500218369 -13.229802234804717" fill="#ffb811" stroke="none" /><path d="M 109.2508944713604 118.85261126421891 l 2.4672364326975478 5.028038046111766 a26.60075193237279,26.60075193237279 0 0,0 -0.4128022893537439,0.19817018484360893 l -2.380321475343571 -5.069762507454936" fill="#ff3c05" stroke="none" /><path d="M 107.2578585660854 119.70592522655815 l 4.102216302770268 11.137991597590396 a32.869415968054554,32.869415968054554 0 0,0 -0.5326104432120768,0.1909751555639398 l -3.909886298928456 -11.206954294194295" fill="#ff920d" stroke="none" /><path d="M 106.57524785965236 119.94407469862006 l 3.689220286385059 11.19016142689079 a32.78261681806506,32.78261681806506 0 0,0 -0.5374454867867883,0.17207307290004473 l -3.4960534545073303 -11.25200734645054" fill="#ff910d" stroke="none" /><path d="M 105.88484417918355 120.15858648285463 l 3.710820058624884 12.711447371658302 a34.24201947551549,34.24201947551549 0 0,0 -0.567225300794615,0.1603035358649457 l -3.4914635897256634 -12.773439700861767" fill="#ffa40f" stroke="none" /><path d="M 105.18746579009965 120.34920634021253 l 3.6392090060522113 14.275759682242365 a35.732316745674055,35.732316745674055 0 0,0 -0.5973196391468585,0.1468066345876797 l -3.3929360821621417 -14.336287575144075" fill="#ffb811" stroke="none" /><path d="M 101.26447882468166 120.96189622390904 l 0.6580026184341633 10.908037630562756 a31.927865866473624,31.927865866473624 0 0,0 -0.5488733584709988,0.02837048317804267 l -0.4701411915496848 -10.917747920503" fill="#ff850c" stroke="none" /><line stroke="#e1ed5e" stroke-width="0.3" x1="102.19456741930631" x2="102.32365962044197" y1="184.97166512339345" y2="189.96999836594603" /><path d="M 102.22038585953345 185.97133177190398 a86.0,86.0 0 0,1 -42.740103519485714,-10.115201625700543" fill="none" id="id43" stroke="none" /><text fill="#e1ed5e" style="font-size:6.75px; font-family:Arial;" text-anchor="middle"><textPath startOffset="22.20632615414155" xlink:href="#id43">July</textPath></text><path d="M 100.18074693466247 120.99922214144158 l 0.054131645074985024 6.2890274843889555 a27.289260444153843,27.289260444153843 0 0,0 -0.4697571594748766,0.0 l 0.054131645074980694 -6.2890274843889555" fill="#ff4506" stroke="none" /><path d="M 99.81925306533755 120.99922214144158 l -0.08034275742707661 9.334240792619397 a30.33458655395465,30.33458655395465 0 0,0 -0.5221020176685274,-0.008988459717108604 l 0.24100446498827188 -9.331474855623128" fill="#ff700a" stroke="none" /><path d="M 98.01472825383883 120.90594882070398 l -1.0094413516314469 10.629944880601741 a31.67776662074119,31.67776662074119 0 0,0 -0.5423948709120913,-0.05622144608885934 l 1.1922688191491315 -10.61099406605712" fill="#ff820c" stroke="none" /><path d="M 97.65516085044442 120.86867818915974 l -0.6802404491728513 6.054026788032868 a27.092123391635337,27.092123391635337 0 0,0 -0.4629819112650432,-0.056060661794815676 l 0.7843497834892839 -6.041420597512703" fill="#ff4306" stroke="none" /><path d="M 96.93821686468263 120.77559828337769 l -3.5445414598080065 24.051334210551556 a45.31111785722626,45.31111785722626 0 0,0 -0.7706431561147102,-0.1203586119081363 l 3.9580204795312337 -23.986757291296314" fill="#d0ff1d" stroke="none" /><path d="M 94.46302465271185 120.25689768951611 l -2.3304869733442697 8.526033298830967 a29.838801578590946,29.838801578590946 0 0,0 -0.49428519287155404,-0.1396899327868433 l 2.4769033343204376 -8.484654572705603" fill="#ff6909" stroke="none" /><path d="M 93.76903079525671 120.05430185196036 l -4.460316418798331 14.355476472222708 a36.03243584055298,36.03243584055298 0 0,0 -0.5907237402039319,-0.18913108717242466 l 4.706761504093203 -14.276572538390578" fill="#ffbc11" stroke="none" /><path d="M 93.08242187328487 119.8279376855182 l -4.9959119801256024 14.319842813441866 a36.16631249562151,36.16631249562151 0 0,0 -0.5860327955434617,-0.21013051043371814 l 5.241664336298791 -14.231724761968191" fill="#ffbd11" stroke="none" /><path d="M 92.7421414339146 119.70592522655815 l -6.106038123446715 16.578599540835775 a38.66730495294585,38.66730495294585 0 0,0 -0.6225984422635427,-0.23541345723307502 l 6.3905067864705405 -16.47103783349607" fill="#ffdd14" stroke="none" /><path d="M 91.07499286063937 119.00905698771935 l -4.850053502558468 10.329957386479624 a32.41188146556757,32.41188146556757 0 0,0 -0.5029819798050581,-0.2414619164710068 l 5.027148150363768 -10.244941193509055" fill="#ff8c0c" stroke="none" /><path d="M 90.7491055286396 118.85261126421891 l -3.4471317534852237 7.024989326837006 a28.825164047357728,28.825164047357728 0 0,0 -0.4435590058241444,-0.22240969365413965 l 3.567544666992129 -6.964611792273565" fill="#ff5b08" stroke="none" /><path d="M 90.42595943632237 118.69057910512821 l -6.04651535494154 11.804093872409513 a34.26261588398758,34.26261588398758 0 0,0 -0.522601312899115,-0.27340030724541786 l 6.24880757036715 -11.698264146219378" fill="#ffa40f" stroke="none" /><line stroke="#e1ed5e" stroke-width="0.3" x1="58.666819895761336" x2="56.23545636021788" y1="174.27360380694188" y2="178.64263932499728" /><path d="M 58.180547188652646 175.14741091055294 a86.0,86.0 0 0,1 -31.652253787137756,-30.449443065178592" fill="none" id="id44" stroke="none" /><text fill="#e1ed5e" style="font-size:6.75px; font-family:Arial;" text-anchor="middle"><textPath startOffset="22.20632615414155" xlink:href="#id44">August</textPath></text><path d="M 88.24862548938628 117.40417183066458 l -2.046604654044721 3.031088749342561 a24.65733367582841,24.65733367582841 0 0,0 -0.3497150989953169,-0.24053723396150084 l 2.098476637662928 -2.9954107260159586" fill="#ff2003" stroke="none" /><path d="M 87.95078237400918 117.19931262002967 l -1.0239147874035122 1.461558009113981 a22.7845316769026,22.7845316769026 0 0,0 -0.3192792866797052,-0.22779729365513587 l 1.0489214019321043 -1.4437164536146259" fill="#ff0500" stroke="none" /><path d="M 86.24171649860922 115.8653595955263 l -4.6987575883950266 5.418370597215798 a28.171963664385963,28.171963664385963 0 0,0 -0.3636298183271221,-0.3208610361596701 l 4.791329759628736 -5.33668641928384" fill="#ff5207" stroke="none" /><path d="M 85.97065885151581 115.62618273729859 l -7.864660663907513 8.759828661971131 a32.772318613829015,32.772318613829015 0 0,0 -0.41652126681175,-0.38048230160861485 l 8.014281480186117 -8.623153593775939" fill="#ff910d" stroke="none" /><path d="M 85.18274418774928 114.88116024355367 l -6.264540468458525 6.291558419763655 a29.87852322350139,29.87852322350139 0 0,0 -0.3613300515287689,-0.3660254345269146 l 6.3719111450428265 -6.182792491256076" fill="#ff6909" stroke="none" /><path d="M 83.95833913139862 113.55231037782056 l -1.129430621834837 0.9541651866783978 a22.4785278938888,22.4785278938888 0 0,0 -0.2471610479620783,-0.2977214043018802 l 1.1456876696904517 -0.9345825252627564" fill="#ff0000" stroke="none" /><path d="M 83.50135304334701 112.99209946851258 l -3.497529763736679 2.7541806733567755 a25.451766574037315,25.451766574037315 0 0,0 -0.26808367885400436,-0.3465342929623817 l 3.5444202598087515 -2.6935683862811413" fill="#ff2b04" stroke="none" /><path d="M 82.6465618267979 111.8261652097733 l -10.050267849837358 6.84914002679839 a33.16217920276487,33.16217920276487 0 0,0 -0.31740452559850474,-0.47447669975820395 l 10.166675480846592 -6.6751264128343655" fill="#ff960d" stroke="none" /><path d="M 82.05923443525364 110.91462005526583 l -12.576089968534582 7.6509134067900355 a35.720547369404294,35.720547369404294 0 0,0 -0.3150537382543281,-0.5280481871714214 l 12.705924582487143 -7.433303125732503" fill="#ffb811" stroke="none" /><line stroke="#e1ed5e" stroke-width="0.3" x1="26.63291911575756" x2="22.317208475507996" y1="142.92168965132927" y2="145.44649492493687" /><path d="M 25.769776987707644 143.4266507060508 a86.0,86.0 0 0,1 -11.730757126820373,-40.83630448921669" fill="none" id="id45" stroke="none" /><text fill="#e1ed5e" style="font-size:6.75px; font-family:Arial;" text-anchor="middle"><textPath startOffset="21.46611528233685" xlink:href="#id45">September</textPath></text><path d="M 81.69416730710424 110.29060199501025 l -7.827952461815076 4.400474131486061 a29.98003409382808,29.98003409382808 0 0,0 -0.24901072340054492,-0.4520267930259234 l 7.902539594667138 -4.2650768200623155" fill="#ff6b09" stroke="none" /><path d="M 81.18737489456691 109.33194174019688 l -6.1389352269416415 3.04519893229132 a27.852719333068677,27.852719333068677 0 0,0 -0.20935528767376893,-0.4313339015958649 l 6.19044377123013 -2.9390760747301705" fill="#ff4d07" stroke="none" /><path d="M 80.87730276802145 108.67885076344099 l -2.707444908518458 1.2287759423380602 a23.97323868014852,23.97323868014852 0 0,0 -0.16730913602098527,-0.37723793340536793 l 2.728195129270723 -1.1819896724399965" fill="#ff1602" stroke="none" /><path d="M 80.45479744820244 107.68017299344265 l -3.587448148357867 1.409666761517392 a24.854470728346918,24.854470728346918 0 0,0 -0.15303929727861615,-0.3995373131773828 l 3.6111817252299923 -1.3477058815068514" fill="#ff2303" stroke="none" /><path d="M 79.86692584326677 105.97154293290107 l -6.499302177397195 1.9277166360232694 a27.779160731382667,27.779160731382667 0 0,0 -0.1320268943864947,-0.45960293966072324 l 6.531521708669794 -1.81555622085795" fill="#ff4c07" stroke="none" /><path d="M 79.58551787078972 104.9243191809786 l -4.736667081611129 1.1425644018915861 a25.872521775681292,25.872521775681292 0 0,0 -0.10070501370921794,-0.4338345633642335 l 4.755632661250902 -1.0608611811787785" fill="#ff3104" stroke="none" /><path d="M 79.04373962182676 101.35467743843564 l -6.948554307490874 0.4491760256952494 a27.96305723559769,27.96305723559769 0 0,0 -0.026915972717725785,-0.4806027740027713 l 6.955256631096132 -0.3295015353570405" fill="#ff4f07" stroke="none" /><line stroke="#e1ed5e" stroke-width="0.3" x1="15.007084014347285" x2="10.007500721073583" y1="101.09737516637583" y2="101.16192664675087" /><path d="M 14.007167355692545 101.11028546245083 a86.0,86.0 0 0,1 10.666146001902534,-42.60595125391555" fill="none" id="id46" stroke="none" /><text fill="#e1ed5e" style="font-size:6.75px; font-family:Arial;" text-anchor="middle"><textPath startOffset="22.20632615414155" xlink:href="#id46">October</textPath></text><path d="M 79.03285615573316 98.82574320788736 l -1.4762146204251128 -0.0826748296060441 a22.4785278938888,22.4785278938888 0 0,0 0.024961237408395225,-0.3861392946026772 l 1.4745727920123044 0.1080731884617331" fill="#ff0000" stroke="none" /><path d="M 79.16333360222342 97.38593545837743 l -4.929506743476043 -0.6184314006766969 a25.968147957873107,25.968147957873107 0 0,0 0.05945964051774667,-0.44304338589795267 l 4.918131103900462 0.7031931286393089" fill="#ff3304" stroke="none" /><path d="M 79.54389044137918 95.25157060432595 l -10.108871178561385 -2.346548884273737 a31.377647525862272,31.377647525862272 0 0,0 0.1266569197700247,-0.5250747017320948 l 10.066981458530545 2.5202088176652286" fill="#ff7e0b" stroke="none" /><path d="M 79.71946130924805 94.55025226153421 l -14.260264356005697 -3.8319910831315718 a35.766153702449614,35.766153702449614 0 0,0 0.16488746877876476,-0.5931879549878065 l 14.192190116660571 4.076890341538321" fill="#ffb811" stroke="none" /><path d="M 79.91906864156998 93.8553929516997 l -5.541329796197547 -1.6956033320824022 a26.794946640823856,26.794946640823856 0 0,0 0.13875254809110388,-0.43988349500176804 l 5.5113217643382395 1.7907369935105848" fill="#ff3e05" stroke="none" /><path d="M 80.2630227832202 92.82701384747504 l -16.9075326861815 -6.144684492427563 a38.98949162833057,38.98949162833057 0 0,0 0.23467108754643753,-0.6288018435001786 l 16.799257010133438 6.434809472957084" fill="#ffe115" stroke="none" /><path d="M 80.38941819471856 92.48833698450439 l -11.144551264818649 -4.268823556152099 a32.93414753753824,32.93414753753824 0 0,0 0.20733841588621785,-0.5276536529483087 l 11.06941929905074 4.460026213996171" fill="#ff930d" stroke="none" /><path d="M 80.52162464483688 92.15188598940014 l -15.133118839555314 -6.097348460702359 a37.315297853956984,37.315297853956984 0 0,0 0.24517627862990457,-0.5937138059102861 l 15.025920874039208 6.356936837065956" fill="#ffcc13" stroke="none" /><path d="M 80.803312248108 91.48605970444005 l -21.57526060319946 -9.568863285734409 a44.602012936973125,44.602012936973125 0 0,0 0.3173065424549714,-0.6991429057234656 l 21.40735174378114 9.938828200299945" fill="#d8ff1c" stroke="none" /><path d="M 80.95270993114464 91.15688171328213 l -15.3626404429441 -7.132439635358303 a37.93760362422063,37.93760362422063 0 0,0 0.28009117081975615,-0.5899434379005942 l 15.237591078282593 7.395825488899429" fill="#ffd413" stroke="none" /><path d="M 81.26839172434947 90.50648371742162 l -20.22976950545934 -10.252811363909228 a43.67958807183056,43.67958807183056 0 0,0 0.34567311909477344,-0.6677304405471278 l 20.050286953204456 10.59951452671669" fill="#e3ff1b" stroke="none" /><line stroke="#e1ed5e" stroke-width="0.3" x1="26.266209847984243" x2="21.928928074336255" y1="57.711370442889674" y2="55.22380399835377" /><path d="M 25.398753493254645 57.213857153982495 a86.0,86.0 0 0,1 29.58750427330803,-30.492523968695096" fill="none" id="id47" stroke="none" /><text fill="#e1ed5e" style="font-size:6.75px; font-family:Arial;" text-anchor="middle"><textPath startOffset="21.46611528233685" xlink:href="#id47">November</textPath></text><path d="M 81.96595687620814 89.24020034530311 l -2.9411708001906063 -1.7548149543096718 a24.424888494500617,24.424888494500617 0 0,0 0.21852622270178157,-0.3591996525202635 l 2.910528779202608 1.8051823800370097" fill="#ff1c02" stroke="none" /><path d="M 82.15384107792192 88.93136811851018 l -16.297960981823547 -10.108400990619618 a40.17819863157649,40.17819863157649 0 0,0 0.3695866289604193,-0.5845972905944612 l 16.121546756617164 10.387445928928296" fill="#fff016" stroke="none" /><path d="M 82.34701348167596 88.62581576622439 l -4.246808189799274 -2.7363063301580057 a26.052004763795157,26.052004763795157 0 0,0 0.24613359051468806,-0.3748783446088887 l 4.1990779639266655 2.8090027387445615" fill="#ff3404" stroke="none" /><path d="M 82.54541684631803 88.32363383020206 l -19.04258623536108 -12.738672000719 a43.910562081124624,43.910562081124624 0 0,0 0.42567219706909015,-0.6246214240086035 l 18.82048957262325 13.064571447998018" fill="#e1ff1b" stroke="none" /><path d="M 83.17141714833178 87.43820079747576 l -11.893146940263104 -8.87771270264095 a35.84118347616935,35.84118347616935 0 0,0 0.37330138843239746,-0.4912208692801394 l 11.738569611606598 9.081118347802116" fill="#ffb911" stroke="none" /><path d="M 83.6137871275137 86.86637796730984 l -10.479630384110926 -8.399470065368735 a34.43032949583168,34.43032949583168 0 0,0 0.3746372480049618,-0.45926096844724906 l 10.333494644029571 8.578615203424068" fill="#ffa70f" stroke="none" /><path d="M 83.84228863543731 86.58626213691792 l -28.32683793042393 -23.516249914085584 a57.816080143847934,57.816080143847934 0 0,0 0.642279898444645,-0.7602568142499707 l 27.917847418492162 24.000365677964673" fill="#48ff2c" stroke="none" /><path d="M 84.31358615837235 86.03803664274999 l -13.201379362455201 -11.750115532119032 a38.673189641080725,38.673189641080725 0 0,0 0.44687120971761574,-0.49344635103445045 l 12.99716451212154 11.97561467042304" fill="#ffdd14" stroke="none" /><path d="M 84.80347519578584 85.50635884689758 l -1.9035135102586154 -1.8154704515153373 a23.63045559629171,23.63045559629171 0 0,0 0.28326810183634576,-0.2919326789114773 l 1.8719811447191512 1.8479673259769382" fill="#ff1101" stroke="none" /><path d="M 85.05521093208273 85.24692304244772 l -12.150078962229175 -11.994217459710503 a38.072951451322886,38.072951451322886 0 0,0 0.4644251020855647,-0.4624307131033979 l 11.941818059976297 12.201584023464012" fill="#ffd614" stroke="none" /><path d="M 85.31137513191541 84.99185889309783 l -30.956114838282367 -31.629491786115278 a65.25726829040468,65.25726829040468 0 0,0 0.8095529459871339,-0.778789292631656 l 30.40707864868281 32.157664165509246" fill="#36ff6a" stroke="none" /><path d="M 85.83668400450813 84.49514656593479 l -11.185325260993851 -12.244789909316294 a37.58452233612778,37.58452233612778 0 0,0 0.4814201688034365,-0.43222378090990676 l 10.972894104594443 12.43551269899548" fill="#ffcf13" stroke="none" /><path d="M 86.37877921826538 84.01681056812374 l -5.16437756841518 -6.059899204071246 a28.961983046493707,28.961983046493707 0 0,0 0.3822188245739883,-0.3200972735557723 l 5.059301206882082 6.14789763502083" fill="#ff5d08" stroke="none" /><path d="M 86.93701828274178 83.55741782278169 l -19.383533317603614 -24.398360677369244 a52.16089484622749,52.16089484622749 0 0,0 0.707816996425111,-0.5524623929169556 l 18.960683766019077 24.72840145950942" fill="#83ff25" stroke="none" /><path d="M 87.51073957382395 83.11751280151077 l -10.509842577999672 -14.206788610904377 a38.67171846904701,38.67171846904701 0 0,0 0.538558342424798,-0.3912855395836908 l 10.263738919221092 14.385593385304736" fill="#ffdd14" stroke="none" /><path d="M 88.09926311788651 82.69761687909137 l -10.014593893091133 -14.560135397918485 a38.67171846904701,38.67171846904701 0 0,0 0.5517078720265909,-0.37251561796323335 l 9.762481326658003 14.730362928180384" fill="#ffdd14" stroke="none" /><path d="M 88.70189139769569 82.29822771554957 l -8.086736724872837 -12.670224465607033 a36.03096466851925,36.03096466851925 0 0,0 0.5256760712374628,-0.32917830758328526 l 7.867441501263132 12.807547114513248" fill="#ffbc11" stroke="none" /><line stroke="#e1ed5e" stroke-width="0.3" x1="56.762969772571076" x2="54.21961505331055" y1="26.818313649435495" y2="22.513508569990535" /><path d="M 56.25429882871897 25.957352633546506 a86.0,86.0 0 0,1 42.265352541879196,-11.944610805530505" fill="none" id="id48" stroke="none" /><text fill="#e1ed5e" style="font-size:6.75px; font-family:Arial;" text-anchor="middle"><textPath startOffset="22.20632615414155" xlink:href="#id48">December</textPath></text><path d="M 89.3179101791058 81.91981866633112 l -15.0551537503269 -25.481896742690875 a50.597038974382926,50.597038974382926 0 0,0 0.7536628151793584,-0.43657014812056844 l 14.614294202682222 25.737271048201492" fill="#94ff23" stroke="none" /><path d="M 89.94658935756843 81.56283822128135 l -4.684298217043109 -8.590633280498167 a30.784765196273028,30.784765196273028 0 0,0 0.4674226130616515,-0.24968097202732586 l 4.535730557453152 8.669992979027242" fill="#ff760a" stroke="none" /><path d="M 90.91171255644093 81.06846463323043 l -3.3852666327023018 -7.051746039169168 a28.82222170329029,28.82222170329029 0 0,0 0.44910756857475687,-0.2108620253208835 l 3.2633808528279364 7.10897304713006" fill="#ff5b08" stroke="none" /><path d="M 91.56875222667455 80.76684994638697 l -25.293743319976343 -57.69945016083907 a84.0,84.0 0 0,0 1.329264968838767,-0.5691218881488553 l 24.29679459334727 58.12629157695071" fill="#4dd2ff" stroke="none" /><path d="M 92.91201910852362 80.23233633223022 l -1.6356497015521938 -4.561662012584382 a25.846040679074328,25.846040679074328 0 0,0 0.4200818479752597,-0.14655830823526333 l 1.5568858495136488 4.589141173991854" fill="#ff3104" stroke="none" /><path d="M 93.94186890950719 79.89281104454417 l -2.4365222373854607 -8.086918604016896 a29.44599864558765,29.44599864558765 0 0,0 0.48657378947246677,-0.1420442318788457 l 2.296958230189573 8.12766116481444" fill="#ff6309" stroke="none" /><path d="M 94.63758080256005 79.69619591428918 l -3.015867733487699 -11.419022898915522 a32.81056908670574,32.81056908670574 0 0,0 0.5472976527742742,-0.13951835778273056 l 2.8188611920284257 11.469244252867115" fill="#ff910d" stroke="none" /><path d="M 96.04723909329186 79.375362276772 l -2.8912577325460402 -15.085947444239565 a36.360507204072576,36.360507204072576 0 0,0 0.6157130362353145,-0.11251762183332119 l 2.631149575207832 15.133480547423622" fill="#ffc011" stroke="none" /><path d="M 97.47563105711357 79.15227682838746 l -1.140130764410863 -9.41587030012279 a30.484646101394112,30.484646101394112 0 0,0 0.521480948159211,-0.058594460650905254 l 0.9778831127419338 9.434100714244293" fill="#ff720a" stroke="none" /><path d="M 98.55514903715128 79.0497635885617 l -0.6085358794558862 -8.82372706061465 a29.844686266725823,29.844686266725823 0 0,0 0.5128140688337899,-0.030934345066528077 l 0.4565597617824734 8.832894675061484" fill="#ff6909" stroke="none" /><path d="M 99.27714615592234 79.0124445844662 l -0.603022458161044 -17.50833499905493 a38.518716577540104,38.518716577540104 0 0,0 0.6628399151238314,-0.0171191994394152 l 0.30155590784233355 17.516120990636708" fill="#ffdb14" stroke="none" /></svg>