<?xml version="1.0" encoding="utf-8" ?>
<svg baseProfile="full" height="200mm" version="1.1" viewBox="0,0,200,200" width="200mm" xmlns="http://www.w3.org/2000/svg" xmlns:ev="http://www.w3.org/2001/xml-events" xmlns:xlink="http://www.w3.org/1999/xlink"><defs /><rect fill="#1a1a1a" height="200" width="200" x="0" y="0" /><text alignment-baseline="middle" fill="#e1ed5e" style="dominant-baseline: central; font-size:9.0px; font-family:Arial;" text-anchor="middle" x="100.0" y="100.0">2018</text><line stroke="#e1ed5e" stroke-width="0.3" x1="100.0" x2="100.0" y1="15.0" y2="10.0" /><path d="M 100.0 14.0 a86.0,86.0 0 0,1 42.46469731375804,11.215312516191453" fill="none" id="id25" stroke="none" /><text fill="#e1ed5e" style="font-size:6.75px; font-family:Arial;" text-anchor="middle"><textPath startOffset="22.20632615414155" xlink:href="#id25">January</textPath></text><path d="M 101.80526077348638 79.07773832637324 l 1.5300006782072304 -17.732105533128774 a38.7979905807743,38.7979905807743 0 0,0 0.664877234733812,0.06313810485729553 l -1.8350030400312867 17.7031418837563" fill="#ffe615" stroke="none" /><path d="M 103.59715602781102 79.31037775812273 l 2.218928688361764 -12.76252572558158 a33.953984229578424,33.953984229578424 0 0,0 0.5749620214301547,0.10507063435160804 l -2.4382858308948197 12.722439609879235" fill="#ffa80f" stroke="none" /><path d="M 105.71112130821622 79.79150937346287 l 2.5316260394090686 -8.958020382738924 a30.30888068357201,30.30888068357201 0 0,0 0.5008322898596642,0.1462066791356892 l -2.6854485469921596 8.913115374684532" fill="#ff780b" stroke="none" /><path d="M 107.76421540070413 80.48803036053334 l 1.6304841447799852 -4.097510886636869 a25.409997053568922,25.409997053568922 0 0,0 0.40500647083528885,0.16521230856057914 l -1.7007744852036615 4.0688376918927105" fill="#ff3505" stroke="none" /><line stroke="#e1ed5e" stroke-width="0.3" x1="143.23703022742887" x2="145.7803849466894" y1="26.81831364943548" y2="22.513508569990506" /><path d="M 143.74570117128098 25.957352633546492 a86.0,86.0 0 0,1 28.547481713284135,27.462654790039103" fill="none" id="id26" stroke="none" /><text fill="#e1ed5e" style="font-size:6.75px; font-family:Arial;" text-anchor="middle"><textPath startOffset="19.985693538727396" xlink:href="#id26">February</textPath></text><path d="M 110.99172775467656 82.1063720568725 l 2.97349271211002 -4.840601356730335 a26.680940098588522,26.680940098588522 0 0,0 0.38926328775763913,0.24375663508275097 l -3.0563751522399225 4.788700380324641" fill="#ff4606" stroke="none" /><path d="M 111.90073688211348 82.69761687909136 l 4.479974731753056 -6.5133982835368265 a28.905348240092042,28.905348240092042 0 0,0 0.4075225482562748,0.28549558810389947 l -4.591428419592982 6.435317852668992" fill="#ff6509" stroke="none" /><path d="M 112.19680574252982 82.90503203632743 l 4.565416842370326 -6.398860185908312 a28.860562487723204,28.860562487723204 0 0,0 0.40192412724756205,0.2920149714767903 l -4.674886285971677 6.319325979614847" fill="#ff6409" stroke="none" /><path d="M 112.77801427241765 83.33499621200491 l 3.1688809656139814 -4.132834114112382 a26.20789058919268,26.20789058919268 0 0,0 0.3556378864696881,0.27758101142427344 l -3.2395514072430998 4.077674713464884" fill="#ff4006" stroke="none" /><path d="M 113.34407831869373 83.78471172551755 l 4.665384798067088 -5.669223276819878 a28.342064278966223,28.342064278966223 0 0,0 0.3740375953302722,0.313245729343716 l -4.7622799303564785 5.5880763900823425" fill="#ff5d08" stroke="none" /><path d="M 114.42810811169701 84.74124197986012 l 0.5081127598288205 -0.5373656469130456 a21.739554200301193,21.739554200301193 0 0,0 0.26969134026545216,0.2594428556591961 l -0.5172873437066909 0.5285397044915474" fill="#ff0000" stroke="none" /><path d="M 116.60985879189232 87.15038557335679 l 6.029325606812434 -4.664368931182219 a28.62293282137145,28.62293282137145 0 0,0 0.2981201937801349,0.3922912297583402 l -6.108721740816682 4.5598929255428455" fill="#ff6109" stroke="none" /><path d="M 117.04232023915458 87.72973835380427 l 7.9124745127230325 -5.6968846481893705 a30.749961415783517,30.749961415783517 0 0,0 0.30557756614245457,0.43221779646472136 l -8.00936469866937 5.559840351392856" fill="#ff7e0b" stroke="none" /><path d="M 117.45458315368197 88.32363383020206 l 8.238392145982022 -5.5111303718864075 a30.911794142682094,30.911794142682094 0 0,0 0.2920478078586341,0.4448088476171082 l -8.33203658919858 5.368503460291625" fill="#ff800b" stroke="none" /><path d="M 117.65298651832404 88.62581576622439 l 4.444599095838918 -2.8637471007451882 a26.287296906715056,26.287296906715056 0 0,0 0.24180858722220958,0.38248311452770745 l -4.4932352793070836 2.7868163385032747" fill="#ff4106" stroke="none" /><line stroke="#e1ed5e" stroke-width="0.3" x1="172.23445277983987" x2="176.4835382374775" y1="55.19839476539836" y2="52.563006222186495" /><path d="M 173.08426987136738 54.67131705675599 a86.0,86.0 0 0,1 12.851231095245387,41.99856678651699" fill="none" id="id27" stroke="none" /><text fill="#e1ed5e" style="font-size:6.75px; font-family:Arial;" text-anchor="middle"><textPath startOffset="22.20632615414155" xlink:href="#id27">March</textPath></text><path d="M 118.73160827565052 90.50648371742162 l 8.51169543377109 -4.313880474315424 a30.542459007193035,30.542459007193035 0 0,0 0.23363524853745488,0.47099440443539753 l -8.584690695261953 4.166726481381077" fill="#ff7b0b" stroke="none" /><path d="M 118.89224826269711 90.83032412892265 l 5.9451232846612845 -2.8855672853706165 a27.608402940818827,27.608402940818827 0 0,0 0.20383126938519625,0.42932063677982846 l -5.993912747888237 2.7828042329502476" fill="#ff5307" stroke="none" /><path d="M 119.04729006885535 91.15688171328212 l 4.625683272399426 -2.1475739691498585 a26.099903890224397,26.099903890224397 0 0,0 0.18567929374661196,0.4091197110475856 l -4.661964883109385 2.06763224926021" fill="#ff3e05" stroke="none" /><path d="M 119.196687751892 91.48605970444005 l 15.101372518232463 -6.697623343306658 a37.51997610117015,37.51997610117015 0 0,0 0.2567604348675593,0.5926384841832553 l -15.214423662942703 6.4366857145368" fill="#ffd614" stroke="none" /><path d="M 119.34039704204932 91.81776055985345 l 24.043932975350387 -10.172139499484961 a47.10714719995511,47.10714719995511 0 0,0 0.3095126050596855,0.7495093234716419 l -24.21546726729627 9.756755605560016" fill="#b6ff1f" stroke="none" /><path d="M 119.61058180528143 92.48833698450437 l 15.938745290446429 -6.105197933465059 a38.06801228147303,38.06801228147303 0 0,0 0.22912486082104605,0.6139407132865762 l -16.0414747397691 5.8299340831491495" fill="#ffdd14" stroke="none" /><path d="M 119.85752413597 93.16781622104841 l 16.821914419812565 -5.787751284752047 a38.78974057375899,38.78974057375899 0 0,0 0.21179698228943708,0.6332460190166769 l -16.919048695873773 5.4973321628130565" fill="#ffe515" stroke="none" /><path d="M 119.97218684219823 93.5106431181261 l 8.980422478350949 -2.9179161437089545 a30.44257499368622,30.44257499368622 0 0,0 0.15764109954945296,0.4997653648868847 l -9.029319061668609 2.7629006123956508" fill="#ff7a0b" stroke="none" /><path d="M 120.18372546131832 94.20196356495316 l 17.909023245542503 -5.1445987755213025 a39.63330379107465,39.63330379107465 0 0,0 0.18271562538754008,0.6573253199330525 l -17.994925641496405 4.835562152169298" fill="#fff016" stroke="none" /><path d="M 120.37134235888165 94.90015583598534 l 2.3759007664210263 -0.5947925985656738 a23.449220832670775,23.449220832670775 0 0,0 0.09465356124053131,0.39240011936573466 l -2.3857871279223772 0.553807247540533" fill="#ff1902" stroke="none" /><path d="M 120.53481517161879 95.60439243477599 l 13.845859730633977 -2.9637941841873183 a35.159516504690906,35.159516504690906 0 0,0 0.12158613542185431,0.5928971767540647 l -13.894825161970829 2.725021351269842" fill="#ffb811" stroke="none" /><path d="M 120.6074358757038 95.95851677861258 l 6.408030887777284 -1.256728370831328 a27.530101534950287,27.530101534950287 0 0,0 0.08719737020406143,0.4658118383356851 l -6.428713981891205 1.14623845503308" fill="#ff5207" stroke="none" /><path d="M 120.87857604477298 97.74499172005257 l 8.551195596109329 -0.9235791191566481 a29.60092695657054,29.60092695657054 0 0,0 0.05035381873138565,0.5070560828623392 l -8.565826540522943 0.7762475055898741" fill="#ff6e0a" stroke="none" /><path d="M 120.91429891909075 98.10471618934814 l 9.084042760267506 -0.8232090038212371 a30.12126668475058,30.12126668475058 0 0,0 0.04234980699418652,0.5167749134566154 l -9.096867051081187 0.6667201731568528" fill="#ff750a" stroke="none" /><path d="M 120.94382443527127 98.46500227214037 l 6.0908780502401845 -0.4464076748105008 a27.10721501463862,27.10721501463862 0 0,0 0.03010115398369556,0.4656515290416623 l -6.097659795228296 0.34149708151580327" fill="#ff4c07" stroke="none" /><line stroke="#e1ed5e" stroke-width="0.3" x1="184.98032266829074" x2="189.97916517819016" y1="98.17113171792111" y2="98.06355123074" /><path d="M 185.9800911702706 98.14961562048488 a86.0,86.0 0 0,1 -9.607161424134198,41.387399972396054" fill="none" id="id28" stroke="none" /><text fill="#e1ed5e" style="font-size:6.75px; font-family:Arial;" text-anchor="middle"><textPath startOffset="21.466115282336823" xlink:href="#id28">April</textPath></text><path d="M 120.99980553446 99.90962569577887 l 10.756436324068098 -0.046291164320133873 a31.756535932428513,31.756535932428513 0 0,0 -0.0023525585250511426,0.5466517497455723 l -10.755639468253543 -0.13887006362912316" fill="#ff8b0c" stroke="none" /><path d="M 120.9764740272857 100.99374915477107 l 3.173430177055367 0.15033954477152064 a24.17698930866438,24.17698930866438 0 0,0 -0.02327167516577606,0.41553139311205023 l -3.1703721510020615 -0.20494265421899419" fill="#ff2303" stroke="none" /><path d="M 120.8583938346157 102.4346265915055 l 7.287946296359189 0.850661272927637 a28.337423650020114,28.337423650020114 0 0,0 -0.06072101409921797,0.48400622630946194 l -7.272223773013123 -0.9759852535244938" fill="#ff5d08" stroke="none" /><path d="M 120.81339534386255 102.79330883721812 l 9.360202007426743 1.2562070990114431 a30.44412187000159,30.44412187000159 0 0,0 -0.07417630411642251,0.5187888982266818 l -9.337191652293718 -1.4171414692185342" fill="#ff7a0b" stroke="none" /><path d="M 120.76222939487914 103.15116336523771 l 8.558600767309807 1.2989717377023977 a29.656614503923898,29.656614503923898 0 0,0 -0.08094595785468983,0.5040505568301042 l -8.534973055093829 -1.4461015242257067" fill="#ff6f0a" stroke="none" /><path d="M 120.70491114924044 103.5080841355445 l 13.210543428765424 2.2382949383520416 a34.39882166141298,34.39882166141298 0 0,0 -0.10393941017887776,0.5829474107699467 l -13.170057576247359 -2.4653610998552065" fill="#ffae10" stroke="none" /><path d="M 120.23288151984713 105.62410040840565 l 4.295245683282703 1.1939422952611356 a25.45809754089927,25.45809754089927 0 0,0 -0.12099550406922063,0.4212012227838398 l -4.274057542327383 -1.2677009935495573" fill="#ff3505" stroke="none" /><line stroke="#e1ed5e" stroke-width="0.3" x1="174.80103733775053" x2="179.2010983576182" y1="140.37084112569926" y2="142.7455964860345" /><path d="M 175.68104954172406 140.8457921977663 a86.0,86.0 0 0,1 -30.038265399797805,32.042727171017184" fill="none" id="id29" stroke="none" /><text fill="#e1ed5e" style="font-size:6.75px; font-family:Arial;" text-anchor="middle"><textPath startOffset="22.206326154141568" xlink:href="#id29">May</textPath></text><path d="M 113.75828350139079 115.86535959552629 l 3.663896310328492 4.225020692312917 a26.59239984472776,26.59239984472776 0 0,0 -0.34840415514056067,0.29691757947751213 l -3.5906266786108842 -4.287462662013375" fill="#ff4506" stroke="none" /><line stroke="#e1ed5e" stroke-width="0.3" x1="143.8653032363475" x2="146.44561519142675" y1="172.8068346515853" y2="177.08958963109032" /><path d="M 144.38136562736335 173.6633856474863 a86.0,86.0 0 0,1 -40.68145358897372,12.25698825130547" fill="none" id="id30" stroke="none" /><text fill="#e1ed5e" style="font-size:6.75px; font-family:Arial;" text-anchor="middle"><textPath startOffset="21.466115282336833" xlink:href="#id30">June</textPath></text><line stroke="#e1ed5e" stroke-width="0.3" x1="102.19456741930631" x2="102.32365962044197" y1="184.97166512339345" y2="189.96999836594603" /><path d="M 102.22038585953345 185.97133177190398 a86.0,86.0 0 0,1 -42.740103519485714,-10.115201625700543" fill="none" id="id31" stroke="none" /><text fill="#e1ed5e" style="font-size:6.75px; font-family:Arial;" text-anchor="middle"><textPath startOffset="22.20632615414155" xlink:href="#id31">July</textPath></text><line stroke="#e1ed5e" stroke-width="0.3" x1="58.666819895761336" x2="56.23545636021788" y1="174.27360380694188" y2="178.64263932499728" /><path d="M 58.180547188652646 175.14741091055294 a86.0,86.0 0 0,1 -31.652253787137756,-30.449443065178592" fill="none" id="id32" stroke="none" /><text fill="#e1ed5e" style="font-size:6.75px; font-family:Arial;" text-anchor="middle"><textPath startOffset="22.20632615414155" xlink:href="#id32">August</textPath></text><line stroke="#e1ed5e" stroke-width="0.3" x1="26.63291911575756" x2="22.317208475507996" y1="142.92168965132927" y2="145.44649492493687" /><path d="M 25.769776987707644 143.4266507060508 a86.0,86.0 0 0,1 -11.730757126820373,-40.83630448921669" fill="none" id="id33" stroke="none" /><text fill="#e1ed5e" style="font-size:6.75px; font-family:Arial;" text-anchor="middle"><textPath startOffset="21.46611528233685" xlink:href="#id33">September</textPath></text><path d="M 79.1416061653843 102.43462659150553 l -4.472007523991953 0.5219801928015624 a25.50236766782965,25.50236766782965 0 0,0 -0.04714015329233971,-0.43645927335545653 l 4.480329978785345 -0.44492459756132374" fill="#ff3605" stroke="none" /><path d="M 79.10278846688536 102.07522291339032 l -5.25833862356436 0.5221856887792926 a26.284203154084317,26.284203154084317 0 0,0 -0.040834892354160504,-0.45060963441146823 l 5.266548112195596 -0.43159466581925815" fill="#ff4106" stroke="none" /><line stroke="#e1ed5e" stroke-width="0.3" x1="15.007084014347285" x2="10.007500721073583" y1="101.09737516637583" y2="101.16192664675087" /><path d="M 14.007167355692545 101.11028546245083 a86.0,86.0 0 0,1 10.666146001902534,-42.60595125391555" fill="none" id="id34" stroke="none" /><text fill="#e1ed5e" style="font-size:6.75px; font-family:Arial;" text-anchor="middle"><textPath startOffset="22.20632615414155" xlink:href="#id34">October</textPath></text><path d="M 79.01574976396665 99.18683210126434 l -8.909434430170231 -0.3452525581335285 a29.916121421021614,29.916121421021614 0 0,0 0.02436937586486734,-0.5143990084784946 l 8.902171446071865 0.4985626732350322" fill="#ff730a" stroke="none" /><path d="M 79.03285615573316 98.82574320788736 l -9.22209449647885 -0.5164798400978198 a30.236545800634183,30.236545800634183 0 0,0 0.03357611324470389,-0.5194076107560687 l 9.211837792229733 0.6751465151069002" fill="#ff770b" stroke="none" /><path d="M 79.08570108090925 98.10471618934814 l -8.823834247890108 -0.7996285346498508 a29.859991909006727,29.859991909006727 0 0,0 0.05079451133786266,-0.51149379726845 l 8.808762610870017 0.9513978626227312" fill="#ff720a" stroke="none" /><path d="M 79.16333360222342 97.38593545837743 l -10.980866085647898 -1.3776048492027932 a32.066942446379635,32.066942446379635 0 0,0 0.07342413765733836,-0.5470951097431449 l 10.955525948932726 1.5664183010105976" fill="#ff8f0d" stroke="none" /><path d="M 79.21141760316559 97.0276538004421 l -10.234938447253079 -1.4633888841325822 a31.339026648832185,31.339026648832185 0 0,0 0.0809503571927524,-0.5333617114790716 l 10.208232196621024 1.639349708003746" fill="#ff860c" stroke="none" /><path d="M 79.26566170972629 96.67025291283419 l -11.693647802091153 -1.8778940114824323 a32.84347435669588,32.84347435669588 0 0,0 0.09444553702900738,-0.5574229058005277 l 11.659590403541923 2.078902705598788" fill="#ff9a0e" stroke="none" /><path d="M 79.3925641242962 95.95851677861259 l -14.481697309807448 -2.8401173754859066 a35.75756835252411,35.75756835252411 0 0,0 0.12365427572038136,-0.6029821633347565 l 14.43066373817207 3.088975194984066" fill="#ffbf11" stroke="none" /><path d="M 79.62865764111835 94.90015583598534 l -12.150535158632499 -3.041814070312871 a33.52549949022065,33.52549949022065 0 0,0 0.14496372998057983,-0.5586043860422834 l 12.096375096781612 3.2505148819040186" fill="#ffa30f" stroke="none" /><path d="M 79.71946130924805 94.55025226153421 l -14.637536515994592 -3.9333709395563496 a36.156809763443675,36.156809763443675 0 0,0 0.16668845329603427,-0.599667054525669 l 14.567661292132197 4.184749297500962" fill="#ffc412" stroke="none" /><path d="M 79.91906864156998 93.8553929516997 l -5.937486935824598 -1.8168243008182459 a27.209235190676182,27.209235190676182 0 0,0 0.14089786275463073,-0.44668472874524573 l 5.9053335893017636 1.9187591959899062" fill="#ff4e07" stroke="none" /><path d="M 80.2630227832202 92.82701384747504 l -20.764796703747884 -7.546525366070252 a43.0935924477827,43.0935924477827 0 0,0 0.25937296906574514,-0.6949906049691004 l 20.63181914618051 7.902839108068694" fill="#e5ff1a" stroke="none" /><path d="M 80.38941819471856 92.48833698450439 l -8.834543348774577 -3.3839950895240873 a30.460474562478367,30.460474562478367 0 0,0 0.19176529575353873,-0.48802176085205395 l 8.774984503139347 3.5355658552719045" fill="#ff7a0b" stroke="none" /><path d="M 80.803312248108 91.48605970444005 l -13.490104262466966 -5.983008306222127 a35.757347370193344,35.757347370193344 0 0,0 0.2543840404115941,-0.5605015131645954 l 13.38511790509202 6.214331828228794" fill="#ffbf11" stroke="none" /><path d="M 81.10775173730289 90.83032412892265 l -26.53636002719329 -12.879876278570409 a50.49694249314838,50.49694249314838 0 0,0 0.3862775327615055,-0.7787119350726404 l 26.310722481478372 13.334747802142012" fill="#91ff24" stroke="none" /><path d="M 81.43458229118936 90.18545643968196 l -13.759892989429892 -7.274119615740447 a36.56430118137855,36.56430118137855 0 0,0 0.2989425890751981,-0.5538952160454977 l 13.632642301136222 7.509895815118417" fill="#ffca12" stroke="none" /><line stroke="#e1ed5e" stroke-width="0.3" x1="26.266209847984243" x2="21.928928074336255" y1="57.711370442889674" y2="55.22380399835377" /><path d="M 25.398753493254645 57.213857153982495 a86.0,86.0 0 0,1 29.58750427330803,-30.492523968695096" fill="none" id="id35" stroke="none" /><text fill="#e1ed5e" style="font-size:6.75px; font-family:Arial;" text-anchor="middle"><textPath startOffset="21.46611528233685" xlink:href="#id35">November</textPath></text><path d="M 81.96595687620814 89.24020034530311 l -6.52397016456455 -3.892450042515748 a28.59693056711783,28.59693056711783 0 0,0 0.2558529271936864,-0.42055494030884183 l 6.4560014390846465 4.0041727560316644" fill="#ff6108" stroke="none" /><path d="M 82.34701348167596 88.62581576622439 l -20.83820307223238 -13.42648512184453 a45.78913491848208,45.78913491848208 0 0,0 0.4326056396131898,-0.6588880684978441 l 20.604000797261268 13.783191254320041" fill="#c5ff1e" stroke="none" /><path d="M 82.7489923806493 88.02491185347247 l -6.090089451716713 -4.227541927622777 a28.413588893357904,28.413588893357904 0 0,0 0.2823598775297373,-0.39937802246601634 l 6.016416954383097 4.33174645042058" fill="#ff5e08" stroke="none" /><path d="M 83.17141714833178 87.43820079747576 l -11.015084217777083 -8.222277381419131 a34.74546927760993,34.74546927760993 0 0,0 0.361889052343683,-0.4762035727263908 l 10.871919225209291 8.41066573002655" fill="#ffb210" stroke="none" /><path d="M 83.39014120810768 87.1503855733568 l -12.829919222002568 -9.925401365132805 a37.220987007642016,37.220987007642016 0 0,0 0.3963962790725694,-0.5033830197497677 l 12.657168862336027 10.14477677883562" fill="#ffd213" stroke="none" /><path d="M 84.31358615837235 86.03803664274999 l -4.973652848636159 -4.426885553666789 a27.658418608349155,27.658418608349155 0 0,0 0.3195948174199734,-0.35290457974471434 l 4.896714390600141 4.511842920681059" fill="#ff5407" stroke="none" /><path d="M 84.5562425177563 85.77008943001954 l -10.961851476440563 -10.10027296598648 a35.90562651413819,35.90562651413819 0 0,0 0.42271639044852327,-0.4509243722825052 l 10.786367764021582 10.287466755147037" fill="#ffc112" stroke="none" /><path d="M 85.57189188830299 84.74124197986013 l -25.32653637355129 -26.784626717552076 a57.86257822072977,57.86257822072977 0 0,0 0.7295978350548907,-0.67808167323898 l 24.861730654701542 27.216612976865704" fill="#44ff2d" stroke="none" /><path d="M 86.10567301691215 84.25364557470407 l -6.2328160721260755 -7.063611721448544 a30.420329439055642,30.420329439055642 0 0,0 0.39561812461972445,-0.34307613918448704 l 6.110304148859577 7.169852854052712" fill="#ff7a0b" stroke="none" /><path d="M 88.09926311788651 82.69761687909137 l -8.351493413990813 -12.142167339049 a35.73701699576275,35.73701699576275 0 0,0 0.5098401203735349,-0.34424632515347325 l 8.141248599210739 12.284125576501138" fill="#ffbf11" stroke="none" /><path d="M 88.39885842347998 82.49532879139004 l -10.599949136098127 -15.993997076195118 a40.18767479819286,40.18767479819286 0 0,0 0.5799138390909633,-0.37719209229764544 l 10.323068271222876 16.174088092652298" fill="#fff717" stroke="none" /><path d="M 89.00827224532344 82.1063720568725 l -11.585297914903352 -18.859911301148436 a43.13403221431311,43.13403221431311 0 0,0 0.6359967909781558,-0.3831809503476787 l 11.258939057707547 19.056538860954735" fill="#e4ff1a" stroke="none" /><line stroke="#e1ed5e" stroke-width="0.3" x1="56.762969772571076" x2="54.21961505331055" y1="26.818313649435495" y2="22.513508569990535" /><path d="M 56.25429882871897 25.957352633546506 a86.0,86.0 0 0,1 42.265352541879196,-11.944610805530505" fill="none" id="id36" stroke="none" /><text fill="#e1ed5e" style="font-size:6.75px; font-family:Arial;" text-anchor="middle"><textPath startOffset="22.20632615414155" xlink:href="#id36">December</textPath></text><path d="M 89.94658935756843 81.56283822128135 l -21.172202676486847 -38.82814895779433 a65.22541483878814,65.22541483878814 0 0,0 0.9903546006473227,-0.529013129514004 l 20.500703029311218 39.18684081381009" fill="#36ff6c" stroke="none" /><path d="M 90.58718382345135 81.22770947309562 l -2.564919550769279 -5.115303866778874 a26.722337455218923,26.722337455218923 0 0,0 0.41296030080295404,-0.2026378261371134 l 2.476487982955899 5.1586968530508175" fill="#ff4706" stroke="none" /><path d="M 90.91171255644093 81.06846463323043 l -7.654718040231107 -15.945310511056391 a38.68749941539066,38.68749941539066 0 0,0 0.602828226621404,-0.28303593544277333 l 7.379111602310095 16.07471142913917" fill="#ffe415" stroke="none" /><path d="M 91.56875222667455 80.76684994638697 l -1.880575821462617 -4.28992219583664 a25.68401514372036,25.68401514372036 0 0,0 0.40643882844847457,-0.1740158951647372 l 1.806453235223834 4.321657618964163" fill="#ff3805" stroke="none" /><path d="M 92.23578459929587 80.48803036053334 l -10.897083105281395 -27.3850664536835 a50.47351836608705,50.47351836608705 0 0,0 0.8100202576699698,-0.31427527555619683 l 10.42407968261175 27.568584433130248" fill="#91ff24" stroke="none" /><path d="M 92.57280143429618 80.3572730644239 l -2.408200131712001 -6.36897171591301 a27.809054897155523,27.809054897155523 0 0,0 0.4492058535560016,-0.165446306868819 l 2.29821195238343 6.409481290588151" fill="#ff5608" stroke="none" /><path d="M 93.25333710446033 80.11325718540243 l -3.8430259412048087 -11.327862338148368 a32.96199454676407,32.96199454676407 0 0,0 0.5388770924312445,-0.17765930493979365 l 3.647466026531155 11.392335367347394" fill="#ff9b0e" stroke="none" /><path d="M 93.94186890950719 79.89281104454417 l -1.2890153025562412 -4.2782953798485766 a25.468262728114567,25.468262728114567 0 0,0 0.4208445859164638,-0.12285607494741066 l 1.215180498916356 4.299849783714686" fill="#ff3505" stroke="none" /><path d="M 94.98787191387505 79.60689891045804 l -3.5343076825028916 -14.380217866010346 a35.80817330626982,35.80817330626982 0 0,0 0.5998317705850574,-0.14196080031024316 l 3.2862522249553003 14.43892457846146" fill="#ffc011" stroke="none" /><path d="M 95.692805502759 79.44645832069477 l -1.4815360731619205 -7.069755834948515 a28.223323106567268,28.223323106567268 0 0,0 0.4763473212109414,-0.09555079139198008 l 1.3596223424838427 7.094210582417705" fill="#ff5c08" stroke="none" /><path d="M 96.40284397218896 79.31037775812273 l -1.2656448247025598 -7.279560050504024 a28.388765211535045,28.388765211535045 0 0,0 0.48216397260642807,-0.07956118682039752 l 1.140151645957246 7.300267500264049" fill="#ff5e08" stroke="none" /><path d="M 96.75951476605007 79.25152402106235 l -9.72145570184976 -62.24542793681294 a84.0,84.0 0 0,0 1.430524078285405,-0.2108220633561242 l 8.648562643135705 62.403544484330034" fill="#4dd2ff" stroke="none" /><path d="M 98.19473922651362 79.07773832637324 l -0.4259187140918009 -4.936230221583834 a25.954571177356442,25.954571177356442 0 0,0 0.4454420039625169,-0.034574872557021075 l 0.3408865207669498 4.942830356329317" fill="#ff3c05" stroke="none" /><path d="M 98.91598698831166 79.02799685794201 l -0.30442332874848604 -5.88956676551827 a26.89742912196354,26.89742912196354 0 0,0 0.46258348155026213,-0.019919817785758454 l 0.20299901480889979 5.8939343098282215" fill="#ff4906" stroke="none" /><path d="M 99.63851952072746 79.00311137660856 l -0.1550422907957507 -9.005757982575341 a30.007092480520818,30.007092480520818 0 0,0 0.5165227700682842,-0.004445874554035962 l 2.2061013951788027e-15 9.007092480520818" fill="#ff740a" stroke="none" /></svg>