<?xml version="1.0" encoding="utf-8" ?>
<svg baseProfile="full" height="200mm" version="1.1" viewBox="0,0,200,200" width="200mm" xmlns="http://www.w3.org/2000/svg" xmlns:ev="http://www.w3.org/2001/xml-events" xmlns:xlink="http://www.w3.org/1999/xlink"><defs /><rect fill="#1a1a1a" height="200" width="200" x="0" y="0" /><text alignment-baseline="middle" fill="#e1ed5e" style="dominant-baseline: central; font-size:9.0px; font-family:Arial;" text-anchor="middle" x="100.0" y="100.0">2024</text><line stroke="#e1ed5e" stroke-width="0.3" x1="100.0" x2="100.0" y1="15.0" y2="10.0" /><path d="M 100.0 14.0 a86.0,86.0 0 0,1 42.35913384403234,11.155469271406648" fill="none" id="id97" stroke="none" /><text fill="#e1ed5e" style="font-size:6.75px; font-family:Arial;" text-anchor="middle"><textPath startOffset="22.145653131862478" xlink:href="#id97">January</textPath></text><path d="M 100.0 79.0 l 0.0 -10.643333911630158 a31.643333911630158,31.643333911630158 0 0,0 0.5431999044653576,0.00466271787247854 l -0.18270697961650278 10.641765591952115" fill="#ff4f07" stroke="none" /><path d="M 101.08105385017728 79.02784411241856 l 0.8450678011371681 -16.394089580383127 a37.41585552927856,37.41585552927856 0 0,0 0.6411574729527012,0.038570441438378684 l -1.1263696262223317 16.377167161120056" fill="#ffa30f" stroke="none" /><path d="M 101.44090949804482 79.04949213459386 l 2.479341371611787 -36.04907940260106 a57.134239433147364,57.134239433147364 0 0,0 0.9778960529623167,0.07569533914616285 l -3.097806419349337 36.00120629645985" fill="#62ff29" stroke="none" /><path d="M 102.15924093988457 79.11130261209362 l 2.2899779640212277 -22.153459501360963 a43.27150122811983,43.27150122811983 0 0,0 0.7382202558986843,0.08271911945354987 l -2.6699341215207086 22.110884621400444" fill="#fff316" stroke="none" /><path d="M 102.87502721639298 79.19773525538626 l 2.189879382534854 -15.844876324828006 a36.995489284768574,36.995489284768574 0 0,0 0.6283505825541411,0.09234589719477453 l -2.461555070696677 15.804949354334349" fill="#ff9d0e" stroke="none" /><path d="M 103.23170211078529 79.25015418208739 l 2.978724196892822 -19.12554613661233 a40.35611822822028,40.35611822822028 0 0,0 0.6835990068203817,0.1124859564323634 l -3.3066007067662744 19.071594181684294" fill="#ffcc13" stroke="none" /><path d="M 103.94208987418118 79.37332000966035 l 3.8099243793673576 -19.935134273651563 a41.295938073541095,41.295938073541095 0 0,0 0.6951552020139401,0.1390505093596808 l -4.151576066912255 19.866794367629026" fill="#ffd814" stroke="none" /><path d="M 104.64783097203109 79.52079915486377 l 8.59431975347949 -37.86815859224649 a59.831170046659416,59.831170046659416 0 0,0 0.9996587511187665,0.23591674333436777 l -9.243110658338141 37.715045705265894" fill="#45ff2d" stroke="none" /><path d="M 104.9986988182912 79.60360301121754 l 3.8059182769715902 -15.529445342840685 a36.98901768675182,36.98901768675182 0 0,0 0.6154174756449216,0.15643671573762127 l -4.071941045841906 15.461823395267794" fill="#ff9d0e" stroke="none" /><path d="M 105.69591212413111 79.78721728523813 l 5.288145521400768 -18.76576289428275 a40.4966238118283,40.4966238118283 0 0,0 0.6675000411815748,0.19429953373812306 l -5.609505574963947 18.67221966624211" fill="#ffce13" stroke="none" /><path d="M 106.38641147887787 79.99465700312896 l 6.9382400700977 -21.73393819925414 a43.81454020836948,43.81454020836948 0 0,0 0.7145468467516807,0.2348857412310626 l -7.3103096544971224 21.611631536621058" fill="#fffa17" stroke="none" /><path d="M 107.06938296918511 80.22567764915836 l 8.384197056071981 -23.45209135824419 a45.905729247514074,45.905729247514074 0 0,0 0.7397617513613,0.2716507618678123 l -8.785547959087406 23.304709747367657" fill="#e9ff1a" stroke="none" /><path d="M 107.74402155503746 80.48000691201159 l 5.959796641162252 -15.02258076304397 a37.16159363386506,37.16159363386506 0 0,0 0.5909499242420473,0.24033418958574623 l -6.216801026594739 14.91805931687893" fill="#ff9f0e" stroke="none" /><path d="M 108.07796709384702 80.6158196554323 l 11.619568941074746 -27.882735503031718 a51.206974716254095,51.206974716254095 0 0,0 0.8084969867878324,0.34509928745714413 l -12.096501003033008 27.67916156591517" fill="#a7ff21" stroke="none" /><path d="M 108.73861861582097 80.90454125486305 l 8.384240848647694 -18.321079368858936 a41.14838563875928,41.14838563875928 0 0,0 0.6397815389058373,0.29945006467162527 l -8.697511101425038 18.174453072616778" fill="#ffd614" stroke="none" /><path d="M 109.3889696526874 81.21577127319529 l 18.067681844614334 -36.14746674947768 a61.4113904690596,61.4113904690596 0 0,0 0.938929797920629,0.47942424495795405 l -18.685538864248542 35.83198455284689" fill="#34ff2f" stroke="none" /><path d="M 110.02825361518725 81.54914285379988 l 6.961824137887924 -12.80897228711934 a35.57864075896893,35.57864075896893 0 0,0 0.5341130131795815,0.2962634848748732 l -7.180681339223606 12.687575886811322" fill="#ff890c" stroke="none" /><path d="M 110.34350942703115 81.72400993836675 l 7.842846524472609 -13.857558321703713 a36.92300738698101,36.92300738698101 0 0,0 0.5489352864505552,0.31692793539991243 l -8.07957427878356 13.72088348902763" fill="#ff9c0e" stroke="none" /><line stroke="#e1ed5e" stroke-width="0.3" x1="143.13028292997686" x2="145.6673583964461" y1="26.7553504044142" y2="22.446841604673864" /><path d="M 143.63769802327073 25.89364864446614 a86.0,86.0 0 0,1 29.32050498858742,28.57503671076993" fill="none" id="id98" stroke="none" /><text fill="#e1ed5e" style="font-size:6.75px; font-family:Arial;" text-anchor="middle"><textPath startOffset="20.669276256404974" xlink:href="#id98">February</textPath></text><path d="M 111.27062007382361 82.28071324371311 l 9.611188834514758 -15.110385223890672 a38.90806221865098,38.90806221865098 0 0,0 0.5604879924847725,0.3633015451048148 l -9.869162459256538 14.943169837081964" fill="#ffb811" stroke="none" /><path d="M 111.8722381534696 82.67804972795209 l 21.148084806494406 -30.855687750846812 a58.40741848297524,58.40741848297524 0 0,0 0.8221676007350427,0.5739368380667335 l -21.67464749840321 30.48810609697495" fill="#54ff2b" stroke="none" /><path d="M 112.45986205192187 83.09580414077388 l 8.68991671085157 -11.789540965097519 a35.64608919163235,35.64608919163235 0 0,0 0.48944967978225834,0.36729216445329016 l -8.891019379544595 11.638629773380213" fill="#ff8a0c" stroke="none" /><path d="M 113.03279911837588 83.53348406188908 l 10.725756740403563 -13.55164325867131 a38.28261822365477,38.28261822365477 0 0,0 0.5118007416702276,0.41227044901595666 l -10.95680825242905 13.365524515861946" fill="#ffaf10" stroke="none" /><path d="M 113.59037401385872 83.9905735841838 l 16.926882374301574 -19.939824874886934 a47.155610544481675,47.155610544481675 0 0,0 0.6126199143259735,0.5291664910483632 l -17.26668176839041 19.646314251373852" fill="#d9ff1c" stroke="none" /><path d="M 113.86319453409587 84.22622945171908 l 11.494222099603164 -13.078314784099982 a38.411474930832654,38.411474930832654 0 0,0 0.49154793739104263,0.4395451966500622 l -11.717035063817583 12.879074057566534" fill="#ffb110" stroke="none" /><path d="M 114.39649973595853 84.71141617570332 l 11.833170337543143 -12.56641683261658 a38.26090241697636,38.26090241697636 0 0,0 0.47430312451244416,0.45437166411218155 l -12.0471459479209 12.361433038198818" fill="#ffaf10" stroke="none" /><path d="M 114.91283532996326 85.21462403516908 l 25.580223362166688 -25.361590288204283 a57.02163362765598,57.02163362765598 0 0,0 0.6832093162219505,0.701032945899416 l -26.01181947953945 24.918734650237123" fill="#64ff29" stroke="none" /><path d="M 115.41159269507618 85.73525988315684 l 4.2374245672905575 -3.922096918408574 a26.77395975054101,26.77395975054101 0 0,0 0.30930591395468005,0.3399813818571705 l -4.304128182087116 3.8487779609937314" fill="#ff0400" stroke="none" /><path d="M 115.8921839302757 86.27271002978787 l 16.39002545276805 -14.157313620104883 a42.65784992284303,42.65784992284303 0 0,0 0.4739194426712854,0.5582759118132895 l -16.630639458946447 13.873870925842041" fill="#ffeb16" stroke="none" /><path d="M 116.35404254752997 86.82634096563983 l 13.728431531864985 -11.058652657392248 a38.62848918432755,38.62848918432755 0 0,0 0.4115471316254059,0.5199763566246169 l -13.91624509413195 10.821356356852952" fill="#ffb410" stroke="none" /><path d="M 116.57777611688842 87.10902102172516 l 16.042525732479437 -12.474765041925425 a41.32196827889734,41.32196827889734 0 0,0 0.43063004998403537,0.5637085588394168 l -16.25430775981778 12.197535569845126" fill="#ffd914" stroke="none" /><path d="M 117.01052211995028 87.68569379921539 l 37.51496016005196 -27.15793808464626 a67.31334404704292,67.31334404704292 0 0,0 0.6695591066135914,0.9418187346361643 l -37.97563436519551 26.509942123300593" fill="#37ff74" stroke="none" /><path d="M 117.42321728460499 88.27688183743584 l 17.17841533060072 -11.558404482745997 a41.704943068199455,41.704943068199455 0 0,0 0.39455966494541783,0.5974136213161139 l -17.374299434466863 11.261810983090825" fill="#ffde14" stroke="none" /><path d="M 117.62189284568427 88.57770195909679 l 18.165713369851304 -11.774795934415117 a42.648070619173275,42.648070619173275 0 0,0 0.3929355786237956,0.6177599944614673 l -18.36516664010099 11.461222265274976" fill="#ffeb16" stroke="none" /><line stroke="#e1ed5e" stroke-width="0.3" x1="172.87174338648825" x2="177.1583165268699" y1="56.24261187166439" y2="53.66864786411523" /><path d="M 173.72905801456457 55.72781907015455 a86.0,86.0 0 0,1 12.242430191666344,42.057860355516425" fill="none" id="id99" stroke="none" /><text fill="#e1ed5e" style="font-size:6.75px; font-family:Arial;" text-anchor="middle"><textPath startOffset="22.145653131862474" xlink:href="#id99">March</textPath></text><path d="M 118.00360718960297 89.18935116829356 l 17.357838314062576 -10.42288317639128 a41.24675392861382,41.24675392861382 0 0,0 0.35929122215960735,0.6101550437908115 l -17.534203246351954 10.123376964306912" fill="#ffd814" stroke="none" /><path d="M 118.36410011445183 89.81374322990088 l 44.073161159976515 -24.44663955475725 a71.39922340823799,71.39922340823799 0 0,0 0.5853194449324453,1.076921852772683 l -44.4863259545243 23.686462868509963" fill="#3cffa5" stroke="none" /><path d="M 118.70294669586156 90.45014215332178 l 16.754854722045916 -8.555148204143089 a39.81264780810285,39.81264780810285 0 0,0 0.30557171566574126,0.6113481257088217 l -16.899246350923395 8.266268222270517" fill="#ffc412" stroke="none" /><path d="M 118.8641267826498 90.77261029715802 l 15.888234433588526 -7.771731631048781 a38.68716500634605,38.68716500634605 0 0,0 0.28669168217689994,0.5990753519337217 l -16.019305373725338 7.4978437770499555" fill="#ffb510" stroke="none" /><path d="M 119.4528033332814 92.08871423366111 l 14.663671539379381 -5.9635875582664335 a36.829960188829126,36.829960188829126 0 0,0 0.23315350992608716,0.5876991521591203 l -14.763883724271594 5.710987388893749" fill="#ff9b0e" stroke="none" /><path d="M 119.94978838288452 93.4421083053983 l 12.959201610652991 -4.2599469718727 a34.64140955285481,34.64140955285481 0 0,0 0.1808533705811274,0.5665206074775878 l -13.030419697011377 4.036857330703725" fill="#ff7b0b" stroke="none" /><path d="M 120.43855184770803 95.1765574152323 l 14.14912065602447 -3.339153948763647 a35.53779778481879,35.53779778481879 0 0,0 0.1350252508280268,0.5949461689790484 l -14.204356768410165 3.0957734458455723" fill="#ff880c" stroke="none" /><path d="M 120.592083275326 95.88100663000786 l 14.605276847947612 -2.9214644142236974 a35.894598555475405,35.894598555475405 0 0,0 0.11567240815678835,0.6052469179834635 l -14.653275548386558 2.6703149312069194" fill="#ff8d0d" stroke="none" /><path d="M 120.65975698304385 96.23510406497455 l 20.9628612000376 -3.8201316202944238 a42.308096003360205,42.308096003360205 0 0,0 0.12407389590109572,0.7156252602027606 l -21.02534991343093 3.4597133271710705" fill="#ffe615" stroke="none" /><path d="M 120.77682067341334 96.94652285012252 l 47.088334283322034 -6.92036356380097 a68.59414520120164,68.59414520120164 0 0,0 0.16121415228034547,1.1664652971604808 l -47.20019295215759 6.111009958440404" fill="#38ff84" stroke="none" /><path d="M 120.86939407059847 97.66154086499901 l 18.60360599342384 -2.0845728549718974 a39.72003204981875,39.72003204981875 0 0,0 0.07011078850658696,0.678258279421049 l -18.636649174412092 1.7649100532679167" fill="#ffc312" stroke="none" /><path d="M 120.9064616781168 98.02013634271609 l 24.408370845225225 -2.3114980963303164 a45.517577179798565,45.517577179798565 0 0,0 0.0669896863906456,0.778521699877977 l -24.44445415431361 1.8921553490766774" fill="#eeff19" stroke="none" /><path d="M 120.96210409425399 98.7389718711861 l 18.69127488075993 -1.1244206822964915 a39.725065514942884,39.725065514942884 0 0,0 0.03510638450908845,0.6810544807303223 l -18.707822854725592 0.8033944081894385" fill="#ffc312" stroke="none" /><path d="M 120.99303781780057 99.45929381324524 l 46.14257904403759 -1.1884691571782104 a67.15788188135176,67.15788188135176 0 0,0 0.019791006938640606,1.1527269352913523 l -46.156181482574894 0.3961953059177916" fill="#36ff73" stroke="none" /><line stroke="#e1ed5e" stroke-width="0.3" x1="184.99686870605535" x2="189.99668451229388" y1="99.2704041080226" y2="99.22748670261217" /><path d="M 185.99683186730306 99.26182062694052 a86.0,86.0 0 0,1 -10.086455211305974,41.156179273409016" fill="none" id="id100" stroke="none" /><text fill="#e1ed5e" style="font-size:6.75px; font-family:Arial;" text-anchor="middle"><textPath startOffset="21.40746469413373" xlink:href="#id100">April</textPath></text><path d="M 120.99922638620191 100.18025310272382 l 15.857707207144669 0.13611934428460587 a36.85829140681355,36.85829140681355 0 0,0 -0.010861907501299041,0.6326516576046015 l -15.853033868044703 -0.4083179178582784" fill="#ff9b0e" stroke="none" /><path d="M 120.99303781780057 100.54070618675476 l 15.85087738388745 0.4082623744759636 a36.85613420747464,36.85613420747464 0 0,0 -0.021719342709702723,0.6323349651113094 l -15.841533354180902 -0.6803036041513837" fill="#ff9b0e" stroke="none" /><path d="M 120.96210409425399 101.26102812881392 l 19.242377798237403 1.15757366530267 a40.27716473241597,40.27716473241597 0 0,0 -0.04744273861819391,0.6898070072586746 l -19.219671098454143 -1.487724096715688" fill="#ffcb12" stroke="none" /><path d="M 120.9064616781168 101.97986365728391 l 32.142417751574406 3.043920379419831 a53.286227252390034,53.286227252390034 0 0,0 -0.09405680752020683,0.9099142913005278 l -32.085428551572534 -3.5952391930032905" fill="#8eff24" stroke="none" /><path d="M 120.82617615685814 102.69636545807757 l 14.620701327428597 1.8929425034737033 a35.742731722015755,35.742731722015755 0 0,0 -0.08400475256083388,0.6078165426095016 l -14.586052058312553 -2.14364735428329" fill="#ff8b0c" stroke="none" /><path d="M 120.77682067341334 103.0534771498775 l 12.139320900364364 1.7840621318797365 a33.26971839988312,33.26971839988312 0 0,0 -0.08789306351454958,0.5643365179929065 l -12.106906344711547 -1.9921868318040936" fill="#ff6709" stroke="none" /><path d="M 120.65975698304385 103.76489593502545 l 11.836486133669528 2.1570020676531656 a33.0314197795776,33.0314197795776 0 0,0 -0.10644564988897326,0.556968619869346 l -11.797714191498395 -2.359873252555826" fill="#ff6309" stroke="none" /><path d="M 120.51834098615036 104.47187691870673 l 61.555022958451104 13.415630756120176 a84.0,84.0 0 0,0 -0.3191565537693437,1.4062626642439322 l -61.315655543124095 -14.470327754303124" fill="#4dd2ff" stroke="none" /><path d="M 120.16314734710363 105.8691983318838 l 11.418026339280662 3.3236210592657165 a32.891920888994406,32.891920888994406 0 0,0 -0.16246052746457068,0.5407782585065977 l -11.359289491812461 -3.5191369213630375" fill="#ff6109" stroke="none" /><path d="M 119.83427380445688 106.89939002012753 l 14.407363159360672 5.0116287885321915 a36.25413177862797,36.25413177862797 0 0,0 -0.20951406037422687,0.5860481155049412 l -14.319208928942501 -5.258211860418054" fill="#ff920d" stroke="none" /><path d="M 119.58574465831526 107.57618678355244 l 12.481425634313748 4.828083566913742 a34.38268944547421,34.38268944547421 0 0,0 -0.21766096633855192,0.5486478218400158 l -12.396705993009071 -5.041632405967322" fill="#ff770b" stroke="none" /><path d="M 119.31412917781788 108.2440532568976 l 14.788226115986062 6.3122143666332855 a37.07904480582923,37.07904480582923 0 0,0 -0.2549027503398361,0.5832673769450639 l -14.67768948362926 -6.565143813354194" fill="#ff9e0e" stroke="none" /><path d="M 119.0197475246899 108.90220220490707 l 12.966328240737715 6.068896324959292 a35.31632531935681,35.31632531935681 0 0,0 -0.2617120358251169,0.5468774984217368 l -12.860236946952686 -6.2905863254461325" fill="#ff850c" stroke="none" /><path d="M 118.8641267826498 109.22738970284198 l 18.123028090370525 8.864881195519109 a41.17499109727257,41.17499109727257 0 0,0 -0.3160280304078353,0.6322677596005608 l -17.968180146750957 -9.174680811283416" fill="#ffd714" stroke="none" /><line stroke="#e1ed5e" stroke-width="0.3" x1="174.33088141563837" x2="178.70328620479359" y1="141.23008692659167" y2="143.65538615756765" /><path d="M 175.20536237346943 141.71514677278685 a86.0,86.0 0 0,1 -30.301960400862466,31.631185727798858" fill="none" id="id101" stroke="none" /><text fill="#e1ed5e" style="font-size:6.75px; font-family:Arial;" text-anchor="middle"><textPath startOffset="22.145653131862474" xlink:href="#id101">May</textPath></text><path d="M 117.01052211995028 112.31430620078461 l 11.672765443697726 8.450182003234792 a35.41037921053353,35.41037921053353 0 0,0 -0.36067659994780576,0.4893270777758734 l -11.525986824166091 -8.649315390279542" fill="#ff860c" stroke="none" /><path d="M 116.79662413953412 112.60449989151573 l 14.984173964958977 11.24440349124922 a39.733981938877065,39.733981938877065 0 0,0 -0.41408111329347747,0.5420454694834751 l -14.788940874311194 -11.499969873973573" fill="#ffc312" stroke="none" /><path d="M 116.35404254752997 113.17365903436017 l 21.64524736593503 17.43587909133071 a48.794362975611094,48.794362975611094 0 0,0 -0.5310527076809933,0.6477979554083767 l -21.34274783901541 -17.80487932843758" fill="#c4ff1e" stroke="none" /><path d="M 116.1254893667686 113.45245675266167 l 45.12083962238658 37.64140919126557 a79.76024041929563,79.76024041929563 0 0,0 -0.8861189383714883,1.043845881287235 l -44.46802612050798 -38.41042185500237" fill="#47fdff" stroke="none" /><path d="M 115.41159269507618 114.26474011684316 l 17.344743728709638 16.054035853305106 a44.63413214386807,44.63413214386807 0 0,0 -0.525288827409613,0.5578385313868574 l -17.066599067563764 -16.34941584463646" fill="#f9ff18" stroke="none" /><path d="M 115.16444852881244 114.52719865689866 l 33.187228822265475 31.79261448624265 a66.95826903585746,66.95826903585746 0 0,0 -0.8022659172150931,0.8231955068324694 l -32.63657610389958 -32.35763268514285" fill="#36ff70" stroke="none" /><path d="M 114.91283532996324 114.78537596483092 l 6.678279134040538 6.6212001681854655 a30.40423861135714,30.40423861135714 0 0,0 -0.3706538450859012,0.3674858825399998 l -6.5636333688246715 -6.734866060954127" fill="#ff3c05" stroke="none" /><path d="M 113.59037401385872 116.0094264158162 l 19.552395657154612 23.032672920328565 a51.212583434535276,51.212583434535276 0 0,0 -0.6750932146930825,0.5631867702191766 l -19.154128108299634 -23.36492187445961" fill="#a7ff21" stroke="none" /><path d="M 113.31354834802062 116.24036423190432 l 25.917819617263273 31.615525754539345 a61.88122848507537,61.88122848507537 0 0,0 -0.8272908203169292,0.6664069240028586 l -25.371278026591092 -32.055780972335604" fill="#2fff30" stroke="none" /><path d="M 113.03279911837588 116.46651593811092 l 11.217713163199708 14.173214127925863 a39.07531707406156,39.07531707406156 0 0,0 -0.5295450785477664,0.4117774560035185 l -10.972758140016712 -14.363692635550175" fill="#ffba11" stroke="none" /><path d="M 112.16784306229584 117.11559508785304 l 8.53891666674563 12.01105564960849 a35.73697919044532,35.73697919044532 0 0,0 -0.5030488797769943,0.351167186829184 l -8.331472695794877 -12.155867652242797" fill="#ff8b0c" stroke="none" /><path d="M 110.96478420261333 117.91015095944535 l 2.8811881022188786 4.706204235282545 a26.518115908945642,26.518115908945642 0 0,0 -0.39028004691753415,0.23435195451742416 l -2.7999752987439077 -4.754970190335893" fill="#ff0000" stroke="none" /><line stroke="#e1ed5e" stroke-width="0.3" x1="143.1302829299769" x2="145.66735839644613" y1="173.24464959558577" y2="177.55315839532614" /><path d="M 143.63769802327073 174.10635135553383 a86.0,86.0 0 0,1 -40.68552437913181,11.842963189579606" fill="none" id="id102" stroke="none" /><text fill="#e1ed5e" style="font-size:6.75px; font-family:Arial;" text-anchor="middle"><textPath startOffset="21.407464694133747" xlink:href="#id102">June</textPath></text><path d="M 110.34350942703117 118.27599006163325 l 13.67922203510662 24.16987461829381 a48.77235954235415,48.77235954235415 0 0,0 -0.7321795144317959,0.40612763431514115 l -13.262298332518728 -24.401135168042096" fill="#c5ff1e" stroke="none" /><line stroke="#e1ed5e" stroke-width="0.3" x1="101.45913802915013" x2="101.54496967792366" y1="184.9874750549273" y2="189.98673829345242" /><path d="M 101.47630435890484 185.9873277026323 a86.0,86.0 0 0,1 -42.54439059252881,-10.42667462771756" fill="none" id="id103" stroke="none" /><text fill="#e1ed5e" style="font-size:6.75px; font-family:Arial;" text-anchor="middle"><textPath startOffset="22.145653131862474" xlink:href="#id103">July</textPath></text><line stroke="#e1ed5e" stroke-width="0.3" x1="58.13341422392154" x2="55.67067388415222" y1="173.97424548756322" y2="178.32567169271397" /><path d="M 57.64086615596768 174.84453072859336 a86.0,86.0 0 0,1 -31.369924170532247,-30.572349798747897" fill="none" id="id104" stroke="none" /><text fill="#e1ed5e" style="font-size:6.75px; font-family:Arial;" text-anchor="middle"><textPath startOffset="22.145653131862474" xlink:href="#id104">August</textPath></text><line stroke="#e1ed5e" stroke-width="0.3" x1="26.387840678322732" x2="22.057713659400548" y1="142.50000000000003" y2="145.00000000000006" /><path d="M 25.521815274538298 143.00000000000003 a86.0,86.0 0 0,1 -11.493303480769221,-40.785679425670985" fill="none" id="id105" stroke="none" /><text fill="#e1ed5e" style="font-size:6.75px; font-family:Arial;" text-anchor="middle"><textPath startOffset="21.40746469413373" xlink:href="#id105">September</textPath></text><line stroke="#e1ed5e" stroke-width="0.3" x1="15.003131293944662" x2="10.003315487706104" y1="100.72959589197737" y2="100.7725132973878" /><path d="M 14.003168132696942 100.73817937305945 a86.0,86.0 0 0,1 10.791469493833604,-42.45332614584628" fill="none" id="id106" stroke="none" /><text fill="#e1ed5e" style="font-size:6.75px; font-family:Arial;" text-anchor="middle"><textPath startOffset="22.145653131862435" xlink:href="#id106">October</textPath></text><line stroke="#e1ed5e" stroke-width="0.3" x1="26.387840678322718" x2="22.05771365940052" y1="57.49999999999999" y2="54.99999999999999" /><path d="M 25.521815274538284 56.99999999999999 a86.0,86.0 0 0,1 29.574782752854787,-30.34633250058573" fill="none" id="id107" stroke="none" /><text fill="#e1ed5e" style="font-size:6.75px; font-family:Arial;" text-anchor="middle"><textPath startOffset="21.40746469413373" xlink:href="#id107">November</textPath></text><line stroke="#e1ed5e" stroke-width="0.3" x1="56.869717070023135" x2="54.33264160355391" y1="26.7553504044142" y2="22.446841604673864" /><path d="M 56.362301976729285 25.89364864446614 a86.0,86.0 0 0,1 42.16139366436587,-11.88097634709845" fill="none" id="id108" stroke="none" /><text fill="#e1ed5e" style="font-size:6.75px; font-family:Arial;" text-anchor="middle"><textPath startOffset="22.145653131862474" xlink:href="#id108">December</textPath></text></svg>