<?xml version="1.0" encoding="utf-8" ?>
<svg baseProfile="full" height="200mm" version="1.1" viewBox="0,0,200,200" width="200mm" xmlns="http://www.w3.org/2000/svg" xmlns:ev="http://www.w3.org/2001/xml-events" xmlns:xlink="http://www.w3.org/1999/xlink"><defs /><rect fill="#1a1a1a" height="200" width="200" x="0" y="0" /><text alignment-baseline="middle" fill="#e1ed5e" style="dominant-baseline: central; font-size:9.0px; font-family:Arial;" text-anchor="middle" x="100.0" y="100.0">2016</text><line stroke="#e1ed5e" stroke-width="0.3" x1="100.0" x2="100.0" y1="15.0" y2="10.0" /><path d="M 100.0 14.0 a86.0,86.0 0 0,1 42.35913384403234,11.155469271406648" fill="none" id="id1" stroke="none" /><text fill="#e1ed5e" style="font-size:6.75px; font-family:Arial;" text-anchor="middle"><textPath startOffset="22.145653131862478" xlink:href="#id1">January</textPath></text><line stroke="#e1ed5e" stroke-width="0.3" x1="143.13028292997686" x2="145.6673583964461" y1="26.7553504044142" y2="22.446841604673864" /><path d="M 143.63769802327073 25.89364864446614 a86.0,86.0 0 0,1 29.32050498858742,28.57503671076993" fill="none" id="id2" stroke="none" /><text fill="#e1ed5e" style="font-size:6.75px; font-family:Arial;" text-anchor="middle"><textPath startOffset="20.669276256404974" xlink:href="#id2">February</textPath></text><line stroke="#e1ed5e" stroke-width="0.3" x1="172.87174338648825" x2="177.1583165268699" y1="56.24261187166439" y2="53.66864786411523" /><path d="M 173.72905801456457 55.72781907015455 a86.0,86.0 0 0,1 12.242430191666344,42.057860355516425" fill="none" id="id3" stroke="none" /><text fill="#e1ed5e" style="font-size:6.75px; font-family:Arial;" text-anchor="middle"><textPath startOffset="22.145653131862474" xlink:href="#id3">March</textPath></text><line stroke="#e1ed5e" stroke-width="0.3" x1="184.99686870605535" x2="189.99668451229388" y1="99.2704041080226" y2="99.22748670261217" /><path d="M 185.99683186730306 99.26182062694052 a86.0,86.0 0 0,1 -10.086455211305974,41.156179273409016" fill="none" id="id4" stroke="none" /><text fill="#e1ed5e" style="font-size:6.75px; font-family:Arial;" text-anchor="middle"><textPath startOffset="21.40746469413373" xlink:href="#id4">April</textPath></text><line stroke="#e1ed5e" stroke-width="0.3" x1="174.33088141563837" x2="178.70328620479359" y1="141.23008692659167" y2="143.65538615756765" /><path d="M 175.20536237346943 141.71514677278685 a86.0,86.0 0 0,1 -30.301960400862466,31.631185727798858" fill="none" id="id5" stroke="none" /><text fill="#e1ed5e" style="font-size:6.75px; font-family:Arial;" text-anchor="middle"><textPath startOffset="22.145653131862474" xlink:href="#id5">May</textPath></text><line stroke="#e1ed5e" stroke-width="0.3" x1="143.1302829299769" x2="145.66735839644613" y1="173.24464959558577" y2="177.55315839532614" /><path d="M 143.63769802327073 174.10635135553383 a86.0,86.0 0 0,1 -40.68552437913181,11.842963189579606" fill="none" id="id6" stroke="none" /><text fill="#e1ed5e" style="font-size:6.75px; font-family:Arial;" text-anchor="middle"><textPath startOffset="21.407464694133747" xlink:href="#id6">June</textPath></text><line stroke="#e1ed5e" stroke-width="0.3" x1="101.45913802915013" x2="101.54496967792366" y1="184.9874750549273" y2="189.98673829345242" /><path d="M 101.47630435890484 185.9873277026323 a86.0,86.0 0 0,1 -42.54439059252881,-10.42667462771756" fill="none" id="id7" stroke="none" /><text fill="#e1ed5e" style="font-size:6.75px; font-family:Arial;" text-anchor="middle"><textPath startOffset="22.145653131862474" xlink:href="#id7">July</textPath></text><path d="M 93.95794788825049 120.11202640906438 l -11.737468949592799 39.070216728307884 a61.795220461956134,61.795220461956134 0 0,0 -1.0133220480874805,-0.3139297607677078 l 12.406431630551912 -38.862970379733525" fill="#30ff34" stroke="none" /><line stroke="#e1ed5e" stroke-width="0.3" x1="58.13341422392154" x2="55.67067388415222" y1="173.97424548756322" y2="178.32567169271397" /><path d="M 57.64086615596768 174.84453072859336 a86.0,86.0 0 0,1 -31.369924170532247,-30.572349798747897" fill="none" id="id8" stroke="none" /><text fill="#e1ed5e" style="font-size:6.75px; font-family:Arial;" text-anchor="middle"><textPath startOffset="22.145653131862474" xlink:href="#id8">August</textPath></text><path d="M 87.2517909369889 116.68781488649013 l -8.314338871233351 10.883736476307782 a34.69612903529367,34.69612903529367 0 0,0 -0.47019872776654703,-0.3656293746828454 l 8.499947543635127 -10.739406050004142" fill="#ff880c" stroke="none" /><path d="M 81.99639281039703 110.81064883170644 l -5.480854034350293 3.291095369900104 a27.393048543506595,27.393048543506595 0 0,0 -0.23861470182375086,-0.40521992985324545 l 5.536542446303814 -3.1965242717533" fill="#ff1d03" stroke="none" /><line stroke="#e1ed5e" stroke-width="0.3" x1="26.387840678322732" x2="22.057713659400548" y1="142.50000000000003" y2="145.00000000000006" /><path d="M 25.521815274538298 143.00000000000003 a86.0,86.0 0 0,1 -11.493303480769221,-40.785679425670985" fill="none" id="id9" stroke="none" /><text fill="#e1ed5e" style="font-size:6.75px; font-family:Arial;" text-anchor="middle"><textPath startOffset="21.40746469413373" xlink:href="#id9">September</textPath></text><path d="M 80.05021161711548 106.5578916946017 l -12.321820447108825 4.0504271234171725 a33.970474895427024,33.970474895427024 0 0,0 -0.17735060334960814,-0.5555482390142297 l 12.389535766235689 -3.838309850711551" fill="#ff7e0b" stroke="none" /><path d="M 79.407916724674 104.11899336999214 l -22.04102159181095 4.408821613173357 a43.47764090885565,43.47764090885565 0 0,0 -0.14010919824415405,-0.7331105297251627 l 22.11345708233726 -4.02980851841488" fill="#ffff18" stroke="none" /><path d="M 79.2786578344484 103.40968896794605 l -12.094038834728508 1.9900694879330523 a33.25667784934904,33.25667784934904 0 0,0 -0.08785861254858165,-0.5641153180779379 l 12.126418939415357 -1.7821659879236642" fill="#ff740a" stroke="none" /><line stroke="#e1ed5e" stroke-width="0.3" x1="15.003131293944662" x2="10.003315487706104" y1="100.72959589197737" y2="100.7725132973878" /><path d="M 14.003168132696942 100.73817937305945 a86.0,86.0 0 0,1 10.791469493833604,-42.45332614584628" fill="none" id="id10" stroke="none" /><text fill="#e1ed5e" style="font-size:6.75px; font-family:Arial;" text-anchor="middle"><textPath startOffset="22.145653131862435" xlink:href="#id10">October</textPath></text><path d="M 80.9802524753101 91.09779779509293 l -21.780833062231522 -10.194529651858332 a45.04855762218218,45.04855762218218 0 0,0 0.333832855476189,-0.6975822732730557 l 21.60262094879543 10.566924427196474" fill="#ebff1a" stroke="none" /><path d="M 81.63589988554816 89.8137432299009 l -10.373339084605208 -5.753916326993817 a32.86228126720337,32.86228126720337 0 0,0 0.27786879534945735,-0.4909675365087645 l 10.273036924234383 5.931140633601687" fill="#ff6e0a" stroke="none" /><line stroke="#e1ed5e" stroke-width="0.3" x1="26.387840678322718" x2="22.05771365940052" y1="57.49999999999999" y2="54.99999999999999" /><path d="M 25.521815274538284 56.99999999999999 a86.0,86.0 0 0,1 29.574782752854787,-30.34633250058573" fill="none" id="id11" stroke="none" /><text fill="#e1ed5e" style="font-size:6.75px; font-family:Arial;" text-anchor="middle"><textPath startOffset="21.40746469413373" xlink:href="#id11">November</textPath></text><path d="M 81.99639281039701 89.18935116829357 l -19.736614590334643 -11.851269982498787 a44.02143687273857,44.02143687273857 0 0,0 0.3945830795311428,-0.6445218063444561 l 19.530263546348106 12.188328904967786" fill="#f8ff18" stroke="none" /><path d="M 83.8745106332314 86.54754324733833 l -22.19347950518286 -18.514589941674657 a49.902258964574585,49.902258964574585 0 0,0 0.5544032528433849,-0.6530856378223565 l 21.87238168883236 18.89284236194657" fill="#afff20" stroke="none" /><path d="M 84.58840730492382 85.73525988315684 l -4.859490958344125 -4.497872283055779 a27.621594026283226,27.621594026283226 0 0,0 0.3250721822143309,-0.3452153924830337 l 4.781562942393522 4.580629135483324" fill="#ff2103" stroke="none" /><path d="M 84.83555147118756 85.47280134310135 l -8.69053024799471 -8.325331389831463 a33.03480198182854,33.03480198182854 0 0,0 0.3958091523808423,-0.4061350592259095 l 8.546334294463065 8.473289141125102" fill="#ff710a" stroke="none" /><path d="M 85.08716467003674 85.21462403516908 l -17.26012407313764 -17.112602531607088 a45.305411916379256,45.305411916379256 0 0,0 0.5523119767825112,-0.5475913899619581 l 16.96382017622515 17.40637393179772" fill="#e8ff1a" stroke="none" /><path d="M 85.34317274990677 84.96080404539775 l -7.938876262581022 -8.145986422234516 a32.374658285144285,32.374658285144285 0 0,0 0.40133401487295084,-0.38446890770558617 l 7.797869761842771 8.281067460245671" fill="#ff6709" stroke="none" /><path d="M 85.60350026404147 84.71141617570332 l -6.653972207880612 -7.066287898483397 a30.706068761733583,30.706068761733583 0 0,0 0.38685293496863477,-0.35806530122799435 l 6.531689501598024 7.1794709458437564" fill="#ff4f07" stroke="none" /><path d="M 86.13680546590413 84.22622945171909 l -41.42187972310219 -47.13049541530619 a83.74596176557773,83.74596176557773 0 0,0 1.0879817550783575,-0.9397727272592568 l 40.60671848826098 47.83461227503016" fill="#4dd4ff" stroke="none" /><path d="M 86.68645165197937 83.75963576809568 l -11.509496803188837 -14.039714681887554 a39.154396299833905,39.154396299833905 0 0,0 0.5234555523039902,-0.4216587394617555 l 11.2667904805296 14.235221715142709" fill="#ffc612" stroke="none" /><path d="M 86.96720088162412 83.53348406188908 l -9.25347072644894 -11.691457975829115 a35.91029543925357,35.91029543925357 0 0,0 0.4866529984391378,-0.37842431508062013 l 9.051407783374557 11.848583342530539" fill="#ff990e" stroke="none" /><path d="M 87.25179093698888 83.31218511350988 l -6.149558838748352 -8.049969923412299 a31.130108078350922,31.130108078350922 0 0,0 0.4274416009179872,-0.32076014606525505 l 6.010464248919613 8.154349096741555" fill="#ff5507" stroke="none" /><path d="M 88.12776184653039 82.6780497279521 l -7.480262487142151 -10.913926519093176 a34.23133095877778,34.23133095877778 0 0,0 0.487558007292899,-0.3280507863291898 l 7.2918081917522635 11.040726979479476" fill="#ff820c" stroke="none" /><path d="M 88.4268655584334 82.4767994020092 l -9.268973586159861 -14.034407386161076 a37.818991111884856,37.818991111884856 0 0,0 0.5447994373756667,-0.3531324132268387 l 9.026688516527168 14.191453641091822" fill="#ffb410" stroke="none" /><path d="M 88.72937992617638 82.28071324371311 l -7.056023001551191 -11.093240132707741 a34.14714559287822,34.14714559287822 0 0,0 0.4973058105591864,-0.310355606367655 l 6.864553062202306 11.212731535916932" fill="#ff810b" stroke="none" /><line stroke="#e1ed5e" stroke-width="0.3" x1="56.869717070023135" x2="54.33264160355391" y1="26.7553504044142" y2="22.446841604673864" /><path d="M 56.362301976729285 25.89364864446614 a86.0,86.0 0 0,1 42.16139366436587,-11.88097634709845" fill="none" id="id12" stroke="none" /><text fill="#e1ed5e" style="font-size:6.75px; font-family:Arial;" text-anchor="middle"><textPath startOffset="22.145653131862474" xlink:href="#id12">December</textPath></text><path d="M 89.34428304082924 81.90426304109057 l -6.549677858577204 -11.122784900212833 a33.90792872569178,33.90792872569178 0 0,0 0.5041100355911282,-0.29104806474972816 l 6.357775355125676 11.233579862238736" fill="#ff7d0b" stroke="none" /><path d="M 89.97174638481275 81.54914285379989 l -5.35586343334702 -9.854185473887963 a32.21562501470374,32.21562501470374 0 0,0 0.4881605802907113,-0.25991801325076913 l 5.185914037269747 9.944673954861308" fill="#ff6509" stroke="none" /><path d="M 91.26138138417902 80.90454125486306 l -7.172845455627506 -15.673961813049107 a38.23725009528022,38.23725009528022 0 0,0 0.5992079294292587,-0.2680180852165427 l 6.902724123342629 15.794783649175496" fill="#ffba11" stroke="none" /><path d="M 91.5904679813234 80.7573450057729 l -3.546267099274279 -8.114553123427228 a29.855618709741165,29.855618709741165 0 0,0 0.47138457015407614,-0.20120604273958925 l 3.4064474539497716 8.17423381582622" fill="#ff4206" stroke="none" /><path d="M 92.25597844496254 80.48000691201159 l -14.186982193475838 -35.76046275025161 a59.47182293406609,59.47182293406609 0 0,0 0.9521941176431653,-0.3683291401637752 l 13.571015813339145 35.99873177855343" fill="#44ff2d" stroke="none" /><path d="M 93.61358852112211 79.99465700312896 l -3.608397158119777 -11.303252703943262 a32.86524554065054,32.86524554065054 0 0,0 0.5389264359474933,-0.16696078746900675 l 3.4138300893006672 11.36353007921891" fill="#ff6e0a" stroke="none" /><path d="M 94.30408787586887 79.78721728523814 l -9.954586727915384 -35.32531650096323 a57.70111419040046,57.70111419040046 0 0,0 0.9556914620101562,-0.2604779577420253 l 9.34671386497055 35.4909949528494" fill="#57ff2a" stroke="none" /><path d="M 95.70440661134978 79.44403061299748 l -1.2148187352660123 -5.813347417580429 a26.9389218514005,26.9389218514005 0 0,0 0.45347635954649734,-0.09070797225544898 l 1.1148458901885383 5.833344786498744" fill="#ff1602" stroke="none" /><path d="M 96.05791012581881 79.37332000966035 l -0.8427422514053114 -4.409583568331594 a25.489392135735493,25.489392135735493 0 0,0 0.4304858120686996,-0.07844885519581828 l 0.7669217057855733 4.423400597458773" fill="#ff0000" stroke="none" /><path d="M 96.76829788921471 79.25015418208739 l -3.2048486826847067 -20.57742754615728 a41.82550310307673,41.82550310307673 0 0,0 0.7103860429616828,-0.10440228482844989 l 2.851137534115339 20.629410904284615" fill="#ffea15" stroke="none" /><path d="M 97.48249496171623 79.15144685158666 l -7.5525151148513325 -62.54565944524002 a84.0,84.0 0 0,0 1.4330563935968028,-0.16057695797211657 l 6.477722819653731 62.666092163719114" fill="#4dd2ff" stroke="none" /><path d="M 98.1996594967304 79.07731436759882 l -0.6894510144925313 -8.012465869078548 a29.042073862165992,29.042073862165992 0 0,0 0.49707722867098636,-0.038476921235240207 l 0.5518047910463277 8.023120557308843" fill="#ff3605" stroke="none" /><path d="M 98.5590905019552 79.04949213459386 l -0.4464981450587729 -6.491985036281694 a27.50732128489491,27.50732128489491 0 0,0 0.4713649962893227,-0.028356147674222367 l 0.3349887966369664 6.49869316178061" fill="#ff1f03" stroke="none" /><path d="M 99.63950707515114 79.00309439819443 l -0.1962584946012556 -11.431073401573009 a32.43275804470877,32.43275804470877 0 0,0 0.556751419450105,-0.004779041330194816 l 2.8002181089757496e-15 11.43275804470877" fill="#ff6809" stroke="none" /></svg>