<?xml version="1.0" encoding="utf-8" ?>
<svg baseProfile="full" height="200mm" version="1.1" viewBox="0,0,200,200" width="200mm" xmlns="http://www.w3.org/2000/svg" xmlns:ev="http://www.w3.org/2001/xml-events" xmlns:xlink="http://www.w3.org/1999/xlink"><defs /><rect fill="#1a1a1a" height="200" width="200" x="0" y="0" /><text alignment-baseline="middle" fill="#e1ed5e" style="dominant-baseline: central; font-size:9.0px; font-family:Arial;" text-anchor="middle" x="100.0" y="100.0">2017</text><line stroke="#e1ed5e" stroke-width="0.3" x1="100.0" x2="100.0" y1="15.0" y2="10.0" /><path d="M 100.0 14.0 a86.0,86.0 0 0,1 42.46469731375804,11.215312516191453" fill="none" id="id13" stroke="none" /><text fill="#e1ed5e" style="font-size:6.75px; font-family:Arial;" text-anchor="middle"><textPath startOffset="22.20632615414155" xlink:href="#id13">January</textPath></text><path d="M 100.36148047927253 79.00311137660856 l 0.4583864974806579 -26.625753770818704 a47.6296992481203,47.6296992481203 0 0,0 0.8196240324737957,0.02116847063236207 l -0.9166371651493214 26.613918508043984" fill="#b4ff20" stroke="none" /><path d="M 100.72285384407766 79.0124445844662 l 0.1655041123249538 -4.805296060022773 a25.80814536340852,25.80814536340852 0 0,0 0.44384991890589304,0.01911311117119353 l -0.24819486362017837 4.801735222327385" fill="#ff3304" stroke="none" /><path d="M 101.08401301168833 79.027996857942 l 0.29111422352322214 -5.632080375970749 a26.639598997493735,26.639598997493735 0 0,0 0.45774182485666515,0.027612236914055597 l -0.3880180972194992 5.62623486967639" fill="#ff3f05" stroke="none" /><path d="M 101.44485096284872 79.0497635885617 l 0.24728350916257333 -3.5855933316413746 a24.59411027568922,24.59411027568922 0 0,0 0.4220932679648977,0.03276256127001888 l -0.3089669664898122 3.5808055081828916" fill="#ff2203" stroke="none" /><path d="M 102.16513564639614 79.11191278185805 l 0.1300140828839018 -1.2543073259109814 a22.261027568922305,22.261027568922305 0 0,0 0.38080487223070697,0.042787864408772275 l -0.15158565862433404 1.2518835080316084" fill="#ff0000" stroke="none" /><path d="M 102.52436894288641 79.15227682838746 l 3.3525391048508943 -27.687239370018766 a48.88947368421053,48.88947368421053 0 0,0 0.8345788688948916,0.10835228975647473 l -3.8286327022536324 27.625428757098156" fill="#a6ff21" stroke="none" /><path d="M 103.2404852339499 79.25152402106235 l 1.340649730009433 -8.584035016682932 a29.688095238095237,29.688095238095237 0 0,0 0.504232214133148,0.08320263576029704 l -1.4882111502814563 8.559686117983011" fill="#ff6909" stroke="none" /><path d="M 103.59715602781102 79.31037775812273 l 3.116762473076509 -17.926561340974935 a39.19548872180451,39.19548872180451 0 0,0 0.6637193819157099,0.1212904746575725 l -3.4248769760951197 17.870255384966626" fill="#ffe615" stroke="none" /><path d="M 103.95276090670814 79.375362276772 l 0.8013079933326681 -4.181049007838059 a25.257142857142856,25.257142857142856 0 0,0 0.4262847537837567,0.08550871133026916 l -0.8731591565835501 4.166636340430581" fill="#ff2b04" stroke="none" /><path d="M 105.71112130821622 79.79150937346287 l 5.533632826457117 -19.580457333882837 a41.347368421052636,41.347368421052636 0 0,0 0.6832353006427961,0.1994551198031743 l -5.8698583448233395 19.48230388516096" fill="#feff18" stroke="none" /><path d="M 106.0581310904928 79.89281104454417 l 3.6209244915022007 -12.01799892681923 a33.551629072681706,33.551629072681706 0 0,0 0.5515482440606688,0.17136872422893054 l -3.827258108273588 11.953890067707778" fill="#ff9d0e" stroke="none" /><path d="M 106.74666289553966 80.11325718540242 l 8.944582182561327 -26.365420683198497 a48.84135338345865,48.84135338345865 0 0,0 0.7938301359847407,0.2769517471817607 l -9.397094322609341 26.20754808284453" fill="#a6ff21" stroke="none" /><path d="M 107.08798089147638 80.2323363322302 l 9.095396222007231 -25.366142515699263 a47.947493734335836,47.947493734335836 0 0,0 0.7745065385521602,0.2852572944783162 l -9.53068508633197 25.205821953414624" fill="#b0ff20" stroke="none" /><path d="M 108.43124777332544 80.76684994638697 l 25.2937433199763 -57.69945016083909 a84.0,84.0 0 0,0 1.3192715261328791,0.591918677933875 l -26.283196964575957 57.255511152388685" fill="#4dd2ff" stroke="none" /><line stroke="#e1ed5e" stroke-width="0.3" x1="143.23703022742887" x2="145.7803849466894" y1="26.81831364943548" y2="22.513508569990506" /><path d="M 143.74570117128098 25.957352633546492 a86.0,86.0 0 0,1 28.547481713284135,27.462654790039103" fill="none" id="id14" stroke="none" /><text fill="#e1ed5e" style="font-size:6.75px; font-family:Arial;" text-anchor="middle"><textPath startOffset="19.985693538727396" xlink:href="#id14">February</textPath></text><path d="M 110.99172775467656 82.1063720568725 l 5.6951291173353376 -9.271201378719859 a31.880701754385964,31.880701754385964 0 0,0 0.4651255441178974,0.2912615730559279 l -5.853873813825498 9.171795464340986" fill="#ff870c" stroke="none" /><path d="M 113.89432698308785 84.25364557470407 l 0.922806178074757 -1.0458105069432144 a22.394736842105264,22.394736842105264 0 0,0 0.2868541974383615,0.25754053074853117 l -0.9406713631091085 1.0297709674253859" fill="#ff0200" stroke="none" /><path d="M 117.65298651832404 88.62581576622439 l 5.008315974622257 -3.2269615420135307 a26.957894736842103,26.957894736842103 0 0,0 0.24797720602210901,0.3922403880721393 l -5.063120776890322 3.140273506227185" fill="#ff4406" stroke="none" /><line stroke="#e1ed5e" stroke-width="0.3" x1="172.23445277983987" x2="176.4835382374775" y1="55.19839476539836" y2="52.563006222186495" /><path d="M 173.08426987136738 54.67131705675599 a86.0,86.0 0 0,1 12.851231095245387,41.99856678651699" fill="none" id="id15" stroke="none" /><text fill="#e1ed5e" style="font-size:6.75px; font-family:Arial;" text-anchor="middle"><textPath startOffset="22.20632615414155" xlink:href="#id15">March</textPath></text><path d="M 118.21658344932153 89.55222093294921 l 6.789748292326484 -3.8941325236129587 a28.82719298245614,28.82719298245614 0 0,0 0.24316747427764304,0.43256780338399614 l -6.85577340789656 3.7766812102941683" fill="#ff5e08" stroke="none" /><path d="M 119.47837535516314 92.15188598940014 l 2.3106016450965994 -0.9309742118195162 a23.491102756892232,23.491102756892232 0 0,0 0.14788930023109154,0.37636213803103685 l -2.326284495209391 0.8910630688926949" fill="#ff1202" stroke="none" /><path d="M 119.85752413597 93.16781622104841 l 5.485762500744305 -1.8874325578622952 a26.801378446115287,26.801378446115287 0 0,0 0.1463389801561205,0.43753492428983226 l -5.517438774672196 1.792724530650149" fill="#ff4106" stroke="none" /><path d="M 120.37134235888165 94.90015583598534 l 1.907427693956391 -0.4775131565673341 a22.966290726817043,22.966290726817043 0 0,0 0.09270419777658051,0.3843187493051019 l -1.915364691993791 0.44460917560282603" fill="#ff0a01" stroke="none" /><path d="M 120.6074358757038 95.95851677861258 l 3.655059174922686 -0.7168218509923531 a24.72468671679198,24.72468671679198 0 0,0 0.07831164945347316,0.4183439627783982 l -3.6668565482860185 0.6537998107513922" fill="#ff2403" stroke="none" /><path d="M 120.83666639777658 97.38593545837742 l 21.199610837537353 -2.6595977460443243 a42.36578947368422,42.36578947368422 0 0,0 0.0845492991222083,0.7243667614922552 l -21.24225048966315 2.294287246227216" fill="#f1ff19" stroke="none" /><path d="M 120.91429891909075 98.10471618934814 l 13.63972218144378 -1.2360512170303912 a34.69561403508772,34.69561403508772 0 0,0 0.048781233980264176,0.5952546128939483 l -13.658977899243538 1.0010826869286742" fill="#ffac10" stroke="none" /><path d="M 120.94382443527127 98.46500227214037 l 6.648083285653534 -0.48724590724290073 a27.665914786967416,27.665914786967416 0 0,0 0.030721561054965804,0.47524895183554355 l -6.655485437712916 0.37273789115432193" fill="#ff4d07" stroke="none" /><line stroke="#e1ed5e" stroke-width="0.3" x1="184.98032266829074" x2="189.97916517819016" y1="98.17113171792111" y2="98.06355123074" /><path d="M 185.9800911702706 98.14961562048488 a86.0,86.0 0 0,1 -9.607161424134198,41.387399972396054" fill="none" id="id16" stroke="none" /><text fill="#e1ed5e" style="font-size:6.75px; font-family:Arial;" text-anchor="middle"><textPath startOffset="21.466115282336823" xlink:href="#id16">April</textPath></text><path d="M 120.99513854157772 99.54816195383933 l 12.57753877829138 -0.2706822122577976 a33.58045112781955,33.58045112781955 0 0,0 0.007462844114163553,0.5780055009847338 l -12.580334629523259 0.05414045321260109" fill="#ff9e0e" stroke="none" /><path d="M 120.92983693683757 101.71520430193887 l 13.40468754479593 1.0985168117824027 a34.44962406015037,34.44962406015037 0 0,0 -0.05352061395549452,0.590595515198052 l -13.383792334563362 -1.3290937155290252" fill="#ffa90f" stroke="none" /><path d="M 120.8583938346157 102.4346265915055 l 12.452055352683042 1.4534247133750693 a33.53659147869674,33.53659147869674 0 0,0 -0.07186171435935083,0.5728085688154839 l -12.425192129076843 -1.667551036477948" fill="#ff9d0e" stroke="none" /><path d="M 120.81339534386255 102.79330883721812 l 6.8626575947316235 0.921018497436967 a27.92418546365915,27.92418546365915 0 0,0 -0.06803654518269268,0.47584743854425043 l -6.845786998532329 -1.0390114079616266" fill="#ff5107" stroke="none" /><path d="M 120.49622156327973 104.57218783832717 l 41.47531150424075 9.252091380113672 a63.49473684210527,63.49473684210527 0 0,0 -0.24714399313629343,1.064689854071908 l -41.30990694517391 -9.964649891534146" fill="#33ff57" stroke="none" /><line stroke="#e1ed5e" stroke-width="0.3" x1="174.80103733775053" x2="179.2010983576182" y1="140.37084112569926" y2="142.7455964860345" /><path d="M 175.68104954172406 140.8457921977663 a86.0,86.0 0 0,1 -30.038265399797805,32.042727171017184" fill="none" id="id17" stroke="none" /><text fill="#e1ed5e" style="font-size:6.75px; font-family:Arial;" text-anchor="middle"><textPath startOffset="22.206326154141568" xlink:href="#id17">May</textPath></text><path d="M 116.71984013943494 112.70617746262583 l 2.979400084997053 2.2641835027385877 a24.742105263157896,24.742105263157896 0 0,0 -0.2606088100896893,0.3368720174620549 l -2.939984457689295 -2.3151335143138954" fill="#ff2403" stroke="none" /><path d="M 116.0416608686014 113.55231037782055 l 11.919246945064467 10.069614075034767 a36.60338345864662,36.60338345864662 0 0,0 -0.4107553089087205,0.4778012216279597 l -11.744149126584967 -10.273292395824255" fill="#ffc512" stroke="none" /><path d="M 115.32070863581623 114.36230785411682 l 4.033045356011442 3.7807545570862247 a26.528070175438597,26.528070175438597 0 0,0 -0.3151704625395721,0.3304549699378371 l -3.9673683420929056 -3.849616643606569" fill="#ff3d05" stroke="none" /><path d="M 115.07121518719521 114.62390073753431 l 3.7532344158444766 3.6418382234128157 a26.2296992481203,26.2296992481203 0 0,0 -0.31720371552542476,0.3213256891241505 l -3.689990075263516 -3.705904406517631" fill="#ff3905" stroke="none" /><path d="M 114.81725581225074 114.88116024355365 l 3.629599899110232 3.645253777287727 a26.144110275689222,26.144110275689222 0 0,0 -0.32163486356270465,0.31478740916137843 l -3.566315083171733 -3.707191289371677" fill="#ff3805" stroke="none" /><path d="M 114.29624159901734 115.38237550388516 l 3.057935195827525 3.2902568918532262 a25.49185463659148,25.49185463659148 0 0,0 -0.32398988035387993,0.29595707397735027 l -3.000845766006781 -3.3424067324171594" fill="#ff2f04" stroke="none" /><path d="M 112.63410532772338 116.77436683061366 l 1.7723030674550722 2.353095927044193 a23.945864661654134,23.945864661654134 0 0,0 -0.33138229366665106,0.24514869862283692 l -1.7315358033698567 -2.383254574406799" fill="#ff1902" stroke="none" /><path d="M 112.34349029814194 116.9893568818739 l 21.38912231296422 29.43960124631051 a57.38934837092732,57.38934837092732 0 0,0 -0.8041960427678116,0.5737725237855856 l -20.87919894234752 -29.803418031940314" fill="#4bff2c" stroke="none" /><line stroke="#e1ed5e" stroke-width="0.3" x1="143.8653032363475" x2="146.44561519142675" y1="172.8068346515853" y2="177.08958963109032" /><path d="M 144.38136562736335 173.6633856474863 a86.0,86.0 0 0,1 -40.68145358897372,12.25698825130547" fill="none" id="id18" stroke="none" /><text fill="#e1ed5e" style="font-size:6.75px; font-family:Arial;" text-anchor="middle"><textPath startOffset="21.466115282336833" xlink:href="#id18">June</textPath></text><path d="M 109.2508944713604 118.85261126421891 l 3.6049120519348845 7.346533437088479 a29.183333333333334,29.183333333333334 0 0,0 -0.4528799351838036,0.21740989035656377 l -3.477919448750848 -7.407497603944603" fill="#ff6209" stroke="none" /><path d="M 108.92500713936063 119.00905698771935 l 2.1317122315314974 4.540258473507902 a26.015789473684208,26.015789473684208 0 0,0 -0.40700092654677833,0.18683416324277452 l -2.0532433092172995 -4.576279707084751" fill="#ff3605" stroke="none" /><path d="M 105.88484417918355 120.15858648285463 l 3.059641387062325 10.480828995573207 a31.91829573934837,31.91829573934837 0 0,0 -0.5287323930923264,0.14942505565301642 l -2.878777825865393 -10.531942844564743" fill="#ff880c" stroke="none" /><line stroke="#e1ed5e" stroke-width="0.3" x1="102.19456741930631" x2="102.32365962044197" y1="184.97166512339345" y2="189.96999836594603" /><path d="M 102.22038585953345 185.97133177190398 a86.0,86.0 0 0,1 -42.740103519485714,-10.115201625700543" fill="none" id="id19" stroke="none" /><text fill="#e1ed5e" style="font-size:6.75px; font-family:Arial;" text-anchor="middle"><textPath startOffset="22.20632615414155" xlink:href="#id19">July</textPath></text><path d="M 99.45781275523022 120.99299961872073 l -0.17694043578717336 6.850973601552801 a27.85325814536341,27.85325814536341 0 0,0 -0.47918168130820366,-0.016503985980609624 l 0.29484246877002 -6.846912817146097" fill="#ff5007" stroke="none" /><line stroke="#e1ed5e" stroke-width="0.3" x1="58.666819895761336" x2="56.23545636021788" y1="174.27360380694188" y2="178.64263932499728" /><path d="M 58.180547188652646 175.14741091055294 a86.0,86.0 0 0,1 -31.652253787137756,-30.449443065178592" fill="none" id="id20" stroke="none" /><text fill="#e1ed5e" style="font-size:6.75px; font-family:Arial;" text-anchor="middle"><textPath startOffset="22.20632615414155" xlink:href="#id20">August</textPath></text><path d="M 87.95078237400918 117.19931262002967 l -3.6516506478768096 5.212444743008994 a27.364285714285714,27.364285714285714 0 0,0 -0.3834553085071137,-0.2735851812499306 l 3.74083328423281 -5.148815299914845" fill="#ff4906" stroke="none" /><line stroke="#e1ed5e" stroke-width="0.3" x1="26.63291911575756" x2="22.317208475507996" y1="142.92168965132927" y2="145.44649492493687" /><path d="M 25.769776987707644 143.4266507060508 a86.0,86.0 0 0,1 -11.730757126820373,-40.83630448921669" fill="none" id="id21" stroke="none" /><text fill="#e1ed5e" style="font-size:6.75px; font-family:Arial;" text-anchor="middle"><textPath startOffset="21.46611528233685" xlink:href="#id21">September</textPath></text><line stroke="#e1ed5e" stroke-width="0.3" x1="15.007084014347285" x2="10.007500721073583" y1="101.09737516637583" y2="101.16192664675087" /><path d="M 14.007167355692545 101.11028546245083 a86.0,86.0 0 0,1 10.666146001902534,-42.60595125391555" fill="none" id="id22" stroke="none" /><text fill="#e1ed5e" style="font-size:6.75px; font-family:Arial;" text-anchor="middle"><textPath startOffset="22.20632615414155" xlink:href="#id22">October</textPath></text><path d="M 79.32604984820605 96.31383870115002 l -7.377385243330215 -1.3153863567921527 a28.493734335839598,28.493734335839598 0 0,0 0.09024952916443289,-0.48211659354672526 l 7.35364999025592 1.4421810278014506" fill="#ff5908" stroke="none" /><path d="M 79.3925641242962 95.95851677861259 l -3.966789989727017 -0.7779577858665422 a25.042355889724313,25.042355889724313 0 0,0 0.08659969126947915,-0.4222908498843417 l 3.952811002542543 0.8461242919142864" fill="#ff2803" stroke="none" /><path d="M 79.81627453868168 94.20196356495316 l -7.048285081730205 -2.0247111360481043 a28.333333333333332,28.333333333333332 0 0,0 0.1386904562778557,-0.4675952718499074 l 7.012388728340642 2.145735794644551" fill="#ff5708" stroke="none" /><path d="M 79.91906864156998 93.8553929516997 l -6.2106133868962266 -1.9003988465589963 a27.49486215538847,27.49486215538847 0 0,0 0.14237692780703046,-0.4513737691523262 l 6.176980975320992 2.007022782137737" fill="#ff4b07" stroke="none" /><path d="M 80.02781315780177 93.51064311812611 l -1.523954846349138 -0.49516294574842695 a22.60238095238095,22.60238095238095 0 0,0 0.12341191272387354,-0.36898591087963667 l 1.5152056398534919 0.5213219595503858" fill="#ff0500" stroke="none" /><path d="M 80.52162464483688 92.15188598940014 l -1.3136686851894832 -0.5292957664864514 a22.416290726817042,22.416290726817042 0 0,0 0.14728390384546378,-0.3566596556162476 l 1.3043630944578197 0.5518299925560102" fill="#ff0200" stroke="none" /><path d="M 80.65960295795068 91.81776055985345 l -4.815364161489832 -2.0372106361181186 a26.228571428571428,26.228571428571428 0 0,0 0.17948997056383548,-0.41428759900612494 l 4.779583481083315 2.1197973797108425" fill="#ff3905" stroke="none" /><line stroke="#e1ed5e" stroke-width="0.3" x1="26.266209847984243" x2="21.928928074336255" y1="57.711370442889674" y2="55.22380399835377" /><path d="M 25.398753493254645 57.213857153982495 a86.0,86.0 0 0,1 29.58750427330803,-30.492523968695096" fill="none" id="id23" stroke="none" /><text fill="#e1ed5e" style="font-size:6.75px; font-family:Arial;" text-anchor="middle"><textPath startOffset="21.46611528233685" xlink:href="#id23">November</textPath></text><path d="M 81.78341655067845 89.55222093294921 l -5.774237356752064 -3.311705312463723 a27.656516290726817,27.656516290726817 0 0,0 0.24040140412981112,-0.4109239269179403 l 5.716376278151928 3.4106086517355547" fill="#ff4d07" stroke="none" /><path d="M 82.95767976084542 87.72973835380427 l -5.759384903353871 -4.14668652469867 a28.0968671679198,28.0968671679198 0 0,0 0.28596909452488795,-0.39006152355341817 l 5.687153196315349 4.245210491923589" fill="#ff5307" stroke="none" /><path d="M 83.17141714833178 87.43820079747576 l -5.780745744458055 -4.315073225285282 a28.213659147869674,28.213659147869674 0 0,0 0.29385743190263164,-0.3866819348028778 l 5.705612372331315 4.413939935969186" fill="#ff5507" stroke="none" /><path d="M 88.39885842347998 82.49532879139004 l -2.835073105282399 -4.277770617055755 a26.131954887218043,26.131954887218043 0 0,0 0.3770878100735484,-0.2452684010516749 l 2.7610182694245635 4.3259379422669655" fill="#ff3805" stroke="none" /><path d="M 89.00827224532344 82.1063720568725 l -5.225891616697099 -8.507321355416755 a30.98421052631579,30.98421052631579 0 0,0 0.4568517584402755,-0.2752480727110548 l 5.078677792039174 8.596016037586429" fill="#ff7b0b" stroke="none" /><line stroke="#e1ed5e" stroke-width="0.3" x1="56.762969772571076" x2="54.21961505331055" y1="26.818313649435495" y2="22.513508569990535" /><path d="M 56.25429882871897 25.957352633546506 a86.0,86.0 0 0,1 42.265352541879196,-11.944610805530505" fill="none" id="id24" stroke="none" /><text fill="#e1ed5e" style="font-size:6.75px; font-family:Arial;" text-anchor="middle"><textPath startOffset="22.20632615414155" xlink:href="#id24">December</textPath></text><path d="M 89.63071344664047 81.73862282372117 l -5.012935613560222 -8.828293781693695 a31.152255639097746,31.152255639097746 0 0,0 0.4685831965457383,-0.26076604155344263 l 4.860228327942438 8.913275220807323" fill="#ff7d0b" stroke="none" /><path d="M 89.94658935756843 81.56283822128135 l -9.467051675853662 -17.361825705051167 a40.775187969924815,40.775187969924815 0 0,0 0.6191128887119038,-0.33070866391276854 l 9.166793740613453 17.522213095465688" fill="#fff917" stroke="none" /><path d="M 90.58718382345135 81.22770947309562 l -3.103623092464466 -6.189658151713226 a27.92418546365915,27.92418546365915 0 0,0 0.4315333584898659,-0.2117515448821771 l 2.996618466964174 6.242164856730232" fill="#ff5107" stroke="none" /><path d="M 91.23893434514133 80.91482961587045 l -3.20721503000725 -6.986621002238904 a28.687593984962405,28.687593984962405 0 0,0 0.45055626068598126,-0.2021514607700357 l 3.0864766508544945 7.040792793525468" fill="#ff5c08" stroke="none" /><path d="M 94.28887869178378 79.79150937346287 l -1.4488417482766227 -5.126647344587495 a26.327443609022556,26.327443609022556 0 0,0 0.4371635789433134,-0.1194933200750746 l 1.3603802801095868 5.1508272054888655" fill="#ff3b05" stroke="none" /><path d="M 98.19473922651362 79.07773832637324 l -0.5293083190431633 -6.134475040778439 a27.157268170426065,27.157268170426065 0 0,0 0.46608313708283655,-0.036177021749775724 l 0.4236349925979926 6.1426773247166775" fill="#ff4606" stroke="none" /><path d="M 98.91598698831166 79.02799685794201 l -0.45297228282902235 -8.763489032257748 a29.775187969924815,29.775187969924815 0 0,0 0.5120753382223551,-0.022051041242945057 l 0.3020561122173432 8.769987800024886" fill="#ff6b09" stroke="none" /></svg>