<?xml version="1.0" encoding="utf-8" ?>
<svg baseProfile="full" height="200mm" version="1.1" viewBox="0,0,200,200" width="200mm" xmlns="http://www.w3.org/2000/svg" xmlns:ev="http://www.w3.org/2001/xml-events" xmlns:xlink="http://www.w3.org/1999/xlink"><defs /><rect fill="#1a1a1a" height="200" width="200" x="0" y="0" /><text alignment-baseline="middle" fill="#e1ed5e" style="dominant-baseline: central; font-size:9.0px; font-family:Arial;" text-anchor="middle" x="100.0" y="100.0">2018</text><line stroke="#e1ed5e" stroke-width="0.3" x1="100.0" x2="100.0" y1="15.0" y2="10.0" /><path d="M 100.0 14.0 a86.0,86.0 0 0,1 42.46469731375804,11.215312516191453" fill="none" id="id25" stroke="none" /><text fill="#e1ed5e" style="font-size:6.75px; font-family:Arial;" text-anchor="middle"><textPath startOffset="22.20632615414155" xlink:href="#id25">January</textPath></text><path d="M 101.80526077348638 79.07773832637324 l 1.5236491720321728 -17.658494077006797 a38.724105615435676,38.724105615435676 0 0,0 0.663611075566613,0.06301786778782113 l -1.82738537468903 17.6296506647038" fill="#ffd513" stroke="none" /><path d="M 103.59715602781102 79.31037775812273 l 2.192633270015968 -12.61128339189896 a33.80047301655558,33.80047301655558 0 0,0 0.572362529224615,0.10459559376658167 l -2.409390920343484 12.57167231678164" fill="#ff940d" stroke="none" /><path d="M 105.71112130821622 79.79150937346287 l 2.4875675025913013 -8.802121658083944 a30.14687584717639,30.14687584717639 0 0,0 0.4981552773355977,0.14542518577139735 l -2.6387129976503263 8.757998143393845" fill="#ff6109" stroke="none" /><path d="M 107.76421540070413 80.48803036053334 l 1.6232213201013106 -4.079258943933912 a25.39035317323063,25.39035317323063 0 0,0 0.4046933697108554,0.16508458675042167 l -1.6931985594005534 4.050713470999911" fill="#ff1d02" stroke="none" /><line stroke="#e1ed5e" stroke-width="0.3" x1="143.23703022742887" x2="145.7803849466894" y1="26.81831364943548" y2="22.513508569990506" /><path d="M 143.74570117128098 25.957352633546492 a86.0,86.0 0 0,1 28.547481713284135,27.462654790039103" fill="none" id="id26" stroke="none" /><text fill="#e1ed5e" style="font-size:6.75px; font-family:Arial;" text-anchor="middle"><textPath startOffset="19.985693538727396" xlink:href="#id26">February</textPath></text><path d="M 110.99172775467656 82.1063720568725 l 2.918654977794854 -4.751330039519793 a26.57617108990119,26.57617108990119 0 0,0 0.38773475358208,0.24279946712224384 l -3.0000088837491976 4.700386231074605" fill="#ff2e04" stroke="none" /><path d="M 111.90073688211348 82.69761687909136 l 4.426439328145899 -6.43556360212851 a28.81087984818599,28.81087984818599 0 0,0 0.40619068401165626,0.28456253208670745 l -4.536561151741206 6.358416227277867" fill="#ff4f07" stroke="none" /><path d="M 112.19680574252982 82.90503203632743 l 2.8067999978059155 -3.9339936255290464 a25.832642349003955,25.832642349003955 0 0,0 0.3597560593296987,0.2613780768106443 l -2.874101373489403 3.885096313901727" fill="#ff2403" stroke="none" /><path d="M 112.77801427241765 83.33499621200491 l 3.15269577552735 -4.111725493605879 a26.181291073448442,26.181291073448442 0 0,0 0.35527693427751517,0.27729928251295366 l -3.223005264964295 4.0568478218697015" fill="#ff2903" stroke="none" /><path d="M 113.34407831869373 83.78471172551755 l 4.644537107867625 -5.643889844388817 a28.309255606554924,28.309255606554924 0 0,0 0.37360461074545465,0.31288311720590134 l -4.740999255572197 5.563105569789096" fill="#ff4706" stroke="none" /><path d="M 116.60985879189232 87.15038557335679 l 6.021467813506979 -4.658290034577232 a28.612998139717497,28.612998139717497 0 0,0 0.29801671978470945,0.3921550701094458 l -6.100760473515802 4.553950188586753" fill="#ff4c07" stroke="none" /><path d="M 117.04232023915458 87.72973835380427 l 7.9103095649796025 -5.695325912354727 a30.747293709627662,30.747293709627662 0 0,0 0.3055510558277499,0.4321802995046209 l -8.007173240611236 5.558319112518314" fill="#ff6a09" stroke="none" /><path d="M 117.45458315368197 88.32363383020206 l 8.202869243579935 -5.487367076469452 a30.86905574303796,30.86905574303796 0 0,0 0.29164402489250013,0.4441938584577292 l -8.296109903830361 5.345355154034049" fill="#ff6c09" stroke="none" /><path d="M 117.65298651832404 88.62581576622439 l 4.430739048891889 -2.854816785905789 a26.27080898918419,26.27080898918419 0 0,0 0.24165692004781264,0.3822432134807622 l -4.479223565185657 2.7781259247108205" fill="#ff2a04" stroke="none" /><line stroke="#e1ed5e" stroke-width="0.3" x1="172.23445277983987" x2="176.4835382374775" y1="55.19839476539836" y2="52.563006222186495" /><path d="M 173.08426987136738 54.67131705675599 a86.0,86.0 0 0,1 12.851231095245387,41.99856678651699" fill="none" id="id27" stroke="none" /><text fill="#e1ed5e" style="font-size:6.75px; font-family:Arial;" text-anchor="middle"><textPath startOffset="22.20632615414155" xlink:href="#id27">March</textPath></text><path d="M 118.73160827565052 90.50648371742162 l 8.483357727000653 -4.299518414385643 a30.5106896132669,30.5106896132669 0 0,0 0.23339222782179908,0.47050448950196044 l -8.55610996777586 4.152854336384733" fill="#ff6709" stroke="none" /><path d="M 118.89224826269711 90.83032412892265 l 5.914677913509554 -2.870790103673971 a27.574560870500033,27.574560870500033 0 0,0 0.203581415303941,0.42879438036397 l -5.963217522655252 2.768553307669461" fill="#ff3d05" stroke="none" /><path d="M 119.04729006885535 91.15688171328212 l 4.569164857294967 -2.1213340668677074 a26.03759126134632,26.03759126134632 0 0,0 0.18523599077621639,0.40814295171435444 l -4.60500316503453 2.0423691063112903" fill="#ff2703" stroke="none" /><path d="M 119.196687751892 91.48605970444005 l 14.79159587433757 -6.5602340246300495 a37.18109943630636,37.18109943630636 0 0,0 0.2544414003457281,0.5872858327730192 l -14.90232798452598 6.304649047270427" fill="#ffc111" stroke="none" /><path d="M 119.34039704204932 91.81776055985345 l 23.978291979287427 -10.14436911060881 a47.03587353818254,47.03587353818254 0 0,0 0.30904430888726536,0.7483753071452074 l -24.14935797506089 9.730119233010301" fill="#c3ff1e" stroke="none" /><path d="M 119.61058180528143 92.48833698450437 l 15.865344374935008 -6.077082350366848 a37.989410879380785,37.989410879380785 0 0,0 0.22865177241334136,0.6126730715586858 l -15.967600735849976 5.803086141778829" fill="#ffcb13" stroke="none" /><path d="M 119.85752413597 93.16781622104841 l 16.71362807670437 -5.75049426359473 a38.67522412197471,38.67522412197471 0 0,0 0.21117170770518753,0.631376527596222 l -16.81013707818133 5.461944633076194" fill="#ffd413" stroke="none" /><path d="M 119.97218684219823 93.5106431181261 l 8.963147334624919 -2.9123031092571128 a30.424410832640014,30.424410832640014 0 0,0 0.1575470398872755,0.4994671700536617 l -9.011949858280401 2.7575857727770323" fill="#ff6509" stroke="none" /><path d="M 120.18372546131832 94.20196356495316 l 17.90686998308462 -5.143980223004377 a39.63106344591626,39.63106344591626 0 0,0 0.1827052970518339,0.6572881634142379 l -17.992762050702815 4.834980756171187" fill="#ffe115" stroke="none" /><path d="M 120.37134235888165 94.90015583598534 l 2.3594825967911883 -0.5906824076368946 a23.432295999925216,23.432295999925216 0 0,0 0.09458524358920298,0.39211689859533067 l -2.3693006406412107 0.5499802773821578" fill="#ff0000" stroke="none" /><path d="M 120.53481517161879 95.60439243477599 l 13.776099982085546 -2.948861667098418 a35.08817645574117,35.08817645574117 0 0,0 0.12133943234641677,0.5916941649434173 l -13.824818710346959 2.711291845991589" fill="#ffa50f" stroke="none" /><path d="M 120.6074358757038 95.95851677861258 l 6.364537017008694 -1.2481984523104266 a27.485779121834483,27.485779121834483 0 0,0 0.08705698576487257,0.4650618990480753 l -6.3850797266834265 1.1384584757997886" fill="#ff3c05" stroke="none" /><path d="M 120.87857604477298 97.74499172005257 l 8.514168274248005 -0.919579951914471 a29.563684294167686,29.563684294167686 0 0,0 0.05029046563861059,0.506418125863862 l -8.528735865568846 0.772886295346174" fill="#ff5908" stroke="none" /><path d="M 120.91429891909075 98.10471618934814 l 9.079194472943605 -0.8227696450595628 a30.116398530470306,30.116398530470306 0 0,0 0.04234296248142598,0.5166913930644217 l -9.092011919244527 0.6663643347873723" fill="#ff6108" stroke="none" /><path d="M 120.94382443527127 98.46500227214037 l 6.0571318787563655 -0.44393437788654516 a27.073378329111083,27.073378329111083 0 0,0 0.030063580102320724,0.4650702777273871 l -6.063876049863102 0.33960503590612284" fill="#ff3605" stroke="none" /><line stroke="#e1ed5e" stroke-width="0.3" x1="184.98032266829074" x2="189.97916517819016" y1="98.17113171792111" y2="98.06355123074" /><path d="M 185.9800911702706 98.14961562048488 a86.0,86.0 0 0,1 -9.607161424134198,41.387399972396054" fill="none" id="id28" stroke="none" /><text fill="#e1ed5e" style="font-size:6.75px; font-family:Arial;" text-anchor="middle"><textPath startOffset="21.466115282336823" xlink:href="#id28">April</textPath></text><path d="M 120.99980553446 99.90962569577887 l 10.62397030855144 -0.045721086470335764 a31.624068690230246,31.624068690230246 0 0,0 -0.0023427452084920993,0.5443714805787547 l -10.623183266053445 -0.13715987231210364" fill="#ff760a" stroke="none" /><path d="M 120.8583938346157 102.4346265915055 l 7.250755036650004 0.8463202469321789 a28.299979901470465,28.299979901470465 0 0,0 -0.06064078018622394,0.4833666830800483 l -7.235112747216932 -0.9710046842996222" fill="#ff4706" stroke="none" /><path d="M 120.81339534386255 102.79330883721812 l 9.09419861477797 1.2205075115515371 a30.175733596328048,30.175733596328048 0 0,0 -0.07352238312982617,0.5142153763694705 l -9.071842180631542 -1.3768683599014169" fill="#ff6209" stroke="none" /><path d="M 120.76222939487914 103.15116336523771 l 8.438482874331452 1.2807409833520824 a29.53512101184411,29.53512101184411 0 0,0 -0.08061434862504535,0.5019856258405623 l -8.415186771345118 -1.4258058388858497" fill="#ff5908" stroke="none" /><path d="M 120.70491114924044 103.5080841355445 l 12.902076678460974 2.1860306564487737 a34.08595860637731,34.08595860637731 0 0,0 -0.1029940638025614,0.5776454062520651 l -12.862536172319224 -2.4077948134340574" fill="#ff980e" stroke="none" /><path d="M 120.23288151984713 105.62410040840565 l 3.9892479464524278 1.1088846135369477 a25.14049806960635,25.14049806960635 0 0,0 -0.11948603903321513,0.41594657697029586 l -3.969569270533113 -1.1773886660118256" fill="#ff1902" stroke="none" /><line stroke="#e1ed5e" stroke-width="0.3" x1="174.80103733775053" x2="179.2010983576182" y1="140.37084112569926" y2="142.7455964860345" /><path d="M 175.68104954172406 140.8457921977663 a86.0,86.0 0 0,1 -30.038265399797805,32.042727171017184" fill="none" id="id29" stroke="none" /><text fill="#e1ed5e" style="font-size:6.75px; font-family:Arial;" text-anchor="middle"><textPath startOffset="22.206326154141568" xlink:href="#id29">May</textPath></text><path d="M 113.75828350139079 115.86535959552629 l 3.629920398891568 4.1858413824463865 a26.54054060370374,26.54054060370374 0 0,0 -0.3477247138279788,0.2963385448507654 l -3.557330208486542 -4.247704317520099" fill="#ff2e04" stroke="none" /><line stroke="#e1ed5e" stroke-width="0.3" x1="143.8653032363475" x2="146.44561519142675" y1="172.8068346515853" y2="177.08958963109032" /><path d="M 144.38136562736335 173.6633856474863 a86.0,86.0 0 0,1 -40.68145358897372,12.25698825130547" fill="none" id="id30" stroke="none" /><text fill="#e1ed5e" style="font-size:6.75px; font-family:Arial;" text-anchor="middle"><textPath startOffset="21.466115282336833" xlink:href="#id30">June</textPath></text><line stroke="#e1ed5e" stroke-width="0.3" x1="102.19456741930631" x2="102.32365962044197" y1="184.97166512339345" y2="189.96999836594603" /><path d="M 102.22038585953345 185.97133177190398 a86.0,86.0 0 0,1 -42.740103519485714,-10.115201625700543" fill="none" id="id31" stroke="none" /><text fill="#e1ed5e" style="font-size:6.75px; font-family:Arial;" text-anchor="middle"><textPath startOffset="22.20632615414155" xlink:href="#id31">July</textPath></text><line stroke="#e1ed5e" stroke-width="0.3" x1="58.666819895761336" x2="56.23545636021788" y1="174.27360380694188" y2="178.64263932499728" /><path d="M 58.180547188652646 175.14741091055294 a86.0,86.0 0 0,1 -31.652253787137756,-30.449443065178592" fill="none" id="id32" stroke="none" /><text fill="#e1ed5e" style="font-size:6.75px; font-family:Arial;" text-anchor="middle"><textPath startOffset="22.20632615414155" xlink:href="#id32">August</textPath></text><line stroke="#e1ed5e" stroke-width="0.3" x1="26.63291911575756" x2="22.317208475507996" y1="142.92168965132927" y2="145.44649492493687" /><path d="M 25.769776987707644 143.4266507060508 a86.0,86.0 0 0,1 -11.730757126820373,-40.83630448921669" fill="none" id="id33" stroke="none" /><text fill="#e1ed5e" style="font-size:6.75px; font-family:Arial;" text-anchor="middle"><textPath startOffset="21.46611528233685" xlink:href="#id33">September</textPath></text><path d="M 79.1416061653843 102.43462659150553 l -4.472476176072832 0.5220348946557569 a25.50283950155647,25.50283950155647 0 0,0 -0.047141025458975395,-0.4364673485353079 l 4.480799503032859 -0.444971224235667" fill="#ff1f03" stroke="none" /><path d="M 79.10278846688536 102.07522291339032 l -5.25057750352119 0.5214149613489061 a26.27640385891767,26.27640385891767 0 0,0 -0.04082277544208593,-0.4504759252964113 l 5.258774875240351 -0.43095764750392856" fill="#ff2a04" stroke="none" /><line stroke="#e1ed5e" stroke-width="0.3" x1="15.007084014347285" x2="10.007500721073583" y1="101.09737516637583" y2="101.16192664675087" /><path d="M 14.007167355692545 101.11028546245083 a86.0,86.0 0 0,1 10.666146001902534,-42.60595125391555" fill="none" id="id34" stroke="none" /><text fill="#e1ed5e" style="font-size:6.75px; font-family:Arial;" text-anchor="middle"><textPath startOffset="22.20632615414155" xlink:href="#id34">October</textPath></text><path d="M 79.01574976396665 99.18683210126434 l -8.596837711680545 -0.3331390151731311 a29.603290082544195,29.603290082544195 0 0,0 0.02411454655854193,-0.5090199645820921 l 8.589829556888503 0.48107008637823223" fill="#ff5a08" stroke="none" /><path d="M 79.03285615573316 98.82574320788736 l -9.208712421613926 -0.5157303821640443 a30.223142755648624,30.223142755648624 0 0,0 0.03356122985957034,-0.5191773713755948 l 9.198470600749943 0.674166817792651" fill="#ff6209" stroke="none" /><path d="M 79.08570108090925 98.10471618934814 l -8.823027401264412 -0.7995554170496253 a29.859181756144075,29.859181756144075 0 0,0 0.05079313319553454,-0.5114799195632802 l 8.807957142386648 0.9513108673173358" fill="#ff5d08" stroke="none" /><path d="M 79.16333360222342 97.38593545837743 l -10.990512230452033 -1.3788150065578362 a32.0766642049863,32.0766642049863 0 0,0 0.07344639770733848,-0.5472609729713184 l 10.96514983368686 1.567794321593814" fill="#ff7c0b" stroke="none" /><path d="M 79.21141760316559 97.0276538004421 l -10.228815069759467 -1.4625133651830857 a31.33284099726099,31.33284099726099 0 0,0 0.08093437932880121,-0.5332564373189774 l 10.202124796991363 1.6383689148941551" fill="#ff720a" stroke="none" /><path d="M 79.26566170972629 96.67025291283419 l -11.669497947473419 -1.8740157633829209 a32.819015078571226,32.819015078571226 0 0,0 0.09437520130164989,-0.5570077803561866 l 11.635510884651545 2.0746093320549357" fill="#ff860c" stroke="none" /><path d="M 79.3925641242962 95.95851677861259 l -14.476283998528668 -2.8390557292511547 a35.75205191964328,35.75205191964328 0 0,0 0.1236351991851507,-0.6028891393740783 l 14.425269503428522 3.0878205247886354" fill="#ffae10" stroke="none" /><path d="M 79.62865764111835 94.90015583598534 l -12.146336469667848 -3.040762953551115 a33.521171230123485,33.521171230123485 0 0,0 0.14494501465232068,-0.5585322682480379 l 12.092195123145219 3.2493916473480167" fill="#ff900d" stroke="none" /><path d="M 79.71946130924805 94.55025226153421 l -14.630556509013413 -3.9314952853718035 a36.14958213754873,36.14958213754873 0 0,0 0.1666551328291758,-0.5995471830779392 l 14.560714605617875 4.182753771868685" fill="#ffb310" stroke="none" /><path d="M 79.91906864156998 93.8553929516997 l -5.922319493650448 -1.812183182813087 a27.193373561552917,27.193373561552917 0 0,0 0.14081572631721845,-0.4464243337928433 l 5.890248283565026 1.9138576830323448" fill="#ff3705" stroke="none" /><path d="M 80.2630227832202 92.82701384747504 l -20.655301184998123 -7.50673153993725 a42.977090013367864,42.977090013367864 0 0,0 0.2586717608210582,-0.6931117154921451 l 20.523024835675436 7.8611663924587365" fill="#f4ff19" stroke="none" /><path d="M 80.38941819471856 92.48833698450439 l -7.0606289024797215 -2.7045125697705013 a28.560877511147673,28.560877511147673 0 0,0 0.17980629657203215,-0.45758741236551653 l 7.0130290560259985 2.8256489870317814" fill="#ff4b07" stroke="none" /><path d="M 80.803312248108 91.48605970444005 l -13.486205674201086 -5.981279239824753 a35.75308255354155,35.75308255354155 0 0,0 0.25435369975795824,-0.5604346615561148 l 13.381249657479776 6.212535910222939" fill="#ffae10" stroke="none" /><path d="M 81.10775173730289 90.83032412892265 l -26.53525261896156 -12.879338779041465 a50.49571153468632,50.49571153468632 0 0,0 0.38626811651620074,-0.778692952496693 l 26.30962448949195 13.33419132003712" fill="#9bff22" stroke="none" /><path d="M 81.43458229118936 90.18545643968196 l -13.759275306001841 -7.273793079542545 a36.56360249782656,36.56360249782656 0 0,0 0.29893687677486064,-0.5538846320205204 l 13.632030330008508 7.509558694895539" fill="#ffb911" stroke="none" /><line stroke="#e1ed5e" stroke-width="0.3" x1="26.266209847984243" x2="21.928928074336255" y1="57.711370442889674" y2="55.22380399835377" /><path d="M 25.398753493254645 57.213857153982495 a86.0,86.0 0 0,1 29.58750427330803,-30.492523968695096" fill="none" id="id35" stroke="none" /><text fill="#e1ed5e" style="font-size:6.75px; font-family:Arial;" text-anchor="middle"><textPath startOffset="21.46611528233685" xlink:href="#id35">November</textPath></text><path d="M 81.96595687620814 89.24020034530311 l -6.518423288147236 -3.8891405639617727 a28.590471427369522,28.590471427369522 0 0,0 0.2557951381310498,-0.4204599502844782 l 6.450512351729969 4.000768287453325" fill="#ff4b07" stroke="none" /><path d="M 82.34701348167596 88.62581576622439 l -20.82270366000782 -13.41649853005881 a45.77069681134492,45.77069681134492 0 0,0 0.43243144044682585,-0.6586227512163539 l 20.588675584203077 13.77293934525283" fill="#d2ff1c" stroke="none" /><path d="M 82.7489923806493 88.02491185347247 l -6.086748233973696 -4.225222562987839 a28.409521561515522,28.409521561515522 0 0,0 0.2823194584427576,-0.39932085253391025 l 6.01311615572706 4.329369915853535" fill="#ff4906" stroke="none" /><path d="M 83.17141714833178 87.43820079747576 l -11.053624170060694 -8.25104576590693 a34.793562394249015,34.793562394249015 0 0,0 0.3623899629017105,-0.4768627123046793 l 10.909958266934874 8.440093254092638" fill="#ffa10e" stroke="none" /><path d="M 83.39014120810768 87.1503855733568 l -12.831093790547245 -9.926310027458346 a37.222472025651335,37.222472025651335 0 0,0 0.39641209422580886,-0.5034031033883279 l 12.658327615727465 10.145705524799721" fill="#ffc112" stroke="none" /><path d="M 84.31358615837235 86.03803664274999 l -4.9724918602463575 -4.425852195914006 a27.656864348947867,27.656864348947867 0 0,0 0.3195768578519803,-0.3528847483411698 l 4.895571361778332 4.510789731524731" fill="#ff3e05" stroke="none" /><path d="M 84.5562425177563 85.77008943001954 l -10.97342975824265 -10.110941219148781 a35.92137034578819,35.92137034578819 0 0,0 0.42290174233715544,-0.4511220927540113 l 10.79776069393504 10.298332728780842" fill="#ffb010" stroke="none" /><path d="M 85.57189188830299 84.74124197986013 l -25.326405800537852 -26.784488627235554 a57.862388172716486,57.862388172716486 0 0,0 0.7295954387112898,-0.6780794460987659 l 24.861602478031706 27.216472659408968" fill="#4cff2c" stroke="none" /><path d="M 86.10567301691215 84.25364557470407 l -6.25285628422903 -7.086323169287316 a30.450618380338966,30.450618380338966 0 0,0 0.39601203403386254,-0.34341773354677974 l 6.129950451548394 7.192905896253776" fill="#ff6609" stroke="none" /><path d="M 88.09926311788651 82.69761687909137 l -8.348415928389034 -12.137693008134997 a35.731586475091845,35.731586475091845 0 0,0 0.5097626461592524,-0.3441940142181523 l 8.138248587823243 12.279598934651816" fill="#ffae10" stroke="none" /><path d="M 88.39885842347998 82.49532879139004 l -10.609346076696056 -16.00817588389681 a40.20468482701243,40.20468482701243 0 0,0 0.5801592962159485,-0.3773517444395699 l 10.33221975469582 16.188426552495915" fill="#ffe815" stroke="none" /><path d="M 89.00827224532344 82.1063720568725 l -11.579368477372896 -18.85025866496148 a43.12270385985249,43.12270385985249 0 0,0 0.6358297582034729,-0.38308031496987477 l 11.253176652951774 19.046785589389973" fill="#f2ff19" stroke="none" /><line stroke="#e1ed5e" stroke-width="0.3" x1="56.762969772571076" x2="54.21961505331055" y1="26.818313649435495" y2="22.513508569990535" /><path d="M 56.25429882871897 25.957352633546506 a86.0,86.0 0 0,1 42.265352541879196,-11.944610805530505" fill="none" id="id36" stroke="none" /><text fill="#e1ed5e" style="font-size:6.75px; font-family:Arial;" text-anchor="middle"><textPath startOffset="22.20632615414155" xlink:href="#id36">December</textPath></text><path d="M 89.94658935756843 81.56283822128135 l -21.171976444283363 -38.827734065785684 a65.22494227515355,65.22494227515355 0 0,0 0.9903474254446694,-0.5290092967692397 l 20.500483972310388 39.18642208905668" fill="#35ff66" stroke="none" /><path d="M 90.58718382345135 81.22770947309562 l -2.564869878625187 -5.115204803979549 a26.722226636627934,26.722226636627934 0 0,0 0.4129585882402433,-0.2026369857900288 l 2.4764400233745176 5.158596949904407" fill="#ff3004" stroke="none" /><path d="M 90.91171255644093 81.06846463323043 l -7.650170221185335 -15.935837087417296 a38.676990922943176,38.676990922943176 0 0,0 0.6026644833978225,-0.2829590558037449 l 7.374727526487904 16.06516112586105" fill="#ffd413" stroke="none" /><path d="M 91.56875222667455 80.76684994638697 l -1.8767610908031205 -4.281220128341916 a25.674513662326007,25.674513662326007 0 0,0 0.40628847146788427,-0.17395152015245904 l 1.802788861544928 4.312891176457161" fill="#ff2103" stroke="none" /><path d="M 92.23578459929587 80.48803036053334 l -10.887433519798204 -27.360816428502027 a50.447418974881515,50.447418974881515 0 0,0 0.8096014036595162,-0.3141127667074283 l 10.414848951139012 27.544171899100007" fill="#9cff22" stroke="none" /><path d="M 92.57280143429618 80.3572730644239 l -2.3994170644263066 -6.345743120255645 a27.78422125209165,27.78422125209165 0 0,0 0.4488047101597561,-0.16529856237059337 l 2.289830028493981 6.386104950432561" fill="#ff4006" stroke="none" /><path d="M 93.25333710446033 80.11325718540243 l -3.84008815669793 -11.319202802932574 a32.95285025193273,32.95285025193273 0 0,0 0.5387275975029551,-0.17761001881235391 l 3.6446777369525654 11.383626546004162" fill="#ff880c" stroke="none" /><path d="M 93.94186890950719 79.89281104454417 l -1.285695652939648 -4.267277324757049 a25.456755442962244,25.456755442962244 0 0,0 0.4206544363681161,-0.12280056508000402 l 1.2120509988481107 4.288776218755752" fill="#ff1e03" stroke="none" /><path d="M 94.98787191387505 79.60689891045804 l -3.532755420206362 -14.373902097261688 a35.80166958017444,35.80166958017444 0 0,0 0.5997228250237794,-0.14193501641577855 l 3.2848089082200485 14.432583025818339" fill="#ffaf10" stroke="none" /><path d="M 95.692805502759 79.44645832069477 l -1.4740362834499916 -7.0339675183241095 a28.18675740607443,28.18675740607443 0 0,0 0.4757301729958926,-0.09542699726587027 l 1.3527397009869626 7.05829847166719" fill="#ff4606" stroke="none" /><path d="M 96.40284397218896 79.31037775812273 l -1.2642318904918406 -7.2714333318278275 a28.38051657894983,28.38051657894983 0 0,0 0.4820238751620263,-0.07953806954167 l 1.1388788091909288 7.292117664309124" fill="#ff4806" stroke="none" /><path d="M 96.75951476605007 79.25152402106235 l -9.72145570184976 -62.24542793681294 a84.0,84.0 0 0,0 1.430524078285405,-0.2108220633561242 l 8.648562643135705 62.403544484330034" fill="#4dd2ff" stroke="none" /><path d="M 98.19473922651362 79.07773832637324 l -0.42479056920729935 -4.923155466498051 a25.941447841978817,25.941447841978817 0 0,0 0.44521677639973667,-0.03455739056338289 l 0.3399836034452285 4.929738119249897" fill="#ff2503" stroke="none" /><path d="M 98.91598698831166 79.02799685794201 l -0.3040207937532617 -5.881779068236403 a26.88963102839034,26.88963102839034 0 0,0 0.4624493695034123,-0.019914042638908915 l 0.20273059186052525 5.8861408373995046" fill="#ff3304" stroke="none" /><path d="M 99.63851952072746 79.00311137660856 l -0.22514935650314094 -13.0779841048081 a34.07992203640171,34.07992203640171 0 0,0 0.5866298357756735,-0.0050493082021700105 l 3.203656930995257e-15 13.079922036401712" fill="#ff980e" stroke="none" /></svg>