<?xml version="1.0" encoding="utf-8" ?>
<svg baseProfile="full" height="200mm" version="1.1" viewBox="0,0,200,200" width="200mm" xmlns="http://www.w3.org/2000/svg" xmlns:ev="http://www.w3.org/2001/xml-events" xmlns:xlink="http://www.w3.org/1999/xlink"><defs /><rect fill="#1a1a1a" height="200" width="200" x="0" y="0" /><text alignment-baseline="middle" fill="#e1ed5e" style="dominant-baseline: central; font-size:9.0px; font-family:Arial;" text-anchor="middle" x="100.0" y="100.0">2022</text><line stroke="#e1ed5e" stroke-width="0.3" x1="100.0" x2="100.0" y1="15.0" y2="10.0" /><path d="M 100.0 14.0 a86.0,86.0 0 0,1 42.46469731375804,11.215312516191453" fill="none" id="id73" stroke="none" /><text fill="#e1ed5e" style="font-size:6.75px; font-family:Arial;" text-anchor="middle"><textPath startOffset="22.20632615414155" xlink:href="#id73">January</textPath></text><path d="M 100.36148047927253 79.00311137660856 l 0.03657207194985992 -2.1243186437155566 a23.124633431085044,23.124633431085044 0 0,0 0.39793459966078343,0.010277476687812183 l -0.07313330680551113 2.123374374885385" fill="#ff0000" stroke="none" /><path d="M 102.52436894288641 79.15227682838746 l 1.341092031708048 -11.075526619629674 a32.15642495334578,32.15642495334578 0 0,0 0.5489335585532016,0.07126733039882427 l -1.5315403187690955 11.050800966066712" fill="#ff810b" stroke="none" /><path d="M 102.88285421437855 79.19881850522331 l 1.7347273576724098 -12.516893303491821 a33.63653025859771,33.63653025859771 0 0,0 0.5728317433916509,0.08442050849116993 l -1.9499280814927165 12.485178310839682" fill="#ff950d" stroke="none" /><path d="M 103.59715602781102 79.31037775812273 l 2.524530323437093 -14.520242749064764 a35.738069848040524,35.738069848040524 0 0,0 0.6051729523965962,0.11059148888231421 l -2.77409839693659 14.474635778831711" fill="#ffb110" stroke="none" /><path d="M 104.307194497241 79.44645832069477 l 3.474118088883672 -16.57817657977551 a37.93828312450013,37.93828312450013 0 0,0 0.6380086056447928,0.13944396964898248 l -3.7589694186819926 16.515919112030655" fill="#ffce13" stroke="none" /><path d="M 105.01212808612495 79.60689891045804 l 4.548295784899644 -18.505882956855405 a40.05661823513729,40.05661823513729 0 0,0 0.6681655865288539,0.17033028533358346 l -4.866170260113524 18.424849675352952" fill="#ffe915" stroke="none" /><path d="M 105.71112130821622 79.79150937346287 l 5.845487198765424 -20.68393698691886 a42.49406824846707,42.49406824846707 0 0,0 0.7021836843307804,0.2049866726005894 l -6.200661100819631 20.580251985399563" fill="#f7ff18" stroke="none" /><path d="M 106.40334571778207 80.00007090966166 l 7.0808524711131176 -22.116023960433793 a44.22190749133564,44.22190749133564 0 0,0 0.7229590702372499,0.23834823881413636 l -7.460494363592785 21.99086199736042" fill="#e2ff1b" stroke="none" /><path d="M 107.08798089147638 80.2323363322302 l 7.086091267138476 -19.762393696117492 a41.99440149293522,41.99440149293522 0 0,0 0.6783449145241013,0.24984015680745358 l -7.4252185074351535 19.63749027150371" fill="#fdff18" stroke="none" /><path d="M 107.76421540070413 80.48803036053334 l 12.176477638381009 -30.600266702310734 a53.933917621967474,53.933917621967474 0 0,0 0.8596453430649349,0.3506709198452988 l -12.701406851034331 30.386134896281856" fill="#73ff27" stroke="none" /><path d="M 108.43124777332544 80.76684994638697 l 9.29128674407154 -21.195049290953392 a44.14212876566249,44.14212876566249 0 0,0 0.6932792093265431,0.3110541726209264 l -9.654748071864862 21.031974787815933" fill="#e3ff1b" stroke="none" /><path d="M 109.41281617654863 81.2277094730956 l 12.241868065921194 -24.414362249849972 a48.31161690215943,48.31161690215943 0 0,0 0.7401788602809338,0.3791483609388005 l -12.660307413790884 24.200021363598673" fill="#b2ff20" stroke="none" /><line stroke="#e1ed5e" stroke-width="0.3" x1="143.23703022742887" x2="145.7803849466894" y1="26.81831364943548" y2="22.513508569990506" /><path d="M 143.74570117128098 25.957352633546492 a86.0,86.0 0 0,1 28.547481713284135,27.462654790039103" fill="none" id="id74" stroke="none" /><text fill="#e1ed5e" style="font-size:6.75px; font-family:Arial;" text-anchor="middle"><textPath startOffset="19.985693538727396" xlink:href="#id74">February</textPath></text><path d="M 111.2981086023043 82.29822771554956 l 9.043983828844022 -14.170030393387897 a37.81021727539323,37.81021727539323 0 0,0 0.5456067903192857,0.354877833463905 l -9.286557644947587 14.012253635764463" fill="#ffcc13" stroke="none" /><path d="M 111.60114157652 82.49532879139004 l 11.614286031785332 -17.524504547089467 a42.02379365502533,42.02379365502533 0 0,0 0.5995300620130353,0.40480537411573114 l -11.91422078820491 17.321987260675066" fill="#fdff18" stroke="none" /><path d="M 112.19680574252982 82.90503203632743 l 14.643239152430077 -20.523873994509188 a46.2121767528659,46.2121767528659 0 0,0 0.6435698825172474,0.4675808893921913 l -14.994354351301114 20.268773870300322" fill="#caff1d" stroke="none" /><path d="M 113.06298171725822 83.55741782278167 l 16.99040843856932 -21.386096453506763 a48.313716342308716,48.313716342308716 0 0,0 0.6467057841210564,0.5229244353865309 l -17.356017621254868 21.090465920856104" fill="#b2ff20" stroke="none" /><path d="M 113.34407831869373 83.78471172551755 l 16.28077164102955 -19.783862113614752 a46.62156758197814,46.62156758197814 0 0,0 0.6152769557379233,0.5152767560125218 l -16.61890613372659 19.50068420020841" fill="#c5ff1e" stroke="none" /><path d="M 114.16331599549186 84.49514656593476 l 21.267629257426783 -23.282081302951863 a52.53359104238869,52.53359104238869 0 0,0 0.662403844950961,0.615632182502962 l -21.66524098617259 22.91254453437426" fill="#83ff25" stroke="none" /><path d="M 114.68862486808459 84.99185889309783 l 17.62752461841716 -18.010969659482843 a46.20167955211943,46.20167955211943 0 0,0 0.5635817273044976,0.5611615282617689 l -17.93494214588898 17.704872280570957" fill="#caff1d" stroke="none" /><path d="M 115.19652480421416 85.50635884689758 l 16.31367802062633 -15.559122770795826 a43.54378832311384,43.54378832311384 0 0,0 0.5126403523178438,0.546848985037779 l -16.579085694914635 15.276004368879992" fill="#eaff1a" stroke="none" /><path d="M 115.4437574822437 85.77008943001954 l 20.085427994518955 -18.506755525680745 a48.31161690215943,48.31161690215943 0 0,0 0.5582438606395621,0.6164268138778554 l -20.40101549577455 18.158275924533342" fill="#b2ff20" stroke="none" /><path d="M 115.9244219780498 86.31012108654704 l 28.820295694678325 -24.776180815473108 a59.006165022660625,59.006165022660625 0 0,0 0.6555005732673533,0.7759059232245609 l -29.242506881432796 24.27641594261944" fill="#3fff2d" stroke="none" /><path d="M 116.38621287248628 86.86637796730983 l 21.330799568046245 -17.096730120733675 a48.336810183950945,48.336810183950945 0 0,0 0.5147776359402262,0.6537153211566811 l -21.621931284580434 16.727022405623956" fill="#b2ff20" stroke="none" /><path d="M 117.04232023915458 87.72973835380427 l 22.149109881599195 -15.94708758336556 a48.29272194081578,48.29272194081578 0 0,0 0.4799086487794471,0.678796749703533 l -22.420331150182523 15.563464333330234" fill="#b2ff20" stroke="none" /><line stroke="#e1ed5e" stroke-width="0.3" x1="172.23445277983987" x2="176.4835382374775" y1="55.19839476539836" y2="52.563006222186495" /><path d="M 173.08426987136738 54.67131705675599 a86.0,86.0 0 0,1 12.851231095245387,41.99856678651699" fill="none" id="id75" stroke="none" /><text fill="#e1ed5e" style="font-size:6.75px; font-family:Arial;" text-anchor="middle"><textPath startOffset="22.20632615414155" xlink:href="#id75">March</textPath></text><path d="M 117.84615892207809 88.93136811851018 l 14.485433646529458 -8.984226430866688 a38.04535457211411,38.04535457211411 0 0,0 0.3403867177475819,0.5595062653158164 l -14.637936162563264 8.733552392343789" fill="#ffcf13" stroke="none" /><path d="M 118.03404312379186 89.2402003453031 l 21.777513352334235 -12.993297123675406 a46.35913756331645,46.35913756331645 0 0,0 0.40297200295631724,0.6888097783463145 l -21.997945029760878 12.616507932975196" fill="#c9ff1d" stroke="none" /><path d="M 118.56541770881063 90.18545643968196 l 9.452846480035916 -4.997214444751382 a31.69244868035191,31.69244868035191 0 0,0 0.250808857653886,0.4844828821312905 l -9.537464770849919 4.833758840359747" fill="#ff7b0b" stroke="none" /><path d="M 118.73160827565052 90.50648371742162 l 32.03561944530326 -16.236228643635215 a56.91512263396427,56.91512263396427 0 0,0 0.4353735506035814,0.8776865111626535 l -32.31035300886025 15.682382543973613" fill="#54ff2b" stroke="none" /><path d="M 119.34039704204932 91.81776055985345 l 23.27769661315968 -9.847971936142791 a46.27515995734471,46.27515995734471 0 0,0 0.30404611952313376,0.7362717951471386 l -23.44376441956901 9.44582557054235" fill="#c9ff1d" stroke="none" /><path d="M 119.7369772167798 92.82701384747503 l 9.984248005555767 -3.6285633762772935 a31.62316715542522,31.62316715542522 0 0,0 0.1815273988391871,0.5132024012608019 l -10.045228485204763 3.4561633485898775" fill="#ff7a0b" stroke="none" /><path d="M 119.85752413597 93.16781622104841 l 19.943550466870953 -6.861782015797212 a42.090975739802715,42.090975739802715 0 0,0 0.22982215171964535,0.6871389813261297 l -20.058709912362367 6.517469931548769" fill="#fcff18" stroke="none" /><path d="M 120.83666639777658 97.38593545837742 l 9.192769476145164 -1.153279141113746 a30.26482937883231,30.26482937883231 0 0,0 0.06039944360349874,0.5174655474761761 l -9.211259272752251 0.9948698553127171" fill="#ff6709" stroke="none" /><path d="M 120.87857604477298 97.74499172005257 l 21.474152594170675 -2.3193340293354265 a42.599040255931754,42.599040255931754 0 0,0 0.07246476957715864,0.7297103404078791 l -21.51089448943006 1.9493481582231122" fill="#f6ff19" stroke="none" /><path d="M 120.94382443527127 98.46500227214037 l 26.63553625444072 -1.9521500362672346 a47.706978139162885,47.706978139162885 0 0,0 0.052976120722407025,0.8195171397896005 l -26.66519296616754 1.4933738322245989" fill="#b9ff1f" stroke="none" /><path d="M 120.98425023603335 99.18683210126433 l 27.494626458956258 -1.0654537270890763 a48.515262596640895,48.515262596640895 0 0,0 0.025154714415087653,0.83476250865151 l -27.50889286782699 0.5920210710125673" fill="#afff20" stroke="none" /><line stroke="#e1ed5e" stroke-width="0.3" x1="184.98032266829074" x2="189.97916517819016" y1="98.17113171792111" y2="98.06355123074" /><path d="M 185.9800911702706 98.14961562048488 a86.0,86.0 0 0,1 -9.607161424134198,41.387399972396054" fill="none" id="id76" stroke="none" /><text fill="#e1ed5e" style="font-size:6.75px; font-family:Arial;" text-anchor="middle"><textPath startOffset="21.466115282336823" xlink:href="#id76">April</textPath></text><path d="M 120.99513854157772 99.54816195383933 l 21.008431917753725 -0.45212413396648754 a42.01329645427886,42.01329645427886 0 0,0 0.009336940738734567,0.7231563498847015 l -21.013101865610178 0.09043152602132339" fill="#fdff18" stroke="none" /><path d="M 120.99824983174949 100.27111621757518 l 31.505771808340754 0.4067827439384544 a52.50839776059718,52.50839776059718 0 0,0 -0.019447953632981893,0.9036699860582547 l -31.494101792022764 -0.9490425457868239" fill="#83ff25" stroke="none" /><path d="M 120.9764740272857 100.99374915477107 l 31.351468279250998 1.4852589173381174 a52.38663023193815,52.38663023193815 0 0,0 -0.050424998175864155,0.9003722160278219 l -31.3212569301876 -2.0247028497013626" fill="#84ff25" stroke="none" /><path d="M 120.92983693683757 101.71520430193887 l 20.94099654064287 1.7161188336914373 a42.011197014129564,42.011197014129564 0 0,0 -0.06526820302234781,0.7202291816399697 l -20.908353741343447 -2.0763294038799773" fill="#fdff18" stroke="none" /><path d="M 120.81339534386255 102.79330883721812 l 26.966969173866165 3.619163142863245 a48.20874433484404,48.20874433484404 0 0,0 -0.11745934062811139,0.8215103547791777 l -26.90067578222145 -4.082818969622832" fill="#b3ff20" stroke="none" /><path d="M 120.70491114924044 103.5080841355445 l 18.646011693450866 3.159239725371719 a39.91175686483604,39.91175686483604 0 0,0 -0.12059728407462642,0.6763736139757095 l -18.58886796703705 -3.479732090080647" fill="#ffe715" stroke="none" /><path d="M 120.5718875245553 104.21870165774334 l 19.338588882304062 3.9657876254092836 a40.74103572380699,40.74103572380699 0 0,0 -0.14679569673350765,0.6857806243351403 l -19.26745914684611 -4.298082069160593" fill="#fff116" stroke="none" /><path d="M 120.49622156327973 104.57218783832717 l 24.595056060788455 5.486533986614335 a46.19958011197014,46.19958011197014 0 0,0 -0.1798251205999298,0.7746819130838374 l -24.496970374257973 -5.909084557046738" fill="#caff1d" stroke="none" /><path d="M 120.32669344350535 105.2749913415812 l 10.784500343709963 2.7986915872205533 a32.14172887230072,32.14172887230072 0 0,0 -0.14358463881959854,0.5343318558444496 l -10.734727628548587 -2.983914376240551" fill="#ff810b" stroke="none" /><path d="M 120.13307415673323 105.97154293290107 l 30.213700629837625 8.961493365013803 a52.51469608104506,52.51469608104506 0 0,0 -0.2645070902548419,0.8644244752306413 l -30.05496676707665 -9.480244812796501" fill="#83ff25" stroke="none" /><path d="M 119.9155931802556 106.66101706037122 l 21.917240375391938 7.33049278198145 a44.11063716342309,44.11063716342309 0 0,0 -0.2470388277788016,0.7180104698372175 l -21.787810716669902 -7.7066759549079675" fill="#e3ff1b" stroke="none" /><path d="M 119.79798401119884 107.00284435728193 l 25.742393366734078 9.105471245415426 a48.305318581711546,48.305318581711546 0 0,0 -0.2840254718692755,0.7815161144979603 l -25.581843633859577 -9.547235156919518" fill="#b2ff20" stroke="none" /><path d="M 119.54520255179757 107.68017299344265 l 33.30005417432693 13.085061465700775 a56.7786590242602,56.7786590242602 0 0,0 -0.3652689714356412,0.9065676316129422 l -33.069882588633895 -13.65632846515653" fill="#55ff2b" stroke="none" /><path d="M 119.12269723197855 108.67885076344098 l 19.11759920552374 8.676537020235587 a41.99440149293522,41.99440149293522 0 0,0 -0.3044101837068582,0.6556724541033035 l -18.965414404977047 -9.004329541617722" fill="#fdff18" stroke="none" /><path d="M 118.81262510543309 109.33194174019688 l 22.586058540170548 11.203741171490032 a46.2121767528659,46.2121767528659 0 0,0 -0.3596216855726381,0.7095677029529652 l -22.389858184811644 -11.590863086145692" fill="#caff1d" stroke="none" /><line stroke="#e1ed5e" stroke-width="0.3" x1="174.80103733775053" x2="179.2010983576182" y1="140.37084112569926" y2="142.7455964860345" /><path d="M 175.68104954172406 140.8457921977663 a86.0,86.0 0 0,1 -30.038265399797805,32.042727171017184" fill="none" id="id77" stroke="none" /><text fill="#e1ed5e" style="font-size:6.75px; font-family:Arial;" text-anchor="middle"><textPath startOffset="22.206326154141568" xlink:href="#id77">May</textPath></text><path d="M 117.94076556474637 110.91462005526583 l 21.523179163252106 13.094052319033914 a46.19328179152226,46.19328179152226 0 0,0 -0.4191168376698582,0.6757497920301595 l -21.294597685914283 -13.462598442429346" fill="#caff1d" stroke="none" /><path d="M 117.55443506779139 111.5257021239791 l 26.4545008876187 17.36921159192825 a52.64696081045055,52.64696081045055 0 0,0 -0.5038988396411442,0.7532603953711394 l -26.151598942566835 -17.822008901505193" fill="#81ff25" stroke="none" /><path d="M 117.14729908036423 112.12312394758627 l 28.194644225681547 19.933586333572855 a55.52949213543055,55.52949213543055 0 0,0 -0.5585214694344273,0.7757374713762394 l -27.847342963871515 -20.415957410400225" fill="#62ff29" stroke="none" /><path d="M 116.71984013943494 112.70617746262583 l 16.728755010210424 12.712952283986862 a42.011197014129564,42.011197014129564 0 0,0 -0.4425043038111475,0.5719964628563454 l -16.507443889181207 -12.999026740956461" fill="#fdff18" stroke="none" /><path d="M 116.27256486870786 113.27417163493432 l 19.536513413920883 15.936702928944909 a46.2121767528659,46.2121767528659 0 0,0 -0.5081226888506353,0.6120665118132553 l -19.259294725176705 -16.270630697871933" fill="#caff1d" stroke="none" /><path d="M 115.56566222782051 114.09645910891815 l 23.354717946727238 21.15032574379936 a52.50839776059718,52.50839776059718 0 0,0 -0.6124819353260793,0.6647281741451029 l -22.987189603405437 -21.549205172745797" fill="#83ff25" stroke="none" /><path d="M 115.07121518719521 114.62390073753431 l 18.112277835771145 17.57470448872634 a46.237370034657424,46.237370034657424 0 0,0 -0.5591625520513099,0.5664287130832946 l -17.807074658664302 -17.8838736957903" fill="#caff1d" stroke="none" /><path d="M 114.55890576462653 115.13401014063108 l 14.566668444319747 15.142079460887347 a42.011197014129564,42.011197014129564 0 0,0 -0.5254683814266541,0.496863152721569 l -14.303864228502285 -15.390577250354838" fill="#fdff18" stroke="none" /><path d="M 114.29624159901734 115.38237550388516 l 18.780253393537173 20.207052864674516 a48.586643561716876,48.586643561716876 0 0,0 -0.6175141455483394,0.5640845308393334 l -18.42963969852197 -20.527330162100434" fill="#afff20" stroke="none" /><path d="M 113.75828350139079 115.86535959552629 l 20.641551636767357 23.802797732277693 a52.50629832044788,52.50629832044788 0 0,0 -0.6879188269095149,0.5862593483725181 l -20.228767333280793 -24.154581470873158" fill="#83ff25" stroke="none" /><path d="M 112.92097659922987 116.55440617244103 l 12.926574196396967 16.561577836005473 a42.00909757398027,42.00909757398027 0 0,0 -0.5738668207566003,0.4400166072195654 l -12.639578647146873 -16.78163378505241" fill="#fdff18" stroke="none" /><path d="M 112.34349029814194 116.9893568818739 l 14.81687763361006 20.393682492734587 a46.20797787256731,46.20797787256731 0 0,0 -0.6475116725361902,0.4619823858533739 l -14.463638633224987 -20.645709140432178" fill="#caff1d" stroke="none" /><path d="M 111.45004920935366 117.60387380957326 l 14.891397976987662 22.89477416576299 a48.31161690215943,48.31161690215943 0 0,0 -0.7010204210773846,0.44742440036484793 l -14.495095753863348 -23.147712994951647" fill="#b2ff20" stroke="none" /><path d="M 111.1453310114006 117.79835938074945 l 7.8063372166628175 12.466206260483604 a35.70867768595041,35.70867768595041 0 0,0 -0.5237626414374172,0.32173779297571237 l -7.590595375293091 -12.598732520287696" fill="#ffb110" stroke="none" /><line stroke="#e1ed5e" stroke-width="0.3" x1="143.8653032363475" x2="146.44561519142675" y1="172.8068346515853" y2="177.08958963109032" /><path d="M 144.38136562736335 173.6633856474863 a86.0,86.0 0 0,1 -40.68145358897372,12.25698825130547" fill="none" id="id78" stroke="none" /><text fill="#e1ed5e" style="font-size:6.75px; font-family:Arial;" text-anchor="middle"><textPath startOffset="21.466115282336833" xlink:href="#id78">June</textPath></text><path d="M 109.57404056367764 118.69057910512821 l 9.584888250266713 18.711756114244928 a42.02379365502533,42.02379365502533 0 0,0 -0.6466583192365447,0.3242479056717012 l -9.261376023347408 -18.87397186082593" fill="#fdff18" stroke="none" /><path d="M 109.2508944713604 118.85261126421891 l 11.098113868600848 22.617102289785414 a46.19328179152226,46.19328179152226 0 0,0 -0.7168478742548866,0.3441305424159238 l -10.707153326345727 -22.804787108700896" fill="#caff1d" stroke="none" /><path d="M 108.59647513512805 119.15986991738527 l 10.32247362516892 23.006784615207398 a46.21637563316449,46.21637563316449 0 0,0 -0.7286326887805679,0.3194111582205054 l -9.924920261730598 -23.181060326722356" fill="#caff1d" stroke="none" /><path d="M 107.93186726928326 119.44442032107085 l 10.317401197078565 25.29239064224068 a48.31581578245801,48.31581578245801 0 0,0 -0.7727744864367339,0.3075029164009796 l -9.880505634599965 -25.466240403047728" fill="#b2ff20" stroke="none" /><path d="M 107.2578585660854 119.70592522655815 l 12.339423764480976 33.50296231700025 a56.70307917888563,56.70307917888563 0 0,0 -0.9188070807922923,0.3294515295819845 l -11.760897123058948 -33.71040138762219" fill="#56ff2a" stroke="none" /><path d="M 106.57524785965236 119.94407469862006 l 6.580068422599324 19.958696454264214 a42.01539589442815,42.01539589442815 0 0,0 -0.6888097135240643,0.22053511837658413 l -6.23553736398432 -20.069004419300505" fill="#fdff18" stroke="none" /><path d="M 105.88484417918355 120.15858648285463 l 7.66002444811082 26.23948240536863 a48.33471074380165,48.33471074380165 0 0,0 -0.8006733031641925,0.2262782731836566 l -7.207219976842023 -26.367449471890804" fill="#b2ff20" stroke="none" /><path d="M 105.53697534728816 120.25689768951611 l 6.949819263383379 25.425754847894705 a47.35847107438016,47.35847107438016 0 0,0 -0.7882018216348151,0.20817126494863242 l -6.5111269989370655 -25.54161746214692" fill="#bdff1f" stroke="none" /><path d="M 104.83641907484287 120.43548508189849 l 4.838030784745173 20.442295094255833 a42.006998133830976,42.006998133830976 0 0,0 -0.7050771631746221,0.16047326680438267 l -4.4854334721776885 -20.5225450946379" fill="#fdff18" stroke="none" /><path d="M 103.41894727170886 120.7198165907248 l 4.114973294198511 24.937937077019715 a46.27515995734471,46.27515995734471 0 0,0 -0.7870394067877502,0.12291936905733909 l -3.685098023802244 -25.00507475342416" fill="#c9ff1d" stroke="none" /><path d="M 103.06178313531738 120.77559828337769 l 3.9801752307916414 27.00730849894296 a48.299020261263664,48.299020261263664 0 0,0 -0.8235475347260238,0.11413618413080005 l -3.5146991048787872 -27.071819248566364" fill="#b2ff20" stroke="none" /><path d="M 102.34483914955558 120.86867818915974 l 3.752852233927827 33.39976031027642 a54.60993735003999,54.60993735003999 0 0,0 -0.9350453986897427,0.09692127874416466 l -3.177374238632482 -33.459410957476344" fill="#6cff28" stroke="none" /><path d="M 101.62511606390274 120.93702456842531 l 0.7133982241332542 9.190996555580734 a30.218641695547852,30.218641695547852 0 0,0 -0.5189508340044324,0.03578988787797555 l -0.5550846293498914 -9.201914787974994" fill="#ff6609" stroke="none" /><path d="M 100.90346689309514 120.98055641714683 l 1.0840518845902325 25.17415070500496 a46.19748067182085,46.19748067182085 0 0,0 -0.7947718843158326,0.0273735506764811 l -0.6505596485997477 -25.189081054107533" fill="#caff1d" stroke="none" /><line stroke="#e1ed5e" stroke-width="0.3" x1="102.19456741930631" x2="102.32365962044197" y1="184.97166512339345" y2="189.96999836594603" /><path d="M 102.22038585953345 185.97133177190398 a86.0,86.0 0 0,1 -42.740103519485714,-10.115201625700543" fill="none" id="id79" stroke="none" /><text fill="#e1ed5e" style="font-size:6.75px; font-family:Arial;" text-anchor="middle"><textPath startOffset="22.20632615414155" xlink:href="#id79">July</textPath></text><path d="M 99.81925306533755 120.99922214144158 l -0.32543844574153813 37.80951653899255 a58.81091708877633,58.81091708877633 0 0,0 -1.0122207671554242,-0.01742629846754134 l 0.9762189027896303 -37.798312763245846" fill="#41ff2d" stroke="none" /><path d="M 99.09653310690486 120.98055641714683 l -1.084593820209918 25.186735682861148 a46.21007731271661,46.21007731271661 0 0,0 -0.7943994890202779,-0.041061379628042 l 1.5179813776436848 -25.164334496470904" fill="#caff1d" stroke="none" /><path d="M 98.37488393609728 120.93702456842531 l -1.9502692513084736 25.1261039975384 a46.20167955211943,46.20167955211943 0 0,0 -0.792371305741916,-0.06836913038398565 l 2.382484874791931 -25.08881061487575" fill="#caff1d" stroke="none" /><path d="M 97.65516085044442 120.86867818915974 l -2.8196206302507214 25.09415435142762 a46.252066115702476,46.252066115702476 0 0,0 -0.7904094360066507,-0.09570757516276528 l 3.2511574893087616 -25.041901247539506" fill="#caff1d" stroke="none" /><path d="M 96.22490169976321 120.6578951692458 l -3.7763563308620407 20.66477929853441 a42.006998133830976,42.006998133830976 0 0,0 -0.7101830834350651,-0.136108278190311 l 4.131507028868801 -20.59671382199563" fill="#fdff18" stroke="none" /><path d="M 95.86986931433489 120.58985236759428 l -4.95896456293367 24.7218202080919 a46.214276193015195,46.214276193015195 0 0,0 -0.7786193105213995,-0.1631672468935175 l 5.383775334884456 -24.632796980471838" fill="#caff1d" stroke="none" /><path d="M 94.46302465271185 120.25689768951611 l -4.615499244770254 16.885698440601036 a38.50513196480938,38.50513196480938 0 0,0 -0.6378445370750444,-0.18026123743428007 l 4.905474949949912 -16.803748409828238" fill="#ffd513" stroke="none" /><path d="M 93.76903079525671 120.05430185196036 l -7.750505083186087 24.944910388105587 a47.121234337509996,47.121234337509996 0 0,0 -0.7725159607320254,-0.2473352153764102 l 8.178742389009052 -24.807802326069467" fill="#c0ff1e" stroke="none" /><path d="M 93.42475214034765 119.94407469862007 l -6.581383121584845 19.962684205803534 a42.01959477472674,42.01959477472674 0 0,0 -0.6849799571953218,-0.23238239185180953 l 6.924032811717393 -19.8464388270536" fill="#fdff18" stroke="none" /><path d="M 92.40401165467489 119.57807347666478 l -12.539152181885662 32.31869660557407 a55.66595574513463,55.66595574513463 0 0,0 -0.8903343484179699,-0.35428241164235674 l 13.09360760634549 -32.09806734952564" fill="#61ff29" stroke="none" /><path d="M 91.7346041902142 119.30500536409082 l -9.105211586379934 21.266514340200953 a44.133731005065314,44.133731005065314 0 0,0 -0.6957983755235077,-0.30501756020012566 l 9.469930636561184 -21.106632226706378" fill="#e3ff1b" stroke="none" /><path d="M 91.40352486487194 119.15986991738527 l -9.459617616537706 21.083646512329352 a44.1085377232738,44.1085377232738 0 0,0 -0.6900507762855013,-0.31676846653937707 l 9.821136388590626 -20.9176909754559" fill="#e3ff1b" stroke="none" /><path d="M 90.7491055286396 118.85261126421891 l -11.098113868600842 22.617102289785414 a46.19328179152226,46.19328179152226 0 0,0 -0.7108180239161672,-0.3564189135316844 l 11.48578580019977 -22.42271553534443" fill="#caff1d" stroke="none" /><path d="M 90.10565033884886 118.52300852407294 l -5.315805959646714 9.951611017898687 a32.282391362303386,32.282391362303386 0 0,0 -0.487890218891616,-0.2660366480379233 l 5.4863189904069705 -9.858633718100997" fill="#ff830c" stroke="none" /><line stroke="#e1ed5e" stroke-width="0.3" x1="58.666819895761336" x2="56.23545636021788" y1="174.27360380694188" y2="178.64263932499728" /><path d="M 58.180547188652646 175.14741091055294 a86.0,86.0 0 0,1 -31.652253787137756,-30.449443065178592" fill="none" id="id80" stroke="none" /><text fill="#e1ed5e" style="font-size:6.75px; font-family:Arial;" text-anchor="middle"><textPath startOffset="22.20632615414155" xlink:href="#id80">August</textPath></text><path d="M 89.4739219176387 118.17145234162733 l -11.57875604574326 19.988718686509483 a44.10013996267662,44.10013996267662 0 0,0 -0.6535895451681034,-0.3861522237324976 l 11.921113461939745 -19.786447890483235" fill="#e3ff1b" stroke="none" /><path d="M 88.8546689885994 117.79835938074946 l -13.38085978231569 21.36835155326115 a46.2121767528659,46.2121767528659 0 0,0 -0.6705567249343978,-0.42798102814649724 l 13.746698309297011 -21.13485609629085" fill="#caff1d" stroke="none" /><path d="M 87.95078237400918 117.19931262002967 l -16.872839704804058 24.084654612312285 a50.406858171154354,50.406858171154354 0 0,0 -0.7063505166079886,-0.5039623388304029 l 17.284917549260935 -23.790648011637664" fill="#9aff23" stroke="none" /><path d="M 87.36589467227662 116.77436683061367 l -13.907704655114838 18.46533122886101 a44.11693548387097,44.11693548387097 0 0,0 -0.6026610179632799,-0.46209476979008834 l 14.223494401571605 -18.223197117243554" fill="#e3ff1b" stroke="none" /><path d="M 87.07902340077011 116.55440617244103 l -15.511372334399402 19.873231403492923 a46.21007731271661,46.21007731271661 0 0,0 -0.6228293402055255,-0.49481329613480446 l 15.851159167322285 -19.60328419335299" fill="#caff1d" stroke="none" /><path d="M 86.51685102203217 116.09983520530335 l -16.981542671064926 20.27716514760179 a47.448747000799784,47.448747000799784 0 0,0 -0.6216565901467078,-0.5297892326747348 l 17.32806473778869 -19.981851524704105" fill="#bcff1f" stroke="none" /><path d="M 85.70375840098266 115.38237550388516 l -23.339538654220853 25.11272247185197 a55.28385763796321,55.28385763796321 0 0,0 -0.691480397053927,-0.6538378754447134 l 23.768354885665595 -24.70724995966133" fill="#65ff29" stroke="none" /><path d="M 85.18274418774928 114.88116024355367 l -19.494310166210965 19.57838597758926 a48.628632364702746,48.628632364702746 0 0,0 -0.5880808133211511,-0.5957227590732996 l 19.82843160458765 -19.239922724535294" fill="#aeff20" stroke="none" /><path d="M 84.67929136418377 114.36230785411682 l -18.390670680176505 17.24022564693222 a46.20797787256731,46.20797787256731 0 0,0 -0.5389909599590113,-0.5849682350280607 l 18.684708048131245 -16.921106157102816" fill="#caff1d" stroke="none" /><path d="M 84.19399662182784 113.82643327865904 l -24.676074588796645 21.58560204740797 a53.784857371367636,53.784857371367636 0 0,0 -0.6035621195823856,-0.7020791011344117 l 25.043979217949808 -21.15764584711203" fill="#75ff27" stroke="none" /><path d="M 83.50135304334701 112.99209946851258 l -19.793098188466665 15.586362998748768 a46.19328179152226,46.19328179152226 0 0,0 -0.4865542391718788,-0.6289369423011336 l 20.05845924485661 -15.243348062334382" fill="#caff1d" stroke="none" /><path d="M 83.28015986056508 112.70617746262583 l -20.0885469337239 15.266213084427886 a46.23107171420955,46.23107171420955 0 0,0 -0.476045161276636,-0.6377402877184783 l 20.348353361695622 -14.9181599172001" fill="#caff1d" stroke="none" /><path d="M 82.85270091963577 112.12312394758628 l -15.771309471409383 11.150300618281173 a40.3148493735004,40.3148493735004 0 0,0 -0.39573649894040897,-0.570087942146447 l 15.960906877511926 -10.877171413947714" fill="#ffec16" stroke="none" /><path d="M 82.6465618267979 111.8261652097733 l -31.22786128208855 21.281422331636833 a58.78992268728339,58.78992268728339 0 0,0 -0.5626948520612958,-0.8411524563915423 l 31.58955923956058 -20.740732961039466" fill="#41ff2d" stroke="none" /><path d="M 82.24976979558568 111.22182372390057 l -21.299921335335753 13.465964092039972 a46.19958011197014,46.19958011197014 0 0,0 -0.41917398303920805,-0.6758419285610289 l 21.52855995804292 -13.097325832113679" fill="#caff1d" stroke="none" /><line stroke="#e1ed5e" stroke-width="0.3" x1="26.63291911575756" x2="22.317208475507996" y1="142.92168965132927" y2="145.44649492493687" /><path d="M 25.769776987707644 143.4266507060508 a86.0,86.0 0 0,1 -11.730757126820373,-40.83630448921669" fill="none" id="id81" stroke="none" /><text fill="#e1ed5e" style="font-size:6.75px; font-family:Arial;" text-anchor="middle"><textPath startOffset="21.46611528233685" xlink:href="#id81">September</textPath></text><path d="M 81.87401531095188 110.60418214915194 l -19.951388772302714 11.672091988352726 a44.114836043721674,44.114836043721674 0 0,0 -0.3778078667870716,-0.6587398612631313 l 20.149348635242163 -11.326932281231286" fill="#e3ff1b" stroke="none" /><path d="M 81.69416730710424 110.29060199501025 l -22.162453403522484 12.458596723497807 a46.42422020794454,46.42422020794454 0 0,0 -0.385594246527769,-0.6999655608679435 l 22.37362405950177 -12.075260644232042" fill="#c8ff1d" stroke="none" /><path d="M 81.35079622478065 109.6543875284942 l -33.44029447937227 17.311493072954402 a58.65555851772861,58.65555851772861 0 0,0 -0.45645568559031824,-0.9006303716318234 l 33.73332883474885 -16.733308489619894" fill="#42ff2d" stroke="none" /><path d="M 81.02952815118164 109.00673069616217 l -23.524700027933523 11.16897036342264 a47.041455611836845,47.041455611836845 0 0,0 -0.3409954097582928,-0.7344737762435765 l 23.71347005453164 -10.762376519900235" fill="#c1ff1e" stroke="none" /><path d="M 80.87730276802145 108.67885076344099 l -21.89538637008633 9.93723784927583 a45.044888029858704,45.044888029858704 0 0,0 -0.31436809181224035,-0.7088170562841458 l 22.063195546629853 -9.558872456498987" fill="#d8ff1c" stroke="none" /><path d="M 80.58989483394504 108.01547362559985 l -23.289797607603795 9.617606750311522 a46.19748067182085,46.19748067182085 0 0,0 -0.29719804126942156,-0.7376211653967291 l 23.451898263130605 -9.215286217071986" fill="#caff1d" stroke="none" /><path d="M 80.32549172779594 107.34259656027581 l -35.42040905417062 13.219022812994549 a58.80671820847774,58.80671820847774 0 0,0 -0.3457715708880626,-0.9514148601033713 l 35.64270488606391 -12.60736015588506" fill="#41ff2d" stroke="none" /><path d="M 80.0844068197444 106.66101706037122 l -20.98344806652031 7.018174366760765 a43.12599973340443,43.12599973340443 0 0,0 -0.2294051596615448,-0.7060364832334 l 21.101145477198106 -6.655938983549562" fill="#efff19" stroke="none" /><path d="M 79.97269907076064 106.31721596034903 l -46.440940254636125 14.648876053082086 a69.69651426286325,69.69651426286325 0 0,0 -0.35104882184074115,-1.1472478613244437 l 46.686215848983 -13.847301219205594" fill="#3bff9b" stroke="none" /><path d="M 79.76711848015287 105.62410040840567 l -16.88388383559357 4.693185094870916 a38.52402692615303,38.52402692615303 0 0,0 -0.17209586061922266,-0.6404327185956997 l 16.962167772554565 -4.401861443099677" fill="#ffd513" stroke="none" /><path d="M 79.58551787078972 104.9243191809786 l -23.701017825231848 5.717087308254917 a45.38079845374567,45.38079845374567 0 0,0 -0.1766381325347004,-0.7609524519100576 l 23.7959165236971 -5.308266198996285" fill="#d4ff1c" stroke="none" /><path d="M 79.4281124754447 104.21870165774334 l -25.944517574206706 5.32047334835033 a47.48443748333777,47.48443748333777 0 0,0 -0.15730930944421834,-0.8021167797673306 l 26.032256816626592 -4.873092841515045" fill="#bbff1f" stroke="none" /><path d="M 79.29508885075956 103.50808413554451 l -23.810509825684424 4.034273374883546 a45.14986003732338,45.14986003732338 0 0,0 -0.12323384610345921,-0.7673772773221451 l 23.876425426149172 -3.6238168678681877" fill="#d7ff1c" stroke="none" /><path d="M 79.23777060512086 103.15116336523772 l -29.080128681244016 4.413602913921004 a50.41315649160224,50.41315649160224 0 0,0 -0.12283033300673954,-0.8590750629657392 l 29.151793065267352 -3.9123823789748644" fill="#9aff23" stroke="none" /><path d="M 79.10278846688536 102.07522291339032 l -27.159132557700318 2.697070568589118 a48.29272194081578,48.29272194081578 0 0,0 -0.0750271214380027,-0.8279180331591757 l 27.201534275415398 -2.2291711468813764" fill="#b2ff20" stroke="none" /><path d="M 79.07016306316243 101.71520430193888 l -25.63849226743576 2.1010795432875002 a46.72444014929352,46.72444014929352 0 0,0 -0.0587914525346015,-0.8021626598080772 l 25.670860278634695 -1.6594437469826624" fill="#c4ff1e" stroke="none" /><path d="M 79.0235259727143 100.99374915477108 l -27.360709474206537 1.2961988691980404 a48.39139562783258,48.39139562783258 0 0,0 -0.032256015578256185,-0.8323844356914535 l 27.378967622635994 -0.8250371864925902" fill="#b1ff20" stroke="none" /><line stroke="#e1ed5e" stroke-width="0.3" x1="15.007084014347285" x2="10.007500721073583" y1="101.09737516637583" y2="101.16192664675087" /><path d="M 14.007167355692545 101.11028546245083 a86.0,86.0 0 0,1 10.666146001902534,-42.60595125391555" fill="none" id="id82" stroke="none" /><text fill="#e1ed5e" style="font-size:6.75px; font-family:Arial;" text-anchor="middle"><textPath startOffset="22.20632615414155" xlink:href="#id82">October</textPath></text><path d="M 79.00019446554 99.90962569577889 l -52.49181596022093 -0.22590263214216239 a73.49230205278593,73.49230205278593 0 0,0 0.016332764313478604,-1.2649905954166696 l 52.48015018878974 1.129429485619304" fill="#40ffc4" stroke="none" /><path d="M 79.01574976396665 99.18683210126434 l -27.29532922764229 -1.0577306915272187 a48.31581578245801,48.31581578245801 0 0,0 0.03935758444251563,-0.8307764025473483 l 27.273078034966275 1.527418200697576" fill="#b2ff20" stroke="none" /><path d="M 79.03285615573316 98.82574320788736 l -20.607303832276802 -1.1541040912349452 a41.63959610770461,41.63959610770461 0 0,0 0.046238608192695665,-0.715290803048572 l 20.584384633079694 1.5086539585365288" fill="#fffd17" stroke="none" /><path d="M 79.08570108090925 98.10471618934814 l -24.028304769880474 -2.177479494002711 a45.12676619568116,45.12676619568116 0 0,0 0.07676465700836999,-0.7730096200365075 l 23.987262987189876 2.5907646447436488" fill="#d7ff1c" stroke="none" /><path d="M 79.16333360222342 97.38593545837743 l -56.25233331833765 -7.057137984734971 a77.69328179152225,77.69328179152225 0 0,0 0.17789542070778738,-1.3255275147954382 l 56.122521898572025 8.024383841595068" fill="#45ffef" stroke="none" /><path d="M 79.26566170972629 96.67025291283419 l -16.782045067787525 -2.6950445632192492 a37.997067448680355,37.997067448680355 0 0,0 0.10926534147220644,-0.6448902305253201 l 16.733167864795096 2.983520582060397" fill="#ffcf13" stroke="none" /><path d="M 79.3925641242962 95.95851677861259 l -20.60194202449727 -4.040405779846118 a41.99440149293522,41.99440149293522 0 0,0 0.14522204781168374,-0.7081542796903008 l 20.52934068077059 4.394435715699822" fill="#fdff18" stroke="none" /><path d="M 79.46518482838121 95.60439243477599 l -25.556976213491303 -5.470633022474707 a47.13593041855505,47.13593041855505 0 0,0 0.17666010942007992,-0.7919326309638262 l 25.459021717069188 5.909743822988492" fill="#bfff1e" stroke="none" /><path d="M 79.62865764111835 94.90015583598534 l -50.9290347609191 -12.749780359522237 a73.50069981338311,73.50069981338311 0 0,0 0.31781586443593346,-1.2246741709220337 l 50.70202256461286 13.624550955993135" fill="#40ffc4" stroke="none" /><path d="M 79.81627453868168 94.20196356495316 l -24.216031317776704 -6.956368494101293 a46.195381231671554,46.195381231671554 0 0,0 0.2261244176805889,-0.7623791239494201 l 24.09270100298441 7.372177004797251" fill="#caff1d" stroke="none" /><path d="M 79.91906864156998 93.8553929516997 l -24.510273022701167 -7.499950758400939 a46.63206478272461,46.63206478272461 0 0,0 0.24147530122319838,-0.7655426939541413 l 24.377542237709765 7.920743618781494" fill="#c5ff1e" stroke="none" /><path d="M 80.14247586403 93.16781622104843 l -27.81297452128829 -9.569337650937564 a50.41315649160224,50.41315649160224 0 0,0 0.2893881286531238,-0.8181392091268925 l 27.644133311825357 10.046674486491069" fill="#9aff23" stroke="none" /><path d="M 80.38941819471856 92.48833698450439 l -33.3643909453092 -12.779940135734245 a56.728272460677154,56.728272460677154 0 0,0 0.3571354058747786,-0.9088706533304328 l 33.13946198955273 13.352359793960442" fill="#56ff2b" stroke="none" /><path d="M 80.65960295795068 91.81776055985345 l -20.856924442740542 -8.823828663109246 a43.64666089042922,43.64666089042922 0 0,0 0.2986871740143243,-0.6894111787282854 l 20.701946558883538 9.18153898642413" fill="#e9ff1a" stroke="none" /><path d="M 80.95270993114464 91.15688171328213 l -24.772013780232545 -11.500945660348522 a48.31161690215943,48.31161690215943 0 0,0 0.3566819210921982,-0.7512630910509152 l 24.570373665298597 11.92565116703997" fill="#b2ff20" stroke="none" /><path d="M 81.26839172434947 90.50648371742162 l -29.9831824948121 -15.19601664892986 a54.61413623033857,54.61413623033857 0 0,0 0.43220734559955815,-0.834887022863275 l 29.717165716052428 15.70987639405347" fill="#6cff28" stroke="none" /><path d="M 81.6062741919709 89.86733742301443 l -18.39433876876651 -10.133000242360701 a42.00069981338309,42.00069981338309 0 0,0 0.35429062058624994,-0.6302434812131442 l 18.217190506887828 10.44812723350863" fill="#fdff18" stroke="none" /><line stroke="#e1ed5e" stroke-width="0.3" x1="26.266209847984243" x2="21.928928074336255" y1="57.711370442889674" y2="55.22380399835377" /><path d="M 25.398753493254645 57.213857153982495 a86.0,86.0 0 0,1 29.58750427330803,-30.492523968695096" fill="none" id="id83" stroke="none" /><text fill="#e1ed5e" style="font-size:6.75px; font-family:Arial;" text-anchor="middle"><textPath startOffset="21.46611528233685" xlink:href="#id83">November</textPath></text><path d="M 82.34701348167596 88.62581576622439 l -21.181466028351625 -13.647656542299533 a46.19748067182085,46.19748067182085 0 0,0 0.43646360015603347,-0.6647640070840539 l 20.943405792837673 14.010238613361254" fill="#caff1d" stroke="none" /><path d="M 82.54541684631803 88.32363383020206 l -3.1479673429661035 -2.1058548957260217 a24.787390029325515,24.787390029325515 0 0,0 0.24029076999510854,-0.35259705464415736 l 3.1112521073022545 2.159729973640595" fill="#ff1902" stroke="none" /><path d="M 82.7489923806493 88.02491185347247 l -34.496266435842394 -23.946185661174702 a62.993001866169024,62.993001866169024 0 0,0 0.625992596673344,-0.885422134068735 l 34.07896121936517 24.536434295575223" fill="#32ff4d" stroke="none" /><path d="M 83.17141714833178 87.43820079747576 l -21.504560051655208 -16.052211151026203 a47.835043988269796,47.835043988269796 0 0,0 0.4982226200320336,-0.6556025669630868 l 21.225061491399064 16.419998493870317" fill="#b7ff1f" stroke="none" /><path d="M 83.39014120810768 87.1503855733568 l -20.099213291495403 -15.549026894836981 a46.411623567048785,46.411623567048785 0 0,0 0.49427477256091173,-0.6276787667633257 l 19.82858443834052 15.892698055553355" fill="#c8ff1d" stroke="none" /><path d="M 83.84228863543731 86.58626213691792 l -17.768744169240495 -14.751178001923106 a44.09384164222874,44.09384164222874 0 0,0 0.48983929836721135,-0.5798152259986892 l 17.51219425738616 15.054852177550911" fill="#e3ff1b" stroke="none" /><path d="M 84.31358615837235 86.03803664274999 l -29.796240634923237 -26.52065820325417 a60.889362836576915,60.889362836576915 0 0,0 0.7035805291015449,-0.776911193190165 l 29.335316465205647 27.02962218371389" fill="#30ff33" stroke="none" /><path d="M 84.80347519578584 85.50635884689758 l -15.224377672257074 -14.520205744658686 a42.03848973607038,42.03848973607038 0 0,0 0.5039328650723133,-0.5193471144064423 l 14.972180543481642 14.780117054615252" fill="#fdff18" stroke="none" /><path d="M 85.05521093208273 85.24692304244772 l -15.60865883023178 -15.408430582732812 a42.93285123966942,42.93285123966942 0 0,0 0.523707594492652,-0.5214586276481751 l 15.341115435571815 15.674825061031097" fill="#f2ff19" stroke="none" /><path d="M 85.57189188830299 84.74124197986013 l -7.222227804112268 -7.638023334461509 a31.511896827512665,31.511896827512665 0 0,0 0.3973381831712018,-0.36928253777808245 l 7.0896817371462095 7.761210458314239" fill="#ff780b" stroke="none" /><path d="M 86.10567301691215 84.25364557470407 l -29.41617193956791 -33.337164855820994 a65.45984404158891,65.45984404158891 0 0,0 0.8513090165415707,-0.7382467902064949 l 28.837969124379565 33.83857663944717" fill="#36ff6a" stroke="none" /><path d="M 86.65592168130627 83.78471172551755 l -13.340520846468005 -16.21096535038901 a41.99440149293522,41.99440149293522 0 0,0 0.5621182637610456,-0.4545272099231481 l 13.059499184142458 16.438198657576294" fill="#fdff18" stroke="none" /><path d="M 87.22198572758235 83.33499621200491 l -14.117218980720557 -18.41158592986541 a44.20091308984271,44.20091308984271 0 0,0 0.6077706505753909,-0.45776025360639605 l 13.798202176386777 18.651862772977662" fill="#e2ff1b" stroke="none" /><path d="M 87.51073957382395 83.11751280151077 l -8.059668360200583 -10.89474022256545 a34.55188616368968,34.55188616368968 0 0,0 0.4811838541610482,-0.34960053383753187 l 7.8709391896857515 11.03185999121965" fill="#ffa10e" stroke="none" /><path d="M 88.09926311788651 82.69761687909137 l -35.70221064634046 -51.907149362725875 a84.0,84.0 0 0,0 1.198381222373842,-0.8091523508053382 l 34.80342472956008 52.51401362582988" fill="#4dd2ff" stroke="none" /><path d="M 89.00827224532344 82.1063720568725 l -13.375564205870738 -21.774317447722062 a46.55438549720075,46.55438549720075 0 0,0 0.6864287492314418,-0.4135656409082516 l 12.998773390421647 22.001329698088934" fill="#c6ff1e" stroke="none" /><line stroke="#e1ed5e" stroke-width="0.3" x1="56.762969772571076" x2="54.21961505331055" y1="26.818313649435495" y2="22.513508569990535" /><path d="M 56.25429882871897 25.957352633546506 a86.0,86.0 0 0,1 42.265352541879196,-11.944610805530505" fill="none" id="id84" stroke="none" /><text fill="#e1ed5e" style="font-size:6.75px; font-family:Arial;" text-anchor="middle"><textPath startOffset="22.20632615414155" xlink:href="#id84">December</textPath></text><path d="M 89.3179101791058 81.91981866633112 l -12.817226276030283 -21.69404855705417 a46.19748067182085,46.19748067182085 0 0,0 0.6881296621912275,-0.39860911603750415 l 12.441899881373736 21.911461830481723" fill="#caff1d" stroke="none" /><path d="M 89.94658935756843 81.56283822128135 l -2.164927338422847 -3.97030589889629 a25.522194081578245,25.522194081578245 0 0,0 0.38751800030367584,-0.2069986951639962 l 2.0962642915908662 4.0069833205620355" fill="#ff2303" stroke="none" /><path d="M 90.26544431104013 81.39251694778311 l -9.32711094271442 -17.828657448591713 a41.12103439082911,41.12103439082911 0 0,0 0.6300124549881445,-0.32271684926143673 l 9.018838000137512 17.986566823165653" fill="#fff617" stroke="none" /><path d="M 90.91171255644093 81.06846463323043 l -6.012116570317615 -12.52365731024202 a34.89199546787523,34.89199546787523 0 0,0 0.5436867223011471,-0.2552682061634185 l 5.79565163671686 12.625290499045446" fill="#ffa60f" stroke="none" /><path d="M 91.23893434514133 80.91482961587045 l -11.049137886834393 -24.06952389987279 a47.48443748333777,47.48443748333777 0 0,0 0.7457722179310169,-0.33460625544727945 l 10.633183550436602 24.256150485836603" fill="#bbff1f" stroke="none" /><path d="M 91.90106846888425 80.62456947434976 l -6.479846945166561 -15.502023176830727 a37.80181951479605,37.80181951479605 0 0,0 0.6025180357386181,-0.24578223510469616 l 6.212045039839563 15.611266298119" fill="#ffcc13" stroke="none" /><path d="M 92.57280143429618 80.3572730644239 l -8.172938011133887 -21.614985541844135 a44.1085377232738,44.1085377232738 0 0,0 0.7124950276219916,-0.262417931666066 l 7.7996606577393255 21.752466741316525" fill="#e3ff1b" stroke="none" /><path d="M 93.59665428221793 80.00007090966166 l -7.689008139457531 -24.015510694220257 a46.21637563316449,46.21637563316449 0 0,0 0.7597413756601827,-0.23605534364913192 l 7.27448139108662 24.144306172751914" fill="#caff1d" stroke="none" /><path d="M 93.94186890950719 79.89281104454417 l -7.27448139108662 -24.144306172751914 a46.21637563316449,46.21637563316449 0 0,0 0.7636921164798565,-0.22294267061717576 l 6.857799056883342 24.265947172287788" fill="#caff1d" stroke="none" /><path d="M 97.11714578562143 79.19881850522333 l -1.4442131233255473 -10.42069319551379 a31.520294588109838,31.520294588109838 0 0,0 0.5380743506157551,-0.06985749354719138 l 1.2646240442019345 10.444009012225118" fill="#ff780b" stroke="none" /><path d="M 97.47563105711357 79.15227682838746 l -2.7778321401977037 -22.940971302646556 a44.1085377232738,44.1085377232738 0 0,0 0.7545359718903621,-0.08478090804790882 l 2.382529464797624 22.985388164165062" fill="#e3ff1b" stroke="none" /><path d="M 98.19473922651362 79.07773832637324 l -2.2101329744182436 -25.614571093231806 a46.70974406824847,46.70974406824847 0 0,0 0.8016500006938697,-0.06222346874063259 l 1.7688927843620397 25.6488198241609" fill="#c4ff1e" stroke="none" /><path d="M 98.91598698831166 79.02799685794201 l -1.1927466548895476 -23.075633155974106 a44.106438283124504,44.106438283124504 0 0,0 0.7585449779335665,-0.0326645423915705 l 0.795360844566657 23.092745424889866" fill="#e3ff1b" stroke="none" /><path d="M 99.63851952072746 79.00311137660856 l -0.5422929957308467 -31.499531193276326 a52.50419888029859,52.50419888029859 0 0,0 0.9037734750033747,-0.007779063630823037 l 7.716303263691859e-15 31.50419888029859" fill="#83ff25" stroke="none" /></svg>