<?xml version="1.0" encoding="utf-8" ?>
<svg baseProfile="full" height="200mm" version="1.1" viewBox="0,0,200,200" width="200mm" xmlns="http://www.w3.org/2000/svg" xmlns:ev="http://www.w3.org/2001/xml-events" xmlns:xlink="http://www.w3.org/1999/xlink"><defs /><rect fill="#1a1a1a" height="200" width="200" x="0" y="0" /><text alignment-baseline="middle" fill="#e1ed5e" style="dominant-baseline: central; font-size:9.0px; font-family:Arial;" text-anchor="middle" x="100.0" y="100.0">2018</text><line stroke="#e1ed5e" stroke-width="0.3" x1="100.0" x2="100.0" y1="15.0" y2="10.0" /><path d="M 100.0 14.0 a86.0,86.0 0 0,1 42.46469731375804,11.215312516191453" fill="none" id="id25" stroke="none" /><text fill="#e1ed5e" style="font-size:6.75px; font-family:Arial;" text-anchor="middle"><textPath startOffset="22.20632615414155" xlink:href="#id25">January</textPath></text><path d="M 101.80526077348638 79.07773832637324 l 1.536359793468259 -17.80580517556162 a38.87196406008704,38.87196406008704 0 0,0 0.6661449107560199,0.06325848597043032 l -1.842629831314523 17.77672114507601" fill="#ffe015" stroke="none" /><path d="M 103.59715602781102 79.31037775812273 l 2.245255608542444 -12.913949247141138 a34.10767934858907,34.10767934858907 0 0,0 0.5775646278198145,0.105546244033877 l -2.4672153574651596 12.873387521756523" fill="#ffa20f" stroke="none" /><path d="M 105.71112130821622 79.79150937346287 l 2.575737358226112 -9.114105873613719 a30.471079601291592,30.471079601291592 0 0,0 0.5035125094369675,0.14698910872676402 l -2.7322400853865068 9.06841843596825" fill="#ff720a" stroke="none" /><path d="M 107.76421540070413 80.48803036053334 l 1.6377556703015541 -4.115784695114232 a25.42966446721887,25.42966446721887 0 0,0 0.40531994705396096,0.1653401833810946 l -1.7083594869439025 4.086983625549558" fill="#ff2b04" stroke="none" /><line stroke="#e1ed5e" stroke-width="0.3" x1="143.23703022742887" x2="145.7803849466894" y1="26.81831364943548" y2="22.513508569990506" /><path d="M 143.74570117128098 25.957352633546492 a86.0,86.0 0 0,1 28.547481713284135,27.462654790039103" fill="none" id="id26" stroke="none" /><text fill="#e1ed5e" style="font-size:6.75px; font-family:Arial;" text-anchor="middle"><textPath startOffset="19.985693538727396" xlink:href="#id26">February</textPath></text><path d="M 110.99172775467656 82.1063720568725 l 3.028396141871788 -4.929979620719882 a26.78583462024428,26.78583462024428 0 0,0 0.3907936531127057,0.24471494972769767 l -3.112808947356757 4.87712032966924" fill="#ff3e05" stroke="none" /><path d="M 111.90073688211348 82.69761687909136 l 4.533574270618406 -6.591326210667639 a28.999929804857505,28.999929804857505 0 0,0 0.4088560080703942,0.2864297619194929 l -4.646361418272451 6.512311605984211" fill="#ff5d08" stroke="none" /><path d="M 112.19680574252982 82.90503203632743 l 6.326140504812076 -8.866679649275351 a31.892110065983434,31.892110065983434 0 0,0 0.4441427123884446,0.3226885690538565 l -6.47782853355431 8.75647184540482" fill="#ff850c" stroke="none" /><path d="M 112.77801427241765 83.33499621200491 l 3.1850855455113765 -4.153968022685006 a26.2345219710796,26.2345219710796 0 0,0 0.35599927108154,0.2778630778460116 l -3.256117371752347 4.09852655561577" fill="#ff3605" stroke="none" /><path d="M 113.34407831869373 83.78471172551755 l 4.686257463738924 -5.694587058629489 a28.37491225607188,28.37491225607188 0 0,0 0.3744710986293661,0.31360877588981967 l -4.783586099327408 5.61307712534585" fill="#ff5507" stroke="none" /><path d="M 114.42810811169701 84.74124197986012 l 1.0168342372696755 -1.0753750563119782 a22.4799943843886,22.4799943843886 0 0,0 0.2788769152681891,0.2682793715341075 l -1.035194396150283 1.0577125980155686" fill="#ff0000" stroke="none" /><path d="M 116.60985879189232 87.15038557335679 l 6.037192813731465 -4.6704551102876986 a28.632879404745193,28.632879404745193 0 0,0 0.2982237917371065,0.39242755252609884 l -6.116692545692685 4.5658427818805665" fill="#ff5808" stroke="none" /><path d="M 117.04232023915458 87.72973835380427 l 7.914642054067578 -5.698445251385021 a30.752632317843606,30.752632317843606 0 0,0 0.30560410821643935,0.43225533834607127 l -8.011558782087901 5.5613634127071565" fill="#ff750a" stroke="none" /><path d="M 117.45458315368197 88.32363383020206 l 8.273957604718118 -5.534922135662325 a30.954583742805,30.954583742805 0 0,0 0.29245207455558997,0.4454245735317159 l -8.368006314631634 5.391679498152935" fill="#ff780b" stroke="none" /><path d="M 117.65298651832404 88.62581576622439 l 4.458475747081981 -2.8726881140758564 a26.30380457672329,26.30380457672329 0 0,0 0.24196043609344145,0.38272330297541096 l -4.507263779421378 2.795517163386239" fill="#ff3705" stroke="none" /><line stroke="#e1ed5e" stroke-width="0.3" x1="172.23445277983987" x2="176.4835382374775" y1="55.19839476539836" y2="52.563006222186495" /><path d="M 173.08426987136738 54.67131705675599 a86.0,86.0 0 0,1 12.851231095245387,41.99856678651699" fill="none" id="id27" stroke="none" /><text fill="#e1ed5e" style="font-size:6.75px; font-family:Arial;" text-anchor="middle"><textPath startOffset="22.20632615414155" xlink:href="#id27">March</textPath></text><path d="M 118.73160827565052 90.50648371742162 l 8.54006708903202 -4.328259739951331 a30.574266460760917,30.574266460760917 0 0,0 0.23387856039122296,0.4714849062855034 l -8.61330566237665 4.180615245166878" fill="#ff730a" stroke="none" /><path d="M 118.89224826269711 90.83032412892265 l 5.975605129279319 -2.9003621700880595 a27.642285553839674,27.642285553839674 0 0,0 0.2040814227909159,0.42984752364934625 l -6.024644745911991 2.797072230798173" fill="#ff4a06" stroke="none" /><path d="M 119.04729006885535 91.15688171328212 l 4.682269396401196 -2.173845306758811 a26.162291169451073,26.162291169451073 0 0,0 0.1861231277926799,0.410097640535664 l -4.718994841157223 2.092925657381084" fill="#ff3505" stroke="none" /><path d="M 119.196687751892 91.48605970444005 l 15.411520273647966 -6.835177253988424 a37.85925873929524,37.85925873929524 0 0,0 0.2590822475860193,0.5979975480543508 l -15.526893231076665 6.568880561347471" fill="#ffd313" stroke="none" /><path d="M 119.34039704204932 91.81776055985345 l 24.109652609136177 -10.199943157206409 a47.17850624736768,47.17850624736768 0 0,0 0.3099814622495614,0.7506446983463452 l -24.281655758271935 9.78342388840676" fill="#baff1f" stroke="none" /><path d="M 119.61058180528143 92.48833698450437 l 16.012234140041663 -6.133347198950246 a38.14670784781693,38.14670784781693 0 0,0 0.22959851598729056,0.6152098736455787 l -16.11543724453058 5.856814188275334" fill="#ffd714" stroke="none" /><path d="M 119.85752413597 93.16781622104841 l 16.930330489645627 -5.825052939712617 a38.90439421592026,38.90439421592026 0 0,0 0.21242300595082445,0.6351177500824294 l -17.02809078936822 5.532762086707874" fill="#ffe015" stroke="none" /><path d="M 119.97218684219823 93.5106431181261 l 8.997718317649039 -2.9235359025597827 a30.460760915344657,30.460760915344657 0 0,0 0.15773527189483275,0.5000639169566528 l -9.046709073312076 2.768221819176711" fill="#ff710a" stroke="none" /><path d="M 120.18372546131832 94.20196356495316 l 17.911179087602566 -5.145218069062349 a39.635546820160044,39.635546820160044 0 0,0 0.18272596609656247,0.6573625209652689 l -17.99709182426549 4.8361442446781275" fill="#ffe915" stroke="none" /><path d="M 120.37134235888165 94.90015583598534 l 2.3923386049704463 -0.5989077134912607 a23.46616594131686,23.46616594131686 0 0,0 0.09472196073620773,0.3926836794337999 l -2.4022933659674734 0.5576388023980547" fill="#ff0e01" stroke="none" /><path d="M 120.53481517161879 95.60439243477599 l 13.91570305115877 -2.978744590388367 a35.2309420188123,35.2309420188123 0 0,0 0.12183313404686046,0.594101629769371 l -13.964915481120629 2.738767304455584" fill="#ffb110" stroke="none" /><path d="M 120.6074358757038 95.95851677861258 l 6.451576864076861 -1.2652685081698682 a27.574477046188406,27.574477046188406 0 0,0 0.08733792282340111,0.4665626760483856 l -6.472400510810122 1.1540277546589197" fill="#ff4906" stroke="none" /><path d="M 120.87857604477298 97.74499172005257 l 8.588267276594815 -0.9275830773895788 a29.6382142355749,29.6382142355749 0 0,0 0.05041724772098205,0.5076948041314496 l -8.602961649998026 0.7796127425536942" fill="#ff6609" stroke="none" /><path d="M 120.91429891909075 98.10471618934814 l 9.088896855825558 -0.8236488889334336 a30.126140671065563,30.126140671065563 0 0,0 0.042356659706653504,0.5168585339059968 l -9.101727999351708 0.6670764378196681" fill="#ff6d0a" stroke="none" /><path d="M 120.94382443527127 98.46500227214037 l 6.124664649539526 -0.4488839347369951 a27.14109223641724,27.14109223641724 0 0,0 0.030138772878471262,0.4662334766933255 l -6.131484013422413 0.3433913937906344" fill="#ff4306" stroke="none" /><line stroke="#e1ed5e" stroke-width="0.3" x1="184.98032266829074" x2="189.97916517819016" y1="98.17113171792111" y2="98.06355123074" /><path d="M 185.9800911702706 98.14961562048488 a86.0,86.0 0 0,1 -9.607161424134198,41.387399972396054" fill="none" id="id28" stroke="none" /><text fill="#e1ed5e" style="font-size:6.75px; font-family:Arial;" text-anchor="middle"><textPath startOffset="21.466115282336823" xlink:href="#id28">April</textPath></text><path d="M 120.99980553446 99.90962569577887 l 10.88906103348701 -0.046861925121542025 a31.889161869998595,31.889161869998595 0 0,0 -0.002362383597934951,0.5489347506682359 l -10.888254352599573 -0.14058230375037858" fill="#ff850c" stroke="none" /><path d="M 120.9764740272857 100.99374915477107 l 6.350662114255457 0.30085919588148247 a27.35778464130282,27.35778464130282 0 0,0 -0.02633336472542073,0.4701999169262164 l -6.344542398642507 -0.41013082914312216" fill="#ff4606" stroke="none" /><path d="M 120.8583938346157 102.4346265915055 l 7.325182111089594 0.855007499459642 a28.37491225607188,28.37491225607188 0 0,0 -0.06080134413220697,0.48464653570980876 l -7.309379257710539 -0.9809717894568457" fill="#ff5507" stroke="none" /><path d="M 120.81339534386255 102.79330883721812 l 9.626524071368127 1.2919494544735473 a30.712831672048296,30.712831672048296 0 0,0 -0.0748310084984635,0.5233678991498085 l -9.602859011853063 -1.4574628256037652" fill="#ff750a" stroke="none" /><path d="M 120.76222939487914 103.15116336523771 l 8.67886256117544 1.31722433244353 a29.778253544854696,29.778253544854696 0 0,0 -0.08127796435122929,0.5061179616009804 l -8.654902842462924 -1.4664215237377154" fill="#ff6809" stroke="none" /><path d="M 120.70491114924044 103.5080841355445 l 13.519379721341751 2.290621832713389 a34.71205952548084,34.71205952548084 0 0,0 -0.1048858890774101,0.5882557670738576 l -13.477947389925152 -2.522996350520465" fill="#ffaa0f" stroke="none" /><path d="M 120.23288151984713 105.62410040840565 l 4.601610004513877 1.2791018758412422 a25.776077495437317,25.776077495437317 0 0,0 -0.12250677743995969,0.4264621636478225 l -4.578910590187818 -1.3581215149936468" fill="#ff3004" stroke="none" /><line stroke="#e1ed5e" stroke-width="0.3" x1="174.80103733775053" x2="179.2010983576182" y1="140.37084112569926" y2="142.7455964860345" /><path d="M 175.68104954172406 140.8457921977663 a86.0,86.0 0 0,1 -30.038265399797805,32.042727171017184" fill="none" id="id29" stroke="none" /><text fill="#e1ed5e" style="font-size:6.75px; font-family:Arial;" text-anchor="middle"><textPath startOffset="22.206326154141568" xlink:href="#id29">May</textPath></text><path d="M 113.75828350139079 115.86535959552629 l 3.697912924808742 4.264246938878994 a26.644321212972063,26.644321212972063 0 0,0 -0.3490844104218638,0.29749730778606176 l -3.623963037809831 -4.327268636888003" fill="#ff3c05" stroke="none" /><line stroke="#e1ed5e" stroke-width="0.3" x1="143.8653032363475" x2="146.44561519142675" y1="172.8068346515853" y2="177.08958963109032" /><path d="M 144.38136562736335 173.6633856474863 a86.0,86.0 0 0,1 -40.68145358897372,12.25698825130547" fill="none" id="id30" stroke="none" /><text fill="#e1ed5e" style="font-size:6.75px; font-family:Arial;" text-anchor="middle"><textPath startOffset="21.466115282336833" xlink:href="#id30">June</textPath></text><line stroke="#e1ed5e" stroke-width="0.3" x1="102.19456741930631" x2="102.32365962044197" y1="184.97166512339345" y2="189.96999836594603" /><path d="M 102.22038585953345 185.97133177190398 a86.0,86.0 0 0,1 -42.740103519485714,-10.115201625700543" fill="none" id="id31" stroke="none" /><text fill="#e1ed5e" style="font-size:6.75px; font-family:Arial;" text-anchor="middle"><textPath startOffset="22.20632615414155" xlink:href="#id31">July</textPath></text><line stroke="#e1ed5e" stroke-width="0.3" x1="58.666819895761336" x2="56.23545636021788" y1="174.27360380694188" y2="178.64263932499728" /><path d="M 58.180547188652646 175.14741091055294 a86.0,86.0 0 0,1 -31.652253787137756,-30.449443065178592" fill="none" id="id32" stroke="none" /><text fill="#e1ed5e" style="font-size:6.75px; font-family:Arial;" text-anchor="middle"><textPath startOffset="22.20632615414155" xlink:href="#id32">August</textPath></text><line stroke="#e1ed5e" stroke-width="0.3" x1="26.63291911575756" x2="22.317208475507996" y1="142.92168965132927" y2="145.44649492493687" /><path d="M 25.769776987707644 143.4266507060508 a86.0,86.0 0 0,1 -11.730757126820373,-40.83630448921669" fill="none" id="id33" stroke="none" /><text fill="#e1ed5e" style="font-size:6.75px; font-family:Arial;" text-anchor="middle"><textPath startOffset="21.46611528233685" xlink:href="#id33">September</textPath></text><path d="M 79.1416061653843 102.43462659150553 l -4.471538310467242 0.5219254254147055 a25.501895268847395,25.501895268847395 0 0,0 -0.047139280080850936,-0.4364511885015632 l 4.479859892049145 -0.4448779150283602" fill="#ff2c04" stroke="none" /><path d="M 79.10278846688536 102.07522291339032 l -5.26610904140682 0.5229573395389041 a26.29201179278394,26.29201179278394 0 0,0 -0.04084702378226058,-0.450743503709657 l 5.2743306614661565 -0.4322324472806809" fill="#ff3705" stroke="none" /><line stroke="#e1ed5e" stroke-width="0.3" x1="15.007084014347285" x2="10.007500721073583" y1="101.09737516637583" y2="101.16192664675087" /><path d="M 14.007167355692545 101.11028546245083 a86.0,86.0 0 0,1 10.666146001902534,-42.60595125391555" fill="none" id="id34" stroke="none" /><text fill="#e1ed5e" style="font-size:6.75px; font-family:Arial;" text-anchor="middle"><textPath startOffset="22.20632615414155" xlink:href="#id34">October</textPath></text><path d="M 79.01574976396665 99.18683210126434 l -9.222405638621707 -0.3573806130832465 a30.22932753053489,30.22932753053489 0 0,0 0.024624510455962378,-0.5197844964538785 l 9.214887519932246 0.5160762161601341" fill="#ff6e0a" stroke="none" /><path d="M 79.03285615573316 98.82574320788736 l -9.23549260303064 -0.5172301958800256 a30.24996490242875,30.24996490242875 0 0,0 0.03359101446008965,-0.5196381259626524 l 9.225220997566137 0.6761273860956897" fill="#ff6e0a" stroke="none" /><path d="M 79.08570108090925 98.10471618934814 l -8.824642061115721 -0.7997017398447492 a29.860803032430155,29.860803032430155 0 0,0 0.0507958911312013,-0.5115076915990703 l 8.809569044302291 0.9514849621482497" fill="#ff6909" stroke="none" /><path d="M 79.16333360222342 97.38593545837743 l -10.97120838479027 -1.3763932420827494 a32.05720904113436,32.05720904113436 0 0,0 0.07340185093986291,-0.5469290478113051 l 10.945890534792571 1.5650406319587138" fill="#ff870c" stroke="none" /><path d="M 79.21141760316559 97.0276538004421 l -10.241069160535162 -1.46426545195124 a31.345219710796012,31.345219710796012 0 0,0 0.08096635419813826,-0.5334671117573041 l 10.214346912897721 1.6403316761006361" fill="#ff7d0b" stroke="none" /><path d="M 79.26566170972629 96.67025291283419 l -11.717826588164652 -1.8817769057119147 a32.86796293696476,32.86796293696476 0 0,0 0.09451595701836214,-0.5578385285639466 l 11.683698769626067 2.0832012225916894" fill="#ff920d" stroke="none" /><path d="M 79.3925641242962 95.95851677861259 l -14.487117106217434 -2.841180293569768 a35.76309139407553,35.76309139407553 0 0,0 0.12367337510924588,-0.6030752987378698 l 14.436064435193193 3.0901312484710406" fill="#ffb811" stroke="none" /><path d="M 79.62865764111835 94.90015583598534 l -12.154738877614351 -3.042866446309459 a33.52983293556086,33.52983293556086 0 0,0 0.14498246772974793,-0.5586765902334371 l 12.100560078014295 3.2516394620917595" fill="#ff9b0e" stroke="none" /><path d="M 79.71946130924805 94.55025226153421 l -14.644524885003884 -3.935248840769167 a36.164046048013475,36.164046048013475 0 0,0 0.16672181368071537,-0.5997870695790455 l 14.574616300756807 4.186747213767155" fill="#ffbd11" stroke="none" /><path d="M 79.91906864156998 93.8553929516997 l -5.9526725485504715 -1.8214709788693109 a27.22511582198512,27.22511582198512 0 0,0 0.1409800975912567,-0.44694543565004574 l 5.92043696719101 1.923666580945771" fill="#ff4406" stroke="none" /><path d="M 80.2630227832202 92.82701384747504 l -20.87442339781141 -7.5863668650915015 a43.21023445177593,43.21023445177593 0 0,0 0.2600750173558746,-0.6968717453501975 l 20.740743791953903 7.94456174747104" fill="#e9ff1a" stroke="none" /><path d="M 80.38941819471856 92.48833698450439 l -10.610582939429262 -4.064291627364889 a32.36234732556507,32.36234732556507 0 0,0 0.20373862178136692,-0.5184925695997761 l 10.539050767766204 4.246333201860428" fill="#ff8b0c" stroke="none" /><path d="M 80.803312248108 91.48605970444005 l -13.494007521230278 -5.984739444036029 a35.76161729608311,35.76161729608311 0 0,0 0.25441441741324505,-0.560568444861109 l 13.38899078685368 6.216129897739209" fill="#ffb811" stroke="none" /><path d="M 81.10775173730289 90.83032412892265 l -26.53746876209686 -12.880414422022227 a50.4981749262951,50.4981749262951 0 0,0 0.3862869602874448,-0.7787309403896585 l 26.311821788856005 13.335304950910848" fill="#95ff23" stroke="none" /><path d="M 81.43458229118936 90.18545643968196 l -13.760511412840906 -7.274446543127771 a36.565000701951426,36.565000701951426 0 0,0 0.2989483082188549,-0.5539058127501063 l 13.633255005403578 7.51023333921035" fill="#ffc212" stroke="none" /><line stroke="#e1ed5e" stroke-width="0.3" x1="26.266209847984243" x2="21.928928074336255" y1="57.711370442889674" y2="55.22380399835377" /><path d="M 25.398753493254645 57.213857153982495 a86.0,86.0 0 0,1 29.58750427330803,-30.492523968695096" fill="none" id="id35" stroke="none" /><text fill="#e1ed5e" style="font-size:6.75px; font-family:Arial;" text-anchor="middle"><textPath startOffset="21.46611528233685" xlink:href="#id35">November</textPath></text><path d="M 81.96595687620814 89.24020034530311 l -6.529523686123715 -3.8957634858154275 a28.603397444896814,28.603397444896814 0 0,0 0.2559107854874524,-0.42065004413097906 l 6.461497102350046 4.007581303153481" fill="#ff5808" stroke="none" /><path d="M 82.34701348167596 88.62581576622439 l -20.853721052707797 -13.436483677538229 a45.80759511441808,45.80759511441808 0 0,0 0.43278004746964954,-0.6591537036286675 l 20.619344369880228 13.793455445144563" fill="#caff1d" stroke="none" /><path d="M 82.7489923806493 88.02491185347247 l -6.09343467222889 -4.229864070849817 a28.41766109785203,28.41766109785203 0 0,0 0.28240034503866596,-0.39943526088753517 l 6.019721707386346 4.334125832069138" fill="#ff5507" stroke="none" /><path d="M 83.17141714833178 87.43820079747576 l -10.976498094742459 -8.193474532490185 a34.69731854555665,34.69731854555665 0 0,0 0.3613875416962604,-0.4755436435008 l 10.83383461282209 8.381202951872012" fill="#ffaa0f" stroke="none" /><path d="M 83.39014120810768 87.1503855733568 l -12.828743246328177 -9.924491614232428 a37.21950021058542,37.21950021058542 0 0,0 0.39638044497282215,-0.5033629120510668 l 12.656008720761383 10.143846920236543" fill="#ffcb12" stroke="none" /><path d="M 84.31358615837235 86.03803664274999 l -4.974815227886687 -4.4279201493791644 a27.6599747297487,27.6599747297487 0 0,0 0.3196127985034769,-0.35292443490622283 l 4.897858788767166 4.512897371554943" fill="#ff4b06" stroke="none" /><path d="M 84.5562425177563 85.77008943001954 l -10.950259323890473 -10.089591932287847 a35.88986382142356,35.88986382142356 0 0,0 0.42253081650886637,-0.450726414942448 l 10.774961185411149 10.276587764108346" fill="#ffba11" stroke="none" /><path d="M 85.57189188830299 84.74124197986013 l -25.326667102990825 -26.78476497330041 a57.862768496420045,57.862768496420045 0 0,0 0.7296002342693045,-0.6780839030473018 l 24.861858984926663 27.216753462422357" fill="#48ff2c" stroke="none" /><path d="M 86.10567301691215 84.25364557470407 l -6.212751851907172 -7.040873065361164 a30.39000421170855,30.39000421170855 0 0,0 0.3952237433032513,-0.3427341355931395 l 6.090634309957148 7.146772194373984" fill="#ff700a" stroke="none" /><path d="M 88.09926311788651 82.69761687909137 l -8.35457458641141 -12.14664703019845 a35.74245402218166,35.74245402218166 0 0,0 0.5099176874017012,-0.3442986987571429 l 8.14425220460317 12.28865764125426" fill="#ffb811" stroke="none" /><path d="M 88.39885842347998 82.49532879139004 l -10.590540937992627 -15.979801282322939 a40.17064439140812,40.17064439140812 0 0,0 0.5796680879090546,-0.37703224889291814 l 10.313905824299285 16.15973245537539" fill="#fff016" stroke="none" /><path d="M 89.00827224532344 82.1063720568725 l -11.591234455882766 -18.869575501165546 a43.1453741401095,43.1453741401095 0 0,0 0.636164023857618,-0.38328170628637326 l 11.264708365807499 19.066303816910537" fill="#eaff1a" stroke="none" /><line stroke="#e1ed5e" stroke-width="0.3" x1="56.762969772571076" x2="54.21961505331055" y1="26.818313649435495" y2="22.513508569990535" /><path d="M 56.25429882871897 25.957352633546506 a86.0,86.0 0 0,1 42.265352541879196,-11.944610805530505" fill="none" id="id36" stroke="none" /><text fill="#e1ed5e" style="font-size:6.75px; font-family:Arial;" text-anchor="middle"><textPath startOffset="22.20632615414155" xlink:href="#id36">December</textPath></text><path d="M 89.94658935756843 81.56283822128135 l -21.172429179715845 -38.82856434684239 a65.22588796855257,65.22588796855257 0 0,0 0.9903617844458475,-0.5290169668503854 l 20.500922348741693 39.18726004019452" fill="#36ff6a" stroke="none" /><path d="M 90.58718382345135 81.22770947309562 l -2.5649692824204564 -5.115403048255148 a26.722448406570265,26.722448406570265 0 0,0 0.41296201541731,-0.20263866749093135 l 2.4765359999927203 5.158796875880909" fill="#ff3d05" stroke="none" /><path d="M 90.91171255644093 81.06846463323043 l -7.659271307550903 -15.954795283829522 a38.69802049698161,38.69802049698161 0 0,0 0.6029921660088923,-0.2831129071833863 l 7.383500930242402 16.084273173652917" fill="#ffde14" stroke="none" /><path d="M 91.56875222667455 80.76684994638697 l -1.8843951221583768 -4.298634688382977 a25.693528007861858,25.693528007861858 0 0,0 0.40658936555629144,-0.1740803472980933 l 1.8101219988117772 4.330434563643856" fill="#ff2f04" stroke="none" /><path d="M 92.23578459929587 80.48803036053334 l -10.906744250939997 -27.40934553032478 a50.49964902428752,50.49964902428752 0 0,0 0.8104396134663125,-0.31443797909009463 l 10.433321472474008 27.59302621330543" fill="#95ff23" stroke="none" /><path d="M 92.57280143429618 80.3572730644239 l -2.4169937210868233 -6.392228139360583 a27.833918292854136,27.833918292854136 0 0,0 0.4496074775208721,-0.16559422836452486 l 2.306603917793382 6.43288563553143" fill="#ff4d07" stroke="none" /><path d="M 93.25333710446033 80.11325718540243 l -3.8459672451690063 -11.336532247462234 a32.97114979643409,32.97114979643409 0 0,0 0.5390267664540244,-0.17770865011187112 l 3.6502576564725726 11.401054621833339" fill="#ff930d" stroke="none" /><path d="M 93.94186890950719 79.89281104454417 l -1.2923389291034422 -4.289326634538132 a25.479783798961112,25.479783798961112 0 0,0 0.4210349632634187,-0.12291165131547738 l 1.2183137481166022 4.3109366147723085" fill="#ff2c04" stroke="none" /><path d="M 94.98787191387505 79.60689891045804 l -3.5358618044051493 -14.38654120103164 a35.8146848238102,35.8146848238102 0 0,0 0.5999408466628018,-0.14198661509373853 l 3.2876972707798133 14.44527372826625" fill="#ffb911" stroke="none" /><path d="M 95.692805502759 79.44645832069477 l -1.4890448476001645 -7.105587025872399 a28.259932612663203,28.259932612663203 0 0,0 0.4769652087677613,-0.09567473382309381 l 1.3665132293652669 7.130165715772704" fill="#ff5307" stroke="none" /><path d="M 96.40284397218896 79.31037775812273 l -1.267059451604364 -7.2876965049656155 a28.397023725958164,28.397023725958164 0 0,0 0.48230423788716176,-0.07958433179355788 l 1.1414260075783165 7.3084270996988" fill="#ff5507" stroke="none" /><path d="M 96.75951476605007 79.25152402106235 l -9.72145570184976 -62.24542793681294 a84.0,84.0 0 0,0 1.430524078285405,-0.2108220633561242 l 8.648562643135705 62.403544484330034" fill="#4dd2ff" stroke="none" /><path d="M 98.19473922651362 79.07773832637324 l -0.42704821049060104 -4.949320640188276 a25.967710234451776,25.967710234451776 0 0,0 0.44566750134726385,-0.034592375494036924 l 0.341790519781003 4.955938277870775" fill="#ff3304" stroke="none" /><path d="M 98.91598698831166 79.02799685794201 l -0.30482634597946656 -5.897363792438881 a26.90523655763021,26.90523655763021 0 0,0 0.46271775426295497,-0.01992559985121716 l 0.2032677593271875 5.901737118814291" fill="#ff4006" stroke="none" /><path d="M 99.63851952072746 79.00311137660856 l -0.08485123702705157 -4.9286533452632995 a25.929383686648883,25.929383686648883 0 0,0 0.44633171629958607,-0.003841717994142251 l 1.2073507907247469e-15 4.929383686648883" fill="#ff3204" stroke="none" /></svg>