<?xml version="1.0" encoding="utf-8" ?>
<svg baseProfile="full" height="200mm" version="1.1" viewBox="0,0,200,200" width="200mm" xmlns="http://www.w3.org/2000/svg" xmlns:ev="http://www.w3.org/2001/xml-events" xmlns:xlink="http://www.w3.org/1999/xlink"><defs /><rect fill="#1a1a1a" height="200" width="200" x="0" y="0" /><text alignment-baseline="middle" fill="#e1ed5e" style="dominant-baseline: central; font-size:9.0px; font-family:Arial;" text-anchor="middle" x="100.0" y="100.0">2020</text><line stroke="#e1ed5e" stroke-width="0.3" x1="100.0" x2="100.0" y1="15.0" y2="10.0" /><path d="M 100.0 14.0 a86.0,86.0 0 0,1 42.35913384403234,11.155469271406648" fill="none" id="id49" stroke="none" /><text fill="#e1ed5e" style="font-size:6.75px; font-family:Arial;" text-anchor="middle"><textPath startOffset="22.145653131862478" xlink:href="#id49">January</textPath></text><path d="M 100.0 79.0 l 0.0 -8.497674418604653 a29.497674418604653,29.497674418604653 0 0,0 0.5063668060667635,0.004346550021950433 l -0.1458738812179087 8.496422266777138" fill="#ff5607" stroke="none" /><path d="M 100.36049292484886 79.00309439819443 l 0.20565163241896672 -11.978176588538334 a32.97994186046512,32.97994186046512 0 0,0 0.5659777118682215,0.01457757819656746 l -0.4112426583579296 11.972881292991723" fill="#ff870c" stroke="none" /><path d="M 101.44090949804482 79.04949213459386 l 1.0821182459569119 -15.733761803903846 a36.77093023255814,36.77093023255814 0 0,0 0.6293624960256253,0.048716637558993275 l -1.3520497367577706 15.712867399349799" fill="#ffba11" stroke="none" /><path d="M 102.51750503828377 79.15144685158666 l 1.0202795543443242 -8.449378329541767 a29.510755813953487,29.510755813953487 0 0,0 0.5024166522025539,0.06504789435941714 l -1.1651740284376697 8.430618838981953" fill="#ff5608" stroke="none" /><path d="M 103.23170211078529 79.25015418208739 l 3.626001977956694 -23.281533816792493 a44.562209302325584,44.562209302325584 0 0,0 0.7548466839283308,0.12420973458755556 l -4.025126164938095 23.21585808370927" fill="#e2ff1b" stroke="none" /><path d="M 103.94208987418118 79.37332000966035 l 5.458844969043655 -28.562983566356966 a50.07994186046511,50.07994186046511 0 0,0 0.8430207358133222,0.16862775733535354 l -5.948362190387934 28.465066412358752" fill="#a1ff22" stroke="none" /><path d="M 104.64783097203109 79.52079915486377 l 3.60689440923359 -15.892642283764983 a37.296802325581396,37.296802325581396 0 0,0 0.6231547002079044,0.14706281248678527 l -3.8791812631813793 15.82838332763197" fill="#ffc111" stroke="none" /><path d="M 105.3480935250658 79.69241777938227 l 8.284658831893879 -31.458199003051597 a53.53081395348837,53.53081395348837 0 0,0 0.8866196531489487,0.2416521290882173 l -8.823459885977519 31.311346379819238" fill="#7aff26" stroke="none" /><path d="M 106.04205211174951 79.88797359093562 l 15.20549659352243 -50.614152840087286 a73.84883720930233,73.84883720930233 0 0,0 1.2109780402172077,0.37516409238094517 l -16.072115266611267 50.3456721598997" fill="#40ffc7" stroke="none" /><path d="M 106.72888874123014 80.10723608172694 l 4.756608976462598 -14.06206924488555 a35.84476744186047,35.84476744186047 0 0,0 0.581187448397245,0.2021671638108719 l -4.997302196904862 13.978343648506087" fill="#ffad10" stroke="none" /><path d="M 107.40779381753099 80.34994680014964 l 7.5308468709783485 -19.976466043701702 a42.348837209302324,42.348837209302324 0 0,0 0.6780406533768432,0.2622806906983747 l -7.872659786848718 19.84424546486529" fill="#fdff18" stroke="none" /><path d="M 108.07796709384702 80.6158196554323 l 16.157611506442773 -38.77238564352588 a63.00436046511628,63.00436046511628 0 0,0 0.9947636210262577,0.4246054375148062 l -16.82081020263946 38.489305556351674" fill="#32ff4b" stroke="none" /><path d="M 108.73861861582097 80.90454125486305 l 11.110166483528188 -24.277718832324243 a47.69912790697674,47.69912790697674 0 0,0 0.74163350476736,0.34712192750206255 l -11.525288702167053 24.083420673251645" fill="#bcff1f" stroke="none" /><path d="M 109.3889696526874 81.21577127319529 l 28.166908958062173 -56.352686180414125 a84.0,84.0 0 0,0 1.2842911131456847,0.6557681933086643 l -29.130127292921436 55.86086003543262" fill="#4dd2ff" stroke="none" /><path d="M 110.34350942703115 81.72400993836675 l 10.618419976586798 -18.761730661277998 a42.55813953488372,42.55813953488372 0 0,0 0.6327129388875667,0.365296985586496 l -10.938925383334762 18.576686778415333" fill="#faff18" stroke="none" /><line stroke="#e1ed5e" stroke-width="0.3" x1="143.13028292997686" x2="145.6673583964461" y1="26.7553504044142" y2="22.446841604673864" /><path d="M 143.63769802327073 25.89364864446614 a86.0,86.0 0 0,1 29.32050498858742,28.57503671076993" fill="none" id="id50" stroke="none" /><text fill="#e1ed5e" style="font-size:6.75px; font-family:Arial;" text-anchor="middle"><textPath startOffset="20.669276256404974" xlink:href="#id50">February</textPath></text><path d="M 110.96478420261332 82.08984904055464 l 13.686400281476269 -22.35570628687911 a47.2125,47.2125 0 0,0 0.6875845747388426,0.4291036281723114 l -14.068148985004825 22.117466861865253" fill="#c2ff1e" stroke="none" /><path d="M 111.5731344415666 82.4767994020092 l 17.489466874111656 -26.481281966814162 a52.73546511627907,52.73546511627907 0 0,0 0.7511130173909614,0.5053823592095525 l -17.94147617959962 26.17714993354749" fill="#83ff25" stroke="none" /><path d="M 112.16784306229584 82.88440491214696 l 30.62173129464817 -43.07329993039428 a73.84883720930233,73.84883720930233 0 0,0 1.026917277472276,0.743408915287709 l -31.356629582494413 42.5412902437335" fill="#40ffc7" stroke="none" /><path d="M 113.03279911837588 83.53348406188908 l 22.73325005685806 -28.722718810152532 a57.630523255813955,57.630523255813955 0 0,0 0.7704630956234795,0.6206305316133806 l -23.222963922836797 28.328239984745743" fill="#4fff2b" stroke="none" /><path d="M 113.59037401385872 83.9905735841838 l 17.183808870430095 -20.242483641293845 a47.55261627906977,47.55261627906977 0 0,0 0.6177775958044236,0.5336215734674506 l -17.528765945997378 19.944517935361674" fill="#beff1f" stroke="none" /><path d="M 114.39649973595853 84.71141617570332 l 23.56769184350021 -25.028072024658435 a55.377906976744185,55.377906976744185 0 0,0 0.6864948981541812,0.6576465832888563 l -23.993859227519703 24.619813311063997" fill="#66ff29" stroke="none" /><path d="M 114.91283532996326 85.21462403516908 l 22.777993498174766 -22.583310962893737 a53.075581395348834,53.075581395348834 0 0,0 0.6359293721744848,0.652519558170981 l -23.16230967150006 22.18896871265501" fill="#7fff26" stroke="none" /><path d="M 115.41159269507618 85.73525988315684 l 38.88675085382614 -35.992996044820316 a73.9875,73.9875 0 0,0 0.8547398861410279,0.9395088632584171 l -39.49888844080905 35.32014960600423" fill="#40ffc8" stroke="none" /><path d="M 117.01052211995028 87.68569379921539 l 17.471106024527003 -12.647733428480269 a42.56860465116279,42.56860465116279 0 0,0 0.42342565658453324,0.5956012130338741 l -17.6856467796415 12.34595498873689" fill="#faff18" stroke="none" /><path d="M 117.62189284568427 88.57770195909679 l 14.625878339445425 -9.480317634779558 a38.4296511627907,38.4296511627907 0 0,0 0.354069410332788,0.5566559224090383 l -14.786465441404102 9.227848037691848" fill="#ffcf13" stroke="none" /><line stroke="#e1ed5e" stroke-width="0.3" x1="172.87174338648825" x2="177.1583165268699" y1="56.24261187166439" y2="53.66864786411523" /><path d="M 173.72905801456457 55.72781907015455 a86.0,86.0 0 0,1 12.242430191666344,42.057860355516425" fill="none" id="id51" stroke="none" /><text fill="#e1ed5e" style="font-size:6.75px; font-family:Arial;" text-anchor="middle"><textPath startOffset="22.145653131862474" xlink:href="#id51">March</textPath></text><path d="M 118.00360718960297 89.18935116829356 l 9.032457577142589 -5.4237312514886025 a31.535755813953486,31.535755813953486 0 0,0 0.274700895680958,0.46650217621830165 l -9.124232182953314 5.267877906976744" fill="#ff730a" stroke="none" /><path d="M 119.16976305983485 91.42560881287824 l 2.624697209645993 -1.173993677073939 a23.87529069767442,23.87529069767442 0 0,0 0.16413252541617124,0.37556733869379455 l -2.6444636170791345 1.1287642686042951" fill="#ff0400" stroke="none" /><path d="M 119.4528033332814 92.08871423366111 l 2.430792575990189 -0.9885821790246564 a23.624127906976746,23.624127906976746 0 0,0 0.1495534698439641,0.3769724395640253 l -2.447404720800278 0.9467087222470658" fill="#ff0000" stroke="none" /><path d="M 120.16314734710363 94.1308016681162 l 2.512020018326867 -0.7312124167629324 a23.616279069767444,23.616279069767444 0 0,0 0.10996358947758797,0.3902219859097344 l -2.524202099879037 0.6879825069501848" fill="#ff0000" stroke="none" /><path d="M 120.7213421655516 96.59031103205396 l 2.5996335000885136 -0.42776870316299825 a23.634593023255814,23.634593023255814 0 0,0 0.06243866451664763,0.4009010166725918 l -2.6065936567434265 0.3830795045589652" fill="#ff0000" stroke="none" /><path d="M 120.86939407059847 97.66154086499901 l 5.535416110004667 -0.6202549208991396 a26.570058139534883,26.570058139534883 0 0,0 0.046899451755028236,0.45370965197699037 l -5.545247954241361 0.5251407466392177" fill="#ff2c04" stroke="none" /><line stroke="#e1ed5e" stroke-width="0.3" x1="184.99686870605535" x2="189.99668451229388" y1="99.2704041080226" y2="99.22748670261217" /><path d="M 185.99683186730306 99.26182062694052 a86.0,86.0 0 0,1 -10.086455211305974,41.156179273409016" fill="none" id="id52" stroke="none" /><text fill="#e1ed5e" style="font-size:6.75px; font-family:Arial;" text-anchor="middle"><textPath startOffset="21.40746469413373" xlink:href="#id52">April</textPath></text><path d="M 120.98066250479742 100.90099992219065 l 2.6583057019159866 0.11415908482573321 a23.66075581395349,23.66075581395349 0 0,0 -0.020909810483958756,0.4056447372880366 l -2.6559543019754552 -0.15977561549050046" fill="#ff0100" stroke="none" /><path d="M 120.65975698304385 103.76489593502545 l 2.779801188748425 0.506572376639637 a23.825581395348838,23.825581395348838 0 0,0 -0.07677930626459342,0.4017417742230003 l -2.770695590201672 -0.5542167158959518" fill="#ff0300" stroke="none" /><path d="M 120.51834098615036 104.47187691870673 l 8.502159732550181 1.8530061418129444 a29.70174418604651,29.70174418604651 0 0,0 -0.11285126565901482,0.49724349894954156 l -8.469097605333502 -1.9986839747015028" fill="#ff5908" stroke="none" /><path d="M 120.35273937422433 105.17358676015961 l 2.5457828486363656 0.6471280449169744 a23.626744186046512,23.626744186046512 0 0,0 -0.10329445955308336,0.3922258876882066 l -2.5342989082785516 -0.6907344369779842" fill="#ff0000" stroke="none" /><path d="M 120.05942366710727 106.21446072829308 l 5.533002159340802 1.7141382125133973 a26.792441860465118,26.792441860465118 0 0,0 -0.13987604659016514,0.4381597237098553 l -5.502761396973382 -1.808866969914636" fill="#ff2f04" stroke="none" /><path d="M 119.83427380445688 106.89939002012753 l 12.394773762851631 4.3115457235414905 a34.12325581395349,34.12325581395349 0 0,0 -0.19719964395849623,0.5516025011099379 l -12.318933948849192 -4.52368318103235" fill="#ff960d" stroke="none" /><path d="M 119.31412917781788 108.2440532568976 l 24.125015673189626 10.297534628777667 a47.23081395348837,47.23081395348837 0 0,0 -0.32469186950685935,0.7429585392475001 l -23.944689921665802 -10.710155237801011" fill="#c2ff1e" stroke="none" /><line stroke="#e1ed5e" stroke-width="0.3" x1="174.33088141563837" x2="178.70328620479359" y1="141.23008692659167" y2="143.65538615756765" /><path d="M 175.20536237346943 141.71514677278685 a86.0,86.0 0 0,1 -30.301960400862466,31.631185727798858" fill="none" id="id53" stroke="none" /><text fill="#e1ed5e" style="font-size:6.75px; font-family:Arial;" text-anchor="middle"><textPath startOffset="22.145653131862474" xlink:href="#id53">May</textPath></text><path d="M 118.18653347947321 110.5 l 26.765471759927376 15.453052325581389 a51.90610465116279,51.90610465116279 0 0,0 -0.45214243549777805,0.7678367032531657 l -26.496255614299834 -15.910240197128104" fill="#8cff24" stroke="none" /><path d="M 116.57777611688842 112.89097897827486 l 6.392219736100868 4.9706287297874585 a29.09738372093023,29.09738372093023 0 0,0 -0.3100029294702781,0.39167857438897863 l -6.3059503759890285 -5.0796272480911195" fill="#ff5007" stroke="none" /><path d="M 114.91283532996324 114.78537596483092 l 1.908074985532257 1.8917667503174438 a23.68691860465116,23.68691860465116 0 0,0 -0.2887639309530741,0.28629587799747996 l -1.8753191344492182 -1.9242426385435856" fill="#ff0100" stroke="none" /><path d="M 114.13192950727249 115.5334660781643 l 9.186927928025069 10.098043105796677 a34.651744186046514,34.651744186046514 0 0,0 -0.4434350259219229,0.3965223345354445 l -9.012227875279768 -10.254260970215508" fill="#ff9d0e" stroke="none" /><path d="M 113.31354834802062 116.24036423190432 l 7.429159017954865 9.062366037545619 a32.71831395348838,32.71831395348838 0 0,0 -0.4374114970341359,0.35234773927545177 l -7.272496750565477 -9.188562070614473" fill="#ff830c" stroke="none" /><path d="M 111.8722381534696 117.32195027204791 l 6.404500565347592 9.344357725660396 a32.32848837209302,32.32848837209302 0 0,0 -0.46045575582408993,0.3098151820059185 l -6.243148521426499 -9.452922581723435" fill="#ff7e0b" stroke="none" /><path d="M 110.96478420261333 117.91015095944535 l 7.942182975995914 12.972959013066685 a36.211046511627906,36.211046511627906 0 0,0 -0.5329356346437757,0.3200125361190776 l -7.718314584794702 -13.107385549721686" fill="#ffb210" stroke="none" /><line stroke="#e1ed5e" stroke-width="0.3" x1="143.1302829299769" x2="145.66735839644613" y1="173.24464959558577" y2="177.55315839532614" /><path d="M 143.63769802327073 174.10635135553383 a86.0,86.0 0 0,1 -40.68552437913181,11.842963189579606" fill="none" id="id54" stroke="none" /><text fill="#e1ed5e" style="font-size:6.75px; font-family:Arial;" text-anchor="middle"><textPath startOffset="21.407464694133747" xlink:href="#id54">June</textPath></text><path d="M 110.34350942703117 118.27599006163325 l 6.748624443857417 11.924172751591367 a34.701453488372096,34.701453488372096 0 0,0 -0.5209445186495368,0.28895914294019015 l -6.542935737051786 -12.038264809964701" fill="#ff9e0e" stroke="none" /><path d="M 108.73861861582097 119.09545874513695 l 1.1823263891339164 2.583596536198346 a23.84127906976744,23.84127906976744 0 0,0 -0.37361168574472053,0.16711175488482197 l -1.137801300533569 -2.6035120419930187" fill="#ff0300" stroke="none" /><path d="M 108.4095320186766 119.2426549942271 l 4.630830339188191 10.596246064096816 a32.56395348837209,32.56395348837209 0 0,0 -0.5141459424059842,0.2194583298055589 l -4.448249321611775 -10.674179043561779" fill="#ff810b" stroke="none" /><path d="M 107.407793817531 119.65005319985036 l 5.198683875517287 13.790126620609271 a35.7375,35.7375 0 0,0 -0.5759027472743159,0.2114794658833715 l -4.961191976588844 -13.877336935501365" fill="#ffac0f" stroke="none" /><path d="M 104.9986988182912 120.39639698878246 l 0.6252525266068564 2.5512436765038524 a23.626744186046512,23.626744186046512 0 0,0 -0.394755468890332,0.09316121579470384 l -0.5813649039766453 -2.5616010359447814" fill="#ff0000" stroke="none" /><path d="M 102.51750503828377 120.84855314841334 l 1.6770472723882845 13.888357186615384 a34.98924418604651,34.98924418604651 0 0,0 -0.5969233343801633,0.06688650468022518 l -1.4383880364073218 -13.915099451802579" fill="#ffa20f" stroke="none" /><line stroke="#e1ed5e" stroke-width="0.3" x1="101.45913802915013" x2="101.54496967792366" y1="184.9874750549273" y2="189.98673829345242" /><path d="M 101.47630435890484 185.9873277026323 a86.0,86.0 0 0,1 -42.54439059252881,-10.42667462771756" fill="none" id="id55" stroke="none" /><text fill="#e1ed5e" style="font-size:6.75px; font-family:Arial;" text-anchor="middle"><textPath startOffset="22.145653131862474" xlink:href="#id55">July</textPath></text><path d="M 100.0 121.0 l 1.1534464038480886e-15 9.418604651162791 a30.41860465116279,30.41860465116279 0 0,0 -0.5221757981199321,-0.0044822512052279774 l 0.16168287327107875 -9.417216798151998" fill="#ff6309" stroke="none" /><path d="M 98.19965949673042 120.92268563240118 l -1.2010992601754928 13.958594048360673 a35.01017441860465,35.01017441860465 0 0,0 -0.5983412802287609,-0.05666354133074752 l 1.440540103789269 -13.935918751524742" fill="#ffa20f" stroke="none" /><path d="M 96.41257539226777 120.69131181640829 l -1.252768003588883 7.225632934558858 a28.33343023255814,28.33343023255814 0 0,0 -0.47851826584965546,-0.0872019683199274 l 1.3766210029895956 -7.2030627923075645" fill="#ff4506" stroke="none" /><path d="M 95.70440661134978 120.55596938700252 l -1.5546551653690446 7.439587757795968 a28.600290697674417,28.600290697674417 0 0,0 -0.47971891806376327,-0.10455250541963011 l 1.6821365000519442 -7.411803794242618" fill="#ff4906" stroke="none" /><path d="M 94.6519064749342 120.30758222061772 l -5.110449834375593 19.405210419286288 a41.06686046511628,41.06686046511628 0 0,0 -0.6801818035708143,-0.1853865751973522 l 5.442813038881102 -19.314623349944792" fill="#fff116" stroke="none" /><path d="M 92.59220618246901 119.65005319985036 l -6.662399946273615 17.672807398220908 a39.886918604651164,39.886918604651164 0 0,0 -0.6386232570736503,-0.247033195026181 l 6.964795465840794 -17.555834315056686" fill="#ffe215" stroke="none" /><path d="M 91.26138138417905 119.09545874513695 l -7.335649364626444 16.029717735639473 a38.628488372093024,38.628488372093024 0 0,0 -0.6006017818843948,-0.2811119600836834 l 7.609739860382328 -15.90142954398526" fill="#ffd213" stroke="none" /><path d="M 89.97174638481275 118.45085714620012 l -11.476686591666537 21.115810682515892 a45.033139534883716,45.033139534883716 0 0,0 -0.6760456649499657,-0.37499113425511144 l 11.837476444772605 -20.91568663282763" fill="#dcff1b" stroke="none" /><line stroke="#e1ed5e" stroke-width="0.3" x1="58.13341422392154" x2="55.67067388415222" y1="173.97424548756322" y2="178.32567169271397" /><path d="M 57.64086615596768 174.84453072859336 a86.0,86.0 0 0,1 -31.369924170532247,-30.572349798747897" fill="none" id="id56" stroke="none" /><text fill="#e1ed5e" style="font-size:6.75px; font-family:Arial;" text-anchor="middle"><textPath startOffset="22.145653131862474" xlink:href="#id56">August</textPath></text><path d="M 89.03521579738668 117.91015095944536 l -11.992505047517737 19.58885572337676 a43.96831395348838,43.96831395348838 0 0,0 -0.6403375049339312,-0.3996179622358676 l 12.32700668124138 -19.380101964299342" fill="#e9ff1a" stroke="none" /><path d="M 87.54013794807813 116.9041958592261 l -13.014553585130354 17.656741455616906 a42.93488372093023,42.93488372093023 0 0,0 -0.5895307329711441,-0.4423948525638712 l 13.315737307012265 -17.43072757578902" fill="#f6ff19" stroke="none" /><path d="M 86.68645165197938 116.24036423190432 l -13.368837170063893 16.307807604960413 a42.08720930232558,42.08720930232558 0 0,0 -0.5548009399230506,-0.46283467626300434 l 13.646812444148836 -16.07591074478554" fill="#fffe18" stroke="none" /><path d="M 86.13680546590413 115.77377054828092 l -15.549461012101125 17.69243225658303 a44.554360465116275,44.554360465116275 0 0,0 -0.5701578506902326,-0.5098386658549785 l 15.850883889614728 -17.42289806084467" fill="#e2ff1b" stroke="none" /><path d="M 85.60350026404147 115.28858382429668 l -4.446294374432041 4.721810544073689 a27.48575581395349,27.48575581395349 0 0,0 -0.3407284992933092,-0.3264101947325148 l 4.526695359590665 -4.644788219035592" fill="#ff3905" stroke="none" /><path d="M 84.58840730492382 114.26474011684316 l -13.154255176989237 12.175382210194238 a38.92412790697674,38.92412790697674 0 0,0 -0.4496706153789193,-0.49426677699893407 l 13.361323493210035 -11.94777785763763" fill="#ffd614" stroke="none" /><path d="M 84.1078160697243 113.72728997021213 l -3.953906724513364 3.4152904572899025 a26.224709302325582,26.224709302325582 0 0,0 -0.29135082146086505,-0.3432105350896782 l 4.011952109481341 -3.34691313975067" fill="#ff2703" stroke="none" /><path d="M 83.4222238831116 112.89097897827486 l -17.026642812412128 13.240020435660036 a42.56860465116279,42.56860465116279 0 0,0 -0.44362166450922536,-0.5807149992893121 l 17.25141645427565 -12.945784523129854" fill="#faff18" stroke="none" /><path d="M 82.78059297857968 112.02048342749411 l -10.852946028409312 7.576199210094606 a34.23575581395349,34.23575581395349 0 0,0 -0.33226659060800606,-0.48478688560444383 l 10.981402355832643 -7.388777589420111" fill="#ff980e" stroke="none" /><path d="M 81.99639281039703 110.81064883170644 l -5.134168213081546 3.082920495320938 a26.988662790697674,26.988662790697674 0 0,0 -0.23509218823147868,-0.39923793167853966 l 5.186334111442795 -2.9943313953488397" fill="#ff3204" stroke="none" /><line stroke="#e1ed5e" stroke-width="0.3" x1="26.387840678322732" x2="22.057713659400548" y1="142.50000000000003" y2="145.00000000000006" /><path d="M 25.521815274538298 143.00000000000003 a86.0,86.0 0 0,1 -11.493303480769221,-40.785679425670985" fill="none" id="id57" stroke="none" /><text fill="#e1ed5e" style="font-size:6.75px; font-family:Arial;" text-anchor="middle"><textPath startOffset="21.40746469413373" xlink:href="#id57">September</textPath></text><path d="M 80.41425534168474 107.57618678355246 l -16.575493787035168 6.411757078987362 a38.772383720930236,38.772383720930236 0 0,0 -0.23479321546071397,-0.622816899121616 l 16.683117686310318 -6.126271899671601" fill="#ffd413" stroke="none" /><path d="M 79.94057633289273 106.21446072829308 l -20.630050959963096 6.391242522266536 a42.59738372093023,42.59738372093023 0 0,0 -0.21039797132154106,-0.7003464182978036 l 20.736725251288266 -6.036158500378009" fill="#faff18" stroke="none" /><path d="M 79.56144815229197 104.8234425847677 l -25.720491554862818 6.069965973680056 a47.427034883720935,47.427034883720935 0 0,0 -0.18019820248793308,-0.7939865289615422 l 25.820900618908418 -5.627545110779488" fill="#c0ff1e" stroke="none" /><path d="M 79.17382384314188 102.69636545807758 l -13.58544746976443 1.758908165094795 a34.698837209302326,34.698837209302326 0 0,0 -0.07141006444769914,-0.5913777733626159 l 13.613639620471792 -1.52543671480878" fill="#ff9e0e" stroke="none" /><path d="M 79.03789590574601 101.26102812881392 l -11.997496620722947 0.7217396042904245 a33.01918604651163,33.01918604651163 0 0,0 -0.029180171926712854,-0.5660875398326503 l 12.008118382106233 -0.5156802710810434" fill="#ff870c" stroke="none" /><line stroke="#e1ed5e" stroke-width="0.3" x1="15.003131293944662" x2="10.003315487706104" y1="100.72959589197737" y2="100.7725132973878" /><path d="M 14.003168132696942 100.73817937305945 a86.0,86.0 0 0,1 10.791469493833604,-42.45332614584628" fill="none" id="id58" stroke="none" /><text fill="#e1ed5e" style="font-size:6.75px; font-family:Arial;" text-anchor="middle"><textPath startOffset="22.145653131862435" xlink:href="#id58">October</textPath></text><path d="M 79.01933749520258 99.09900007780938 l -26.222342971112262 -1.1261002349771172 a47.246511627906976,47.246511627906976 0 0,0 0.04175334093026766,-0.8100036595524606 l 26.199148040725422 1.5760756879062898" fill="#c2ff1e" stroke="none" /><path d="M 79.0935383218832 98.0201363427161 l -16.138260368473215 -1.5283100357804495 a37.21046511627907,37.21046511627907 0 0,0 0.06568109126214168,-0.6354049768784334 l 16.10964688472941 1.8051195349417957" fill="#ffbf11" stroke="none" /><path d="M 79.2786578344484 96.59031103205396 l -6.706899536474634 -1.1036177664523015 a27.79709302325581,27.79709302325581 0 0,0 0.08151852604869282,-0.4701771955435643 l 6.686966192933707 1.2185879949164584" fill="#ff3e05" stroke="none" /><path d="M 79.64726062577567 94.8264132398404 l -13.948557221462794 -3.545668700287119 a35.3921511627907,35.3921511627907 0 0,0 0.1547319892234975,-0.5875425660730599 l 13.88563575143457 3.7845917707329635" fill="#ffa70f" stroke="none" /><path d="M 79.83685265289637 94.1308016681162 l -7.629004795658689 -2.2206921097090238 a28.94563953488372,28.94563953488372 0 0,0 0.14296896440031262,-0.4758971843530024 l 7.589759511254747 2.3513268976527497" fill="#ff4e07" stroke="none" /><path d="M 80.16572619554312 93.10060997987247 l -13.613000131489164 -4.735308092302641 a35.41308139534884,35.41308139534884 0 0,0 0.20465359696950156,-0.5724525343122892 l 13.52970636447572 4.968295582995851" fill="#ffa80f" stroke="none" /><path d="M 80.5471966667186 92.08871423366112 l -13.35360627488129 -5.430795420165347 a35.4156976744186,35.4156976744186 0 0,0 0.23386866500720957,-0.5611996591191974 l 13.258411765337602 5.659227588725808" fill="#ffa80f" stroke="none" /><path d="M 80.9802524753101 91.09779779509293 l -14.617876554793856 -6.841904327500631 a37.13982558139535,37.13982558139535 0 0,0 0.27522510553411655,-0.5751146168834772 l 14.498272191299833 7.091831446449195" fill="#ffbe11" stroke="none" /><path d="M 81.29705330413844 90.45014215332179 l -13.193033744846522 -6.736457034205819 a35.813372093023254,35.813372093023254 0 0,0 0.28427619765262113,-0.545137092220563 l 13.075449478218962 6.961940369530868" fill="#ffad10" stroke="none" /><line stroke="#e1ed5e" stroke-width="0.3" x1="26.387840678322718" x2="22.05771365940052" y1="57.49999999999999" y2="54.99999999999999" /><path d="M 25.521815274538284 56.99999999999999 a86.0,86.0 0 0,1 29.574782752854787,-30.34633250058573" fill="none" id="id59" stroke="none" /><text fill="#e1ed5e" style="font-size:6.75px; font-family:Arial;" text-anchor="middle"><textPath startOffset="21.40746469413373" xlink:href="#id59">November</textPath></text><path d="M 81.81346652052679 89.5 l -14.335489699912003 -8.276598837209304 a37.553197674418605,37.553197674418605 0 0,0 0.32711748206401875,-0.555516999257079 l 14.191298507718205 8.521467004759955" fill="#ffc412" stroke="none" /><path d="M 82.18462484594161 88.88188828441811 l -12.56250291179034 -7.839930935655334 a35.80813953488372,35.80813953488372 0 0,0 0.3299162617043588,-0.5186831610337928 l 12.42606895846009 8.054427771367799" fill="#ffad10" stroke="none" /><path d="M 82.78059297857968 87.97951657250589 l -11.932019333862932 -8.329476182357428 a35.55174418604651,35.55174418604651 0 0,0 0.353629646732855,-0.4974243843837083 l 11.787274588600104 8.533077793450657" fill="#ffa90f" stroke="none" /><path d="M 83.8745106332314 86.54754324733833 l -11.06551438108324 -9.231245655356375 a35.41046511627907,35.41046511627907 0 0,0 0.3934025723985516,-0.46342724108879574 l 10.905417245177574 9.419839678894729" fill="#ffa70f" stroke="none" /><path d="M 85.08716467003674 85.21462403516908 l -10.473046439576766 -10.383533760018922 a35.74796511627907,35.74796511627907 0 0,0 0.435798471841866,-0.43207372095998536 l 10.293256047604924 10.561787491207582" fill="#ffac0f" stroke="none" /><path d="M 85.60350026404147 84.71141617570332 l -10.210872881662615 -10.843593153453615 a35.89447674418605,35.89447674418605 0 0,0 0.45221952003691857,-0.4185676365007461 l 10.023223590311744 11.017278536086726" fill="#ffae10" stroke="none" /><path d="M 86.40962598614128 83.9905735841838 l -9.613722215617502 -11.324940596636758 a35.855232558139534,35.855232558139534 0 0,0 0.4726499346041226,-0.3943013858242064 l 9.41789794685147 11.488304166372846" fill="#ffad10" stroke="none" /><path d="M 86.96720088162412 83.53348406188908 l -16.32942617111788 -20.631696526941216 a47.31191860465116,47.31191860465116 0 0,0 0.6411667397671653,-0.49857513490530386 l 15.97284948671547 20.908972713467325" fill="#c1ff1e" stroke="none" /><path d="M 87.83215693770416 82.88440491214696 l -9.877782233461756 -13.894337739923218 a38.04767441860465,38.04767441860465 0 0,0 0.5355752060743755,-0.37387308870655866 l 9.637811936213616 14.061855644434903" fill="#ffca12" stroke="none" /><path d="M 88.4268655584334 82.4767994020092 l -9.93857338526394 -15.048266825824408 a39.03401162790698,39.03401162790698 0 0,0 0.5623023499089608,-0.36447758966672994 l 9.678785403097953 15.216658257195043" fill="#ffd714" stroke="none" /><path d="M 88.72937992617638 82.28071324371311 l -9.417614057533433 -14.806053522560152 a38.54738372093023,38.54738372093023 0 0,0 0.5613891753889756,-0.350348365606614 l 9.162060753354758 14.965537685008302" fill="#ffd113" stroke="none" /><line stroke="#e1ed5e" stroke-width="0.3" x1="56.869717070023135" x2="54.33264160355391" y1="26.7553504044142" y2="22.446841604673864" /><path d="M 56.362301976729285 25.89364864446614 a86.0,86.0 0 0,1 42.16139366436587,-11.88097634709845" fill="none" id="id60" stroke="none" /><text fill="#e1ed5e" style="font-size:6.75px; font-family:Arial;" text-anchor="middle"><textPath startOffset="22.145653131862474" xlink:href="#id60">December</textPath></text><path d="M 89.34428304082924 81.90426304109057 l -13.389563278678933 -22.738405685327308 a47.38779069767442,47.38779069767442 0 0,0 0.7045154851080399,-0.40675220497538445 l 12.997255325710494 22.964904787578867" fill="#c0ff1e" stroke="none" /><path d="M 89.97174638481275 81.54914285379989 l -8.76555988756069 -16.127642907525747 a39.35581395348837,39.35581395348837 0 0,0 0.596355245896347,-0.31752557859699393 l 8.48741582587778 16.275738953845316" fill="#ffdb14" stroke="none" /><path d="M 90.93487009805054 81.0573650232925 l -8.557286868821143 -17.881438357788124 a40.82354651162791,40.82354651162791 0 0,0 0.6347308893255881,-0.29708610564581883 l 8.249067265624031 18.025700695004485" fill="#ffee16" stroke="none" /><path d="M 91.5904679813234 80.7573450057729 l -1.3410549398554035 -3.0685961452588058 a24.348837209302324,24.348837209302324 0 0,0 0.3844390656661778,-0.1640941769729835 l 1.2881807990187946 3.091164971891193" fill="#ff0b01" stroke="none" /><path d="M 91.92203290615298 80.6158196554323 l -9.142058108036512 -21.93761140989032 a44.76627906976744,44.76627906976744 0 0,0 0.7118809135453609,-0.2895157701524842 l 8.76412273330071 22.091314436622095" fill="#dfff1b" stroke="none" /><path d="M 92.93061703081487 80.22567764915836 l -10.12935716718415 -28.333614787005363 a51.089825581395345,51.089825581395345 0 0,0 0.8283709865567903,-0.2881504296027632 l 9.641480408582355 28.50332364917671" fill="#95ff23" stroke="none" /><path d="M 93.61358852112211 79.99465700312896 l -8.046401073823768 -25.20523676005275 a47.45843023255814,47.45843023255814 0 0,0 0.7782264285614419,-0.2410965368833201 l 7.61253401239071 25.339649884742713" fill="#bfff1e" stroke="none" /><path d="M 94.30408787586887 79.78721728523814 l -4.890725875354454 -17.35546077285782 a39.03139534883721,39.03139534883721 0 0,0 0.6464688214189189,-0.1761979519968805 l 4.592075653000857 17.43685921899884" fill="#ffd714" stroke="none" /><path d="M 95.00130118170881 79.60360301121753 l -7.610145293959921 -31.051989767805857 a52.97093023255814,52.97093023255814 0 0,0 0.8850379145281608,-0.208866537995343 l 7.075975225691853 31.178052449447435" fill="#81ff25" stroke="none" /><path d="M 98.1996594967304 79.07731436759882 l -2.254836762379885 -26.20462109583004 a47.30145348837209,47.30145348837209 0 0,0 0.8096004274247091,-0.0626681933536248 l 1.8046673401799587 26.239467056178714" fill="#c1ff1e" stroke="none" /><path d="M 99.27912038922189 79.0123766808444 l -1.2682152388452335 -36.922702934775295 a57.94447674418605,57.94447674418605 0 0,0 0.9944008543686695,-0.025612238625870153 l 0.63420107040582 36.939032890751214" fill="#4cff2c" stroke="none" /></svg>