<?xml version="1.0" encoding="utf-8" ?>
<svg baseProfile="full" height="200mm" version="1.1" viewBox="0,0,200,200" width="200mm" xmlns="http://www.w3.org/2000/svg" xmlns:ev="http://www.w3.org/2001/xml-events" xmlns:xlink="http://www.w3.org/1999/xlink"><defs /><rect fill="#1a1a1a" height="200" width="200" x="0" y="0" /><text alignment-baseline="middle" fill="#e1ed5e" style="dominant-baseline: central; font-size:9.0px; font-family:Arial;" text-anchor="middle" x="100.0" y="100.0">2024</text><line stroke="#e1ed5e" stroke-width="0.3" x1="100.0" x2="100.0" y1="15.0" y2="10.0" /><path d="M 100.0 14.0 a86.0,86.0 0 0,1 42.35913384403234,11.155469271406648" fill="none" id="id97" stroke="none" /><text fill="#e1ed5e" style="font-size:6.75px; font-family:Arial;" text-anchor="middle"><textPath startOffset="22.145653131862478" xlink:href="#id97">January</textPath></text><path d="M 100.0 79.0 l 0.0 -10.591761490773536 a31.591761490773536,31.591761490773536 0 0,0 0.5423145952826842,0.004655118557907999 l -0.18182167043382944 10.590200770410062" fill="#ff6309" stroke="none" /><path d="M 101.08105385017728 79.02784411241856 l 0.8409730134837429 -16.314651793837992 a37.336312275528684,37.336312275528684 0 0,0 0.6397944210902415,0.038488443623089466 l -1.1209117867064466 16.29781137239021" fill="#ffb310" stroke="none" /><path d="M 101.44090949804482 79.04949213459386 l 2.467327688894919 -35.87440309253873 a56.959150478985734,56.959150478985734 0 0,0 0.9748992720671706,0.07546336935191156 l -3.082795955737323 35.82676195619177" fill="#5cff2a" stroke="none" /><path d="M 102.15924093988457 79.11130261209362 l 2.2788818443003334 -22.04611460864967 a43.16358436259799,43.16358436259799 0 0,0 0.7363791731116247,0.08251282228712864 l -2.6569969190127547 22.00374602585557" fill="#feff18" stroke="none" /><path d="M 102.87502721639298 79.19773525538626 l 2.1792682918673023 -15.768099758666507 a36.91798292143816,36.91798292143816 0 0,0 0.6270341742705408,0.09215243051009418 l -2.449627571745525 15.72836625485753" fill="#ffad10" stroke="none" /><path d="M 103.23170211078529 79.25015418208739 l 2.964290747827571 -19.032873039755675 a40.26232789112247,40.26232789112247 0 0,0 0.6820102766821945,0.11222453149270743 l -3.290578527562836 18.9791825097673" fill="#ffda14" stroke="none" /><path d="M 103.94208987418118 79.37332000966035 l 3.7914633383856464 -19.838538306341864 a41.197593826456554,41.197593826456554 0 0,0 0.6934997240628831,0.13871936740510535 l -4.131459547979486 19.7705295422739" fill="#ffe615" stroke="none" /><path d="M 104.64783097203109 79.52079915486377 l 8.552675858908211 -37.68466790895122 a59.64301307811658,59.64301307811658 0 0,0 0.99651502586584,0.2351748327345972 l -9.198323038513935 37.5322969325704" fill="#40ff2d" stroke="none" /><path d="M 104.9986988182912 79.60360301121754 l 3.787476647614138 -15.454197201840831 a36.911542681638615,36.911542681638615 0 0,0 0.6141284586594982,0.15610905266058836 l -4.052210399499031 15.386902917344974" fill="#ffad10" stroke="none" /><path d="M 105.69591212413111 79.78721728523813 l 5.2625217395439625 -18.67483313207525 a40.40215265299261,40.40215265299261 0 0,0 0.6659428866220661,0.19384626874006383 l -5.582324638547633 18.58174316903267" fill="#ffdc14" stroke="none" /><path d="M 106.38641147887787 79.99465700312896 l 6.904620732409874 -21.62862610278228 a43.70399203999991,43.70399203999991 0 0,0 0.7127439784630489,0.23429310261507497 l -7.274887448520666 21.506912078765183" fill="#f7ff18" stroke="none" /><path d="M 107.06938296918511 80.22567764915836 l 8.34357131392101 -23.338453927009073 a45.785048193893246,45.785048193893246 0 0,0 0.7378170000405809,0.2709366222452317 l -8.742977465615716 23.19178645575512" fill="#ddff1b" stroke="none" /><path d="M 107.74402155503746 80.48000691201159 l 5.9309183645667884 -14.9497886413369 a37.083282409626506,37.083282409626506 0 0,0 0.5897046059576101,0.23982772948077136 l -6.1866774317148385 14.845773655276835" fill="#ffb010" stroke="none" /><path d="M 108.07796709384702 80.6158196554323 l 11.563266159955864 -27.747629324654188 a51.06060640480144,51.06060640480144 0 0,0 0.8061860059219167,0.34411286714490136 l -12.037887241048212 27.545041807849884" fill="#9eff22" stroke="none" /><path d="M 108.73861861582097 80.90454125486305 l 8.343614894299193 -18.232304326790032 a41.050756359026906,41.050756359026906 0 0,0 0.6382635835873032,0.298739584936494 l -8.655367191758003 18.086388510283005" fill="#ffe515" stroke="none" /><path d="M 109.3889696526874 81.21577127319529 l 17.98013464373437 -35.97231370217285 a61.21557652072576,61.21557652072576 0 0,0 0.9359359632340205,0.477895571635055 l -18.59499782868197 35.65836017886495" fill="#30ff2f" stroke="none" /><path d="M 110.02825361518725 81.54914285379988 l 6.928090523275246 -12.746906235728211 a35.50799975465753,35.50799975465753 0 0,0 0.5330525376003596,0.29567525694750135 l -7.1458872490317065 12.626098063347564" fill="#ff9a0e" stroke="none" /><path d="M 110.34350942703115 81.72400993836675 l 7.804843903768206 -13.790411332259819 a36.845852235683246,36.845852235683246 0 0,0 0.5477882188611012,0.3162656756183625 l -8.040424590489705 13.654398759365284" fill="#ffac10" stroke="none" /><line stroke="#e1ed5e" stroke-width="0.3" x1="143.13028292997686" x2="145.6673583964461" y1="26.7553504044142" y2="22.446841604673864" /><path d="M 143.63769802327073 25.89364864446614 a86.0,86.0 0 0,1 29.32050498858742,28.57503671076993" fill="none" id="id98" stroke="none" /><text fill="#e1ed5e" style="font-size:6.75px; font-family:Arial;" text-anchor="middle"><textPath startOffset="20.669276256404974" xlink:href="#id98">February</textPath></text><path d="M 111.27062007382361 82.28071324371311 l 9.564617686825363 -15.037167644460919 a38.821288456864025,38.821288456864025 0 0,0 0.5592379777379315,0.36249130064816215 l -9.821341296820302 14.870762502108862" fill="#ffc712" stroke="none" /><path d="M 111.8722381534696 82.67804972795209 l 21.04561147069496 -30.706176091462677 a58.22616032221644,58.22616032221644 0 0,0 0.8196161339690847,0.5721557161071998 l -21.569622695837804 30.34037555955035" fill="#4fff2b" stroke="none" /><path d="M 112.45986205192187 83.09580414077388 l 8.647809599908513 -11.732414582198453 a35.575121365012805,35.575121365012805 0 0,0 0.4884752340351515,0.36656092219819986 l -8.84793782285443 11.582234632736238" fill="#ff9b0e" stroke="none" /><path d="M 113.03279911837588 83.53348406188908 l 10.673784938596476 -13.485978584872871 a38.198875059347884,38.198875059347884 0 0,0 0.5106811783908385,0.411368608087807 l -10.903716887342574 13.300761682991658" fill="#ffbf11" stroke="none" /><path d="M 113.59037401385872 83.9905735841838 l 16.8448629329455 -19.84320617920443 a47.02887317384558,47.02887317384558 0 0,0 0.6109734116883342,0.5277442812852018 l -17.183015824396694 19.55111776545451" fill="#ceff1d" stroke="none" /><path d="M 113.86319453409587 84.22622945171908 l 11.438526688328652 -13.01494362993522 a38.327107389578856,38.327107389578856 0 0,0 0.49046829410838466,0.4385797729692986 l -11.660260009260412 12.816668327082533" fill="#ffc011" stroke="none" /><path d="M 114.39649973595853 84.71141617570332 l 11.775832547919817 -12.505526087016344 a38.177264476909414,38.177264476909414 0 0,0 0.4732663027493502,0.45337841231699466 l -11.988771336534478 12.30153554439377" fill="#ffbe11" stroke="none" /><path d="M 114.91283532996326 85.21462403516908 l 25.45627403803634 -25.238700353640887 a56.84709030647363,56.84709030647363 0 0,0 0.6811180112990719,0.6988870828146344 l -25.885778850486226 24.79799057875851" fill="#5dff2a" stroke="none" /><path d="M 115.41159269507618 85.73525988315684 l 4.216892068268451 -3.9030923438461236 a26.745981949155045,26.745981949155045 0 0,0 0.30898270067174555,0.339626113840592 l -4.283272469782075 3.83012865444786" fill="#ff1b02" stroke="none" /><path d="M 115.8921839302757 86.27271002978787 l 16.31060735900917 -14.088714162239764 a42.552906513161034,42.552906513161034 0 0,0 0.47275354419495635,0.5569024863397839 l -16.550055466711235 13.806644893450429" fill="#fff817" stroke="none" /><path d="M 116.35404254752997 86.82634096563983 l 13.66191022805725 -11.005067803840761 a38.54307009752363,38.54307009752363 0 0,0 0.410637078426264,0.5188265341365937 l -13.848813737125074 10.76892132578949" fill="#ffc312" stroke="none" /><path d="M 116.57777611688842 87.10902102172516 l 15.964791453394705 -12.414318396337553 a41.22349790209472,41.22349790209472 0 0,0 0.4296038572577292,0.5623652396194531 l -16.17554728800674 12.138432243477217" fill="#ffe715" stroke="none" /><path d="M 117.01052211995028 87.68569379921539 l 37.33318090461776 -27.026343922128348 a67.08893210147183,67.08893210147183 0 0,0 0.667326903416481,0.9386788612929636 l -37.79162290656421 26.381487834125878" fill="#37ff77" stroke="none" /><path d="M 117.42321728460499 88.27688183743584 l 17.09517708284533 -11.502398074851202 a41.60461698178786,41.60461698178786 0 0,0 0.3936105058259554,0.5959764734342042 l -17.29011202759201 11.207241723077939" fill="#ffec16" stroke="none" /><path d="M 117.62189284568427 88.57770195909679 l 18.077691155867488 -11.717740998765025 a42.54317459524172,42.54317459524172 0 0,0 0.39196912505953163,0.6162405689347742 l -18.276177972552908 11.40568675515158" fill="#fff817" stroke="none" /><line stroke="#e1ed5e" stroke-width="0.3" x1="172.87174338648825" x2="177.1583165268699" y1="56.24261187166439" y2="53.66864786411523" /><path d="M 173.72905801456457 55.72781907015455 a86.0,86.0 0 0,1 12.242430191666344,42.057860355516425" fill="none" id="id99" stroke="none" /><text fill="#e1ed5e" style="font-size:6.75px; font-family:Arial;" text-anchor="middle"><textPath startOffset="22.145653131862474" xlink:href="#id99">March</textPath></text><path d="M 118.00360718960297 89.18935116829356 l 17.273730669773048 -10.372378952604324 a41.14864800398,41.14864800398 0 0,0 0.3584366434544858,0.608703782320765 l -17.449241023357303 10.074324001990002" fill="#ffe615" stroke="none" /><path d="M 118.36410011445183 89.81374322990088 l 43.85960405139606 -24.328183026556967 a71.15501327802528,71.15501327802528 0 0,0 0.5833174492378186,1.0732384061840443 l -44.270766850249224 23.571689786898318" fill="#3cffa6" stroke="none" /><path d="M 118.70294669586156 90.45014215332178 l 16.673668843044904 -8.513694115852882 a39.72149086440058,39.72149086440058 0 0,0 0.304872064042061,0.6099483537834189 l -16.817360820298703 8.226213905905713" fill="#ffd313" stroke="none" /><path d="M 118.8641267826498 90.77261029715802 l 15.811247775114682 -7.73407359853857 a38.60146160503952,38.60146160503952 0 0,0 0.2860565761337246,0.5977482245701321 l -15.941683609208317 7.461512871903335" fill="#ffc412" stroke="none" /><path d="M 119.4528033332814 92.08871423366111 l 14.592618517252005 -5.934690912730006 a36.75325589900977,36.75325589900977 0 0,0 0.2326679304058792,0.5864751745641764 l -14.692345122624008 5.683314720952264" fill="#ffab0f" stroke="none" /><path d="M 119.94978838288452 93.4421083053983 l 12.896407621008438 -4.239305340229418 a34.57530991524327,34.57530991524327 0 0,0 0.18050828236414826,0.5654396235529411 l -12.967280619149843 4.01729668298509" fill="#ff8d0d" stroke="none" /><path d="M 120.43855184770803 95.1765574152323 l 14.080560897279488 -3.3229740323783754 a35.46735468570039,35.46735468570039 0 0,0 0.1347576034857475,0.5937668654047169 l -14.1355293623229 3.080772833034632" fill="#ff9a0e" stroke="none" /><path d="M 120.592083275326 95.88100663000786 l 14.534506778100718 -2.9073084182229176 a35.82242657331537,35.82242657331537 0 0,0 0.11543982979363998,0.6040299697092097 l -14.582272900176514 2.6573758834803933" fill="#ff9e0e" stroke="none" /><path d="M 120.65975698304385 96.23510406497455 l 20.861285367770805 -3.8016211199864114 a42.20484733110557,42.20484733110557 0 0,0 0.12377110598088208,0.7138788484062585 l -20.92347129124392 3.4429492386595606" fill="#fff316" stroke="none" /><path d="M 120.77682067341334 96.94652285012252 l 46.86016711190187 -6.886830846970278 a68.363527116022,68.363527116022 0 0,0 0.16067213956200488,1.1625435631339018 l -46.97148376801909 6.08139897563629" fill="#39ff86" stroke="none" /><path d="M 120.86939407059847 97.66154086499901 l 18.51346196470974 -2.0744720285320315 a39.62932387704707,39.62932387704707 0 0,0 0.0699506773186343,0.676709348918768 l -18.546345034510043 1.7563581573303322" fill="#ffd213" stroke="none" /><path d="M 120.9064616781168 98.02013634271609 l 24.29009974858332 -2.3002977005123326 a45.39877692236047,45.39877692236047 0 0,0 0.06681484422017002,0.7764897688285428 l -24.326008215501233 1.8829868843081277" fill="#e2ff1b" stroke="none" /><path d="M 120.96210409425399 98.7389718711861 l 18.60070605124646 -1.1189722864152047 a39.63433295244673,39.63433295244673 0 0,0 0.03502620107363793,0.6794989435037592 l -18.61717384177667 0.799501549534715" fill="#ffd213" stroke="none" /><path d="M 120.99303781780057 99.45929381324524 l 45.91899454263724 -1.1827104135309647 a66.93422322984273,66.93422322984273 0 0,0 0.019725096135620904,1.1488879614481795 l -45.932531070371525 0.3942755361137188" fill="#37ff75" stroke="none" /><line stroke="#e1ed5e" stroke-width="0.3" x1="184.99686870605535" x2="189.99668451229388" y1="99.2704041080226" y2="99.22748670261217" /><path d="M 185.99683186730306 99.26182062694052 a86.0,86.0 0 0,1 -10.086455211305974,41.156179273409016" fill="none" id="id100" stroke="none" /><text fill="#e1ed5e" style="font-size:6.75px; font-family:Arial;" text-anchor="middle"><textPath startOffset="21.40746469413373" xlink:href="#id100">April</textPath></text><path d="M 120.99922638620191 100.18025310272382 l 15.780868468766439 0.13545977612969703 a36.78144983768779,36.78144983768779 0 0,0 -0.010839262772413306,0.6313327156725465 l -15.776217774395358 -0.4063394077713145" fill="#ffac0f" stroke="none" /><path d="M 120.99303781780057 100.54070618675476 l 15.774071739511745 0.40628413352522247 a36.77930309108794,36.77930309108794 0 0,0 -0.021674066085242378,0.6310167855912773 l -15.764772986429657 -0.6770071836806105" fill="#ffac0f" stroke="none" /><path d="M 120.96210409425399 101.26102812881392 l 19.149138591957456 1.1519646261862424 a40.183756965568,40.183756965568 0 0,0 -0.047332712992087446,0.6882072588023922 l -19.126541917800303 -1.4805153091429781" fill="#ffd914" stroke="none" /><path d="M 120.9064616781168 101.97986365728391 l 31.986671224274133 3.0291710213554413 a53.12978389417561,53.12978389417561 0 0,0 -0.09378066556777148,0.9072428684065009 l -31.929958166224697 -3.577818412044874" fill="#86ff25" stroke="none" /><path d="M 120.82617615685814 102.69636545807757 l 14.549856518054236 1.8837702245376966 a35.67129561268602,35.67129561268602 0 0,0 -0.08383685905076799,0.6066017488067234 l -14.515375142448258 -2.133260281544505" fill="#ff9c0e" stroke="none" /><path d="M 120.77682067341334 103.0534771498775 l 12.080499653978112 1.7754174342818234 a33.21026531061947,33.21026531061947 0 0,0 -0.08773599833930588,0.5633280468968876 l -12.04824216350054 -1.9825336631101615" fill="#ff7a0b" stroke="none" /><path d="M 120.65975698304385 103.76489593502545 l 11.779132277310467 2.1465502844670667 a32.97312136955618,32.97312136955618 0 0,0 -0.10625777990991592,0.5559856047526213 l -11.740548205118392 -2.3484384542530026" fill="#ff770a" stroke="none" /><path d="M 120.51834098615036 104.47187691870673 l 61.25675724808159 13.350625132773562 a83.69473263350153,83.69473263350153 0 0,0 -0.3179966956661307,1.4011521154329933 l -61.018549690857796 -14.400211582145571" fill="#4dd5ff" stroke="none" /><path d="M 120.16314734710363 105.8691983318838 l 11.36270013561078 3.307516407710146 a32.83429842276597,32.83429842276597 0 0,0 -0.1621759172623002,0.5398308837076908 l -11.304247898344851 -3.5020848950085606" fill="#ff750a" stroke="none" /><path d="M 119.83427380445688 106.89939002012753 l 14.337552083013927 4.987344872307698 a36.18021767329016,36.18021767329016 0 0,0 -0.2090869078382673,0.5848532938386286 l -14.249825005131717 -5.232733122527248" fill="#ffa30f" stroke="none" /><path d="M 119.58574465831526 107.57618678355244 l 12.420946714733851 4.80468902158507 a34.317843439701406,34.317843439701406 0 0,0 -0.2172504561513809,0.5476130680032429 l -12.336637583616346 -5.017203106801878" fill="#ff890c" stroke="none" /><path d="M 119.31412917781788 108.2440532568976 l 14.71656956294462 6.281628445101922 a37.0011335730723,37.0011335730723 0 0,0 -0.2543671435674366,0.5820418038322004 l -14.606568537360218 -6.533332318709967" fill="#ffaf10" stroke="none" /><path d="M 119.0197475246899 108.90220220490707 l 12.903499718909067 6.039489404345441 a35.24695536811593,35.24695536811593 0 0,0 -0.26119796900190784,0.545803296475266 l -12.797922491947247 -6.260105202885811" fill="#ff960d" stroke="none" /><path d="M 118.8641267826498 109.22738970284198 l 18.035212708495514 8.82192629175914 a41.07723290042503,41.07723290042503 0 0,0 -0.31527771256725673,0.6307666213014083 l -17.881115082716526 -9.130224769224295" fill="#ffe515" stroke="none" /><line stroke="#e1ed5e" stroke-width="0.3" x1="174.33088141563837" x2="178.70328620479359" y1="141.23008692659167" y2="143.65538615756765" /><path d="M 175.20536237346943 141.71514677278685 a86.0,86.0 0 0,1 -30.301960400862466,31.631185727798858" fill="none" id="id101" stroke="none" /><text fill="#e1ed5e" style="font-size:6.75px; font-family:Arial;" text-anchor="middle"><textPath startOffset="22.145653131862474" xlink:href="#id101">May</textPath></text><path d="M 117.01052211995028 112.31430620078461 l 11.61620489819372 8.409236530114782 a35.34055351986933,35.34055351986933 0 0,0 -0.35996538212808027,0.48836217421007855 l -11.470137496481811 -8.60740501359374" fill="#ff980e" stroke="none" /><path d="M 116.79662413953412 112.60449989151573 l 14.91156794392028 11.189918579477476 a39.6432061717261,39.6432061717261 0 0,0 -0.4131351086675187,0.5408071190609386 l -14.717280857898457 -11.444246611779294" fill="#ffd213" stroke="none" /><path d="M 116.35404254752997 113.17365903436017 l 21.54036502211587 17.35139329938156 a48.659685007530655,48.659685007530655 0 0,0 -0.5295869420627427,0.6460099596842667 l -21.2393312608145 -17.71860554076432" fill="#baff1f" stroke="none" /><path d="M 115.41159269507618 114.26474011684316 l 9.533459345253702 8.824027643682905 a33.99039302500449,33.99039302500449 0 0,0 -0.4000251116734085,0.4248128061550202 l -9.380578399844033 -8.986381909782423" fill="#ff850c" stroke="none" /><path d="M 114.91283532996324 114.78537596483092 l 6.645919440643864 6.589117051702904 a30.358670243820434,30.358670243820434 0 0,0 -0.37009832745371624,0.36693511289323494 l -6.531829193060183 -6.7022321748248" fill="#ff5107" stroke="none" /><path d="M 113.31354834802062 116.24036423190432 l 11.420984266099548 13.931743778575855 a39.014781883730386,39.014781883730386 0 0,0 -0.5215890456483407,0.4201552138230397 l -11.180144450095955 -14.125747286192299" fill="#ffca12" stroke="none" /><path d="M 113.03279911837588 116.46651593811092 l 11.163357579779627 14.104537623931405 a38.987732876572295,38.987732876572295 0 0,0 -0.5283581456138355,0.41085448977499417 l -10.91958948953056 -14.294093165327192" fill="#ffc912" stroke="none" /><path d="M 112.16784306229584 117.11559508785304 l 8.497541228593128 11.95285591425892 a35.66557095508642,35.66557095508642 0 0,0 -0.5020437071625796,0.3504654982786833 l -8.29110243025679 -12.096966228342726" fill="#ff9c0e" stroke="none" /><path d="M 110.96478420261333 117.91015095944535 l 2.8672272656418767 4.683400257931613 a26.491377802412988,26.491377802412988 0 0,0 -0.3898865291612998,0.23411565841148893 l -2.78640797992314 -4.731929916879025" fill="#ff1702" stroke="none" /><line stroke="#e1ed5e" stroke-width="0.3" x1="143.1302829299769" x2="145.66735839644613" y1="173.24464959558577" y2="177.55315839532614" /><path d="M 143.63769802327073 174.10635135553383 a86.0,86.0 0 0,1 -40.68552437913181,11.842963189579606" fill="none" id="id102" stroke="none" /><text fill="#e1ed5e" style="font-size:6.75px; font-family:Arial;" text-anchor="middle"><textPath startOffset="21.407464694133747" xlink:href="#id102">June</textPath></text><path d="M 110.34350942703117 118.27599006163325 l 10.583909709965447 18.700754326867933 a42.4880747658456,42.4880747658456 0 0,0 -0.6378386906662482,0.35379836967438266 l -10.261326831143105 -18.87968561197546" fill="#fff717" stroke="none" /><path d="M 109.06512990194946 118.94263497670748 l 6.858140284202508 14.330875500721017 a36.88735600328032,36.88735600328032 0 0,0 -0.573530383357651,0.2684411786581238 l -6.611121186973351 -14.446492910949674" fill="#ffad10" stroke="none" /><path d="M 108.07796709384702 119.3841803445677 l 1.7225739403123128 4.133550375725112 a25.4781134072844,25.4781134072844 0 0,0 -0.4051572528403163,0.16477392757272546 l -1.6513622262815555 -4.162511559877129" fill="#ff0801" stroke="none" /><path d="M 107.06938296918513 119.77432235084164 l 2.5230991258281437 7.057557308004141 a28.49500796227178,28.49500796227178 0 0,0 -0.4620183684135565,0.1607139717629507 l -2.4015749853695656 -7.099829712335683" fill="#ff3605" stroke="none" /><path d="M 106.38641147887787 120.00534299687104 l 3.577963669624424 11.207920234691267 a32.765173182250834,32.765173182250834 0 0,0 -0.5372854428995963,0.16645240362803562 l -3.385037593853203 -11.267689226125947" fill="#ff740a" stroke="none" /><path d="M 106.0420521117495 120.11202640906438 l 4.944410563055594 16.458334682028607 a38.18499276466887,38.18499276466887 0 0,0 -0.6293977582271865,0.18320851447871928 l -4.6611527924468 -16.540786890809844" fill="#ffbf11" stroke="none" /><path d="M 105.3480935250658 120.30758222061773 l 2.210038134755874 8.391874772179369 a29.678008455228408,29.678008455228408 0 0,0 -0.4937780505651766,0.1255164495496194 l -2.0656547909653002 -8.428576453564258" fill="#ff4706" stroke="none" /><path d="M 104.64783097203109 120.47920084513623 l 4.227605500742199 18.627609881834417 a40.10132189613381,40.10132189613381 0 0,0 -0.6726282245272527,0.14659619089888423 l -3.9072148595958107 -18.69743753086702" fill="#ffd814" stroke="none" /><path d="M 103.94208987418118 120.62667999033965 l 1.8869331809990597 9.873231745053936 a31.051926279131578,31.051926279131578 0 0,0 -0.5244304622638634,0.09556869992233101 l -1.7171679851841393 -9.90416861890763" fill="#ff5b08" stroke="none" /><path d="M 100.72087961077811 120.9876233191556 l 0.40008727510571546 11.64810448119433 a32.6549735234586,32.6549735234586 0 0,0 -0.5604008422488976,0.014433937817692206 l -0.20007311878607398 -11.653256136362069" fill="#ff720a" stroke="none" /><line stroke="#e1ed5e" stroke-width="0.3" x1="101.45913802915013" x2="101.54496967792366" y1="184.9874750549273" y2="189.98673829345242" /><path d="M 101.47630435890484 185.9873277026323 a86.0,86.0 0 0,1 -42.54439059252881,-10.42667462771756" fill="none" id="id103" stroke="none" /><text fill="#e1ed5e" style="font-size:6.75px; font-family:Arial;" text-anchor="middle"><textPath startOffset="22.145653131862474" xlink:href="#id103">July</textPath></text><path d="M 100.0 121.0 l 2.1219761870220332e-15 17.327250506018842 a38.32725050601884,38.32725050601884 0 0,0 -0.6579382207775896,-0.005647608322070439 l 0.2974452959287353 -17.324697295891205" fill="#ffc011" stroke="none" /><path d="M 99.27912038922189 120.98762331915562 l -0.6912371478243765 20.124615353021877 a41.136483106580854,41.136483106580854 0 0,0 -0.7055381673556764,-0.030298844650147497 l 1.0366010757808917 -20.1097839399459" fill="#ffe615" stroke="none" /><path d="M 98.91894614982273 120.97215588758144 l -0.6705784883901991 13.009043528286684 a34.02631525144196,34.02631525144196 0 0,0 -0.5830743675882508,-0.03507630605272596 l 0.8937972081108962 -12.995615244409267" fill="#ff850c" stroke="none" /><path d="M 98.19965949673042 120.92268563240118 l -0.8155254025183231 9.47764136347561 a30.512663533249587,30.512663533249587 0 0,0 -0.5214765840175904,-0.0493843746836263 l 0.9781015499209288 -9.4622452332868" fill="#ff5307" stroke="none" /><path d="M 97.48249496171623 120.84855314841334 l -1.8956220851260601 15.698470187769303 a36.812506105165596,36.812506105165596 0 0,0 -0.6267279697322499,-0.0811424832129169 l 2.164827876749104 -15.66361610835599" fill="#ffac0f" stroke="none" /><path d="M 97.12497278360702 120.80226474461374 l -1.5876815162042295 11.487672548591188 a32.5968682488227,32.5968682488227 0 0,0 -0.5536421209604308,-0.08136632606766783 l 1.784648742772345 -11.458725149224637" fill="#ff710a" stroke="none" /><path d="M 96.41257539226777 120.69131181640829 l -2.743689031284802 15.824869225463736 a37.060956244988084,37.060956244988084 0 0,0 -0.6259159010229196,-0.11406272752206317 l 3.014939665858779 -15.775438324010306" fill="#ffaf10" stroke="none" /><path d="M 95.35216902796893 120.47920084513623 l -3.198728835535754 14.09418945444978 a35.45261369238143,35.45261369238143 0 0,0 -0.5923420100256016,-0.13979110150236862 l 3.4402029993012433 -14.037202209301183" fill="#ff990e" stroke="none" /><path d="M 94.6519064749342 120.30758222061772 l -4.7514945154273 18.042198606028812 a39.6573746992851,39.6573746992851 0 0,0 -0.6568367862149147,-0.17902378690632087 l 5.06051270257691 -17.95797432497835" fill="#ffd213" stroke="none" /><path d="M 93.95794788825049 120.11202640906438 l -6.18993244244387 20.60427193447496 a42.51397884148378,42.51397884148378 0 0,0 -0.6971469927601005,-0.215977920415496 l 6.542720068075604 -20.494977426252813" fill="#fff717" stroke="none" /><path d="M 93.27111125876986 119.89276391827306 l -5.04569207686132 14.916692064513706 a36.746958775650214,36.746958775650214 0 0,0 -0.5958155884765919,-0.20725559027263818 l 5.301013437382934 -14.827878041672477" fill="#ffab0f" stroke="none" /><path d="M 92.59220618246901 119.65005319985036 l -5.846018353995926 15.50725823273645 a37.572597517952026,37.572597517952026 0 0,0 -0.601569021700109,-0.2326998207680581 l 6.111359638189563 -15.40461852383035" fill="#ffb610" stroke="none" /><path d="M 91.92203290615298 119.3841803445677 l -5.506896574732528 13.214547064051088 a35.316080608631054,35.316080608631054 0 0,0 -0.5575987434417023,-0.2380057467044401 l 5.732930393344661 -13.118066667687245" fill="#ff970e" stroke="none" /><path d="M 91.59046798132341 119.24265499422711 l -4.757029535231948 10.885014521678723 a32.879093868482805,32.879093868482805 0 0,0 -0.5152413865890075,-0.23046091861540266 l 4.94318432467659 -10.801749852153465" fill="#ff750a" stroke="none" /><path d="M 90.6110303473126 118.78422872680471 l -9.677186051370644 19.360854592682593 a42.64464415119457,42.64464415119457 0 0,0 -0.6520016369837939,-0.33291668153951626 l 10.00811491006802 -19.191879959470242" fill="#fff917" stroke="none" /><path d="M 89.97174638481275 118.45085714620012 l -6.19620280858327 11.400315274926275 a33.97536579880554,33.97536579880554 0 0,0 -0.5100443584569441,-0.2829130078252118 l 6.3909913551963164 -11.292269351667915" fill="#ff850c" stroke="none" /><line stroke="#e1ed5e" stroke-width="0.3" x1="58.13341422392154" x2="55.67067388415222" y1="173.97424548756322" y2="178.32567169271397" /><path d="M 57.64086615596768 174.84453072859336 a86.0,86.0 0 0,1 -31.369924170532247,-30.572349798747897" fill="none" id="id104" stroke="none" /><text fill="#e1ed5e" style="font-size:6.75px; font-family:Arial;" text-anchor="middle"><textPath startOffset="22.145653131862474" xlink:href="#id104">August</textPath></text><path d="M 86.96720088162412 116.46651593811092 l -2.451593621541599 3.0975084535728294 a24.9502999766016,24.9502999766016 0 0,0 -0.333560833230287,-0.2686929957178419 l 2.504405225127148 -3.054967164061577" fill="#ff0000" stroke="none" /><path d="M 85.86807049272751 115.53346607816431 l -7.7124139859714544 8.477293986655997 a32.460621397952295,32.460621397952295 0 0,0 -0.4089578107879508,-0.378525244279721 l 7.856801568073372 -8.343650996243898" fill="#ff6f0a" stroke="none" /><path d="M 85.08716467003676 114.78537596483092 l -10.171838255701637 10.084899989596368 a35.32380889639052,35.32380889639052 0 0,0 -0.4232350739027768,-0.43427647079922926 l 10.343460130755222 -9.9088008267294" fill="#ff980e" stroke="none" /><path d="M 83.64595745247003 113.17365903436017 l -4.545090913616317 3.661203509904847 a26.83628842278868,26.83628842278868 0 0,0 -0.2859132665315737,-0.36124207221312915 l 4.6072706107894525 -3.5826414937770377" fill="#ff1d02" stroke="none" /><path d="M 82.78059297857968 112.02048342749411 l -13.170586769417008 9.194092444368724 a37.062244292947994,37.062244292947994 0 0,0 -0.3596983696933547,-0.5248106710986176 l 13.326474875925689 -8.966647038200055" fill="#ffaf10" stroke="none" /><path d="M 82.576782715395 111.72311816256416 l -11.871785984121521 7.987867431091667 a35.308924786631565,35.308924786631565 0 0,0 -0.3340485925280898,-0.5057921452395929 l 12.007159015570338 -7.782895407513013" fill="#ff970e" stroke="none" /><path d="M 82.37810715431573 111.42229804090323 l -12.009440809324108 7.784374438656356 a35.31164399899137,35.31164399899137 0 0,0 -0.325341828257602,-0.511491391862291 l 12.141300329207601 -7.577069372115393" fill="#ff970e" stroke="none" /><line stroke="#e1ed5e" stroke-width="0.3" x1="26.387840678322732" x2="22.057713659400548" y1="142.50000000000003" y2="145.00000000000006" /><path d="M 25.521815274538298 143.00000000000003 a86.0,86.0 0 0,1 -11.493303480769221,-40.785679425670985" fill="none" id="id105" stroke="none" /><text fill="#e1ed5e" style="font-size:6.75px; font-family:Arial;" text-anchor="middle"><textPath startOffset="21.40746469413373" xlink:href="#id105">September</textPath></text><path d="M 81.29705330413844 109.54985784667822 l -6.834632620862688 3.489812114897964 a28.674046628699163,28.674046628699163 0 0,0 -0.22008025353259197,-0.44030793298241055 l 6.893532787607017 -3.3719723257518006" fill="#ff3805" stroke="none" /><path d="M 81.1358732173502 109.22738970284198 l -15.556312665403471 7.609372061417559 a38.31766170453952,38.31766170453952 0 0,0 -0.2839534737000716,-0.5933535493530934 l 15.684645397063456 -7.34120600999936" fill="#ffc011" stroke="none" /><path d="M 80.41425534168474 107.57618678355246 l -20.15694233829203 7.7971383168912025 a42.61244295219684,42.61244295219684 0 0,0 -0.2580473919632014,-0.6845013650568308 l 20.287820414069667 -7.449968671640226" fill="#fff917" stroke="none" /><path d="M 80.28708602549918 107.23885506374661 l -17.677499775148686 6.491422776320157 a39.83169052319281,39.83169052319281 0 0,0 -0.2301889137503313,-0.6438793600417755 l 17.786328858942962 -6.18700845989746" fill="#ffd513" stroke="none" /><path d="M 80.05021161711548 106.5578916946017 l -16.55058238912655 5.440505167643326 a38.42185047285218,38.42185047285218 0 0,0 -0.20059002366452208,-0.6283453921550706 l 16.641537128568327 -5.155590741796863" fill="#ffc212" stroke="none" /><path d="M 79.94057633289273 106.21446072829308 l -13.697429222669731 4.243498586773227 a35.33969482122939,35.33969482122939 0 0,0 -0.17455062841936111,-0.5810222724928648 l 13.768256171092723 -4.0077387106896385" fill="#ff980e" stroke="none" /><path d="M 79.64726062577567 105.17358676015961 l -16.865179183000055 4.287062597548435 a38.401527938373604,38.401527938373604 0 0,0 -0.15692048085454752,-0.6402891111319453 l 16.936287190370894 -3.99691766180839" fill="#ffc112" stroke="none" /><path d="M 79.48165901384964 104.47187691870673 l -14.143080392965174 3.082418545018091 a35.475082973459855,35.475082973459855 0 0,0 -0.12457208700754561,-0.5961225319342417 l 14.193910190797087 -2.8391795617984403" fill="#ff9a0e" stroke="none" /><path d="M 79.34024301695615 103.76489593502545 l -35.48551597077589 6.466643094606796 a57.06992260353793,57.06992260353793 0 0,0 -0.16736483805918786,-0.9653159104504392 l 35.591295626327316 -5.856534151235763" fill="#5bff2a" stroke="none" /><path d="M 79.2786578344484 103.40968896794605 l -14.132469293979863 2.3254924442891 a35.32252084843061,35.32252084843061 0 0,0 -0.0933162262183746,-0.5991571128658918 l 14.170307012336506 -2.082547149491758" fill="#ff970e" stroke="none" /><path d="M 79.17382384314188 102.69636545807758 l -17.10619050249206 2.2147388384125146 a38.248965813344356,38.248965813344356 0 0,0 -0.07871621453229902,-0.651883176939842 l 17.14168880328402 -1.9207619845492736" fill="#ffbf11" stroke="none" /><path d="M 79.13060592940153 102.33845913500099 l -14.371972831733515 1.6104095328623687 a35.46191626098078,35.46191626098078 0 0,0 -0.06259468541952665,-0.6055468001128136 l 14.397499909634709 -1.3634582104666237" fill="#ff990e" stroke="none" /><path d="M 79.06263194458094 101.62068470465958 l -13.219477898693771 1.0232711951802904 a34.259022582865555,34.259022582865555 0 0,0 -0.04035392919317335,-0.5867372739986881 l 13.23509578905201 -0.796190497027259" fill="#ff890c" stroke="none" /><path d="M 79.03789590574601 101.26102812881392 l -37.383699136081674 2.248910508112486 a58.45128248232058,58.45128248232058 0 0,0 -0.05165537605222607,-1.0021004955685708 l 37.41679610159047 -1.606838219167184" fill="#4cff2c" stroke="none" /><path d="M 79.00696218219943 100.54070618675478 l -15.863060652685537 0.40857617226318355 a36.86832151676167,36.86832151676167 0 0,0 -0.010864863311850124,-0.6328238187505375 l 15.867736947596052 -0.13620543754359365" fill="#ffad10" stroke="none" /><line stroke="#e1ed5e" stroke-width="0.3" x1="15.003131293944662" x2="10.003315487706104" y1="100.72959589197737" y2="100.7725132973878" /><path d="M 14.003168132696942 100.73817937305945 a86.0,86.0 0 0,1 10.791469493833604,-42.45332614584628" fill="none" id="id106" stroke="none" /><text fill="#e1ed5e" style="font-size:6.75px; font-family:Arial;" text-anchor="middle"><textPath startOffset="22.145653131862435" xlink:href="#id106">October</textPath></text><path d="M 79.00696218219943 99.45929381324524 l -14.348103093847472 -0.3695562394719332 a35.35286153370846,35.35286153370846 0 0,0 0.0208334631922213,-0.606543549539362 l 14.339644943658401 0.6158060535754337" fill="#ff980e" stroke="none" /><path d="M 79.03789590574601 98.7389718711861 l -43.0081684146263 -2.5872646131204062 a64.08591984116347,64.08591984116347 0 0,0 0.0754872286649348,-1.0975677376187267 l 42.9574172247963 3.3251757748934576" fill="#33ff53" stroke="none" /><path d="M 79.13060592940154 97.66154086499901 l -17.7775828214006 -1.992015235627241 a38.88883941653926,38.88883941653926 0 0,0 0.0800330717793145,-0.6627886440137385 l 17.740767663361616 2.296897556564416" fill="#ffc812" stroke="none" /><path d="M 79.17382384314186 97.30363454192245 l -18.380596301518622 -2.3797361835894364 a39.5340083280138,39.5340083280138 0 0,0 0.09291524254950281,-0.672288409411888 l 18.33703654241391 2.6949129012013913" fill="#ffd113" stroke="none" /><path d="M 79.2786578344484 96.59031103205396 l -21.187547768918304 -3.48640292256799 a42.4724750738867,42.4724750738867 0 0,0 0.1245559585229448,-0.7184056693024296 l 21.124576992903123 3.849601624791012" fill="#fff717" stroke="none" /><path d="M 79.407916724674 95.88100663000787 l -14.783884666703347 -2.9571909801785403 a36.07674448717745,36.07674448717745 0 0,0 0.12668484402327954,-0.6062328390811778 l 14.7309421118557 3.210540270545127" fill="#ffa20f" stroke="none" /><path d="M 79.73907114497095 94.47779374421319 l -27.772920418949386 -7.569632960876001 a49.786011390251275,49.786011390251275 0 0,0 0.23181672701575254,-0.822635783471025 l 27.63888519985905 8.04527666825004" fill="#adff20" stroke="none" /><path d="M 79.83685265289637 94.1308016681162 l -13.890416534142162 -4.043297811989118 a35.46692533638043,35.46692533638043 0 0,0 0.17517904828789918,-0.5831140778527425 l 13.818961165850633 4.281149493432584" fill="#ff990e" stroke="none" /><path d="M 80.05021161711548 93.44210830539832 l -29.13387602825547 -9.576883722795003 a51.66756322679868,51.66756322679868 0 0,0 0.2842074659298489,-0.8402088726643872 l 28.965183140753258 10.075594269933552" fill="#97ff23" stroke="none" /><path d="M 80.28708602549916 92.7611449362534 l -16.264460532731245 -5.972535193871541 a38.3263918073789,38.3263918073789 0 0,0 0.23209243038116087,-0.6156527458255313 l 16.15953741853565 6.250856219891217" fill="#ffc011" stroke="none" /><path d="M 80.41425534168474 92.42381321644754 l -14.93207195699967 -5.776046210407721 a37.010293025231654,37.010293025231654 0 0,0 0.2342951140317162,-0.5905767402563028 l 14.830718168001821 6.031523967877606" fill="#ffaf10" stroke="none" /><path d="M 80.68587082218212 91.75594674310238 l -21.7773112515585 -9.29543921431759 a44.678185647011254,44.678185647011254 0 0,0 0.3071436295420865,-0.702804732038251 l 21.614533739999438 9.667906016131706" fill="#ebff1a" stroke="none" /><path d="M 80.9802524753101 91.09779779509293 l -42.954934989648784 -20.105078496972627 a68.4272139318175,68.4272139318175 0 0,0 0.5070806575145603,-1.0596035471021306 l 42.60347507417432 20.839494546139843" fill="#39ff87" stroke="none" /><path d="M 81.29705330413844 90.45014215332179 l -16.127239831171977 -8.234683568929698 a39.10795068616382,39.10795068616382 0 0,0 0.31042761039568906,-0.5952858743484161 l 15.983504151801347 8.510315686382603" fill="#ffcb12" stroke="none" /><path d="M 81.46374523516351 90.13048839642627 l -13.860345636718876 -7.379853364480129 a36.70259267925334,36.70259267925334 0 0,0 0.3008820005193834,-0.5535889919096812 l 13.73161828658414 7.616697189864431" fill="#ffaa0f" stroke="none" /><line stroke="#e1ed5e" stroke-width="0.3" x1="26.387840678322718" x2="22.05771365940052" y1="57.49999999999999" y2="54.99999999999999" /><path d="M 25.521815274538284 56.99999999999999 a86.0,86.0 0 0,1 29.574782752854787,-30.34633250058573" fill="none" id="id107" stroke="none" /><text fill="#e1ed5e" style="font-size:6.75px; font-family:Arial;" text-anchor="middle"><textPath startOffset="21.40746469413373" xlink:href="#id107">November</textPath></text><path d="M 81.81346652052679 89.5 l -9.924569561418565 -5.729952907876176 a32.45990581575235,32.45990581575235 0 0,0 0.28275095906725595,-0.48017294376019665 l 9.82474489222153 5.899477019929946" fill="#ff6f0a" stroke="none" /><path d="M 81.99639281039701 89.18935116829357 l -27.00068699542991 -16.213136748005894 a52.49449001706039,52.49449001706039 0 0,0 0.47053070051368234,-0.7685765375341321 l 26.718388330460833 16.67425040166457" fill="#8eff24" stroke="none" /><path d="M 82.576782715395 88.27688183743585 l -12.847594759964037 -8.644435124440507 a36.48505569046867,36.48505569046867 0 0,0 0.35409660964677947,-0.5166375357800359 l 12.697308413501943 8.863707395290579" fill="#ffa80f" stroke="none" /><path d="M 82.78059297857968 87.97951657250589 l -10.043170904022437 -7.0109132829671115 a33.248191167216795,33.248191167216795 0 0,0 0.330716435048606,-0.4651940826496985 l 9.921339370443858 7.18228459232633" fill="#ff7a0b" stroke="none" /><path d="M 83.2033758604659 87.39550010848427 l -10.304373537038176 -7.732594005246215 a33.88305569501205,33.88305569501205 0 0,0 0.35310665428796584,-0.4622279453388241 l 10.170114905395902 7.908342863825924" fill="#ff830c" stroke="none" /><path d="M 83.64595745247003 86.82634096563983 l -49.06212764258992 -39.520977103080504 a84.0,84.0 0 0,0 0.9142127230454804,-1.1151908732060285 l 48.376468100305814 40.357370257985025" fill="#4dd2ff" stroke="none" /><path d="M 84.34580500576568 86.00192230759919 l -7.390562662685332 -6.6086867054441045 a30.91439138030127,30.91439138030127 0 0,0 0.35713821075883295,-0.3925574550300278 l 7.2760267510846335 6.73458173603179" fill="#ff5908" stroke="none" /><path d="M 86.13680546590413 84.22622945171909 l -10.842272108911443 -12.3365153715019 a37.42389953680251,37.42389953680251 0 0,0 0.48619084480635,-0.41996007199517654 l 10.628901784342244 12.520819575961788" fill="#ffb410" stroke="none" /><path d="M 86.96720088162412 83.53348406188908 l -13.378069809079669 -16.902754176711582 a42.55634130772079,42.55634130772079 0 0,0 0.5767195966136041,-0.44846064658403406 l 13.08594026783082 17.12991587491642" fill="#fff817" stroke="none" /><path d="M 87.83215693770416 82.88440491214696 l -7.016838056267167 -9.870061468843966 a33.110083802626534,33.110083802626534 0 0,0 0.46607158589068587,-0.3253541638951757 l 6.846371379202716 9.989060448544269" fill="#ff780b" stroke="none" /><line stroke="#e1ed5e" stroke-width="0.3" x1="56.869717070023135" x2="54.33264160355391" y1="26.7553504044142" y2="22.446841604673864" /><path d="M 56.362301976729285 25.89364864446614 a86.0,86.0 0 0,1 42.16139366436587,-11.88097634709845" fill="none" id="id108" stroke="none" /><text fill="#e1ed5e" style="font-size:6.75px; font-family:Arial;" text-anchor="middle"><textPath startOffset="22.145653131862474" xlink:href="#id108">December</textPath></text></svg>